  0
SECTION
  2
BLOCKS
  0
ENDSEC
  0
SECTION
  2
ENTITIES
  0
LINE
  8
0
 10
-49.35
 20
-6.44572
 11
-49.35
 21
-13.6556
  0
LINE
  8
0
 10
-49.35
 20
-13.6556
 11
-49.3493
 21
-13.7078
  0
LINE
  8
0
 10
-49.3493
 20
-13.7078
 11
-49.3421
 21
-13.984
  0
LINE
  8
0
 10
-49.3421
 20
-13.984
 11
-49.3318
 21
-14.1407
  0
LINE
  8
0
 10
-49.3318
 20
-14.1407
 11
-49.2819
 21
-14.616
  0
LINE
  8
0
 10
-49.2819
 20
-14.616
 11
-49.2491
 21
-14.8228
  0
LINE
  8
0
 10
-49.2491
 20
-14.8228
 11
-49.2061
 21
-15.0254
  0
LINE
  8
0
 10
-49.2061
 20
-15.0254
 11
-49.1519
 21
-15.2276
  0
LINE
  8
0
 10
-49.1519
 20
-15.2276
 11
-49.0074
 21
-15.6724
  0
LINE
  8
0
 10
-49.0074
 20
-15.6724
 11
-48.9998
 21
-15.6966
  0
LINE
  8
0
 10
-48.9998
 20
-15.6966
 11
-48.9773
 21
-15.7726
  0
LINE
  8
0
 10
-48.9773
 20
-15.7726
 11
-48.9704
 21
-15.7972
  0
LINE
  8
0
 10
-48.9704
 20
-15.7972
 11
-48.696
 21
-16.8212
  0
LINE
  8
0
 10
-48.696
 20
-16.8212
 11
-48.684
 21
-16.8714
  0
LINE
  8
0
 10
-48.684
 20
-16.8714
 11
-48.6512
 21
-17.0256
  0
LINE
  8
0
 10
-48.6512
 20
-17.0256
 11
-48.6417
 21
-17.0767
  0
LINE
  8
0
 10
-48.6417
 20
-17.0767
 11
-48.4862
 21
-18.0588
  0
LINE
  8
0
 10
-48.4862
 20
-18.0588
 11
-48.4794
 21
-18.1105
  0
LINE
  8
0
 10
-48.4794
 20
-18.1105
 11
-48.463
 21
-18.2664
  0
LINE
  8
0
 10
-48.463
 20
-18.2664
 11
-48.4588
 21
-18.3193
  0
LINE
  8
0
 10
-48.4588
 20
-18.3193
 11
-48.4034
 21
-19.3767
  0
LINE
  8
0
 10
-48.4034
 20
-19.3767
 11
-48.4024
 21
-19.4028
  0
LINE
  8
0
 10
-48.4024
 20
-19.4028
 11
-48.4003
 21
-19.4813
  0
LINE
  8
0
 10
-48.4003
 20
-19.4813
 11
-48.4
 21
-19.5079
  0
LINE
  8
0
 10
-48.4
 20
-19.5079
 11
-48.4
 21
-25.4557
  0
LINE
  8
0
 10
-48.4
 20
-25.4557
 11
-48.3993
 21
-25.5082
  0
LINE
  8
0
 10
-48.3993
 20
-25.5082
 11
-48.3922
 21
-25.7779
  0
LINE
  8
0
 10
-48.3922
 20
-25.7779
 11
-48.3819
 21
-25.9346
  0
LINE
  8
0
 10
-48.3819
 20
-25.9346
 11
-48.3323
 21
-26.4061
  0
LINE
  8
0
 10
-48.3323
 20
-26.4061
 11
-48.2996
 21
-26.6128
  0
LINE
  8
0
 10
-48.2996
 20
-26.6128
 11
-48.2565
 21
-26.8155
  0
LINE
  8
0
 10
-48.2565
 20
-26.8155
 11
-48.2023
 21
-27.0177
  0
LINE
  8
0
 10
-48.2023
 20
-27.0177
 11
-48.1382
 21
-27.2151
  0
LINE
  8
0
 10
-48.1382
 20
-27.2151
 11
-48.0631
 21
-27.4106
  0
LINE
  8
0
 10
-48.0631
 20
-27.4106
 11
-47.979
 21
-27.5996
  0
LINE
  8
0
 10
-47.979
 20
-27.5996
 11
-47.8839
 21
-27.7862
  0
LINE
  8
0
 10
-47.8839
 20
-27.7862
 11
-47.7802
 21
-27.9658
  0
LINE
  8
0
 10
-47.7802
 20
-27.9658
 11
-47.6661
 21
-28.1414
  0
LINE
  8
0
 10
-47.6661
 20
-28.1414
 11
-47.6118
 21
-28.2162
  0
LINE
  8
0
 10
-47.6118
 20
-28.2162
 11
-47.5822
 21
-28.2592
  0
LINE
  8
0
 10
-47.5822
 20
-28.2592
 11
-47.511
 21
-28.3689
  0
LINE
  8
0
 10
-47.511
 20
-28.3689
 11
-47.4586
 21
-28.4595
  0
LINE
  8
0
 10
-47.4586
 20
-28.4595
 11
-47.4111
 21
-28.5529
  0
LINE
  8
0
 10
-47.4111
 20
-28.5529
 11
-47.3687
 21
-28.6481
  0
LINE
  8
0
 10
-47.3687
 20
-28.6481
 11
-47.3311
 21
-28.7459
  0
LINE
  8
0
 10
-47.3311
 20
-28.7459
 11
-47.2988
 21
-28.8455
  0
LINE
  8
0
 10
-47.2988
 20
-28.8455
 11
-47.2717
 21
-28.9465
  0
LINE
  8
0
 10
-47.2717
 20
-28.9465
 11
-47.25
 21
-29.0488
  0
LINE
  8
0
 10
-47.25
 20
-29.0488
 11
-47.2336
 21
-29.152
  0
LINE
  8
0
 10
-47.2336
 20
-29.152
 11
-47.2227
 21
-29.2563
  0
LINE
  8
0
 10
-47.2227
 20
-29.2563
 11
-47.2172
 21
-29.3605
  0
LINE
  8
0
 10
-47.2172
 20
-29.3605
 11
-47.2172
 21
-29.4651
  0
LINE
  8
0
 10
-47.2172
 20
-29.4651
 11
-47.224
 21
-29.596
  0
LINE
  8
0
 10
-47.224
 20
-29.596
 11
-47.2282
 21
-29.6485
  0
LINE
  8
0
 10
-47.2282
 20
-29.6485
 11
-47.2349
 21
-29.7128
  0
LINE
  8
0
 10
-47.2349
 20
-29.7128
 11
-47.2432
 21
-29.8172
  0
LINE
  8
0
 10
-47.2432
 20
-29.8172
 11
-47.2445
 21
-29.8428
  0
LINE
  8
0
 10
-47.2445
 20
-29.8428
 11
-47.2473
 21
-29.9476
  0
LINE
  8
0
 10
-47.2473
 20
-29.9476
 11
-47.2473
 21
-30.0523
  0
LINE
  8
0
 10
-47.2473
 20
-30.0523
 11
-47.2445
 21
-30.1576
  0
LINE
  8
0
 10
-47.2445
 20
-30.1576
 11
-47.2431
 21
-30.1839
  0
LINE
  8
0
 10
-47.2431
 20
-30.1839
 11
-47.2349
 21
-30.2879
  0
LINE
  8
0
 10
-47.2349
 20
-30.2879
 11
-47.224
 21
-30.391
  0
LINE
  8
0
 10
-47.224
 20
-30.391
 11
-47.2104
 21
-30.4943
  0
LINE
  8
0
 10
-47.2104
 20
-30.4943
 11
-47.2062
 21
-30.521
  0
LINE
  8
0
 10
-47.2062
 20
-30.521
 11
-47.1871
 21
-30.6243
  0
LINE
  8
0
 10
-47.1871
 20
-30.6243
 11
-47.1654
 21
-30.7263
  0
LINE
  8
0
 10
-47.1654
 20
-30.7263
 11
-47.141
 21
-30.8282
  0
LINE
  8
0
 10
-47.141
 20
-30.8282
 11
-47.1344
 21
-30.8528
  0
LINE
  8
0
 10
-47.1344
 20
-30.8528
 11
-47.1048
 21
-30.9525
  0
LINE
  8
0
 10
-47.1048
 20
-30.9525
 11
-47.0724
 21
-31.0524
  0
LINE
  8
0
 10
-47.0724
 20
-31.0524
 11
-47.0369
 21
-31.1525
  0
LINE
  8
0
 10
-47.0369
 20
-31.1525
 11
-47.0275
 21
-31.1772
  0
LINE
  8
0
 10
-47.0275
 20
-31.1772
 11
-46.9878
 21
-31.273
  0
LINE
  8
0
 10
-46.9878
 20
-31.273
 11
-46.9452
 21
-31.3687
  0
LINE
  8
0
 10
-46.9452
 20
-31.3687
 11
-46.8999
 21
-31.4635
  0
LINE
  8
0
 10
-46.8999
 20
-31.4635
 11
-46.8883
 21
-31.4864
  0
LINE
  8
0
 10
-46.8883
 20
-31.4864
 11
-46.8383
 21
-31.5784
  0
LINE
  8
0
 10
-46.8383
 20
-31.5784
 11
-46.7858
 21
-31.6694
  0
LINE
  8
0
 10
-46.7858
 20
-31.6694
 11
-46.7311
 21
-31.7585
  0
LINE
  8
0
 10
-46.7311
 20
-31.7585
 11
-46.7172
 21
-31.78
  0
LINE
  8
0
 10
-46.7172
 20
-31.78
 11
-46.6578
 21
-31.8664
  0
LINE
  8
0
 10
-46.6578
 20
-31.8664
 11
-46.5962
 21
-31.9512
  0
LINE
  8
0
 10
-46.5962
 20
-31.9512
 11
-46.5324
 21
-32.0342
  0
LINE
  8
0
 10
-46.5324
 20
-32.0342
 11
-46.516
 21
-32.0546
  0
LINE
  8
0
 10
-46.516
 20
-32.0546
 11
-46.4481
 21
-32.134
  0
LINE
  8
0
 10
-46.4481
 20
-32.134
 11
-46.3782
 21
-32.2117
  0
LINE
  8
0
 10
-46.3782
 20
-32.2117
 11
-46.3061
 21
-32.2876
  0
LINE
  8
0
 10
-46.3061
 20
-32.2876
 11
-46.2876
 21
-32.3061
  0
LINE
  8
0
 10
-46.2876
 20
-32.3061
 11
-46.2117
 21
-32.3782
  0
LINE
  8
0
 10
-46.2117
 20
-32.3782
 11
-46.134
 21
-32.4481
  0
LINE
  8
0
 10
-46.134
 20
-32.4481
 11
-46.0546
 21
-32.516
  0
LINE
  8
0
 10
-46.0546
 20
-32.516
 11
-46.0342
 21
-32.5324
  0
LINE
  8
0
 10
-46.0342
 20
-32.5324
 11
-45.951
 21
-32.5963
  0
LINE
  8
0
 10
-45.951
 20
-32.5963
 11
-45.8667
 21
-32.6576
  0
LINE
  8
0
 10
-45.8667
 20
-32.6576
 11
-45.8316
 21
-32.6825
  0
LINE
  8
0
 10
-45.8316
 20
-32.6825
 11
-45.779
 21
-32.7178
  0
LINE
  8
0
 10
-45.779
 20
-32.7178
 11
-45.7578
 21
-32.7316
  0
LINE
  8
0
 10
-45.7578
 20
-32.7316
 11
-45.6692
 21
-32.7859
  0
LINE
  8
0
 10
-45.6692
 20
-32.7859
 11
-45.5784
 21
-32.8383
  0
LINE
  8
0
 10
-45.5784
 20
-32.8383
 11
-45.4859
 21
-32.8885
  0
LINE
  8
0
 10
-45.4859
 20
-32.8885
 11
-45.4628
 21
-32.9003
  0
LINE
  8
0
 10
-45.4628
 20
-32.9003
 11
-45.3686
 21
-32.9452
  0
LINE
  8
0
 10
-45.3686
 20
-32.9452
 11
-45.273
 21
-32.9878
  0
LINE
  8
0
 10
-45.273
 20
-32.9878
 11
-45.1765
 21
-33.0278
  0
LINE
  8
0
 10
-45.1765
 20
-33.0278
 11
-45.1517
 21
-33.0372
  0
LINE
  8
0
 10
-45.1517
 20
-33.0372
 11
-45.0524
 21
-33.0724
  0
LINE
  8
0
 10
-45.0524
 20
-33.0724
 11
-44.9526
 21
-33.1048
  0
LINE
  8
0
 10
-44.9526
 20
-33.1048
 11
-44.8528
 21
-33.1344
  0
LINE
  8
0
 10
-44.8528
 20
-33.1344
 11
-44.8282
 21
-33.141
  0
LINE
  8
0
 10
-44.8282
 20
-33.141
 11
-44.7261
 21
-33.1655
  0
LINE
  8
0
 10
-44.7261
 20
-33.1655
 11
-44.6238
 21
-33.1872
  0
LINE
  8
0
 10
-44.6238
 20
-33.1872
 11
-44.5201
 21
-33.2064
  0
LINE
  8
0
 10
-44.5201
 20
-33.2064
 11
-44.4937
 21
-33.2105
  0
LINE
  8
0
 10
-44.4937
 20
-33.2105
 11
-44.3909
 21
-33.2241
  0
LINE
  8
0
 10
-44.3909
 20
-33.2241
 11
-44.2874
 21
-33.2349
  0
LINE
  8
0
 10
-44.2874
 20
-33.2349
 11
-44.1836
 21
-33.2431
  0
LINE
  8
0
 10
-44.1836
 20
-33.2431
 11
-44.1579
 21
-33.2445
  0
LINE
  8
0
 10
-44.1579
 20
-33.2445
 11
-44.0526
 21
-33.2473
  0
LINE
  8
0
 10
-44.0526
 20
-33.2473
 11
-43.9476
 21
-33.2473
  0
LINE
  8
0
 10
-43.9476
 20
-33.2473
 11
-43.8423
 21
-33.2445
  0
LINE
  8
0
 10
-43.8423
 20
-33.2445
 11
-43.8165
 21
-33.2431
  0
LINE
  8
0
 10
-43.8165
 20
-33.2431
 11
-43.7129
 21
-33.235
  0
LINE
  8
0
 10
-43.7129
 20
-33.235
 11
-43.6084
 21
-33.224
  0
LINE
  8
0
 10
-43.6084
 20
-33.224
 11
-43.5027
 21
-33.21
  0
LINE
  8
0
 10
-43.5027
 20
-33.21
 11
-43.4772
 21
-33.2059
  0
LINE
  8
0
 10
-43.4772
 20
-33.2059
 11
-43.3763
 21
-33.1872
  0
LINE
  8
0
 10
-43.3763
 20
-33.1872
 11
-43.274
 21
-33.1655
  0
LINE
  8
0
 10
-43.274
 20
-33.1655
 11
-43.1718
 21
-33.141
  0
LINE
  8
0
 10
-43.1718
 20
-33.141
 11
-43.1472
 21
-33.1344
  0
LINE
  8
0
 10
-43.1472
 20
-33.1344
 11
-43.0471
 21
-33.1047
  0
LINE
  8
0
 10
-43.0471
 20
-33.1047
 11
-42.9469
 21
-33.0722
  0
LINE
  8
0
 10
-42.9469
 20
-33.0722
 11
-42.8469
 21
-33.0367
  0
LINE
  8
0
 10
-42.8469
 20
-33.0367
 11
-42.8223
 21
-33.0273
  0
LINE
  8
0
 10
-42.8223
 20
-33.0273
 11
-42.7266
 21
-32.9876
  0
LINE
  8
0
 10
-42.7266
 20
-32.9876
 11
-42.6314
 21
-32.9452
  0
LINE
  8
0
 10
-42.6314
 20
-32.9452
 11
-42.536
 21
-32.8997
  0
LINE
  8
0
 10
-42.536
 20
-32.8997
 11
-42.5127
 21
-32.8878
  0
LINE
  8
0
 10
-42.5127
 20
-32.8878
 11
-42.4216
 21
-32.8383
  0
LINE
  8
0
 10
-42.4216
 20
-32.8383
 11
-42.3314
 21
-32.7862
  0
LINE
  8
0
 10
-42.3314
 20
-32.7862
 11
-42.2411
 21
-32.7309
  0
LINE
  8
0
 10
-42.2411
 20
-32.7309
 11
-42.2187
 21
-32.7163
  0
LINE
  8
0
 10
-42.2187
 20
-32.7163
 11
-42.1335
 21
-32.6577
  0
LINE
  8
0
 10
-42.1335
 20
-32.6577
 11
-42.0493
 21
-32.5966
  0
LINE
  8
0
 10
-42.0493
 20
-32.5966
 11
-41.9659
 21
-32.5326
  0
LINE
  8
0
 10
-41.9659
 20
-32.5326
 11
-41.9455
 21
-32.5161
  0
LINE
  8
0
 10
-41.9455
 20
-32.5161
 11
-41.8658
 21
-32.448
  0
LINE
  8
0
 10
-41.8658
 20
-32.448
 11
-41.7879
 21
-32.3779
  0
LINE
  8
0
 10
-41.7879
 20
-32.3779
 11
-41.7499
 21
-32.3427
  0
LINE
  8
0
 10
-41.7499
 20
-32.3427
 11
-41.7376
 21
-32.331
  0
LINE
  8
0
 10
-41.7376
 20
-32.331
 11
-41.7306
 21
-32.325
  0
LINE
  8
0
 10
-41.7306
 20
-32.325
 11
-41.7192
 21
-32.3143
  0
LINE
  8
0
 10
-41.7192
 20
-32.3143
 11
-41.7143
 21
-32.309
  0
LINE
  8
0
 10
-41.7143
 20
-32.309
 11
-41.7117
 21
-32.3067
  0
LINE
  8
0
 10
-41.7117
 20
-32.3067
 11
-41.7117
 21
-32.3069
  0
LINE
  8
0
 10
-41.7117
 20
-32.3069
 11
-41.6092
 21
-32.2146
  0
LINE
  8
0
 10
-41.6092
 20
-32.2146
 11
-41.5278
 21
-32.1487
  0
LINE
  8
0
 10
-41.5278
 20
-32.1487
 11
-41.4432
 21
-32.0872
  0
LINE
  8
0
 10
-41.4432
 20
-32.0872
 11
-41.3555
 21
-32.0303
  0
LINE
  8
0
 10
-41.3555
 20
-32.0303
 11
-41.2651
 21
-31.9781
  0
LINE
  8
0
 10
-41.2651
 20
-31.9781
 11
-41.1716
 21
-31.9304
  0
LINE
  8
0
 10
-41.1716
 20
-31.9304
 11
-41.0762
 21
-31.888
  0
LINE
  8
0
 10
-41.0762
 20
-31.888
 11
-40.9786
 21
-31.8505
  0
LINE
  8
0
 10
-40.9786
 20
-31.8505
 11
-40.879
 21
-31.8181
  0
LINE
  8
0
 10
-40.879
 20
-31.8181
 11
-40.778
 21
-31.7911
  0
LINE
  8
0
 10
-40.778
 20
-31.7911
 11
-40.6756
 21
-31.7693
  0
LINE
  8
0
 10
-40.6756
 20
-31.7693
 11
-40.5725
 21
-31.753
  0
LINE
  8
0
 10
-40.5725
 20
-31.753
 11
-40.4683
 21
-31.742
  0
LINE
  8
0
 10
-40.4683
 20
-31.742
 11
-40.364
 21
-31.7366
  0
LINE
  8
0
 10
-40.364
 20
-31.7366
 11
-40.2592
 21
-31.7366
  0
LINE
  8
0
 10
-40.2592
 20
-31.7366
 11
-40.1549
 21
-31.742
  0
LINE
  8
0
 10
-40.1549
 20
-31.742
 11
-40.0507
 21
-31.753
  0
LINE
  8
0
 10
-40.0507
 20
-31.753
 11
-39.9476
 21
-31.7693
  0
LINE
  8
0
 10
-39.9476
 20
-31.7693
 11
-39.8452
 21
-31.7911
  0
LINE
  8
0
 10
-39.8452
 20
-31.7911
 11
-39.7442
 21
-31.8181
  0
LINE
  8
0
 10
-39.7442
 20
-31.8181
 11
-39.6446
 21
-31.8505
  0
LINE
  8
0
 10
-39.6446
 20
-31.8505
 11
-39.547
 21
-31.888
  0
LINE
  8
0
 10
-39.547
 20
-31.888
 11
-39.4516
 21
-31.9304
  0
LINE
  8
0
 10
-39.4516
 20
-31.9304
 11
-39.3581
 21
-31.9781
  0
LINE
  8
0
 10
-39.3581
 20
-31.9781
 11
-39.2678
 21
-32.0302
  0
LINE
  8
0
 10
-39.2678
 20
-32.0302
 11
-39.1799
 21
-32.0873
  0
LINE
  8
0
 10
-39.1799
 20
-32.0873
 11
-39.0742
 21
-32.1641
  0
LINE
  8
0
 10
-39.0742
 20
-32.1641
 11
-39.0326
 21
-32.196
  0
LINE
  8
0
 10
-39.0326
 20
-32.196
 11
-38.3423
 21
-32.755
  0
LINE
  8
0
 10
-38.3423
 20
-32.755
 11
-38.3028
 21
-32.7887
  0
LINE
  8
0
 10
-38.3028
 20
-32.7887
 11
-38.1862
 21
-32.8937
  0
LINE
  8
0
 10
-38.1862
 20
-32.8937
 11
-38.148
 21
-32.93
  0
LINE
  8
0
 10
-38.148
 20
-32.93
 11
-37.4452
 21
-33.6328
  0
LINE
  8
0
 10
-37.4452
 20
-33.6328
 11
-37.4089
 21
-33.671
  0
LINE
  8
0
 10
-37.4089
 20
-33.671
 11
-37.304
 21
-33.7875
  0
LINE
  8
0
 10
-37.304
 20
-33.7875
 11
-37.27
 21
-33.8273
  0
LINE
  8
0
 10
-37.27
 20
-33.8273
 11
-36.6037
 21
-34.6501
  0
LINE
  8
0
 10
-36.6037
 20
-34.6501
 11
-36.5873
 21
-34.6709
  0
LINE
  8
0
 10
-36.5873
 20
-34.6709
 11
-36.5393
 21
-34.7334
  0
LINE
  8
0
 10
-36.5393
 20
-34.7334
 11
-36.5242
 21
-34.7536
  0
LINE
  8
0
 10
-36.5242
 20
-34.7536
 11
-36.0471
 21
-35.4102
  0
LINE
  8
0
 10
-36.0471
 20
-35.4102
 11
-35.9153
 21
-35.5728
  0
LINE
  8
0
 10
-35.9153
 20
-35.5728
 11
-35.7768
 21
-35.7267
  0
LINE
  8
0
 10
-35.7768
 20
-35.7267
 11
-35.6288
 21
-35.8747
  0
LINE
  8
0
 10
-35.6288
 20
-35.8747
 11
-35.4745
 21
-36.0136
  0
LINE
  8
0
 10
-35.4745
 20
-36.0136
 11
-35.3119
 21
-36.1453
  0
LINE
  8
0
 10
-35.3119
 20
-36.1453
 11
-35.1395
 21
-36.2705
  0
LINE
  8
0
 10
-35.1395
 20
-36.2705
 11
-35.0967
 21
-36.3008
  0
LINE
  8
0
 10
-35.0967
 20
-36.3008
 11
-35.0414
 21
-36.3388
  0
LINE
  8
0
 10
-35.0414
 20
-36.3388
 11
-34.936
 21
-36.4153
  0
LINE
  8
0
 10
-34.936
 20
-36.4153
 11
-34.8545
 21
-36.4813
  0
LINE
  8
0
 10
-34.8545
 20
-36.4813
 11
-34.7767
 21
-36.5513
  0
LINE
  8
0
 10
-34.7767
 20
-36.5513
 11
-34.703
 21
-36.625
  0
LINE
  8
0
 10
-34.703
 20
-36.625
 11
-34.6329
 21
-36.7029
  0
LINE
  8
0
 10
-34.6329
 20
-36.7029
 11
-34.567
 21
-36.7843
  0
LINE
  8
0
 10
-34.567
 20
-36.7843
 11
-34.5057
 21
-36.8687
  0
LINE
  8
0
 10
-34.5057
 20
-36.8687
 11
-34.4485
 21
-36.9567
  0
LINE
  8
0
 10
-34.4485
 20
-36.9567
 11
-34.3963
 21
-37.0471
  0
LINE
  8
0
 10
-34.3963
 20
-37.0471
 11
-34.3488
 21
-37.1403
  0
LINE
  8
0
 10
-34.3488
 20
-37.1403
 11
-34.3062
 21
-37.2359
  0
LINE
  8
0
 10
-34.3062
 20
-37.2359
 11
-34.2688
 21
-37.3334
  0
LINE
  8
0
 10
-34.2688
 20
-37.3334
 11
-34.2364
 21
-37.4331
  0
LINE
  8
0
 10
-34.2364
 20
-37.4331
 11
-34.2093
 21
-37.5341
  0
LINE
  8
0
 10
-34.2093
 20
-37.5341
 11
-34.1876
 21
-37.6361
  0
LINE
  8
0
 10
-34.1876
 20
-37.6361
 11
-34.1712
 21
-37.7398
  0
LINE
  8
0
 10
-34.1712
 20
-37.7398
 11
-34.1603
 21
-37.8436
  0
LINE
  8
0
 10
-34.1603
 20
-37.8436
 11
-34.1548
 21
-37.9482
  0
LINE
  8
0
 10
-34.1548
 20
-37.9482
 11
-34.1548
 21
-38.0527
  0
LINE
  8
0
 10
-34.1548
 20
-38.0527
 11
-34.1602
 21
-38.1572
  0
LINE
  8
0
 10
-34.1602
 20
-38.1572
 11
-34.1725
 21
-38.2739
  0
LINE
  8
0
 10
-34.1725
 20
-38.2739
 11
-34.1839
 21
-38.3523
  0
LINE
  8
0
 10
-34.1839
 20
-38.3523
 11
-34.1866
 21
-38.367
  0
LINE
  8
0
 10
-34.1866
 20
-38.367
 11
-34.1891
 21
-38.3828
  0
LINE
  8
0
 10
-34.1891
 20
-38.3828
 11
-34.1975
 21
-38.4282
  0
LINE
  8
0
 10
-34.1975
 20
-38.4282
 11
-34.2061
 21
-38.4784
  0
LINE
  8
0
 10
-34.2061
 20
-38.4784
 11
-34.2101
 21
-38.5036
  0
LINE
  8
0
 10
-34.2101
 20
-38.5036
 11
-34.224
 21
-38.6086
  0
LINE
  8
0
 10
-34.224
 20
-38.6086
 11
-34.235
 21
-38.7132
  0
LINE
  8
0
 10
-34.235
 20
-38.7132
 11
-34.2432
 21
-38.8172
  0
LINE
  8
0
 10
-34.2432
 20
-38.8172
 11
-34.2445
 21
-38.8428
  0
LINE
  8
0
 10
-34.2445
 20
-38.8428
 11
-34.2473
 21
-38.9476
  0
LINE
  8
0
 10
-34.2473
 20
-38.9476
 11
-34.2473
 21
-39.0523
  0
LINE
  8
0
 10
-34.2473
 20
-39.0523
 11
-34.2445
 21
-39.1576
  0
LINE
  8
0
 10
-34.2445
 20
-39.1576
 11
-34.2431
 21
-39.1839
  0
LINE
  8
0
 10
-34.2431
 20
-39.1839
 11
-34.2349
 21
-39.2879
  0
LINE
  8
0
 10
-34.2349
 20
-39.2879
 11
-34.224
 21
-39.391
  0
LINE
  8
0
 10
-34.224
 20
-39.391
 11
-34.2104
 21
-39.4943
  0
LINE
  8
0
 10
-34.2104
 20
-39.4943
 11
-34.2062
 21
-39.521
  0
LINE
  8
0
 10
-34.2062
 20
-39.521
 11
-34.1871
 21
-39.6243
  0
LINE
  8
0
 10
-34.1871
 20
-39.6243
 11
-34.1654
 21
-39.7263
  0
LINE
  8
0
 10
-34.1654
 20
-39.7263
 11
-34.141
 21
-39.8282
  0
LINE
  8
0
 10
-34.141
 20
-39.8282
 11
-34.1344
 21
-39.8528
  0
LINE
  8
0
 10
-34.1344
 20
-39.8528
 11
-34.1048
 21
-39.9525
  0
LINE
  8
0
 10
-34.1048
 20
-39.9525
 11
-34.0724
 21
-40.0524
  0
LINE
  8
0
 10
-34.0724
 20
-40.0524
 11
-34.0369
 21
-40.1525
  0
LINE
  8
0
 10
-34.0369
 20
-40.1525
 11
-34.0275
 21
-40.1772
  0
LINE
  8
0
 10
-34.0275
 20
-40.1772
 11
-33.9878
 21
-40.273
  0
LINE
  8
0
 10
-33.9878
 20
-40.273
 11
-33.9452
 21
-40.3687
  0
LINE
  8
0
 10
-33.9452
 20
-40.3687
 11
-33.8999
 21
-40.4635
  0
LINE
  8
0
 10
-33.8999
 20
-40.4635
 11
-33.8883
 21
-40.4864
  0
LINE
  8
0
 10
-33.8883
 20
-40.4864
 11
-33.8383
 21
-40.5784
  0
LINE
  8
0
 10
-33.8383
 20
-40.5784
 11
-33.7858
 21
-40.6693
  0
LINE
  8
0
 10
-33.7858
 20
-40.6693
 11
-33.7312
 21
-40.7583
  0
LINE
  8
0
 10
-33.7312
 20
-40.7583
 11
-33.7175
 21
-40.7794
  0
LINE
  8
0
 10
-33.7175
 20
-40.7794
 11
-33.6806
 21
-40.8343
  0
LINE
  8
0
 10
-33.6806
 20
-40.8343
 11
-33.6573
 21
-40.8671
  0
LINE
  8
0
 10
-33.6573
 20
-40.8671
 11
-33.5963
 21
-40.9511
  0
LINE
  8
0
 10
-33.5963
 20
-40.9511
 11
-33.5324
 21
-41.0342
  0
LINE
  8
0
 10
-33.5324
 20
-41.0342
 11
-33.516
 21
-41.0546
  0
LINE
  8
0
 10
-33.516
 20
-41.0546
 11
-33.4481
 21
-41.134
  0
LINE
  8
0
 10
-33.4481
 20
-41.134
 11
-33.3782
 21
-41.2117
  0
LINE
  8
0
 10
-33.3782
 20
-41.2117
 11
-33.3061
 21
-41.2876
  0
LINE
  8
0
 10
-33.3061
 20
-41.2876
 11
-33.2876
 21
-41.3061
  0
LINE
  8
0
 10
-33.2876
 20
-41.3061
 11
-33.2117
 21
-41.3782
  0
LINE
  8
0
 10
-33.2117
 20
-41.3782
 11
-33.134
 21
-41.4481
  0
LINE
  8
0
 10
-33.134
 20
-41.4481
 11
-33.0546
 21
-41.516
  0
LINE
  8
0
 10
-33.0546
 20
-41.516
 11
-33.0342
 21
-41.5324
  0
LINE
  8
0
 10
-33.0342
 20
-41.5324
 11
-32.951
 21
-41.5963
  0
LINE
  8
0
 10
-32.951
 20
-41.5963
 11
-32.8667
 21
-41.6576
  0
LINE
  8
0
 10
-32.8667
 20
-41.6576
 11
-32.8316
 21
-41.6825
  0
LINE
  8
0
 10
-32.8316
 20
-41.6825
 11
-32.779
 21
-41.7178
  0
LINE
  8
0
 10
-32.779
 20
-41.7178
 11
-32.7578
 21
-41.7316
  0
LINE
  8
0
 10
-32.7578
 20
-41.7316
 11
-32.6692
 21
-41.7859
  0
LINE
  8
0
 10
-32.6692
 20
-41.7859
 11
-32.5784
 21
-41.8383
  0
LINE
  8
0
 10
-32.5784
 20
-41.8383
 11
-32.4859
 21
-41.8885
  0
LINE
  8
0
 10
-32.4859
 20
-41.8885
 11
-32.4628
 21
-41.9003
  0
LINE
  8
0
 10
-32.4628
 20
-41.9003
 11
-32.3686
 21
-41.9452
  0
LINE
  8
0
 10
-32.3686
 20
-41.9452
 11
-32.273
 21
-41.9878
  0
LINE
  8
0
 10
-32.273
 20
-41.9878
 11
-32.1765
 21
-42.0278
  0
LINE
  8
0
 10
-32.1765
 20
-42.0278
 11
-32.1517
 21
-42.0372
  0
LINE
  8
0
 10
-32.1517
 20
-42.0372
 11
-32.0524
 21
-42.0724
  0
LINE
  8
0
 10
-32.0524
 20
-42.0724
 11
-31.9526
 21
-42.1048
  0
LINE
  8
0
 10
-31.9526
 20
-42.1048
 11
-31.8528
 21
-42.1344
  0
LINE
  8
0
 10
-31.8528
 20
-42.1344
 11
-31.8282
 21
-42.141
  0
LINE
  8
0
 10
-31.8282
 20
-42.141
 11
-31.7261
 21
-42.1655
  0
LINE
  8
0
 10
-31.7261
 20
-42.1655
 11
-31.6238
 21
-42.1872
  0
LINE
  8
0
 10
-31.6238
 20
-42.1872
 11
-31.5201
 21
-42.2064
  0
LINE
  8
0
 10
-31.5201
 20
-42.2064
 11
-31.4937
 21
-42.2105
  0
LINE
  8
0
 10
-31.4937
 20
-42.2105
 11
-31.3909
 21
-42.2241
  0
LINE
  8
0
 10
-31.3909
 20
-42.2241
 11
-31.2874
 21
-42.2349
  0
LINE
  8
0
 10
-31.2874
 20
-42.2349
 11
-31.1836
 21
-42.2431
  0
LINE
  8
0
 10
-31.1836
 20
-42.2431
 11
-31.1579
 21
-42.2445
  0
LINE
  8
0
 10
-31.1579
 20
-42.2445
 11
-31.0526
 21
-42.2473
  0
LINE
  8
0
 10
-31.0526
 20
-42.2473
 11
-30.9476
 21
-42.2473
  0
LINE
  8
0
 10
-30.9476
 20
-42.2473
 11
-30.8433
 21
-42.2445
  0
LINE
  8
0
 10
-30.8433
 20
-42.2445
 11
-30.8176
 21
-42.2432
  0
LINE
  8
0
 10
-30.8176
 20
-42.2432
 11
-30.7125
 21
-42.2349
  0
LINE
  8
0
 10
-30.7125
 20
-42.2349
 11
-30.6207
 21
-42.2253
  0
LINE
  8
0
 10
-30.6207
 20
-42.2253
 11
-30.5684
 21
-42.2211
  0
LINE
  8
0
 10
-30.5684
 20
-42.2211
 11
-30.438
 21
-42.2143
  0
LINE
  8
0
 10
-30.438
 20
-42.2143
 11
-30.3331
 21
-42.2143
  0
LINE
  8
0
 10
-30.3331
 20
-42.2143
 11
-30.2289
 21
-42.2198
  0
LINE
  8
0
 10
-30.2289
 20
-42.2198
 11
-30.1248
 21
-42.2307
  0
LINE
  8
0
 10
-30.1248
 20
-42.2307
 11
-30.0213
 21
-42.2471
  0
LINE
  8
0
 10
-30.0213
 20
-42.2471
 11
-29.9193
 21
-42.2688
  0
LINE
  8
0
 10
-29.9193
 20
-42.2688
 11
-29.8181
 21
-42.2959
  0
LINE
  8
0
 10
-29.8181
 20
-42.2959
 11
-29.7186
 21
-42.3282
  0
LINE
  8
0
 10
-29.7186
 20
-42.3282
 11
-29.621
 21
-42.3657
  0
LINE
  8
0
 10
-29.621
 20
-42.3657
 11
-29.5254
 21
-42.4082
  0
LINE
  8
0
 10
-29.5254
 20
-42.4082
 11
-29.4322
 21
-42.4557
  0
LINE
  8
0
 10
-29.4322
 20
-42.4557
 11
-29.3416
 21
-42.508
  0
LINE
  8
0
 10
-29.3416
 20
-42.508
 11
-29.2538
 21
-42.565
  0
LINE
  8
0
 10
-29.2538
 20
-42.565
 11
-29.1694
 21
-42.6264
  0
LINE
  8
0
 10
-29.1694
 20
-42.6264
 11
-29.0879
 21
-42.6923
  0
LINE
  8
0
 10
-29.0879
 20
-42.6923
 11
-29.0103
 21
-42.7623
  0
LINE
  8
0
 10
-29.0103
 20
-42.7623
 11
-28.9362
 21
-42.8363
  0
LINE
  8
0
 10
-28.9362
 20
-42.8363
 11
-28.8664
 21
-42.9139
  0
LINE
  8
0
 10
-28.8664
 20
-42.9139
 11
-28.8004
 21
-42.9953
  0
LINE
  8
0
 10
-28.8004
 20
-42.9953
 11
-28.739
 21
-43.0798
  0
LINE
  8
0
 10
-28.739
 20
-43.0798
 11
-28.6891
 21
-43.1568
  0
LINE
  8
0
 10
-28.6891
 20
-43.1568
 11
-28.6254
 21
-43.2705
  0
LINE
  8
0
 10
-28.6254
 20
-43.2705
 11
-28.5353
 21
-43.4592
  0
LINE
  8
0
 10
-28.5353
 20
-43.4592
 11
-28.5043
 21
-43.5313
  0
LINE
  8
0
 10
-28.5043
 20
-43.5313
 11
-28.5008
 21
-43.5406
  0
LINE
  8
0
 10
-28.5008
 20
-43.5406
 11
-28.4834
 21
-43.5897
  0
LINE
  8
0
 10
-28.4834
 20
-43.5897
 11
-28.4348
 21
-43.7391
  0
LINE
  8
0
 10
-28.4348
 20
-43.7391
 11
-28.4199
 21
-43.7894
  0
LINE
  8
0
 10
-28.4199
 20
-43.7894
 11
-28.1456
 21
-44.8132
  0
LINE
  8
0
 10
-28.1456
 20
-44.8132
 11
-28.139
 21
-44.8391
  0
LINE
  8
0
 10
-28.139
 20
-44.8391
 11
-28.1206
 21
-44.9156
  0
LINE
  8
0
 10
-28.1206
 20
-44.9156
 11
-28.1149
 21
-44.9408
  0
LINE
  8
0
 10
-28.1149
 20
-44.9408
 11
-28.0566
 21
-45.2153
  0
LINE
  8
0
 10
-28.0566
 20
-45.2153
 11
-28.0023
 21
-45.4178
  0
LINE
  8
0
 10
-28.0023
 20
-45.4178
 11
-27.9382
 21
-45.6151
  0
LINE
  8
0
 10
-27.9382
 20
-45.6151
 11
-27.8632
 21
-45.8104
  0
LINE
  8
0
 10
-27.8632
 20
-45.8104
 11
-27.7789
 21
-45.9997
  0
LINE
  8
0
 10
-27.7789
 20
-45.9997
 11
-27.6839
 21
-46.1862
  0
LINE
  8
0
 10
-27.6839
 20
-46.1862
 11
-27.5801
 21
-46.3659
  0
LINE
  8
0
 10
-27.5801
 20
-46.3659
 11
-27.4661
 21
-46.5415
  0
LINE
  8
0
 10
-27.4661
 20
-46.5415
 11
-27.3443
 21
-46.7092
  0
LINE
  8
0
 10
-27.3443
 20
-46.7092
 11
-27.2126
 21
-46.8717
  0
LINE
  8
0
 10
-27.2126
 20
-46.8717
 11
-27.0738
 21
-47.0259
  0
LINE
  8
0
 10
-27.0738
 20
-47.0259
 11
-26.9258
 21
-47.1739
  0
LINE
  8
0
 10
-26.9258
 20
-47.1739
 11
-26.7717
 21
-47.3126
  0
LINE
  8
0
 10
-26.7717
 20
-47.3126
 11
-26.6089
 21
-47.4444
  0
LINE
  8
0
 10
-26.6089
 20
-47.4444
 11
-26.4412
 21
-47.5663
  0
LINE
  8
0
 10
-26.4412
 20
-47.5663
 11
-26.2656
 21
-47.6803
  0
LINE
  8
0
 10
-26.2656
 20
-47.6803
 11
-26.0857
 21
-47.7841
  0
LINE
  8
0
 10
-26.0857
 20
-47.7841
 11
-25.8993
 21
-47.8791
  0
LINE
  8
0
 10
-25.8993
 20
-47.8791
 11
-25.7101
 21
-47.9633
  0
LINE
  8
0
 10
-25.7101
 20
-47.9633
 11
-25.5145
 21
-48.0384
  0
LINE
  8
0
 10
-25.5145
 20
-48.0384
 11
-25.3174
 21
-48.1024
  0
LINE
  8
0
 10
-25.3174
 20
-48.1024
 11
-25.1154
 21
-48.1565
  0
LINE
  8
0
 10
-25.1154
 20
-48.1565
 11
-24.9123
 21
-48.1997
  0
LINE
  8
0
 10
-24.9123
 20
-48.1997
 11
-24.7055
 21
-48.2325
  0
LINE
  8
0
 10
-24.7055
 20
-48.2325
 11
-24.2346
 21
-48.282
  0
LINE
  8
0
 10
-24.2346
 20
-48.282
 11
-24.0778
 21
-48.2922
  0
LINE
  8
0
 10
-24.0778
 20
-48.2922
 11
-23.8068
 21
-48.2993
  0
LINE
  8
0
 10
-23.8068
 20
-48.2993
 11
-23.7546
 21
-48.3
  0
LINE
  8
0
 10
-23.7546
 20
-48.3
 11
-22.7439
 21
-48.3
  0
LINE
  8
0
 10
-22.7439
 20
-48.3
 11
-22.6912
 21
-48.3014
  0
LINE
  8
0
 10
-22.6912
 20
-48.3014
 11
-22.5609
 21
-48.3082
  0
LINE
  8
0
 10
-22.5609
 20
-48.3082
 11
-22.4567
 21
-48.3192
  0
LINE
  8
0
 10
-22.4567
 20
-48.3192
 11
-22.3537
 21
-48.3355
  0
LINE
  8
0
 10
-22.3537
 20
-48.3355
 11
-22.2511
 21
-48.3573
  0
LINE
  8
0
 10
-22.2511
 20
-48.3573
 11
-22.1501
 21
-48.3843
  0
LINE
  8
0
 10
-22.1501
 20
-48.3843
 11
-22.0507
 21
-48.4166
  0
LINE
  8
0
 10
-22.0507
 20
-48.4166
 11
-21.9529
 21
-48.4542
  0
LINE
  8
0
 10
-21.9529
 20
-48.4542
 11
-21.8575
 21
-48.4966
  0
LINE
  8
0
 10
-21.8575
 20
-48.4966
 11
-21.7643
 21
-48.5441
  0
LINE
  8
0
 10
-21.7643
 20
-48.5441
 11
-21.6736
 21
-48.5965
  0
LINE
  8
0
 10
-21.6736
 20
-48.5965
 11
-21.5861
 21
-48.6534
  0
LINE
  8
0
 10
-21.5861
 20
-48.6534
 11
-21.5013
 21
-48.715
  0
LINE
  8
0
 10
-21.5013
 20
-48.715
 11
-21.42
 21
-48.7808
  0
LINE
  8
0
 10
-21.42
 20
-48.7808
 11
-21.3423
 21
-48.8507
  0
LINE
  8
0
 10
-21.3423
 20
-48.8507
 11
-21.2683
 21
-48.9247
  0
LINE
  8
0
 10
-21.2683
 20
-48.9247
 11
-21.1984
 21
-49.0024
  0
LINE
  8
0
 10
-21.1984
 20
-49.0024
 11
-21.1326
 21
-49.0837
  0
LINE
  8
0
 10
-21.1326
 20
-49.0837
 11
-21.071
 21
-49.1685
  0
LINE
  8
0
 10
-21.071
 20
-49.1685
 11
-21.0104
 21
-49.2616
  0
LINE
  8
0
 10
-21.0104
 20
-49.2616
 11
-20.9643
 21
-49.3403
  0
LINE
  8
0
 10
-20.9643
 20
-49.3403
 11
-20.9242
 21
-49.4165
  0
LINE
  8
0
 10
-20.9242
 20
-49.4165
 11
-20.924
 21
-49.4163
  0
LINE
  8
0
 10
-20.924
 20
-49.4163
 11
-20.9208
 21
-49.4226
  0
LINE
  8
0
 10
-20.9208
 20
-49.4226
 11
-20.921
 21
-49.4227
  0
LINE
  8
0
 10
-20.921
 20
-49.4227
 11
-20.9168
 21
-49.4308
  0
LINE
  8
0
 10
-20.9168
 20
-49.4308
 11
-20.914
 21
-49.4358
  0
LINE
  8
0
 10
-20.914
 20
-49.4358
 11
-20.8886
 21
-49.4858
  0
LINE
  8
0
 10
-20.8886
 20
-49.4858
 11
-20.8382
 21
-49.5786
  0
LINE
  8
0
 10
-20.8382
 20
-49.5786
 11
-20.7858
 21
-49.6694
  0
LINE
  8
0
 10
-20.7858
 20
-49.6694
 11
-20.7312
 21
-49.7583
  0
LINE
  8
0
 10
-20.7312
 20
-49.7583
 11
-20.7175
 21
-49.7794
  0
LINE
  8
0
 10
-20.7175
 20
-49.7794
 11
-20.6806
 21
-49.8343
  0
LINE
  8
0
 10
-20.6806
 20
-49.8343
 11
-20.6573
 21
-49.8671
  0
LINE
  8
0
 10
-20.6573
 20
-49.8671
 11
-20.5963
 21
-49.9511
  0
LINE
  8
0
 10
-20.5963
 20
-49.9511
 11
-20.5324
 21
-50.0342
  0
LINE
  8
0
 10
-20.5324
 20
-50.0342
 11
-20.516
 21
-50.0546
  0
LINE
  8
0
 10
-20.516
 20
-50.0546
 11
-20.4481
 21
-50.134
  0
LINE
  8
0
 10
-20.4481
 20
-50.134
 11
-20.3782
 21
-50.2117
  0
LINE
  8
0
 10
-20.3782
 20
-50.2117
 11
-20.3061
 21
-50.2876
  0
LINE
  8
0
 10
-20.3061
 20
-50.2876
 11
-20.2876
 21
-50.3061
  0
LINE
  8
0
 10
-20.2876
 20
-50.3061
 11
-20.2117
 21
-50.3782
  0
LINE
  8
0
 10
-20.2117
 20
-50.3782
 11
-20.134
 21
-50.4481
  0
LINE
  8
0
 10
-20.134
 20
-50.4481
 11
-20.0546
 21
-50.516
  0
LINE
  8
0
 10
-20.0546
 20
-50.516
 11
-20.0342
 21
-50.5324
  0
LINE
  8
0
 10
-20.0342
 20
-50.5324
 11
-19.951
 21
-50.5963
  0
LINE
  8
0
 10
-19.951
 20
-50.5963
 11
-19.8667
 21
-50.6576
  0
LINE
  8
0
 10
-19.8667
 20
-50.6576
 11
-19.8316
 21
-50.6825
  0
LINE
  8
0
 10
-19.8316
 20
-50.6825
 11
-19.779
 21
-50.7178
  0
LINE
  8
0
 10
-19.779
 20
-50.7178
 11
-19.7578
 21
-50.7316
  0
LINE
  8
0
 10
-19.7578
 20
-50.7316
 11
-19.6692
 21
-50.7859
  0
LINE
  8
0
 10
-19.6692
 20
-50.7859
 11
-19.5784
 21
-50.8383
  0
LINE
  8
0
 10
-19.5784
 20
-50.8383
 11
-19.4859
 21
-50.8885
  0
LINE
  8
0
 10
-19.4859
 20
-50.8885
 11
-19.4628
 21
-50.9003
  0
LINE
  8
0
 10
-19.4628
 20
-50.9003
 11
-19.3686
 21
-50.9452
  0
LINE
  8
0
 10
-19.3686
 20
-50.9452
 11
-19.273
 21
-50.9878
  0
LINE
  8
0
 10
-19.273
 20
-50.9878
 11
-19.1765
 21
-51.0278
  0
LINE
  8
0
 10
-19.1765
 20
-51.0278
 11
-19.1517
 21
-51.0372
  0
LINE
  8
0
 10
-19.1517
 20
-51.0372
 11
-19.0524
 21
-51.0724
  0
LINE
  8
0
 10
-19.0524
 20
-51.0724
 11
-18.9526
 21
-51.1048
  0
LINE
  8
0
 10
-18.9526
 20
-51.1048
 11
-18.8528
 21
-51.1344
  0
LINE
  8
0
 10
-18.8528
 20
-51.1344
 11
-18.8282
 21
-51.141
  0
LINE
  8
0
 10
-18.8282
 20
-51.141
 11
-18.7261
 21
-51.1655
  0
LINE
  8
0
 10
-18.7261
 20
-51.1655
 11
-18.6238
 21
-51.1872
  0
LINE
  8
0
 10
-18.6238
 20
-51.1872
 11
-18.5201
 21
-51.2064
  0
LINE
  8
0
 10
-18.5201
 20
-51.2064
 11
-18.4937
 21
-51.2105
  0
LINE
  8
0
 10
-18.4937
 20
-51.2105
 11
-18.3909
 21
-51.2241
  0
LINE
  8
0
 10
-18.3909
 20
-51.2241
 11
-18.2874
 21
-51.2349
  0
LINE
  8
0
 10
-18.2874
 20
-51.2349
 11
-18.1836
 21
-51.2431
  0
LINE
  8
0
 10
-18.1836
 20
-51.2431
 11
-18.1579
 21
-51.2445
  0
LINE
  8
0
 10
-18.1579
 20
-51.2445
 11
-18.0526
 21
-51.2473
  0
LINE
  8
0
 10
-18.0526
 20
-51.2473
 11
-17.9476
 21
-51.2473
  0
LINE
  8
0
 10
-17.9476
 20
-51.2473
 11
-17.8423
 21
-51.2445
  0
LINE
  8
0
 10
-17.8423
 20
-51.2445
 11
-17.8165
 21
-51.2431
  0
LINE
  8
0
 10
-17.8165
 20
-51.2431
 11
-17.7129
 21
-51.235
  0
LINE
  8
0
 10
-17.7129
 20
-51.235
 11
-17.6084
 21
-51.224
  0
LINE
  8
0
 10
-17.6084
 20
-51.224
 11
-17.5027
 21
-51.21
  0
LINE
  8
0
 10
-17.5027
 20
-51.21
 11
-17.4772
 21
-51.2059
  0
LINE
  8
0
 10
-17.4772
 20
-51.2059
 11
-17.3763
 21
-51.1872
  0
LINE
  8
0
 10
-17.3763
 20
-51.1872
 11
-17.274
 21
-51.1655
  0
LINE
  8
0
 10
-17.274
 20
-51.1655
 11
-17.1718
 21
-51.141
  0
LINE
  8
0
 10
-17.1718
 20
-51.141
 11
-17.1472
 21
-51.1344
  0
LINE
  8
0
 10
-17.1472
 20
-51.1344
 11
-17.0471
 21
-51.1047
  0
LINE
  8
0
 10
-17.0471
 20
-51.1047
 11
-16.9469
 21
-51.0722
  0
LINE
  8
0
 10
-16.9469
 20
-51.0722
 11
-16.8469
 21
-51.0367
  0
LINE
  8
0
 10
-16.8469
 20
-51.0367
 11
-16.8223
 21
-51.0273
  0
LINE
  8
0
 10
-16.8223
 20
-51.0273
 11
-16.7266
 21
-50.9876
  0
LINE
  8
0
 10
-16.7266
 20
-50.9876
 11
-16.6314
 21
-50.9452
  0
LINE
  8
0
 10
-16.6314
 20
-50.9452
 11
-16.536
 21
-50.8997
  0
LINE
  8
0
 10
-16.536
 20
-50.8997
 11
-16.5127
 21
-50.8878
  0
LINE
  8
0
 10
-16.5127
 20
-50.8878
 11
-16.4216
 21
-50.8383
  0
LINE
  8
0
 10
-16.4216
 20
-50.8383
 11
-16.3314
 21
-50.7862
  0
LINE
  8
0
 10
-16.3314
 20
-50.7862
 11
-16.2411
 21
-50.7309
  0
LINE
  8
0
 10
-16.2411
 20
-50.7309
 11
-16.2187
 21
-50.7163
  0
LINE
  8
0
 10
-16.2187
 20
-50.7163
 11
-16.1335
 21
-50.6577
  0
LINE
  8
0
 10
-16.1335
 20
-50.6577
 11
-16.0493
 21
-50.5966
  0
LINE
  8
0
 10
-16.0493
 20
-50.5966
 11
-15.9659
 21
-50.5326
  0
LINE
  8
0
 10
-15.9659
 20
-50.5326
 11
-15.9455
 21
-50.5161
  0
LINE
  8
0
 10
-15.9455
 20
-50.5161
 11
-15.8658
 21
-50.448
  0
LINE
  8
0
 10
-15.8658
 20
-50.448
 11
-15.7882
 21
-50.3781
  0
LINE
  8
0
 10
-15.7882
 20
-50.3781
 11
-15.7123
 21
-50.3061
  0
LINE
  8
0
 10
-15.7123
 20
-50.3061
 11
-15.6939
 21
-50.2876
  0
LINE
  8
0
 10
-15.6939
 20
-50.2876
 11
-15.6217
 21
-50.2117
  0
LINE
  8
0
 10
-15.6217
 20
-50.2117
 11
-15.5518
 21
-50.134
  0
LINE
  8
0
 10
-15.5518
 20
-50.134
 11
-15.484
 21
-50.0546
  0
LINE
  8
0
 10
-15.484
 20
-50.0546
 11
-15.4675
 21
-50.0342
  0
LINE
  8
0
 10
-15.4675
 20
-50.0342
 11
-15.4037
 21
-49.9511
  0
LINE
  8
0
 10
-15.4037
 20
-49.9511
 11
-15.3427
 21
-49.8671
  0
LINE
  8
0
 10
-15.3427
 20
-49.8671
 11
-15.3194
 21
-49.8343
  0
LINE
  8
0
 10
-15.3194
 20
-49.8343
 11
-15.2824
 21
-49.7794
  0
LINE
  8
0
 10
-15.2824
 20
-49.7794
 11
-15.2687
 21
-49.7583
  0
LINE
  8
0
 10
-15.2687
 20
-49.7583
 11
-15.2142
 21
-49.6693
  0
LINE
  8
0
 10
-15.2142
 20
-49.6693
 11
-15.1617
 21
-49.5784
  0
LINE
  8
0
 10
-15.1617
 20
-49.5784
 11
-15.1116
 21
-49.4862
  0
LINE
  8
0
 10
-15.1116
 20
-49.4862
 11
-15.0998
 21
-49.463
  0
LINE
  8
0
 10
-15.0998
 20
-49.463
 11
-15.0547
 21
-49.3684
  0
LINE
  8
0
 10
-15.0547
 20
-49.3684
 11
-15.0142
 21
-49.2775
  0
LINE
  8
0
 10
-15.0142
 20
-49.2775
 11
-14.9916
 21
-49.2301
  0
LINE
  8
0
 10
-14.9916
 20
-49.2301
 11
-14.9323
 21
-49.1137
  0
LINE
  8
0
 10
-14.9323
 20
-49.1137
 11
-14.88
 21
-49.023
  0
LINE
  8
0
 10
-14.88
 20
-49.023
 11
-14.8477
 21
-48.9733
  0
LINE
  8
0
 10
-14.8477
 20
-48.9733
 11
-14.743
 21
-48.792
  0
LINE
  8
0
 10
-14.743
 20
-48.792
 11
-14.6578
 21
-48.6008
  0
LINE
  8
0
 10
-14.6578
 20
-48.6008
 11
-14.5931
 21
-48.4017
  0
LINE
  8
0
 10
-14.5931
 20
-48.4017
 11
-14.5496
 21
-48.1969
  0
LINE
  8
0
 10
-14.5496
 20
-48.1969
 11
-14.5277
 21
-47.9887
  0
LINE
  8
0
 10
-14.5277
 20
-47.9887
 11
-14.525
 21
-47.884
  0
LINE
  8
0
 10
-14.525
 20
-47.884
 11
-14.525
 21
-2
  0
LINE
  8
0
 10
-14.525
 20
-2
 11
-14.5359
 21
-1.79094
  0
LINE
  8
0
 10
-14.5359
 20
-1.79094
 11
-14.5687
 21
-1.58418
  0
LINE
  8
0
 10
-14.5687
 20
-1.58418
 11
-14.6229
 21
-1.38197
  0
LINE
  8
0
 10
-14.6229
 20
-1.38197
 11
-14.6979
 21
-1.18652
  0
LINE
  8
0
 10
-14.6979
 20
-1.18652
 11
-14.7929
 21
-1
  0
LINE
  8
0
 10
-14.7929
 20
-1
 11
-14.907
 21
-0.824432
  0
LINE
  8
0
 10
-14.907
 20
-0.824432
 11
-15.0387
 21
-0.661743
  0
LINE
  8
0
 10
-15.0387
 20
-0.661743
 11
-15.1867
 21
-0.513718
  0
LINE
  8
0
 10
-15.1867
 20
-0.513718
 11
-15.3494
 21
-0.381973
  0
LINE
  8
0
 10
-15.3494
 20
-0.381973
 11
-15.525
 21
-0.267944
  0
LINE
  8
0
 10
-15.525
 20
-0.267944
 11
-15.7115
 21
-0.172913
  0
LINE
  8
0
 10
-15.7115
 20
-0.172913
 11
-15.907
 21
-0.0978851
  0
LINE
  8
0
 10
-15.907
 20
-0.0978851
 11
-16.1092
 21
-0.0437012
  0
LINE
  8
0
 10
-16.1092
 20
-0.0437012
 11
-16.3159
 21
-0.0109558
  0
LINE
  8
0
 10
-16.3159
 20
-0.0109558
 11
-16.525
 21
0
  0
LINE
  8
0
 10
-16.525
 20
0
 11
-32.4557
 21
-1.52588e-05
  0
LINE
  8
0
 10
-32.4557
 20
-1.52588e-05
 11
-32.5081
 21
-0.000701904
  0
LINE
  8
0
 10
-32.5081
 20
-0.000701904
 11
-32.9781
 21
-0.0130005
  0
LINE
  8
0
 10
-32.9781
 20
-0.0130005
 11
-33.0304
 21
-0.0150604
  0
LINE
  8
0
 10
-33.0304
 20
-0.0150604
 11
-33.135
 21
-0.0205383
  0
LINE
  8
0
 10
-33.135
 20
-0.0205383
 11
-33.1479
 21
-0.0211334
  0
LINE
  8
0
 10
-33.1479
 20
-0.0211334
 11
-33.1883
 21
-0.0227203
  0
LINE
  8
0
 10
-33.1883
 20
-0.0227203
 11
-33.2
 21
-0.0231018
  0
LINE
  8
0
 10
-33.2
 20
-0.0231018
 11
-33.7631
 21
-0.0378418
  0
LINE
  8
0
 10
-33.7631
 20
-0.0378418
 11
-33.7755
 21
-0.0380859
  0
LINE
  8
0
 10
-33.7755
 20
-0.0380859
 11
-33.8165
 21
-0.03862
  0
LINE
  8
0
 10
-33.8165
 20
-0.03862
 11
-33.8275
 21
-0.0386963
  0
LINE
  8
0
 10
-33.8275
 20
-0.0386963
 11
-33.9728
 21
-0.0386963
  0
LINE
  8
0
 10
-33.9728
 20
-0.0386963
 11
-33.9838
 21
-0.03862
  0
LINE
  8
0
 10
-33.9838
 20
-0.03862
 11
-34.025
 21
-0.0380859
  0
LINE
  8
0
 10
-34.025
 20
-0.0380859
 11
-34.0369
 21
-0.0378418
  0
LINE
  8
0
 10
-34.0369
 20
-0.0378418
 11
-34.5997
 21
-0.0231171
  0
LINE
  8
0
 10
-34.5997
 20
-0.0231171
 11
-34.6125
 21
-0.0226898
  0
LINE
  8
0
 10
-34.6125
 20
-0.0226898
 11
-34.6517
 21
-0.0211487
  0
LINE
  8
0
 10
-34.6517
 20
-0.0211487
 11
-34.6641
 21
-0.0205994
  0
LINE
  8
0
 10
-34.6641
 20
-0.0205994
 11
-34.7707
 21
-0.0150299
  0
LINE
  8
0
 10
-34.7707
 20
-0.0150299
 11
-34.8226
 21
-0.0130005
  0
LINE
  8
0
 10
-34.8226
 20
-0.0130005
 11
-35.293
 21
-0.000686646
  0
LINE
  8
0
 10
-35.293
 20
-0.000686646
 11
-35.3453
 21
0
  0
LINE
  8
0
 10
-35.3453
 20
0
 11
-44.6557
 21
-1.52588e-05
  0
LINE
  8
0
 10
-44.6557
 20
-1.52588e-05
 11
-44.7082
 21
-0.000701904
  0
LINE
  8
0
 10
-44.7082
 20
-0.000701904
 11
-44.9779
 21
-0.00778198
  0
LINE
  8
0
 10
-44.9779
 20
-0.00778198
 11
-45.1346
 21
-0.0180664
  0
LINE
  8
0
 10
-45.1346
 20
-0.0180664
 11
-45.6061
 21
-0.0676422
  0
LINE
  8
0
 10
-45.6061
 20
-0.0676422
 11
-45.8128
 21
-0.100388
  0
LINE
  8
0
 10
-45.8128
 20
-0.100388
 11
-46.0155
 21
-0.143478
  0
LINE
  8
0
 10
-46.0155
 20
-0.143478
 11
-46.2177
 21
-0.197662
  0
LINE
  8
0
 10
-46.2177
 20
-0.197662
 11
-46.4151
 21
-0.261826
  0
LINE
  8
0
 10
-46.4151
 20
-0.261826
 11
-46.6105
 21
-0.336838
  0
LINE
  8
0
 10
-46.6105
 20
-0.336838
 11
-46.7996
 21
-0.421021
  0
LINE
  8
0
 10
-46.7996
 20
-0.421021
 11
-46.9862
 21
-0.516113
  0
LINE
  8
0
 10
-46.9862
 20
-0.516113
 11
-47.166
 21
-0.619904
  0
LINE
  8
0
 10
-47.166
 20
-0.619904
 11
-47.3415
 21
-0.733932
  0
LINE
  8
0
 10
-47.3415
 20
-0.733932
 11
-47.5092
 21
-0.855728
  0
LINE
  8
0
 10
-47.5092
 20
-0.855728
 11
-47.6718
 21
-0.987396
  0
LINE
  8
0
 10
-47.6718
 20
-0.987396
 11
-47.8259
 21
-1.12616
  0
LINE
  8
0
 10
-47.8259
 20
-1.12616
 11
-47.9739
 21
-1.27423
  0
LINE
  8
0
 10
-47.9739
 20
-1.27423
 11
-48.1126
 21
-1.4283
  0
LINE
  8
0
 10
-48.1126
 20
-1.4283
 11
-48.2444
 21
-1.59106
  0
LINE
  8
0
 10
-48.2444
 20
-1.59106
 11
-48.3663
 21
-1.75879
  0
LINE
  8
0
 10
-48.3663
 20
-1.75879
 11
-48.4803
 21
-1.93443
  0
LINE
  8
0
 10
-48.4803
 20
-1.93443
 11
-48.5841
 21
-2.11427
  0
LINE
  8
0
 10
-48.5841
 20
-2.11427
 11
-48.6791
 21
-2.3007
  0
LINE
  8
0
 10
-48.6791
 20
-2.3007
 11
-48.7634
 21
-2.48994
  0
LINE
  8
0
 10
-48.7634
 20
-2.48994
 11
-48.8384
 21
-2.68544
  0
LINE
  8
0
 10
-48.8384
 20
-2.68544
 11
-48.9024
 21
-2.88245
  0
LINE
  8
0
 10
-48.9024
 20
-2.88245
 11
-48.9565
 21
-3.0845
  0
LINE
  8
0
 10
-48.9565
 20
-3.0845
 11
-48.9997
 21
-3.28766
  0
LINE
  8
0
 10
-48.9997
 20
-3.28766
 11
-49.0324
 21
-3.49445
  0
LINE
  8
0
 10
-49.0324
 20
-3.49445
 11
-49.0642
 21
-3.79709
  0
LINE
  8
0
 10
-49.0642
 20
-3.79709
 11
-49.0672
 21
-3.82175
  0
LINE
  8
0
 10
-49.0672
 20
-3.82175
 11
-49.0776
 21
-3.90083
  0
LINE
  8
0
 10
-49.0776
 20
-3.90083
 11
-49.0812
 21
-3.9258
  0
LINE
  8
0
 10
-49.0812
 20
-3.9258
 11
-49.0867
 21
-3.96049
  0
LINE
  8
0
 10
-49.0867
 20
-3.96049
 11
-49.1003
 21
-4.06407
  0
LINE
  8
0
 10
-49.1003
 20
-4.06407
 11
-49.113
 21
-4.18454
  0
LINE
  8
0
 10
-49.113
 20
-4.18454
 11
-49.1152
 21
-4.20334
  0
LINE
  8
0
 10
-49.1152
 20
-4.20334
 11
-49.1225
 21
-4.26205
  0
LINE
  8
0
 10
-49.1225
 20
-4.26205
 11
-49.125
 21
-4.28075
  0
LINE
  8
0
 10
-49.125
 20
-4.28075
 11
-49.2241
 21
-4.96388
  0
LINE
  8
0
 10
-49.2241
 20
-4.96388
 11
-49.2301
 21
-5.00908
  0
LINE
  8
0
 10
-49.2301
 20
-5.00908
 11
-49.2332
 21
-5.03461
  0
LINE
  8
0
 10
-49.2332
 20
-5.03461
 11
-49.2373
 21
-5.06595
  0
LINE
  8
0
 10
-49.2373
 20
-5.06595
 11
-49.2435
 21
-5.11778
  0
LINE
  8
0
 10
-49.2435
 20
-5.11778
 11
-49.3317
 21
-5.95764
  0
LINE
  8
0
 10
-49.3317
 20
-5.95764
 11
-49.342
 21
-6.11433
  0
LINE
  8
0
 10
-49.342
 20
-6.11433
 11
-49.3493
 21
-6.39336
  0
LINE
  8
0
 10
-49.3493
 20
-6.39336
 11
-49.35
 21
-6.44572
  0
ENDSEC
  0
SECTION
  2
OBJECTS
  0
DICTIONARY
  0
ENDSEC
  0
EOF
