  0
SECTION
  2
BLOCKS
  0
ENDSEC
  0
SECTION
  2
ENTITIES
  0
LINE
  8
0
 10
-49.35
 20
-13.6674
 11
-49.3496
 21
-13.6944
  0
LINE
  8
0
 10
-49.3496
 20
-13.6944
 11
-49.341
 21
-14.0234
  0
LINE
  8
0
 10
-49.341
 20
-14.0234
 11
-49.3359
 21
-14.1021
  0
LINE
  8
0
 10
-49.3359
 20
-14.1021
 11
-49.2764
 21
-14.6679
  0
LINE
  8
0
 10
-49.2764
 20
-14.6679
 11
-49.26
 21
-14.7716
  0
LINE
  8
0
 10
-49.26
 20
-14.7716
 11
-49.1952
 21
-15.0766
  0
LINE
  8
0
 10
-49.1952
 20
-15.0766
 11
-49.1681
 21
-15.1778
  0
LINE
  8
0
 10
-49.1681
 20
-15.1778
 11
-49.0035
 21
-15.6844
  0
LINE
  8
0
 10
-49.0035
 20
-15.6844
 11
-48.9737
 21
-15.7848
  0
LINE
  8
0
 10
-48.9737
 20
-15.7848
 11
-48.6893
 21
-16.8461
  0
LINE
  8
0
 10
-48.6893
 20
-16.8461
 11
-48.6458
 21
-17.0509
  0
LINE
  8
0
 10
-48.6458
 20
-17.0509
 11
-48.4821
 21
-18.0846
  0
LINE
  8
0
 10
-48.4821
 20
-18.0846
 11
-48.4602
 21
-18.2928
  0
LINE
  8
0
 10
-48.4602
 20
-18.2928
 11
-48.4027
 21
-19.3899
  0
LINE
  8
0
 10
-48.4027
 20
-19.3899
 11
-48.4
 21
-19.4946
  0
LINE
  8
0
 10
-48.4
 20
-19.4946
 11
-48.4
 21
-25.4678
  0
LINE
  8
0
 10
-48.4
 20
-25.4678
 11
-48.3996
 21
-25.4947
  0
LINE
  8
0
 10
-48.3996
 20
-25.4947
 11
-48.3912
 21
-25.8169
  0
LINE
  8
0
 10
-48.3912
 20
-25.8169
 11
-48.386
 21
-25.8955
  0
LINE
  8
0
 10
-48.386
 20
-25.8955
 11
-48.3269
 21
-26.4582
  0
LINE
  8
0
 10
-48.3269
 20
-26.4582
 11
-48.3106
 21
-26.5611
  0
LINE
  8
0
 10
-48.3106
 20
-26.5611
 11
-48.2456
 21
-26.8669
  0
LINE
  8
0
 10
-48.2456
 20
-26.8669
 11
-48.2185
 21
-26.9679
  0
LINE
  8
0
 10
-48.2185
 20
-26.9679
 11
-48.122
 21
-27.2649
  0
LINE
  8
0
 10
-48.122
 20
-27.2649
 11
-48.0845
 21
-27.3625
  0
LINE
  8
0
 10
-48.0845
 20
-27.3625
 11
-47.9576
 21
-27.6475
  0
LINE
  8
0
 10
-47.9576
 20
-27.6475
 11
-47.91
 21
-27.7409
  0
LINE
  8
0
 10
-47.91
 20
-27.7409
 11
-47.7539
 21
-28.0113
  0
LINE
  8
0
 10
-47.7539
 20
-28.0113
 11
-47.697
 21
-28.099
  0
LINE
  8
0
 10
-47.697
 20
-28.099
 11
-47.5965
 21
-28.2373
  0
LINE
  8
0
 10
-47.5965
 20
-28.2373
 11
-47.4824
 21
-28.4129
  0
LINE
  8
0
 10
-47.4824
 20
-28.4129
 11
-47.3874
 21
-28.5994
  0
LINE
  8
0
 10
-47.3874
 20
-28.5994
 11
-47.3123
 21
-28.7948
  0
LINE
  8
0
 10
-47.3123
 20
-28.7948
 11
-47.2582
 21
-28.9971
  0
LINE
  8
0
 10
-47.2582
 20
-28.9971
 11
-47.2254
 21
-29.2038
  0
LINE
  8
0
 10
-47.2254
 20
-29.2038
 11
-47.2144
 21
-29.4129
  0
LINE
  8
0
 10
-47.2144
 20
-29.4129
 11
-47.2254
 21
-29.622
  0
LINE
  8
0
 10
-47.2254
 20
-29.622
 11
-47.2377
 21
-29.7388
  0
LINE
  8
0
 10
-47.2377
 20
-29.7388
 11
-47.2418
 21
-29.7907
  0
LINE
  8
0
 10
-47.2418
 20
-29.7907
 11
-47.2459
 21
-29.869
  0
LINE
  8
0
 10
-47.2459
 20
-29.869
 11
-47.2473
 21
-29.9215
  0
LINE
  8
0
 10
-47.2473
 20
-29.9215
 11
-47.2473
 21
-30.0785
  0
LINE
  8
0
 10
-47.2473
 20
-30.0785
 11
-47.2459
 21
-30.131
  0
LINE
  8
0
 10
-47.2459
 20
-30.131
 11
-47.2418
 21
-30.2095
  0
LINE
  8
0
 10
-47.2418
 20
-30.2095
 11
-47.2377
 21
-30.2614
  0
LINE
  8
0
 10
-47.2377
 20
-30.2614
 11
-47.2213
 21
-30.4174
  0
LINE
  8
0
 10
-47.2213
 20
-30.4174
 11
-47.2144
 21
-30.4696
  0
LINE
  8
0
 10
-47.2144
 20
-30.4696
 11
-47.2021
 21
-30.5469
  0
LINE
  8
0
 10
-47.2021
 20
-30.5469
 11
-47.1926
 21
-30.5985
  0
LINE
  8
0
 10
-47.1926
 20
-30.5985
 11
-47.16
 21
-30.7519
  0
LINE
  8
0
 10
-47.16
 20
-30.7519
 11
-47.1477
 21
-30.803
  0
LINE
  8
0
 10
-47.1477
 20
-30.803
 11
-47.1275
 21
-30.8785
  0
LINE
  8
0
 10
-47.1275
 20
-30.8785
 11
-47.1125
 21
-30.9288
  0
LINE
  8
0
 10
-47.1125
 20
-30.9288
 11
-47.0642
 21
-31.0778
  0
LINE
  8
0
 10
-47.0642
 20
-31.0778
 11
-47.0464
 21
-31.1278
  0
LINE
  8
0
 10
-47.0464
 20
-31.1278
 11
-47.0185
 21
-31.2007
  0
LINE
  8
0
 10
-47.0185
 20
-31.2007
 11
-46.9984
 21
-31.2491
  0
LINE
  8
0
 10
-46.9984
 20
-31.2491
 11
-46.9347
 21
-31.3923
  0
LINE
  8
0
 10
-46.9347
 20
-31.3923
 11
-46.9121
 21
-31.4397
  0
LINE
  8
0
 10
-46.9121
 20
-31.4397
 11
-46.8763
 21
-31.5098
  0
LINE
  8
0
 10
-46.8763
 20
-31.5098
 11
-46.8515
 21
-31.5555
  0
LINE
  8
0
 10
-46.8515
 20
-31.5555
 11
-46.773
 21
-31.6915
  0
LINE
  8
0
 10
-46.773
 20
-31.6915
 11
-46.7455
 21
-31.7364
  0
LINE
  8
0
 10
-46.7455
 20
-31.7364
 11
-46.7029
 21
-31.802
  0
LINE
  8
0
 10
-46.7029
 20
-31.802
 11
-46.6731
 21
-31.8453
  0
LINE
  8
0
 10
-46.6731
 20
-31.8453
 11
-46.5809
 21
-31.9722
  0
LINE
  8
0
 10
-46.5809
 20
-31.9722
 11
-46.5492
 21
-32.0135
  0
LINE
  8
0
 10
-46.5492
 20
-32.0135
 11
-46.4997
 21
-32.0747
  0
LINE
  8
0
 10
-46.4997
 20
-32.0747
 11
-46.4658
 21
-32.1144
  0
LINE
  8
0
 10
-46.4658
 20
-32.1144
 11
-46.3605
 21
-32.2314
  0
LINE
  8
0
 10
-46.3605
 20
-32.2314
 11
-46.3248
 21
-32.269
  0
LINE
  8
0
 10
-46.3248
 20
-32.269
 11
-46.269
 21
-32.3248
  0
LINE
  8
0
 10
-46.269
 20
-32.3248
 11
-46.2314
 21
-32.3605
  0
LINE
  8
0
 10
-46.2314
 20
-32.3605
 11
-46.1144
 21
-32.4658
  0
LINE
  8
0
 10
-46.1144
 20
-32.4658
 11
-46.0747
 21
-32.4997
  0
LINE
  8
0
 10
-46.0747
 20
-32.4997
 11
-46.0135
 21
-32.5492
  0
LINE
  8
0
 10
-46.0135
 20
-32.5492
 11
-45.9722
 21
-32.5809
  0
LINE
  8
0
 10
-45.9722
 20
-32.5809
 11
-45.8453
 21
-32.6731
  0
LINE
  8
0
 10
-45.8453
 20
-32.6731
 11
-45.8018
 21
-32.703
  0
LINE
  8
0
 10
-45.8018
 20
-32.703
 11
-45.7364
 21
-32.7455
  0
LINE
  8
0
 10
-45.7364
 20
-32.7455
 11
-45.6915
 21
-32.773
  0
LINE
  8
0
 10
-45.6915
 20
-32.773
 11
-45.5555
 21
-32.8515
  0
LINE
  8
0
 10
-45.5555
 20
-32.8515
 11
-45.5098
 21
-32.8763
  0
LINE
  8
0
 10
-45.5098
 20
-32.8763
 11
-45.4397
 21
-32.9121
  0
LINE
  8
0
 10
-45.4397
 20
-32.9121
 11
-45.3923
 21
-32.9347
  0
LINE
  8
0
 10
-45.3923
 20
-32.9347
 11
-45.2491
 21
-32.9984
  0
LINE
  8
0
 10
-45.2491
 20
-32.9984
 11
-45.2007
 21
-33.0185
  0
LINE
  8
0
 10
-45.2007
 20
-33.0185
 11
-45.1278
 21
-33.0464
  0
LINE
  8
0
 10
-45.1278
 20
-33.0464
 11
-45.0778
 21
-33.0642
  0
LINE
  8
0
 10
-45.0778
 20
-33.0642
 11
-44.9288
 21
-33.1125
  0
LINE
  8
0
 10
-44.9288
 20
-33.1125
 11
-44.8785
 21
-33.1275
  0
LINE
  8
0
 10
-44.8785
 20
-33.1275
 11
-44.803
 21
-33.1477
  0
LINE
  8
0
 10
-44.803
 20
-33.1477
 11
-44.7518
 21
-33.16
  0
LINE
  8
0
 10
-44.7518
 20
-33.16
 11
-44.5985
 21
-33.1926
  0
LINE
  8
0
 10
-44.5985
 20
-33.1926
 11
-44.5469
 21
-33.2021
  0
LINE
  8
0
 10
-44.5469
 20
-33.2021
 11
-44.4696
 21
-33.2144
  0
LINE
  8
0
 10
-44.4696
 20
-33.2144
 11
-44.4174
 21
-33.2213
  0
LINE
  8
0
 10
-44.4174
 20
-33.2213
 11
-44.2614
 21
-33.2377
  0
LINE
  8
0
 10
-44.2614
 20
-33.2377
 11
-44.2093
 21
-33.2418
  0
LINE
  8
0
 10
-44.2093
 20
-33.2418
 11
-44.131
 21
-33.2459
  0
LINE
  8
0
 10
-44.131
 20
-33.2459
 11
-44.0785
 21
-33.2473
  0
LINE
  8
0
 10
-44.0785
 20
-33.2473
 11
-43.9215
 21
-33.2473
  0
LINE
  8
0
 10
-43.9215
 20
-33.2473
 11
-43.869
 21
-33.2459
  0
LINE
  8
0
 10
-43.869
 20
-33.2459
 11
-43.7907
 21
-33.2418
  0
LINE
  8
0
 10
-43.7907
 20
-33.2418
 11
-43.7385
 21
-33.2377
  0
LINE
  8
0
 10
-43.7385
 20
-33.2377
 11
-43.5824
 21
-33.2212
  0
LINE
  8
0
 10
-43.5824
 20
-33.2212
 11
-43.5306
 21
-33.2144
  0
LINE
  8
0
 10
-43.5306
 20
-33.2144
 11
-43.4531
 21
-33.2021
  0
LINE
  8
0
 10
-43.4531
 20
-33.2021
 11
-43.4015
 21
-33.1926
  0
LINE
  8
0
 10
-43.4015
 20
-33.1926
 11
-43.2482
 21
-33.16
  0
LINE
  8
0
 10
-43.2482
 20
-33.16
 11
-43.197
 21
-33.1477
  0
LINE
  8
0
 10
-43.197
 20
-33.1477
 11
-43.1215
 21
-33.1275
  0
LINE
  8
0
 10
-43.1215
 20
-33.1275
 11
-43.0711
 21
-33.1125
  0
LINE
  8
0
 10
-43.0711
 20
-33.1125
 11
-42.9222
 21
-33.0642
  0
LINE
  8
0
 10
-42.9222
 20
-33.0642
 11
-42.8721
 21
-33.0464
  0
LINE
  8
0
 10
-42.8721
 20
-33.0464
 11
-42.7995
 21
-33.0185
  0
LINE
  8
0
 10
-42.7995
 20
-33.0185
 11
-42.7508
 21
-32.9984
  0
LINE
  8
0
 10
-42.7508
 20
-32.9984
 11
-42.6072
 21
-32.9344
  0
LINE
  8
0
 10
-42.6072
 20
-32.9344
 11
-42.5606
 21
-32.9122
  0
LINE
  8
0
 10
-42.5606
 20
-32.9122
 11
-42.4902
 21
-32.8763
  0
LINE
  8
0
 10
-42.4902
 20
-32.8763
 11
-42.4443
 21
-32.8514
  0
LINE
  8
0
 10
-42.4443
 20
-32.8514
 11
-42.3085
 21
-32.773
  0
LINE
  8
0
 10
-42.3085
 20
-32.773
 11
-42.2639
 21
-32.7457
  0
LINE
  8
0
 10
-42.2639
 20
-32.7457
 11
-42.198
 21
-32.7029
  0
LINE
  8
0
 10
-42.198
 20
-32.7029
 11
-42.1548
 21
-32.6732
  0
LINE
  8
0
 10
-42.1548
 20
-32.6732
 11
-42.028
 21
-32.5811
  0
LINE
  8
0
 10
-42.028
 20
-32.5811
 11
-41.9864
 21
-32.5491
  0
LINE
  8
0
 10
-41.9864
 20
-32.5491
 11
-41.9253
 21
-32.4997
  0
LINE
  8
0
 10
-41.9253
 20
-32.4997
 11
-41.8856
 21
-32.4658
  0
LINE
  8
0
 10
-41.8856
 20
-32.4658
 11
-41.7686
 21
-32.3605
  0
LINE
  8
0
 10
-41.7686
 20
-32.3605
 11
-41.731
 21
-32.3248
  0
LINE
  8
0
 10
-41.731
 20
-32.3248
 11
-41.7258
 21
-32.3196
  0
LINE
  8
0
 10
-41.7258
 20
-32.3196
 11
-41.7204
 21
-32.3147
  0
LINE
  8
0
 10
-41.7204
 20
-32.3147
 11
-41.7119
 21
-32.3066
  0
LINE
  8
0
 10
-41.7119
 20
-32.3066
 11
-41.7117
 21
-32.3069
  0
LINE
  8
0
 10
-41.7117
 20
-32.3069
 11
-41.5702
 21
-32.1795
  0
LINE
  8
0
 10
-41.5702
 20
-32.1795
 11
-41.4009
 21
-32.0565
  0
LINE
  8
0
 10
-41.4009
 20
-32.0565
 11
-41.2196
 21
-31.9518
  0
LINE
  8
0
 10
-41.2196
 20
-31.9518
 11
-41.0283
 21
-31.8667
  0
LINE
  8
0
 10
-41.0283
 20
-31.8667
 11
-40.8292
 21
-31.802
  0
LINE
  8
0
 10
-40.8292
 20
-31.802
 11
-40.6245
 21
-31.7584
  0
LINE
  8
0
 10
-40.6245
 20
-31.7584
 11
-40.4163
 21
-31.7366
  0
LINE
  8
0
 10
-40.4163
 20
-31.7366
 11
-40.2069
 21
-31.7366
  0
LINE
  8
0
 10
-40.2069
 20
-31.7366
 11
-39.9987
 21
-31.7584
  0
LINE
  8
0
 10
-39.9987
 20
-31.7584
 11
-39.794
 21
-31.802
  0
LINE
  8
0
 10
-39.794
 20
-31.802
 11
-39.5949
 21
-31.8667
  0
LINE
  8
0
 10
-39.5949
 20
-31.8667
 11
-39.4036
 21
-31.9518
  0
LINE
  8
0
 10
-39.4036
 20
-31.9518
 11
-39.2223
 21
-32.0565
  0
LINE
  8
0
 10
-39.2223
 20
-32.0565
 11
-39.053
 21
-32.1795
  0
LINE
  8
0
 10
-39.053
 20
-32.1795
 11
-38.3221
 21
-32.7713
  0
LINE
  8
0
 10
-38.3221
 20
-32.7713
 11
-38.1665
 21
-32.9114
  0
LINE
  8
0
 10
-38.1665
 20
-32.9114
 11
-37.4265
 21
-33.6514
  0
LINE
  8
0
 10
-37.4265
 20
-33.6514
 11
-37.2865
 21
-33.8069
  0
LINE
  8
0
 10
-37.2865
 20
-33.8069
 11
-36.5953
 21
-34.6604
  0
LINE
  8
0
 10
-36.5953
 20
-34.6604
 11
-36.5315
 21
-34.7435
  0
LINE
  8
0
 10
-36.5315
 20
-34.7435
 11
-36.0164
 21
-35.4524
  0
LINE
  8
0
 10
-36.0164
 20
-35.4524
 11
-35.9505
 21
-35.5338
  0
LINE
  8
0
 10
-35.9505
 20
-35.5338
 11
-35.7418
 21
-35.7656
  0
LINE
  8
0
 10
-35.7418
 20
-35.7656
 11
-35.6677
 21
-35.8397
  0
LINE
  8
0
 10
-35.6677
 20
-35.8397
 11
-35.4355
 21
-36.0487
  0
LINE
  8
0
 10
-35.4355
 20
-36.0487
 11
-35.3543
 21
-36.1145
  0
LINE
  8
0
 10
-35.3543
 20
-36.1145
 11
-35.1019
 21
-36.2978
  0
LINE
  8
0
 10
-35.1019
 20
-36.2978
 11
-35.0629
 21
-36.3232
  0
LINE
  8
0
 10
-35.0629
 20
-36.3232
 11
-34.8935
 21
-36.4462
  0
LINE
  8
0
 10
-34.8935
 20
-36.4462
 11
-34.7379
 21
-36.5863
  0
LINE
  8
0
 10
-34.7379
 20
-36.5863
 11
-34.5978
 21
-36.7418
  0
LINE
  8
0
 10
-34.5978
 20
-36.7418
 11
-34.4748
 21
-36.9112
  0
LINE
  8
0
 10
-34.4748
 20
-36.9112
 11
-34.3701
 21
-37.0925
  0
LINE
  8
0
 10
-34.3701
 20
-37.0925
 11
-34.2849
 21
-37.2837
  0
LINE
  8
0
 10
-34.2849
 20
-37.2837
 11
-34.2202
 21
-37.4828
  0
LINE
  8
0
 10
-34.2202
 20
-37.4828
 11
-34.1767
 21
-37.6876
  0
LINE
  8
0
 10
-34.1767
 20
-37.6876
 11
-34.1548
 21
-37.8958
  0
LINE
  8
0
 10
-34.1548
 20
-37.8958
 11
-34.1548
 21
-38.1051
  0
LINE
  8
0
 10
-34.1548
 20
-38.1051
 11
-34.1766
 21
-38.3133
  0
LINE
  8
0
 10
-34.1766
 20
-38.3133
 11
-34.1882
 21
-38.3757
  0
LINE
  8
0
 10
-34.1882
 20
-38.3757
 11
-34.1878
 21
-38.3757
  0
LINE
  8
0
 10
-34.1878
 20
-38.3757
 11
-34.2021
 21
-38.4531
  0
LINE
  8
0
 10
-34.2021
 20
-38.4531
 11
-34.2144
 21
-38.5306
  0
LINE
  8
0
 10
-34.2144
 20
-38.5306
 11
-34.2212
 21
-38.5824
  0
LINE
  8
0
 10
-34.2212
 20
-38.5824
 11
-34.2377
 21
-38.7385
  0
LINE
  8
0
 10
-34.2377
 20
-38.7385
 11
-34.2418
 21
-38.7907
  0
LINE
  8
0
 10
-34.2418
 20
-38.7907
 11
-34.2459
 21
-38.869
  0
LINE
  8
0
 10
-34.2459
 20
-38.869
 11
-34.2473
 21
-38.9215
  0
LINE
  8
0
 10
-34.2473
 20
-38.9215
 11
-34.2473
 21
-39.0785
  0
LINE
  8
0
 10
-34.2473
 20
-39.0785
 11
-34.2459
 21
-39.131
  0
LINE
  8
0
 10
-34.2459
 20
-39.131
 11
-34.2418
 21
-39.2095
  0
LINE
  8
0
 10
-34.2418
 20
-39.2095
 11
-34.2377
 21
-39.2614
  0
LINE
  8
0
 10
-34.2377
 20
-39.2614
 11
-34.2213
 21
-39.4174
  0
LINE
  8
0
 10
-34.2213
 20
-39.4174
 11
-34.2144
 21
-39.4696
  0
LINE
  8
0
 10
-34.2144
 20
-39.4696
 11
-34.2021
 21
-39.5469
  0
LINE
  8
0
 10
-34.2021
 20
-39.5469
 11
-34.1926
 21
-39.5985
  0
LINE
  8
0
 10
-34.1926
 20
-39.5985
 11
-34.16
 21
-39.7518
  0
LINE
  8
0
 10
-34.16
 20
-39.7518
 11
-34.1477
 21
-39.803
  0
LINE
  8
0
 10
-34.1477
 20
-39.803
 11
-34.1275
 21
-39.8785
  0
LINE
  8
0
 10
-34.1275
 20
-39.8785
 11
-34.1125
 21
-39.9288
  0
LINE
  8
0
 10
-34.1125
 20
-39.9288
 11
-34.0642
 21
-40.0778
  0
LINE
  8
0
 10
-34.0642
 20
-40.0778
 11
-34.0464
 21
-40.1278
  0
LINE
  8
0
 10
-34.0464
 20
-40.1278
 11
-34.0185
 21
-40.2007
  0
LINE
  8
0
 10
-34.0185
 20
-40.2007
 11
-33.9984
 21
-40.2491
  0
LINE
  8
0
 10
-33.9984
 20
-40.2491
 11
-33.9347
 21
-40.3923
  0
LINE
  8
0
 10
-33.9347
 20
-40.3923
 11
-33.9121
 21
-40.4397
  0
LINE
  8
0
 10
-33.9121
 20
-40.4397
 11
-33.8763
 21
-40.5098
  0
LINE
  8
0
 10
-33.8763
 20
-40.5098
 11
-33.8515
 21
-40.5555
  0
LINE
  8
0
 10
-33.8515
 20
-40.5555
 11
-33.773
 21
-40.6915
  0
LINE
  8
0
 10
-33.773
 20
-40.6915
 11
-33.7455
 21
-40.7364
  0
LINE
  8
0
 10
-33.7455
 20
-40.7364
 11
-33.703
 21
-40.8018
  0
LINE
  8
0
 10
-33.703
 20
-40.8018
 11
-33.6731
 21
-40.8453
  0
LINE
  8
0
 10
-33.6731
 20
-40.8453
 11
-33.5809
 21
-40.9722
  0
LINE
  8
0
 10
-33.5809
 20
-40.9722
 11
-33.5492
 21
-41.0135
  0
LINE
  8
0
 10
-33.5492
 20
-41.0135
 11
-33.4997
 21
-41.0747
  0
LINE
  8
0
 10
-33.4997
 20
-41.0747
 11
-33.4658
 21
-41.1144
  0
LINE
  8
0
 10
-33.4658
 20
-41.1144
 11
-33.3605
 21
-41.2314
  0
LINE
  8
0
 10
-33.3605
 20
-41.2314
 11
-33.3248
 21
-41.269
  0
LINE
  8
0
 10
-33.3248
 20
-41.269
 11
-33.269
 21
-41.3248
  0
LINE
  8
0
 10
-33.269
 20
-41.3248
 11
-33.2314
 21
-41.3605
  0
LINE
  8
0
 10
-33.2314
 20
-41.3605
 11
-33.1144
 21
-41.4658
  0
LINE
  8
0
 10
-33.1144
 20
-41.4658
 11
-33.0747
 21
-41.4997
  0
LINE
  8
0
 10
-33.0747
 20
-41.4997
 11
-33.0135
 21
-41.5492
  0
LINE
  8
0
 10
-33.0135
 20
-41.5492
 11
-32.9722
 21
-41.5809
  0
LINE
  8
0
 10
-32.9722
 20
-41.5809
 11
-32.8453
 21
-41.6731
  0
LINE
  8
0
 10
-32.8453
 20
-41.6731
 11
-32.8018
 21
-41.703
  0
LINE
  8
0
 10
-32.8018
 20
-41.703
 11
-32.7364
 21
-41.7455
  0
LINE
  8
0
 10
-32.7364
 20
-41.7455
 11
-32.6915
 21
-41.773
  0
LINE
  8
0
 10
-32.6915
 20
-41.773
 11
-32.5555
 21
-41.8515
  0
LINE
  8
0
 10
-32.5555
 20
-41.8515
 11
-32.5098
 21
-41.8763
  0
LINE
  8
0
 10
-32.5098
 20
-41.8763
 11
-32.4397
 21
-41.9121
  0
LINE
  8
0
 10
-32.4397
 20
-41.9121
 11
-32.3923
 21
-41.9347
  0
LINE
  8
0
 10
-32.3923
 20
-41.9347
 11
-32.2491
 21
-41.9984
  0
LINE
  8
0
 10
-32.2491
 20
-41.9984
 11
-32.2007
 21
-42.0185
  0
LINE
  8
0
 10
-32.2007
 20
-42.0185
 11
-32.1278
 21
-42.0464
  0
LINE
  8
0
 10
-32.1278
 20
-42.0464
 11
-32.0778
 21
-42.0642
  0
LINE
  8
0
 10
-32.0778
 20
-42.0642
 11
-31.9288
 21
-42.1125
  0
LINE
  8
0
 10
-31.9288
 20
-42.1125
 11
-31.8785
 21
-42.1275
  0
LINE
  8
0
 10
-31.8785
 20
-42.1275
 11
-31.803
 21
-42.1477
  0
LINE
  8
0
 10
-31.803
 20
-42.1477
 11
-31.7518
 21
-42.16
  0
LINE
  8
0
 10
-31.7518
 20
-42.16
 11
-31.5985
 21
-42.1926
  0
LINE
  8
0
 10
-31.5985
 20
-42.1926
 11
-31.5469
 21
-42.2021
  0
LINE
  8
0
 10
-31.5469
 20
-42.2021
 11
-31.4696
 21
-42.2144
  0
LINE
  8
0
 10
-31.4696
 20
-42.2144
 11
-31.4174
 21
-42.2213
  0
LINE
  8
0
 10
-31.4174
 20
-42.2213
 11
-31.2614
 21
-42.2377
  0
LINE
  8
0
 10
-31.2614
 20
-42.2377
 11
-31.2093
 21
-42.2418
  0
LINE
  8
0
 10
-31.2093
 20
-42.2418
 11
-31.131
 21
-42.2459
  0
LINE
  8
0
 10
-31.131
 20
-42.2459
 11
-31.0785
 21
-42.2473
  0
LINE
  8
0
 10
-31.0785
 20
-42.2473
 11
-30.9215
 21
-42.2473
  0
LINE
  8
0
 10
-30.9215
 20
-42.2473
 11
-30.869
 21
-42.2459
  0
LINE
  8
0
 10
-30.869
 20
-42.2459
 11
-30.7907
 21
-42.2418
  0
LINE
  8
0
 10
-30.7907
 20
-42.2418
 11
-30.739
 21
-42.2377
  0
LINE
  8
0
 10
-30.739
 20
-42.2377
 11
-30.5946
 21
-42.2225
  0
LINE
  8
0
 10
-30.5946
 20
-42.2225
 11
-30.3856
 21
-42.2116
  0
LINE
  8
0
 10
-30.3856
 20
-42.2116
 11
-30.1765
 21
-42.2225
  0
LINE
  8
0
 10
-30.1765
 20
-42.2225
 11
-29.9697
 21
-42.2553
  0
LINE
  8
0
 10
-29.9697
 20
-42.2553
 11
-29.7675
 21
-42.3094
  0
LINE
  8
0
 10
-29.7675
 20
-42.3094
 11
-29.5721
 21
-42.3845
  0
LINE
  8
0
 10
-29.5721
 20
-42.3845
 11
-29.3855
 21
-42.4795
  0
LINE
  8
0
 10
-29.3855
 20
-42.4795
 11
-29.21
 21
-42.5935
  0
LINE
  8
0
 10
-29.21
 20
-42.5935
 11
-29.0473
 21
-42.7253
  0
LINE
  8
0
 10
-29.0473
 20
-42.7253
 11
-28.8992
 21
-42.8733
  0
LINE
  8
0
 10
-28.8992
 20
-42.8733
 11
-28.7675
 21
-43.036
  0
LINE
  8
0
 10
-28.7675
 20
-43.036
 11
-28.6535
 21
-43.2115
  0
LINE
  8
0
 10
-28.6535
 20
-43.2115
 11
-28.5184
 21
-43.4947
  0
LINE
  8
0
 10
-28.5184
 20
-43.4947
 11
-28.4915
 21
-43.5649
  0
LINE
  8
0
 10
-28.4915
 20
-43.5649
 11
-28.4267
 21
-43.7641
  0
LINE
  8
0
 10
-28.4267
 20
-43.7641
 11
-28.1421
 21
-44.8261
  0
LINE
  8
0
 10
-28.1421
 20
-44.8261
 11
-28.1176
 21
-44.928
  0
LINE
  8
0
 10
-28.1176
 20
-44.928
 11
-28.0457
 21
-45.2666
  0
LINE
  8
0
 10
-28.0457
 20
-45.2666
 11
-28.0185
 21
-45.3679
  0
LINE
  8
0
 10
-28.0185
 20
-45.3679
 11
-27.922
 21
-45.6648
  0
LINE
  8
0
 10
-27.922
 20
-45.6648
 11
-27.8845
 21
-45.7626
  0
LINE
  8
0
 10
-27.8845
 20
-45.7626
 11
-27.7576
 21
-46.0475
  0
LINE
  8
0
 10
-27.7576
 20
-46.0475
 11
-27.7101
 21
-46.1409
  0
LINE
  8
0
 10
-27.7101
 20
-46.1409
 11
-27.5539
 21
-46.4113
  0
LINE
  8
0
 10
-27.5539
 20
-46.4113
 11
-27.497
 21
-46.499
  0
LINE
  8
0
 10
-27.497
 20
-46.499
 11
-27.3135
 21
-46.7516
  0
LINE
  8
0
 10
-27.3135
 20
-46.7516
 11
-27.2476
 21
-46.8329
  0
LINE
  8
0
 10
-27.2476
 20
-46.8329
 11
-27.0387
 21
-47.0648
  0
LINE
  8
0
 10
-27.0387
 20
-47.0648
 11
-26.9648
 21
-47.1388
  0
LINE
  8
0
 10
-26.9648
 20
-47.1388
 11
-26.7326
 21
-47.3478
  0
LINE
  8
0
 10
-26.7326
 20
-47.3478
 11
-26.6515
 21
-47.4135
  0
LINE
  8
0
 10
-26.6515
 20
-47.4135
 11
-26.3988
 21
-47.5971
  0
LINE
  8
0
 10
-26.3988
 20
-47.5971
 11
-26.3111
 21
-47.654
  0
LINE
  8
0
 10
-26.3111
 20
-47.654
 11
-26.0408
 21
-47.8101
  0
LINE
  8
0
 10
-26.0408
 20
-47.8101
 11
-25.9474
 21
-47.8577
  0
LINE
  8
0
 10
-25.9474
 20
-47.8577
 11
-25.6623
 21
-47.9846
  0
LINE
  8
0
 10
-25.6623
 20
-47.9846
 11
-25.5645
 21
-48.0222
  0
LINE
  8
0
 10
-25.5645
 20
-48.0222
 11
-25.2677
 21
-48.1186
  0
LINE
  8
0
 10
-25.2677
 20
-48.1186
 11
-25.1668
 21
-48.1456
  0
LINE
  8
0
 10
-25.1668
 20
-48.1456
 11
-24.8608
 21
-48.2106
  0
LINE
  8
0
 10
-24.8608
 20
-48.2106
 11
-24.7578
 21
-48.227
  0
LINE
  8
0
 10
-24.7578
 20
-48.227
 11
-24.1954
 21
-48.2861
  0
LINE
  8
0
 10
-24.1954
 20
-48.2861
 11
-24.1174
 21
-48.2912
  0
LINE
  8
0
 10
-24.1174
 20
-48.2912
 11
-23.7946
 21
-48.2996
  0
LINE
  8
0
 10
-23.7946
 20
-48.2996
 11
-23.7923
 21
-48.2997
  0
LINE
  8
0
 10
-23.7923
 20
-48.2997
 11
-23.7158
 21
-48.3017
  0
LINE
  8
0
 10
-23.7158
 20
-48.3017
 11
-23.5845
 21
-48.3095
  0
LINE
  8
0
 10
-23.5845
 20
-48.3095
 11
-22.6163
 21
-48.3602
  0
LINE
  8
0
 10
-22.6163
 20
-48.3602
 11
-22.4078
 21
-48.3821
  0
LINE
  8
0
 10
-22.4078
 20
-48.3821
 11
-22.3732
 21
-48.3876
  0
LINE
  8
0
 10
-22.3732
 20
-48.3876
 11
-22.1684
 21
-48.4312
  0
LINE
  8
0
 10
-22.1684
 20
-48.4312
 11
-21.9693
 21
-48.4959
  0
LINE
  8
0
 10
-21.9693
 20
-48.4959
 11
-21.7781
 21
-48.5811
  0
LINE
  8
0
 10
-21.7781
 20
-48.5811
 11
-21.5968
 21
-48.6858
  0
LINE
  8
0
 10
-21.5968
 20
-48.6858
 11
-21.4274
 21
-48.8089
  0
LINE
  8
0
 10
-21.4274
 20
-48.8089
 11
-21.2719
 21
-48.9489
  0
LINE
  8
0
 10
-21.2719
 20
-48.9489
 11
-21.1318
 21
-49.1045
  0
LINE
  8
0
 10
-21.1318
 20
-49.1045
 11
-21.0088
 21
-49.2739
  0
LINE
  8
0
 10
-21.0088
 20
-49.2739
 11
-20.9042
 21
-49.4552
  0
LINE
  8
0
 10
-20.9042
 20
-49.4552
 11
-20.8763
 21
-49.5099
  0
LINE
  8
0
 10
-20.8763
 20
-49.5099
 11
-20.8515
 21
-49.5555
  0
LINE
  8
0
 10
-20.8515
 20
-49.5555
 11
-20.773
 21
-49.6915
  0
LINE
  8
0
 10
-20.773
 20
-49.6915
 11
-20.7455
 21
-49.7364
  0
LINE
  8
0
 10
-20.7455
 20
-49.7364
 11
-20.703
 21
-49.8018
  0
LINE
  8
0
 10
-20.703
 20
-49.8018
 11
-20.6731
 21
-49.8453
  0
LINE
  8
0
 10
-20.6731
 20
-49.8453
 11
-20.5809
 21
-49.9722
  0
LINE
  8
0
 10
-20.5809
 20
-49.9722
 11
-20.5492
 21
-50.0135
  0
LINE
  8
0
 10
-20.5492
 20
-50.0135
 11
-20.4997
 21
-50.0747
  0
LINE
  8
0
 10
-20.4997
 20
-50.0747
 11
-20.4658
 21
-50.1144
  0
LINE
  8
0
 10
-20.4658
 20
-50.1144
 11
-20.3605
 21
-50.2314
  0
LINE
  8
0
 10
-20.3605
 20
-50.2314
 11
-20.3248
 21
-50.269
  0
LINE
  8
0
 10
-20.3248
 20
-50.269
 11
-20.269
 21
-50.3248
  0
LINE
  8
0
 10
-20.269
 20
-50.3248
 11
-20.2314
 21
-50.3605
  0
LINE
  8
0
 10
-20.2314
 20
-50.3605
 11
-20.1144
 21
-50.4658
  0
LINE
  8
0
 10
-20.1144
 20
-50.4658
 11
-20.0747
 21
-50.4997
  0
LINE
  8
0
 10
-20.0747
 20
-50.4997
 11
-20.0135
 21
-50.5492
  0
LINE
  8
0
 10
-20.0135
 20
-50.5492
 11
-19.9722
 21
-50.5809
  0
LINE
  8
0
 10
-19.9722
 20
-50.5809
 11
-19.8453
 21
-50.6731
  0
LINE
  8
0
 10
-19.8453
 20
-50.6731
 11
-19.8018
 21
-50.703
  0
LINE
  8
0
 10
-19.8018
 20
-50.703
 11
-19.7364
 21
-50.7455
  0
LINE
  8
0
 10
-19.7364
 20
-50.7455
 11
-19.6915
 21
-50.773
  0
LINE
  8
0
 10
-19.6915
 20
-50.773
 11
-19.5555
 21
-50.8515
  0
LINE
  8
0
 10
-19.5555
 20
-50.8515
 11
-19.5098
 21
-50.8763
  0
LINE
  8
0
 10
-19.5098
 20
-50.8763
 11
-19.4397
 21
-50.9121
  0
LINE
  8
0
 10
-19.4397
 20
-50.9121
 11
-19.3923
 21
-50.9347
  0
LINE
  8
0
 10
-19.3923
 20
-50.9347
 11
-19.2491
 21
-50.9984
  0
LINE
  8
0
 10
-19.2491
 20
-50.9984
 11
-19.2007
 21
-51.0185
  0
LINE
  8
0
 10
-19.2007
 20
-51.0185
 11
-19.1278
 21
-51.0464
  0
LINE
  8
0
 10
-19.1278
 20
-51.0464
 11
-19.0778
 21
-51.0642
  0
LINE
  8
0
 10
-19.0778
 20
-51.0642
 11
-18.9288
 21
-51.1125
  0
LINE
  8
0
 10
-18.9288
 20
-51.1125
 11
-18.8785
 21
-51.1275
  0
LINE
  8
0
 10
-18.8785
 20
-51.1275
 11
-18.803
 21
-51.1477
  0
LINE
  8
0
 10
-18.803
 20
-51.1477
 11
-18.7518
 21
-51.16
  0
LINE
  8
0
 10
-18.7518
 20
-51.16
 11
-18.5985
 21
-51.1926
  0
LINE
  8
0
 10
-18.5985
 20
-51.1926
 11
-18.5469
 21
-51.2021
  0
LINE
  8
0
 10
-18.5469
 20
-51.2021
 11
-18.4696
 21
-51.2144
  0
LINE
  8
0
 10
-18.4696
 20
-51.2144
 11
-18.4174
 21
-51.2213
  0
LINE
  8
0
 10
-18.4174
 20
-51.2213
 11
-18.2614
 21
-51.2377
  0
LINE
  8
0
 10
-18.2614
 20
-51.2377
 11
-18.2093
 21
-51.2418
  0
LINE
  8
0
 10
-18.2093
 20
-51.2418
 11
-18.131
 21
-51.2459
  0
LINE
  8
0
 10
-18.131
 20
-51.2459
 11
-18.0785
 21
-51.2473
  0
LINE
  8
0
 10
-18.0785
 20
-51.2473
 11
-17.9215
 21
-51.2473
  0
LINE
  8
0
 10
-17.9215
 20
-51.2473
 11
-17.869
 21
-51.2459
  0
LINE
  8
0
 10
-17.869
 20
-51.2459
 11
-17.7907
 21
-51.2418
  0
LINE
  8
0
 10
-17.7907
 20
-51.2418
 11
-17.7385
 21
-51.2377
  0
LINE
  8
0
 10
-17.7385
 20
-51.2377
 11
-17.5824
 21
-51.2212
  0
LINE
  8
0
 10
-17.5824
 20
-51.2212
 11
-17.5306
 21
-51.2144
  0
LINE
  8
0
 10
-17.5306
 20
-51.2144
 11
-17.4531
 21
-51.2021
  0
LINE
  8
0
 10
-17.4531
 20
-51.2021
 11
-17.4014
 21
-51.1926
  0
LINE
  8
0
 10
-17.4014
 20
-51.1926
 11
-17.247
 21
-51.1597
  0
LINE
  8
0
 10
-17.247
 20
-51.1597
 11
-17.0402
 21
-51.127
  0
LINE
  8
0
 10
-17.0402
 20
-51.127
 11
-16.8312
 21
-51.116
  0
LINE
  8
0
 10
-16.8312
 20
-51.116
 11
-16.6221
 21
-51.1269
  0
LINE
  8
0
 10
-16.6221
 20
-51.1269
 11
-16.4153
 21
-51.1597
  0
LINE
  8
0
 10
-16.4153
 20
-51.1597
 11
-16.2131
 21
-51.2139
  0
LINE
  8
0
 10
-16.2131
 20
-51.2139
 11
-16.0177
 21
-51.2889
  0
LINE
  8
0
 10
-16.0177
 20
-51.2889
 11
-15.8311
 21
-51.3839
  0
LINE
  8
0
 10
-15.8311
 20
-51.3839
 11
-15.6556
 21
-51.4979
  0
LINE
  8
0
 10
-15.6556
 20
-51.4979
 11
-15.4929
 21
-51.6296
  0
LINE
  8
0
 10
-15.4929
 20
-51.6296
 11
-15.4168
 21
-51.7018
  0
LINE
  8
0
 10
-15.4168
 20
-51.7018
 11
-14.9223
 21
-52.1963
  0
LINE
  8
0
 10
-14.9223
 20
-52.1963
 11
-14.7822
 21
-52.3519
  0
LINE
  8
0
 10
-14.7822
 20
-52.3519
 11
-14.1237
 21
-53.1651
  0
LINE
  8
0
 10
-14.1237
 20
-53.1651
 11
-14.0006
 21
-53.3345
  0
LINE
  8
0
 10
-14.0006
 20
-53.3345
 11
-13.4307
 21
-54.2121
  0
LINE
  8
0
 10
-13.4307
 20
-54.2121
 11
-13.326
 21
-54.3934
  0
LINE
  8
0
 10
-13.326
 20
-54.3934
 11
-12.851
 21
-55.3258
  0
LINE
  8
0
 10
-12.851
 20
-55.3258
 11
-12.7658
 21
-55.517
  0
LINE
  8
0
 10
-12.7658
 20
-55.517
 11
-12.3909
 21
-56.4938
  0
LINE
  8
0
 10
-12.3909
 20
-56.4938
 11
-12.3262
 21
-56.6929
  0
LINE
  8
0
 10
-12.3262
 20
-56.6929
 11
-12.0621
 21
-57.6784
  0
LINE
  8
0
 10
-12.0621
 20
-57.6784
 11
-12.011
 21
-57.935
  0
LINE
  8
0
 10
-12.011
 20
-57.935
 11
-11.7926
 21
-59.5941
  0
LINE
  8
0
 10
-11.7926
 20
-59.5941
 11
-11.7783
 21
-59.7505
  0
LINE
  8
0
 10
-11.7783
 20
-59.7505
 11
-11.7645
 21
-60.014
  0
LINE
  8
0
 10
-11.7645
 20
-60.014
 11
-11.7535
 21
-60.118
  0
LINE
  8
0
 10
-11.7535
 20
-60.118
 11
-11.7372
 21
-60.2209
  0
LINE
  8
0
 10
-11.7372
 20
-60.2209
 11
-11.7236
 21
-60.3247
  0
LINE
  8
0
 10
-11.7236
 20
-60.3247
 11
-11.6087
 21
-61.4177
  0
LINE
  8
0
 10
-11.6087
 20
-61.4177
 11
-11.5977
 21
-61.6268
  0
LINE
  8
0
 10
-11.5977
 20
-61.6268
 11
-11.5977
 21
-62.6732
  0
LINE
  8
0
 10
-11.5977
 20
-62.6732
 11
-11.6087
 21
-62.8822
  0
LINE
  8
0
 10
-11.6087
 20
-62.8822
 11
-11.7235
 21
-63.9751
  0
LINE
  8
0
 10
-11.7235
 20
-63.9751
 11
-11.7372
 21
-64.0789
  0
LINE
  8
0
 10
-11.7372
 20
-64.0789
 11
-11.7535
 21
-64.1818
  0
LINE
  8
0
 10
-11.7535
 20
-64.1818
 11
-11.7645
 21
-64.286
  0
LINE
  8
0
 10
-11.7645
 20
-64.286
 11
-11.7679
 21
-64.3515
  0
LINE
  8
0
 10
-11.7679
 20
-64.3515
 11
-11.7761
 21
-64.4559
  0
LINE
  8
0
 10
-11.7761
 20
-64.4559
 11
-11.8909
 21
-65.5486
  0
LINE
  8
0
 10
-11.8909
 20
-65.5486
 11
-11.9237
 21
-65.7554
  0
LINE
  8
0
 10
-11.9237
 20
-65.7554
 11
-12.1412
 21
-66.779
  0
LINE
  8
0
 10
-12.1412
 20
-66.779
 11
-12.1954
 21
-66.9812
  0
LINE
  8
0
 10
-12.1954
 20
-66.9812
 11
-12.5187
 21
-67.9763
  0
LINE
  8
0
 10
-12.5187
 20
-67.9763
 11
-12.5937
 21
-68.1717
  0
LINE
  8
0
 10
-12.5937
 20
-68.1717
 11
-13.0194
 21
-69.1278
  0
LINE
  8
0
 10
-13.0194
 20
-69.1278
 11
-13.1144
 21
-69.3143
  0
LINE
  8
0
 10
-13.1144
 20
-69.3143
 11
-13.6377
 21
-70.2206
  0
LINE
  8
0
 10
-13.6377
 20
-70.2206
 11
-13.7517
 21
-70.3962
  0
LINE
  8
0
 10
-13.7517
 20
-70.3962
 11
-14.3668
 21
-71.2427
  0
LINE
  8
0
 10
-14.3668
 20
-71.2427
 11
-14.4985
 21
-71.4054
  0
LINE
  8
0
 10
-14.4985
 20
-71.4054
 11
-15.1986
 21
-72.183
  0
LINE
  8
0
 10
-15.1986
 20
-72.183
 11
-15.3466
 21
-72.331
  0
LINE
  8
0
 10
-15.3466
 20
-72.331
 11
-16.1114
 21
-73.0196
  0
LINE
  8
0
 10
-16.1114
 20
-73.0196
 11
-16.3025
 21
-73.1716
  0
LINE
  8
0
 10
-16.3025
 20
-73.1716
 11
-16.8809
 21
-73.5766
  0
LINE
  8
0
 10
-16.8809
 20
-73.5766
 11
-16.9092
 21
-73.5972
  0
LINE
  8
0
 10
-16.9092
 20
-73.5972
 11
-17.628
 21
-74.1388
  0
LINE
  8
0
 10
-17.628
 20
-74.1388
 11
-17.7081
 21
-74.206
  0
LINE
  8
0
 10
-17.7081
 20
-74.206
 11
-17.9167
 21
-74.4006
  0
LINE
  8
0
 10
-17.9167
 20
-74.4006
 11
-17.9951
 21
-74.47
  0
LINE
  8
0
 10
-17.9951
 20
-74.47
 11
-18.837
 21
-75.1764
  0
LINE
  8
0
 10
-18.837
 20
-75.1764
 11
-19.0042
 21
-75.3024
  0
LINE
  8
0
 10
-19.0042
 20
-75.3024
 11
-19.8716
 21
-75.8875
  0
LINE
  8
0
 10
-19.8716
 20
-75.8875
 11
-20.0511
 21
-75.9953
  0
LINE
  8
0
 10
-20.0511
 20
-75.9953
 11
-20.9752
 21
-76.4866
  0
LINE
  8
0
 10
-20.9752
 20
-76.4866
 11
-21.1649
 21
-76.5751
  0
LINE
  8
0
 10
-21.1649
 20
-76.5751
 11
-22.1351
 21
-76.9671
  0
LINE
  8
0
 10
-22.1351
 20
-76.9671
 11
-22.333
 21
-77.0352
  0
LINE
  8
0
 10
-22.333
 20
-77.0352
 11
-23.3388
 21
-77.3236
  0
LINE
  8
0
 10
-23.3388
 20
-77.3236
 11
-23.5428
 21
-77.3707
  0
LINE
  8
0
 10
-23.5428
 20
-77.3707
 11
-24.6252
 21
-77.5616
  0
LINE
  8
0
 10
-24.6252
 20
-77.5616
 11
-24.7288
 21
-77.5771
  0
LINE
  8
0
 10
-24.7288
 20
-77.5771
 11
-24.9452
 21
-77.6037
  0
LINE
  8
0
 10
-24.9452
 20
-77.6037
 11
-25.0484
 21
-77.6218
  0
LINE
  8
0
 10
-25.0484
 20
-77.6218
 11
-25.3527
 21
-77.6921
  0
LINE
  8
0
 10
-25.3527
 20
-77.6921
 11
-25.4532
 21
-77.7209
  0
LINE
  8
0
 10
-25.4532
 20
-77.7209
 11
-25.7486
 21
-77.8226
  0
LINE
  8
0
 10
-25.7486
 20
-77.8226
 11
-25.8454
 21
-77.8617
  0
LINE
  8
0
 10
-25.8454
 20
-77.8617
 11
-26.4373
 21
-78.1377
  0
LINE
  8
0
 10
-26.4373
 20
-78.1377
 11
-26.484
 21
-78.161
  0
LINE
  8
0
 10
-26.484
 20
-78.161
 11
-38.2444
 21
-84.4141
  0
LINE
  8
0
 10
-38.2444
 20
-84.4141
 11
-38.2894
 21
-84.4396
  0
LINE
  8
0
 10
-38.2894
 20
-84.4396
 11
-38.8497
 21
-84.7763
  0
LINE
  8
0
 10
-38.8497
 20
-84.7763
 11
-38.9363
 21
-84.8347
  0
LINE
  8
0
 10
-38.9363
 20
-84.8347
 11
-39.1857
 21
-85.0226
  0
LINE
  8
0
 10
-39.1857
 20
-85.0226
 11
-39.2658
 21
-85.0898
  0
LINE
  8
0
 10
-39.2658
 20
-85.0898
 11
-39.4942
 21
-85.3028
  0
LINE
  8
0
 10
-39.4942
 20
-85.3028
 11
-39.5667
 21
-85.3779
  0
LINE
  8
0
 10
-39.5667
 20
-85.3779
 11
-39.7717
 21
-85.6137
  0
LINE
  8
0
 10
-39.7717
 20
-85.6137
 11
-39.836
 21
-85.696
  0
LINE
  8
0
 10
-39.836
 20
-85.696
 11
-40.0152
 21
-85.952
  0
LINE
  8
0
 10
-40.0152
 20
-85.952
 11
-40.0705
 21
-86.0404
  0
LINE
  8
0
 10
-40.0705
 20
-86.0404
 11
-40.2219
 21
-86.3135
  0
LINE
  8
0
 10
-40.2219
 20
-86.3135
 11
-40.2678
 21
-86.4077
  0
LINE
  8
0
 10
-40.2678
 20
-86.4077
 11
-40.3897
 21
-86.6949
  0
LINE
  8
0
 10
-40.3897
 20
-86.6949
 11
-40.4255
 21
-86.7933
  0
LINE
  8
0
 10
-40.4255
 20
-86.7933
 11
-40.5169
 21
-87.092
  0
LINE
  8
0
 10
-40.5169
 20
-87.092
 11
-40.5421
 21
-87.1933
  0
LINE
  8
0
 10
-40.5421
 20
-87.1933
 11
-40.7128
 21
-88.0713
  0
LINE
  8
0
 10
-40.7128
 20
-88.0713
 11
-40.7214
 21
-88.123
  0
LINE
  8
0
 10
-40.7214
 20
-88.123
 11
-40.7307
 21
-88.189
  0
LINE
  8
0
 10
-40.7307
 20
-88.189
 11
-40.748
 21
-88.2924
  0
LINE
  8
0
 10
-40.748
 20
-88.2924
 11
-40.8385
 21
-88.7581
  0
LINE
  8
0
 10
-40.8385
 20
-88.7581
 11
-40.8531
 21
-88.8619
  0
LINE
  8
0
 10
-40.8531
 20
-88.8619
 11
-40.8804
 21
-89.1731
  0
LINE
  8
0
 10
-40.8804
 20
-89.1731
 11
-40.884
 21
-89.2776
  0
LINE
  8
0
 10
-40.884
 20
-89.2776
 11
-40.8786
 21
-89.5894
  0
LINE
  8
0
 10
-40.8786
 20
-89.5894
 11
-40.8712
 21
-89.6942
  0
LINE
  8
0
 10
-40.8712
 20
-89.6942
 11
-40.8332
 21
-90.0038
  0
LINE
  8
0
 10
-40.8332
 20
-90.0038
 11
-40.815
 21
-90.1072
  0
LINE
  8
0
 10
-40.815
 20
-90.1072
 11
-40.7449
 21
-90.4109
  0
LINE
  8
0
 10
-40.7449
 20
-90.4109
 11
-40.716
 21
-90.5118
  0
LINE
  8
0
 10
-40.716
 20
-90.5118
 11
-40.6143
 21
-90.8069
  0
LINE
  8
0
 10
-40.6143
 20
-90.8069
 11
-40.5751
 21
-90.9039
  0
LINE
  8
0
 10
-40.5751
 20
-90.9039
 11
-40.2992
 21
-91.4957
  0
LINE
  8
0
 10
-40.2992
 20
-91.4957
 11
-40.2757
 21
-91.5428
  0
LINE
  8
0
 10
-40.2757
 20
-91.5428
 11
-38.9523
 21
-94.0317
  0
LINE
  8
0
 10
-38.9523
 20
-94.0317
 11
-38.9267
 21
-94.0771
  0
LINE
  8
0
 10
-38.9267
 20
-94.0771
 11
-38.5901
 21
-94.6372
  0
LINE
  8
0
 10
-38.5901
 20
-94.6372
 11
-38.5316
 21
-94.724
  0
LINE
  8
0
 10
-38.5316
 20
-94.724
 11
-38.469
 21
-94.807
  0
LINE
  8
0
 10
-38.469
 20
-94.807
 11
-38.4082
 21
-94.8923
  0
LINE
  8
0
 10
-38.4082
 20
-94.8923
 11
-37.7937
 21
-95.8032
  0
LINE
  8
0
 10
-37.7937
 20
-95.8032
 11
-37.6859
 21
-95.9827
  0
LINE
  8
0
 10
-37.6859
 20
-95.9827
 11
-37.1946
 21
-96.9066
  0
LINE
  8
0
 10
-37.1946
 20
-96.9066
 11
-37.1061
 21
-97.0964
  0
LINE
  8
0
 10
-37.1061
 20
-97.0964
 11
-36.6944
 21
-98.1154
  0
LINE
  8
0
 10
-36.6944
 20
-98.1154
 11
-36.6577
 21
-98.2136
  0
LINE
  8
0
 10
-36.6577
 20
-98.2136
 11
-36.6237
 21
-98.3122
  0
LINE
  8
0
 10
-36.6237
 20
-98.3122
 11
-36.5847
 21
-98.4089
  0
LINE
  8
0
 10
-36.5847
 20
-98.4089
 11
-36.3085
 21
-99.0011
  0
LINE
  8
0
 10
-36.3085
 20
-99.0011
 11
-36.2854
 21
-99.0475
  0
LINE
  8
0
 10
-36.2854
 20
-99.0475
 11
-34.9619
 21
-101.537
  0
LINE
  8
0
 10
-34.9619
 20
-101.537
 11
-34.936
 21
-101.582
  0
LINE
  8
0
 10
-34.936
 20
-101.582
 11
-34.5996
 21
-102.142
  0
LINE
  8
0
 10
-34.5996
 20
-102.142
 11
-34.5412
 21
-102.229
  0
LINE
  8
0
 10
-34.5412
 20
-102.229
 11
-34.3532
 21
-102.478
  0
LINE
  8
0
 10
-34.3532
 20
-102.478
 11
-34.286
 21
-102.558
  0
LINE
  8
0
 10
-34.286
 20
-102.558
 11
-34.0731
 21
-102.787
  0
LINE
  8
0
 10
-34.0731
 20
-102.787
 11
-33.9977
 21
-102.86
  0
LINE
  8
0
 10
-33.9977
 20
-102.86
 11
-33.7623
 21
-103.064
  0
LINE
  8
0
 10
-33.7623
 20
-103.064
 11
-33.6797
 21
-103.129
  0
LINE
  8
0
 10
-33.6797
 20
-103.129
 11
-33.424
 21
-103.308
  0
LINE
  8
0
 10
-33.424
 20
-103.308
 11
-33.3353
 21
-103.363
  0
LINE
  8
0
 10
-33.3353
 20
-103.363
 11
-33.0622
 21
-103.515
  0
LINE
  8
0
 10
-33.0622
 20
-103.515
 11
-32.968
 21
-103.561
  0
LINE
  8
0
 10
-32.968
 20
-103.561
 11
-32.5312
 21
-103.746
  0
LINE
  8
0
 10
-32.5312
 20
-103.746
 11
-32.4361
 21
-103.789
  0
LINE
  8
0
 10
-32.4361
 20
-103.789
 11
-32.3758
 21
-103.819
  0
LINE
  8
0
 10
-32.3758
 20
-103.819
 11
-32.3279
 21
-103.84
  0
LINE
  8
0
 10
-32.3279
 20
-103.84
 11
-31.5049
 21
-104.19
  0
LINE
  8
0
 10
-31.5049
 20
-104.19
 11
-31.4068
 21
-104.226
  0
LINE
  8
0
 10
-31.4068
 20
-104.226
 11
-31.1081
 21
-104.317
  0
LINE
  8
0
 10
-31.1081
 20
-104.317
 11
-31.0066
 21
-104.342
  0
LINE
  8
0
 10
-31.0066
 20
-104.342
 11
-30.7003
 21
-104.402
  0
LINE
  8
0
 10
-30.7003
 20
-104.402
 11
-30.5962
 21
-104.416
  0
LINE
  8
0
 10
-30.5962
 20
-104.416
 11
-30.2856
 21
-104.443
  0
LINE
  8
0
 10
-30.2856
 20
-104.443
 11
-30.181
 21
-104.447
  0
LINE
  8
0
 10
-30.181
 20
-104.447
 11
-29.8689
 21
-104.442
  0
LINE
  8
0
 10
-29.8689
 20
-104.442
 11
-29.7644
 21
-104.434
  0
LINE
  8
0
 10
-29.7644
 20
-104.434
 11
-29.4545
 21
-104.396
  0
LINE
  8
0
 10
-29.4545
 20
-104.396
 11
-29.3518
 21
-104.378
  0
LINE
  8
0
 10
-29.3518
 20
-104.378
 11
-29.047
 21
-104.308
  0
LINE
  8
0
 10
-29.047
 20
-104.308
 11
-28.9468
 21
-104.279
  0
LINE
  8
0
 10
-28.9468
 20
-104.279
 11
-28.6517
 21
-104.177
  0
LINE
  8
0
 10
-28.6517
 20
-104.177
 11
-28.5543
 21
-104.138
  0
LINE
  8
0
 10
-28.5543
 20
-104.138
 11
-27.9628
 21
-103.862
  0
LINE
  8
0
 10
-27.9628
 20
-103.862
 11
-27.9157
 21
-103.839
  0
LINE
  8
0
 10
-27.9157
 20
-103.839
 11
-16.1559
 21
-97.586
  0
LINE
  8
0
 10
-16.1559
 20
-97.586
 11
-16.1103
 21
-97.5603
  0
LINE
  8
0
 10
-16.1103
 20
-97.5603
 11
-15.5504
 21
-97.2238
  0
LINE
  8
0
 10
-15.5504
 20
-97.2238
 11
-15.4637
 21
-97.1653
  0
LINE
  8
0
 10
-15.4637
 20
-97.1653
 11
-15.0287
 21
-96.8375
  0
LINE
  8
0
 10
-15.0287
 20
-96.8375
 11
-14.9435
 21
-96.7767
  0
LINE
  8
0
 10
-14.9435
 20
-96.7767
 11
-14.0325
 21
-96.1623
  0
LINE
  8
0
 10
-14.0325
 20
-96.1623
 11
-13.8531
 21
-96.0545
  0
LINE
  8
0
 10
-13.8531
 20
-96.0545
 11
-12.9291
 21
-95.5632
  0
LINE
  8
0
 10
-12.9291
 20
-95.5632
 11
-12.7394
 21
-95.4748
  0
LINE
  8
0
 10
-12.7394
 20
-95.4748
 11
-11.7935
 21
-95.0926
  0
LINE
  8
0
 10
-11.7935
 20
-95.0926
 11
-11.5451
 21
-95.0107
  0
LINE
  8
0
 10
-11.5451
 20
-95.0107
 11
-9.92511
 21
-94.5917
  0
LINE
  8
0
 10
-9.92511
 20
-94.5917
 11
-9.77165
 21
-94.5584
  0
LINE
  8
0
 10
-9.77165
 20
-94.5584
 11
1.46831
 21
-92.5765
  0
LINE
  8
0
 10
1.46831
 20
-92.5765
 11
1.51955
 21
-92.5661
  0
LINE
  8
0
 10
1.51955
 20
-92.5661
 11
1.78239
 21
-92.5054
  0
LINE
  8
0
 10
1.78239
 20
-92.5054
 11
1.88499
 21
-92.4845
  0
LINE
  8
0
 10
1.88499
 20
-92.4845
 11
2.96745
 21
-92.2936
  0
LINE
  8
0
 10
2.96745
 20
-92.2936
 11
3.17525
 21
-92.2681
  0
LINE
  8
0
 10
3.17525
 20
-92.2681
 11
4.21918
 21
-92.1951
  0
LINE
  8
0
 10
4.21918
 20
-92.1951
 11
4.42845
 21
-92.1915
  0
LINE
  8
0
 10
4.42845
 20
-92.1915
 11
5.47499
 21
-92.228
  0
LINE
  8
0
 10
5.47499
 20
-92.228
 11
5.6315
 21
-92.2396
  0
LINE
  8
0
 10
5.6315
 20
-92.2396
 11
5.70583
 21
-92.2481
  0
LINE
  8
0
 10
5.70583
 20
-92.2481
 11
6.95837
 21
-92.3577
  0
LINE
  8
0
 10
6.95837
 20
-92.3577
 11
7.01044
 21
-92.3609
  0
LINE
  8
0
 10
7.01044
 20
-92.3609
 11
20.3217
 21
-92.8257
  0
LINE
  8
0
 10
20.3217
 20
-92.8257
 11
20.3741
 21
-92.8262
  0
LINE
  8
0
 10
20.3741
 20
-92.8262
 11
21.0269
 21
-92.8148
  0
LINE
  8
0
 10
21.0269
 20
-92.8148
 11
21.1313
 21
-92.8075
  0
LINE
  8
0
 10
21.1313
 20
-92.8075
 11
21.4413
 21
-92.7694
  0
LINE
  8
0
 10
21.4413
 20
-92.7694
 11
21.5441
 21
-92.7513
  0
LINE
  8
0
 10
21.5441
 20
-92.7513
 11
21.8484
 21
-92.681
  0
LINE
  8
0
 10
21.8484
 20
-92.681
 11
21.9488
 21
-92.6523
  0
LINE
  8
0
 10
21.9488
 20
-92.6523
 11
22.244
 21
-92.5506
  0
LINE
  8
0
 10
22.244
 20
-92.5506
 11
22.3413
 21
-92.5113
  0
LINE
  8
0
 10
22.3413
 20
-92.5113
 11
22.6241
 21
-92.3794
  0
LINE
  8
0
 10
22.6241
 20
-92.3794
 11
22.7164
 21
-92.3304
  0
LINE
  8
0
 10
22.7164
 20
-92.3304
 11
22.984
 21
-92.1696
  0
LINE
  8
0
 10
22.984
 20
-92.1696
 11
23.0709
 21
-92.1109
  0
LINE
  8
0
 10
23.0709
 20
-92.1109
 11
23.3203
 21
-91.923
  0
LINE
  8
0
 10
23.3203
 20
-91.923
 11
23.4003
 21
-91.8559
  0
LINE
  8
0
 10
23.4003
 20
-91.8559
 11
23.6286
 21
-91.643
  0
LINE
  8
0
 10
23.6286
 20
-91.643
 11
23.7014
 21
-91.5676
  0
LINE
  8
0
 10
23.7014
 20
-91.5676
 11
24.2878
 21
-90.893
  0
LINE
  8
0
 10
24.2878
 20
-90.893
 11
24.3214
 21
-90.8522
  0
LINE
  8
0
 10
24.3214
 20
-90.8522
 11
24.3625
 21
-90.7997
  0
LINE
  8
0
 10
24.3625
 20
-90.7997
 11
24.429
 21
-90.7189
  0
LINE
  8
0
 10
24.429
 20
-90.7189
 11
24.7407
 21
-90.3604
  0
LINE
  8
0
 10
24.7407
 20
-90.3604
 11
24.8049
 21
-90.2781
  0
LINE
  8
0
 10
24.8049
 20
-90.2781
 11
24.9841
 21
-90.0223
  0
LINE
  8
0
 10
24.9841
 20
-90.0223
 11
25.0396
 21
-89.9335
  0
LINE
  8
0
 10
25.0396
 20
-89.9335
 11
25.1908
 21
-89.6607
  0
LINE
  8
0
 10
25.1908
 20
-89.6607
 11
25.2367
 21
-89.5666
  0
LINE
  8
0
 10
25.2367
 20
-89.5666
 11
25.3587
 21
-89.2792
  0
LINE
  8
0
 10
25.3587
 20
-89.2792
 11
25.3945
 21
-89.1809
  0
LINE
  8
0
 10
25.3945
 20
-89.1809
 11
25.4858
 21
-88.8822
  0
LINE
  8
0
 10
25.4858
 20
-88.8822
 11
25.511
 21
-88.7809
  0
LINE
  8
0
 10
25.511
 20
-88.7809
 11
25.5706
 21
-88.4743
  0
LINE
  8
0
 10
25.5706
 20
-88.4743
 11
25.5852
 21
-88.3707
  0
LINE
  8
0
 10
25.5852
 20
-88.3707
 11
25.6421
 21
-87.7205
  0
LINE
  8
0
 10
25.6421
 20
-87.7205
 11
25.6453
 21
-87.6676
  0
LINE
  8
0
 10
25.6453
 20
-87.6676
 11
25.7437
 21
-84.8504
  0
LINE
  8
0
 10
25.7437
 20
-84.8504
 11
25.7441
 21
-84.798
  0
LINE
  8
0
 10
25.7441
 20
-84.798
 11
25.7327
 21
-84.1454
  0
LINE
  8
0
 10
25.7327
 20
-84.1454
 11
25.7254
 21
-84.041
  0
LINE
  8
0
 10
25.7254
 20
-84.041
 11
25.7127
 21
-83.9377
  0
LINE
  8
0
 10
25.7127
 20
-83.9377
 11
25.7027
 21
-83.8334
  0
LINE
  8
0
 10
25.7027
 20
-83.8334
 11
25.626
 21
-82.7369
  0
LINE
  8
0
 10
25.626
 20
-82.7369
 11
25.6224
 21
-82.5277
  0
LINE
  8
0
 10
25.6224
 20
-82.5277
 11
25.6589
 21
-81.4819
  0
LINE
  8
0
 10
25.6589
 20
-81.4819
 11
25.6771
 21
-81.2733
  0
LINE
  8
0
 10
25.6771
 20
-81.2733
 11
25.8301
 21
-80.1851
  0
LINE
  8
0
 10
25.8301
 20
-80.1851
 11
25.8474
 21
-80.0818
  0
LINE
  8
0
 10
25.8474
 20
-80.0818
 11
25.8672
 21
-79.9798
  0
LINE
  8
0
 10
25.8672
 20
-79.9798
 11
25.8818
 21
-79.876
  0
LINE
  8
0
 10
25.8818
 20
-79.876
 11
25.9387
 21
-79.2251
  0
LINE
  8
0
 10
25.9387
 20
-79.2251
 11
25.9419
 21
-79.1733
  0
LINE
  8
0
 10
25.9419
 20
-79.1733
 11
26.0403
 21
-76.3556
  0
LINE
  8
0
 10
26.0403
 20
-76.3556
 11
26.0408
 21
-76.3031
  0
LINE
  8
0
 10
26.0408
 20
-76.3031
 11
26.0185
 21
-75.0246
  0
LINE
  8
0
 10
26.0185
 20
-75.0246
 11
26.0194
 21
-74.92
  0
LINE
  8
0
 10
26.0194
 20
-74.92
 11
26.0577
 21
-73.8218
  0
LINE
  8
0
 10
26.0577
 20
-73.8218
 11
26.076
 21
-73.6132
  0
LINE
  8
0
 10
26.076
 20
-73.6132
 11
26.2216
 21
-72.577
  0
LINE
  8
0
 10
26.2216
 20
-72.577
 11
26.2616
 21
-72.3715
  0
LINE
  8
0
 10
26.2616
 20
-72.3715
 11
26.5147
 21
-71.3562
  0
LINE
  8
0
 10
26.5147
 20
-71.3562
 11
26.5759
 21
-71.156
  0
LINE
  8
0
 10
26.5759
 20
-71.156
 11
26.9339
 21
-70.1726
  0
LINE
  8
0
 10
26.9339
 20
-70.1726
 11
27.0157
 21
-69.9799
  0
LINE
  8
0
 10
27.0157
 20
-69.9799
 11
27.4744
 21
-69.0394
  0
LINE
  8
0
 10
27.4744
 20
-69.0394
 11
27.5759
 21
-68.8563
  0
LINE
  8
0
 10
27.5759
 20
-68.8563
 11
28.1396
 21
-67.9541
  0
LINE
  8
0
 10
28.1396
 20
-67.9541
 11
28.2385
 21
-67.8103
  0
LINE
  8
0
 10
28.2385
 20
-67.8103
 11
28.6689
 21
-67.2391
  0
LINE
  8
0
 10
28.6689
 20
-67.2391
 11
28.7119
 21
-67.1841
  0
LINE
  8
0
 10
28.7119
 20
-67.1841
 11
29.6061
 21
-66.0798
  0
LINE
  8
0
 10
29.6061
 20
-66.0798
 11
29.6386
 21
-66.0375
  0
LINE
  8
0
 10
29.6386
 20
-66.0375
 11
29.6773
 21
-65.9841
  0
LINE
  8
0
 10
29.6773
 20
-65.9841
 11
29.7412
 21
-65.9008
  0
LINE
  8
0
 10
29.7412
 20
-65.9008
 11
30.0399
 21
-65.5321
  0
LINE
  8
0
 10
30.0399
 20
-65.5321
 11
30.1012
 21
-65.4476
  0
LINE
  8
0
 10
30.1012
 20
-65.4476
 11
30.2253
 21
-65.2566
  0
LINE
  8
0
 10
30.2253
 20
-65.2566
 11
30.2846
 21
-65.1703
  0
LINE
  8
0
 10
30.2846
 20
-65.1703
 11
30.9305
 21
-64.2812
  0
LINE
  8
0
 10
30.9305
 20
-64.2812
 11
31.0623
 21
-64.1185
  0
LINE
  8
0
 10
31.0623
 20
-64.1185
 11
31.7625
 21
-63.3408
  0
LINE
  8
0
 10
31.7625
 20
-63.3408
 11
31.9105
 21
-63.1928
  0
LINE
  8
0
 10
31.9105
 20
-63.1928
 11
32.6881
 21
-62.4926
  0
LINE
  8
0
 10
32.6881
 20
-62.4926
 11
32.8508
 21
-62.3608
  0
LINE
  8
0
 10
32.8508
 20
-62.3608
 11
33.6974
 21
-61.7457
  0
LINE
  8
0
 10
33.6974
 20
-61.7457
 11
33.873
 21
-61.6317
  0
LINE
  8
0
 10
33.873
 20
-61.6317
 11
34.7791
 21
-61.1086
  0
LINE
  8
0
 10
34.7791
 20
-61.1086
 11
34.9656
 21
-61.0135
  0
LINE
  8
0
 10
34.9656
 20
-61.0135
 11
35.9217
 21
-60.5878
  0
LINE
  8
0
 10
35.9217
 20
-60.5878
 11
36.1171
 21
-60.5128
  0
LINE
  8
0
 10
36.1171
 20
-60.5128
 11
37.1122
 21
-60.1895
  0
LINE
  8
0
 10
37.1122
 20
-60.1895
 11
37.3145
 21
-60.1353
  0
LINE
  8
0
 10
37.3145
 20
-60.1353
 11
38.3381
 21
-59.9177
  0
LINE
  8
0
 10
38.3381
 20
-59.9177
 11
38.5449
 21
-59.8849
  0
LINE
  8
0
 10
38.5449
 20
-59.8849
 11
39.5856
 21
-59.7755
  0
LINE
  8
0
 10
39.5856
 20
-59.7755
 11
39.7947
 21
-59.7646
  0
LINE
  8
0
 10
39.7947
 20
-59.7646
 11
40.841
 21
-59.7646
  0
LINE
  8
0
 10
40.841
 20
-59.7646
 11
41.0501
 21
-59.7755
  0
LINE
  8
0
 10
41.0501
 20
-59.7755
 11
42.0908
 21
-59.8849
  0
LINE
  8
0
 10
42.0908
 20
-59.8849
 11
42.2976
 21
-59.9176
  0
LINE
  8
0
 10
42.2976
 20
-59.9176
 11
43.3211
 21
-60.1352
  0
LINE
  8
0
 10
43.3211
 20
-60.1352
 11
43.5233
 21
-60.1894
  0
LINE
  8
0
 10
43.5233
 20
-60.1894
 11
44.5186
 21
-60.5127
  0
LINE
  8
0
 10
44.5186
 20
-60.5127
 11
44.714
 21
-60.5877
  0
LINE
  8
0
 10
44.714
 20
-60.5877
 11
45.67
 21
-61.0134
  0
LINE
  8
0
 10
45.67
 20
-61.0134
 11
45.8566
 21
-61.1084
  0
LINE
  8
0
 10
45.8566
 20
-61.1084
 11
46.7627
 21
-61.6316
  0
LINE
  8
0
 10
46.7627
 20
-61.6316
 11
46.9382
 21
-61.7456
  0
LINE
  8
0
 10
46.9382
 20
-61.7456
 11
47.7206
 21
-62.314
  0
LINE
  8
0
 10
47.7206
 20
-62.314
 11
47.7644
 21
-62.3441
  0
LINE
  8
0
 10
47.7644
 20
-62.3441
 11
48.1143
 21
-62.5713
  0
LINE
  8
0
 10
48.1143
 20
-62.5713
 11
48.2049
 21
-62.6236
  0
LINE
  8
0
 10
48.2049
 20
-62.6236
 11
48.4831
 21
-62.7654
  0
LINE
  8
0
 10
48.4831
 20
-62.7654
 11
48.5786
 21
-62.8079
  0
LINE
  8
0
 10
48.5786
 20
-62.8079
 11
48.8701
 21
-62.9198
  0
LINE
  8
0
 10
48.8701
 20
-62.9198
 11
48.9697
 21
-62.9521
  0
LINE
  8
0
 10
48.9697
 20
-62.9521
 11
49.2712
 21
-63.0329
  0
LINE
  8
0
 10
49.2712
 20
-63.0329
 11
49.3735
 21
-63.0547
  0
LINE
  8
0
 10
49.3735
 20
-63.0547
 11
49.6819
 21
-63.1035
  0
LINE
  8
0
 10
49.6819
 20
-63.1035
 11
49.7859
 21
-63.1145
  0
LINE
  8
0
 10
49.7859
 20
-63.1145
 11
50.4377
 21
-63.1486
  0
LINE
  8
0
 10
50.4377
 20
-63.1486
 11
50.4904
 21
-63.15
  0
LINE
  8
0
 10
50.4904
 20
-63.15
 11
52.5665
 21
-63.15
  0
LINE
  8
0
 10
52.5665
 20
-63.15
 11
52.6711
 21
-63.1527
  0
LINE
  8
0
 10
52.6711
 20
-63.1527
 11
53.7684
 21
-63.2102
  0
LINE
  8
0
 10
53.7684
 20
-63.2102
 11
53.9766
 21
-63.2321
  0
LINE
  8
0
 10
53.9766
 20
-63.2321
 11
55.01
 21
-63.3958
  0
LINE
  8
0
 10
55.01
 20
-63.3958
 11
55.2148
 21
-63.4393
  0
LINE
  8
0
 10
55.2148
 20
-63.4393
 11
56.2258
 21
-63.7102
  0
LINE
  8
0
 10
56.2258
 20
-63.7102
 11
56.4249
 21
-63.7749
  0
LINE
  8
0
 10
56.4249
 20
-63.7749
 11
57.4017
 21
-64.1499
  0
LINE
  8
0
 10
57.4017
 20
-64.1499
 11
57.5929
 21
-64.235
  0
LINE
  8
0
 10
57.5929
 20
-64.235
 11
58.5253
 21
-64.7101
  0
LINE
  8
0
 10
58.5253
 20
-64.7101
 11
58.7066
 21
-64.8148
  0
LINE
  8
0
 10
58.7066
 20
-64.8148
 11
59.5842
 21
-65.3847
  0
LINE
  8
0
 10
59.5842
 20
-65.3847
 11
59.7536
 21
-65.5078
  0
LINE
  8
0
 10
59.7536
 20
-65.5078
 11
60.5668
 21
-66.1663
  0
LINE
  8
0
 10
60.5668
 20
-66.1663
 11
60.7224
 21
-66.3063
  0
LINE
  8
0
 10
60.7224
 20
-66.3063
 11
61.2061
 21
-66.7901
  0
LINE
  8
0
 10
61.2061
 20
-66.7901
 11
61.2782
 21
-66.8661
  0
LINE
  8
0
 10
61.2782
 20
-66.8661
 11
61.3144
 21
-66.9063
  0
LINE
  8
0
 10
61.3144
 20
-66.9063
 11
61.3501
 21
-66.9438
  0
LINE
  8
0
 10
61.3501
 20
-66.9438
 11
61.4058
 21
-66.9996
  0
LINE
  8
0
 10
61.4058
 20
-66.9996
 11
61.4526
 21
-67.044
  0
LINE
  8
0
 10
61.4526
 20
-67.044
 11
61.63
 21
-67.2359
  0
LINE
  8
0
 10
61.63
 20
-67.2359
 11
62.261
 21
-68.0151
  0
LINE
  8
0
 10
62.261
 20
-68.0151
 11
62.384
 21
-68.1845
  0
LINE
  8
0
 10
62.384
 20
-68.1845
 11
62.9539
 21
-69.0621
  0
LINE
  8
0
 10
62.9539
 20
-69.0621
 11
63.0586
 21
-69.2434
  0
LINE
  8
0
 10
63.0586
 20
-69.2434
 11
63.5337
 21
-70.1758
  0
LINE
  8
0
 10
63.5337
 20
-70.1758
 11
63.6188
 21
-70.367
  0
LINE
  8
0
 10
63.6188
 20
-70.367
 11
63.9938
 21
-71.3438
  0
LINE
  8
0
 10
63.9938
 20
-71.3438
 11
64.0585
 21
-71.5429
  0
LINE
  8
0
 10
64.0585
 20
-71.5429
 11
64.3294
 21
-72.5539
  0
LINE
  8
0
 10
64.3294
 20
-72.5539
 11
64.3729
 21
-72.7587
  0
LINE
  8
0
 10
64.3729
 20
-72.7587
 11
64.5366
 21
-73.7921
  0
LINE
  8
0
 10
64.5366
 20
-73.7921
 11
64.5585
 21
-74.0003
  0
LINE
  8
0
 10
64.5585
 20
-74.0003
 11
64.6132
 21
-75.0453
  0
LINE
  8
0
 10
64.6132
 20
-75.0453
 11
64.6132
 21
-75.2547
  0
LINE
  8
0
 10
64.6132
 20
-75.2547
 11
64.5571
 21
-76.3259
  0
LINE
  8
0
 10
64.5571
 20
-76.3259
 11
64.5427
 21
-76.4823
  0
LINE
  8
0
 10
64.5427
 20
-76.4823
 11
64.4744
 21
-77.0012
  0
LINE
  8
0
 10
64.4744
 20
-77.0012
 11
64.4669
 21
-77.0531
  0
LINE
  8
0
 10
64.4669
 20
-77.0531
 11
64.4465
 21
-77.1818
  0
LINE
  8
0
 10
64.4465
 20
-77.1818
 11
64.4355
 21
-77.286
  0
LINE
  8
0
 10
64.4355
 20
-77.286
 11
64.4014
 21
-77.9378
  0
LINE
  8
0
 10
64.4014
 20
-77.9378
 11
64.4
 21
-77.9904
  0
LINE
  8
0
 10
64.4
 20
-77.9904
 11
64.4
 21
-80.8096
  0
LINE
  8
0
 10
64.4
 20
-80.8096
 11
64.4014
 21
-80.8622
  0
LINE
  8
0
 10
64.4014
 20
-80.8622
 11
64.4355
 21
-81.5141
  0
LINE
  8
0
 10
64.4355
 20
-81.5141
 11
64.4465
 21
-81.6181
  0
LINE
  8
0
 10
64.4465
 20
-81.6181
 11
64.4953
 21
-81.9265
  0
LINE
  8
0
 10
64.4953
 20
-81.9265
 11
64.5171
 21
-82.0288
  0
LINE
  8
0
 10
64.5171
 20
-82.0288
 11
64.5978
 21
-82.3302
  0
LINE
  8
0
 10
64.5978
 20
-82.3302
 11
64.6302
 21
-82.4298
  0
LINE
  8
0
 10
64.6302
 20
-82.4298
 11
64.7421
 21
-82.7214
  0
LINE
  8
0
 10
64.7421
 20
-82.7214
 11
64.7846
 21
-82.8169
  0
LINE
  8
0
 10
64.7846
 20
-82.8169
 11
64.9264
 21
-83.0952
  0
LINE
  8
0
 10
64.9264
 20
-83.0952
 11
64.9786
 21
-83.1856
  0
LINE
  8
0
 10
64.9786
 20
-83.1856
 11
65.1486
 21
-83.4473
  0
LINE
  8
0
 10
65.1486
 20
-83.4473
 11
65.2103
 21
-83.5323
  0
LINE
  8
0
 10
65.2103
 20
-83.5323
 11
65.5088
 21
-83.9008
  0
LINE
  8
0
 10
65.5088
 20
-83.9008
 11
65.5726
 21
-83.984
  0
LINE
  8
0
 10
65.5726
 20
-83.984
 11
65.6121
 21
-84.0383
  0
LINE
  8
0
 10
65.6121
 20
-84.0383
 11
65.6437
 21
-84.0796
  0
LINE
  8
0
 10
65.6437
 20
-84.0796
 11
66.2066
 21
-84.7747
  0
LINE
  8
0
 10
66.2066
 20
-84.7747
 11
66.2768
 21
-84.8526
  0
LINE
  8
0
 10
66.2768
 20
-84.8526
 11
66.4974
 21
-85.0733
  0
LINE
  8
0
 10
66.4974
 20
-85.0733
 11
66.5751
 21
-85.1432
  0
LINE
  8
0
 10
66.5751
 20
-85.1432
 11
66.8178
 21
-85.3398
  0
LINE
  8
0
 10
66.8178
 20
-85.3398
 11
66.9024
 21
-85.4012
  0
LINE
  8
0
 10
66.9024
 20
-85.4012
 11
67.1642
 21
-85.5712
  0
LINE
  8
0
 10
67.1642
 20
-85.5712
 11
67.255
 21
-85.6236
  0
LINE
  8
0
 10
67.255
 20
-85.6236
 11
67.5331
 21
-85.7654
  0
LINE
  8
0
 10
67.5331
 20
-85.7654
 11
67.6286
 21
-85.8079
  0
LINE
  8
0
 10
67.6286
 20
-85.8079
 11
67.9202
 21
-85.9198
  0
LINE
  8
0
 10
67.9202
 20
-85.9198
 11
68.0197
 21
-85.9521
  0
LINE
  8
0
 10
68.0197
 20
-85.9521
 11
68.3212
 21
-86.0329
  0
LINE
  8
0
 10
68.3212
 20
-86.0329
 11
68.4235
 21
-86.0547
  0
LINE
  8
0
 10
68.4235
 20
-86.0547
 11
68.7319
 21
-86.1035
  0
LINE
  8
0
 10
68.7319
 20
-86.1035
 11
68.8359
 21
-86.1145
  0
LINE
  8
0
 10
68.8359
 20
-86.1145
 11
69.4877
 21
-86.1486
  0
LINE
  8
0
 10
69.4877
 20
-86.1486
 11
69.5404
 21
-86.15
  0
LINE
  8
0
 10
69.5404
 20
-86.15
 11
76.6013
 21
-86.15
  0
LINE
  8
0
 10
76.6013
 20
-86.15
 11
76.706
 21
-86.1527
  0
LINE
  8
0
 10
76.706
 20
-86.1527
 11
77.8032
 21
-86.2102
  0
LINE
  8
0
 10
77.8032
 20
-86.2102
 11
78.0114
 21
-86.2321
  0
LINE
  8
0
 10
78.0114
 20
-86.2321
 11
79.0449
 21
-86.3958
  0
LINE
  8
0
 10
79.0449
 20
-86.3958
 11
79.2497
 21
-86.4393
  0
LINE
  8
0
 10
79.2497
 20
-86.4393
 11
80.2607
 21
-86.7102
  0
LINE
  8
0
 10
80.2607
 20
-86.7102
 11
80.4597
 21
-86.7749
  0
LINE
  8
0
 10
80.4597
 20
-86.7749
 11
81.4366
 21
-87.1499
  0
LINE
  8
0
 10
81.4366
 20
-87.1499
 11
81.6278
 21
-87.235
  0
LINE
  8
0
 10
81.6278
 20
-87.235
 11
82.5602
 21
-87.7101
  0
LINE
  8
0
 10
82.5602
 20
-87.7101
 11
82.7415
 21
-87.8148
  0
LINE
  8
0
 10
82.7415
 20
-87.8148
 11
83.597
 21
-88.3704
  0
LINE
  8
0
 10
83.597
 20
-88.3704
 11
83.8066
 21
-88.5269
  0
LINE
  8
0
 10
83.8066
 20
-88.5269
 11
85.0791
 21
-89.6137
  0
LINE
  8
0
 10
85.0791
 20
-89.6137
 11
85.1945
 21
-89.7203
  0
LINE
  8
0
 10
85.1945
 20
-89.7203
 11
85.5474
 21
-90.0733
  0
LINE
  8
0
 10
85.5474
 20
-90.0733
 11
85.6251
 21
-90.1432
  0
LINE
  8
0
 10
85.6251
 20
-90.1432
 11
85.8678
 21
-90.3398
  0
LINE
  8
0
 10
85.8678
 20
-90.3398
 11
85.9524
 21
-90.4012
  0
LINE
  8
0
 10
85.9524
 20
-90.4012
 11
86.2142
 21
-90.5712
  0
LINE
  8
0
 10
86.2142
 20
-90.5712
 11
86.305
 21
-90.6236
  0
LINE
  8
0
 10
86.305
 20
-90.6236
 11
86.5831
 21
-90.7654
  0
LINE
  8
0
 10
86.5831
 20
-90.7654
 11
86.6786
 21
-90.8079
  0
LINE
  8
0
 10
86.6786
 20
-90.8079
 11
86.9702
 21
-90.9198
  0
LINE
  8
0
 10
86.9702
 20
-90.9198
 11
87.0697
 21
-90.9521
  0
LINE
  8
0
 10
87.0697
 20
-90.9521
 11
87.3712
 21
-91.0329
  0
LINE
  8
0
 10
87.3712
 20
-91.0329
 11
87.4735
 21
-91.0547
  0
LINE
  8
0
 10
87.4735
 20
-91.0547
 11
87.7819
 21
-91.1035
  0
LINE
  8
0
 10
87.7819
 20
-91.1035
 11
87.8859
 21
-91.1145
  0
LINE
  8
0
 10
87.8859
 20
-91.1145
 11
88.5378
 21
-91.1486
  0
LINE
  8
0
 10
88.5378
 20
-91.1486
 11
88.5904
 21
-91.15
  0
LINE
  8
0
 10
88.5904
 20
-91.15
 11
101.91
 21
-91.15
  0
LINE
  8
0
 10
101.91
 20
-91.15
 11
101.962
 21
-91.1486
  0
LINE
  8
0
 10
101.962
 20
-91.1486
 11
102.614
 21
-91.1145
  0
LINE
  8
0
 10
102.614
 20
-91.1145
 11
102.718
 21
-91.1035
  0
LINE
  8
0
 10
102.718
 20
-91.1035
 11
103.026
 21
-91.0547
  0
LINE
  8
0
 10
103.026
 20
-91.0547
 11
103.129
 21
-91.0329
  0
LINE
  8
0
 10
103.129
 20
-91.0329
 11
103.43
 21
-90.9521
  0
LINE
  8
0
 10
103.43
 20
-90.9521
 11
103.53
 21
-90.9198
  0
LINE
  8
0
 10
103.53
 20
-90.9198
 11
103.821
 21
-90.8079
  0
LINE
  8
0
 10
103.821
 20
-90.8079
 11
103.917
 21
-90.7654
  0
LINE
  8
0
 10
103.917
 20
-90.7654
 11
104.195
 21
-90.6236
  0
LINE
  8
0
 10
104.195
 20
-90.6236
 11
104.286
 21
-90.5712
  0
LINE
  8
0
 10
104.286
 20
-90.5712
 11
104.548
 21
-90.4012
  0
LINE
  8
0
 10
104.548
 20
-90.4012
 11
104.632
 21
-90.3398
  0
LINE
  8
0
 10
104.632
 20
-90.3398
 11
104.875
 21
-90.1432
  0
LINE
  8
0
 10
104.875
 20
-90.1432
 11
104.953
 21
-90.0733
  0
LINE
  8
0
 10
104.953
 20
-90.0733
 11
105.173
 21
-89.8526
  0
LINE
  8
0
 10
105.173
 20
-89.8526
 11
105.243
 21
-89.7747
  0
LINE
  8
0
 10
105.243
 20
-89.7747
 11
105.806
 21
-89.0795
  0
LINE
  8
0
 10
105.806
 20
-89.0795
 11
105.838
 21
-89.0378
  0
LINE
  8
0
 10
105.838
 20
-89.0378
 11
105.877
 21
-88.984
  0
LINE
  8
0
 10
105.877
 20
-88.984
 11
105.941
 21
-88.9007
  0
LINE
  8
0
 10
105.941
 20
-88.9007
 11
106.24
 21
-88.5321
  0
LINE
  8
0
 10
106.24
 20
-88.5321
 11
106.301
 21
-88.4477
  0
LINE
  8
0
 10
106.301
 20
-88.4477
 11
106.471
 21
-88.1855
  0
LINE
  8
0
 10
106.471
 20
-88.1855
 11
106.524
 21
-88.0952
  0
LINE
  8
0
 10
106.524
 20
-88.0952
 11
106.665
 21
-87.8169
  0
LINE
  8
0
 10
106.665
 20
-87.8169
 11
106.708
 21
-87.7214
  0
LINE
  8
0
 10
106.708
 20
-87.7214
 11
106.82
 21
-87.4298
  0
LINE
  8
0
 10
106.82
 20
-87.4298
 11
106.852
 21
-87.3302
  0
LINE
  8
0
 10
106.852
 20
-87.3302
 11
106.933
 21
-87.0288
  0
LINE
  8
0
 10
106.933
 20
-87.0288
 11
106.955
 21
-86.9265
  0
LINE
  8
0
 10
106.955
 20
-86.9265
 11
107.004
 21
-86.6181
  0
LINE
  8
0
 10
107.004
 20
-86.6181
 11
107.014
 21
-86.5141
  0
LINE
  8
0
 10
107.014
 20
-86.5141
 11
107.049
 21
-85.8622
  0
LINE
  8
0
 10
107.049
 20
-85.8622
 11
107.05
 21
-85.8096
  0
LINE
  8
0
 10
107.05
 20
-85.8096
 11
107.05
 21
-82.9904
  0
LINE
  8
0
 10
107.05
 20
-82.9904
 11
107.049
 21
-82.9378
  0
LINE
  8
0
 10
107.049
 20
-82.9378
 11
107.014
 21
-82.286
  0
LINE
  8
0
 10
107.014
 20
-82.286
 11
107.004
 21
-82.182
  0
LINE
  8
0
 10
107.004
 20
-82.182
 11
106.987
 21
-82.0791
  0
LINE
  8
0
 10
106.987
 20
-82.0791
 11
106.974
 21
-81.9753
  0
LINE
  8
0
 10
106.974
 20
-81.9753
 11
106.859
 21
-80.8823
  0
LINE
  8
0
 10
106.859
 20
-80.8823
 11
106.848
 21
-80.6732
  0
LINE
  8
0
 10
106.848
 20
-80.6732
 11
106.848
 21
-79.6268
  0
LINE
  8
0
 10
106.848
 20
-79.6268
 11
106.859
 21
-79.4178
  0
LINE
  8
0
 10
106.859
 20
-79.4178
 11
106.974
 21
-78.3247
  0
LINE
  8
0
 10
106.974
 20
-78.3247
 11
106.987
 21
-78.2209
  0
LINE
  8
0
 10
106.987
 20
-78.2209
 11
107.004
 21
-78.1181
  0
LINE
  8
0
 10
107.004
 20
-78.1181
 11
107.014
 21
-78.014
  0
LINE
  8
0
 10
107.014
 20
-78.014
 11
107.049
 21
-77.3622
  0
LINE
  8
0
 10
107.049
 20
-77.3622
 11
107.05
 21
-77.3096
  0
LINE
  8
0
 10
107.05
 20
-77.3096
 11
107.05
 21
-74.4904
  0
LINE
  8
0
 10
107.05
 20
-74.4904
 11
107.049
 21
-74.4378
  0
LINE
  8
0
 10
107.049
 20
-74.4378
 11
107.014
 21
-73.7859
  0
LINE
  8
0
 10
107.014
 20
-73.7859
 11
107.004
 21
-73.6819
  0
LINE
  8
0
 10
107.004
 20
-73.6819
 11
106.884
 21
-72.9297
  0
LINE
  8
0
 10
106.884
 20
-72.9297
 11
106.875
 21
-72.8777
  0
LINE
  8
0
 10
106.875
 20
-72.8777
 11
106.817
 21
-72.6046
  0
LINE
  8
0
 10
106.817
 20
-72.6046
 11
106.784
 21
-72.3979
  0
LINE
  8
0
 10
106.784
 20
-72.3979
 11
106.675
 21
-71.3572
  0
LINE
  8
0
 10
106.675
 20
-71.3572
 11
106.664
 21
-71.1481
  0
LINE
  8
0
 10
106.664
 20
-71.1481
 11
106.664
 21
-70.1017
  0
LINE
  8
0
 10
106.664
 20
-70.1017
 11
106.675
 21
-69.8926
  0
LINE
  8
0
 10
106.675
 20
-69.8926
 11
106.784
 21
-68.8518
  0
LINE
  8
0
 10
106.784
 20
-68.8518
 11
106.817
 21
-68.6451
  0
LINE
  8
0
 10
106.817
 20
-68.6451
 11
106.875
 21
-68.3718
  0
LINE
  8
0
 10
106.875
 20
-68.3718
 11
106.884
 21
-68.3204
  0
LINE
  8
0
 10
106.884
 20
-68.3204
 11
107.004
 21
-67.5681
  0
LINE
  8
0
 10
107.004
 20
-67.5681
 11
107.014
 21
-67.4641
  0
LINE
  8
0
 10
107.014
 20
-67.4641
 11
107.049
 21
-66.8122
  0
LINE
  8
0
 10
107.049
 20
-66.8122
 11
107.05
 21
-66.7596
  0
LINE
  8
0
 10
107.05
 20
-66.7596
 11
107.05
 21
-63.9404
  0
LINE
  8
0
 10
107.05
 20
-63.9404
 11
107.049
 21
-63.8878
  0
LINE
  8
0
 10
107.049
 20
-63.8878
 11
107.014
 21
-63.236
  0
LINE
  8
0
 10
107.014
 20
-63.236
 11
107.004
 21
-63.132
  0
LINE
  8
0
 10
107.004
 20
-63.132
 11
106.987
 21
-63.0291
  0
LINE
  8
0
 10
106.987
 20
-63.0291
 11
106.974
 21
-62.9253
  0
LINE
  8
0
 10
106.974
 20
-62.9253
 11
106.859
 21
-61.8323
  0
LINE
  8
0
 10
106.859
 20
-61.8323
 11
106.848
 21
-61.6232
  0
LINE
  8
0
 10
106.848
 20
-61.6232
 11
106.848
 21
-60.5768
  0
LINE
  8
0
 10
106.848
 20
-60.5768
 11
106.859
 21
-60.3678
  0
LINE
  8
0
 10
106.859
 20
-60.3678
 11
106.974
 21
-59.2747
  0
LINE
  8
0
 10
106.974
 20
-59.2747
 11
106.987
 21
-59.1709
  0
LINE
  8
0
 10
106.987
 20
-59.1709
 11
107.004
 21
-59.0681
  0
LINE
  8
0
 10
107.004
 20
-59.0681
 11
107.014
 21
-58.964
  0
LINE
  8
0
 10
107.014
 20
-58.964
 11
107.049
 21
-58.3122
  0
LINE
  8
0
 10
107.049
 20
-58.3122
 11
107.05
 21
-58.2596
  0
LINE
  8
0
 10
107.05
 20
-58.2596
 11
107.05
 21
-55.4404
  0
LINE
  8
0
 10
107.05
 20
-55.4404
 11
107.049
 21
-55.3878
  0
LINE
  8
0
 10
107.049
 20
-55.3878
 11
107.014
 21
-54.736
  0
LINE
  8
0
 10
107.014
 20
-54.736
 11
107.003
 21
-54.6318
  0
LINE
  8
0
 10
107.003
 20
-54.6318
 11
106.884
 21
-53.8791
  0
LINE
  8
0
 10
106.884
 20
-53.8791
 11
106.875
 21
-53.8277
  0
LINE
  8
0
 10
106.875
 20
-53.8277
 11
106.817
 21
-53.5543
  0
LINE
  8
0
 10
106.817
 20
-53.5543
 11
106.784
 21
-53.3475
  0
LINE
  8
0
 10
106.784
 20
-53.3475
 11
106.675
 21
-52.3069
  0
LINE
  8
0
 10
106.675
 20
-52.3069
 11
106.664
 21
-52.0979
  0
LINE
  8
0
 10
106.664
 20
-52.0979
 11
106.664
 21
-51.0515
  0
LINE
  8
0
 10
106.664
 20
-51.0515
 11
106.675
 21
-50.8424
  0
LINE
  8
0
 10
106.675
 20
-50.8424
 11
106.784
 21
-49.8016
  0
LINE
  8
0
 10
106.784
 20
-49.8016
 11
106.817
 21
-49.5948
  0
LINE
  8
0
 10
106.817
 20
-49.5948
 11
106.875
 21
-49.3217
  0
LINE
  8
0
 10
106.875
 20
-49.3217
 11
106.884
 21
-49.2704
  0
LINE
  8
0
 10
106.884
 20
-49.2704
 11
107.004
 21
-48.5181
  0
LINE
  8
0
 10
107.004
 20
-48.5181
 11
107.014
 21
-48.414
  0
LINE
  8
0
 10
107.014
 20
-48.414
 11
107.049
 21
-47.7622
  0
LINE
  8
0
 10
107.049
 20
-47.7622
 11
107.05
 21
-47.7096
  0
LINE
  8
0
 10
107.05
 20
-47.7096
 11
107.05
 21
-44.8904
  0
LINE
  8
0
 10
107.05
 20
-44.8904
 11
107.049
 21
-44.8378
  0
LINE
  8
0
 10
107.049
 20
-44.8378
 11
107.014
 21
-44.186
  0
LINE
  8
0
 10
107.014
 20
-44.186
 11
107.004
 21
-44.082
  0
LINE
  8
0
 10
107.004
 20
-44.082
 11
106.987
 21
-43.979
  0
LINE
  8
0
 10
106.987
 20
-43.979
 11
106.974
 21
-43.8753
  0
LINE
  8
0
 10
106.974
 20
-43.8753
 11
106.859
 21
-42.7823
  0
LINE
  8
0
 10
106.859
 20
-42.7823
 11
106.848
 21
-42.5732
  0
LINE
  8
0
 10
106.848
 20
-42.5732
 11
106.848
 21
-41.5268
  0
LINE
  8
0
 10
106.848
 20
-41.5268
 11
106.859
 21
-41.3178
  0
LINE
  8
0
 10
106.859
 20
-41.3178
 11
106.974
 21
-40.2247
  0
LINE
  8
0
 10
106.974
 20
-40.2247
 11
106.987
 21
-40.1209
  0
LINE
  8
0
 10
106.987
 20
-40.1209
 11
107.004
 21
-40.0181
  0
LINE
  8
0
 10
107.004
 20
-40.0181
 11
107.014
 21
-39.914
  0
LINE
  8
0
 10
107.014
 20
-39.914
 11
107.049
 21
-39.2622
  0
LINE
  8
0
 10
107.049
 20
-39.2622
 11
107.05
 21
-39.2096
  0
LINE
  8
0
 10
107.05
 20
-39.2096
 11
107.05
 21
-36.3904
  0
LINE
  8
0
 10
107.05
 20
-36.3904
 11
107.049
 21
-36.3378
  0
LINE
  8
0
 10
107.049
 20
-36.3378
 11
107.014
 21
-35.6859
  0
LINE
  8
0
 10
107.014
 20
-35.6859
 11
107.004
 21
-35.5818
  0
LINE
  8
0
 10
107.004
 20
-35.5818
 11
106.884
 21
-34.8297
  0
LINE
  8
0
 10
106.884
 20
-34.8297
 11
106.875
 21
-34.7776
  0
LINE
  8
0
 10
106.875
 20
-34.7776
 11
106.817
 21
-34.5046
  0
LINE
  8
0
 10
106.817
 20
-34.5046
 11
106.784
 21
-34.2979
  0
LINE
  8
0
 10
106.784
 20
-34.2979
 11
106.675
 21
-33.2572
  0
LINE
  8
0
 10
106.675
 20
-33.2572
 11
106.664
 21
-33.0481
  0
LINE
  8
0
 10
106.664
 20
-33.0481
 11
106.664
 21
-32.0017
  0
LINE
  8
0
 10
106.664
 20
-32.0017
 11
106.675
 21
-31.7926
  0
LINE
  8
0
 10
106.675
 20
-31.7926
 11
106.784
 21
-30.7519
  0
LINE
  8
0
 10
106.784
 20
-30.7519
 11
106.817
 21
-30.5451
  0
LINE
  8
0
 10
106.817
 20
-30.5451
 11
106.875
 21
-30.2719
  0
LINE
  8
0
 10
106.875
 20
-30.2719
 11
106.884
 21
-30.2203
  0
LINE
  8
0
 10
106.884
 20
-30.2203
 11
107.003
 21
-29.4682
  0
LINE
  8
0
 10
107.003
 20
-29.4682
 11
107.014
 21
-29.364
  0
LINE
  8
0
 10
107.014
 20
-29.364
 11
107.049
 21
-28.7122
  0
LINE
  8
0
 10
107.049
 20
-28.7122
 11
107.05
 21
-28.6596
  0
LINE
  8
0
 10
107.05
 20
-28.6596
 11
107.05
 21
-25.8404
  0
LINE
  8
0
 10
107.05
 20
-25.8404
 11
107.049
 21
-25.7878
  0
LINE
  8
0
 10
107.049
 20
-25.7878
 11
107.014
 21
-25.136
  0
LINE
  8
0
 10
107.014
 20
-25.136
 11
107.004
 21
-25.032
  0
LINE
  8
0
 10
107.004
 20
-25.032
 11
106.987
 21
-24.9291
  0
LINE
  8
0
 10
106.987
 20
-24.9291
 11
106.974
 21
-24.8253
  0
LINE
  8
0
 10
106.974
 20
-24.8253
 11
106.859
 21
-23.7323
  0
LINE
  8
0
 10
106.859
 20
-23.7323
 11
106.848
 21
-23.5232
  0
LINE
  8
0
 10
106.848
 20
-23.5232
 11
106.848
 21
-22.4768
  0
LINE
  8
0
 10
106.848
 20
-22.4768
 11
106.859
 21
-22.2678
  0
LINE
  8
0
 10
106.859
 20
-22.2678
 11
106.974
 21
-21.1747
  0
LINE
  8
0
 10
106.974
 20
-21.1747
 11
106.987
 21
-21.0709
  0
LINE
  8
0
 10
106.987
 20
-21.0709
 11
107.004
 21
-20.9681
  0
LINE
  8
0
 10
107.004
 20
-20.9681
 11
107.014
 21
-20.864
  0
LINE
  8
0
 10
107.014
 20
-20.864
 11
107.049
 21
-20.2122
  0
LINE
  8
0
 10
107.049
 20
-20.2122
 11
107.05
 21
-20.1596
  0
LINE
  8
0
 10
107.05
 20
-20.1596
 11
107.05
 21
-17.3404
  0
LINE
  8
0
 10
107.05
 20
-17.3404
 11
107.049
 21
-17.2878
  0
LINE
  8
0
 10
107.049
 20
-17.2878
 11
107.014
 21
-16.6359
  0
LINE
  8
0
 10
107.014
 20
-16.6359
 11
107.004
 21
-16.5319
  0
LINE
  8
0
 10
107.004
 20
-16.5319
 11
106.955
 21
-16.2235
  0
LINE
  8
0
 10
106.955
 20
-16.2235
 11
106.933
 21
-16.1212
  0
LINE
  8
0
 10
106.933
 20
-16.1212
 11
106.852
 21
-15.8197
  0
LINE
  8
0
 10
106.852
 20
-15.8197
 11
106.82
 21
-15.7202
  0
LINE
  8
0
 10
106.82
 20
-15.7202
 11
106.708
 21
-15.4286
  0
LINE
  8
0
 10
106.708
 20
-15.4286
 11
106.665
 21
-15.3331
  0
LINE
  8
0
 10
106.665
 20
-15.3331
 11
106.524
 21
-15.0548
  0
LINE
  8
0
 10
106.524
 20
-15.0548
 11
106.471
 21
-14.9645
  0
LINE
  8
0
 10
106.471
 20
-14.9645
 11
106.301
 21
-14.7023
  0
LINE
  8
0
 10
106.301
 20
-14.7023
 11
106.24
 21
-14.6179
  0
LINE
  8
0
 10
106.24
 20
-14.6179
 11
105.941
 21
-14.2493
  0
LINE
  8
0
 10
105.941
 20
-14.2493
 11
105.877
 21
-14.166
  0
LINE
  8
0
 10
105.877
 20
-14.166
 11
105.838
 21
-14.1122
  0
LINE
  8
0
 10
105.838
 20
-14.1122
 11
105.806
 21
-14.0705
  0
LINE
  8
0
 10
105.806
 20
-14.0705
 11
105.243
 21
-13.3753
  0
LINE
  8
0
 10
105.243
 20
-13.3753
 11
105.173
 21
-13.2973
  0
LINE
  8
0
 10
105.173
 20
-13.2973
 11
104.953
 21
-13.0767
  0
LINE
  8
0
 10
104.953
 20
-13.0767
 11
104.875
 21
-13.0068
  0
LINE
  8
0
 10
104.875
 20
-13.0068
 11
104.632
 21
-12.8102
  0
LINE
  8
0
 10
104.632
 20
-12.8102
 11
104.548
 21
-12.7487
  0
LINE
  8
0
 10
104.548
 20
-12.7487
 11
104.286
 21
-12.5788
  0
LINE
  8
0
 10
104.286
 20
-12.5788
 11
104.195
 21
-12.5264
  0
LINE
  8
0
 10
104.195
 20
-12.5264
 11
103.917
 21
-12.3846
  0
LINE
  8
0
 10
103.917
 20
-12.3846
 11
103.821
 21
-12.3421
  0
LINE
  8
0
 10
103.821
 20
-12.3421
 11
103.53
 21
-12.2302
  0
LINE
  8
0
 10
103.53
 20
-12.2302
 11
103.43
 21
-12.1978
  0
LINE
  8
0
 10
103.43
 20
-12.1978
 11
103.129
 21
-12.1171
  0
LINE
  8
0
 10
103.129
 20
-12.1171
 11
103.026
 21
-12.0953
  0
LINE
  8
0
 10
103.026
 20
-12.0953
 11
102.718
 21
-12.0465
  0
LINE
  8
0
 10
102.718
 20
-12.0465
 11
102.614
 21
-12.0355
  0
LINE
  8
0
 10
102.614
 20
-12.0355
 11
101.962
 21
-12.0014
  0
LINE
  8
0
 10
101.962
 20
-12.0014
 11
101.91
 21
-12
  0
LINE
  8
0
 10
101.91
 20
-12
 11
94.8486
 21
-12
  0
LINE
  8
0
 10
94.8486
 20
-12
 11
94.744
 21
-11.9973
  0
LINE
  8
0
 10
94.744
 20
-11.9973
 11
93.6467
 21
-11.9398
  0
LINE
  8
0
 10
93.6467
 20
-11.9398
 11
93.4385
 21
-11.9179
  0
LINE
  8
0
 10
93.4385
 20
-11.9179
 11
92.4051
 21
-11.7542
  0
LINE
  8
0
 10
92.4051
 20
-11.7542
 11
92.2003
 21
-11.7107
  0
LINE
  8
0
 10
92.2003
 20
-11.7107
 11
91.1893
 21
-11.4398
  0
LINE
  8
0
 10
91.1893
 20
-11.4398
 11
90.9902
 21
-11.3751
  0
LINE
  8
0
 10
90.9902
 20
-11.3751
 11
90.0134
 21
-11.0001
  0
LINE
  8
0
 10
90.0134
 20
-11.0001
 11
89.8222
 21
-10.915
  0
LINE
  8
0
 10
89.8222
 20
-10.915
 11
88.8898
 21
-10.4399
  0
LINE
  8
0
 10
88.8898
 20
-10.4399
 11
88.7085
 21
-10.3352
  0
LINE
  8
0
 10
88.7085
 20
-10.3352
 11
87.853
 21
-9.77963
  0
LINE
  8
0
 10
87.853
 20
-9.77963
 11
87.6433
 21
-9.62311
  0
LINE
  8
0
 10
87.6433
 20
-9.62311
 11
86.3708
 21
-8.53627
  0
LINE
  8
0
 10
86.3708
 20
-8.53627
 11
86.2555
 21
-8.42967
  0
LINE
  8
0
 10
86.2555
 20
-8.42967
 11
85.9025
 21
-8.07671
  0
LINE
  8
0
 10
85.9025
 20
-8.07671
 11
85.8249
 21
-8.00677
  0
LINE
  8
0
 10
85.8249
 20
-8.00677
 11
85.5821
 21
-7.81021
  0
LINE
  8
0
 10
85.5821
 20
-7.81021
 11
85.4975
 21
-7.74875
  0
LINE
  8
0
 10
85.4975
 20
-7.74875
 11
85.2358
 21
-7.57878
  0
LINE
  8
0
 10
85.2358
 20
-7.57878
 11
85.145
 21
-7.52635
  0
LINE
  8
0
 10
85.145
 20
-7.52635
 11
84.8669
 21
-7.38463
  0
LINE
  8
0
 10
84.8669
 20
-7.38463
 11
84.7713
 21
-7.3421
  0
LINE
  8
0
 10
84.7713
 20
-7.3421
 11
84.4798
 21
-7.23019
  0
LINE
  8
0
 10
84.4798
 20
-7.23019
 11
84.3802
 21
-7.19785
  0
LINE
  8
0
 10
84.3802
 20
-7.19785
 11
84.0788
 21
-7.11707
  0
LINE
  8
0
 10
84.0788
 20
-7.11707
 11
83.9765
 21
-7.09532
  0
LINE
  8
0
 10
83.9765
 20
-7.09532
 11
83.6681
 21
-7.04648
  0
LINE
  8
0
 10
83.6681
 20
-7.04648
 11
83.5641
 21
-7.03554
  0
LINE
  8
0
 10
83.5641
 20
-7.03554
 11
82.9122
 21
-7.00139
  0
LINE
  8
0
 10
82.9122
 20
-7.00139
 11
82.8596
 21
-7
  0
LINE
  8
0
 10
82.8596
 20
-7
 11
80.7835
 21
-7
  0
LINE
  8
0
 10
80.7835
 20
-7
 11
80.6788
 21
-6.99725
  0
LINE
  8
0
 10
80.6788
 20
-6.99725
 11
79.5816
 21
-6.93976
  0
LINE
  8
0
 10
79.5816
 20
-6.93976
 11
79.3734
 21
-6.91788
  0
LINE
  8
0
 10
79.3734
 20
-6.91788
 11
78.34
 21
-6.7542
  0
LINE
  8
0
 10
78.34
 20
-6.7542
 11
78.1352
 21
-6.71066
  0
LINE
  8
0
 10
78.1352
 20
-6.71066
 11
77.1242
 21
-6.43976
  0
LINE
  8
0
 10
77.1242
 20
-6.43976
 11
76.9251
 21
-6.37508
  0
LINE
  8
0
 10
76.9251
 20
-6.37508
 11
75.9483
 21
-6.00011
  0
LINE
  8
0
 10
75.9483
 20
-6.00011
 11
75.757
 21
-5.91496
  0
LINE
  8
0
 10
75.757
 20
-5.91496
 11
74.8247
 21
-5.4399
  0
LINE
  8
0
 10
74.8247
 20
-5.4399
 11
74.6434
 21
-5.33524
  0
LINE
  8
0
 10
74.6434
 20
-5.33524
 11
73.7657
 21
-4.7653
  0
LINE
  8
0
 10
73.7657
 20
-4.7653
 11
73.5964
 21
-4.64224
  0
LINE
  8
0
 10
73.5964
 20
-4.64224
 11
72.7832
 21
-3.98373
  0
LINE
  8
0
 10
72.7832
 20
-3.98373
 11
72.6276
 21
-3.84366
  0
LINE
  8
0
 10
72.6276
 20
-3.84366
 11
72.1439
 21
-3.35994
  0
LINE
  8
0
 10
72.1439
 20
-3.35994
 11
72.0719
 21
-3.28403
  0
LINE
  8
0
 10
72.0719
 20
-3.28403
 11
72.0354
 21
-3.24358
  0
LINE
  8
0
 10
72.0354
 20
-3.24358
 11
71.9996
 21
-3.20587
  0
LINE
  8
0
 10
71.9996
 20
-3.20587
 11
71.9439
 21
-3.15018
  0
LINE
  8
0
 10
71.9439
 20
-3.15018
 11
71.8976
 21
-3.10625
  0
LINE
  8
0
 10
71.8976
 20
-3.10625
 11
71.72
 21
-2.91405
  0
LINE
  8
0
 10
71.72
 20
-2.91405
 11
71.089
 21
-2.13489
  0
LINE
  8
0
 10
71.089
 20
-2.13489
 11
70.966
 21
-1.96552
  0
LINE
  8
0
 10
70.966
 20
-1.96552
 11
70.396
 21
-1.08789
  0
LINE
  8
0
 10
70.396
 20
-1.08789
 11
70.2914
 21
-0.906601
  0
LINE
  8
0
 10
70.2914
 20
-0.906601
 11
69.8163
 21
0.0257721
  0
LINE
  8
0
 10
69.8163
 20
0.0257721
 11
69.7312
 21
0.21701
  0
LINE
  8
0
 10
69.7312
 20
0.21701
 11
69.3562
 21
1.19376
  0
LINE
  8
0
 10
69.3562
 20
1.19376
 11
69.2915
 21
1.39282
  0
LINE
  8
0
 10
69.2915
 20
1.39282
 11
69.0206
 21
2.4039
  0
LINE
  8
0
 10
69.0206
 20
2.4039
 11
68.9771
 21
2.6087
  0
LINE
  8
0
 10
68.9771
 20
2.6087
 11
68.8134
 21
3.64214
  0
LINE
  8
0
 10
68.8134
 20
3.64214
 11
68.7915
 21
3.85034
  0
LINE
  8
0
 10
68.7915
 20
3.85034
 11
68.7367
 21
4.89534
  0
LINE
  8
0
 10
68.7367
 20
4.89534
 11
68.7367
 21
5.10468
  0
LINE
  8
0
 10
68.7367
 20
5.10468
 11
68.7929
 21
6.17587
  0
LINE
  8
0
 10
68.7929
 20
6.17587
 11
68.8073
 21
6.33228
  0
LINE
  8
0
 10
68.8073
 20
6.33228
 11
68.8756
 21
6.85124
  0
LINE
  8
0
 10
68.8756
 20
6.85124
 11
68.8831
 21
6.90312
  0
LINE
  8
0
 10
68.8831
 20
6.90312
 11
68.9035
 21
7.03185
  0
LINE
  8
0
 10
68.9035
 20
7.03185
 11
68.9144
 21
7.136
  0
LINE
  8
0
 10
68.9144
 20
7.136
 11
68.9486
 21
7.78777
  0
LINE
  8
0
 10
68.9486
 20
7.78777
 11
68.95
 21
7.84042
  0
LINE
  8
0
 10
68.95
 20
7.84042
 11
68.95
 21
10.6596
  0
LINE
  8
0
 10
68.95
 20
10.6596
 11
68.9486
 21
10.7122
  0
LINE
  8
0
 10
68.9486
 20
10.7122
 11
68.9144
 21
11.3641
  0
LINE
  8
0
 10
68.9144
 20
11.3641
 11
68.9035
 21
11.4681
  0
LINE
  8
0
 10
68.9035
 20
11.4681
 11
68.8547
 21
11.7765
  0
LINE
  8
0
 10
68.8547
 20
11.7765
 11
68.8329
 21
11.8788
  0
LINE
  8
0
 10
68.8329
 20
11.8788
 11
68.7521
 21
12.1803
  0
LINE
  8
0
 10
68.7521
 20
12.1803
 11
68.7198
 21
12.2798
  0
LINE
  8
0
 10
68.7198
 20
12.2798
 11
68.6079
 21
12.5714
  0
LINE
  8
0
 10
68.6079
 20
12.5714
 11
68.5654
 21
12.6669
  0
LINE
  8
0
 10
68.5654
 20
12.6669
 11
68.4235
 21
12.9452
  0
LINE
  8
0
 10
68.4235
 20
12.9452
 11
68.3714
 21
13.0355
  0
LINE
  8
0
 10
68.3714
 20
13.0355
 11
68.2011
 21
13.2977
  0
LINE
  8
0
 10
68.2011
 20
13.2977
 11
68.1398
 21
13.3821
  0
LINE
  8
0
 10
68.1398
 20
13.3821
 11
67.8413
 21
13.7507
  0
LINE
  8
0
 10
67.8413
 20
13.7507
 11
67.7774
 21
13.834
  0
LINE
  8
0
 10
67.7774
 20
13.834
 11
67.7383
 21
13.8878
  0
LINE
  8
0
 10
67.7383
 20
13.8878
 11
67.7063
 21
13.9295
  0
LINE
  8
0
 10
67.7063
 20
13.9295
 11
67.1433
 21
14.6247
  0
LINE
  8
0
 10
67.1433
 20
14.6247
 11
67.0732
 21
14.7027
  0
LINE
  8
0
 10
67.0732
 20
14.7027
 11
66.8525
 21
14.9233
  0
LINE
  8
0
 10
66.8525
 20
14.9233
 11
66.7749
 21
14.9932
  0
LINE
  8
0
 10
66.7749
 20
14.9932
 11
66.5321
 21
15.1898
  0
LINE
  8
0
 10
66.5321
 20
15.1898
 11
66.4475
 21
15.2513
  0
LINE
  8
0
 10
66.4475
 20
15.2513
 11
66.1858
 21
15.4212
  0
LINE
  8
0
 10
66.1858
 20
15.4212
 11
66.095
 21
15.4736
  0
LINE
  8
0
 10
66.095
 20
15.4736
 11
65.8169
 21
15.6154
  0
LINE
  8
0
 10
65.8169
 20
15.6154
 11
65.7213
 21
15.6579
  0
LINE
  8
0
 10
65.7213
 20
15.6579
 11
65.4298
 21
15.7698
  0
LINE
  8
0
 10
65.4298
 20
15.7698
 11
65.3302
 21
15.8022
  0
LINE
  8
0
 10
65.3302
 20
15.8022
 11
65.0288
 21
15.8829
  0
LINE
  8
0
 10
65.0288
 20
15.8829
 11
64.9265
 21
15.9047
  0
LINE
  8
0
 10
64.9265
 20
15.9047
 11
64.6181
 21
15.9535
  0
LINE
  8
0
 10
64.6181
 20
15.9535
 11
64.5141
 21
15.9645
  0
LINE
  8
0
 10
64.5141
 20
15.9645
 11
63.8622
 21
15.9986
  0
LINE
  8
0
 10
63.8622
 20
15.9986
 11
63.8096
 21
16
  0
LINE
  8
0
 10
63.8096
 20
16
 11
58.4143
 21
16
  0
LINE
  8
0
 10
58.4143
 20
16
 11
58.3097
 21
16.0027
  0
LINE
  8
0
 10
58.3097
 20
16.0027
 11
57.2124
 21
16.0602
  0
LINE
  8
0
 10
57.2124
 20
16.0602
 11
57.0042
 21
16.0821
  0
LINE
  8
0
 10
57.0042
 20
16.0821
 11
55.9708
 21
16.2458
  0
LINE
  8
0
 10
55.9708
 20
16.2458
 11
55.766
 21
16.2893
  0
LINE
  8
0
 10
55.766
 20
16.2893
 11
54.755
 21
16.5602
  0
LINE
  8
0
 10
54.755
 20
16.5602
 11
54.5559
 21
16.6249
  0
LINE
  8
0
 10
54.5559
 20
16.6249
 11
53.5791
 21
16.9999
  0
LINE
  8
0
 10
53.5791
 20
16.9999
 11
53.3878
 21
17.085
  0
LINE
  8
0
 10
53.3878
 20
17.085
 11
52.4555
 21
17.5601
  0
LINE
  8
0
 10
52.4555
 20
17.5601
 11
52.2742
 21
17.6648
  0
LINE
  8
0
 10
52.2742
 20
17.6648
 11
51.3966
 21
18.2347
  0
LINE
  8
0
 10
51.3966
 20
18.2347
 11
51.2272
 21
18.3577
  0
LINE
  8
0
 10
51.2272
 20
18.3577
 11
50.4344
 21
18.9997
  0
LINE
  8
0
 10
50.4344
 20
18.9997
 11
50.2423
 21
19.1773
  0
LINE
  8
0
 10
50.2423
 20
19.1773
 11
49.0905
 21
20.3911
  0
LINE
  8
0
 10
49.0905
 20
20.3911
 11
48.987
 21
20.5091
  0
LINE
  8
0
 10
48.987
 20
20.5091
 11
48.7913
 21
20.7508
  0
LINE
  8
0
 10
48.7913
 20
20.7508
 11
48.7275
 21
20.8339
  0
LINE
  8
0
 10
48.7275
 20
20.8339
 11
48.6883
 21
20.8878
  0
LINE
  8
0
 10
48.6883
 20
20.8878
 11
48.6563
 21
20.9295
  0
LINE
  8
0
 10
48.6563
 20
20.9295
 11
48.0932
 21
21.6249
  0
LINE
  8
0
 10
48.0932
 20
21.6249
 11
48.0233
 21
21.7026
  0
LINE
  8
0
 10
48.0233
 20
21.7026
 11
47.8025
 21
21.9233
  0
LINE
  8
0
 10
47.8025
 20
21.9233
 11
47.7249
 21
21.9932
  0
LINE
  8
0
 10
47.7249
 20
21.9932
 11
47.4821
 21
22.1898
  0
LINE
  8
0
 10
47.4821
 20
22.1898
 11
47.3975
 21
22.2513
  0
LINE
  8
0
 10
47.3975
 20
22.2513
 11
47.1358
 21
22.4212
  0
LINE
  8
0
 10
47.1358
 20
22.4212
 11
47.045
 21
22.4736
  0
LINE
  8
0
 10
47.045
 20
22.4736
 11
46.7669
 21
22.6154
  0
LINE
  8
0
 10
46.7669
 20
22.6154
 11
46.6713
 21
22.6579
  0
LINE
  8
0
 10
46.6713
 20
22.6579
 11
46.3798
 21
22.7698
  0
LINE
  8
0
 10
46.3798
 20
22.7698
 11
46.2802
 21
22.8022
  0
LINE
  8
0
 10
46.2802
 20
22.8022
 11
45.9788
 21
22.8829
  0
LINE
  8
0
 10
45.9788
 20
22.8829
 11
45.8764
 21
22.9047
  0
LINE
  8
0
 10
45.8764
 20
22.9047
 11
45.5681
 21
22.9535
  0
LINE
  8
0
 10
45.5681
 20
22.9535
 11
45.4641
 21
22.9645
  0
LINE
  8
0
 10
45.4641
 20
22.9645
 11
44.8122
 21
22.9986
  0
LINE
  8
0
 10
44.8122
 20
22.9986
 11
44.7596
 21
23
  0
LINE
  8
0
 10
44.7596
 20
23
 11
31.4404
 21
23
  0
LINE
  8
0
 10
31.4404
 20
23
 11
31.3877
 21
22.9986
  0
LINE
  8
0
 10
31.3877
 20
22.9986
 11
30.7359
 21
22.9645
  0
LINE
  8
0
 10
30.7359
 20
22.9645
 11
30.6319
 21
22.9535
  0
LINE
  8
0
 10
30.6319
 20
22.9535
 11
30.3235
 21
22.9047
  0
LINE
  8
0
 10
30.3235
 20
22.9047
 11
30.2212
 21
22.8829
  0
LINE
  8
0
 10
30.2212
 20
22.8829
 11
29.9197
 21
22.8022
  0
LINE
  8
0
 10
29.9197
 20
22.8022
 11
29.8201
 21
22.7698
  0
LINE
  8
0
 10
29.8201
 20
22.7698
 11
29.5286
 21
22.6579
  0
LINE
  8
0
 10
29.5286
 20
22.6579
 11
29.4331
 21
22.6154
  0
LINE
  8
0
 10
29.4331
 20
22.6154
 11
29.155
 21
22.4736
  0
LINE
  8
0
 10
29.155
 20
22.4736
 11
29.0642
 21
22.4212
  0
LINE
  8
0
 10
29.0642
 20
22.4212
 11
28.8024
 21
22.2513
  0
LINE
  8
0
 10
28.8024
 20
22.2513
 11
28.7178
 21
22.1898
  0
LINE
  8
0
 10
28.7178
 20
22.1898
 11
28.4751
 21
21.9932
  0
LINE
  8
0
 10
28.4751
 20
21.9932
 11
28.3974
 21
21.9233
  0
LINE
  8
0
 10
28.3974
 20
21.9233
 11
28.1768
 21
21.7027
  0
LINE
  8
0
 10
28.1768
 20
21.7027
 11
28.1066
 21
21.6247
  0
LINE
  8
0
 10
28.1066
 20
21.6247
 11
27.5437
 21
20.9296
  0
LINE
  8
0
 10
27.5437
 20
20.9296
 11
27.5121
 21
20.8883
  0
LINE
  8
0
 10
27.5121
 20
20.8883
 11
27.4726
 21
20.834
  0
LINE
  8
0
 10
27.4726
 20
20.834
 11
27.4088
 21
20.7508
  0
LINE
  8
0
 10
27.4088
 20
20.7508
 11
27.1103
 21
20.3823
  0
LINE
  8
0
 10
27.1103
 20
20.3823
 11
27.0486
 21
20.2973
  0
LINE
  8
0
 10
27.0486
 20
20.2973
 11
26.8786
 21
20.0356
  0
LINE
  8
0
 10
26.8786
 20
20.0356
 11
26.8264
 21
19.9452
  0
LINE
  8
0
 10
26.8264
 20
19.9452
 11
26.6847
 21
19.667
  0
LINE
  8
0
 10
26.6847
 20
19.667
 11
26.6421
 21
19.5713
  0
LINE
  8
0
 10
26.6421
 20
19.5713
 11
26.3262
 21
18.7485
  0
LINE
  8
0
 10
26.3262
 20
18.7485
 11
26.2862
 21
18.6518
  0
LINE
  8
0
 10
26.2862
 20
18.6518
 11
25.8392
 21
17.6478
  0
LINE
  8
0
 10
25.8392
 20
17.6478
 11
25.7441
 21
17.4613
  0
LINE
  8
0
 10
25.7441
 20
17.4613
 11
25.221
 21
16.5552
  0
LINE
  8
0
 10
25.221
 20
16.5552
 11
25.107
 21
16.3797
  0
LINE
  8
0
 10
25.107
 20
16.3797
 11
24.8729
 21
16.0575
  0
LINE
  8
0
 10
24.8729
 20
16.0575
 11
24.7412
 21
15.8948
  0
LINE
  8
0
 10
24.7412
 20
15.8948
 11
24.5932
 21
15.7467
  0
LINE
  8
0
 10
24.5932
 20
15.7467
 11
24.4305
 21
15.615
  0
LINE
  8
0
 10
24.4305
 20
15.615
 11
24.2549
 21
15.501
  0
LINE
  8
0
 10
24.2549
 20
15.501
 11
24.158
 21
15.45
  0
LINE
  8
0
 10
24.158
 20
15.45
 11
24.1586
 21
15.4489
  0
LINE
  8
0
 10
24.1586
 20
15.4489
 11
24.0652
 21
15.4014
  0
LINE
  8
0
 10
24.0652
 20
15.4014
 11
24.0193
 21
15.3764
  0
LINE
  8
0
 10
24.0193
 20
15.3764
 11
23.8835
 21
15.298
  0
LINE
  8
0
 10
23.8835
 20
15.298
 11
23.8389
 21
15.2707
  0
LINE
  8
0
 10
23.8389
 20
15.2707
 11
23.7733
 21
15.2281
  0
LINE
  8
0
 10
23.7733
 20
15.2281
 11
23.7296
 21
15.1981
  0
LINE
  8
0
 10
23.7296
 20
15.1981
 11
23.6025
 21
15.1057
  0
LINE
  8
0
 10
23.6025
 20
15.1057
 11
23.5613
 21
15.0741
  0
LINE
  8
0
 10
23.5613
 20
15.0741
 11
23.4998
 21
15.0243
  0
LINE
  8
0
 10
23.4998
 20
15.0243
 11
23.4606
 21
14.9908
  0
LINE
  8
0
 10
23.4606
 20
14.9908
 11
23.3439
 21
14.8857
  0
LINE
  8
0
 10
23.3439
 20
14.8857
 11
23.3061
 21
14.8498
  0
LINE
  8
0
 10
23.3061
 20
14.8498
 11
23.2503
 21
14.7941
  0
LINE
  8
0
 10
23.2503
 20
14.7941
 11
23.2146
 21
14.7564
  0
LINE
  8
0
 10
23.2146
 20
14.7564
 11
23.1093
 21
14.6395
  0
LINE
  8
0
 10
23.1093
 20
14.6395
 11
23.0753
 21
14.5997
  0
LINE
  8
0
 10
23.0753
 20
14.5997
 11
23.0257
 21
14.5385
  0
LINE
  8
0
 10
23.0257
 20
14.5385
 11
22.9941
 21
14.4972
  0
LINE
  8
0
 10
22.9941
 20
14.4972
 11
22.9019
 21
14.3703
  0
LINE
  8
0
 10
22.9019
 20
14.3703
 11
22.872
 21
14.3268
  0
LINE
  8
0
 10
22.872
 20
14.3268
 11
22.8296
 21
14.2616
  0
LINE
  8
0
 10
22.8296
 20
14.2616
 11
22.8019
 21
14.2163
  0
LINE
  8
0
 10
22.8019
 20
14.2163
 11
22.7237
 21
14.0809
  0
LINE
  8
0
 10
22.7237
 20
14.0809
 11
22.6985
 21
14.0345
  0
LINE
  8
0
 10
22.6985
 20
14.0345
 11
22.6511
 21
13.9414
  0
LINE
  8
0
 10
22.6511
 20
13.9414
 11
22.6494
 21
13.9423
  0
LINE
  8
0
 10
22.6494
 20
13.9423
 11
22.5723
 21
13.8006
  0
LINE
  8
0
 10
22.5723
 20
13.8006
 11
22.4536
 21
13.6282
  0
LINE
  8
0
 10
22.4536
 20
13.6282
 11
22.3175
 21
13.4691
  0
LINE
  8
0
 10
22.3175
 20
13.4691
 11
22.1655
 21
13.3251
  0
LINE
  8
0
 10
22.1655
 20
13.3251
 11
22.0435
 21
13.229
  0
LINE
  8
0
 10
22.0435
 20
13.229
 11
21.7249
 21
12.9975
  0
LINE
  8
0
 10
21.7249
 20
12.9975
 11
21.5494
 21
12.8835
  0
LINE
  8
0
 10
21.5494
 20
12.8835
 11
20.6432
 21
12.3604
  0
LINE
  8
0
 10
20.6432
 20
12.3604
 11
20.4567
 21
12.2653
  0
LINE
  8
0
 10
20.4567
 20
12.2653
 11
19.5006
 21
11.8397
  0
LINE
  8
0
 10
19.5006
 20
11.8397
 11
19.3052
 21
11.7647
  0
LINE
  8
0
 10
19.3052
 20
11.7647
 11
18.31
 21
11.4413
  0
LINE
  8
0
 10
18.31
 20
11.4413
 11
18.1078
 21
11.3871
  0
LINE
  8
0
 10
18.1078
 20
11.3871
 11
17.0842
 21
11.1695
  0
LINE
  8
0
 10
17.0842
 20
11.1695
 11
16.8774
 21
11.1368
  0
LINE
  8
0
 10
16.8774
 20
11.1368
 11
15.8107
 21
11.0247
  0
LINE
  8
0
 10
15.8107
 20
11.0247
 11
15.654
 21
11.0144
  0
LINE
  8
0
 10
15.654
 20
11.0144
 11
15.1307
 21
11.0007
  0
LINE
  8
0
 10
15.1307
 20
11.0007
 11
15.0783
 21
11
  0
LINE
  8
0
 10
15.0783
 20
11
 11
12.3904
 21
11
  0
LINE
  8
0
 10
12.3904
 20
11
 11
12.3378
 21
10.9986
  0
LINE
  8
0
 10
12.3378
 20
10.9986
 11
11.6859
 21
10.9645
  0
LINE
  8
0
 10
11.6859
 20
10.9645
 11
11.5819
 21
10.9535
  0
LINE
  8
0
 10
11.5819
 20
10.9535
 11
11.2735
 21
10.9047
  0
LINE
  8
0
 10
11.2735
 20
10.9047
 11
11.1712
 21
10.8829
  0
LINE
  8
0
 10
11.1712
 20
10.8829
 11
10.8697
 21
10.8022
  0
LINE
  8
0
 10
10.8697
 20
10.8022
 11
10.7702
 21
10.7698
  0
LINE
  8
0
 10
10.7702
 20
10.7698
 11
10.4786
 21
10.6579
  0
LINE
  8
0
 10
10.4786
 20
10.6579
 11
10.3831
 21
10.6154
  0
LINE
  8
0
 10
10.3831
 20
10.6154
 11
10.105
 21
10.4736
  0
LINE
  8
0
 10
10.105
 20
10.4736
 11
10.0142
 21
10.4212
  0
LINE
  8
0
 10
10.0142
 20
10.4212
 11
9.75243
 21
10.2513
  0
LINE
  8
0
 10
9.75243
 20
10.2513
 11
9.66783
 21
10.1898
  0
LINE
  8
0
 10
9.66783
 20
10.1898
 11
9.42508
 21
9.99323
  0
LINE
  8
0
 10
9.42508
 20
9.99323
 11
9.34743
 21
9.92329
  0
LINE
  8
0
 10
9.34743
 20
9.92329
 11
8.97588
 21
9.55174
  0
LINE
  8
0
 10
8.97588
 20
9.55174
 11
8.89993
 21
9.47968
  0
LINE
  8
0
 10
8.89993
 20
9.47968
 11
8.08327
 21
8.74434
  0
LINE
  8
0
 10
8.08327
 20
8.74434
 11
7.92056
 21
8.61258
  0
LINE
  8
0
 10
7.92056
 20
8.61258
 11
7.07404
 21
7.99754
  0
LINE
  8
0
 10
7.07404
 20
7.99754
 11
6.89848
 21
7.88354
  0
LINE
  8
0
 10
6.89848
 20
7.88354
 11
5.99232
 21
7.36037
  0
LINE
  8
0
 10
5.99232
 20
7.36037
 11
5.8058
 21
7.26532
  0
LINE
  8
0
 10
5.8058
 20
7.26532
 11
4.84978
 21
6.83966
  0
LINE
  8
0
 10
4.84978
 20
6.83966
 11
4.6543
 21
6.76463
  0
LINE
  8
0
 10
4.6543
 20
6.76463
 11
3.65913
 21
6.4413
  0
LINE
  8
0
 10
3.65913
 20
6.4413
 11
3.45695
 21
6.38712
  0
LINE
  8
0
 10
3.45695
 20
6.38712
 11
2.45898
 21
6.17499
  0
LINE
  8
0
 10
2.45898
 20
6.17499
 11
2.20007
 21
6.13745
  0
LINE
  8
0
 10
2.20007
 20
6.13745
 11
0.531921
 21
6.00616
  0
LINE
  8
0
 10
0.531921
 20
6.00616
 11
0.375
 21
6
  0
LINE
  8
0
 10
0.375
 20
6
 11
-6.65958
 21
6
  0
LINE
  8
0
 10
-6.65958
 20
6
 11
-6.71223
 21
5.99861
  0
LINE
  8
0
 10
-6.71223
 20
5.99861
 11
-7.36409
 21
5.96446
  0
LINE
  8
0
 10
-7.36409
 20
5.96446
 11
-7.46808
 21
5.95352
  0
LINE
  8
0
 10
-7.46808
 20
5.95352
 11
-7.77647
 21
5.90468
  0
LINE
  8
0
 10
-7.77647
 20
5.90468
 11
-7.8788
 21
5.88293
  0
LINE
  8
0
 10
-7.8788
 20
5.88293
 11
-8.18025
 21
5.80215
  0
LINE
  8
0
 10
-8.18025
 20
5.80215
 11
-8.27983
 21
5.76981
  0
LINE
  8
0
 10
-8.27983
 20
5.76981
 11
-8.57137
 21
5.6579
  0
LINE
  8
0
 10
-8.57137
 20
5.6579
 11
-8.66689
 21
5.61537
  0
LINE
  8
0
 10
-8.66689
 20
5.61537
 11
-8.94502
 21
5.47365
  0
LINE
  8
0
 10
-8.94502
 20
5.47365
 11
-9.03581
 21
5.42122
  0
LINE
  8
0
 10
-9.03581
 20
5.42122
 11
-9.29756
 21
5.25125
  0
LINE
  8
0
 10
-9.29756
 20
5.25125
 11
-9.38216
 21
5.18979
  0
LINE
  8
0
 10
-9.38216
 20
5.18979
 11
-9.62491
 21
4.99323
  0
LINE
  8
0
 10
-9.62491
 20
4.99323
 11
-9.70256
 21
4.92329
  0
LINE
  8
0
 10
-9.70256
 20
4.92329
 11
-9.92322
 21
4.70264
  0
LINE
  8
0
 10
-9.92322
 20
4.70264
 11
-9.99344
 21
4.62465
  0
LINE
  8
0
 10
-9.99344
 20
4.62465
 11
-10.1033
 21
4.48892
  0
LINE
  8
0
 10
-10.1033
 20
4.48892
 11
-10.1713
 21
4.40935
  0
LINE
  8
0
 10
-10.1713
 20
4.40935
 11
-10.9067
 21
3.59262
  0
LINE
  8
0
 10
-10.9067
 20
3.59262
 11
-11.0547
 21
3.44456
  0
LINE
  8
0
 10
-11.0547
 20
3.44456
 11
-11.8324
 21
2.74431
  0
LINE
  8
0
 10
-11.8324
 20
2.74431
 11
-11.9951
 21
2.61258
  0
LINE
  8
0
 10
-11.9951
 20
2.61258
 11
-12.8416
 21
1.99757
  0
LINE
  8
0
 10
-12.8416
 20
1.99757
 11
-13.0172
 21
1.88354
  0
LINE
  8
0
 10
-13.0172
 20
1.88354
 11
-13.9234
 21
1.36035
  0
LINE
  8
0
 10
-13.9234
 20
1.36035
 11
-14.1099
 21
1.26532
  0
LINE
  8
0
 10
-14.1099
 20
1.26532
 11
-15.0659
 21
0.839645
  0
LINE
  8
0
 10
-15.0659
 20
0.839645
 11
-15.2614
 21
0.764603
  0
LINE
  8
0
 10
-15.2614
 20
0.764603
 11
-16.2566
 21
0.441284
  0
LINE
  8
0
 10
-16.2566
 20
0.441284
 11
-16.4587
 21
0.387115
  0
LINE
  8
0
 10
-16.4587
 20
0.387115
 11
-17.4567
 21
0.174988
  0
LINE
  8
0
 10
-17.4567
 20
0.174988
 11
-17.7156
 21
0.137451
  0
LINE
  8
0
 10
-17.7156
 20
0.137451
 11
-19.3838
 21
0.00616455
  0
LINE
  8
0
 10
-19.3838
 20
0.00616455
 11
-19.5407
 21
0
  0
LINE
  8
0
 10
-19.5407
 20
0
 11
-32.4677
 21
0
  0
LINE
  8
0
 10
-32.4677
 20
0
 11
-32.4947
 21
-0.000350952
  0
LINE
  8
0
 10
-32.4947
 20
-0.000350952
 11
-32.9909
 21
-0.0133362
  0
LINE
  8
0
 10
-32.9909
 20
-0.0133362
 11
-33.0176
 21
-0.014389
  0
LINE
  8
0
 10
-33.0176
 20
-0.014389
 11
-33.1416
 21
-0.0208893
  0
LINE
  8
0
 10
-33.1416
 20
-0.0208893
 11
-33.1941
 21
-0.0229492
  0
LINE
  8
0
 10
-33.1941
 20
-0.0229492
 11
-33.7696
 21
-0.0380096
  0
LINE
  8
0
 10
-33.7696
 20
-0.0380096
 11
-33.8219
 21
-0.0386963
  0
LINE
  8
0
 10
-33.8219
 20
-0.0386963
 11
-33.9784
 21
-0.0386963
  0
LINE
  8
0
 10
-33.9784
 20
-0.0386963
 11
-34.0308
 21
-0.0380096
  0
LINE
  8
0
 10
-34.0308
 20
-0.0380096
 11
-34.606
 21
-0.0229492
  0
LINE
  8
0
 10
-34.606
 20
-0.0229492
 11
-34.6581
 21
-0.0209045
  0
LINE
  8
0
 10
-34.6581
 20
-0.0209045
 11
-34.7827
 21
-0.014389
  0
LINE
  8
0
 10
-34.7827
 20
-0.014389
 11
-34.8095
 21
-0.0133362
  0
LINE
  8
0
 10
-34.8095
 20
-0.0133362
 11
-35.3052
 21
-0.000350952
  0
LINE
  8
0
 10
-35.3052
 20
-0.000350952
 11
-35.332
 21
0
  0
LINE
  8
0
 10
-35.332
 20
0
 11
-44.6678
 21
0
  0
LINE
  8
0
 10
-44.6678
 20
0
 11
-44.6947
 21
-0.000350952
  0
LINE
  8
0
 10
-44.6947
 20
-0.000350952
 11
-45.0169
 21
-0.00878906
  0
LINE
  8
0
 10
-45.0169
 20
-0.00878906
 11
-45.0955
 21
-0.0139465
  0
LINE
  8
0
 10
-45.0955
 20
-0.0139465
 11
-45.6582
 21
-0.0731049
  0
LINE
  8
0
 10
-45.6582
 20
-0.0731049
 11
-45.7611
 21
-0.0894012
  0
LINE
  8
0
 10
-45.7611
 20
-0.0894012
 11
-46.0669
 21
-0.154404
  0
LINE
  8
0
 10
-46.0669
 20
-0.154404
 11
-46.1679
 21
-0.181473
  0
LINE
  8
0
 10
-46.1679
 20
-0.181473
 11
-46.4649
 21
-0.278
  0
LINE
  8
0
 10
-46.4649
 20
-0.278
 11
-46.5625
 21
-0.315475
  0
LINE
  8
0
 10
-46.5625
 20
-0.315475
 11
-46.8475
 21
-0.442352
  0
LINE
  8
0
 10
-46.8475
 20
-0.442352
 11
-46.9409
 21
-0.489929
  0
LINE
  8
0
 10
-46.9409
 20
-0.489929
 11
-47.2113
 21
-0.646072
  0
LINE
  8
0
 10
-47.2113
 20
-0.646072
 11
-47.299
 21
-0.703018
  0
LINE
  8
0
 10
-47.299
 20
-0.703018
 11
-47.5516
 21
-0.886536
  0
LINE
  8
0
 10
-47.5516
 20
-0.886536
 11
-47.6329
 21
-0.952362
  0
LINE
  8
0
 10
-47.6329
 20
-0.952362
 11
-47.8649
 21
-1.16125
  0
LINE
  8
0
 10
-47.8649
 20
-1.16125
 11
-47.9388
 21
-1.2352
  0
LINE
  8
0
 10
-47.9388
 20
-1.2352
 11
-48.1478
 21
-1.46738
  0
LINE
  8
0
 10
-48.1478
 20
-1.46738
 11
-48.2135
 21
-1.54851
  0
LINE
  8
0
 10
-48.2135
 20
-1.54851
 11
-48.3971
 21
-1.80116
  0
LINE
  8
0
 10
-48.3971
 20
-1.80116
 11
-48.454
 21
-1.88885
  0
LINE
  8
0
 10
-48.454
 20
-1.88885
 11
-48.6101
 21
-2.15923
  0
LINE
  8
0
 10
-48.6101
 20
-2.15923
 11
-48.6577
 21
-2.25262
  0
LINE
  8
0
 10
-48.6577
 20
-2.25262
 11
-48.7846
 21
-2.53766
  0
LINE
  8
0
 10
-48.7846
 20
-2.53766
 11
-48.8222
 21
-2.6355
  0
LINE
  8
0
 10
-48.8222
 20
-2.6355
 11
-48.9186
 21
-2.93228
  0
LINE
  8
0
 10
-48.9186
 20
-2.93228
 11
-48.9456
 21
-3.03317
  0
LINE
  8
0
 10
-48.9456
 20
-3.03317
 11
-49.0106
 21
-3.33905
  0
LINE
  8
0
 10
-49.0106
 20
-3.33905
 11
-49.0269
 21
-3.44203
  0
LINE
  8
0
 10
-49.0269
 20
-3.44203
 11
-49.0656
 21
-3.80952
  0
LINE
  8
0
 10
-49.0656
 20
-3.80952
 11
-49.0792
 21
-3.9133
  0
LINE
  8
0
 10
-49.0792
 20
-3.9133
 11
-49.0908
 21
-3.98642
  0
LINE
  8
0
 10
-49.0908
 20
-3.98642
 11
-49.0976
 21
-4.03854
  0
LINE
  8
0
 10
-49.0976
 20
-4.03854
 11
-49.114
 21
-4.19377
  0
LINE
  8
0
 10
-49.114
 20
-4.19377
 11
-49.1237
 21
-4.27162
  0
LINE
  8
0
 10
-49.1237
 20
-4.27162
 11
-49.2285
 21
-4.99472
  0
LINE
  8
0
 10
-49.2285
 20
-4.99472
 11
-49.2318
 21
-5.02417
  0
LINE
  8
0
 10
-49.2318
 20
-5.02417
 11
-49.2407
 21
-5.0916
  0
LINE
  8
0
 10
-49.2407
 20
-5.0916
 11
-49.3359
 21
-5.99693
  0
LINE
  8
0
 10
-49.3359
 20
-5.99693
 11
-49.341
 21
-6.07507
  0
LINE
  8
0
 10
-49.341
 20
-6.07507
 11
-49.3496
 21
-6.40552
  0
LINE
  8
0
 10
-49.3496
 20
-6.40552
 11
-49.35
 21
-6.43227
  0
LINE
  8
0
 10
-49.35
 20
-6.43227
 11
-49.35
 21
-13.6674
  0
ENDSEC
  0
SECTION
  2
OBJECTS
  0
DICTIONARY
  0
ENDSEC
  0
EOF
