  0
SECTION
  2
BLOCKS
  0
ENDSEC
  0
SECTION
  2
ENTITIES
  0
LINE
  8
0
 10
-49.35
 20
-13.6674
 11
-49.3496
 21
-13.6944
  0
LINE
  8
0
 10
-49.3496
 20
-13.6944
 11
-49.341
 21
-14.0234
  0
LINE
  8
0
 10
-49.341
 20
-14.0234
 11
-49.3359
 21
-14.1021
  0
LINE
  8
0
 10
-49.3359
 20
-14.1021
 11
-49.2764
 21
-14.6679
  0
LINE
  8
0
 10
-49.2764
 20
-14.6679
 11
-49.26
 21
-14.7716
  0
LINE
  8
0
 10
-49.26
 20
-14.7716
 11
-49.1952
 21
-15.0766
  0
LINE
  8
0
 10
-49.1952
 20
-15.0766
 11
-49.1681
 21
-15.1778
  0
LINE
  8
0
 10
-49.1681
 20
-15.1778
 11
-49.0035
 21
-15.6844
  0
LINE
  8
0
 10
-49.0035
 20
-15.6844
 11
-48.9737
 21
-15.7848
  0
LINE
  8
0
 10
-48.9737
 20
-15.7848
 11
-48.6893
 21
-16.8461
  0
LINE
  8
0
 10
-48.6893
 20
-16.8461
 11
-48.6458
 21
-17.0509
  0
LINE
  8
0
 10
-48.6458
 20
-17.0509
 11
-48.4821
 21
-18.0846
  0
LINE
  8
0
 10
-48.4821
 20
-18.0846
 11
-48.4602
 21
-18.2928
  0
LINE
  8
0
 10
-48.4602
 20
-18.2928
 11
-48.4027
 21
-19.3899
  0
LINE
  8
0
 10
-48.4027
 20
-19.3899
 11
-48.4
 21
-19.4946
  0
LINE
  8
0
 10
-48.4
 20
-19.4946
 11
-48.4
 21
-25.4678
  0
LINE
  8
0
 10
-48.4
 20
-25.4678
 11
-48.3996
 21
-25.4947
  0
LINE
  8
0
 10
-48.3996
 20
-25.4947
 11
-48.3912
 21
-25.8169
  0
LINE
  8
0
 10
-48.3912
 20
-25.8169
 11
-48.386
 21
-25.8955
  0
LINE
  8
0
 10
-48.386
 20
-25.8955
 11
-48.3269
 21
-26.4582
  0
LINE
  8
0
 10
-48.3269
 20
-26.4582
 11
-48.3106
 21
-26.5611
  0
LINE
  8
0
 10
-48.3106
 20
-26.5611
 11
-48.2456
 21
-26.8669
  0
LINE
  8
0
 10
-48.2456
 20
-26.8669
 11
-48.2185
 21
-26.9679
  0
LINE
  8
0
 10
-48.2185
 20
-26.9679
 11
-48.122
 21
-27.2649
  0
LINE
  8
0
 10
-48.122
 20
-27.2649
 11
-48.0845
 21
-27.3625
  0
LINE
  8
0
 10
-48.0845
 20
-27.3625
 11
-47.9576
 21
-27.6475
  0
LINE
  8
0
 10
-47.9576
 20
-27.6475
 11
-47.91
 21
-27.7409
  0
LINE
  8
0
 10
-47.91
 20
-27.7409
 11
-47.7539
 21
-28.0113
  0
LINE
  8
0
 10
-47.7539
 20
-28.0113
 11
-47.697
 21
-28.099
  0
LINE
  8
0
 10
-47.697
 20
-28.099
 11
-47.5965
 21
-28.2373
  0
LINE
  8
0
 10
-47.5965
 20
-28.2373
 11
-47.4824
 21
-28.4129
  0
LINE
  8
0
 10
-47.4824
 20
-28.4129
 11
-47.3874
 21
-28.5994
  0
LINE
  8
0
 10
-47.3874
 20
-28.5994
 11
-47.3123
 21
-28.7948
  0
LINE
  8
0
 10
-47.3123
 20
-28.7948
 11
-47.2582
 21
-28.9971
  0
LINE
  8
0
 10
-47.2582
 20
-28.9971
 11
-47.2254
 21
-29.2038
  0
LINE
  8
0
 10
-47.2254
 20
-29.2038
 11
-47.2144
 21
-29.4129
  0
LINE
  8
0
 10
-47.2144
 20
-29.4129
 11
-47.2254
 21
-29.622
  0
LINE
  8
0
 10
-47.2254
 20
-29.622
 11
-47.2377
 21
-29.7388
  0
LINE
  8
0
 10
-47.2377
 20
-29.7388
 11
-47.2418
 21
-29.7907
  0
LINE
  8
0
 10
-47.2418
 20
-29.7907
 11
-47.2459
 21
-29.869
  0
LINE
  8
0
 10
-47.2459
 20
-29.869
 11
-47.2473
 21
-29.9215
  0
LINE
  8
0
 10
-47.2473
 20
-29.9215
 11
-47.2473
 21
-30.0785
  0
LINE
  8
0
 10
-47.2473
 20
-30.0785
 11
-47.2459
 21
-30.131
  0
LINE
  8
0
 10
-47.2459
 20
-30.131
 11
-47.2418
 21
-30.2095
  0
LINE
  8
0
 10
-47.2418
 20
-30.2095
 11
-47.2377
 21
-30.2614
  0
LINE
  8
0
 10
-47.2377
 20
-30.2614
 11
-47.2213
 21
-30.4174
  0
LINE
  8
0
 10
-47.2213
 20
-30.4174
 11
-47.2144
 21
-30.4696
  0
LINE
  8
0
 10
-47.2144
 20
-30.4696
 11
-47.2021
 21
-30.5469
  0
LINE
  8
0
 10
-47.2021
 20
-30.5469
 11
-47.1926
 21
-30.5985
  0
LINE
  8
0
 10
-47.1926
 20
-30.5985
 11
-47.16
 21
-30.7518
  0
LINE
  8
0
 10
-47.16
 20
-30.7518
 11
-47.1477
 21
-30.803
  0
LINE
  8
0
 10
-47.1477
 20
-30.803
 11
-47.1275
 21
-30.8785
  0
LINE
  8
0
 10
-47.1275
 20
-30.8785
 11
-47.1125
 21
-30.9288
  0
LINE
  8
0
 10
-47.1125
 20
-30.9288
 11
-47.0642
 21
-31.0778
  0
LINE
  8
0
 10
-47.0642
 20
-31.0778
 11
-47.0464
 21
-31.1278
  0
LINE
  8
0
 10
-47.0464
 20
-31.1278
 11
-47.0185
 21
-31.2007
  0
LINE
  8
0
 10
-47.0185
 20
-31.2007
 11
-46.9984
 21
-31.2491
  0
LINE
  8
0
 10
-46.9984
 20
-31.2491
 11
-46.9347
 21
-31.3923
  0
LINE
  8
0
 10
-46.9347
 20
-31.3923
 11
-46.9121
 21
-31.4397
  0
LINE
  8
0
 10
-46.9121
 20
-31.4397
 11
-46.8763
 21
-31.5098
  0
LINE
  8
0
 10
-46.8763
 20
-31.5098
 11
-46.8515
 21
-31.5555
  0
LINE
  8
0
 10
-46.8515
 20
-31.5555
 11
-46.773
 21
-31.6915
  0
LINE
  8
0
 10
-46.773
 20
-31.6915
 11
-46.7455
 21
-31.7364
  0
LINE
  8
0
 10
-46.7455
 20
-31.7364
 11
-46.7029
 21
-31.802
  0
LINE
  8
0
 10
-46.7029
 20
-31.802
 11
-46.6731
 21
-31.8453
  0
LINE
  8
0
 10
-46.6731
 20
-31.8453
 11
-46.5809
 21
-31.9722
  0
LINE
  8
0
 10
-46.5809
 20
-31.9722
 11
-46.5492
 21
-32.0135
  0
LINE
  8
0
 10
-46.5492
 20
-32.0135
 11
-46.4997
 21
-32.0747
  0
LINE
  8
0
 10
-46.4997
 20
-32.0747
 11
-46.4658
 21
-32.1144
  0
LINE
  8
0
 10
-46.4658
 20
-32.1144
 11
-46.3605
 21
-32.2314
  0
LINE
  8
0
 10
-46.3605
 20
-32.2314
 11
-46.3248
 21
-32.269
  0
LINE
  8
0
 10
-46.3248
 20
-32.269
 11
-46.269
 21
-32.3248
  0
LINE
  8
0
 10
-46.269
 20
-32.3248
 11
-46.2314
 21
-32.3605
  0
LINE
  8
0
 10
-46.2314
 20
-32.3605
 11
-46.1144
 21
-32.4658
  0
LINE
  8
0
 10
-46.1144
 20
-32.4658
 11
-46.0747
 21
-32.4997
  0
LINE
  8
0
 10
-46.0747
 20
-32.4997
 11
-46.0135
 21
-32.5492
  0
LINE
  8
0
 10
-46.0135
 20
-32.5492
 11
-45.9722
 21
-32.5809
  0
LINE
  8
0
 10
-45.9722
 20
-32.5809
 11
-45.8453
 21
-32.6731
  0
LINE
  8
0
 10
-45.8453
 20
-32.6731
 11
-45.8018
 21
-32.703
  0
LINE
  8
0
 10
-45.8018
 20
-32.703
 11
-45.7364
 21
-32.7455
  0
LINE
  8
0
 10
-45.7364
 20
-32.7455
 11
-45.6915
 21
-32.773
  0
LINE
  8
0
 10
-45.6915
 20
-32.773
 11
-45.5555
 21
-32.8515
  0
LINE
  8
0
 10
-45.5555
 20
-32.8515
 11
-45.5098
 21
-32.8763
  0
LINE
  8
0
 10
-45.5098
 20
-32.8763
 11
-45.4397
 21
-32.9121
  0
LINE
  8
0
 10
-45.4397
 20
-32.9121
 11
-45.3923
 21
-32.9347
  0
LINE
  8
0
 10
-45.3923
 20
-32.9347
 11
-45.2491
 21
-32.9984
  0
LINE
  8
0
 10
-45.2491
 20
-32.9984
 11
-45.2007
 21
-33.0185
  0
LINE
  8
0
 10
-45.2007
 20
-33.0185
 11
-45.1278
 21
-33.0464
  0
LINE
  8
0
 10
-45.1278
 20
-33.0464
 11
-45.0778
 21
-33.0642
  0
LINE
  8
0
 10
-45.0778
 20
-33.0642
 11
-44.9288
 21
-33.1125
  0
LINE
  8
0
 10
-44.9288
 20
-33.1125
 11
-44.8785
 21
-33.1275
  0
LINE
  8
0
 10
-44.8785
 20
-33.1275
 11
-44.803
 21
-33.1477
  0
LINE
  8
0
 10
-44.803
 20
-33.1477
 11
-44.7518
 21
-33.16
  0
LINE
  8
0
 10
-44.7518
 20
-33.16
 11
-44.5985
 21
-33.1926
  0
LINE
  8
0
 10
-44.5985
 20
-33.1926
 11
-44.5469
 21
-33.2021
  0
LINE
  8
0
 10
-44.5469
 20
-33.2021
 11
-44.4696
 21
-33.2144
  0
LINE
  8
0
 10
-44.4696
 20
-33.2144
 11
-44.4174
 21
-33.2213
  0
LINE
  8
0
 10
-44.4174
 20
-33.2213
 11
-44.2614
 21
-33.2377
  0
LINE
  8
0
 10
-44.2614
 20
-33.2377
 11
-44.2093
 21
-33.2418
  0
LINE
  8
0
 10
-44.2093
 20
-33.2418
 11
-44.131
 21
-33.2459
  0
LINE
  8
0
 10
-44.131
 20
-33.2459
 11
-44.0785
 21
-33.2473
  0
LINE
  8
0
 10
-44.0785
 20
-33.2473
 11
-43.9215
 21
-33.2473
  0
LINE
  8
0
 10
-43.9215
 20
-33.2473
 11
-43.869
 21
-33.2459
  0
LINE
  8
0
 10
-43.869
 20
-33.2459
 11
-43.7907
 21
-33.2418
  0
LINE
  8
0
 10
-43.7907
 20
-33.2418
 11
-43.7385
 21
-33.2377
  0
LINE
  8
0
 10
-43.7385
 20
-33.2377
 11
-43.5824
 21
-33.2212
  0
LINE
  8
0
 10
-43.5824
 20
-33.2212
 11
-43.5306
 21
-33.2144
  0
LINE
  8
0
 10
-43.5306
 20
-33.2144
 11
-43.4531
 21
-33.2021
  0
LINE
  8
0
 10
-43.4531
 20
-33.2021
 11
-43.4015
 21
-33.1926
  0
LINE
  8
0
 10
-43.4015
 20
-33.1926
 11
-43.2482
 21
-33.16
  0
LINE
  8
0
 10
-43.2482
 20
-33.16
 11
-43.197
 21
-33.1477
  0
LINE
  8
0
 10
-43.197
 20
-33.1477
 11
-43.1215
 21
-33.1275
  0
LINE
  8
0
 10
-43.1215
 20
-33.1275
 11
-43.0711
 21
-33.1125
  0
LINE
  8
0
 10
-43.0711
 20
-33.1125
 11
-42.9222
 21
-33.0642
  0
LINE
  8
0
 10
-42.9222
 20
-33.0642
 11
-42.8721
 21
-33.0464
  0
LINE
  8
0
 10
-42.8721
 20
-33.0464
 11
-42.7995
 21
-33.0185
  0
LINE
  8
0
 10
-42.7995
 20
-33.0185
 11
-42.7508
 21
-32.9984
  0
LINE
  8
0
 10
-42.7508
 20
-32.9984
 11
-42.6072
 21
-32.9344
  0
LINE
  8
0
 10
-42.6072
 20
-32.9344
 11
-42.5606
 21
-32.9122
  0
LINE
  8
0
 10
-42.5606
 20
-32.9122
 11
-42.4902
 21
-32.8763
  0
LINE
  8
0
 10
-42.4902
 20
-32.8763
 11
-42.4443
 21
-32.8514
  0
LINE
  8
0
 10
-42.4443
 20
-32.8514
 11
-42.3085
 21
-32.773
  0
LINE
  8
0
 10
-42.3085
 20
-32.773
 11
-42.2639
 21
-32.7457
  0
LINE
  8
0
 10
-42.2639
 20
-32.7457
 11
-42.198
 21
-32.7029
  0
LINE
  8
0
 10
-42.198
 20
-32.7029
 11
-42.1548
 21
-32.6732
  0
LINE
  8
0
 10
-42.1548
 20
-32.6732
 11
-42.028
 21
-32.5811
  0
LINE
  8
0
 10
-42.028
 20
-32.5811
 11
-41.9864
 21
-32.5491
  0
LINE
  8
0
 10
-41.9864
 20
-32.5491
 11
-41.9253
 21
-32.4997
  0
LINE
  8
0
 10
-41.9253
 20
-32.4997
 11
-41.8856
 21
-32.4658
  0
LINE
  8
0
 10
-41.8856
 20
-32.4658
 11
-41.7686
 21
-32.3605
  0
LINE
  8
0
 10
-41.7686
 20
-32.3605
 11
-41.731
 21
-32.3248
  0
LINE
  8
0
 10
-41.731
 20
-32.3248
 11
-41.7258
 21
-32.3196
  0
LINE
  8
0
 10
-41.7258
 20
-32.3196
 11
-41.7204
 21
-32.3147
  0
LINE
  8
0
 10
-41.7204
 20
-32.3147
 11
-41.7119
 21
-32.3066
  0
LINE
  8
0
 10
-41.7119
 20
-32.3066
 11
-41.7117
 21
-32.3069
  0
LINE
  8
0
 10
-41.7117
 20
-32.3069
 11
-41.5702
 21
-32.1795
  0
LINE
  8
0
 10
-41.5702
 20
-32.1795
 11
-41.4009
 21
-32.0565
  0
LINE
  8
0
 10
-41.4009
 20
-32.0565
 11
-41.2196
 21
-31.9518
  0
LINE
  8
0
 10
-41.2196
 20
-31.9518
 11
-41.0283
 21
-31.8667
  0
LINE
  8
0
 10
-41.0283
 20
-31.8667
 11
-40.8292
 21
-31.802
  0
LINE
  8
0
 10
-40.8292
 20
-31.802
 11
-40.6245
 21
-31.7584
  0
LINE
  8
0
 10
-40.6245
 20
-31.7584
 11
-40.4163
 21
-31.7366
  0
LINE
  8
0
 10
-40.4163
 20
-31.7366
 11
-40.2069
 21
-31.7366
  0
LINE
  8
0
 10
-40.2069
 20
-31.7366
 11
-39.9987
 21
-31.7584
  0
LINE
  8
0
 10
-39.9987
 20
-31.7584
 11
-39.794
 21
-31.802
  0
LINE
  8
0
 10
-39.794
 20
-31.802
 11
-39.5949
 21
-31.8667
  0
LINE
  8
0
 10
-39.5949
 20
-31.8667
 11
-39.4036
 21
-31.9518
  0
LINE
  8
0
 10
-39.4036
 20
-31.9518
 11
-39.2223
 21
-32.0565
  0
LINE
  8
0
 10
-39.2223
 20
-32.0565
 11
-39.053
 21
-32.1795
  0
LINE
  8
0
 10
-39.053
 20
-32.1795
 11
-38.3221
 21
-32.7713
  0
LINE
  8
0
 10
-38.3221
 20
-32.7713
 11
-38.1665
 21
-32.9114
  0
LINE
  8
0
 10
-38.1665
 20
-32.9114
 11
-37.4265
 21
-33.6514
  0
LINE
  8
0
 10
-37.4265
 20
-33.6514
 11
-37.2865
 21
-33.8069
  0
LINE
  8
0
 10
-37.2865
 20
-33.8069
 11
-36.5953
 21
-34.6604
  0
LINE
  8
0
 10
-36.5953
 20
-34.6604
 11
-36.5315
 21
-34.7435
  0
LINE
  8
0
 10
-36.5315
 20
-34.7435
 11
-36.0164
 21
-35.4524
  0
LINE
  8
0
 10
-36.0164
 20
-35.4524
 11
-35.9505
 21
-35.5338
  0
LINE
  8
0
 10
-35.9505
 20
-35.5338
 11
-35.7418
 21
-35.7656
  0
LINE
  8
0
 10
-35.7418
 20
-35.7656
 11
-35.6677
 21
-35.8397
  0
LINE
  8
0
 10
-35.6677
 20
-35.8397
 11
-35.4355
 21
-36.0487
  0
LINE
  8
0
 10
-35.4355
 20
-36.0487
 11
-35.3543
 21
-36.1145
  0
LINE
  8
0
 10
-35.3543
 20
-36.1145
 11
-35.1019
 21
-36.2978
  0
LINE
  8
0
 10
-35.1019
 20
-36.2978
 11
-35.0629
 21
-36.3232
  0
LINE
  8
0
 10
-35.0629
 20
-36.3232
 11
-34.8935
 21
-36.4462
  0
LINE
  8
0
 10
-34.8935
 20
-36.4462
 11
-34.7379
 21
-36.5863
  0
LINE
  8
0
 10
-34.7379
 20
-36.5863
 11
-34.5978
 21
-36.7418
  0
LINE
  8
0
 10
-34.5978
 20
-36.7418
 11
-34.4748
 21
-36.9112
  0
LINE
  8
0
 10
-34.4748
 20
-36.9112
 11
-34.3701
 21
-37.0925
  0
LINE
  8
0
 10
-34.3701
 20
-37.0925
 11
-34.2849
 21
-37.2837
  0
LINE
  8
0
 10
-34.2849
 20
-37.2837
 11
-34.2202
 21
-37.4828
  0
LINE
  8
0
 10
-34.2202
 20
-37.4828
 11
-34.1767
 21
-37.6876
  0
LINE
  8
0
 10
-34.1767
 20
-37.6876
 11
-34.1548
 21
-37.8958
  0
LINE
  8
0
 10
-34.1548
 20
-37.8958
 11
-34.1548
 21
-38.1051
  0
LINE
  8
0
 10
-34.1548
 20
-38.1051
 11
-34.1766
 21
-38.3133
  0
LINE
  8
0
 10
-34.1766
 20
-38.3133
 11
-34.1882
 21
-38.3757
  0
LINE
  8
0
 10
-34.1882
 20
-38.3757
 11
-34.1878
 21
-38.3757
  0
LINE
  8
0
 10
-34.1878
 20
-38.3757
 11
-34.2021
 21
-38.4531
  0
LINE
  8
0
 10
-34.2021
 20
-38.4531
 11
-34.2144
 21
-38.5306
  0
LINE
  8
0
 10
-34.2144
 20
-38.5306
 11
-34.2212
 21
-38.5824
  0
LINE
  8
0
 10
-34.2212
 20
-38.5824
 11
-34.2377
 21
-38.7385
  0
LINE
  8
0
 10
-34.2377
 20
-38.7385
 11
-34.2418
 21
-38.7907
  0
LINE
  8
0
 10
-34.2418
 20
-38.7907
 11
-34.2459
 21
-38.869
  0
LINE
  8
0
 10
-34.2459
 20
-38.869
 11
-34.2473
 21
-38.9215
  0
LINE
  8
0
 10
-34.2473
 20
-38.9215
 11
-34.2473
 21
-39.0785
  0
LINE
  8
0
 10
-34.2473
 20
-39.0785
 11
-34.2459
 21
-39.131
  0
LINE
  8
0
 10
-34.2459
 20
-39.131
 11
-34.2418
 21
-39.2095
  0
LINE
  8
0
 10
-34.2418
 20
-39.2095
 11
-34.2377
 21
-39.2614
  0
LINE
  8
0
 10
-34.2377
 20
-39.2614
 11
-34.2213
 21
-39.4174
  0
LINE
  8
0
 10
-34.2213
 20
-39.4174
 11
-34.2144
 21
-39.4696
  0
LINE
  8
0
 10
-34.2144
 20
-39.4696
 11
-34.2021
 21
-39.5469
  0
LINE
  8
0
 10
-34.2021
 20
-39.5469
 11
-34.1926
 21
-39.5985
  0
LINE
  8
0
 10
-34.1926
 20
-39.5985
 11
-34.16
 21
-39.7518
  0
LINE
  8
0
 10
-34.16
 20
-39.7518
 11
-34.1477
 21
-39.803
  0
LINE
  8
0
 10
-34.1477
 20
-39.803
 11
-34.1275
 21
-39.8785
  0
LINE
  8
0
 10
-34.1275
 20
-39.8785
 11
-34.1125
 21
-39.9288
  0
LINE
  8
0
 10
-34.1125
 20
-39.9288
 11
-34.0642
 21
-40.0778
  0
LINE
  8
0
 10
-34.0642
 20
-40.0778
 11
-34.0464
 21
-40.1278
  0
LINE
  8
0
 10
-34.0464
 20
-40.1278
 11
-34.0185
 21
-40.2007
  0
LINE
  8
0
 10
-34.0185
 20
-40.2007
 11
-33.9984
 21
-40.2491
  0
LINE
  8
0
 10
-33.9984
 20
-40.2491
 11
-33.9347
 21
-40.3923
  0
LINE
  8
0
 10
-33.9347
 20
-40.3923
 11
-33.9121
 21
-40.4397
  0
LINE
  8
0
 10
-33.9121
 20
-40.4397
 11
-33.8763
 21
-40.5098
  0
LINE
  8
0
 10
-33.8763
 20
-40.5098
 11
-33.8515
 21
-40.5555
  0
LINE
  8
0
 10
-33.8515
 20
-40.5555
 11
-33.773
 21
-40.6915
  0
LINE
  8
0
 10
-33.773
 20
-40.6915
 11
-33.7455
 21
-40.7364
  0
LINE
  8
0
 10
-33.7455
 20
-40.7364
 11
-33.703
 21
-40.8018
  0
LINE
  8
0
 10
-33.703
 20
-40.8018
 11
-33.6731
 21
-40.8453
  0
LINE
  8
0
 10
-33.6731
 20
-40.8453
 11
-33.5809
 21
-40.9722
  0
LINE
  8
0
 10
-33.5809
 20
-40.9722
 11
-33.5492
 21
-41.0135
  0
LINE
  8
0
 10
-33.5492
 20
-41.0135
 11
-33.4997
 21
-41.0747
  0
LINE
  8
0
 10
-33.4997
 20
-41.0747
 11
-33.4658
 21
-41.1144
  0
LINE
  8
0
 10
-33.4658
 20
-41.1144
 11
-33.3605
 21
-41.2314
  0
LINE
  8
0
 10
-33.3605
 20
-41.2314
 11
-33.3248
 21
-41.269
  0
LINE
  8
0
 10
-33.3248
 20
-41.269
 11
-33.269
 21
-41.3248
  0
LINE
  8
0
 10
-33.269
 20
-41.3248
 11
-33.2314
 21
-41.3605
  0
LINE
  8
0
 10
-33.2314
 20
-41.3605
 11
-33.1144
 21
-41.4658
  0
LINE
  8
0
 10
-33.1144
 20
-41.4658
 11
-33.0747
 21
-41.4997
  0
LINE
  8
0
 10
-33.0747
 20
-41.4997
 11
-33.0135
 21
-41.5492
  0
LINE
  8
0
 10
-33.0135
 20
-41.5492
 11
-32.9722
 21
-41.5809
  0
LINE
  8
0
 10
-32.9722
 20
-41.5809
 11
-32.8453
 21
-41.6731
  0
LINE
  8
0
 10
-32.8453
 20
-41.6731
 11
-32.8018
 21
-41.703
  0
LINE
  8
0
 10
-32.8018
 20
-41.703
 11
-32.7364
 21
-41.7455
  0
LINE
  8
0
 10
-32.7364
 20
-41.7455
 11
-32.6915
 21
-41.773
  0
LINE
  8
0
 10
-32.6915
 20
-41.773
 11
-32.5555
 21
-41.8515
  0
LINE
  8
0
 10
-32.5555
 20
-41.8515
 11
-32.5098
 21
-41.8763
  0
LINE
  8
0
 10
-32.5098
 20
-41.8763
 11
-32.4397
 21
-41.9121
  0
LINE
  8
0
 10
-32.4397
 20
-41.9121
 11
-32.3923
 21
-41.9347
  0
LINE
  8
0
 10
-32.3923
 20
-41.9347
 11
-32.2491
 21
-41.9984
  0
LINE
  8
0
 10
-32.2491
 20
-41.9984
 11
-32.2007
 21
-42.0185
  0
LINE
  8
0
 10
-32.2007
 20
-42.0185
 11
-32.1278
 21
-42.0464
  0
LINE
  8
0
 10
-32.1278
 20
-42.0464
 11
-32.0778
 21
-42.0642
  0
LINE
  8
0
 10
-32.0778
 20
-42.0642
 11
-31.9288
 21
-42.1125
  0
LINE
  8
0
 10
-31.9288
 20
-42.1125
 11
-31.8785
 21
-42.1275
  0
LINE
  8
0
 10
-31.8785
 20
-42.1275
 11
-31.803
 21
-42.1477
  0
LINE
  8
0
 10
-31.803
 20
-42.1477
 11
-31.7518
 21
-42.16
  0
LINE
  8
0
 10
-31.7518
 20
-42.16
 11
-31.5985
 21
-42.1926
  0
LINE
  8
0
 10
-31.5985
 20
-42.1926
 11
-31.5469
 21
-42.2021
  0
LINE
  8
0
 10
-31.5469
 20
-42.2021
 11
-31.4696
 21
-42.2144
  0
LINE
  8
0
 10
-31.4696
 20
-42.2144
 11
-31.4174
 21
-42.2213
  0
LINE
  8
0
 10
-31.4174
 20
-42.2213
 11
-31.2614
 21
-42.2377
  0
LINE
  8
0
 10
-31.2614
 20
-42.2377
 11
-31.2093
 21
-42.2418
  0
LINE
  8
0
 10
-31.2093
 20
-42.2418
 11
-31.131
 21
-42.2459
  0
LINE
  8
0
 10
-31.131
 20
-42.2459
 11
-31.0785
 21
-42.2473
  0
LINE
  8
0
 10
-31.0785
 20
-42.2473
 11
-30.9215
 21
-42.2473
  0
LINE
  8
0
 10
-30.9215
 20
-42.2473
 11
-30.869
 21
-42.2459
  0
LINE
  8
0
 10
-30.869
 20
-42.2459
 11
-30.7907
 21
-42.2418
  0
LINE
  8
0
 10
-30.7907
 20
-42.2418
 11
-30.739
 21
-42.2377
  0
LINE
  8
0
 10
-30.739
 20
-42.2377
 11
-30.5946
 21
-42.2225
  0
LINE
  8
0
 10
-30.5946
 20
-42.2225
 11
-30.3856
 21
-42.2116
  0
LINE
  8
0
 10
-30.3856
 20
-42.2116
 11
-30.1765
 21
-42.2225
  0
LINE
  8
0
 10
-30.1765
 20
-42.2225
 11
-29.9697
 21
-42.2553
  0
LINE
  8
0
 10
-29.9697
 20
-42.2553
 11
-29.7675
 21
-42.3094
  0
LINE
  8
0
 10
-29.7675
 20
-42.3094
 11
-29.5721
 21
-42.3845
  0
LINE
  8
0
 10
-29.5721
 20
-42.3845
 11
-29.3855
 21
-42.4795
  0
LINE
  8
0
 10
-29.3855
 20
-42.4795
 11
-29.21
 21
-42.5935
  0
LINE
  8
0
 10
-29.21
 20
-42.5935
 11
-29.0473
 21
-42.7253
  0
LINE
  8
0
 10
-29.0473
 20
-42.7253
 11
-28.8992
 21
-42.8733
  0
LINE
  8
0
 10
-28.8992
 20
-42.8733
 11
-28.7675
 21
-43.036
  0
LINE
  8
0
 10
-28.7675
 20
-43.036
 11
-28.6535
 21
-43.2115
  0
LINE
  8
0
 10
-28.6535
 20
-43.2115
 11
-28.5184
 21
-43.4947
  0
LINE
  8
0
 10
-28.5184
 20
-43.4947
 11
-28.4915
 21
-43.5649
  0
LINE
  8
0
 10
-28.4915
 20
-43.5649
 11
-28.4267
 21
-43.7641
  0
LINE
  8
0
 10
-28.4267
 20
-43.7641
 11
-28.1421
 21
-44.8261
  0
LINE
  8
0
 10
-28.1421
 20
-44.8261
 11
-28.1176
 21
-44.928
  0
LINE
  8
0
 10
-28.1176
 20
-44.928
 11
-28.0457
 21
-45.2666
  0
LINE
  8
0
 10
-28.0457
 20
-45.2666
 11
-28.0185
 21
-45.3679
  0
LINE
  8
0
 10
-28.0185
 20
-45.3679
 11
-27.922
 21
-45.6648
  0
LINE
  8
0
 10
-27.922
 20
-45.6648
 11
-27.8845
 21
-45.7626
  0
LINE
  8
0
 10
-27.8845
 20
-45.7626
 11
-27.7576
 21
-46.0475
  0
LINE
  8
0
 10
-27.7576
 20
-46.0475
 11
-27.7101
 21
-46.1409
  0
LINE
  8
0
 10
-27.7101
 20
-46.1409
 11
-27.5539
 21
-46.4113
  0
LINE
  8
0
 10
-27.5539
 20
-46.4113
 11
-27.497
 21
-46.499
  0
LINE
  8
0
 10
-27.497
 20
-46.499
 11
-27.3135
 21
-46.7516
  0
LINE
  8
0
 10
-27.3135
 20
-46.7516
 11
-27.2476
 21
-46.8329
  0
LINE
  8
0
 10
-27.2476
 20
-46.8329
 11
-27.0387
 21
-47.0648
  0
LINE
  8
0
 10
-27.0387
 20
-47.0648
 11
-26.9648
 21
-47.1388
  0
LINE
  8
0
 10
-26.9648
 20
-47.1388
 11
-26.7326
 21
-47.3478
  0
LINE
  8
0
 10
-26.7326
 20
-47.3478
 11
-26.6515
 21
-47.4135
  0
LINE
  8
0
 10
-26.6515
 20
-47.4135
 11
-26.3988
 21
-47.5971
  0
LINE
  8
0
 10
-26.3988
 20
-47.5971
 11
-26.3111
 21
-47.654
  0
LINE
  8
0
 10
-26.3111
 20
-47.654
 11
-26.0408
 21
-47.8101
  0
LINE
  8
0
 10
-26.0408
 20
-47.8101
 11
-25.9474
 21
-47.8577
  0
LINE
  8
0
 10
-25.9474
 20
-47.8577
 11
-25.6623
 21
-47.9846
  0
LINE
  8
0
 10
-25.6623
 20
-47.9846
 11
-25.5645
 21
-48.0222
  0
LINE
  8
0
 10
-25.5645
 20
-48.0222
 11
-25.2677
 21
-48.1186
  0
LINE
  8
0
 10
-25.2677
 20
-48.1186
 11
-25.1668
 21
-48.1456
  0
LINE
  8
0
 10
-25.1668
 20
-48.1456
 11
-24.8608
 21
-48.2106
  0
LINE
  8
0
 10
-24.8608
 20
-48.2106
 11
-24.7578
 21
-48.227
  0
LINE
  8
0
 10
-24.7578
 20
-48.227
 11
-24.1954
 21
-48.2861
  0
LINE
  8
0
 10
-24.1954
 20
-48.2861
 11
-24.1174
 21
-48.2912
  0
LINE
  8
0
 10
-24.1174
 20
-48.2912
 11
-23.729
 21
-48.3014
  0
LINE
  8
0
 10
-23.729
 20
-48.3014
 11
-23.5991
 21
-48.309
  0
LINE
  8
0
 10
-23.5991
 20
-48.309
 11
-23.5851
 21
-48.3103
  0
LINE
  8
0
 10
-23.5851
 20
-48.3103
 11
-22.632
 21
-48.3602
  0
LINE
  8
0
 10
-22.632
 20
-48.3602
 11
-22.4233
 21
-48.3822
  0
LINE
  8
0
 10
-22.4233
 20
-48.3822
 11
-22.3715
 21
-48.3904
  0
LINE
  8
0
 10
-22.3715
 20
-48.3904
 11
-22.1668
 21
-48.434
  0
LINE
  8
0
 10
-22.1668
 20
-48.434
 11
-21.9677
 21
-48.4987
  0
LINE
  8
0
 10
-21.9677
 20
-48.4987
 11
-21.7765
 21
-48.5839
  0
LINE
  8
0
 10
-21.7765
 20
-48.5839
 11
-21.5952
 21
-48.6886
  0
LINE
  8
0
 10
-21.5952
 20
-48.6886
 11
-21.4259
 21
-48.8117
  0
LINE
  8
0
 10
-21.4259
 20
-48.8117
 11
-21.2703
 21
-48.9519
  0
LINE
  8
0
 10
-21.2703
 20
-48.9519
 11
-21.1303
 21
-49.1075
  0
LINE
  8
0
 10
-21.1303
 20
-49.1075
 11
-21.0073
 21
-49.2769
  0
LINE
  8
0
 10
-21.0073
 20
-49.2769
 11
-20.9029
 21
-49.4577
  0
LINE
  8
0
 10
-20.9029
 20
-49.4577
 11
-20.8764
 21
-49.5096
  0
LINE
  8
0
 10
-20.8764
 20
-49.5096
 11
-20.8515
 21
-49.5555
  0
LINE
  8
0
 10
-20.8515
 20
-49.5555
 11
-20.773
 21
-49.6915
  0
LINE
  8
0
 10
-20.773
 20
-49.6915
 11
-20.7455
 21
-49.7364
  0
LINE
  8
0
 10
-20.7455
 20
-49.7364
 11
-20.703
 21
-49.8018
  0
LINE
  8
0
 10
-20.703
 20
-49.8018
 11
-20.6731
 21
-49.8453
  0
LINE
  8
0
 10
-20.6731
 20
-49.8453
 11
-20.5809
 21
-49.9722
  0
LINE
  8
0
 10
-20.5809
 20
-49.9722
 11
-20.5492
 21
-50.0135
  0
LINE
  8
0
 10
-20.5492
 20
-50.0135
 11
-20.4997
 21
-50.0747
  0
LINE
  8
0
 10
-20.4997
 20
-50.0747
 11
-20.4658
 21
-50.1144
  0
LINE
  8
0
 10
-20.4658
 20
-50.1144
 11
-20.3605
 21
-50.2314
  0
LINE
  8
0
 10
-20.3605
 20
-50.2314
 11
-20.3248
 21
-50.269
  0
LINE
  8
0
 10
-20.3248
 20
-50.269
 11
-20.269
 21
-50.3248
  0
LINE
  8
0
 10
-20.269
 20
-50.3248
 11
-20.2314
 21
-50.3605
  0
LINE
  8
0
 10
-20.2314
 20
-50.3605
 11
-20.1144
 21
-50.4658
  0
LINE
  8
0
 10
-20.1144
 20
-50.4658
 11
-20.0747
 21
-50.4997
  0
LINE
  8
0
 10
-20.0747
 20
-50.4997
 11
-20.0135
 21
-50.5492
  0
LINE
  8
0
 10
-20.0135
 20
-50.5492
 11
-19.9722
 21
-50.5809
  0
LINE
  8
0
 10
-19.9722
 20
-50.5809
 11
-19.8453
 21
-50.6731
  0
LINE
  8
0
 10
-19.8453
 20
-50.6731
 11
-19.8018
 21
-50.703
  0
LINE
  8
0
 10
-19.8018
 20
-50.703
 11
-19.7364
 21
-50.7455
  0
LINE
  8
0
 10
-19.7364
 20
-50.7455
 11
-19.6915
 21
-50.773
  0
LINE
  8
0
 10
-19.6915
 20
-50.773
 11
-19.5554
 21
-50.8516
  0
LINE
  8
0
 10
-19.5554
 20
-50.8516
 11
-19.5098
 21
-50.8763
  0
LINE
  8
0
 10
-19.5098
 20
-50.8763
 11
-19.4397
 21
-50.9121
  0
LINE
  8
0
 10
-19.4397
 20
-50.9121
 11
-19.3923
 21
-50.9347
  0
LINE
  8
0
 10
-19.3923
 20
-50.9347
 11
-19.2491
 21
-50.9984
  0
LINE
  8
0
 10
-19.2491
 20
-50.9984
 11
-19.2007
 21
-51.0185
  0
LINE
  8
0
 10
-19.2007
 20
-51.0185
 11
-19.1278
 21
-51.0464
  0
LINE
  8
0
 10
-19.1278
 20
-51.0464
 11
-19.0778
 21
-51.0642
  0
LINE
  8
0
 10
-19.0778
 20
-51.0642
 11
-18.9288
 21
-51.1125
  0
LINE
  8
0
 10
-18.9288
 20
-51.1125
 11
-18.8785
 21
-51.1275
  0
LINE
  8
0
 10
-18.8785
 20
-51.1275
 11
-18.803
 21
-51.1477
  0
LINE
  8
0
 10
-18.803
 20
-51.1477
 11
-18.7518
 21
-51.16
  0
LINE
  8
0
 10
-18.7518
 20
-51.16
 11
-18.5985
 21
-51.1926
  0
LINE
  8
0
 10
-18.5985
 20
-51.1926
 11
-18.5469
 21
-51.2021
  0
LINE
  8
0
 10
-18.5469
 20
-51.2021
 11
-18.4696
 21
-51.2144
  0
LINE
  8
0
 10
-18.4696
 20
-51.2144
 11
-18.4174
 21
-51.2213
  0
LINE
  8
0
 10
-18.4174
 20
-51.2213
 11
-18.2614
 21
-51.2377
  0
LINE
  8
0
 10
-18.2614
 20
-51.2377
 11
-18.2093
 21
-51.2418
  0
LINE
  8
0
 10
-18.2093
 20
-51.2418
 11
-18.131
 21
-51.2459
  0
LINE
  8
0
 10
-18.131
 20
-51.2459
 11
-18.0785
 21
-51.2473
  0
LINE
  8
0
 10
-18.0785
 20
-51.2473
 11
-17.9215
 21
-51.2473
  0
LINE
  8
0
 10
-17.9215
 20
-51.2473
 11
-17.869
 21
-51.2459
  0
LINE
  8
0
 10
-17.869
 20
-51.2459
 11
-17.7907
 21
-51.2418
  0
LINE
  8
0
 10
-17.7907
 20
-51.2418
 11
-17.7385
 21
-51.2377
  0
LINE
  8
0
 10
-17.7385
 20
-51.2377
 11
-17.5824
 21
-51.2212
  0
LINE
  8
0
 10
-17.5824
 20
-51.2212
 11
-17.5306
 21
-51.2144
  0
LINE
  8
0
 10
-17.5306
 20
-51.2144
 11
-17.4531
 21
-51.2021
  0
LINE
  8
0
 10
-17.4531
 20
-51.2021
 11
-17.4012
 21
-51.1925
  0
LINE
  8
0
 10
-17.4012
 20
-51.1925
 11
-17.2598
 21
-51.1625
  0
LINE
  8
0
 10
-17.2598
 20
-51.1625
 11
-17.0531
 21
-51.1297
  0
LINE
  8
0
 10
-17.0531
 20
-51.1297
 11
-16.844
 21
-51.1188
  0
LINE
  8
0
 10
-16.844
 20
-51.1188
 11
-16.635
 21
-51.1297
  0
LINE
  8
0
 10
-16.635
 20
-51.1297
 11
-16.4282
 21
-51.1625
  0
LINE
  8
0
 10
-16.4282
 20
-51.1625
 11
-16.226
 21
-51.2166
  0
LINE
  8
0
 10
-16.226
 20
-51.2166
 11
-16.0305
 21
-51.2917
  0
LINE
  8
0
 10
-16.0305
 20
-51.2917
 11
-15.844
 21
-51.3867
  0
LINE
  8
0
 10
-15.844
 20
-51.3867
 11
-15.6684
 21
-51.5007
  0
LINE
  8
0
 10
-15.6684
 20
-51.5007
 11
-15.5058
 21
-51.6324
  0
LINE
  8
0
 10
-15.5058
 20
-51.6324
 11
-15.4298
 21
-51.7045
  0
LINE
  8
0
 10
-15.4298
 20
-51.7045
 11
-14.938
 21
-52.1963
  0
LINE
  8
0
 10
-14.938
 20
-52.1963
 11
-14.7979
 21
-52.3519
  0
LINE
  8
0
 10
-14.7979
 20
-52.3519
 11
-14.1394
 21
-53.1651
  0
LINE
  8
0
 10
-14.1394
 20
-53.1651
 11
-14.0163
 21
-53.3345
  0
LINE
  8
0
 10
-14.0163
 20
-53.3345
 11
-13.4464
 21
-54.2121
  0
LINE
  8
0
 10
-13.4464
 20
-54.2121
 11
-13.3418
 21
-54.3934
  0
LINE
  8
0
 10
-13.3418
 20
-54.3934
 11
-12.8667
 21
-55.3258
  0
LINE
  8
0
 10
-12.8667
 20
-55.3258
 11
-12.7815
 21
-55.517
  0
LINE
  8
0
 10
-12.7815
 20
-55.517
 11
-12.4066
 21
-56.4938
  0
LINE
  8
0
 10
-12.4066
 20
-56.4938
 11
-12.3419
 21
-56.6929
  0
LINE
  8
0
 10
-12.3419
 20
-56.6929
 11
-12.071
 21
-57.7039
  0
LINE
  8
0
 10
-12.071
 20
-57.7039
 11
-12.0275
 21
-57.9087
  0
LINE
  8
0
 10
-12.0275
 20
-57.9087
 11
-11.8638
 21
-58.9421
  0
LINE
  8
0
 10
-11.8638
 20
-58.9421
 11
-11.8419
 21
-59.1503
  0
LINE
  8
0
 10
-11.8419
 20
-59.1503
 11
-11.7858
 21
-60.2215
  0
LINE
  8
0
 10
-11.7858
 20
-60.2215
 11
-11.7837
 21
-60.3784
  0
LINE
  8
0
 10
-11.7837
 20
-60.3784
 11
-11.7974
 21
-60.9021
  0
LINE
  8
0
 10
-11.7974
 20
-60.9021
 11
-11.7995
 21
-60.9547
  0
LINE
  8
0
 10
-11.7995
 20
-60.9547
 11
-11.8041
 21
-61.0433
  0
LINE
  8
0
 10
-11.8041
 20
-61.0433
 11
-11.8123
 21
-61.1475
  0
LINE
  8
0
 10
-11.8123
 20
-61.1475
 11
-11.9272
 21
-62.2406
  0
LINE
  8
0
 10
-11.9272
 20
-62.2406
 11
-11.96
 21
-62.4473
  0
LINE
  8
0
 10
-11.96
 20
-62.4473
 11
-12.1775
 21
-63.4707
  0
LINE
  8
0
 10
-12.1775
 20
-63.4707
 11
-12.2317
 21
-63.6729
  0
LINE
  8
0
 10
-12.2317
 20
-63.6729
 11
-12.5551
 21
-64.6683
  0
LINE
  8
0
 10
-12.5551
 20
-64.6683
 11
-12.6302
 21
-64.8637
  0
LINE
  8
0
 10
-12.6302
 20
-64.8637
 11
-13.0558
 21
-65.8197
  0
LINE
  8
0
 10
-13.0558
 20
-65.8197
 11
-13.1508
 21
-66.0062
  0
LINE
  8
0
 10
-13.1508
 20
-66.0062
 11
-13.674
 21
-66.9124
  0
LINE
  8
0
 10
-13.674
 20
-66.9124
 11
-13.788
 21
-67.0879
  0
LINE
  8
0
 10
-13.788
 20
-67.0879
 11
-14.4031
 21
-67.9345
  0
LINE
  8
0
 10
-14.4031
 20
-67.9345
 11
-14.5349
 21
-68.0972
  0
LINE
  8
0
 10
-14.5349
 20
-68.0972
 11
-15.2351
 21
-68.8748
  0
LINE
  8
0
 10
-15.2351
 20
-68.8748
 11
-15.3831
 21
-69.0229
  0
LINE
  8
0
 10
-15.3831
 20
-69.0229
 11
-16.1608
 21
-69.723
  0
LINE
  8
0
 10
-16.1608
 20
-69.723
 11
-16.3235
 21
-69.8548
  0
LINE
  8
0
 10
-16.3235
 20
-69.8548
 11
-17.1702
 21
-70.47
  0
LINE
  8
0
 10
-17.1702
 20
-70.47
 11
-17.3457
 21
-70.584
  0
LINE
  8
0
 10
-17.3457
 20
-70.584
 11
-18.2519
 21
-71.1071
  0
LINE
  8
0
 10
-18.2519
 20
-71.1071
 11
-18.4384
 21
-71.2021
  0
LINE
  8
0
 10
-18.4384
 20
-71.2021
 11
-19.4422
 21
-71.649
  0
LINE
  8
0
 10
-19.4422
 20
-71.649
 11
-19.5388
 21
-71.689
  0
LINE
  8
0
 10
-19.5388
 20
-71.689
 11
-19.6919
 21
-71.7478
  0
LINE
  8
0
 10
-19.6919
 20
-71.7478
 11
-19.7873
 21
-71.7903
  0
LINE
  8
0
 10
-19.7873
 20
-71.7903
 11
-20.0656
 21
-71.9321
  0
LINE
  8
0
 10
-20.0656
 20
-71.9321
 11
-20.1564
 21
-71.9845
  0
LINE
  8
0
 10
-20.1564
 20
-71.9845
 11
-20.4181
 21
-72.1545
  0
LINE
  8
0
 10
-20.4181
 20
-72.1545
 11
-20.5025
 21
-72.2158
  0
LINE
  8
0
 10
-20.5025
 20
-72.2158
 11
-20.7454
 21
-72.4125
  0
LINE
  8
0
 10
-20.7454
 20
-72.4125
 11
-20.823
 21
-72.4824
  0
LINE
  8
0
 10
-20.823
 20
-72.4824
 11
-21.0438
 21
-72.7032
  0
LINE
  8
0
 10
-21.0438
 20
-72.7032
 11
-21.1139
 21
-72.7811
  0
LINE
  8
0
 10
-21.1139
 20
-72.7811
 11
-21.5384
 21
-73.3053
  0
LINE
  8
0
 10
-21.5384
 20
-73.3053
 11
-21.5704
 21
-73.3469
  0
LINE
  8
0
 10
-21.5704
 20
-73.3469
 11
-21.837
 21
-73.7139
  0
LINE
  8
0
 10
-21.837
 20
-73.7139
 11
-21.9688
 21
-73.8765
  0
LINE
  8
0
 10
-21.9688
 20
-73.8765
 11
-22.669
 21
-74.6542
  0
LINE
  8
0
 10
-22.669
 20
-74.6542
 11
-22.817
 21
-74.8022
  0
LINE
  8
0
 10
-22.817
 20
-74.8022
 11
-23.5946
 21
-75.5023
  0
LINE
  8
0
 10
-23.5946
 20
-75.5023
 11
-23.7573
 21
-75.6341
  0
LINE
  8
0
 10
-23.7573
 20
-75.6341
 11
-24.604
 21
-76.2492
  0
LINE
  8
0
 10
-24.604
 20
-76.2492
 11
-24.7796
 21
-76.3632
  0
LINE
  8
0
 10
-24.7796
 20
-76.3632
 11
-25.6781
 21
-76.8819
  0
LINE
  8
0
 10
-25.6781
 20
-76.8819
 11
-25.8806
 21
-76.984
  0
LINE
  8
0
 10
-25.8806
 20
-76.984
 11
-27.0638
 21
-77.4985
  0
LINE
  8
0
 10
-27.0638
 20
-77.4985
 11
-27.1772
 21
-77.5437
  0
LINE
  8
0
 10
-27.1772
 20
-77.5437
 11
-27.7884
 21
-77.7662
  0
LINE
  8
0
 10
-27.7884
 20
-77.7662
 11
-27.8843
 21
-77.8069
  0
LINE
  8
0
 10
-27.8843
 20
-77.8069
 11
-28.1653
 21
-77.9439
  0
LINE
  8
0
 10
-28.1653
 20
-77.9439
 11
-28.2565
 21
-77.9945
  0
LINE
  8
0
 10
-28.2565
 20
-77.9945
 11
-28.8105
 21
-78.3407
  0
LINE
  8
0
 10
-28.8105
 20
-78.3407
 11
-28.8541
 21
-78.3695
  0
LINE
  8
0
 10
-28.8541
 20
-78.3695
 11
-39.7644
 21
-86.009
  0
LINE
  8
0
 10
-39.7644
 20
-86.009
 11
-39.8065
 21
-86.0401
  0
LINE
  8
0
 10
-39.8065
 20
-86.0401
 11
-40.3215
 21
-86.4425
  0
LINE
  8
0
 10
-40.3215
 20
-86.4425
 11
-40.4001
 21
-86.5108
  0
LINE
  8
0
 10
-40.4001
 20
-86.5108
 11
-40.6248
 21
-86.7278
  0
LINE
  8
0
 10
-40.6248
 20
-86.7278
 11
-40.6962
 21
-86.8044
  0
LINE
  8
0
 10
-40.6962
 20
-86.8044
 11
-40.8968
 21
-87.0435
  0
LINE
  8
0
 10
-40.8968
 20
-87.0435
 11
-40.9597
 21
-87.1269
  0
LINE
  8
0
 10
-40.9597
 20
-87.1269
 11
-41.1345
 21
-87.386
  0
LINE
  8
0
 10
-41.1345
 20
-87.386
 11
-41.1882
 21
-87.4754
  0
LINE
  8
0
 10
-41.1882
 20
-87.4754
 11
-41.3347
 21
-87.7511
  0
LINE
  8
0
 10
-41.3347
 20
-87.7511
 11
-41.3791
 21
-87.8462
  0
LINE
  8
0
 10
-41.3791
 20
-87.8462
 11
-41.496
 21
-88.1355
  0
LINE
  8
0
 10
-41.496
 20
-88.1355
 11
-41.53
 21
-88.2343
  0
LINE
  8
0
 10
-41.53
 20
-88.2343
 11
-41.6161
 21
-88.5348
  0
LINE
  8
0
 10
-41.6161
 20
-88.5348
 11
-41.6396
 21
-88.6366
  0
LINE
  8
0
 10
-41.6396
 20
-88.6366
 11
-41.6938
 21
-88.9439
  0
LINE
  8
0
 10
-41.6938
 20
-88.9439
 11
-41.7066
 21
-89.0477
  0
LINE
  8
0
 10
-41.7066
 20
-89.0477
 11
-41.769
 21
-89.9401
  0
LINE
  8
0
 10
-41.769
 20
-89.9401
 11
-41.7713
 21
-89.9927
  0
LINE
  8
0
 10
-41.7713
 20
-89.9927
 11
-41.7724
 21
-90.0592
  0
LINE
  8
0
 10
-41.7724
 20
-90.0592
 11
-41.777
 21
-90.164
  0
LINE
  8
0
 10
-41.777
 20
-90.164
 11
-41.8101
 21
-90.6374
  0
LINE
  8
0
 10
-41.8101
 20
-90.6374
 11
-41.8119
 21
-90.7418
  0
LINE
  8
0
 10
-41.8119
 20
-90.7418
 11
-41.8011
 21
-91.0536
  0
LINE
  8
0
 10
-41.8011
 20
-91.0536
 11
-41.7919
 21
-91.1578
  0
LINE
  8
0
 10
-41.7919
 20
-91.1578
 11
-41.7484
 21
-91.4674
  0
LINE
  8
0
 10
-41.7484
 20
-91.4674
 11
-41.7286
 21
-91.5697
  0
LINE
  8
0
 10
-41.7286
 20
-91.5697
 11
-41.653
 21
-91.873
  0
LINE
  8
0
 10
-41.653
 20
-91.873
 11
-41.6224
 21
-91.9728
  0
LINE
  8
0
 10
-41.6224
 20
-91.9728
 11
-41.5157
 21
-92.2661
  0
LINE
  8
0
 10
-41.5157
 20
-92.2661
 11
-41.4747
 21
-92.3626
  0
LINE
  8
0
 10
-41.4747
 20
-92.3626
 11
-41.3379
 21
-92.6431
  0
LINE
  8
0
 10
-41.3379
 20
-92.6431
 11
-41.2873
 21
-92.7344
  0
LINE
  8
0
 10
-41.2873
 20
-92.7344
 11
-40.9411
 21
-93.2885
  0
LINE
  8
0
 10
-40.9411
 20
-93.2885
 11
-40.912
 21
-93.3323
  0
LINE
  8
0
 10
-40.912
 20
-93.3323
 11
-39.2954
 21
-95.6412
  0
LINE
  8
0
 10
-39.2954
 20
-95.6412
 11
-39.2642
 21
-95.6834
  0
LINE
  8
0
 10
-39.2642
 20
-95.6834
 11
-38.8618
 21
-96.1983
  0
LINE
  8
0
 10
-38.8618
 20
-96.1983
 11
-38.7934
 21
-96.2771
  0
LINE
  8
0
 10
-38.7934
 20
-96.2771
 11
-38.7209
 21
-96.3521
  0
LINE
  8
0
 10
-38.7209
 20
-96.3521
 11
-38.6503
 21
-96.4292
  0
LINE
  8
0
 10
-38.6503
 20
-96.4292
 11
-37.9293
 21
-97.2586
  0
LINE
  8
0
 10
-37.9293
 20
-97.2586
 11
-37.8004
 21
-97.4236
  0
LINE
  8
0
 10
-37.8004
 20
-97.4236
 11
-37.2002
 21
-98.2807
  0
LINE
  8
0
 10
-37.2002
 20
-98.2807
 11
-37.0892
 21
-98.4583
  0
LINE
  8
0
 10
-37.0892
 20
-98.4583
 11
-36.5566
 21
-99.4193
  0
LINE
  8
0
 10
-36.5566
 20
-99.4193
 11
-36.5082
 21
-99.5121
  0
LINE
  8
0
 10
-36.5082
 20
-99.5121
 11
-36.4625
 21
-99.6058
  0
LINE
  8
0
 10
-36.4625
 20
-99.6058
 11
-36.4117
 21
-99.6975
  0
LINE
  8
0
 10
-36.4117
 20
-99.6975
 11
-36.0659
 21
-100.251
  0
LINE
  8
0
 10
-36.0659
 20
-100.251
 11
-36.0366
 21
-100.295
  0
LINE
  8
0
 10
-36.0366
 20
-100.295
 11
-34.4199
 21
-102.604
  0
LINE
  8
0
 10
-34.4199
 20
-102.604
 11
-34.3888
 21
-102.646
  0
LINE
  8
0
 10
-34.3888
 20
-102.646
 11
-33.9864
 21
-103.161
  0
LINE
  8
0
 10
-33.9864
 20
-103.161
 11
-33.918
 21
-103.24
  0
LINE
  8
0
 10
-33.918
 20
-103.24
 11
-33.7011
 21
-103.464
  0
LINE
  8
0
 10
-33.7011
 20
-103.464
 11
-33.6245
 21
-103.536
  0
LINE
  8
0
 10
-33.6245
 20
-103.536
 11
-33.3854
 21
-103.737
  0
LINE
  8
0
 10
-33.3854
 20
-103.737
 11
-33.302
 21
-103.799
  0
LINE
  8
0
 10
-33.302
 20
-103.799
 11
-33.0429
 21
-103.974
  0
LINE
  8
0
 10
-33.0429
 20
-103.974
 11
-32.9535
 21
-104.028
  0
LINE
  8
0
 10
-32.9535
 20
-104.028
 11
-32.6778
 21
-104.174
  0
LINE
  8
0
 10
-32.6778
 20
-104.174
 11
-32.5827
 21
-104.219
  0
LINE
  8
0
 10
-32.5827
 20
-104.219
 11
-32.2935
 21
-104.336
  0
LINE
  8
0
 10
-32.2935
 20
-104.336
 11
-32.1945
 21
-104.37
  0
LINE
  8
0
 10
-32.1945
 20
-104.37
 11
-31.7381
 21
-104.501
  0
LINE
  8
0
 10
-31.7381
 20
-104.501
 11
-31.6385
 21
-104.532
  0
LINE
  8
0
 10
-31.6385
 20
-104.532
 11
-31.5754
 21
-104.554
  0
LINE
  8
0
 10
-31.5754
 20
-104.554
 11
-31.5249
 21
-104.57
  0
LINE
  8
0
 10
-31.5249
 20
-104.57
 11
-30.6656
 21
-104.816
  0
LINE
  8
0
 10
-30.6656
 20
-104.816
 11
-30.5632
 21
-104.84
  0
LINE
  8
0
 10
-30.5632
 20
-104.84
 11
-30.256
 21
-104.894
  0
LINE
  8
0
 10
-30.256
 20
-104.894
 11
-30.1524
 21
-104.907
  0
LINE
  8
0
 10
-30.1524
 20
-104.907
 11
-29.8407
 21
-104.928
  0
LINE
  8
0
 10
-29.8407
 20
-104.928
 11
-29.7363
 21
-104.93
  0
LINE
  8
0
 10
-29.7363
 20
-104.93
 11
-29.4241
 21
-104.919
  0
LINE
  8
0
 10
-29.4241
 20
-104.919
 11
-29.3202
 21
-104.91
  0
LINE
  8
0
 10
-29.3202
 20
-104.91
 11
-29.0106
 21
-104.867
  0
LINE
  8
0
 10
-29.0106
 20
-104.867
 11
-28.9082
 21
-104.847
  0
LINE
  8
0
 10
-28.9082
 20
-104.847
 11
-28.6052
 21
-104.771
  0
LINE
  8
0
 10
-28.6052
 20
-104.771
 11
-28.5052
 21
-104.741
  0
LINE
  8
0
 10
-28.5052
 20
-104.741
 11
-28.2116
 21
-104.634
  0
LINE
  8
0
 10
-28.2116
 20
-104.634
 11
-28.1155
 21
-104.593
  0
LINE
  8
0
 10
-28.1155
 20
-104.593
 11
-27.8348
 21
-104.456
  0
LINE
  8
0
 10
-27.8348
 20
-104.456
 11
-27.7433
 21
-104.405
  0
LINE
  8
0
 10
-27.7433
 20
-104.405
 11
-27.1895
 21
-104.059
  0
LINE
  8
0
 10
-27.1895
 20
-104.059
 11
-27.1459
 21
-104.03
  0
LINE
  8
0
 10
-27.1459
 20
-104.03
 11
-16.2356
 21
-96.391
  0
LINE
  8
0
 10
-16.2356
 20
-96.391
 11
-16.1935
 21
-96.3599
  0
LINE
  8
0
 10
-16.1935
 20
-96.3599
 11
-15.6787
 21
-95.9577
  0
LINE
  8
0
 10
-15.6787
 20
-95.9577
 11
-15.5996
 21
-95.8889
  0
LINE
  8
0
 10
-15.5996
 20
-95.8889
 11
-15.3752
 21
-95.6722
  0
LINE
  8
0
 10
-15.3752
 20
-95.6722
 11
-15.3039
 21
-95.5957
  0
LINE
  8
0
 10
-15.3039
 20
-95.5957
 11
-15.0358
 21
-95.2762
  0
LINE
  8
0
 10
-15.0358
 20
-95.2762
 11
-14.9664
 21
-95.1978
  0
LINE
  8
0
 10
-14.9664
 20
-95.1978
 11
-14.217
 21
-94.3941
  0
LINE
  8
0
 10
-14.217
 20
-94.3941
 11
-14.0664
 21
-94.2486
  0
LINE
  8
0
 10
-14.0664
 20
-94.2486
 11
-13.2767
 21
-93.5622
  0
LINE
  8
0
 10
-13.2767
 20
-93.5622
 11
-13.1117
 21
-93.4333
  0
LINE
  8
0
 10
-13.1117
 20
-93.4333
 11
-12.2545
 21
-92.833
  0
LINE
  8
0
 10
-12.2545
 20
-92.833
 11
-12.0769
 21
-92.7221
  0
LINE
  8
0
 10
-12.0769
 20
-92.7221
 11
-11.1771
 21
-92.2233
  0
LINE
  8
0
 10
-11.1771
 20
-92.2233
 11
-10.9566
 21
-92.1182
  0
LINE
  8
0
 10
-10.9566
 20
-92.1182
 11
-9.58261
 21
-91.563
  0
LINE
  8
0
 10
-9.58261
 20
-91.563
 11
-9.45145
 21
-91.5153
  0
LINE
  8
0
 10
-9.45145
 20
-91.5153
 11
-1.40594
 21
-88.9011
  0
LINE
  8
0
 10
-1.40594
 20
-88.9011
 11
-1.30553
 21
-88.8714
  0
LINE
  8
0
 10
-1.30553
 20
-88.8714
 11
-0.24408
 21
-88.587
  0
LINE
  8
0
 10
-0.24408
 20
-88.587
 11
-0.0393524
 21
-88.5435
  0
LINE
  8
0
 10
-0.0393524
 20
-88.5435
 11
0.994186
 21
-88.3798
  0
LINE
  8
0
 10
0.994186
 20
-88.3798
 11
1.20241
 21
-88.3579
  0
LINE
  8
0
 10
1.20241
 20
-88.3579
 11
2.24736
 21
-88.3031
  0
LINE
  8
0
 10
2.24736
 20
-88.3031
 11
2.45671
 21
-88.3031
  0
LINE
  8
0
 10
2.45671
 20
-88.3031
 11
3.52266
 21
-88.359
  0
LINE
  8
0
 10
3.52266
 20
-88.359
 11
3.68942
 21
-88.3747
  0
LINE
  8
0
 10
3.68942
 20
-88.3747
 11
4.3222
 21
-88.4614
  0
LINE
  8
0
 10
4.3222
 20
-88.4614
 11
4.38432
 21
-88.4709
  0
LINE
  8
0
 10
4.38432
 20
-88.4709
 11
5.46831
 21
-88.6543
  0
LINE
  8
0
 10
5.46831
 20
-88.6543
 11
5.52034
 21
-88.6617
  0
LINE
  8
0
 10
5.52034
 20
-88.6617
 11
18.7509
 21
-90.1925
  0
LINE
  8
0
 10
18.7509
 20
-90.1925
 11
18.8034
 21
-90.1972
  0
LINE
  8
0
 10
18.8034
 20
-90.1972
 11
19.4549
 21
-90.2382
  0
LINE
  8
0
 10
19.4549
 20
-90.2382
 11
19.5597
 21
-90.2393
  0
LINE
  8
0
 10
19.5597
 20
-90.2393
 11
19.8717
 21
-90.2262
  0
LINE
  8
0
 10
19.8717
 20
-90.2262
 11
19.9756
 21
-90.2164
  0
LINE
  8
0
 10
19.9756
 20
-90.2164
 11
20.2846
 21
-90.1707
  0
LINE
  8
0
 10
20.2846
 20
-90.1707
 11
20.387
 21
-90.1501
  0
LINE
  8
0
 10
20.387
 20
-90.1501
 11
20.6894
 21
-90.0725
  0
LINE
  8
0
 10
20.6894
 20
-90.0725
 11
20.7896
 21
-90.041
  0
LINE
  8
0
 10
20.7896
 20
-90.041
 11
21.0818
 21
-89.9324
  0
LINE
  8
0
 10
21.0818
 20
-89.9324
 11
21.1781
 21
-89.8907
  0
LINE
  8
0
 10
21.1781
 20
-89.8907
 11
21.4576
 21
-89.752
  0
LINE
  8
0
 10
21.4576
 20
-89.752
 11
21.5489
 21
-89.7006
  0
LINE
  8
0
 10
21.5489
 20
-89.7006
 11
21.8122
 21
-89.5334
  0
LINE
  8
0
 10
21.8122
 20
-89.5334
 11
21.8979
 21
-89.4725
  0
LINE
  8
0
 10
21.8979
 20
-89.4725
 11
22.1421
 21
-89.279
  0
LINE
  8
0
 10
22.1421
 20
-89.279
 11
22.2209
 21
-89.2095
  0
LINE
  8
0
 10
22.2209
 20
-89.2095
 11
22.8599
 21
-88.5837
  0
LINE
  8
0
 10
22.8599
 20
-88.5837
 11
22.8961
 21
-88.5464
  0
LINE
  8
0
 10
22.8961
 20
-88.5464
 11
22.9416
 21
-88.497
  0
LINE
  8
0
 10
22.9416
 20
-88.497
 11
23.0145
 21
-88.4217
  0
LINE
  8
0
 10
23.0145
 20
-88.4217
 11
23.3533
 21
-88.0899
  0
LINE
  8
0
 10
23.3533
 20
-88.0899
 11
23.4244
 21
-88.0126
  0
LINE
  8
0
 10
23.4244
 20
-88.0126
 11
23.6234
 21
-87.7721
  0
LINE
  8
0
 10
23.6234
 20
-87.7721
 11
23.6857
 21
-87.6882
  0
LINE
  8
0
 10
23.6857
 20
-87.6882
 11
23.8585
 21
-87.4281
  0
LINE
  8
0
 10
23.8585
 20
-87.4281
 11
23.9117
 21
-87.3382
  0
LINE
  8
0
 10
23.9117
 20
-87.3382
 11
24.0564
 21
-87.0613
  0
LINE
  8
0
 10
24.0564
 20
-87.0613
 11
24.0999
 21
-86.9662
  0
LINE
  8
0
 10
24.0999
 20
-86.9662
 11
24.2148
 21
-86.6761
  0
LINE
  8
0
 10
24.2148
 20
-86.6761
 11
24.2482
 21
-86.577
  0
LINE
  8
0
 10
24.2482
 20
-86.577
 11
24.3322
 21
-86.2761
  0
LINE
  8
0
 10
24.3322
 20
-86.2761
 11
24.355
 21
-86.174
  0
LINE
  8
0
 10
24.355
 20
-86.174
 11
24.4639
 21
-85.5302
  0
LINE
  8
0
 10
24.4639
 20
-85.5302
 11
24.4713
 21
-85.4781
  0
LINE
  8
0
 10
24.4713
 20
-85.4781
 11
24.7953
 21
-82.6778
  0
LINE
  8
0
 10
24.7953
 20
-82.6778
 11
24.8
 21
-82.6255
  0
LINE
  8
0
 10
24.8
 20
-82.6255
 11
24.841
 21
-81.9741
  0
LINE
  8
0
 10
24.841
 20
-81.9741
 11
24.8421
 21
-81.8692
  0
LINE
  8
0
 10
24.8421
 20
-81.8692
 11
24.8377
 21
-81.7652
  0
LINE
  8
0
 10
24.8377
 20
-81.7652
 11
24.8361
 21
-81.6605
  0
LINE
  8
0
 10
24.8361
 20
-81.6605
 11
24.8476
 21
-80.5616
  0
LINE
  8
0
 10
24.8476
 20
-80.5616
 11
24.8607
 21
-80.3526
  0
LINE
  8
0
 10
24.8607
 20
-80.3526
 11
24.981
 21
-79.3132
  0
LINE
  8
0
 10
24.981
 20
-79.3132
 11
25.0159
 21
-79.1068
  0
LINE
  8
0
 10
25.0159
 20
-79.1068
 11
25.2556
 21
-78.0346
  0
LINE
  8
0
 10
25.2556
 20
-78.0346
 11
25.2811
 21
-77.9331
  0
LINE
  8
0
 10
25.2811
 20
-77.9331
 11
25.3092
 21
-77.8324
  0
LINE
  8
0
 10
25.3092
 20
-77.8324
 11
25.332
 21
-77.7305
  0
LINE
  8
0
 10
25.332
 20
-77.7305
 11
25.4408
 21
-77.0869
  0
LINE
  8
0
 10
25.4408
 20
-77.0869
 11
25.4483
 21
-77.0342
  0
LINE
  8
0
 10
25.4483
 20
-77.0342
 11
25.7896
 21
-74.0844
  0
LINE
  8
0
 10
25.7896
 20
-74.0844
 11
25.8042
 21
-73.9814
  0
LINE
  8
0
 10
25.8042
 20
-73.9814
 11
25.8272
 21
-73.8454
  0
LINE
  8
0
 10
25.8272
 20
-73.8454
 11
25.8956
 21
-73.2537
  0
LINE
  8
0
 10
25.8956
 20
-73.2537
 11
25.9305
 21
-73.0473
  0
LINE
  8
0
 10
25.9305
 20
-73.0473
 11
26.1587
 21
-72.026
  0
LINE
  8
0
 10
26.1587
 20
-72.026
 11
26.215
 21
-71.8243
  0
LINE
  8
0
 10
26.215
 20
-71.8243
 11
26.5487
 21
-70.8325
  0
LINE
  8
0
 10
26.5487
 20
-70.8325
 11
26.6258
 21
-70.6379
  0
LINE
  8
0
 10
26.6258
 20
-70.6379
 11
27.0613
 21
-69.6865
  0
LINE
  8
0
 10
27.0613
 20
-69.6865
 11
27.1583
 21
-69.501
  0
LINE
  8
0
 10
27.1583
 20
-69.501
 11
27.691
 21
-68.6001
  0
LINE
  8
0
 10
27.691
 20
-68.6001
 11
27.8068
 21
-68.4257
  0
LINE
  8
0
 10
27.8068
 20
-68.4257
 11
28.4306
 21
-67.5857
  0
LINE
  8
0
 10
28.4306
 20
-67.5857
 11
28.564
 21
-67.4244
  0
LINE
  8
0
 10
28.564
 20
-67.4244
 11
29.2723
 21
-66.654
  0
LINE
  8
0
 10
29.2723
 20
-66.654
 11
29.4219
 21
-66.5075
  0
LINE
  8
0
 10
29.4219
 20
-66.5075
 11
30.2068
 21
-65.8155
  0
LINE
  8
0
 10
30.2068
 20
-65.8155
 11
30.3708
 21
-65.6854
  0
LINE
  8
0
 10
30.3708
 20
-65.6854
 11
31.2238
 21
-65.0792
  0
LINE
  8
0
 10
31.2238
 20
-65.0792
 11
31.4005
 21
-64.967
  0
LINE
  8
0
 10
31.4005
 20
-64.967
 11
32.312
 21
-64.4533
  0
LINE
  8
0
 10
32.312
 20
-64.4533
 11
32.4996
 21
-64.3602
  0
LINE
  8
0
 10
32.4996
 20
-64.3602
 11
33.4601
 21
-63.9445
  0
LINE
  8
0
 10
33.4601
 20
-63.9445
 11
33.6562
 21
-63.8715
  0
LINE
  8
0
 10
33.6562
 20
-63.8715
 11
34.6548
 21
-63.5585
  0
LINE
  8
0
 10
34.6548
 20
-63.5585
 11
34.8575
 21
-63.5065
  0
LINE
  8
0
 10
34.8575
 20
-63.5065
 11
35.8626
 21
-63.3037
  0
LINE
  8
0
 10
35.8626
 20
-63.3037
 11
36.1115
 21
-63.2696
  0
LINE
  8
0
 10
36.1115
 20
-63.2696
 11
37.6667
 21
-63.1554
  0
LINE
  8
0
 10
37.6667
 20
-63.1554
 11
37.8132
 21
-63.15
  0
LINE
  8
0
 10
37.8132
 20
-63.15
 11
39.5271
 21
-63.15
  0
LINE
  8
0
 10
39.5271
 20
-63.15
 11
39.6317
 21
-63.1527
  0
LINE
  8
0
 10
39.6317
 20
-63.1527
 11
40.729
 21
-63.2102
  0
LINE
  8
0
 10
40.729
 20
-63.2102
 11
40.9372
 21
-63.2321
  0
LINE
  8
0
 10
40.9372
 20
-63.2321
 11
41.9706
 21
-63.3958
  0
LINE
  8
0
 10
41.9706
 20
-63.3958
 11
42.1754
 21
-63.4393
  0
LINE
  8
0
 10
42.1754
 20
-63.4393
 11
43.1864
 21
-63.7102
  0
LINE
  8
0
 10
43.1864
 20
-63.7102
 11
43.3855
 21
-63.7749
  0
LINE
  8
0
 10
43.3855
 20
-63.7749
 11
44.3623
 21
-64.1499
  0
LINE
  8
0
 10
44.3623
 20
-64.1499
 11
44.5536
 21
-64.235
  0
LINE
  8
0
 10
44.5536
 20
-64.235
 11
45.4859
 21
-64.7101
  0
LINE
  8
0
 10
45.4859
 20
-64.7101
 11
45.6672
 21
-64.8148
  0
LINE
  8
0
 10
45.6672
 20
-64.8148
 11
46.5667
 21
-65.3989
  0
LINE
  8
0
 10
46.5667
 20
-65.3989
 11
46.695
 21
-65.4895
  0
LINE
  8
0
 10
46.695
 20
-65.4895
 11
47.1108
 21
-65.8087
  0
LINE
  8
0
 10
47.1108
 20
-65.8087
 11
47.152
 21
-65.8411
  0
LINE
  8
0
 10
47.152
 20
-65.8411
 11
47.7678
 21
-66.3398
  0
LINE
  8
0
 10
47.7678
 20
-66.3398
 11
47.8522
 21
-66.4011
  0
LINE
  8
0
 10
47.8522
 20
-66.4011
 11
48.1143
 21
-66.5713
  0
LINE
  8
0
 10
48.1143
 20
-66.5713
 11
48.2049
 21
-66.6236
  0
LINE
  8
0
 10
48.2049
 20
-66.6236
 11
48.4831
 21
-66.7654
  0
LINE
  8
0
 10
48.4831
 20
-66.7654
 11
48.5786
 21
-66.8079
  0
LINE
  8
0
 10
48.5786
 20
-66.8079
 11
48.8701
 21
-66.9198
  0
LINE
  8
0
 10
48.8701
 20
-66.9198
 11
48.9697
 21
-66.9521
  0
LINE
  8
0
 10
48.9697
 20
-66.9521
 11
49.2712
 21
-67.0329
  0
LINE
  8
0
 10
49.2712
 20
-67.0329
 11
49.3735
 21
-67.0547
  0
LINE
  8
0
 10
49.3735
 20
-67.0547
 11
49.6819
 21
-67.1035
  0
LINE
  8
0
 10
49.6819
 20
-67.1035
 11
49.7859
 21
-67.1145
  0
LINE
  8
0
 10
49.7859
 20
-67.1145
 11
50.4377
 21
-67.1486
  0
LINE
  8
0
 10
50.4377
 20
-67.1486
 11
50.4904
 21
-67.15
  0
LINE
  8
0
 10
50.4904
 20
-67.15
 11
57.5513
 21
-67.15
  0
LINE
  8
0
 10
57.5513
 20
-67.15
 11
57.656
 21
-67.1527
  0
LINE
  8
0
 10
57.656
 20
-67.1527
 11
58.5584
 21
-67.2
  0
LINE
  8
0
 10
58.5584
 20
-67.2
 11
58.7666
 21
-67.2219
  0
LINE
  8
0
 10
58.7666
 20
-67.2219
 11
58.9713
 21
-67.2654
  0
LINE
  8
0
 10
58.9713
 20
-67.2654
 11
59.1704
 21
-67.3301
  0
LINE
  8
0
 10
59.1704
 20
-67.3301
 11
59.3617
 21
-67.4153
  0
LINE
  8
0
 10
59.3617
 20
-67.4153
 11
59.543
 21
-67.5199
  0
LINE
  8
0
 10
59.543
 20
-67.5199
 11
59.7124
 21
-67.643
  0
LINE
  8
0
 10
59.7124
 20
-67.643
 11
59.8679
 21
-67.7831
  0
LINE
  8
0
 10
59.8679
 20
-67.7831
 11
60.008
 21
-67.9386
  0
LINE
  8
0
 10
60.008
 20
-67.9386
 11
60.1311
 21
-68.108
  0
LINE
  8
0
 10
60.1311
 20
-68.108
 11
60.2357
 21
-68.2893
  0
LINE
  8
0
 10
60.2357
 20
-68.2893
 11
60.3209
 21
-68.4805
  0
LINE
  8
0
 10
60.3209
 20
-68.4805
 11
60.3856
 21
-68.6796
  0
LINE
  8
0
 10
60.3856
 20
-68.6796
 11
60.4428
 21
-68.9882
  0
LINE
  8
0
 10
60.4428
 20
-68.9882
 11
60.4538
 21
-69.0928
  0
LINE
  8
0
 10
60.4538
 20
-69.0928
 11
60.4605
 21
-69.1442
  0
LINE
  8
0
 10
60.4605
 20
-69.1442
 11
60.4728
 21
-69.2219
  0
LINE
  8
0
 10
60.4728
 20
-69.2219
 11
60.4823
 21
-69.2732
  0
LINE
  8
0
 10
60.4823
 20
-69.2732
 11
60.5151
 21
-69.4272
  0
LINE
  8
0
 10
60.5151
 20
-69.4272
 11
60.5272
 21
-69.4776
  0
LINE
  8
0
 10
60.5272
 20
-69.4776
 11
60.5476
 21
-69.5537
  0
LINE
  8
0
 10
60.5476
 20
-69.5537
 11
60.5625
 21
-69.604
  0
LINE
  8
0
 10
60.5625
 20
-69.604
 11
60.611
 21
-69.7534
  0
LINE
  8
0
 10
60.611
 20
-69.7534
 11
60.6284
 21
-69.8024
  0
LINE
  8
0
 10
60.6284
 20
-69.8024
 11
60.6564
 21
-69.8753
  0
LINE
  8
0
 10
60.6564
 20
-69.8753
 11
60.6767
 21
-69.9244
  0
LINE
  8
0
 10
60.6767
 20
-69.9244
 11
60.7404
 21
-70.0675
  0
LINE
  8
0
 10
60.7404
 20
-70.0675
 11
60.7628
 21
-70.1144
  0
LINE
  8
0
 10
60.7628
 20
-70.1144
 11
60.7984
 21
-70.1844
  0
LINE
  8
0
 10
60.7984
 20
-70.1844
 11
60.8237
 21
-70.231
  0
LINE
  8
0
 10
60.8237
 20
-70.231
 11
60.9019
 21
-70.3663
  0
LINE
  8
0
 10
60.9019
 20
-70.3663
 11
60.9296
 21
-70.4116
  0
LINE
  8
0
 10
60.9296
 20
-70.4116
 11
60.9721
 21
-70.4771
  0
LINE
  8
0
 10
60.9721
 20
-70.4771
 11
61.0019
 21
-70.5204
  0
LINE
  8
0
 10
61.0019
 20
-70.5204
 11
61.0942
 21
-70.6473
  0
LINE
  8
0
 10
61.0942
 20
-70.6473
 11
61.1259
 21
-70.6887
  0
LINE
  8
0
 10
61.1259
 20
-70.6887
 11
61.1752
 21
-70.7496
  0
LINE
  8
0
 10
61.1752
 20
-70.7496
 11
61.2094
 21
-70.7896
  0
LINE
  8
0
 10
61.2094
 20
-70.7896
 11
61.3144
 21
-70.9063
  0
LINE
  8
0
 10
61.3144
 20
-70.9063
 11
61.3501
 21
-70.9438
  0
LINE
  8
0
 10
61.3501
 20
-70.9438
 11
61.4059
 21
-70.9996
  0
LINE
  8
0
 10
61.4059
 20
-70.9996
 11
61.4436
 21
-71.0354
  0
LINE
  8
0
 10
61.4436
 20
-71.0354
 11
61.5605
 21
-71.1407
  0
LINE
  8
0
 10
61.5605
 20
-71.1407
 11
61.6003
 21
-71.1747
  0
LINE
  8
0
 10
61.6003
 20
-71.1747
 11
61.6615
 21
-71.2242
  0
LINE
  8
0
 10
61.6615
 20
-71.2242
 11
61.7027
 21
-71.2559
  0
LINE
  8
0
 10
61.7027
 20
-71.2559
 11
61.8297
 21
-71.3481
  0
LINE
  8
0
 10
61.8297
 20
-71.3481
 11
61.8732
 21
-71.378
  0
LINE
  8
0
 10
61.8732
 20
-71.378
 11
61.9384
 21
-71.4203
  0
LINE
  8
0
 10
61.9384
 20
-71.4203
 11
61.9836
 21
-71.4481
  0
LINE
  8
0
 10
61.9836
 20
-71.4481
 11
62.119
 21
-71.5263
  0
LINE
  8
0
 10
62.119
 20
-71.5263
 11
62.1655
 21
-71.5515
  0
LINE
  8
0
 10
62.1655
 20
-71.5515
 11
62.2354
 21
-71.5871
  0
LINE
  8
0
 10
62.2354
 20
-71.5871
 11
62.2824
 21
-71.6095
  0
LINE
  8
0
 10
62.2824
 20
-71.6095
 11
62.4258
 21
-71.6734
  0
LINE
  8
0
 10
62.4258
 20
-71.6734
 11
62.4747
 21
-71.6936
  0
LINE
  8
0
 10
62.4747
 20
-71.6936
 11
62.5478
 21
-71.7217
  0
LINE
  8
0
 10
62.5478
 20
-71.7217
 11
62.5965
 21
-71.7389
  0
LINE
  8
0
 10
62.5965
 20
-71.7389
 11
62.7465
 21
-71.7877
  0
LINE
  8
0
 10
62.7465
 20
-71.7877
 11
62.7964
 21
-71.8024
  0
LINE
  8
0
 10
62.7964
 20
-71.8024
 11
62.8721
 21
-71.8227
  0
LINE
  8
0
 10
62.8721
 20
-71.8227
 11
62.923
 21
-71.835
  0
LINE
  8
0
 10
62.923
 20
-71.835
 11
63.0768
 21
-71.8677
  0
LINE
  8
0
 10
63.0768
 20
-71.8677
 11
63.1276
 21
-71.8771
  0
LINE
  8
0
 10
63.1276
 20
-71.8771
 11
63.2054
 21
-71.8894
  0
LINE
  8
0
 10
63.2054
 20
-71.8894
 11
63.2576
 21
-71.8963
  0
LINE
  8
0
 10
63.2576
 20
-71.8963
 11
63.4136
 21
-71.9127
  0
LINE
  8
0
 10
63.4136
 20
-71.9127
 11
63.466
 21
-71.9168
  0
LINE
  8
0
 10
63.466
 20
-71.9168
 11
63.5445
 21
-71.9209
  0
LINE
  8
0
 10
63.5445
 20
-71.9209
 11
63.5965
 21
-71.9223
  0
LINE
  8
0
 10
63.5965
 20
-71.9223
 11
63.7535
 21
-71.9223
  0
LINE
  8
0
 10
63.7535
 20
-71.9223
 11
63.8054
 21
-71.9209
  0
LINE
  8
0
 10
63.8054
 20
-71.9209
 11
63.8839
 21
-71.9168
  0
LINE
  8
0
 10
63.8839
 20
-71.9168
 11
63.9364
 21
-71.9127
  0
LINE
  8
0
 10
63.9364
 20
-71.9127
 11
64.0924
 21
-71.8963
  0
LINE
  8
0
 10
64.0924
 20
-71.8963
 11
64.1446
 21
-71.8894
  0
LINE
  8
0
 10
64.1446
 20
-71.8894
 11
64.222
 21
-71.8771
  0
LINE
  8
0
 10
64.222
 20
-71.8771
 11
64.2736
 21
-71.8676
  0
LINE
  8
0
 10
64.2736
 20
-71.8676
 11
64.4269
 21
-71.835
  0
LINE
  8
0
 10
64.4269
 20
-71.835
 11
64.4778
 21
-71.8228
  0
LINE
  8
0
 10
64.4778
 20
-71.8228
 11
64.5531
 21
-71.8026
  0
LINE
  8
0
 10
64.5531
 20
-71.8026
 11
64.6041
 21
-71.7875
  0
LINE
  8
0
 10
64.6041
 20
-71.7875
 11
64.753
 21
-71.7391
  0
LINE
  8
0
 10
64.753
 20
-71.7391
 11
64.8027
 21
-71.7215
  0
LINE
  8
0
 10
64.8027
 20
-71.7215
 11
64.8755
 21
-71.6935
  0
LINE
  8
0
 10
64.8755
 20
-71.6935
 11
64.9241
 21
-71.6734
  0
LINE
  8
0
 10
64.9241
 20
-71.6734
 11
65.0678
 21
-71.6094
  0
LINE
  8
0
 10
65.0678
 20
-71.6094
 11
65.1144
 21
-71.5872
  0
LINE
  8
0
 10
65.1144
 20
-71.5872
 11
65.1845
 21
-71.5515
  0
LINE
  8
0
 10
65.1845
 20
-71.5515
 11
65.2024
 21
-71.5418
  0
LINE
  8
0
 10
65.2024
 20
-71.5418
 11
65.3913
 21
-71.4516
  0
LINE
  8
0
 10
65.3913
 20
-71.4516
 11
65.5886
 21
-71.3817
  0
LINE
  8
0
 10
65.5886
 20
-71.3817
 11
65.7922
 21
-71.3328
  0
LINE
  8
0
 10
65.7922
 20
-71.3328
 11
65.9997
 21
-71.3054
  0
LINE
  8
0
 10
65.9997
 20
-71.3054
 11
66.209
 21
-71.2999
  0
LINE
  8
0
 10
66.209
 20
-71.2999
 11
66.4177
 21
-71.3162
  0
LINE
  8
0
 10
66.4177
 20
-71.3162
 11
66.6236
 21
-71.3543
  0
LINE
  8
0
 10
66.6236
 20
-71.3543
 11
66.8243
 21
-71.4138
  0
LINE
  8
0
 10
66.8243
 20
-71.4138
 11
67.0177
 21
-71.4938
  0
LINE
  8
0
 10
67.0177
 20
-71.4938
 11
67.1573
 21
-71.5672
  0
LINE
  8
0
 10
67.1573
 20
-71.5672
 11
67.2548
 21
-71.6236
  0
LINE
  8
0
 10
67.2548
 20
-71.6236
 11
67.5331
 21
-71.7654
  0
LINE
  8
0
 10
67.5331
 20
-71.7654
 11
67.6286
 21
-71.8079
  0
LINE
  8
0
 10
67.6286
 20
-71.8079
 11
67.9202
 21
-71.9198
  0
LINE
  8
0
 10
67.9202
 20
-71.9198
 11
68.0197
 21
-71.9521
  0
LINE
  8
0
 10
68.0197
 20
-71.9521
 11
68.3212
 21
-72.0329
  0
LINE
  8
0
 10
68.3212
 20
-72.0329
 11
68.4235
 21
-72.0547
  0
LINE
  8
0
 10
68.4235
 20
-72.0547
 11
68.7319
 21
-72.1035
  0
LINE
  8
0
 10
68.7319
 20
-72.1035
 11
68.8359
 21
-72.1145
  0
LINE
  8
0
 10
68.8359
 20
-72.1145
 11
69.4877
 21
-72.1486
  0
LINE
  8
0
 10
69.4877
 20
-72.1486
 11
69.5404
 21
-72.15
  0
LINE
  8
0
 10
69.5404
 20
-72.15
 11
82.6884
 21
-72.15
  0
LINE
  8
0
 10
82.6884
 20
-72.15
 11
82.7931
 21
-72.1527
  0
LINE
  8
0
 10
82.7931
 20
-72.1527
 11
83.8903
 21
-72.2102
  0
LINE
  8
0
 10
83.8903
 20
-72.2102
 11
84.0985
 21
-72.2321
  0
LINE
  8
0
 10
84.0985
 20
-72.2321
 11
85.132
 21
-72.3958
  0
LINE
  8
0
 10
85.132
 20
-72.3958
 11
85.3367
 21
-72.4393
  0
LINE
  8
0
 10
85.3367
 20
-72.4393
 11
86.373
 21
-72.717
  0
LINE
  8
0
 10
86.373
 20
-72.717
 11
86.523
 21
-72.7636
  0
LINE
  8
0
 10
86.523
 20
-72.7636
 11
86.9747
 21
-72.9235
  0
LINE
  8
0
 10
86.9747
 20
-72.9235
 11
87.0493
 21
-72.9467
  0
LINE
  8
0
 10
87.0493
 20
-72.9467
 11
87.3712
 21
-73.0329
  0
LINE
  8
0
 10
87.3712
 20
-73.0329
 11
87.4735
 21
-73.0547
  0
LINE
  8
0
 10
87.4735
 20
-73.0547
 11
87.7819
 21
-73.1035
  0
LINE
  8
0
 10
87.7819
 20
-73.1035
 11
87.8859
 21
-73.1145
  0
LINE
  8
0
 10
87.8859
 20
-73.1145
 11
88.5378
 21
-73.1486
  0
LINE
  8
0
 10
88.5378
 20
-73.1486
 11
88.5904
 21
-73.15
  0
LINE
  8
0
 10
88.5904
 20
-73.15
 11
101.91
 21
-73.15
  0
LINE
  8
0
 10
101.91
 20
-73.15
 11
101.962
 21
-73.1486
  0
LINE
  8
0
 10
101.962
 20
-73.1486
 11
102.614
 21
-73.1145
  0
LINE
  8
0
 10
102.614
 20
-73.1145
 11
102.718
 21
-73.1035
  0
LINE
  8
0
 10
102.718
 20
-73.1035
 11
103.026
 21
-73.0547
  0
LINE
  8
0
 10
103.026
 20
-73.0547
 11
103.129
 21
-73.0329
  0
LINE
  8
0
 10
103.129
 20
-73.0329
 11
103.43
 21
-72.9521
  0
LINE
  8
0
 10
103.43
 20
-72.9521
 11
103.53
 21
-72.9198
  0
LINE
  8
0
 10
103.53
 20
-72.9198
 11
103.821
 21
-72.8079
  0
LINE
  8
0
 10
103.821
 20
-72.8079
 11
103.917
 21
-72.7654
  0
LINE
  8
0
 10
103.917
 20
-72.7654
 11
104.195
 21
-72.6236
  0
LINE
  8
0
 10
104.195
 20
-72.6236
 11
104.286
 21
-72.5712
  0
LINE
  8
0
 10
104.286
 20
-72.5712
 11
104.548
 21
-72.4012
  0
LINE
  8
0
 10
104.548
 20
-72.4012
 11
104.632
 21
-72.3398
  0
LINE
  8
0
 10
104.632
 20
-72.3398
 11
104.875
 21
-72.1432
  0
LINE
  8
0
 10
104.875
 20
-72.1432
 11
104.953
 21
-72.0733
  0
LINE
  8
0
 10
104.953
 20
-72.0733
 11
105.173
 21
-71.8526
  0
LINE
  8
0
 10
105.173
 20
-71.8526
 11
105.243
 21
-71.7747
  0
LINE
  8
0
 10
105.243
 20
-71.7747
 11
105.806
 21
-71.0795
  0
LINE
  8
0
 10
105.806
 20
-71.0795
 11
105.838
 21
-71.0378
  0
LINE
  8
0
 10
105.838
 20
-71.0378
 11
105.877
 21
-70.984
  0
LINE
  8
0
 10
105.877
 20
-70.984
 11
105.941
 21
-70.9007
  0
LINE
  8
0
 10
105.941
 20
-70.9007
 11
106.24
 21
-70.5321
  0
LINE
  8
0
 10
106.24
 20
-70.5321
 11
106.301
 21
-70.4477
  0
LINE
  8
0
 10
106.301
 20
-70.4477
 11
106.471
 21
-70.1855
  0
LINE
  8
0
 10
106.471
 20
-70.1855
 11
106.524
 21
-70.0952
  0
LINE
  8
0
 10
106.524
 20
-70.0952
 11
106.665
 21
-69.8169
  0
LINE
  8
0
 10
106.665
 20
-69.8169
 11
106.708
 21
-69.7214
  0
LINE
  8
0
 10
106.708
 20
-69.7214
 11
106.82
 21
-69.4298
  0
LINE
  8
0
 10
106.82
 20
-69.4298
 11
106.852
 21
-69.3302
  0
LINE
  8
0
 10
106.852
 20
-69.3302
 11
106.933
 21
-69.0288
  0
LINE
  8
0
 10
106.933
 20
-69.0288
 11
106.955
 21
-68.9265
  0
LINE
  8
0
 10
106.955
 20
-68.9265
 11
107.004
 21
-68.6181
  0
LINE
  8
0
 10
107.004
 20
-68.6181
 11
107.014
 21
-68.5141
  0
LINE
  8
0
 10
107.014
 20
-68.5141
 11
107.049
 21
-67.8622
  0
LINE
  8
0
 10
107.049
 20
-67.8622
 11
107.05
 21
-67.8096
  0
LINE
  8
0
 10
107.05
 20
-67.8096
 11
107.05
 21
-64.9904
  0
LINE
  8
0
 10
107.05
 20
-64.9904
 11
107.049
 21
-64.9378
  0
LINE
  8
0
 10
107.049
 20
-64.9378
 11
107.014
 21
-64.286
  0
LINE
  8
0
 10
107.014
 20
-64.286
 11
107.004
 21
-64.182
  0
LINE
  8
0
 10
107.004
 20
-64.182
 11
106.987
 21
-64.0791
  0
LINE
  8
0
 10
106.987
 20
-64.0791
 11
106.974
 21
-63.9753
  0
LINE
  8
0
 10
106.974
 20
-63.9753
 11
106.859
 21
-62.8823
  0
LINE
  8
0
 10
106.859
 20
-62.8823
 11
106.848
 21
-62.6732
  0
LINE
  8
0
 10
106.848
 20
-62.6732
 11
106.848
 21
-61.6268
  0
LINE
  8
0
 10
106.848
 20
-61.6268
 11
106.859
 21
-61.4178
  0
LINE
  8
0
 10
106.859
 20
-61.4178
 11
106.974
 21
-60.3247
  0
LINE
  8
0
 10
106.974
 20
-60.3247
 11
106.987
 21
-60.2209
  0
LINE
  8
0
 10
106.987
 20
-60.2209
 11
107.004
 21
-60.1181
  0
LINE
  8
0
 10
107.004
 20
-60.1181
 11
107.014
 21
-60.014
  0
LINE
  8
0
 10
107.014
 20
-60.014
 11
107.049
 21
-59.3622
  0
LINE
  8
0
 10
107.049
 20
-59.3622
 11
107.05
 21
-59.3096
  0
LINE
  8
0
 10
107.05
 20
-59.3096
 11
107.05
 21
-56.4904
  0
LINE
  8
0
 10
107.05
 20
-56.4904
 11
107.049
 21
-56.4378
  0
LINE
  8
0
 10
107.049
 20
-56.4378
 11
107.014
 21
-55.786
  0
LINE
  8
0
 10
107.014
 20
-55.786
 11
107.003
 21
-55.6818
  0
LINE
  8
0
 10
107.003
 20
-55.6818
 11
106.884
 21
-54.9291
  0
LINE
  8
0
 10
106.884
 20
-54.9291
 11
106.875
 21
-54.8777
  0
LINE
  8
0
 10
106.875
 20
-54.8777
 11
106.817
 21
-54.6043
  0
LINE
  8
0
 10
106.817
 20
-54.6043
 11
106.784
 21
-54.3975
  0
LINE
  8
0
 10
106.784
 20
-54.3975
 11
106.675
 21
-53.3569
  0
LINE
  8
0
 10
106.675
 20
-53.3569
 11
106.664
 21
-53.1479
  0
LINE
  8
0
 10
106.664
 20
-53.1479
 11
106.664
 21
-52.1015
  0
LINE
  8
0
 10
106.664
 20
-52.1015
 11
106.675
 21
-51.8924
  0
LINE
  8
0
 10
106.675
 20
-51.8924
 11
106.784
 21
-50.8516
  0
LINE
  8
0
 10
106.784
 20
-50.8516
 11
106.817
 21
-50.6448
  0
LINE
  8
0
 10
106.817
 20
-50.6448
 11
106.875
 21
-50.3717
  0
LINE
  8
0
 10
106.875
 20
-50.3717
 11
106.884
 21
-50.3204
  0
LINE
  8
0
 10
106.884
 20
-50.3204
 11
107.004
 21
-49.5681
  0
LINE
  8
0
 10
107.004
 20
-49.5681
 11
107.014
 21
-49.4641
  0
LINE
  8
0
 10
107.014
 20
-49.4641
 11
107.049
 21
-48.8122
  0
LINE
  8
0
 10
107.049
 20
-48.8122
 11
107.05
 21
-48.7596
  0
LINE
  8
0
 10
107.05
 20
-48.7596
 11
107.05
 21
-45.9404
  0
LINE
  8
0
 10
107.05
 20
-45.9404
 11
107.049
 21
-45.8878
  0
LINE
  8
0
 10
107.049
 20
-45.8878
 11
107.014
 21
-45.236
  0
LINE
  8
0
 10
107.014
 20
-45.236
 11
107.004
 21
-45.132
  0
LINE
  8
0
 10
107.004
 20
-45.132
 11
106.987
 21
-45.0291
  0
LINE
  8
0
 10
106.987
 20
-45.0291
 11
106.974
 21
-44.9253
  0
LINE
  8
0
 10
106.974
 20
-44.9253
 11
106.859
 21
-43.8323
  0
LINE
  8
0
 10
106.859
 20
-43.8323
 11
106.848
 21
-43.6232
  0
LINE
  8
0
 10
106.848
 20
-43.6232
 11
106.848
 21
-42.5768
  0
LINE
  8
0
 10
106.848
 20
-42.5768
 11
106.859
 21
-42.3678
  0
LINE
  8
0
 10
106.859
 20
-42.3678
 11
106.974
 21
-41.2747
  0
LINE
  8
0
 10
106.974
 20
-41.2747
 11
106.987
 21
-41.1709
  0
LINE
  8
0
 10
106.987
 20
-41.1709
 11
107.004
 21
-41.0681
  0
LINE
  8
0
 10
107.004
 20
-41.0681
 11
107.014
 21
-40.964
  0
LINE
  8
0
 10
107.014
 20
-40.964
 11
107.049
 21
-40.3122
  0
LINE
  8
0
 10
107.049
 20
-40.3122
 11
107.05
 21
-40.2596
  0
LINE
  8
0
 10
107.05
 20
-40.2596
 11
107.05
 21
-37.4404
  0
LINE
  8
0
 10
107.05
 20
-37.4404
 11
107.049
 21
-37.3878
  0
LINE
  8
0
 10
107.049
 20
-37.3878
 11
107.014
 21
-36.7359
  0
LINE
  8
0
 10
107.014
 20
-36.7359
 11
107.004
 21
-36.6319
  0
LINE
  8
0
 10
107.004
 20
-36.6319
 11
106.884
 21
-35.8797
  0
LINE
  8
0
 10
106.884
 20
-35.8797
 11
106.875
 21
-35.8277
  0
LINE
  8
0
 10
106.875
 20
-35.8277
 11
106.817
 21
-35.5546
  0
LINE
  8
0
 10
106.817
 20
-35.5546
 11
106.784
 21
-35.3479
  0
LINE
  8
0
 10
106.784
 20
-35.3479
 11
106.675
 21
-34.3072
  0
LINE
  8
0
 10
106.675
 20
-34.3072
 11
106.664
 21
-34.0981
  0
LINE
  8
0
 10
106.664
 20
-34.0981
 11
106.664
 21
-33.0517
  0
LINE
  8
0
 10
106.664
 20
-33.0517
 11
106.675
 21
-32.8426
  0
LINE
  8
0
 10
106.675
 20
-32.8426
 11
106.784
 21
-31.8018
  0
LINE
  8
0
 10
106.784
 20
-31.8018
 11
106.817
 21
-31.5951
  0
LINE
  8
0
 10
106.817
 20
-31.5951
 11
106.875
 21
-31.3218
  0
LINE
  8
0
 10
106.875
 20
-31.3218
 11
106.884
 21
-31.2704
  0
LINE
  8
0
 10
106.884
 20
-31.2704
 11
107.004
 21
-30.5181
  0
LINE
  8
0
 10
107.004
 20
-30.5181
 11
107.014
 21
-30.414
  0
LINE
  8
0
 10
107.014
 20
-30.414
 11
107.049
 21
-29.7622
  0
LINE
  8
0
 10
107.049
 20
-29.7622
 11
107.05
 21
-29.7096
  0
LINE
  8
0
 10
107.05
 20
-29.7096
 11
107.05
 21
-26.8904
  0
LINE
  8
0
 10
107.05
 20
-26.8904
 11
107.049
 21
-26.8378
  0
LINE
  8
0
 10
107.049
 20
-26.8378
 11
107.014
 21
-26.186
  0
LINE
  8
0
 10
107.014
 20
-26.186
 11
107.004
 21
-26.082
  0
LINE
  8
0
 10
107.004
 20
-26.082
 11
106.987
 21
-25.979
  0
LINE
  8
0
 10
106.987
 20
-25.979
 11
106.974
 21
-25.8753
  0
LINE
  8
0
 10
106.974
 20
-25.8753
 11
106.859
 21
-24.7823
  0
LINE
  8
0
 10
106.859
 20
-24.7823
 11
106.848
 21
-24.5732
  0
LINE
  8
0
 10
106.848
 20
-24.5732
 11
106.848
 21
-23.5268
  0
LINE
  8
0
 10
106.848
 20
-23.5268
 11
106.859
 21
-23.3178
  0
LINE
  8
0
 10
106.859
 20
-23.3178
 11
106.974
 21
-22.2247
  0
LINE
  8
0
 10
106.974
 20
-22.2247
 11
106.987
 21
-22.1209
  0
LINE
  8
0
 10
106.987
 20
-22.1209
 11
107.004
 21
-22.0181
  0
LINE
  8
0
 10
107.004
 20
-22.0181
 11
107.014
 21
-21.914
  0
LINE
  8
0
 10
107.014
 20
-21.914
 11
107.049
 21
-21.2622
  0
LINE
  8
0
 10
107.049
 20
-21.2622
 11
107.05
 21
-21.2096
  0
LINE
  8
0
 10
107.05
 20
-21.2096
 11
107.05
 21
-18.3904
  0
LINE
  8
0
 10
107.05
 20
-18.3904
 11
107.049
 21
-18.3378
  0
LINE
  8
0
 10
107.049
 20
-18.3378
 11
107.014
 21
-17.6859
  0
LINE
  8
0
 10
107.014
 20
-17.6859
 11
107.004
 21
-17.5818
  0
LINE
  8
0
 10
107.004
 20
-17.5818
 11
106.884
 21
-16.8297
  0
LINE
  8
0
 10
106.884
 20
-16.8297
 11
106.875
 21
-16.7776
  0
LINE
  8
0
 10
106.875
 20
-16.7776
 11
106.817
 21
-16.5046
  0
LINE
  8
0
 10
106.817
 20
-16.5046
 11
106.784
 21
-16.2979
  0
LINE
  8
0
 10
106.784
 20
-16.2979
 11
106.675
 21
-15.2572
  0
LINE
  8
0
 10
106.675
 20
-15.2572
 11
106.664
 21
-15.0481
  0
LINE
  8
0
 10
106.664
 20
-15.0481
 11
106.664
 21
-14.0017
  0
LINE
  8
0
 10
106.664
 20
-14.0017
 11
106.675
 21
-13.7926
  0
LINE
  8
0
 10
106.675
 20
-13.7926
 11
106.784
 21
-12.7519
  0
LINE
  8
0
 10
106.784
 20
-12.7519
 11
106.817
 21
-12.5451
  0
LINE
  8
0
 10
106.817
 20
-12.5451
 11
106.875
 21
-12.2719
  0
LINE
  8
0
 10
106.875
 20
-12.2719
 11
106.884
 21
-12.2203
  0
LINE
  8
0
 10
106.884
 20
-12.2203
 11
107.003
 21
-11.4682
  0
LINE
  8
0
 10
107.003
 20
-11.4682
 11
107.014
 21
-11.364
  0
LINE
  8
0
 10
107.014
 20
-11.364
 11
107.049
 21
-10.7122
  0
LINE
  8
0
 10
107.049
 20
-10.7122
 11
107.05
 21
-10.6596
  0
LINE
  8
0
 10
107.05
 20
-10.6596
 11
107.05
 21
-7.84042
  0
LINE
  8
0
 10
107.05
 20
-7.84042
 11
107.049
 21
-7.78777
  0
LINE
  8
0
 10
107.049
 20
-7.78777
 11
107.014
 21
-7.136
  0
LINE
  8
0
 10
107.014
 20
-7.136
 11
107.004
 21
-7.03204
  0
LINE
  8
0
 10
107.004
 20
-7.03204
 11
106.987
 21
-6.92906
  0
LINE
  8
0
 10
106.987
 20
-6.92906
 11
106.974
 21
-6.82529
  0
LINE
  8
0
 10
106.974
 20
-6.82529
 11
106.859
 21
-5.73232
  0
LINE
  8
0
 10
106.859
 20
-5.73232
 11
106.848
 21
-5.52324
  0
LINE
  8
0
 10
106.848
 20
-5.52324
 11
106.848
 21
-4.47684
  0
LINE
  8
0
 10
106.848
 20
-4.47684
 11
106.859
 21
-4.26779
  0
LINE
  8
0
 10
106.859
 20
-4.26779
 11
106.974
 21
-3.17473
  0
LINE
  8
0
 10
106.974
 20
-3.17473
 11
106.987
 21
-3.07089
  0
LINE
  8
0
 10
106.987
 20
-3.07089
 11
107.004
 21
-2.96814
  0
LINE
  8
0
 10
107.004
 20
-2.96814
 11
107.014
 21
-2.864
  0
LINE
  8
0
 10
107.014
 20
-2.864
 11
107.049
 21
-2.21223
  0
LINE
  8
0
 10
107.049
 20
-2.21223
 11
107.05
 21
-2.15958
  0
LINE
  8
0
 10
107.05
 20
-2.15958
 11
107.05
 21
0.659576
  0
LINE
  8
0
 10
107.05
 20
0.659576
 11
107.049
 21
0.712234
  0
LINE
  8
0
 10
107.049
 20
0.712234
 11
107.014
 21
1.36409
  0
LINE
  8
0
 10
107.014
 20
1.36409
 11
107.004
 21
1.46808
  0
LINE
  8
0
 10
107.004
 20
1.46808
 11
106.955
 21
1.77647
  0
LINE
  8
0
 10
106.955
 20
1.77647
 11
106.933
 21
1.8788
  0
LINE
  8
0
 10
106.933
 20
1.8788
 11
106.852
 21
2.18025
  0
LINE
  8
0
 10
106.852
 20
2.18025
 11
106.82
 21
2.27983
  0
LINE
  8
0
 10
106.82
 20
2.27983
 11
106.708
 21
2.57137
  0
LINE
  8
0
 10
106.708
 20
2.57137
 11
106.665
 21
2.66689
  0
LINE
  8
0
 10
106.665
 20
2.66689
 11
106.524
 21
2.94522
  0
LINE
  8
0
 10
106.524
 20
2.94522
 11
106.471
 21
3.03549
  0
LINE
  8
0
 10
106.471
 20
3.03549
 11
106.301
 21
3.29771
  0
LINE
  8
0
 10
106.301
 20
3.29771
 11
106.24
 21
3.38213
  0
LINE
  8
0
 10
106.24
 20
3.38213
 11
105.941
 21
3.7507
  0
LINE
  8
0
 10
105.941
 20
3.7507
 11
105.877
 21
3.834
  0
LINE
  8
0
 10
105.877
 20
3.834
 11
105.838
 21
3.8878
  0
LINE
  8
0
 10
105.838
 20
3.8878
 11
105.806
 21
3.9295
  0
LINE
  8
0
 10
105.806
 20
3.9295
 11
105.243
 21
4.62474
  0
LINE
  8
0
 10
105.243
 20
4.62474
 11
105.173
 21
4.70265
  0
LINE
  8
0
 10
105.173
 20
4.70265
 11
104.953
 21
4.92329
  0
LINE
  8
0
 10
104.953
 20
4.92329
 11
104.875
 21
4.99323
  0
LINE
  8
0
 10
104.875
 20
4.99323
 11
104.632
 21
5.18979
  0
LINE
  8
0
 10
104.632
 20
5.18979
 11
104.548
 21
5.25125
  0
LINE
  8
0
 10
104.548
 20
5.25125
 11
104.286
 21
5.42122
  0
LINE
  8
0
 10
104.286
 20
5.42122
 11
104.195
 21
5.47365
  0
LINE
  8
0
 10
104.195
 20
5.47365
 11
103.917
 21
5.61537
  0
LINE
  8
0
 10
103.917
 20
5.61537
 11
103.821
 21
5.6579
  0
LINE
  8
0
 10
103.821
 20
5.6579
 11
103.53
 21
5.76981
  0
LINE
  8
0
 10
103.53
 20
5.76981
 11
103.43
 21
5.80215
  0
LINE
  8
0
 10
103.43
 20
5.80215
 11
103.129
 21
5.88293
  0
LINE
  8
0
 10
103.129
 20
5.88293
 11
103.026
 21
5.90468
  0
LINE
  8
0
 10
103.026
 20
5.90468
 11
102.718
 21
5.95352
  0
LINE
  8
0
 10
102.718
 20
5.95352
 11
102.614
 21
5.96446
  0
LINE
  8
0
 10
102.614
 20
5.96446
 11
101.962
 21
5.99861
  0
LINE
  8
0
 10
101.962
 20
5.99861
 11
101.91
 21
6
  0
LINE
  8
0
 10
101.91
 20
6
 11
88.7616
 21
6
  0
LINE
  8
0
 10
88.7616
 20
6
 11
88.6569
 21
6.00275
  0
LINE
  8
0
 10
88.6569
 20
6.00275
 11
87.5596
 21
6.06024
  0
LINE
  8
0
 10
87.5596
 20
6.06024
 11
87.3514
 21
6.08212
  0
LINE
  8
0
 10
87.3514
 20
6.08212
 11
86.318
 21
6.2458
  0
LINE
  8
0
 10
86.318
 20
6.2458
 11
86.1132
 21
6.28932
  0
LINE
  8
0
 10
86.1132
 20
6.28932
 11
85.0769
 21
6.567
  0
LINE
  8
0
 10
85.0769
 20
6.567
 11
84.927
 21
6.61357
  0
LINE
  8
0
 10
84.927
 20
6.61357
 11
84.4753
 21
6.77353
  0
LINE
  8
0
 10
84.4753
 20
6.77353
 11
84.4007
 21
6.79668
  0
LINE
  8
0
 10
84.4007
 20
6.79668
 11
84.0788
 21
6.88293
  0
LINE
  8
0
 10
84.0788
 20
6.88293
 11
83.9764
 21
6.90468
  0
LINE
  8
0
 10
83.9764
 20
6.90468
 11
83.6681
 21
6.95352
  0
LINE
  8
0
 10
83.6681
 20
6.95352
 11
83.5641
 21
6.96446
  0
LINE
  8
0
 10
83.5641
 20
6.96446
 11
82.9122
 21
6.99861
  0
LINE
  8
0
 10
82.9122
 20
6.99861
 11
82.8596
 21
7
  0
LINE
  8
0
 10
82.8596
 20
7
 11
75.7986
 21
7
  0
LINE
  8
0
 10
75.7986
 20
7
 11
75.694
 21
7.00275
  0
LINE
  8
0
 10
75.694
 20
7.00275
 11
74.7916
 21
7.05003
  0
LINE
  8
0
 10
74.7916
 20
7.05003
 11
74.5834
 21
7.07191
  0
LINE
  8
0
 10
74.5834
 20
7.07191
 11
74.3786
 21
7.11543
  0
LINE
  8
0
 10
74.3786
 20
7.11543
 11
74.1795
 21
7.18013
  0
LINE
  8
0
 10
74.1795
 20
7.18013
 11
73.9883
 21
7.26527
  0
LINE
  8
0
 10
73.9883
 20
7.26527
 11
73.807
 21
7.36993
  0
LINE
  8
0
 10
73.807
 20
7.36993
 11
73.6376
 21
7.493
  0
LINE
  8
0
 10
73.6376
 20
7.493
 11
73.4821
 21
7.63307
  0
LINE
  8
0
 10
73.4821
 20
7.63307
 11
73.342
 21
7.78864
  0
LINE
  8
0
 10
73.342
 20
7.78864
 11
73.2189
 21
7.95801
  0
LINE
  8
0
 10
73.2189
 20
7.95801
 11
73.1142
 21
8.1393
  0
LINE
  8
0
 10
73.1142
 20
8.1393
 11
73.0291
 21
8.33054
  0
LINE
  8
0
 10
73.0291
 20
8.33054
 11
72.9644
 21
8.52963
  0
LINE
  8
0
 10
72.9644
 20
8.52963
 11
72.9209
 21
8.73441
  0
LINE
  8
0
 10
72.9209
 20
8.73441
 11
72.9072
 21
8.83826
  0
LINE
  8
0
 10
72.9072
 20
8.83826
 11
72.8963
 21
8.9425
  0
LINE
  8
0
 10
72.8963
 20
8.9425
 11
72.8894
 21
8.99458
  0
LINE
  8
0
 10
72.8894
 20
8.99458
 11
72.8771
 21
9.07204
  0
LINE
  8
0
 10
72.8771
 20
9.07204
 11
72.8676
 21
9.12357
  0
LINE
  8
0
 10
72.8676
 20
9.12357
 11
72.835
 21
9.2769
  0
LINE
  8
0
 10
72.835
 20
9.2769
 11
72.8228
 21
9.32777
  0
LINE
  8
0
 10
72.8228
 20
9.32777
 11
72.8026
 21
9.40315
  0
LINE
  8
0
 10
72.8026
 20
9.40315
 11
72.7875
 21
9.45407
  0
LINE
  8
0
 10
72.7875
 20
9.45407
 11
72.7391
 21
9.60297
  0
LINE
  8
0
 10
72.7391
 20
9.60297
 11
72.7215
 21
9.65266
  0
LINE
  8
0
 10
72.7215
 20
9.65266
 11
72.6935
 21
9.72554
  0
LINE
  8
0
 10
72.6935
 20
9.72554
 11
72.6734
 21
9.77415
  0
LINE
  8
0
 10
72.6734
 20
9.77415
 11
72.6094
 21
9.91782
  0
LINE
  8
0
 10
72.6094
 20
9.91782
 11
72.5872
 21
9.96442
  0
LINE
  8
0
 10
72.5872
 20
9.96442
 11
72.5515
 21
10.0345
  0
LINE
  8
0
 10
72.5515
 20
10.0345
 11
72.5263
 21
10.0809
  0
LINE
  8
0
 10
72.5263
 20
10.0809
 11
72.4481
 21
10.2163
  0
LINE
  8
0
 10
72.4481
 20
10.2163
 11
72.4203
 21
10.2616
  0
LINE
  8
0
 10
72.4203
 20
10.2616
 11
72.378
 21
10.3268
  0
LINE
  8
0
 10
72.378
 20
10.3268
 11
72.3481
 21
10.3703
  0
LINE
  8
0
 10
72.3481
 20
10.3703
 11
72.2559
 21
10.4972
  0
LINE
  8
0
 10
72.2559
 20
10.4972
 11
72.2242
 21
10.5385
  0
LINE
  8
0
 10
72.2242
 20
10.5385
 11
72.1747
 21
10.5997
  0
LINE
  8
0
 10
72.1747
 20
10.5997
 11
72.1407
 21
10.6395
  0
LINE
  8
0
 10
72.1407
 20
10.6395
 11
72.0354
 21
10.7564
  0
LINE
  8
0
 10
72.0354
 20
10.7564
 11
71.9996
 21
10.7941
  0
LINE
  8
0
 10
71.9996
 20
10.7941
 11
71.9439
 21
10.8498
  0
LINE
  8
0
 10
71.9439
 20
10.8498
 11
71.9061
 21
10.8857
  0
LINE
  8
0
 10
71.9061
 20
10.8857
 11
71.7894
 21
10.9908
  0
LINE
  8
0
 10
71.7894
 20
10.9908
 11
71.7502
 21
11.0243
  0
LINE
  8
0
 10
71.7502
 20
11.0243
 11
71.6887
 21
11.0741
  0
LINE
  8
0
 10
71.6887
 20
11.0741
 11
71.6475
 21
11.1057
  0
LINE
  8
0
 10
71.6475
 20
11.1057
 11
71.5204
 21
11.1981
  0
LINE
  8
0
 10
71.5204
 20
11.1981
 11
71.4767
 21
11.2281
  0
LINE
  8
0
 10
71.4767
 20
11.2281
 11
71.4111
 21
11.2707
  0
LINE
  8
0
 10
71.4111
 20
11.2707
 11
71.3665
 21
11.298
  0
LINE
  8
0
 10
71.3665
 20
11.298
 11
71.2307
 21
11.3764
  0
LINE
  8
0
 10
71.2307
 20
11.3764
 11
71.1848
 21
11.4014
  0
LINE
  8
0
 10
71.1848
 20
11.4014
 11
71.1147
 21
11.4371
  0
LINE
  8
0
 10
71.1147
 20
11.4371
 11
71.0675
 21
11.4596
  0
LINE
  8
0
 10
71.0675
 20
11.4596
 11
70.9241
 21
11.5234
  0
LINE
  8
0
 10
70.9241
 20
11.5234
 11
70.8755
 21
11.5436
  0
LINE
  8
0
 10
70.8755
 20
11.5436
 11
70.8021
 21
11.5717
  0
LINE
  8
0
 10
70.8021
 20
11.5717
 11
70.7529
 21
11.5891
  0
LINE
  8
0
 10
70.7529
 20
11.5891
 11
70.6039
 21
11.6375
  0
LINE
  8
0
 10
70.6039
 20
11.6375
 11
70.5538
 21
11.6524
  0
LINE
  8
0
 10
70.5538
 20
11.6524
 11
70.4776
 21
11.6728
  0
LINE
  8
0
 10
70.4776
 20
11.6728
 11
70.4272
 21
11.6849
  0
LINE
  8
0
 10
70.4272
 20
11.6849
 11
70.2732
 21
11.7176
  0
LINE
  8
0
 10
70.2732
 20
11.7176
 11
70.2219
 21
11.7271
  0
LINE
  8
0
 10
70.2219
 20
11.7271
 11
70.1442
 21
11.7394
  0
LINE
  8
0
 10
70.1442
 20
11.7394
 11
70.0925
 21
11.7463
  0
LINE
  8
0
 10
70.0925
 20
11.7463
 11
69.9365
 21
11.7626
  0
LINE
  8
0
 10
69.9365
 20
11.7626
 11
69.8841
 21
11.7668
  0
LINE
  8
0
 10
69.8841
 20
11.7668
 11
69.806
 21
11.7709
  0
LINE
  8
0
 10
69.806
 20
11.7709
 11
69.7534
 21
11.7722
  0
LINE
  8
0
 10
69.7534
 20
11.7722
 11
69.5965
 21
11.7722
  0
LINE
  8
0
 10
69.5965
 20
11.7722
 11
69.544
 21
11.7709
  0
LINE
  8
0
 10
69.544
 20
11.7709
 11
69.4659
 21
11.7668
  0
LINE
  8
0
 10
69.4659
 20
11.7668
 11
69.4135
 21
11.7626
  0
LINE
  8
0
 10
69.4135
 20
11.7626
 11
69.2575
 21
11.7463
  0
LINE
  8
0
 10
69.2575
 20
11.7463
 11
69.2057
 21
11.7394
  0
LINE
  8
0
 10
69.2057
 20
11.7394
 11
69.1283
 21
11.7272
  0
LINE
  8
0
 10
69.1283
 20
11.7272
 11
69.0766
 21
11.7176
  0
LINE
  8
0
 10
69.0766
 20
11.7176
 11
68.9228
 21
11.6849
  0
LINE
  8
0
 10
68.9228
 20
11.6849
 11
68.8722
 21
11.6728
  0
LINE
  8
0
 10
68.8722
 20
11.6728
 11
68.7962
 21
11.6524
  0
LINE
  8
0
 10
68.7962
 20
11.6524
 11
68.7458
 21
11.6375
  0
LINE
  8
0
 10
68.7458
 20
11.6375
 11
68.5973
 21
11.5892
  0
LINE
  8
0
 10
68.5973
 20
11.5892
 11
68.5476
 21
11.5716
  0
LINE
  8
0
 10
68.5476
 20
11.5716
 11
68.4747
 21
11.5436
  0
LINE
  8
0
 10
68.4747
 20
11.5436
 11
68.4262
 21
11.5235
  0
LINE
  8
0
 10
68.4262
 20
11.5235
 11
68.2822
 21
11.4595
  0
LINE
  8
0
 10
68.2822
 20
11.4595
 11
68.2354
 21
11.4371
  0
LINE
  8
0
 10
68.2354
 20
11.4371
 11
68.165
 21
11.4012
  0
LINE
  8
0
 10
68.165
 20
11.4012
 11
68.1473
 21
11.3916
  0
LINE
  8
0
 10
68.1473
 20
11.3916
 11
67.9584
 21
11.3015
  0
LINE
  8
0
 10
67.9584
 20
11.3015
 11
67.761
 21
11.2316
  0
LINE
  8
0
 10
67.761
 20
11.2316
 11
67.5575
 21
11.1827
  0
LINE
  8
0
 10
67.5575
 20
11.1827
 11
67.3499
 21
11.1554
  0
LINE
  8
0
 10
67.3499
 20
11.1554
 11
67.1406
 21
11.1499
  0
LINE
  8
0
 10
67.1406
 20
11.1499
 11
66.9319
 21
11.1663
  0
LINE
  8
0
 10
66.9319
 20
11.1663
 11
66.7261
 21
11.2044
  0
LINE
  8
0
 10
66.7261
 20
11.2044
 11
66.5254
 21
11.2639
  0
LINE
  8
0
 10
66.5254
 20
11.2639
 11
66.332
 21
11.344
  0
LINE
  8
0
 10
66.332
 20
11.344
 11
66.1927
 21
11.4172
  0
LINE
  8
0
 10
66.1927
 20
11.4172
 11
66.0952
 21
11.4736
  0
LINE
  8
0
 10
66.0952
 20
11.4736
 11
65.8169
 21
11.6154
  0
LINE
  8
0
 10
65.8169
 20
11.6154
 11
65.7213
 21
11.6579
  0
LINE
  8
0
 10
65.7213
 20
11.6579
 11
65.4298
 21
11.7698
  0
LINE
  8
0
 10
65.4298
 20
11.7698
 11
65.3302
 21
11.8022
  0
LINE
  8
0
 10
65.3302
 20
11.8022
 11
65.0288
 21
11.8829
  0
LINE
  8
0
 10
65.0288
 20
11.8829
 11
64.9265
 21
11.9047
  0
LINE
  8
0
 10
64.9265
 20
11.9047
 11
64.6181
 21
11.9535
  0
LINE
  8
0
 10
64.6181
 20
11.9535
 11
64.5141
 21
11.9645
  0
LINE
  8
0
 10
64.5141
 20
11.9645
 11
63.8622
 21
11.9986
  0
LINE
  8
0
 10
63.8622
 20
11.9986
 11
63.8096
 21
12
  0
LINE
  8
0
 10
63.8096
 20
12
 11
55.7229
 21
12
  0
LINE
  8
0
 10
55.7229
 20
12
 11
55.6182
 21
12.0027
  0
LINE
  8
0
 10
55.6182
 20
12.0027
 11
54.521
 21
12.0602
  0
LINE
  8
0
 10
54.521
 20
12.0602
 11
54.3128
 21
12.0821
  0
LINE
  8
0
 10
54.3128
 20
12.0821
 11
53.2793
 21
12.2458
  0
LINE
  8
0
 10
53.2793
 20
12.2458
 11
53.0745
 21
12.2893
  0
LINE
  8
0
 10
53.0745
 20
12.2893
 11
52.0636
 21
12.5602
  0
LINE
  8
0
 10
52.0636
 20
12.5602
 11
51.8645
 21
12.6249
  0
LINE
  8
0
 10
51.8645
 20
12.6249
 11
50.8876
 21
12.9999
  0
LINE
  8
0
 10
50.8876
 20
12.9999
 11
50.6964
 21
13.085
  0
LINE
  8
0
 10
50.6964
 20
13.085
 11
49.764
 21
13.5601
  0
LINE
  8
0
 10
49.764
 20
13.5601
 11
49.5827
 21
13.6648
  0
LINE
  8
0
 10
49.5827
 20
13.6648
 11
48.6832
 21
14.2489
  0
LINE
  8
0
 10
48.6832
 20
14.2489
 11
48.555
 21
14.3396
  0
LINE
  8
0
 10
48.555
 20
14.3396
 11
48.1391
 21
14.6587
  0
LINE
  8
0
 10
48.1391
 20
14.6587
 11
48.098
 21
14.6911
  0
LINE
  8
0
 10
48.098
 20
14.6911
 11
47.4821
 21
15.1898
  0
LINE
  8
0
 10
47.4821
 20
15.1898
 11
47.3977
 21
15.2511
  0
LINE
  8
0
 10
47.3977
 20
15.2511
 11
47.1356
 21
15.4213
  0
LINE
  8
0
 10
47.1356
 20
15.4213
 11
47.0451
 21
15.4736
  0
LINE
  8
0
 10
47.0451
 20
15.4736
 11
46.7669
 21
15.6154
  0
LINE
  8
0
 10
46.7669
 20
15.6154
 11
46.6713
 21
15.6579
  0
LINE
  8
0
 10
46.6713
 20
15.6579
 11
46.3798
 21
15.7698
  0
LINE
  8
0
 10
46.3798
 20
15.7698
 11
46.2802
 21
15.8022
  0
LINE
  8
0
 10
46.2802
 20
15.8022
 11
45.9788
 21
15.8829
  0
LINE
  8
0
 10
45.9788
 20
15.8829
 11
45.8764
 21
15.9047
  0
LINE
  8
0
 10
45.8764
 20
15.9047
 11
45.5681
 21
15.9535
  0
LINE
  8
0
 10
45.5681
 20
15.9535
 11
45.4641
 21
15.9645
  0
LINE
  8
0
 10
45.4641
 20
15.9645
 11
44.8122
 21
15.9986
  0
LINE
  8
0
 10
44.8122
 20
15.9986
 11
44.7596
 21
16
  0
LINE
  8
0
 10
44.7596
 20
16
 11
31.4404
 21
16
  0
LINE
  8
0
 10
31.4404
 20
16
 11
31.3877
 21
15.9986
  0
LINE
  8
0
 10
31.3877
 20
15.9986
 11
30.7359
 21
15.9645
  0
LINE
  8
0
 10
30.7359
 20
15.9645
 11
30.6319
 21
15.9535
  0
LINE
  8
0
 10
30.6319
 20
15.9535
 11
30.3235
 21
15.9047
  0
LINE
  8
0
 10
30.3235
 20
15.9047
 11
30.2212
 21
15.8829
  0
LINE
  8
0
 10
30.2212
 20
15.8829
 11
29.9197
 21
15.8022
  0
LINE
  8
0
 10
29.9197
 20
15.8022
 11
29.8201
 21
15.7698
  0
LINE
  8
0
 10
29.8201
 20
15.7698
 11
29.5286
 21
15.6579
  0
LINE
  8
0
 10
29.5286
 20
15.6579
 11
29.4331
 21
15.6154
  0
LINE
  8
0
 10
29.4331
 20
15.6154
 11
29.1548
 21
15.4736
  0
LINE
  8
0
 10
29.1548
 20
15.4736
 11
29.0572
 21
15.4172
  0
LINE
  8
0
 10
29.0572
 20
15.4172
 11
28.8707
 21
15.3222
  0
LINE
  8
0
 10
28.8707
 20
15.3222
 11
28.6753
 21
15.2471
  0
LINE
  8
0
 10
28.6753
 20
15.2471
 11
28.4731
 21
15.1929
  0
LINE
  8
0
 10
28.4731
 20
15.1929
 11
28.2663
 21
15.1602
  0
LINE
  8
0
 10
28.2663
 20
15.1602
 11
28.0572
 21
15.1492
  0
LINE
  8
0
 10
28.0572
 20
15.1492
 11
27.8482
 21
15.1602
  0
LINE
  8
0
 10
27.8482
 20
15.1602
 11
27.6414
 21
15.1929
  0
LINE
  8
0
 10
27.6414
 20
15.1929
 11
27.4392
 21
15.2471
  0
LINE
  8
0
 10
27.4392
 20
15.2471
 11
27.2437
 21
15.3221
  0
LINE
  8
0
 10
27.2437
 20
15.3221
 11
27.1029
 21
15.3915
  0
LINE
  8
0
 10
27.1029
 20
15.3915
 11
27.0847
 21
15.4014
  0
LINE
  8
0
 10
27.0847
 20
15.4014
 11
27.0146
 21
15.4371
  0
LINE
  8
0
 10
27.0146
 20
15.4371
 11
26.9677
 21
15.4595
  0
LINE
  8
0
 10
26.9677
 20
15.4595
 11
26.8238
 21
15.5235
  0
LINE
  8
0
 10
26.8238
 20
15.5235
 11
26.7753
 21
15.5436
  0
LINE
  8
0
 10
26.7753
 20
15.5436
 11
26.7024
 21
15.5716
  0
LINE
  8
0
 10
26.7024
 20
15.5716
 11
26.6527
 21
15.5892
  0
LINE
  8
0
 10
26.6527
 20
15.5892
 11
26.5042
 21
15.6375
  0
LINE
  8
0
 10
26.5042
 20
15.6375
 11
26.4538
 21
15.6524
  0
LINE
  8
0
 10
26.4538
 20
15.6524
 11
26.3778
 21
15.6728
  0
LINE
  8
0
 10
26.3778
 20
15.6728
 11
26.3272
 21
15.6849
  0
LINE
  8
0
 10
26.3272
 20
15.6849
 11
26.1734
 21
15.7176
  0
LINE
  8
0
 10
26.1734
 20
15.7176
 11
26.1217
 21
15.7272
  0
LINE
  8
0
 10
26.1217
 20
15.7272
 11
26.0442
 21
15.7394
  0
LINE
  8
0
 10
26.0442
 20
15.7394
 11
25.9925
 21
15.7463
  0
LINE
  8
0
 10
25.9925
 20
15.7463
 11
25.8365
 21
15.7626
  0
LINE
  8
0
 10
25.8365
 20
15.7626
 11
25.7841
 21
15.7668
  0
LINE
  8
0
 10
25.7841
 20
15.7668
 11
25.706
 21
15.7709
  0
LINE
  8
0
 10
25.706
 20
15.7709
 11
25.6535
 21
15.7722
  0
LINE
  8
0
 10
25.6535
 20
15.7722
 11
25.4965
 21
15.7722
  0
LINE
  8
0
 10
25.4965
 20
15.7722
 11
25.444
 21
15.7709
  0
LINE
  8
0
 10
25.444
 20
15.7709
 11
25.3659
 21
15.7668
  0
LINE
  8
0
 10
25.3659
 20
15.7668
 11
25.3135
 21
15.7626
  0
LINE
  8
0
 10
25.3135
 20
15.7626
 11
25.1575
 21
15.7463
  0
LINE
  8
0
 10
25.1575
 20
15.7463
 11
25.1058
 21
15.7394
  0
LINE
  8
0
 10
25.1058
 20
15.7394
 11
25.0281
 21
15.7271
  0
LINE
  8
0
 10
25.0281
 20
15.7271
 11
24.9768
 21
15.7176
  0
LINE
  8
0
 10
24.9768
 20
15.7176
 11
24.8228
 21
15.6849
  0
LINE
  8
0
 10
24.8228
 20
15.6849
 11
24.7724
 21
15.6728
  0
LINE
  8
0
 10
24.7724
 20
15.6728
 11
24.6961
 21
15.6524
  0
LINE
  8
0
 10
24.6961
 20
15.6524
 11
24.6461
 21
15.6375
  0
LINE
  8
0
 10
24.6461
 20
15.6375
 11
24.4971
 21
15.5891
  0
LINE
  8
0
 10
24.4971
 20
15.5891
 11
24.4478
 21
15.5717
  0
LINE
  8
0
 10
24.4478
 20
15.5717
 11
24.3745
 21
15.5436
  0
LINE
  8
0
 10
24.3745
 20
15.5436
 11
24.3259
 21
15.5234
  0
LINE
  8
0
 10
24.3259
 20
15.5234
 11
24.1824
 21
15.4596
  0
LINE
  8
0
 10
24.1824
 20
15.4596
 11
24.1353
 21
15.4371
  0
LINE
  8
0
 10
24.1353
 20
15.4371
 11
24.0652
 21
15.4014
  0
LINE
  8
0
 10
24.0652
 20
15.4014
 11
24.0193
 21
15.3764
  0
LINE
  8
0
 10
24.0193
 20
15.3764
 11
23.8835
 21
15.298
  0
LINE
  8
0
 10
23.8835
 20
15.298
 11
23.8389
 21
15.2707
  0
LINE
  8
0
 10
23.8389
 20
15.2707
 11
23.7733
 21
15.2281
  0
LINE
  8
0
 10
23.7733
 20
15.2281
 11
23.7296
 21
15.1981
  0
LINE
  8
0
 10
23.7296
 20
15.1981
 11
23.6025
 21
15.1057
  0
LINE
  8
0
 10
23.6025
 20
15.1057
 11
23.5613
 21
15.0741
  0
LINE
  8
0
 10
23.5613
 20
15.0741
 11
23.4998
 21
15.0243
  0
LINE
  8
0
 10
23.4998
 20
15.0243
 11
23.4606
 21
14.9908
  0
LINE
  8
0
 10
23.4606
 20
14.9908
 11
23.3439
 21
14.8857
  0
LINE
  8
0
 10
23.3439
 20
14.8857
 11
23.3061
 21
14.8498
  0
LINE
  8
0
 10
23.3061
 20
14.8498
 11
23.2503
 21
14.7941
  0
LINE
  8
0
 10
23.2503
 20
14.7941
 11
23.2146
 21
14.7564
  0
LINE
  8
0
 10
23.2146
 20
14.7564
 11
23.1093
 21
14.6395
  0
LINE
  8
0
 10
23.1093
 20
14.6395
 11
23.0753
 21
14.5997
  0
LINE
  8
0
 10
23.0753
 20
14.5997
 11
23.0257
 21
14.5385
  0
LINE
  8
0
 10
23.0257
 20
14.5385
 11
22.9941
 21
14.4972
  0
LINE
  8
0
 10
22.9941
 20
14.4972
 11
22.9019
 21
14.3703
  0
LINE
  8
0
 10
22.9019
 20
14.3703
 11
22.872
 21
14.3268
  0
LINE
  8
0
 10
22.872
 20
14.3268
 11
22.8296
 21
14.2616
  0
LINE
  8
0
 10
22.8296
 20
14.2616
 11
22.8019
 21
14.2163
  0
LINE
  8
0
 10
22.8019
 20
14.2163
 11
22.7237
 21
14.0809
  0
LINE
  8
0
 10
22.7237
 20
14.0809
 11
22.6985
 21
14.0345
  0
LINE
  8
0
 10
22.6985
 20
14.0345
 11
22.6628
 21
13.9644
  0
LINE
  8
0
 10
22.6628
 20
13.9644
 11
22.6405
 21
13.9178
  0
LINE
  8
0
 10
22.6405
 20
13.9178
 11
22.5766
 21
13.7742
  0
LINE
  8
0
 10
22.5766
 20
13.7742
 11
22.5565
 21
13.7255
  0
LINE
  8
0
 10
22.5565
 20
13.7255
 11
22.5285
 21
13.6527
  0
LINE
  8
0
 10
22.5285
 20
13.6527
 11
22.5109
 21
13.603
  0
LINE
  8
0
 10
22.5109
 20
13.603
 11
22.4625
 21
13.4541
  0
LINE
  8
0
 10
22.4625
 20
13.4541
 11
22.4474
 21
13.4032
  0
LINE
  8
0
 10
22.4474
 20
13.4032
 11
22.4272
 21
13.3278
  0
LINE
  8
0
 10
22.4272
 20
13.3278
 11
22.415
 21
13.2769
  0
LINE
  8
0
 10
22.415
 20
13.2769
 11
22.3824
 21
13.1236
  0
LINE
  8
0
 10
22.3824
 20
13.1236
 11
22.3728
 21
13.072
  0
LINE
  8
0
 10
22.3728
 20
13.072
 11
22.3606
 21
12.9946
  0
LINE
  8
0
 10
22.3606
 20
12.9946
 11
22.3537
 21
12.9427
  0
LINE
  8
0
 10
22.3537
 20
12.9427
 11
22.3455
 21
12.8642
  0
LINE
  8
0
 10
22.3455
 20
12.8642
 11
22.3127
 21
12.6575
  0
LINE
  8
0
 10
22.3127
 20
12.6575
 11
22.2586
 21
12.4552
  0
LINE
  8
0
 10
22.2586
 20
12.4552
 11
22.1835
 21
12.2598
  0
LINE
  8
0
 10
22.1835
 20
12.2598
 11
22.0885
 21
12.0733
  0
LINE
  8
0
 10
22.0885
 20
12.0733
 11
21.9745
 21
11.8977
  0
LINE
  8
0
 10
21.9745
 20
11.8977
 11
21.8427
 21
11.735
  0
LINE
  8
0
 10
21.8427
 20
11.735
 11
21.6947
 21
11.587
  0
LINE
  8
0
 10
21.6947
 20
11.587
 11
21.532
 21
11.4553
  0
LINE
  8
0
 10
21.532
 20
11.4553
 11
21.3564
 21
11.3412
  0
LINE
  8
0
 10
21.3564
 20
11.3412
 11
21.1699
 21
11.2462
  0
LINE
  8
0
 10
21.1699
 20
11.2462
 11
20.9745
 21
11.1712
  0
LINE
  8
0
 10
20.9745
 20
11.1712
 11
20.7723
 21
11.117
  0
LINE
  8
0
 10
20.7723
 20
11.117
 11
20.5134
 21
11.0795
  0
LINE
  8
0
 10
20.5134
 20
11.0795
 11
19.5819
 21
11.0062
  0
LINE
  8
0
 10
19.5819
 20
11.0062
 11
19.425
 21
11
  0
LINE
  8
0
 10
19.425
 20
11
 11
12.3904
 21
11
  0
LINE
  8
0
 10
12.3904
 20
11
 11
12.3378
 21
10.9986
  0
LINE
  8
0
 10
12.3378
 20
10.9986
 11
11.6859
 21
10.9645
  0
LINE
  8
0
 10
11.6859
 20
10.9645
 11
11.5819
 21
10.9535
  0
LINE
  8
0
 10
11.5819
 20
10.9535
 11
11.2735
 21
10.9047
  0
LINE
  8
0
 10
11.2735
 20
10.9047
 11
11.1712
 21
10.8829
  0
LINE
  8
0
 10
11.1712
 20
10.8829
 11
10.8216
 21
10.7893
  0
LINE
  8
0
 10
10.8216
 20
10.7893
 11
10.7714
 21
10.7744
  0
LINE
  8
0
 10
10.7714
 20
10.7744
 11
9.74631
 21
10.4413
  0
LINE
  8
0
 10
9.74631
 20
10.4413
 11
9.5441
 21
10.3871
  0
LINE
  8
0
 10
9.5441
 20
10.3871
 11
8.52039
 21
10.1695
  0
LINE
  8
0
 10
8.52039
 20
10.1695
 11
8.31364
 21
10.1368
  0
LINE
  8
0
 10
8.31364
 20
10.1368
 11
7.24684
 21
10.0247
  0
LINE
  8
0
 10
7.24684
 20
10.0247
 11
7.09012
 21
10.0144
  0
LINE
  8
0
 10
7.09012
 20
10.0144
 11
6.56686
 21
10.0007
  0
LINE
  8
0
 10
6.56686
 20
10.0007
 11
6.51451
 21
10
  0
LINE
  8
0
 10
6.51451
 20
10
 11
-6.65958
 21
10
  0
LINE
  8
0
 10
-6.65958
 20
10
 11
-6.71223
 21
9.99861
  0
LINE
  8
0
 10
-6.71223
 20
9.99861
 11
-7.36409
 21
9.96446
  0
LINE
  8
0
 10
-7.36409
 20
9.96446
 11
-7.46808
 21
9.95352
  0
LINE
  8
0
 10
-7.46808
 20
9.95352
 11
-7.77647
 21
9.90468
  0
LINE
  8
0
 10
-7.77647
 20
9.90468
 11
-7.8788
 21
9.88293
  0
LINE
  8
0
 10
-7.8788
 20
9.88293
 11
-8.18025
 21
9.80215
  0
LINE
  8
0
 10
-8.18025
 20
9.80215
 11
-8.27983
 21
9.76981
  0
LINE
  8
0
 10
-8.27983
 20
9.76981
 11
-8.57137
 21
9.6579
  0
LINE
  8
0
 10
-8.57137
 20
9.6579
 11
-8.66689
 21
9.61537
  0
LINE
  8
0
 10
-8.66689
 20
9.61537
 11
-8.94502
 21
9.47365
  0
LINE
  8
0
 10
-8.94502
 20
9.47365
 11
-9.03581
 21
9.42122
  0
LINE
  8
0
 10
-9.03581
 20
9.42122
 11
-9.29756
 21
9.25125
  0
LINE
  8
0
 10
-9.29756
 20
9.25125
 11
-9.38216
 21
9.18979
  0
LINE
  8
0
 10
-9.38216
 20
9.18979
 11
-9.62491
 21
8.99323
  0
LINE
  8
0
 10
-9.62491
 20
8.99323
 11
-9.70256
 21
8.92329
  0
LINE
  8
0
 10
-9.70256
 20
8.92329
 11
-9.9232
 21
8.70265
  0
LINE
  8
0
 10
-9.9232
 20
8.70265
 11
-9.99335
 21
8.62474
  0
LINE
  8
0
 10
-9.99335
 20
8.62474
 11
-10.5563
 21
7.92958
  0
LINE
  8
0
 10
-10.5563
 20
7.92958
 11
-10.5879
 21
7.88834
  0
LINE
  8
0
 10
-10.5879
 20
7.88834
 11
-10.6274
 21
7.83405
  0
LINE
  8
0
 10
-10.6274
 20
7.83405
 11
-10.6912
 21
7.75084
  0
LINE
  8
0
 10
-10.6912
 20
7.75084
 11
-10.9899
 21
7.38208
  0
LINE
  8
0
 10
-10.9899
 20
7.38208
 11
-11.0512
 21
7.29767
  0
LINE
  8
0
 10
-11.0512
 20
7.29767
 11
-11.2214
 21
7.0356
  0
LINE
  8
0
 10
-11.2214
 20
7.0356
 11
-11.2736
 21
6.94516
  0
LINE
  8
0
 10
-11.2736
 20
6.94516
 11
-11.4501
 21
6.59869
  0
LINE
  8
0
 10
-11.4501
 20
6.59869
 11
-11.5
 21
6.50671
  0
LINE
  8
0
 10
-11.5
 20
6.50671
 11
-12.0495
 21
5.55505
  0
LINE
  8
0
 10
-12.0495
 20
5.55505
 11
-12.1635
 21
5.37944
  0
LINE
  8
0
 10
-12.1635
 20
5.37944
 11
-12.7786
 21
4.53285
  0
LINE
  8
0
 10
-12.7786
 20
4.53285
 11
-12.9104
 21
4.37019
  0
LINE
  8
0
 10
-12.9104
 20
4.37019
 11
-13.6106
 21
3.59256
  0
LINE
  8
0
 10
-13.6106
 20
3.59256
 11
-13.7586
 21
3.44455
  0
LINE
  8
0
 10
-13.7586
 20
3.44455
 11
-14.5363
 21
2.74428
  0
LINE
  8
0
 10
-14.5363
 20
2.74428
 11
-14.699
 21
2.6125
  0
LINE
  8
0
 10
-14.699
 20
2.6125
 11
-15.5455
 21
1.99753
  0
LINE
  8
0
 10
-15.5455
 20
1.99753
 11
-15.7211
 21
1.88351
  0
LINE
  8
0
 10
-15.7211
 20
1.88351
 11
-16.6273
 21
1.36029
  0
LINE
  8
0
 10
-16.6273
 20
1.36029
 11
-16.8139
 21
1.26526
  0
LINE
  8
0
 10
-16.8139
 20
1.26526
 11
-17.7699
 21
0.8396
  0
LINE
  8
0
 10
-17.7699
 20
0.8396
 11
-17.9654
 21
0.764587
  0
LINE
  8
0
 10
-17.9654
 20
0.764587
 11
-18.9605
 21
0.441254
  0
LINE
  8
0
 10
-18.9605
 20
0.441254
 11
-19.1627
 21
0.38707
  0
LINE
  8
0
 10
-19.1627
 20
0.38707
 11
-20.1606
 21
0.174973
  0
LINE
  8
0
 10
-20.1606
 20
0.174973
 11
-20.4195
 21
0.137436
  0
LINE
  8
0
 10
-20.4195
 20
0.137436
 11
-22.0876
 21
0.00616455
  0
LINE
  8
0
 10
-22.0876
 20
0.00616455
 11
-22.2445
 21
0
  0
LINE
  8
0
 10
-22.2445
 20
0
 11
-32.4677
 21
0
  0
LINE
  8
0
 10
-32.4677
 20
0
 11
-32.4947
 21
-0.000350952
  0
LINE
  8
0
 10
-32.4947
 20
-0.000350952
 11
-32.9909
 21
-0.0133362
  0
LINE
  8
0
 10
-32.9909
 20
-0.0133362
 11
-33.0176
 21
-0.014389
  0
LINE
  8
0
 10
-33.0176
 20
-0.014389
 11
-33.1416
 21
-0.0208893
  0
LINE
  8
0
 10
-33.1416
 20
-0.0208893
 11
-33.1941
 21
-0.0229492
  0
LINE
  8
0
 10
-33.1941
 20
-0.0229492
 11
-33.7696
 21
-0.0380096
  0
LINE
  8
0
 10
-33.7696
 20
-0.0380096
 11
-33.8219
 21
-0.0386963
  0
LINE
  8
0
 10
-33.8219
 20
-0.0386963
 11
-33.9784
 21
-0.0386963
  0
LINE
  8
0
 10
-33.9784
 20
-0.0386963
 11
-34.0308
 21
-0.0380096
  0
LINE
  8
0
 10
-34.0308
 20
-0.0380096
 11
-34.606
 21
-0.0229492
  0
LINE
  8
0
 10
-34.606
 20
-0.0229492
 11
-34.6581
 21
-0.0209045
  0
LINE
  8
0
 10
-34.6581
 20
-0.0209045
 11
-34.7827
 21
-0.014389
  0
LINE
  8
0
 10
-34.7827
 20
-0.014389
 11
-34.8095
 21
-0.0133362
  0
LINE
  8
0
 10
-34.8095
 20
-0.0133362
 11
-35.3052
 21
-0.000350952
  0
LINE
  8
0
 10
-35.3052
 20
-0.000350952
 11
-35.332
 21
0
  0
LINE
  8
0
 10
-35.332
 20
0
 11
-44.6678
 21
0
  0
LINE
  8
0
 10
-44.6678
 20
0
 11
-44.6947
 21
-0.000350952
  0
LINE
  8
0
 10
-44.6947
 20
-0.000350952
 11
-45.0169
 21
-0.00878906
  0
LINE
  8
0
 10
-45.0169
 20
-0.00878906
 11
-45.0955
 21
-0.0139465
  0
LINE
  8
0
 10
-45.0955
 20
-0.0139465
 11
-45.6582
 21
-0.0731049
  0
LINE
  8
0
 10
-45.6582
 20
-0.0731049
 11
-45.7611
 21
-0.0894012
  0
LINE
  8
0
 10
-45.7611
 20
-0.0894012
 11
-46.0669
 21
-0.154404
  0
LINE
  8
0
 10
-46.0669
 20
-0.154404
 11
-46.1679
 21
-0.181473
  0
LINE
  8
0
 10
-46.1679
 20
-0.181473
 11
-46.4649
 21
-0.278
  0
LINE
  8
0
 10
-46.4649
 20
-0.278
 11
-46.5625
 21
-0.315475
  0
LINE
  8
0
 10
-46.5625
 20
-0.315475
 11
-46.8475
 21
-0.442352
  0
LINE
  8
0
 10
-46.8475
 20
-0.442352
 11
-46.9409
 21
-0.489929
  0
LINE
  8
0
 10
-46.9409
 20
-0.489929
 11
-47.2113
 21
-0.646072
  0
LINE
  8
0
 10
-47.2113
 20
-0.646072
 11
-47.299
 21
-0.703018
  0
LINE
  8
0
 10
-47.299
 20
-0.703018
 11
-47.5516
 21
-0.886536
  0
LINE
  8
0
 10
-47.5516
 20
-0.886536
 11
-47.6329
 21
-0.952362
  0
LINE
  8
0
 10
-47.6329
 20
-0.952362
 11
-47.8649
 21
-1.16125
  0
LINE
  8
0
 10
-47.8649
 20
-1.16125
 11
-47.9388
 21
-1.2352
  0
LINE
  8
0
 10
-47.9388
 20
-1.2352
 11
-48.1478
 21
-1.46738
  0
LINE
  8
0
 10
-48.1478
 20
-1.46738
 11
-48.2135
 21
-1.54851
  0
LINE
  8
0
 10
-48.2135
 20
-1.54851
 11
-48.3971
 21
-1.80116
  0
LINE
  8
0
 10
-48.3971
 20
-1.80116
 11
-48.454
 21
-1.88885
  0
LINE
  8
0
 10
-48.454
 20
-1.88885
 11
-48.6101
 21
-2.15923
  0
LINE
  8
0
 10
-48.6101
 20
-2.15923
 11
-48.6577
 21
-2.25262
  0
LINE
  8
0
 10
-48.6577
 20
-2.25262
 11
-48.7846
 21
-2.53766
  0
LINE
  8
0
 10
-48.7846
 20
-2.53766
 11
-48.8222
 21
-2.6355
  0
LINE
  8
0
 10
-48.8222
 20
-2.6355
 11
-48.9186
 21
-2.93228
  0
LINE
  8
0
 10
-48.9186
 20
-2.93228
 11
-48.9456
 21
-3.03317
  0
LINE
  8
0
 10
-48.9456
 20
-3.03317
 11
-49.0106
 21
-3.33905
  0
LINE
  8
0
 10
-49.0106
 20
-3.33905
 11
-49.0269
 21
-3.44203
  0
LINE
  8
0
 10
-49.0269
 20
-3.44203
 11
-49.0656
 21
-3.80952
  0
LINE
  8
0
 10
-49.0656
 20
-3.80952
 11
-49.0792
 21
-3.9133
  0
LINE
  8
0
 10
-49.0792
 20
-3.9133
 11
-49.0908
 21
-3.98642
  0
LINE
  8
0
 10
-49.0908
 20
-3.98642
 11
-49.0976
 21
-4.03854
  0
LINE
  8
0
 10
-49.0976
 20
-4.03854
 11
-49.114
 21
-4.19377
  0
LINE
  8
0
 10
-49.114
 20
-4.19377
 11
-49.1237
 21
-4.27162
  0
LINE
  8
0
 10
-49.1237
 20
-4.27162
 11
-49.2285
 21
-4.99472
  0
LINE
  8
0
 10
-49.2285
 20
-4.99472
 11
-49.2318
 21
-5.02417
  0
LINE
  8
0
 10
-49.2318
 20
-5.02417
 11
-49.2407
 21
-5.0916
  0
LINE
  8
0
 10
-49.2407
 20
-5.0916
 11
-49.3359
 21
-5.99693
  0
LINE
  8
0
 10
-49.3359
 20
-5.99693
 11
-49.341
 21
-6.07507
  0
LINE
  8
0
 10
-49.341
 20
-6.07507
 11
-49.3496
 21
-6.40552
  0
LINE
  8
0
 10
-49.3496
 20
-6.40552
 11
-49.35
 21
-6.43227
  0
LINE
  8
0
 10
-49.35
 20
-6.43227
 11
-49.35
 21
-13.6674
  0
ENDSEC
  0
SECTION
  2
OBJECTS
  0
DICTIONARY
  0
ENDSEC
  0
EOF
