  0
SECTION
  2
BLOCKS
  0
ENDSEC
  0
SECTION
  2
ENTITIES
  0
LINE
  8
0
 10
-49.35
 20
-13.6674
 11
-49.3496
 21
-13.6944
  0
LINE
  8
0
 10
-49.3496
 20
-13.6944
 11
-49.341
 21
-14.0234
  0
LINE
  8
0
 10
-49.341
 20
-14.0234
 11
-49.3359
 21
-14.1021
  0
LINE
  8
0
 10
-49.3359
 20
-14.1021
 11
-49.2764
 21
-14.6679
  0
LINE
  8
0
 10
-49.2764
 20
-14.6679
 11
-49.26
 21
-14.7716
  0
LINE
  8
0
 10
-49.26
 20
-14.7716
 11
-49.1952
 21
-15.0766
  0
LINE
  8
0
 10
-49.1952
 20
-15.0766
 11
-49.1681
 21
-15.1778
  0
LINE
  8
0
 10
-49.1681
 20
-15.1778
 11
-49.0035
 21
-15.6844
  0
LINE
  8
0
 10
-49.0035
 20
-15.6844
 11
-48.9737
 21
-15.7848
  0
LINE
  8
0
 10
-48.9737
 20
-15.7848
 11
-48.6893
 21
-16.8461
  0
LINE
  8
0
 10
-48.6893
 20
-16.8461
 11
-48.6458
 21
-17.0509
  0
LINE
  8
0
 10
-48.6458
 20
-17.0509
 11
-48.4821
 21
-18.0846
  0
LINE
  8
0
 10
-48.4821
 20
-18.0846
 11
-48.4602
 21
-18.2928
  0
LINE
  8
0
 10
-48.4602
 20
-18.2928
 11
-48.4027
 21
-19.3899
  0
LINE
  8
0
 10
-48.4027
 20
-19.3899
 11
-48.4
 21
-19.4946
  0
LINE
  8
0
 10
-48.4
 20
-19.4946
 11
-48.4
 21
-25.4678
  0
LINE
  8
0
 10
-48.4
 20
-25.4678
 11
-48.3996
 21
-25.4947
  0
LINE
  8
0
 10
-48.3996
 20
-25.4947
 11
-48.3912
 21
-25.8169
  0
LINE
  8
0
 10
-48.3912
 20
-25.8169
 11
-48.386
 21
-25.8955
  0
LINE
  8
0
 10
-48.386
 20
-25.8955
 11
-48.3269
 21
-26.4582
  0
LINE
  8
0
 10
-48.3269
 20
-26.4582
 11
-48.3106
 21
-26.5611
  0
LINE
  8
0
 10
-48.3106
 20
-26.5611
 11
-48.2456
 21
-26.8669
  0
LINE
  8
0
 10
-48.2456
 20
-26.8669
 11
-48.2185
 21
-26.9679
  0
LINE
  8
0
 10
-48.2185
 20
-26.9679
 11
-48.122
 21
-27.2649
  0
LINE
  8
0
 10
-48.122
 20
-27.2649
 11
-48.0845
 21
-27.3625
  0
LINE
  8
0
 10
-48.0845
 20
-27.3625
 11
-47.9576
 21
-27.6475
  0
LINE
  8
0
 10
-47.9576
 20
-27.6475
 11
-47.91
 21
-27.7409
  0
LINE
  8
0
 10
-47.91
 20
-27.7409
 11
-47.7539
 21
-28.0113
  0
LINE
  8
0
 10
-47.7539
 20
-28.0113
 11
-47.697
 21
-28.099
  0
LINE
  8
0
 10
-47.697
 20
-28.099
 11
-47.5965
 21
-28.2373
  0
LINE
  8
0
 10
-47.5965
 20
-28.2373
 11
-47.4824
 21
-28.4129
  0
LINE
  8
0
 10
-47.4824
 20
-28.4129
 11
-47.3874
 21
-28.5994
  0
LINE
  8
0
 10
-47.3874
 20
-28.5994
 11
-47.3123
 21
-28.7948
  0
LINE
  8
0
 10
-47.3123
 20
-28.7948
 11
-47.2582
 21
-28.9971
  0
LINE
  8
0
 10
-47.2582
 20
-28.9971
 11
-47.2254
 21
-29.2038
  0
LINE
  8
0
 10
-47.2254
 20
-29.2038
 11
-47.2144
 21
-29.4129
  0
LINE
  8
0
 10
-47.2144
 20
-29.4129
 11
-47.2254
 21
-29.622
  0
LINE
  8
0
 10
-47.2254
 20
-29.622
 11
-47.2377
 21
-29.7388
  0
LINE
  8
0
 10
-47.2377
 20
-29.7388
 11
-47.2418
 21
-29.7907
  0
LINE
  8
0
 10
-47.2418
 20
-29.7907
 11
-47.2459
 21
-29.869
  0
LINE
  8
0
 10
-47.2459
 20
-29.869
 11
-47.2473
 21
-29.9215
  0
LINE
  8
0
 10
-47.2473
 20
-29.9215
 11
-47.2473
 21
-30.0785
  0
LINE
  8
0
 10
-47.2473
 20
-30.0785
 11
-47.2459
 21
-30.131
  0
LINE
  8
0
 10
-47.2459
 20
-30.131
 11
-47.2418
 21
-30.2095
  0
LINE
  8
0
 10
-47.2418
 20
-30.2095
 11
-47.2377
 21
-30.2614
  0
LINE
  8
0
 10
-47.2377
 20
-30.2614
 11
-47.2213
 21
-30.4174
  0
LINE
  8
0
 10
-47.2213
 20
-30.4174
 11
-47.2144
 21
-30.4696
  0
LINE
  8
0
 10
-47.2144
 20
-30.4696
 11
-47.2021
 21
-30.5469
  0
LINE
  8
0
 10
-47.2021
 20
-30.5469
 11
-47.1926
 21
-30.5985
  0
LINE
  8
0
 10
-47.1926
 20
-30.5985
 11
-47.16
 21
-30.7518
  0
LINE
  8
0
 10
-47.16
 20
-30.7518
 11
-47.1477
 21
-30.803
  0
LINE
  8
0
 10
-47.1477
 20
-30.803
 11
-47.1275
 21
-30.8785
  0
LINE
  8
0
 10
-47.1275
 20
-30.8785
 11
-47.1125
 21
-30.9288
  0
LINE
  8
0
 10
-47.1125
 20
-30.9288
 11
-47.0642
 21
-31.0778
  0
LINE
  8
0
 10
-47.0642
 20
-31.0778
 11
-47.0464
 21
-31.1278
  0
LINE
  8
0
 10
-47.0464
 20
-31.1278
 11
-47.0185
 21
-31.2007
  0
LINE
  8
0
 10
-47.0185
 20
-31.2007
 11
-46.9984
 21
-31.2491
  0
LINE
  8
0
 10
-46.9984
 20
-31.2491
 11
-46.9347
 21
-31.3923
  0
LINE
  8
0
 10
-46.9347
 20
-31.3923
 11
-46.9121
 21
-31.4397
  0
LINE
  8
0
 10
-46.9121
 20
-31.4397
 11
-46.8763
 21
-31.5098
  0
LINE
  8
0
 10
-46.8763
 20
-31.5098
 11
-46.8515
 21
-31.5555
  0
LINE
  8
0
 10
-46.8515
 20
-31.5555
 11
-46.773
 21
-31.6915
  0
LINE
  8
0
 10
-46.773
 20
-31.6915
 11
-46.7455
 21
-31.7364
  0
LINE
  8
0
 10
-46.7455
 20
-31.7364
 11
-46.7029
 21
-31.802
  0
LINE
  8
0
 10
-46.7029
 20
-31.802
 11
-46.6731
 21
-31.8453
  0
LINE
  8
0
 10
-46.6731
 20
-31.8453
 11
-46.5809
 21
-31.9722
  0
LINE
  8
0
 10
-46.5809
 20
-31.9722
 11
-46.5492
 21
-32.0135
  0
LINE
  8
0
 10
-46.5492
 20
-32.0135
 11
-46.4997
 21
-32.0747
  0
LINE
  8
0
 10
-46.4997
 20
-32.0747
 11
-46.4658
 21
-32.1144
  0
LINE
  8
0
 10
-46.4658
 20
-32.1144
 11
-46.3605
 21
-32.2314
  0
LINE
  8
0
 10
-46.3605
 20
-32.2314
 11
-46.3248
 21
-32.269
  0
LINE
  8
0
 10
-46.3248
 20
-32.269
 11
-46.269
 21
-32.3248
  0
LINE
  8
0
 10
-46.269
 20
-32.3248
 11
-46.2314
 21
-32.3605
  0
LINE
  8
0
 10
-46.2314
 20
-32.3605
 11
-46.1144
 21
-32.4658
  0
LINE
  8
0
 10
-46.1144
 20
-32.4658
 11
-46.0747
 21
-32.4997
  0
LINE
  8
0
 10
-46.0747
 20
-32.4997
 11
-46.0135
 21
-32.5492
  0
LINE
  8
0
 10
-46.0135
 20
-32.5492
 11
-45.9722
 21
-32.5809
  0
LINE
  8
0
 10
-45.9722
 20
-32.5809
 11
-45.8453
 21
-32.6731
  0
LINE
  8
0
 10
-45.8453
 20
-32.6731
 11
-45.8018
 21
-32.703
  0
LINE
  8
0
 10
-45.8018
 20
-32.703
 11
-45.7364
 21
-32.7455
  0
LINE
  8
0
 10
-45.7364
 20
-32.7455
 11
-45.6915
 21
-32.773
  0
LINE
  8
0
 10
-45.6915
 20
-32.773
 11
-45.5555
 21
-32.8515
  0
LINE
  8
0
 10
-45.5555
 20
-32.8515
 11
-45.5098
 21
-32.8763
  0
LINE
  8
0
 10
-45.5098
 20
-32.8763
 11
-45.4397
 21
-32.9121
  0
LINE
  8
0
 10
-45.4397
 20
-32.9121
 11
-45.3923
 21
-32.9347
  0
LINE
  8
0
 10
-45.3923
 20
-32.9347
 11
-45.2491
 21
-32.9984
  0
LINE
  8
0
 10
-45.2491
 20
-32.9984
 11
-45.2007
 21
-33.0185
  0
LINE
  8
0
 10
-45.2007
 20
-33.0185
 11
-45.1278
 21
-33.0464
  0
LINE
  8
0
 10
-45.1278
 20
-33.0464
 11
-45.0778
 21
-33.0642
  0
LINE
  8
0
 10
-45.0778
 20
-33.0642
 11
-44.9288
 21
-33.1125
  0
LINE
  8
0
 10
-44.9288
 20
-33.1125
 11
-44.8785
 21
-33.1275
  0
LINE
  8
0
 10
-44.8785
 20
-33.1275
 11
-44.803
 21
-33.1477
  0
LINE
  8
0
 10
-44.803
 20
-33.1477
 11
-44.7518
 21
-33.16
  0
LINE
  8
0
 10
-44.7518
 20
-33.16
 11
-44.5985
 21
-33.1926
  0
LINE
  8
0
 10
-44.5985
 20
-33.1926
 11
-44.5469
 21
-33.2021
  0
LINE
  8
0
 10
-44.5469
 20
-33.2021
 11
-44.4696
 21
-33.2144
  0
LINE
  8
0
 10
-44.4696
 20
-33.2144
 11
-44.4174
 21
-33.2213
  0
LINE
  8
0
 10
-44.4174
 20
-33.2213
 11
-44.2614
 21
-33.2377
  0
LINE
  8
0
 10
-44.2614
 20
-33.2377
 11
-44.2093
 21
-33.2418
  0
LINE
  8
0
 10
-44.2093
 20
-33.2418
 11
-44.131
 21
-33.2459
  0
LINE
  8
0
 10
-44.131
 20
-33.2459
 11
-44.0785
 21
-33.2473
  0
LINE
  8
0
 10
-44.0785
 20
-33.2473
 11
-43.9215
 21
-33.2473
  0
LINE
  8
0
 10
-43.9215
 20
-33.2473
 11
-43.869
 21
-33.2459
  0
LINE
  8
0
 10
-43.869
 20
-33.2459
 11
-43.7907
 21
-33.2418
  0
LINE
  8
0
 10
-43.7907
 20
-33.2418
 11
-43.7385
 21
-33.2377
  0
LINE
  8
0
 10
-43.7385
 20
-33.2377
 11
-43.5824
 21
-33.2212
  0
LINE
  8
0
 10
-43.5824
 20
-33.2212
 11
-43.5306
 21
-33.2144
  0
LINE
  8
0
 10
-43.5306
 20
-33.2144
 11
-43.4531
 21
-33.2021
  0
LINE
  8
0
 10
-43.4531
 20
-33.2021
 11
-43.4015
 21
-33.1926
  0
LINE
  8
0
 10
-43.4015
 20
-33.1926
 11
-43.2482
 21
-33.16
  0
LINE
  8
0
 10
-43.2482
 20
-33.16
 11
-43.197
 21
-33.1477
  0
LINE
  8
0
 10
-43.197
 20
-33.1477
 11
-43.1215
 21
-33.1275
  0
LINE
  8
0
 10
-43.1215
 20
-33.1275
 11
-43.0711
 21
-33.1125
  0
LINE
  8
0
 10
-43.0711
 20
-33.1125
 11
-42.9222
 21
-33.0642
  0
LINE
  8
0
 10
-42.9222
 20
-33.0642
 11
-42.8721
 21
-33.0464
  0
LINE
  8
0
 10
-42.8721
 20
-33.0464
 11
-42.7995
 21
-33.0185
  0
LINE
  8
0
 10
-42.7995
 20
-33.0185
 11
-42.7508
 21
-32.9984
  0
LINE
  8
0
 10
-42.7508
 20
-32.9984
 11
-42.6072
 21
-32.9344
  0
LINE
  8
0
 10
-42.6072
 20
-32.9344
 11
-42.5606
 21
-32.9122
  0
LINE
  8
0
 10
-42.5606
 20
-32.9122
 11
-42.4902
 21
-32.8763
  0
LINE
  8
0
 10
-42.4902
 20
-32.8763
 11
-42.4443
 21
-32.8514
  0
LINE
  8
0
 10
-42.4443
 20
-32.8514
 11
-42.3085
 21
-32.773
  0
LINE
  8
0
 10
-42.3085
 20
-32.773
 11
-42.2639
 21
-32.7457
  0
LINE
  8
0
 10
-42.2639
 20
-32.7457
 11
-42.198
 21
-32.7029
  0
LINE
  8
0
 10
-42.198
 20
-32.7029
 11
-42.1548
 21
-32.6732
  0
LINE
  8
0
 10
-42.1548
 20
-32.6732
 11
-42.028
 21
-32.5811
  0
LINE
  8
0
 10
-42.028
 20
-32.5811
 11
-41.9864
 21
-32.5491
  0
LINE
  8
0
 10
-41.9864
 20
-32.5491
 11
-41.9253
 21
-32.4997
  0
LINE
  8
0
 10
-41.9253
 20
-32.4997
 11
-41.8856
 21
-32.4658
  0
LINE
  8
0
 10
-41.8856
 20
-32.4658
 11
-41.7686
 21
-32.3605
  0
LINE
  8
0
 10
-41.7686
 20
-32.3605
 11
-41.731
 21
-32.3248
  0
LINE
  8
0
 10
-41.731
 20
-32.3248
 11
-41.7258
 21
-32.3196
  0
LINE
  8
0
 10
-41.7258
 20
-32.3196
 11
-41.7204
 21
-32.3147
  0
LINE
  8
0
 10
-41.7204
 20
-32.3147
 11
-41.7119
 21
-32.3066
  0
LINE
  8
0
 10
-41.7119
 20
-32.3066
 11
-41.7117
 21
-32.3069
  0
LINE
  8
0
 10
-41.7117
 20
-32.3069
 11
-41.5702
 21
-32.1795
  0
LINE
  8
0
 10
-41.5702
 20
-32.1795
 11
-41.4009
 21
-32.0565
  0
LINE
  8
0
 10
-41.4009
 20
-32.0565
 11
-41.2196
 21
-31.9518
  0
LINE
  8
0
 10
-41.2196
 20
-31.9518
 11
-41.0283
 21
-31.8667
  0
LINE
  8
0
 10
-41.0283
 20
-31.8667
 11
-40.8292
 21
-31.802
  0
LINE
  8
0
 10
-40.8292
 20
-31.802
 11
-40.6245
 21
-31.7584
  0
LINE
  8
0
 10
-40.6245
 20
-31.7584
 11
-40.4163
 21
-31.7366
  0
LINE
  8
0
 10
-40.4163
 20
-31.7366
 11
-40.2069
 21
-31.7366
  0
LINE
  8
0
 10
-40.2069
 20
-31.7366
 11
-39.9987
 21
-31.7584
  0
LINE
  8
0
 10
-39.9987
 20
-31.7584
 11
-39.794
 21
-31.802
  0
LINE
  8
0
 10
-39.794
 20
-31.802
 11
-39.5949
 21
-31.8667
  0
LINE
  8
0
 10
-39.5949
 20
-31.8667
 11
-39.4036
 21
-31.9518
  0
LINE
  8
0
 10
-39.4036
 20
-31.9518
 11
-39.2223
 21
-32.0565
  0
LINE
  8
0
 10
-39.2223
 20
-32.0565
 11
-39.053
 21
-32.1795
  0
LINE
  8
0
 10
-39.053
 20
-32.1795
 11
-38.3221
 21
-32.7713
  0
LINE
  8
0
 10
-38.3221
 20
-32.7713
 11
-38.1665
 21
-32.9114
  0
LINE
  8
0
 10
-38.1665
 20
-32.9114
 11
-37.4265
 21
-33.6514
  0
LINE
  8
0
 10
-37.4265
 20
-33.6514
 11
-37.2865
 21
-33.8069
  0
LINE
  8
0
 10
-37.2865
 20
-33.8069
 11
-36.5953
 21
-34.6604
  0
LINE
  8
0
 10
-36.5953
 20
-34.6604
 11
-36.5315
 21
-34.7435
  0
LINE
  8
0
 10
-36.5315
 20
-34.7435
 11
-36.0164
 21
-35.4524
  0
LINE
  8
0
 10
-36.0164
 20
-35.4524
 11
-35.9505
 21
-35.5338
  0
LINE
  8
0
 10
-35.9505
 20
-35.5338
 11
-35.7418
 21
-35.7656
  0
LINE
  8
0
 10
-35.7418
 20
-35.7656
 11
-35.6677
 21
-35.8397
  0
LINE
  8
0
 10
-35.6677
 20
-35.8397
 11
-35.4355
 21
-36.0487
  0
LINE
  8
0
 10
-35.4355
 20
-36.0487
 11
-35.3543
 21
-36.1145
  0
LINE
  8
0
 10
-35.3543
 20
-36.1145
 11
-35.1019
 21
-36.2978
  0
LINE
  8
0
 10
-35.1019
 20
-36.2978
 11
-35.0629
 21
-36.3232
  0
LINE
  8
0
 10
-35.0629
 20
-36.3232
 11
-34.8935
 21
-36.4462
  0
LINE
  8
0
 10
-34.8935
 20
-36.4462
 11
-34.7379
 21
-36.5863
  0
LINE
  8
0
 10
-34.7379
 20
-36.5863
 11
-34.5978
 21
-36.7418
  0
LINE
  8
0
 10
-34.5978
 20
-36.7418
 11
-34.4748
 21
-36.9112
  0
LINE
  8
0
 10
-34.4748
 20
-36.9112
 11
-34.3701
 21
-37.0925
  0
LINE
  8
0
 10
-34.3701
 20
-37.0925
 11
-34.2849
 21
-37.2837
  0
LINE
  8
0
 10
-34.2849
 20
-37.2837
 11
-34.2202
 21
-37.4828
  0
LINE
  8
0
 10
-34.2202
 20
-37.4828
 11
-34.1767
 21
-37.6876
  0
LINE
  8
0
 10
-34.1767
 20
-37.6876
 11
-34.1548
 21
-37.8958
  0
LINE
  8
0
 10
-34.1548
 20
-37.8958
 11
-34.1548
 21
-38.1051
  0
LINE
  8
0
 10
-34.1548
 20
-38.1051
 11
-34.1766
 21
-38.3133
  0
LINE
  8
0
 10
-34.1766
 20
-38.3133
 11
-34.1882
 21
-38.3757
  0
LINE
  8
0
 10
-34.1882
 20
-38.3757
 11
-34.1878
 21
-38.3757
  0
LINE
  8
0
 10
-34.1878
 20
-38.3757
 11
-34.2021
 21
-38.4531
  0
LINE
  8
0
 10
-34.2021
 20
-38.4531
 11
-34.2144
 21
-38.5306
  0
LINE
  8
0
 10
-34.2144
 20
-38.5306
 11
-34.2212
 21
-38.5824
  0
LINE
  8
0
 10
-34.2212
 20
-38.5824
 11
-34.2377
 21
-38.7385
  0
LINE
  8
0
 10
-34.2377
 20
-38.7385
 11
-34.2418
 21
-38.7907
  0
LINE
  8
0
 10
-34.2418
 20
-38.7907
 11
-34.2459
 21
-38.869
  0
LINE
  8
0
 10
-34.2459
 20
-38.869
 11
-34.2473
 21
-38.9215
  0
LINE
  8
0
 10
-34.2473
 20
-38.9215
 11
-34.2473
 21
-39.0785
  0
LINE
  8
0
 10
-34.2473
 20
-39.0785
 11
-34.2459
 21
-39.131
  0
LINE
  8
0
 10
-34.2459
 20
-39.131
 11
-34.2418
 21
-39.2095
  0
LINE
  8
0
 10
-34.2418
 20
-39.2095
 11
-34.2377
 21
-39.2614
  0
LINE
  8
0
 10
-34.2377
 20
-39.2614
 11
-34.2213
 21
-39.4174
  0
LINE
  8
0
 10
-34.2213
 20
-39.4174
 11
-34.2144
 21
-39.4696
  0
LINE
  8
0
 10
-34.2144
 20
-39.4696
 11
-34.2021
 21
-39.5469
  0
LINE
  8
0
 10
-34.2021
 20
-39.5469
 11
-34.1926
 21
-39.5985
  0
LINE
  8
0
 10
-34.1926
 20
-39.5985
 11
-34.16
 21
-39.7518
  0
LINE
  8
0
 10
-34.16
 20
-39.7518
 11
-34.1477
 21
-39.803
  0
LINE
  8
0
 10
-34.1477
 20
-39.803
 11
-34.1275
 21
-39.8785
  0
LINE
  8
0
 10
-34.1275
 20
-39.8785
 11
-34.1125
 21
-39.9288
  0
LINE
  8
0
 10
-34.1125
 20
-39.9288
 11
-34.0642
 21
-40.0778
  0
LINE
  8
0
 10
-34.0642
 20
-40.0778
 11
-34.0464
 21
-40.1278
  0
LINE
  8
0
 10
-34.0464
 20
-40.1278
 11
-34.0185
 21
-40.2007
  0
LINE
  8
0
 10
-34.0185
 20
-40.2007
 11
-33.9984
 21
-40.2491
  0
LINE
  8
0
 10
-33.9984
 20
-40.2491
 11
-33.9347
 21
-40.3923
  0
LINE
  8
0
 10
-33.9347
 20
-40.3923
 11
-33.9121
 21
-40.4397
  0
LINE
  8
0
 10
-33.9121
 20
-40.4397
 11
-33.8763
 21
-40.5098
  0
LINE
  8
0
 10
-33.8763
 20
-40.5098
 11
-33.8515
 21
-40.5555
  0
LINE
  8
0
 10
-33.8515
 20
-40.5555
 11
-33.773
 21
-40.6915
  0
LINE
  8
0
 10
-33.773
 20
-40.6915
 11
-33.7455
 21
-40.7364
  0
LINE
  8
0
 10
-33.7455
 20
-40.7364
 11
-33.703
 21
-40.8018
  0
LINE
  8
0
 10
-33.703
 20
-40.8018
 11
-33.6731
 21
-40.8453
  0
LINE
  8
0
 10
-33.6731
 20
-40.8453
 11
-33.5809
 21
-40.9722
  0
LINE
  8
0
 10
-33.5809
 20
-40.9722
 11
-33.5492
 21
-41.0135
  0
LINE
  8
0
 10
-33.5492
 20
-41.0135
 11
-33.4997
 21
-41.0747
  0
LINE
  8
0
 10
-33.4997
 20
-41.0747
 11
-33.4658
 21
-41.1144
  0
LINE
  8
0
 10
-33.4658
 20
-41.1144
 11
-33.3605
 21
-41.2314
  0
LINE
  8
0
 10
-33.3605
 20
-41.2314
 11
-33.3248
 21
-41.269
  0
LINE
  8
0
 10
-33.3248
 20
-41.269
 11
-33.269
 21
-41.3248
  0
LINE
  8
0
 10
-33.269
 20
-41.3248
 11
-33.2314
 21
-41.3605
  0
LINE
  8
0
 10
-33.2314
 20
-41.3605
 11
-33.1144
 21
-41.4658
  0
LINE
  8
0
 10
-33.1144
 20
-41.4658
 11
-33.0747
 21
-41.4997
  0
LINE
  8
0
 10
-33.0747
 20
-41.4997
 11
-33.0135
 21
-41.5492
  0
LINE
  8
0
 10
-33.0135
 20
-41.5492
 11
-32.9722
 21
-41.5809
  0
LINE
  8
0
 10
-32.9722
 20
-41.5809
 11
-32.8453
 21
-41.6731
  0
LINE
  8
0
 10
-32.8453
 20
-41.6731
 11
-32.8018
 21
-41.703
  0
LINE
  8
0
 10
-32.8018
 20
-41.703
 11
-32.7364
 21
-41.7455
  0
LINE
  8
0
 10
-32.7364
 20
-41.7455
 11
-32.6915
 21
-41.773
  0
LINE
  8
0
 10
-32.6915
 20
-41.773
 11
-32.5555
 21
-41.8515
  0
LINE
  8
0
 10
-32.5555
 20
-41.8515
 11
-32.5098
 21
-41.8763
  0
LINE
  8
0
 10
-32.5098
 20
-41.8763
 11
-32.4397
 21
-41.9121
  0
LINE
  8
0
 10
-32.4397
 20
-41.9121
 11
-32.3923
 21
-41.9347
  0
LINE
  8
0
 10
-32.3923
 20
-41.9347
 11
-32.2491
 21
-41.9984
  0
LINE
  8
0
 10
-32.2491
 20
-41.9984
 11
-32.2007
 21
-42.0185
  0
LINE
  8
0
 10
-32.2007
 20
-42.0185
 11
-32.1278
 21
-42.0464
  0
LINE
  8
0
 10
-32.1278
 20
-42.0464
 11
-32.0778
 21
-42.0642
  0
LINE
  8
0
 10
-32.0778
 20
-42.0642
 11
-31.9288
 21
-42.1125
  0
LINE
  8
0
 10
-31.9288
 20
-42.1125
 11
-31.8785
 21
-42.1275
  0
LINE
  8
0
 10
-31.8785
 20
-42.1275
 11
-31.803
 21
-42.1477
  0
LINE
  8
0
 10
-31.803
 20
-42.1477
 11
-31.7518
 21
-42.16
  0
LINE
  8
0
 10
-31.7518
 20
-42.16
 11
-31.5985
 21
-42.1926
  0
LINE
  8
0
 10
-31.5985
 20
-42.1926
 11
-31.5469
 21
-42.2021
  0
LINE
  8
0
 10
-31.5469
 20
-42.2021
 11
-31.4696
 21
-42.2144
  0
LINE
  8
0
 10
-31.4696
 20
-42.2144
 11
-31.4174
 21
-42.2213
  0
LINE
  8
0
 10
-31.4174
 20
-42.2213
 11
-31.2614
 21
-42.2377
  0
LINE
  8
0
 10
-31.2614
 20
-42.2377
 11
-31.2093
 21
-42.2418
  0
LINE
  8
0
 10
-31.2093
 20
-42.2418
 11
-31.131
 21
-42.2459
  0
LINE
  8
0
 10
-31.131
 20
-42.2459
 11
-31.0785
 21
-42.2473
  0
LINE
  8
0
 10
-31.0785
 20
-42.2473
 11
-30.9215
 21
-42.2473
  0
LINE
  8
0
 10
-30.9215
 20
-42.2473
 11
-30.869
 21
-42.2459
  0
LINE
  8
0
 10
-30.869
 20
-42.2459
 11
-30.7907
 21
-42.2418
  0
LINE
  8
0
 10
-30.7907
 20
-42.2418
 11
-30.739
 21
-42.2377
  0
LINE
  8
0
 10
-30.739
 20
-42.2377
 11
-30.5946
 21
-42.2225
  0
LINE
  8
0
 10
-30.5946
 20
-42.2225
 11
-30.3856
 21
-42.2116
  0
LINE
  8
0
 10
-30.3856
 20
-42.2116
 11
-30.1765
 21
-42.2225
  0
LINE
  8
0
 10
-30.1765
 20
-42.2225
 11
-29.9697
 21
-42.2553
  0
LINE
  8
0
 10
-29.9697
 20
-42.2553
 11
-29.7675
 21
-42.3094
  0
LINE
  8
0
 10
-29.7675
 20
-42.3094
 11
-29.5721
 21
-42.3845
  0
LINE
  8
0
 10
-29.5721
 20
-42.3845
 11
-29.3855
 21
-42.4795
  0
LINE
  8
0
 10
-29.3855
 20
-42.4795
 11
-29.21
 21
-42.5935
  0
LINE
  8
0
 10
-29.21
 20
-42.5935
 11
-29.0473
 21
-42.7253
  0
LINE
  8
0
 10
-29.0473
 20
-42.7253
 11
-28.8992
 21
-42.8733
  0
LINE
  8
0
 10
-28.8992
 20
-42.8733
 11
-28.7675
 21
-43.036
  0
LINE
  8
0
 10
-28.7675
 20
-43.036
 11
-28.6535
 21
-43.2115
  0
LINE
  8
0
 10
-28.6535
 20
-43.2115
 11
-28.5184
 21
-43.4947
  0
LINE
  8
0
 10
-28.5184
 20
-43.4947
 11
-28.4915
 21
-43.5649
  0
LINE
  8
0
 10
-28.4915
 20
-43.5649
 11
-28.4267
 21
-43.7641
  0
LINE
  8
0
 10
-28.4267
 20
-43.7641
 11
-28.1421
 21
-44.8261
  0
LINE
  8
0
 10
-28.1421
 20
-44.8261
 11
-28.1176
 21
-44.928
  0
LINE
  8
0
 10
-28.1176
 20
-44.928
 11
-28.0457
 21
-45.2666
  0
LINE
  8
0
 10
-28.0457
 20
-45.2666
 11
-28.0185
 21
-45.3679
  0
LINE
  8
0
 10
-28.0185
 20
-45.3679
 11
-27.922
 21
-45.6648
  0
LINE
  8
0
 10
-27.922
 20
-45.6648
 11
-27.8845
 21
-45.7626
  0
LINE
  8
0
 10
-27.8845
 20
-45.7626
 11
-27.7576
 21
-46.0475
  0
LINE
  8
0
 10
-27.7576
 20
-46.0475
 11
-27.7101
 21
-46.1409
  0
LINE
  8
0
 10
-27.7101
 20
-46.1409
 11
-27.5539
 21
-46.4113
  0
LINE
  8
0
 10
-27.5539
 20
-46.4113
 11
-27.497
 21
-46.499
  0
LINE
  8
0
 10
-27.497
 20
-46.499
 11
-27.3135
 21
-46.7516
  0
LINE
  8
0
 10
-27.3135
 20
-46.7516
 11
-27.2476
 21
-46.8329
  0
LINE
  8
0
 10
-27.2476
 20
-46.8329
 11
-27.0387
 21
-47.0648
  0
LINE
  8
0
 10
-27.0387
 20
-47.0648
 11
-26.9648
 21
-47.1388
  0
LINE
  8
0
 10
-26.9648
 20
-47.1388
 11
-26.7326
 21
-47.3478
  0
LINE
  8
0
 10
-26.7326
 20
-47.3478
 11
-26.6515
 21
-47.4135
  0
LINE
  8
0
 10
-26.6515
 20
-47.4135
 11
-26.3988
 21
-47.5971
  0
LINE
  8
0
 10
-26.3988
 20
-47.5971
 11
-26.3111
 21
-47.654
  0
LINE
  8
0
 10
-26.3111
 20
-47.654
 11
-26.0408
 21
-47.8101
  0
LINE
  8
0
 10
-26.0408
 20
-47.8101
 11
-25.9474
 21
-47.8577
  0
LINE
  8
0
 10
-25.9474
 20
-47.8577
 11
-25.6623
 21
-47.9846
  0
LINE
  8
0
 10
-25.6623
 20
-47.9846
 11
-25.5645
 21
-48.0222
  0
LINE
  8
0
 10
-25.5645
 20
-48.0222
 11
-25.2677
 21
-48.1186
  0
LINE
  8
0
 10
-25.2677
 20
-48.1186
 11
-25.1668
 21
-48.1456
  0
LINE
  8
0
 10
-25.1668
 20
-48.1456
 11
-24.8608
 21
-48.2106
  0
LINE
  8
0
 10
-24.8608
 20
-48.2106
 11
-24.7578
 21
-48.227
  0
LINE
  8
0
 10
-24.7578
 20
-48.227
 11
-24.1954
 21
-48.2861
  0
LINE
  8
0
 10
-24.1954
 20
-48.2861
 11
-24.1174
 21
-48.2912
  0
LINE
  8
0
 10
-24.1174
 20
-48.2912
 11
-23.7946
 21
-48.2996
  0
LINE
  8
0
 10
-23.7946
 20
-48.2996
 11
-23.7923
 21
-48.2997
  0
LINE
  8
0
 10
-23.7923
 20
-48.2997
 11
-23.7158
 21
-48.3017
  0
LINE
  8
0
 10
-23.7158
 20
-48.3017
 11
-23.5845
 21
-48.3095
  0
LINE
  8
0
 10
-23.5845
 20
-48.3095
 11
-22.6163
 21
-48.3602
  0
LINE
  8
0
 10
-22.6163
 20
-48.3602
 11
-22.4078
 21
-48.3821
  0
LINE
  8
0
 10
-22.4078
 20
-48.3821
 11
-22.3732
 21
-48.3876
  0
LINE
  8
0
 10
-22.3732
 20
-48.3876
 11
-22.1684
 21
-48.4312
  0
LINE
  8
0
 10
-22.1684
 20
-48.4312
 11
-21.9693
 21
-48.4959
  0
LINE
  8
0
 10
-21.9693
 20
-48.4959
 11
-21.7781
 21
-48.5811
  0
LINE
  8
0
 10
-21.7781
 20
-48.5811
 11
-21.5968
 21
-48.6858
  0
LINE
  8
0
 10
-21.5968
 20
-48.6858
 11
-21.4274
 21
-48.8089
  0
LINE
  8
0
 10
-21.4274
 20
-48.8089
 11
-21.2719
 21
-48.9489
  0
LINE
  8
0
 10
-21.2719
 20
-48.9489
 11
-21.1318
 21
-49.1045
  0
LINE
  8
0
 10
-21.1318
 20
-49.1045
 11
-21.0088
 21
-49.2739
  0
LINE
  8
0
 10
-21.0088
 20
-49.2739
 11
-20.9042
 21
-49.4552
  0
LINE
  8
0
 10
-20.9042
 20
-49.4552
 11
-20.8763
 21
-49.5099
  0
LINE
  8
0
 10
-20.8763
 20
-49.5099
 11
-20.8515
 21
-49.5555
  0
LINE
  8
0
 10
-20.8515
 20
-49.5555
 11
-20.773
 21
-49.6915
  0
LINE
  8
0
 10
-20.773
 20
-49.6915
 11
-20.7455
 21
-49.7364
  0
LINE
  8
0
 10
-20.7455
 20
-49.7364
 11
-20.703
 21
-49.8018
  0
LINE
  8
0
 10
-20.703
 20
-49.8018
 11
-20.6731
 21
-49.8453
  0
LINE
  8
0
 10
-20.6731
 20
-49.8453
 11
-20.5809
 21
-49.9722
  0
LINE
  8
0
 10
-20.5809
 20
-49.9722
 11
-20.5492
 21
-50.0135
  0
LINE
  8
0
 10
-20.5492
 20
-50.0135
 11
-20.4997
 21
-50.0747
  0
LINE
  8
0
 10
-20.4997
 20
-50.0747
 11
-20.4658
 21
-50.1144
  0
LINE
  8
0
 10
-20.4658
 20
-50.1144
 11
-20.3605
 21
-50.2314
  0
LINE
  8
0
 10
-20.3605
 20
-50.2314
 11
-20.3248
 21
-50.269
  0
LINE
  8
0
 10
-20.3248
 20
-50.269
 11
-20.269
 21
-50.3248
  0
LINE
  8
0
 10
-20.269
 20
-50.3248
 11
-20.2314
 21
-50.3605
  0
LINE
  8
0
 10
-20.2314
 20
-50.3605
 11
-20.1144
 21
-50.4658
  0
LINE
  8
0
 10
-20.1144
 20
-50.4658
 11
-20.0747
 21
-50.4997
  0
LINE
  8
0
 10
-20.0747
 20
-50.4997
 11
-20.0135
 21
-50.5492
  0
LINE
  8
0
 10
-20.0135
 20
-50.5492
 11
-19.9722
 21
-50.5809
  0
LINE
  8
0
 10
-19.9722
 20
-50.5809
 11
-19.8453
 21
-50.6731
  0
LINE
  8
0
 10
-19.8453
 20
-50.6731
 11
-19.8018
 21
-50.703
  0
LINE
  8
0
 10
-19.8018
 20
-50.703
 11
-19.7364
 21
-50.7455
  0
LINE
  8
0
 10
-19.7364
 20
-50.7455
 11
-19.6915
 21
-50.773
  0
LINE
  8
0
 10
-19.6915
 20
-50.773
 11
-19.5555
 21
-50.8515
  0
LINE
  8
0
 10
-19.5555
 20
-50.8515
 11
-19.5098
 21
-50.8763
  0
LINE
  8
0
 10
-19.5098
 20
-50.8763
 11
-19.4397
 21
-50.9121
  0
LINE
  8
0
 10
-19.4397
 20
-50.9121
 11
-19.3923
 21
-50.9347
  0
LINE
  8
0
 10
-19.3923
 20
-50.9347
 11
-19.2491
 21
-50.9984
  0
LINE
  8
0
 10
-19.2491
 20
-50.9984
 11
-19.2007
 21
-51.0185
  0
LINE
  8
0
 10
-19.2007
 20
-51.0185
 11
-19.1278
 21
-51.0464
  0
LINE
  8
0
 10
-19.1278
 20
-51.0464
 11
-19.0778
 21
-51.0642
  0
LINE
  8
0
 10
-19.0778
 20
-51.0642
 11
-18.9288
 21
-51.1125
  0
LINE
  8
0
 10
-18.9288
 20
-51.1125
 11
-18.8785
 21
-51.1275
  0
LINE
  8
0
 10
-18.8785
 20
-51.1275
 11
-18.803
 21
-51.1477
  0
LINE
  8
0
 10
-18.803
 20
-51.1477
 11
-18.7518
 21
-51.16
  0
LINE
  8
0
 10
-18.7518
 20
-51.16
 11
-18.5985
 21
-51.1926
  0
LINE
  8
0
 10
-18.5985
 20
-51.1926
 11
-18.5469
 21
-51.2021
  0
LINE
  8
0
 10
-18.5469
 20
-51.2021
 11
-18.4696
 21
-51.2144
  0
LINE
  8
0
 10
-18.4696
 20
-51.2144
 11
-18.4174
 21
-51.2213
  0
LINE
  8
0
 10
-18.4174
 20
-51.2213
 11
-18.2614
 21
-51.2377
  0
LINE
  8
0
 10
-18.2614
 20
-51.2377
 11
-18.2093
 21
-51.2418
  0
LINE
  8
0
 10
-18.2093
 20
-51.2418
 11
-18.131
 21
-51.2459
  0
LINE
  8
0
 10
-18.131
 20
-51.2459
 11
-18.0785
 21
-51.2473
  0
LINE
  8
0
 10
-18.0785
 20
-51.2473
 11
-17.9215
 21
-51.2473
  0
LINE
  8
0
 10
-17.9215
 20
-51.2473
 11
-17.869
 21
-51.2459
  0
LINE
  8
0
 10
-17.869
 20
-51.2459
 11
-17.7907
 21
-51.2418
  0
LINE
  8
0
 10
-17.7907
 20
-51.2418
 11
-17.7385
 21
-51.2377
  0
LINE
  8
0
 10
-17.7385
 20
-51.2377
 11
-17.5824
 21
-51.2212
  0
LINE
  8
0
 10
-17.5824
 20
-51.2212
 11
-17.5306
 21
-51.2144
  0
LINE
  8
0
 10
-17.5306
 20
-51.2144
 11
-17.4531
 21
-51.2021
  0
LINE
  8
0
 10
-17.4531
 20
-51.2021
 11
-17.4014
 21
-51.1926
  0
LINE
  8
0
 10
-17.4014
 20
-51.1926
 11
-17.247
 21
-51.1597
  0
LINE
  8
0
 10
-17.247
 20
-51.1597
 11
-17.0402
 21
-51.127
  0
LINE
  8
0
 10
-17.0402
 20
-51.127
 11
-16.8312
 21
-51.116
  0
LINE
  8
0
 10
-16.8312
 20
-51.116
 11
-16.6221
 21
-51.1269
  0
LINE
  8
0
 10
-16.6221
 20
-51.1269
 11
-16.4153
 21
-51.1597
  0
LINE
  8
0
 10
-16.4153
 20
-51.1597
 11
-16.2131
 21
-51.2139
  0
LINE
  8
0
 10
-16.2131
 20
-51.2139
 11
-16.0177
 21
-51.2889
  0
LINE
  8
0
 10
-16.0177
 20
-51.2889
 11
-15.8311
 21
-51.3839
  0
LINE
  8
0
 10
-15.8311
 20
-51.3839
 11
-15.6556
 21
-51.4979
  0
LINE
  8
0
 10
-15.6556
 20
-51.4979
 11
-15.4929
 21
-51.6296
  0
LINE
  8
0
 10
-15.4929
 20
-51.6296
 11
-15.4168
 21
-51.7018
  0
LINE
  8
0
 10
-15.4168
 20
-51.7018
 11
-14.9223
 21
-52.1963
  0
LINE
  8
0
 10
-14.9223
 20
-52.1963
 11
-14.7822
 21
-52.3519
  0
LINE
  8
0
 10
-14.7822
 20
-52.3519
 11
-14.1237
 21
-53.1651
  0
LINE
  8
0
 10
-14.1237
 20
-53.1651
 11
-14.0006
 21
-53.3345
  0
LINE
  8
0
 10
-14.0006
 20
-53.3345
 11
-13.4307
 21
-54.2121
  0
LINE
  8
0
 10
-13.4307
 20
-54.2121
 11
-13.326
 21
-54.3934
  0
LINE
  8
0
 10
-13.326
 20
-54.3934
 11
-12.851
 21
-55.3258
  0
LINE
  8
0
 10
-12.851
 20
-55.3258
 11
-12.7658
 21
-55.517
  0
LINE
  8
0
 10
-12.7658
 20
-55.517
 11
-12.3909
 21
-56.4938
  0
LINE
  8
0
 10
-12.3909
 20
-56.4938
 11
-12.3262
 21
-56.6929
  0
LINE
  8
0
 10
-12.3262
 20
-56.6929
 11
-12.0621
 21
-57.6784
  0
LINE
  8
0
 10
-12.0621
 20
-57.6784
 11
-12.011
 21
-57.935
  0
LINE
  8
0
 10
-12.011
 20
-57.935
 11
-11.7926
 21
-59.5941
  0
LINE
  8
0
 10
-11.7926
 20
-59.5941
 11
-11.7783
 21
-59.7505
  0
LINE
  8
0
 10
-11.7783
 20
-59.7505
 11
-11.7645
 21
-60.014
  0
LINE
  8
0
 10
-11.7645
 20
-60.014
 11
-11.7535
 21
-60.118
  0
LINE
  8
0
 10
-11.7535
 20
-60.118
 11
-11.7372
 21
-60.2209
  0
LINE
  8
0
 10
-11.7372
 20
-60.2209
 11
-11.7236
 21
-60.3247
  0
LINE
  8
0
 10
-11.7236
 20
-60.3247
 11
-11.6087
 21
-61.4177
  0
LINE
  8
0
 10
-11.6087
 20
-61.4177
 11
-11.5977
 21
-61.6268
  0
LINE
  8
0
 10
-11.5977
 20
-61.6268
 11
-11.5977
 21
-62.6732
  0
LINE
  8
0
 10
-11.5977
 20
-62.6732
 11
-11.6087
 21
-62.8822
  0
LINE
  8
0
 10
-11.6087
 20
-62.8822
 11
-11.7236
 21
-63.9753
  0
LINE
  8
0
 10
-11.7236
 20
-63.9753
 11
-11.7372
 21
-64.0791
  0
LINE
  8
0
 10
-11.7372
 20
-64.0791
 11
-11.7535
 21
-64.1819
  0
LINE
  8
0
 10
-11.7535
 20
-64.1819
 11
-11.7645
 21
-64.286
  0
LINE
  8
0
 10
-11.7645
 20
-64.286
 11
-11.8041
 21
-65.043
  0
LINE
  8
0
 10
-11.8041
 20
-65.043
 11
-11.8123
 21
-65.1474
  0
LINE
  8
0
 10
-11.8123
 20
-65.1474
 11
-11.9272
 21
-66.2403
  0
LINE
  8
0
 10
-11.9272
 20
-66.2403
 11
-11.9599
 21
-66.4471
  0
LINE
  8
0
 10
-11.9599
 20
-66.4471
 11
-12.1775
 21
-67.4707
  0
LINE
  8
0
 10
-12.1775
 20
-67.4707
 11
-12.2317
 21
-67.6729
  0
LINE
  8
0
 10
-12.2317
 20
-67.6729
 11
-12.5551
 21
-68.6681
  0
LINE
  8
0
 10
-12.5551
 20
-68.6681
 11
-12.6301
 21
-68.8635
  0
LINE
  8
0
 10
-12.6301
 20
-68.8635
 11
-13.0558
 21
-69.8196
  0
LINE
  8
0
 10
-13.0558
 20
-69.8196
 11
-13.1508
 21
-70.0061
  0
LINE
  8
0
 10
-13.1508
 20
-70.0061
 11
-13.674
 21
-70.9122
  0
LINE
  8
0
 10
-13.674
 20
-70.9122
 11
-13.788
 21
-71.0878
  0
LINE
  8
0
 10
-13.788
 20
-71.0878
 11
-14.403
 21
-71.9343
  0
LINE
  8
0
 10
-14.403
 20
-71.9343
 11
-14.5347
 21
-72.097
  0
LINE
  8
0
 10
-14.5347
 20
-72.097
 11
-15.235
 21
-72.8748
  0
LINE
  8
0
 10
-15.235
 20
-72.8748
 11
-15.383
 21
-73.0228
  0
LINE
  8
0
 10
-15.383
 20
-73.0228
 11
-16.1608
 21
-73.7231
  0
LINE
  8
0
 10
-16.1608
 20
-73.7231
 11
-16.3234
 21
-73.8548
  0
LINE
  8
0
 10
-16.3234
 20
-73.8548
 11
-17.1699
 21
-74.4698
  0
LINE
  8
0
 10
-17.1699
 20
-74.4698
 11
-17.3455
 21
-74.5838
  0
LINE
  8
0
 10
-17.3455
 20
-74.5838
 11
-18.2518
 21
-75.107
  0
LINE
  8
0
 10
-18.2518
 20
-75.107
 11
-18.4383
 21
-75.2021
  0
LINE
  8
0
 10
-18.4383
 20
-75.2021
 11
-19.4421
 21
-75.649
  0
LINE
  8
0
 10
-19.4421
 20
-75.649
 11
-19.5388
 21
-75.6891
  0
LINE
  8
0
 10
-19.5388
 20
-75.6891
 11
-19.6919
 21
-75.7478
  0
LINE
  8
0
 10
-19.6919
 20
-75.7478
 11
-19.7873
 21
-75.7903
  0
LINE
  8
0
 10
-19.7873
 20
-75.7903
 11
-20.0656
 21
-75.9321
  0
LINE
  8
0
 10
-20.0656
 20
-75.9321
 11
-20.1564
 21
-75.9845
  0
LINE
  8
0
 10
-20.1564
 20
-75.9845
 11
-20.4178
 21
-76.1543
  0
LINE
  8
0
 10
-20.4178
 20
-76.1543
 11
-20.5028
 21
-76.216
  0
LINE
  8
0
 10
-20.5028
 20
-76.216
 11
-20.8123
 21
-76.4667
  0
LINE
  8
0
 10
-20.8123
 20
-76.4667
 11
-20.8526
 21
-76.5011
  0
LINE
  8
0
 10
-20.8526
 20
-76.5011
 11
-21.5992
 21
-77.1733
  0
LINE
  8
0
 10
-21.5992
 20
-77.1733
 11
-21.7619
 21
-77.305
  0
LINE
  8
0
 10
-21.7619
 20
-77.305
 11
-22.6084
 21
-77.92
  0
LINE
  8
0
 10
-22.6084
 20
-77.92
 11
-22.784
 21
-78.0341
  0
LINE
  8
0
 10
-22.784
 20
-78.0341
 11
-23.6903
 21
-78.5573
  0
LINE
  8
0
 10
-23.6903
 20
-78.5573
 11
-23.8768
 21
-78.6523
  0
LINE
  8
0
 10
-23.8768
 20
-78.6523
 11
-24.8135
 21
-79.0694
  0
LINE
  8
0
 10
-24.8135
 20
-79.0694
 11
-25.0489
 21
-79.1569
  0
LINE
  8
0
 10
-25.0489
 20
-79.1569
 11
-25.4703
 21
-79.2841
  0
LINE
  8
0
 10
-25.4703
 20
-79.2841
 11
-25.5283
 21
-79.305
  0
LINE
  8
0
 10
-25.5283
 20
-79.305
 11
-25.7464
 21
-79.394
  0
LINE
  8
0
 10
-25.7464
 20
-79.394
 11
-26.4562
 21
-79.6329
  0
LINE
  8
0
 10
-26.4562
 20
-79.6329
 11
-26.5539
 21
-79.6716
  0
LINE
  8
0
 10
-26.5539
 20
-79.6716
 11
-27.1474
 21
-79.9433
  0
LINE
  8
0
 10
-27.1474
 20
-79.9433
 11
-27.1947
 21
-79.9665
  0
LINE
  8
0
 10
-27.1947
 20
-79.9665
 11
-38.9979
 21
-86.1371
  0
LINE
  8
0
 10
-38.9979
 20
-86.1371
 11
-39.0435
 21
-86.1624
  0
LINE
  8
0
 10
-39.0435
 20
-86.1624
 11
-39.6058
 21
-86.495
  0
LINE
  8
0
 10
-39.6058
 20
-86.495
 11
-39.6931
 21
-86.553
  0
LINE
  8
0
 10
-39.6931
 20
-86.553
 11
-39.9438
 21
-86.7391
  0
LINE
  8
0
 10
-39.9438
 20
-86.7391
 11
-40.0243
 21
-86.8058
  0
LINE
  8
0
 10
-40.0243
 20
-86.8058
 11
-40.2539
 21
-87.0169
  0
LINE
  8
0
 10
-40.2539
 20
-87.0169
 11
-40.3272
 21
-87.0917
  0
LINE
  8
0
 10
-40.3272
 20
-87.0917
 11
-40.5337
 21
-87.3259
  0
LINE
  8
0
 10
-40.5337
 20
-87.3259
 11
-40.5988
 21
-87.4081
  0
LINE
  8
0
 10
-40.5988
 20
-87.4081
 11
-40.7796
 21
-87.6626
  0
LINE
  8
0
 10
-40.7796
 20
-87.6626
 11
-40.8357
 21
-87.7509
  0
LINE
  8
0
 10
-40.8357
 20
-87.7509
 11
-40.9888
 21
-88.0227
  0
LINE
  8
0
 10
-40.9888
 20
-88.0227
 11
-41.0353
 21
-88.1164
  0
LINE
  8
0
 10
-41.0353
 20
-88.1164
 11
-41.1594
 21
-88.4031
  0
LINE
  8
0
 10
-41.1594
 20
-88.4031
 11
-41.1959
 21
-88.5011
  0
LINE
  8
0
 10
-41.1959
 20
-88.5011
 11
-41.2892
 21
-88.799
  0
LINE
  8
0
 10
-41.2892
 20
-88.799
 11
-41.3152
 21
-88.9003
  0
LINE
  8
0
 10
-41.3152
 20
-88.9003
 11
-41.4921
 21
-89.7775
  0
LINE
  8
0
 10
-41.4921
 20
-89.7775
 11
-41.5011
 21
-89.8288
  0
LINE
  8
0
 10
-41.5011
 20
-89.8288
 11
-41.5108
 21
-89.8948
  0
LINE
  8
0
 10
-41.5108
 20
-89.8948
 11
-41.5289
 21
-89.9983
  0
LINE
  8
0
 10
-41.5289
 20
-89.9983
 11
-41.6226
 21
-90.4629
  0
LINE
  8
0
 10
-41.6226
 20
-90.4629
 11
-41.6379
 21
-90.5669
  0
LINE
  8
0
 10
-41.6379
 20
-90.5669
 11
-41.6673
 21
-90.8774
  0
LINE
  8
0
 10
-41.6673
 20
-90.8774
 11
-41.6716
 21
-90.982
  0
LINE
  8
0
 10
-41.6716
 20
-90.982
 11
-41.6684
 21
-91.2944
  0
LINE
  8
0
 10
-41.6684
 20
-91.2944
 11
-41.6618
 21
-91.3988
  0
LINE
  8
0
 10
-41.6618
 20
-91.3988
 11
-41.626
 21
-91.7085
  0
LINE
  8
0
 10
-41.626
 20
-91.7085
 11
-41.6085
 21
-91.8119
  0
LINE
  8
0
 10
-41.6085
 20
-91.8119
 11
-41.5403
 21
-92.1168
  0
LINE
  8
0
 10
-41.5403
 20
-92.1168
 11
-41.5122
 21
-92.2176
  0
LINE
  8
0
 10
-41.5122
 20
-92.2176
 11
-41.4127
 21
-92.5131
  0
LINE
  8
0
 10
-41.4127
 20
-92.5131
 11
-41.3741
 21
-92.6106
  0
LINE
  8
0
 10
-41.3741
 20
-92.6106
 11
-41.1023
 21
-93.2043
  0
LINE
  8
0
 10
-41.1023
 20
-93.2043
 11
-41.0793
 21
-93.2512
  0
LINE
  8
0
 10
-41.0793
 20
-93.2512
 11
-39.7731
 21
-95.7498
  0
LINE
  8
0
 10
-39.7731
 20
-95.7498
 11
-39.7478
 21
-95.7952
  0
LINE
  8
0
 10
-39.7478
 20
-95.7952
 11
-39.4152
 21
-96.3576
  0
LINE
  8
0
 10
-39.4152
 20
-96.3576
 11
-39.3574
 21
-96.4446
  0
LINE
  8
0
 10
-39.3574
 20
-96.4446
 11
-39.2952
 21
-96.5284
  0
LINE
  8
0
 10
-39.2952
 20
-96.5284
 11
-39.2349
 21
-96.6141
  0
LINE
  8
0
 10
-39.2349
 20
-96.6141
 11
-38.6269
 21
-97.5292
  0
LINE
  8
0
 10
-38.6269
 20
-97.5292
 11
-38.5204
 21
-97.7094
  0
LINE
  8
0
 10
-38.5204
 20
-97.7094
 11
-38.0355
 21
-98.6369
  0
LINE
  8
0
 10
-38.0355
 20
-98.6369
 11
-37.9484
 21
-98.8272
  0
LINE
  8
0
 10
-37.9484
 20
-98.8272
 11
-37.5439
 21
-99.8489
  0
LINE
  8
0
 10
-37.5439
 20
-99.8489
 11
-37.5079
 21
-99.9472
  0
LINE
  8
0
 10
-37.5079
 20
-99.9472
 11
-37.4747
 21
-100.046
  0
LINE
  8
0
 10
-37.4747
 20
-100.046
 11
-37.4362
 21
-100.143
  0
LINE
  8
0
 10
-37.4362
 20
-100.143
 11
-37.1642
 21
-100.737
  0
LINE
  8
0
 10
-37.1642
 20
-100.737
 11
-37.1414
 21
-100.784
  0
LINE
  8
0
 10
-37.1414
 20
-100.784
 11
-35.8352
 21
-103.282
  0
LINE
  8
0
 10
-35.8352
 20
-103.282
 11
-35.8096
 21
-103.328
  0
LINE
  8
0
 10
-35.8096
 20
-103.328
 11
-35.4772
 21
-103.89
  0
LINE
  8
0
 10
-35.4772
 20
-103.89
 11
-35.4192
 21
-103.978
  0
LINE
  8
0
 10
-35.4192
 20
-103.978
 11
-35.2332
 21
-104.228
  0
LINE
  8
0
 10
-35.2332
 20
-104.228
 11
-35.1664
 21
-104.309
  0
LINE
  8
0
 10
-35.1664
 20
-104.309
 11
-34.9553
 21
-104.538
  0
LINE
  8
0
 10
-34.9553
 20
-104.538
 11
-34.8805
 21
-104.612
  0
LINE
  8
0
 10
-34.8805
 20
-104.612
 11
-34.6461
 21
-104.818
  0
LINE
  8
0
 10
-34.6461
 20
-104.818
 11
-34.5642
 21
-104.883
  0
LINE
  8
0
 10
-34.5642
 20
-104.883
 11
-34.3097
 21
-105.064
  0
LINE
  8
0
 10
-34.3097
 20
-105.064
 11
-34.2215
 21
-105.12
  0
LINE
  8
0
 10
-34.2215
 20
-105.12
 11
-33.9496
 21
-105.273
  0
LINE
  8
0
 10
-33.9496
 20
-105.273
 11
-33.8559
 21
-105.32
  0
LINE
  8
0
 10
-33.8559
 20
-105.32
 11
-33.4203
 21
-105.508
  0
LINE
  8
0
 10
-33.4203
 20
-105.508
 11
-33.3253
 21
-105.552
  0
LINE
  8
0
 10
-33.3253
 20
-105.552
 11
-33.2654
 21
-105.582
  0
LINE
  8
0
 10
-33.2654
 20
-105.582
 11
-33.218
 21
-105.604
  0
LINE
  8
0
 10
-33.218
 20
-105.604
 11
-32.397
 21
-105.959
  0
LINE
  8
0
 10
-32.397
 20
-105.959
 11
-32.2989
 21
-105.996
  0
LINE
  8
0
 10
-32.2989
 20
-105.996
 11
-32.0011
 21
-106.089
  0
LINE
  8
0
 10
-32.0011
 20
-106.089
 11
-31.8996
 21
-106.115
  0
LINE
  8
0
 10
-31.8996
 20
-106.115
 11
-31.5937
 21
-106.177
  0
LINE
  8
0
 10
-31.5937
 20
-106.177
 11
-31.4901
 21
-106.192
  0
LINE
  8
0
 10
-31.4901
 20
-106.192
 11
-31.1794
 21
-106.222
  0
LINE
  8
0
 10
-31.1794
 20
-106.222
 11
-31.0748
 21
-106.226
  0
LINE
  8
0
 10
-31.0748
 20
-106.226
 11
-30.7624
 21
-106.223
  0
LINE
  8
0
 10
-30.7624
 20
-106.223
 11
-30.6585
 21
-106.216
  0
LINE
  8
0
 10
-30.6585
 20
-106.216
 11
-30.3479
 21
-106.18
  0
LINE
  8
0
 10
-30.3479
 20
-106.18
 11
-30.2449
 21
-106.163
  0
LINE
  8
0
 10
-30.2449
 20
-106.163
 11
-29.9404
 21
-106.095
  0
LINE
  8
0
 10
-29.9404
 20
-106.095
 11
-29.8393
 21
-106.067
  0
LINE
  8
0
 10
-29.8393
 20
-106.067
 11
-29.5436
 21
-105.967
  0
LINE
  8
0
 10
-29.5436
 20
-105.967
 11
-29.4463
 21
-105.928
  0
LINE
  8
0
 10
-29.4463
 20
-105.928
 11
-28.8528
 21
-105.657
  0
LINE
  8
0
 10
-28.8528
 20
-105.657
 11
-28.8056
 21
-105.634
  0
LINE
  8
0
 10
-28.8056
 20
-105.634
 11
-17.0021
 21
-99.4629
  0
LINE
  8
0
 10
-17.0021
 20
-99.4629
 11
-16.9565
 21
-99.4375
  0
LINE
  8
0
 10
-16.9565
 20
-99.4375
 11
-16.3942
 21
-99.105
  0
LINE
  8
0
 10
-16.3942
 20
-99.105
 11
-16.3069
 21
-99.047
  0
LINE
  8
0
 10
-16.3069
 20
-99.047
 11
-16.0564
 21
-98.861
  0
LINE
  8
0
 10
-16.0564
 20
-98.861
 11
-15.9594
 21
-98.7807
  0
LINE
  8
0
 10
-15.9594
 20
-98.7807
 11
-15.9121
 21
-98.7394
  0
LINE
  8
0
 10
-15.9121
 20
-98.7394
 11
-15.0654
 21
-98.039
  0
LINE
  8
0
 10
-15.0654
 20
-98.039
 11
-14.8974
 21
-97.9142
  0
LINE
  8
0
 10
-14.8974
 20
-97.9142
 11
-14.0256
 21
-97.335
  0
LINE
  8
0
 10
-14.0256
 20
-97.335
 11
-13.8454
 21
-97.2285
  0
LINE
  8
0
 10
-13.8454
 20
-97.2285
 11
-12.923
 21
-96.7462
  0
LINE
  8
0
 10
-12.923
 20
-96.7462
 11
-12.7229
 21
-96.6552
  0
LINE
  8
0
 10
-12.7229
 20
-96.6552
 11
-11.5918
 21
-96.2142
  0
LINE
  8
0
 10
-11.5918
 20
-96.2142
 11
-11.4833
 21
-96.1755
  0
LINE
  8
0
 10
-11.4833
 20
-96.1755
 11
-1.40599
 21
-92.9012
  0
LINE
  8
0
 10
-1.40599
 20
-92.9012
 11
-1.30563
 21
-92.8714
  0
LINE
  8
0
 10
-1.30563
 20
-92.8714
 11
-0.244064
 21
-92.587
  0
LINE
  8
0
 10
-0.244064
 20
-92.587
 11
-0.0392609
 21
-92.5434
  0
LINE
  8
0
 10
-0.0392609
 20
-92.5434
 11
0.994186
 21
-92.3798
  0
LINE
  8
0
 10
0.994186
 20
-92.3798
 11
1.20238
 21
-92.3579
  0
LINE
  8
0
 10
1.20238
 20
-92.3579
 11
2.24736
 21
-92.3031
  0
LINE
  8
0
 10
2.24736
 20
-92.3031
 11
2.45671
 21
-92.3031
  0
LINE
  8
0
 10
2.45671
 20
-92.3031
 11
3.52266
 21
-92.359
  0
LINE
  8
0
 10
3.52266
 20
-92.359
 11
3.68942
 21
-92.3747
  0
LINE
  8
0
 10
3.68942
 20
-92.3747
 11
4.3222
 21
-92.4614
  0
LINE
  8
0
 10
4.3222
 20
-92.4614
 11
4.38432
 21
-92.4709
  0
LINE
  8
0
 10
4.38432
 20
-92.4709
 11
5.46831
 21
-92.6543
  0
LINE
  8
0
 10
5.46831
 20
-92.6543
 11
5.52034
 21
-92.6617
  0
LINE
  8
0
 10
5.52034
 20
-92.6617
 11
18.7509
 21
-94.1925
  0
LINE
  8
0
 10
18.7509
 20
-94.1925
 11
18.8034
 21
-94.1972
  0
LINE
  8
0
 10
18.8034
 20
-94.1972
 11
19.4549
 21
-94.2382
  0
LINE
  8
0
 10
19.4549
 20
-94.2382
 11
19.5597
 21
-94.2393
  0
LINE
  8
0
 10
19.5597
 20
-94.2393
 11
19.8717
 21
-94.2262
  0
LINE
  8
0
 10
19.8717
 20
-94.2262
 11
19.9756
 21
-94.2164
  0
LINE
  8
0
 10
19.9756
 20
-94.2164
 11
20.2846
 21
-94.1707
  0
LINE
  8
0
 10
20.2846
 20
-94.1707
 11
20.387
 21
-94.1501
  0
LINE
  8
0
 10
20.387
 20
-94.1501
 11
20.6894
 21
-94.0725
  0
LINE
  8
0
 10
20.6894
 20
-94.0725
 11
20.7896
 21
-94.041
  0
LINE
  8
0
 10
20.7896
 20
-94.041
 11
21.0818
 21
-93.9324
  0
LINE
  8
0
 10
21.0818
 20
-93.9324
 11
21.1781
 21
-93.8907
  0
LINE
  8
0
 10
21.1781
 20
-93.8907
 11
21.4576
 21
-93.752
  0
LINE
  8
0
 10
21.4576
 20
-93.752
 11
21.5489
 21
-93.7006
  0
LINE
  8
0
 10
21.5489
 20
-93.7006
 11
21.8122
 21
-93.5334
  0
LINE
  8
0
 10
21.8122
 20
-93.5334
 11
21.8979
 21
-93.4725
  0
LINE
  8
0
 10
21.8979
 20
-93.4725
 11
22.1421
 21
-93.279
  0
LINE
  8
0
 10
22.1421
 20
-93.279
 11
22.2209
 21
-93.2095
  0
LINE
  8
0
 10
22.2209
 20
-93.2095
 11
22.8599
 21
-92.5837
  0
LINE
  8
0
 10
22.8599
 20
-92.5837
 11
22.8961
 21
-92.5464
  0
LINE
  8
0
 10
22.8961
 20
-92.5464
 11
22.9416
 21
-92.497
  0
LINE
  8
0
 10
22.9416
 20
-92.497
 11
23.0145
 21
-92.4217
  0
LINE
  8
0
 10
23.0145
 20
-92.4217
 11
23.3533
 21
-92.0899
  0
LINE
  8
0
 10
23.3533
 20
-92.0899
 11
23.4244
 21
-92.0126
  0
LINE
  8
0
 10
23.4244
 20
-92.0126
 11
23.6234
 21
-91.7721
  0
LINE
  8
0
 10
23.6234
 20
-91.7721
 11
23.6857
 21
-91.6882
  0
LINE
  8
0
 10
23.6857
 20
-91.6882
 11
23.8585
 21
-91.4281
  0
LINE
  8
0
 10
23.8585
 20
-91.4281
 11
23.9117
 21
-91.3382
  0
LINE
  8
0
 10
23.9117
 20
-91.3382
 11
24.0564
 21
-91.0613
  0
LINE
  8
0
 10
24.0564
 20
-91.0613
 11
24.0999
 21
-90.9662
  0
LINE
  8
0
 10
24.0999
 20
-90.9662
 11
24.2148
 21
-90.6761
  0
LINE
  8
0
 10
24.2148
 20
-90.6761
 11
24.2482
 21
-90.577
  0
LINE
  8
0
 10
24.2482
 20
-90.577
 11
24.3322
 21
-90.2761
  0
LINE
  8
0
 10
24.3322
 20
-90.2761
 11
24.355
 21
-90.174
  0
LINE
  8
0
 10
24.355
 20
-90.174
 11
24.4639
 21
-89.5302
  0
LINE
  8
0
 10
24.4639
 20
-89.5302
 11
24.4713
 21
-89.4781
  0
LINE
  8
0
 10
24.4713
 20
-89.4781
 11
24.7953
 21
-86.6778
  0
LINE
  8
0
 10
24.7953
 20
-86.6778
 11
24.8
 21
-86.6255
  0
LINE
  8
0
 10
24.8
 20
-86.6255
 11
24.841
 21
-85.9741
  0
LINE
  8
0
 10
24.841
 20
-85.9741
 11
24.8421
 21
-85.8692
  0
LINE
  8
0
 10
24.8421
 20
-85.8692
 11
24.8377
 21
-85.7652
  0
LINE
  8
0
 10
24.8377
 20
-85.7652
 11
24.8361
 21
-85.6605
  0
LINE
  8
0
 10
24.8361
 20
-85.6605
 11
24.8476
 21
-84.5616
  0
LINE
  8
0
 10
24.8476
 20
-84.5616
 11
24.8607
 21
-84.3526
  0
LINE
  8
0
 10
24.8607
 20
-84.3526
 11
24.981
 21
-83.3132
  0
LINE
  8
0
 10
24.981
 20
-83.3132
 11
25.0159
 21
-83.1068
  0
LINE
  8
0
 10
25.0159
 20
-83.1068
 11
25.2556
 21
-82.0346
  0
LINE
  8
0
 10
25.2556
 20
-82.0346
 11
25.2811
 21
-81.9331
  0
LINE
  8
0
 10
25.2811
 20
-81.9331
 11
25.3092
 21
-81.8324
  0
LINE
  8
0
 10
25.3092
 20
-81.8324
 11
25.332
 21
-81.7305
  0
LINE
  8
0
 10
25.332
 20
-81.7305
 11
25.4408
 21
-81.0869
  0
LINE
  8
0
 10
25.4408
 20
-81.0869
 11
25.4483
 21
-81.0342
  0
LINE
  8
0
 10
25.4483
 20
-81.0342
 11
25.7723
 21
-78.2343
  0
LINE
  8
0
 10
25.7723
 20
-78.2343
 11
25.7769
 21
-78.182
  0
LINE
  8
0
 10
25.7769
 20
-78.182
 11
25.8179
 21
-77.5303
  0
LINE
  8
0
 10
25.8179
 20
-77.5303
 11
25.819
 21
-77.4257
  0
LINE
  8
0
 10
25.819
 20
-77.4257
 11
25.806
 21
-77.1137
  0
LINE
  8
0
 10
25.806
 20
-77.1137
 11
25.7961
 21
-77.0096
  0
LINE
  8
0
 10
25.7961
 20
-77.0096
 11
25.7873
 21
-76.95
  0
LINE
  8
0
 10
25.7873
 20
-76.95
 11
25.7748
 21
-76.8462
  0
LINE
  8
0
 10
25.7748
 20
-76.8462
 11
25.6714
 21
-75.7523
  0
LINE
  8
0
 10
25.6714
 20
-75.7523
 11
25.6626
 21
-75.5432
  0
LINE
  8
0
 10
25.6626
 20
-75.5432
 11
25.6736
 21
-74.4967
  0
LINE
  8
0
 10
25.6736
 20
-74.4967
 11
25.6867
 21
-74.2877
  0
LINE
  8
0
 10
25.6867
 20
-74.2877
 11
25.807
 21
-73.2483
  0
LINE
  8
0
 10
25.807
 20
-73.2483
 11
25.8419
 21
-73.0419
  0
LINE
  8
0
 10
25.8419
 20
-73.0419
 11
26.0701
 21
-72.0208
  0
LINE
  8
0
 10
26.0701
 20
-72.0208
 11
26.1264
 21
-71.8191
  0
LINE
  8
0
 10
26.1264
 20
-71.8191
 11
26.4602
 21
-70.8272
  0
LINE
  8
0
 10
26.4602
 20
-70.8272
 11
26.5373
 21
-70.6326
  0
LINE
  8
0
 10
26.5373
 20
-70.6326
 11
26.9729
 21
-69.6811
  0
LINE
  8
0
 10
26.9729
 20
-69.6811
 11
27.0699
 21
-69.4956
  0
LINE
  8
0
 10
27.0699
 20
-69.4956
 11
27.6026
 21
-68.5949
  0
LINE
  8
0
 10
27.6026
 20
-68.5949
 11
27.7184
 21
-68.4205
  0
LINE
  8
0
 10
27.7184
 20
-68.4205
 11
28.3455
 21
-67.5763
  0
LINE
  8
0
 10
28.3455
 20
-67.5763
 11
28.4718
 21
-67.4227
  0
LINE
  8
0
 10
28.4718
 20
-67.4227
 11
28.8776
 21
-66.9767
  0
LINE
  8
0
 10
28.8776
 20
-66.9767
 11
28.9154
 21
-66.9327
  0
LINE
  8
0
 10
28.9154
 20
-66.9327
 11
29.172
 21
-66.6158
  0
LINE
  8
0
 10
29.172
 20
-66.6158
 11
29.2401
 21
-66.5362
  0
LINE
  8
0
 10
29.2401
 20
-66.5362
 11
29.9753
 21
-65.7196
  0
LINE
  8
0
 10
29.9753
 20
-65.7196
 11
30.1233
 21
-65.5716
  0
LINE
  8
0
 10
30.1233
 20
-65.5716
 11
30.901
 21
-64.8714
  0
LINE
  8
0
 10
30.901
 20
-64.8714
 11
31.0637
 21
-64.7397
  0
LINE
  8
0
 10
31.0637
 20
-64.7397
 11
31.9104
 21
-64.1245
  0
LINE
  8
0
 10
31.9104
 20
-64.1245
 11
32.0859
 21
-64.0105
  0
LINE
  8
0
 10
32.0859
 20
-64.0105
 11
32.992
 21
-63.4874
  0
LINE
  8
0
 10
32.992
 20
-63.4874
 11
33.1785
 21
-63.3923
  0
LINE
  8
0
 10
33.1785
 20
-63.3923
 11
34.1346
 21
-62.9667
  0
LINE
  8
0
 10
34.1346
 20
-62.9667
 11
34.3301
 21
-62.8916
  0
LINE
  8
0
 10
34.3301
 20
-62.8916
 11
35.3253
 21
-62.5683
  0
LINE
  8
0
 10
35.3253
 20
-62.5683
 11
35.5275
 21
-62.5141
  0
LINE
  8
0
 10
35.5275
 20
-62.5141
 11
36.551
 21
-62.2966
  0
LINE
  8
0
 10
36.551
 20
-62.2966
 11
36.7578
 21
-62.2638
  0
LINE
  8
0
 10
36.7578
 20
-62.2638
 11
37.7985
 21
-62.1545
  0
LINE
  8
0
 10
37.7985
 20
-62.1545
 11
38.0076
 21
-62.1435
  0
LINE
  8
0
 10
38.0076
 20
-62.1435
 11
39.054
 21
-62.1435
  0
LINE
  8
0
 10
39.054
 20
-62.1435
 11
39.263
 21
-62.1545
  0
LINE
  8
0
 10
39.263
 20
-62.1545
 11
40.3038
 21
-62.2639
  0
LINE
  8
0
 10
40.3038
 20
-62.2639
 11
40.5106
 21
-62.2966
  0
LINE
  8
0
 10
40.5106
 20
-62.2966
 11
41.534
 21
-62.5142
  0
LINE
  8
0
 10
41.534
 20
-62.5142
 11
41.7362
 21
-62.5684
  0
LINE
  8
0
 10
41.7362
 20
-62.5684
 11
42.7315
 21
-62.8918
  0
LINE
  8
0
 10
42.7315
 20
-62.8918
 11
42.9269
 21
-62.9668
  0
LINE
  8
0
 10
42.9269
 20
-62.9668
 11
43.8828
 21
-63.3924
  0
LINE
  8
0
 10
43.8828
 20
-63.3924
 11
44.0694
 21
-63.4874
  0
LINE
  8
0
 10
44.0694
 20
-63.4874
 11
44.9758
 21
-64.0108
  0
LINE
  8
0
 10
44.9758
 20
-64.0108
 11
45.1513
 21
-64.1248
  0
LINE
  8
0
 10
45.1513
 20
-64.1248
 11
45.9977
 21
-64.7397
  0
LINE
  8
0
 10
45.9977
 20
-64.7397
 11
46.1604
 21
-64.8715
  0
LINE
  8
0
 10
46.1604
 20
-64.8715
 11
46.977
 21
-65.6068
  0
LINE
  8
0
 10
46.977
 20
-65.6068
 11
47.0529
 21
-65.6788
  0
LINE
  8
0
 10
47.0529
 20
-65.6788
 11
47.4474
 21
-66.0733
  0
LINE
  8
0
 10
47.4474
 20
-66.0733
 11
47.5251
 21
-66.1432
  0
LINE
  8
0
 10
47.5251
 20
-66.1432
 11
47.7678
 21
-66.3398
  0
LINE
  8
0
 10
47.7678
 20
-66.3398
 11
47.8524
 21
-66.4012
  0
LINE
  8
0
 10
47.8524
 20
-66.4012
 11
48.1142
 21
-66.5712
  0
LINE
  8
0
 10
48.1142
 20
-66.5712
 11
48.205
 21
-66.6236
  0
LINE
  8
0
 10
48.205
 20
-66.6236
 11
48.4831
 21
-66.7654
  0
LINE
  8
0
 10
48.4831
 20
-66.7654
 11
48.5786
 21
-66.8079
  0
LINE
  8
0
 10
48.5786
 20
-66.8079
 11
48.8701
 21
-66.9198
  0
LINE
  8
0
 10
48.8701
 20
-66.9198
 11
48.9697
 21
-66.9521
  0
LINE
  8
0
 10
48.9697
 20
-66.9521
 11
49.2712
 21
-67.0329
  0
LINE
  8
0
 10
49.2712
 20
-67.0329
 11
49.3735
 21
-67.0547
  0
LINE
  8
0
 10
49.3735
 20
-67.0547
 11
49.6819
 21
-67.1035
  0
LINE
  8
0
 10
49.6819
 20
-67.1035
 11
49.7859
 21
-67.1145
  0
LINE
  8
0
 10
49.7859
 20
-67.1145
 11
50.4377
 21
-67.1486
  0
LINE
  8
0
 10
50.4377
 20
-67.1486
 11
50.4904
 21
-67.15
  0
LINE
  8
0
 10
50.4904
 20
-67.15
 11
52.4264
 21
-67.15
  0
LINE
  8
0
 10
52.4264
 20
-67.15
 11
52.531
 21
-67.1527
  0
LINE
  8
0
 10
52.531
 20
-67.1527
 11
53.6283
 21
-67.2102
  0
LINE
  8
0
 10
53.6283
 20
-67.2102
 11
53.8365
 21
-67.2321
  0
LINE
  8
0
 10
53.8365
 20
-67.2321
 11
54.8699
 21
-67.3958
  0
LINE
  8
0
 10
54.8699
 20
-67.3958
 11
55.0747
 21
-67.4393
  0
LINE
  8
0
 10
55.0747
 20
-67.4393
 11
56.0857
 21
-67.7102
  0
LINE
  8
0
 10
56.0857
 20
-67.7102
 11
56.2848
 21
-67.7749
  0
LINE
  8
0
 10
56.2848
 20
-67.7749
 11
57.2616
 21
-68.1499
  0
LINE
  8
0
 10
57.2616
 20
-68.1499
 11
57.4528
 21
-68.235
  0
LINE
  8
0
 10
57.4528
 20
-68.235
 11
58.3852
 21
-68.7101
  0
LINE
  8
0
 10
58.3852
 20
-68.7101
 11
58.5665
 21
-68.8148
  0
LINE
  8
0
 10
58.5665
 20
-68.8148
 11
59.4441
 21
-69.3847
  0
LINE
  8
0
 10
59.4441
 20
-69.3847
 11
59.6135
 21
-69.5078
  0
LINE
  8
0
 10
59.6135
 20
-69.5078
 11
60.4267
 21
-70.1663
  0
LINE
  8
0
 10
60.4267
 20
-70.1663
 11
60.5823
 21
-70.3063
  0
LINE
  8
0
 10
60.5823
 20
-70.3063
 11
61.3223
 21
-71.0463
  0
LINE
  8
0
 10
61.3223
 20
-71.0463
 11
61.4623
 21
-71.2019
  0
LINE
  8
0
 10
61.4623
 20
-71.2019
 11
62.1208
 21
-72.0151
  0
LINE
  8
0
 10
62.1208
 20
-72.0151
 11
62.2439
 21
-72.1845
  0
LINE
  8
0
 10
62.2439
 20
-72.1845
 11
62.8138
 21
-73.0621
  0
LINE
  8
0
 10
62.8138
 20
-73.0621
 11
62.9185
 21
-73.2434
  0
LINE
  8
0
 10
62.9185
 20
-73.2434
 11
63.3936
 21
-74.1758
  0
LINE
  8
0
 10
63.3936
 20
-74.1758
 11
63.4787
 21
-74.367
  0
LINE
  8
0
 10
63.4787
 20
-74.367
 11
63.8537
 21
-75.3438
  0
LINE
  8
0
 10
63.8537
 20
-75.3438
 11
63.9184
 21
-75.5429
  0
LINE
  8
0
 10
63.9184
 20
-75.5429
 11
64.1893
 21
-76.5539
  0
LINE
  8
0
 10
64.1893
 20
-76.5539
 11
64.2328
 21
-76.7587
  0
LINE
  8
0
 10
64.2328
 20
-76.7587
 11
64.4097
 21
-77.8753
  0
LINE
  8
0
 10
64.4097
 20
-77.8753
 11
64.4204
 21
-77.953
  0
LINE
  8
0
 10
64.4204
 20
-77.953
 11
64.4206
 21
-77.9548
  0
LINE
  8
0
 10
64.4206
 20
-77.9548
 11
64.4628
 21
-78.2208
  0
LINE
  8
0
 10
64.4628
 20
-78.2208
 11
64.4764
 21
-78.3247
  0
LINE
  8
0
 10
64.4764
 20
-78.3247
 11
64.5913
 21
-79.4177
  0
LINE
  8
0
 10
64.5913
 20
-79.4177
 11
64.6023
 21
-79.6268
  0
LINE
  8
0
 10
64.6023
 20
-79.6268
 11
64.6023
 21
-80.6732
  0
LINE
  8
0
 10
64.6023
 20
-80.6732
 11
64.5913
 21
-80.8822
  0
LINE
  8
0
 10
64.5913
 20
-80.8822
 11
64.4764
 21
-81.9753
  0
LINE
  8
0
 10
64.4764
 20
-81.9753
 11
64.4628
 21
-82.0791
  0
LINE
  8
0
 10
64.4628
 20
-82.0791
 11
64.4465
 21
-82.1819
  0
LINE
  8
0
 10
64.4465
 20
-82.1819
 11
64.4355
 21
-82.286
  0
LINE
  8
0
 10
64.4355
 20
-82.286
 11
64.4014
 21
-82.9378
  0
LINE
  8
0
 10
64.4014
 20
-82.9378
 11
64.4
 21
-82.9904
  0
LINE
  8
0
 10
64.4
 20
-82.9904
 11
64.4
 21
-85.8096
  0
LINE
  8
0
 10
64.4
 20
-85.8096
 11
64.4014
 21
-85.8622
  0
LINE
  8
0
 10
64.4014
 20
-85.8622
 11
64.4355
 21
-86.5141
  0
LINE
  8
0
 10
64.4355
 20
-86.5141
 11
64.4465
 21
-86.6181
  0
LINE
  8
0
 10
64.4465
 20
-86.6181
 11
64.4953
 21
-86.9265
  0
LINE
  8
0
 10
64.4953
 20
-86.9265
 11
64.5171
 21
-87.0288
  0
LINE
  8
0
 10
64.5171
 20
-87.0288
 11
64.5978
 21
-87.3302
  0
LINE
  8
0
 10
64.5978
 20
-87.3302
 11
64.6302
 21
-87.4298
  0
LINE
  8
0
 10
64.6302
 20
-87.4298
 11
64.7421
 21
-87.7214
  0
LINE
  8
0
 10
64.7421
 20
-87.7214
 11
64.7846
 21
-87.8169
  0
LINE
  8
0
 10
64.7846
 20
-87.8169
 11
64.9264
 21
-88.0952
  0
LINE
  8
0
 10
64.9264
 20
-88.0952
 11
64.9786
 21
-88.1856
  0
LINE
  8
0
 10
64.9786
 20
-88.1856
 11
65.1486
 21
-88.4473
  0
LINE
  8
0
 10
65.1486
 20
-88.4473
 11
65.2103
 21
-88.5323
  0
LINE
  8
0
 10
65.2103
 20
-88.5323
 11
65.5088
 21
-88.9008
  0
LINE
  8
0
 10
65.5088
 20
-88.9008
 11
65.5726
 21
-88.984
  0
LINE
  8
0
 10
65.5726
 20
-88.984
 11
65.6121
 21
-89.0383
  0
LINE
  8
0
 10
65.6121
 20
-89.0383
 11
65.6437
 21
-89.0796
  0
LINE
  8
0
 10
65.6437
 20
-89.0796
 11
66.2066
 21
-89.7747
  0
LINE
  8
0
 10
66.2066
 20
-89.7747
 11
66.2768
 21
-89.8526
  0
LINE
  8
0
 10
66.2768
 20
-89.8526
 11
66.4974
 21
-90.0733
  0
LINE
  8
0
 10
66.4974
 20
-90.0733
 11
66.5751
 21
-90.1432
  0
LINE
  8
0
 10
66.5751
 20
-90.1432
 11
66.8178
 21
-90.3398
  0
LINE
  8
0
 10
66.8178
 20
-90.3398
 11
66.9024
 21
-90.4012
  0
LINE
  8
0
 10
66.9024
 20
-90.4012
 11
67.1642
 21
-90.5712
  0
LINE
  8
0
 10
67.1642
 20
-90.5712
 11
67.255
 21
-90.6236
  0
LINE
  8
0
 10
67.255
 20
-90.6236
 11
67.5331
 21
-90.7654
  0
LINE
  8
0
 10
67.5331
 20
-90.7654
 11
67.6286
 21
-90.8079
  0
LINE
  8
0
 10
67.6286
 20
-90.8079
 11
67.9202
 21
-90.9198
  0
LINE
  8
0
 10
67.9202
 20
-90.9198
 11
68.0197
 21
-90.9521
  0
LINE
  8
0
 10
68.0197
 20
-90.9521
 11
68.3212
 21
-91.0329
  0
LINE
  8
0
 10
68.3212
 20
-91.0329
 11
68.4235
 21
-91.0547
  0
LINE
  8
0
 10
68.4235
 20
-91.0547
 11
68.7319
 21
-91.1035
  0
LINE
  8
0
 10
68.7319
 20
-91.1035
 11
68.8359
 21
-91.1145
  0
LINE
  8
0
 10
68.8359
 20
-91.1145
 11
69.4877
 21
-91.1486
  0
LINE
  8
0
 10
69.4877
 20
-91.1486
 11
69.5404
 21
-91.15
  0
LINE
  8
0
 10
69.5404
 20
-91.15
 11
76.6013
 21
-91.15
  0
LINE
  8
0
 10
76.6013
 20
-91.15
 11
76.706
 21
-91.1527
  0
LINE
  8
0
 10
76.706
 20
-91.1527
 11
77.8032
 21
-91.2102
  0
LINE
  8
0
 10
77.8032
 20
-91.2102
 11
78.0114
 21
-91.2321
  0
LINE
  8
0
 10
78.0114
 20
-91.2321
 11
79.0449
 21
-91.3958
  0
LINE
  8
0
 10
79.0449
 20
-91.3958
 11
79.2497
 21
-91.4393
  0
LINE
  8
0
 10
79.2497
 20
-91.4393
 11
80.2607
 21
-91.7102
  0
LINE
  8
0
 10
80.2607
 20
-91.7102
 11
80.4597
 21
-91.7749
  0
LINE
  8
0
 10
80.4597
 20
-91.7749
 11
81.4366
 21
-92.1499
  0
LINE
  8
0
 10
81.4366
 20
-92.1499
 11
81.6278
 21
-92.235
  0
LINE
  8
0
 10
81.6278
 20
-92.235
 11
82.5602
 21
-92.7101
  0
LINE
  8
0
 10
82.5602
 20
-92.7101
 11
82.7415
 21
-92.8148
  0
LINE
  8
0
 10
82.7415
 20
-92.8148
 11
83.597
 21
-93.3704
  0
LINE
  8
0
 10
83.597
 20
-93.3704
 11
83.8066
 21
-93.5269
  0
LINE
  8
0
 10
83.8066
 20
-93.5269
 11
85.0791
 21
-94.6137
  0
LINE
  8
0
 10
85.0791
 20
-94.6137
 11
85.1945
 21
-94.7203
  0
LINE
  8
0
 10
85.1945
 20
-94.7203
 11
85.5474
 21
-95.0733
  0
LINE
  8
0
 10
85.5474
 20
-95.0733
 11
85.6251
 21
-95.1432
  0
LINE
  8
0
 10
85.6251
 20
-95.1432
 11
85.8678
 21
-95.3398
  0
LINE
  8
0
 10
85.8678
 20
-95.3398
 11
85.9524
 21
-95.4012
  0
LINE
  8
0
 10
85.9524
 20
-95.4012
 11
86.2142
 21
-95.5712
  0
LINE
  8
0
 10
86.2142
 20
-95.5712
 11
86.305
 21
-95.6236
  0
LINE
  8
0
 10
86.305
 20
-95.6236
 11
86.5831
 21
-95.7654
  0
LINE
  8
0
 10
86.5831
 20
-95.7654
 11
86.6786
 21
-95.8079
  0
LINE
  8
0
 10
86.6786
 20
-95.8079
 11
86.9702
 21
-95.9198
  0
LINE
  8
0
 10
86.9702
 20
-95.9198
 11
87.0697
 21
-95.9521
  0
LINE
  8
0
 10
87.0697
 20
-95.9521
 11
87.3712
 21
-96.0329
  0
LINE
  8
0
 10
87.3712
 20
-96.0329
 11
87.4735
 21
-96.0547
  0
LINE
  8
0
 10
87.4735
 20
-96.0547
 11
87.7819
 21
-96.1035
  0
LINE
  8
0
 10
87.7819
 20
-96.1035
 11
87.8859
 21
-96.1145
  0
LINE
  8
0
 10
87.8859
 20
-96.1145
 11
88.5378
 21
-96.1486
  0
LINE
  8
0
 10
88.5378
 20
-96.1486
 11
88.5904
 21
-96.15
  0
LINE
  8
0
 10
88.5904
 20
-96.15
 11
101.91
 21
-96.15
  0
LINE
  8
0
 10
101.91
 20
-96.15
 11
101.962
 21
-96.1486
  0
LINE
  8
0
 10
101.962
 20
-96.1486
 11
102.614
 21
-96.1145
  0
LINE
  8
0
 10
102.614
 20
-96.1145
 11
102.718
 21
-96.1035
  0
LINE
  8
0
 10
102.718
 20
-96.1035
 11
103.026
 21
-96.0547
  0
LINE
  8
0
 10
103.026
 20
-96.0547
 11
103.129
 21
-96.0329
  0
LINE
  8
0
 10
103.129
 20
-96.0329
 11
103.43
 21
-95.9521
  0
LINE
  8
0
 10
103.43
 20
-95.9521
 11
103.53
 21
-95.9198
  0
LINE
  8
0
 10
103.53
 20
-95.9198
 11
103.821
 21
-95.8079
  0
LINE
  8
0
 10
103.821
 20
-95.8079
 11
103.917
 21
-95.7654
  0
LINE
  8
0
 10
103.917
 20
-95.7654
 11
104.195
 21
-95.6236
  0
LINE
  8
0
 10
104.195
 20
-95.6236
 11
104.286
 21
-95.5712
  0
LINE
  8
0
 10
104.286
 20
-95.5712
 11
104.548
 21
-95.4012
  0
LINE
  8
0
 10
104.548
 20
-95.4012
 11
104.632
 21
-95.3398
  0
LINE
  8
0
 10
104.632
 20
-95.3398
 11
104.875
 21
-95.1432
  0
LINE
  8
0
 10
104.875
 20
-95.1432
 11
104.953
 21
-95.0733
  0
LINE
  8
0
 10
104.953
 20
-95.0733
 11
105.173
 21
-94.8526
  0
LINE
  8
0
 10
105.173
 20
-94.8526
 11
105.243
 21
-94.7747
  0
LINE
  8
0
 10
105.243
 20
-94.7747
 11
105.806
 21
-94.0795
  0
LINE
  8
0
 10
105.806
 20
-94.0795
 11
105.838
 21
-94.0378
  0
LINE
  8
0
 10
105.838
 20
-94.0378
 11
105.877
 21
-93.984
  0
LINE
  8
0
 10
105.877
 20
-93.984
 11
105.941
 21
-93.9007
  0
LINE
  8
0
 10
105.941
 20
-93.9007
 11
106.24
 21
-93.5321
  0
LINE
  8
0
 10
106.24
 20
-93.5321
 11
106.301
 21
-93.4477
  0
LINE
  8
0
 10
106.301
 20
-93.4477
 11
106.471
 21
-93.1855
  0
LINE
  8
0
 10
106.471
 20
-93.1855
 11
106.524
 21
-93.0952
  0
LINE
  8
0
 10
106.524
 20
-93.0952
 11
106.665
 21
-92.8169
  0
LINE
  8
0
 10
106.665
 20
-92.8169
 11
106.708
 21
-92.7214
  0
LINE
  8
0
 10
106.708
 20
-92.7214
 11
106.82
 21
-92.4298
  0
LINE
  8
0
 10
106.82
 20
-92.4298
 11
106.852
 21
-92.3302
  0
LINE
  8
0
 10
106.852
 20
-92.3302
 11
106.933
 21
-92.0288
  0
LINE
  8
0
 10
106.933
 20
-92.0288
 11
106.955
 21
-91.9265
  0
LINE
  8
0
 10
106.955
 20
-91.9265
 11
107.004
 21
-91.6181
  0
LINE
  8
0
 10
107.004
 20
-91.6181
 11
107.014
 21
-91.5141
  0
LINE
  8
0
 10
107.014
 20
-91.5141
 11
107.049
 21
-90.8622
  0
LINE
  8
0
 10
107.049
 20
-90.8622
 11
107.05
 21
-90.8096
  0
LINE
  8
0
 10
107.05
 20
-90.8096
 11
107.05
 21
-87.9904
  0
LINE
  8
0
 10
107.05
 20
-87.9904
 11
107.049
 21
-87.9378
  0
LINE
  8
0
 10
107.049
 20
-87.9378
 11
107.014
 21
-87.286
  0
LINE
  8
0
 10
107.014
 20
-87.286
 11
107.004
 21
-87.182
  0
LINE
  8
0
 10
107.004
 20
-87.182
 11
106.987
 21
-87.0791
  0
LINE
  8
0
 10
106.987
 20
-87.0791
 11
106.974
 21
-86.9753
  0
LINE
  8
0
 10
106.974
 20
-86.9753
 11
106.859
 21
-85.8823
  0
LINE
  8
0
 10
106.859
 20
-85.8823
 11
106.848
 21
-85.6732
  0
LINE
  8
0
 10
106.848
 20
-85.6732
 11
106.848
 21
-84.6268
  0
LINE
  8
0
 10
106.848
 20
-84.6268
 11
106.859
 21
-84.4178
  0
LINE
  8
0
 10
106.859
 20
-84.4178
 11
106.974
 21
-83.3247
  0
LINE
  8
0
 10
106.974
 20
-83.3247
 11
106.987
 21
-83.2209
  0
LINE
  8
0
 10
106.987
 20
-83.2209
 11
107.004
 21
-83.1181
  0
LINE
  8
0
 10
107.004
 20
-83.1181
 11
107.014
 21
-83.014
  0
LINE
  8
0
 10
107.014
 20
-83.014
 11
107.049
 21
-82.3622
  0
LINE
  8
0
 10
107.049
 20
-82.3622
 11
107.05
 21
-82.3096
  0
LINE
  8
0
 10
107.05
 20
-82.3096
 11
107.05
 21
-79.4904
  0
LINE
  8
0
 10
107.05
 20
-79.4904
 11
107.049
 21
-79.4378
  0
LINE
  8
0
 10
107.049
 20
-79.4378
 11
107.014
 21
-78.7859
  0
LINE
  8
0
 10
107.014
 20
-78.7859
 11
107.004
 21
-78.6819
  0
LINE
  8
0
 10
107.004
 20
-78.6819
 11
106.884
 21
-77.9297
  0
LINE
  8
0
 10
106.884
 20
-77.9297
 11
106.875
 21
-77.8777
  0
LINE
  8
0
 10
106.875
 20
-77.8777
 11
106.817
 21
-77.6046
  0
LINE
  8
0
 10
106.817
 20
-77.6046
 11
106.784
 21
-77.3979
  0
LINE
  8
0
 10
106.784
 20
-77.3979
 11
106.675
 21
-76.3572
  0
LINE
  8
0
 10
106.675
 20
-76.3572
 11
106.664
 21
-76.1481
  0
LINE
  8
0
 10
106.664
 20
-76.1481
 11
106.664
 21
-75.1017
  0
LINE
  8
0
 10
106.664
 20
-75.1017
 11
106.675
 21
-74.8926
  0
LINE
  8
0
 10
106.675
 20
-74.8926
 11
106.784
 21
-73.8518
  0
LINE
  8
0
 10
106.784
 20
-73.8518
 11
106.817
 21
-73.6451
  0
LINE
  8
0
 10
106.817
 20
-73.6451
 11
106.875
 21
-73.3718
  0
LINE
  8
0
 10
106.875
 20
-73.3718
 11
106.884
 21
-73.3204
  0
LINE
  8
0
 10
106.884
 20
-73.3204
 11
107.004
 21
-72.5681
  0
LINE
  8
0
 10
107.004
 20
-72.5681
 11
107.014
 21
-72.4641
  0
LINE
  8
0
 10
107.014
 20
-72.4641
 11
107.049
 21
-71.8122
  0
LINE
  8
0
 10
107.049
 20
-71.8122
 11
107.05
 21
-71.7596
  0
LINE
  8
0
 10
107.05
 20
-71.7596
 11
107.05
 21
-68.9404
  0
LINE
  8
0
 10
107.05
 20
-68.9404
 11
107.049
 21
-68.8878
  0
LINE
  8
0
 10
107.049
 20
-68.8878
 11
107.014
 21
-68.236
  0
LINE
  8
0
 10
107.014
 20
-68.236
 11
107.004
 21
-68.132
  0
LINE
  8
0
 10
107.004
 20
-68.132
 11
106.987
 21
-68.0291
  0
LINE
  8
0
 10
106.987
 20
-68.0291
 11
106.974
 21
-67.9253
  0
LINE
  8
0
 10
106.974
 20
-67.9253
 11
106.859
 21
-66.8323
  0
LINE
  8
0
 10
106.859
 20
-66.8323
 11
106.848
 21
-66.6232
  0
LINE
  8
0
 10
106.848
 20
-66.6232
 11
106.848
 21
-65.5768
  0
LINE
  8
0
 10
106.848
 20
-65.5768
 11
106.859
 21
-65.3678
  0
LINE
  8
0
 10
106.859
 20
-65.3678
 11
106.974
 21
-64.2747
  0
LINE
  8
0
 10
106.974
 20
-64.2747
 11
106.987
 21
-64.1709
  0
LINE
  8
0
 10
106.987
 20
-64.1709
 11
107.004
 21
-64.0681
  0
LINE
  8
0
 10
107.004
 20
-64.0681
 11
107.014
 21
-63.964
  0
LINE
  8
0
 10
107.014
 20
-63.964
 11
107.049
 21
-63.3122
  0
LINE
  8
0
 10
107.049
 20
-63.3122
 11
107.05
 21
-63.2596
  0
LINE
  8
0
 10
107.05
 20
-63.2596
 11
107.05
 21
-60.4404
  0
LINE
  8
0
 10
107.05
 20
-60.4404
 11
107.049
 21
-60.3878
  0
LINE
  8
0
 10
107.049
 20
-60.3878
 11
107.014
 21
-59.7359
  0
LINE
  8
0
 10
107.014
 20
-59.7359
 11
107.004
 21
-59.6319
  0
LINE
  8
0
 10
107.004
 20
-59.6319
 11
106.884
 21
-58.8797
  0
LINE
  8
0
 10
106.884
 20
-58.8797
 11
106.875
 21
-58.8277
  0
LINE
  8
0
 10
106.875
 20
-58.8277
 11
106.817
 21
-58.5546
  0
LINE
  8
0
 10
106.817
 20
-58.5546
 11
106.784
 21
-58.3479
  0
LINE
  8
0
 10
106.784
 20
-58.3479
 11
106.675
 21
-57.3072
  0
LINE
  8
0
 10
106.675
 20
-57.3072
 11
106.664
 21
-57.0981
  0
LINE
  8
0
 10
106.664
 20
-57.0981
 11
106.664
 21
-56.0517
  0
LINE
  8
0
 10
106.664
 20
-56.0517
 11
106.675
 21
-55.8426
  0
LINE
  8
0
 10
106.675
 20
-55.8426
 11
106.784
 21
-54.8018
  0
LINE
  8
0
 10
106.784
 20
-54.8018
 11
106.817
 21
-54.5951
  0
LINE
  8
0
 10
106.817
 20
-54.5951
 11
106.875
 21
-54.3218
  0
LINE
  8
0
 10
106.875
 20
-54.3218
 11
106.884
 21
-54.2704
  0
LINE
  8
0
 10
106.884
 20
-54.2704
 11
107.004
 21
-53.5181
  0
LINE
  8
0
 10
107.004
 20
-53.5181
 11
107.014
 21
-53.414
  0
LINE
  8
0
 10
107.014
 20
-53.414
 11
107.049
 21
-52.7622
  0
LINE
  8
0
 10
107.049
 20
-52.7622
 11
107.05
 21
-52.7096
  0
LINE
  8
0
 10
107.05
 20
-52.7096
 11
107.05
 21
-49.8904
  0
LINE
  8
0
 10
107.05
 20
-49.8904
 11
107.049
 21
-49.8378
  0
LINE
  8
0
 10
107.049
 20
-49.8378
 11
107.014
 21
-49.186
  0
LINE
  8
0
 10
107.014
 20
-49.186
 11
107.004
 21
-49.082
  0
LINE
  8
0
 10
107.004
 20
-49.082
 11
106.987
 21
-48.979
  0
LINE
  8
0
 10
106.987
 20
-48.979
 11
106.974
 21
-48.8753
  0
LINE
  8
0
 10
106.974
 20
-48.8753
 11
106.859
 21
-47.7823
  0
LINE
  8
0
 10
106.859
 20
-47.7823
 11
106.848
 21
-47.5732
  0
LINE
  8
0
 10
106.848
 20
-47.5732
 11
106.848
 21
-46.5268
  0
LINE
  8
0
 10
106.848
 20
-46.5268
 11
106.859
 21
-46.3178
  0
LINE
  8
0
 10
106.859
 20
-46.3178
 11
106.974
 21
-45.2247
  0
LINE
  8
0
 10
106.974
 20
-45.2247
 11
106.987
 21
-45.1209
  0
LINE
  8
0
 10
106.987
 20
-45.1209
 11
107.004
 21
-45.0181
  0
LINE
  8
0
 10
107.004
 20
-45.0181
 11
107.014
 21
-44.914
  0
LINE
  8
0
 10
107.014
 20
-44.914
 11
107.049
 21
-44.2622
  0
LINE
  8
0
 10
107.049
 20
-44.2622
 11
107.05
 21
-44.2096
  0
LINE
  8
0
 10
107.05
 20
-44.2096
 11
107.05
 21
-41.3904
  0
LINE
  8
0
 10
107.05
 20
-41.3904
 11
107.049
 21
-41.3378
  0
LINE
  8
0
 10
107.049
 20
-41.3378
 11
107.014
 21
-40.6859
  0
LINE
  8
0
 10
107.014
 20
-40.6859
 11
107.004
 21
-40.5818
  0
LINE
  8
0
 10
107.004
 20
-40.5818
 11
106.884
 21
-39.8297
  0
LINE
  8
0
 10
106.884
 20
-39.8297
 11
106.875
 21
-39.7776
  0
LINE
  8
0
 10
106.875
 20
-39.7776
 11
106.817
 21
-39.5046
  0
LINE
  8
0
 10
106.817
 20
-39.5046
 11
106.784
 21
-39.2979
  0
LINE
  8
0
 10
106.784
 20
-39.2979
 11
106.675
 21
-38.2572
  0
LINE
  8
0
 10
106.675
 20
-38.2572
 11
106.664
 21
-38.0481
  0
LINE
  8
0
 10
106.664
 20
-38.0481
 11
106.664
 21
-37.0017
  0
LINE
  8
0
 10
106.664
 20
-37.0017
 11
106.675
 21
-36.7926
  0
LINE
  8
0
 10
106.675
 20
-36.7926
 11
106.784
 21
-35.7519
  0
LINE
  8
0
 10
106.784
 20
-35.7519
 11
106.817
 21
-35.5451
  0
LINE
  8
0
 10
106.817
 20
-35.5451
 11
106.875
 21
-35.2719
  0
LINE
  8
0
 10
106.875
 20
-35.2719
 11
106.884
 21
-35.2203
  0
LINE
  8
0
 10
106.884
 20
-35.2203
 11
107.003
 21
-34.4682
  0
LINE
  8
0
 10
107.003
 20
-34.4682
 11
107.014
 21
-34.364
  0
LINE
  8
0
 10
107.014
 20
-34.364
 11
107.049
 21
-33.7122
  0
LINE
  8
0
 10
107.049
 20
-33.7122
 11
107.05
 21
-33.6596
  0
LINE
  8
0
 10
107.05
 20
-33.6596
 11
107.05
 21
-30.8404
  0
LINE
  8
0
 10
107.05
 20
-30.8404
 11
107.049
 21
-30.7878
  0
LINE
  8
0
 10
107.049
 20
-30.7878
 11
107.014
 21
-30.136
  0
LINE
  8
0
 10
107.014
 20
-30.136
 11
107.004
 21
-30.032
  0
LINE
  8
0
 10
107.004
 20
-30.032
 11
106.987
 21
-29.9291
  0
LINE
  8
0
 10
106.987
 20
-29.9291
 11
106.974
 21
-29.8253
  0
LINE
  8
0
 10
106.974
 20
-29.8253
 11
106.859
 21
-28.7323
  0
LINE
  8
0
 10
106.859
 20
-28.7323
 11
106.848
 21
-28.5232
  0
LINE
  8
0
 10
106.848
 20
-28.5232
 11
106.848
 21
-27.4768
  0
LINE
  8
0
 10
106.848
 20
-27.4768
 11
106.859
 21
-27.2678
  0
LINE
  8
0
 10
106.859
 20
-27.2678
 11
106.974
 21
-26.1747
  0
LINE
  8
0
 10
106.974
 20
-26.1747
 11
106.987
 21
-26.0709
  0
LINE
  8
0
 10
106.987
 20
-26.0709
 11
107.004
 21
-25.9681
  0
LINE
  8
0
 10
107.004
 20
-25.9681
 11
107.014
 21
-25.864
  0
LINE
  8
0
 10
107.014
 20
-25.864
 11
107.049
 21
-25.2122
  0
LINE
  8
0
 10
107.049
 20
-25.2122
 11
107.05
 21
-25.1596
  0
LINE
  8
0
 10
107.05
 20
-25.1596
 11
107.05
 21
-22.3404
  0
LINE
  8
0
 10
107.05
 20
-22.3404
 11
107.049
 21
-22.2878
  0
LINE
  8
0
 10
107.049
 20
-22.2878
 11
107.014
 21
-21.6359
  0
LINE
  8
0
 10
107.014
 20
-21.6359
 11
107.004
 21
-21.5319
  0
LINE
  8
0
 10
107.004
 20
-21.5319
 11
106.955
 21
-21.2235
  0
LINE
  8
0
 10
106.955
 20
-21.2235
 11
106.933
 21
-21.1212
  0
LINE
  8
0
 10
106.933
 20
-21.1212
 11
106.852
 21
-20.8197
  0
LINE
  8
0
 10
106.852
 20
-20.8197
 11
106.82
 21
-20.7202
  0
LINE
  8
0
 10
106.82
 20
-20.7202
 11
106.708
 21
-20.4286
  0
LINE
  8
0
 10
106.708
 20
-20.4286
 11
106.665
 21
-20.3331
  0
LINE
  8
0
 10
106.665
 20
-20.3331
 11
106.524
 21
-20.0548
  0
LINE
  8
0
 10
106.524
 20
-20.0548
 11
106.471
 21
-19.9645
  0
LINE
  8
0
 10
106.471
 20
-19.9645
 11
106.301
 21
-19.7023
  0
LINE
  8
0
 10
106.301
 20
-19.7023
 11
106.24
 21
-19.6179
  0
LINE
  8
0
 10
106.24
 20
-19.6179
 11
105.941
 21
-19.2493
  0
LINE
  8
0
 10
105.941
 20
-19.2493
 11
105.877
 21
-19.166
  0
LINE
  8
0
 10
105.877
 20
-19.166
 11
105.838
 21
-19.1122
  0
LINE
  8
0
 10
105.838
 20
-19.1122
 11
105.806
 21
-19.0705
  0
LINE
  8
0
 10
105.806
 20
-19.0705
 11
105.243
 21
-18.3753
  0
LINE
  8
0
 10
105.243
 20
-18.3753
 11
105.173
 21
-18.2973
  0
LINE
  8
0
 10
105.173
 20
-18.2973
 11
104.953
 21
-18.0767
  0
LINE
  8
0
 10
104.953
 20
-18.0767
 11
104.875
 21
-18.0068
  0
LINE
  8
0
 10
104.875
 20
-18.0068
 11
104.632
 21
-17.8102
  0
LINE
  8
0
 10
104.632
 20
-17.8102
 11
104.548
 21
-17.7487
  0
LINE
  8
0
 10
104.548
 20
-17.7487
 11
104.286
 21
-17.5788
  0
LINE
  8
0
 10
104.286
 20
-17.5788
 11
104.195
 21
-17.5264
  0
LINE
  8
0
 10
104.195
 20
-17.5264
 11
103.917
 21
-17.3846
  0
LINE
  8
0
 10
103.917
 20
-17.3846
 11
103.821
 21
-17.3421
  0
LINE
  8
0
 10
103.821
 20
-17.3421
 11
103.53
 21
-17.2302
  0
LINE
  8
0
 10
103.53
 20
-17.2302
 11
103.43
 21
-17.1978
  0
LINE
  8
0
 10
103.43
 20
-17.1978
 11
103.129
 21
-17.1171
  0
LINE
  8
0
 10
103.129
 20
-17.1171
 11
103.026
 21
-17.0953
  0
LINE
  8
0
 10
103.026
 20
-17.0953
 11
102.718
 21
-17.0465
  0
LINE
  8
0
 10
102.718
 20
-17.0465
 11
102.614
 21
-17.0355
  0
LINE
  8
0
 10
102.614
 20
-17.0355
 11
101.962
 21
-17.0014
  0
LINE
  8
0
 10
101.962
 20
-17.0014
 11
101.91
 21
-17
  0
LINE
  8
0
 10
101.91
 20
-17
 11
94.8486
 21
-17
  0
LINE
  8
0
 10
94.8486
 20
-17
 11
94.744
 21
-16.9973
  0
LINE
  8
0
 10
94.744
 20
-16.9973
 11
93.6467
 21
-16.9398
  0
LINE
  8
0
 10
93.6467
 20
-16.9398
 11
93.4385
 21
-16.9179
  0
LINE
  8
0
 10
93.4385
 20
-16.9179
 11
92.4051
 21
-16.7542
  0
LINE
  8
0
 10
92.4051
 20
-16.7542
 11
92.2003
 21
-16.7107
  0
LINE
  8
0
 10
92.2003
 20
-16.7107
 11
91.1893
 21
-16.4398
  0
LINE
  8
0
 10
91.1893
 20
-16.4398
 11
90.9902
 21
-16.3751
  0
LINE
  8
0
 10
90.9902
 20
-16.3751
 11
90.0134
 21
-16.0001
  0
LINE
  8
0
 10
90.0134
 20
-16.0001
 11
89.8222
 21
-15.915
  0
LINE
  8
0
 10
89.8222
 20
-15.915
 11
88.8898
 21
-15.4399
  0
LINE
  8
0
 10
88.8898
 20
-15.4399
 11
88.7085
 21
-15.3352
  0
LINE
  8
0
 10
88.7085
 20
-15.3352
 11
87.853
 21
-14.7796
  0
LINE
  8
0
 10
87.853
 20
-14.7796
 11
87.6433
 21
-14.6231
  0
LINE
  8
0
 10
87.6433
 20
-14.6231
 11
86.3708
 21
-13.5363
  0
LINE
  8
0
 10
86.3708
 20
-13.5363
 11
86.2555
 21
-13.4297
  0
LINE
  8
0
 10
86.2555
 20
-13.4297
 11
85.9025
 21
-13.0767
  0
LINE
  8
0
 10
85.9025
 20
-13.0767
 11
85.8249
 21
-13.0068
  0
LINE
  8
0
 10
85.8249
 20
-13.0068
 11
85.5821
 21
-12.8102
  0
LINE
  8
0
 10
85.5821
 20
-12.8102
 11
85.4975
 21
-12.7487
  0
LINE
  8
0
 10
85.4975
 20
-12.7487
 11
85.2358
 21
-12.5788
  0
LINE
  8
0
 10
85.2358
 20
-12.5788
 11
85.145
 21
-12.5264
  0
LINE
  8
0
 10
85.145
 20
-12.5264
 11
84.8669
 21
-12.3846
  0
LINE
  8
0
 10
84.8669
 20
-12.3846
 11
84.7713
 21
-12.3421
  0
LINE
  8
0
 10
84.7713
 20
-12.3421
 11
84.4798
 21
-12.2302
  0
LINE
  8
0
 10
84.4798
 20
-12.2302
 11
84.3802
 21
-12.1978
  0
LINE
  8
0
 10
84.3802
 20
-12.1978
 11
84.0788
 21
-12.1171
  0
LINE
  8
0
 10
84.0788
 20
-12.1171
 11
83.9765
 21
-12.0953
  0
LINE
  8
0
 10
83.9765
 20
-12.0953
 11
83.6681
 21
-12.0465
  0
LINE
  8
0
 10
83.6681
 20
-12.0465
 11
83.5641
 21
-12.0355
  0
LINE
  8
0
 10
83.5641
 20
-12.0355
 11
82.9122
 21
-12.0014
  0
LINE
  8
0
 10
82.9122
 20
-12.0014
 11
82.8596
 21
-12
  0
LINE
  8
0
 10
82.8596
 20
-12
 11
80.9236
 21
-12
  0
LINE
  8
0
 10
80.9236
 20
-12
 11
80.819
 21
-11.9973
  0
LINE
  8
0
 10
80.819
 20
-11.9973
 11
79.7217
 21
-11.9398
  0
LINE
  8
0
 10
79.7217
 20
-11.9398
 11
79.5135
 21
-11.9179
  0
LINE
  8
0
 10
79.5135
 20
-11.9179
 11
78.4801
 21
-11.7542
  0
LINE
  8
0
 10
78.4801
 20
-11.7542
 11
78.2753
 21
-11.7107
  0
LINE
  8
0
 10
78.2753
 20
-11.7107
 11
77.2643
 21
-11.4398
  0
LINE
  8
0
 10
77.2643
 20
-11.4398
 11
77.0652
 21
-11.3751
  0
LINE
  8
0
 10
77.0652
 20
-11.3751
 11
76.0884
 21
-11.0001
  0
LINE
  8
0
 10
76.0884
 20
-11.0001
 11
75.8971
 21
-10.915
  0
LINE
  8
0
 10
75.8971
 20
-10.915
 11
74.9648
 21
-10.4399
  0
LINE
  8
0
 10
74.9648
 20
-10.4399
 11
74.7835
 21
-10.3352
  0
LINE
  8
0
 10
74.7835
 20
-10.3352
 11
73.9059
 21
-9.7653
  0
LINE
  8
0
 10
73.9059
 20
-9.7653
 11
73.7365
 21
-9.64224
  0
LINE
  8
0
 10
73.7365
 20
-9.64224
 11
72.9233
 21
-8.98373
  0
LINE
  8
0
 10
72.9233
 20
-8.98373
 11
72.7677
 21
-8.84366
  0
LINE
  8
0
 10
72.7677
 20
-8.84366
 11
72.0277
 21
-8.10365
  0
LINE
  8
0
 10
72.0277
 20
-8.10365
 11
71.8876
 21
-7.94807
  0
LINE
  8
0
 10
71.8876
 20
-7.94807
 11
71.2291
 21
-7.13489
  0
LINE
  8
0
 10
71.2291
 20
-7.13489
 11
71.1061
 21
-6.96552
  0
LINE
  8
0
 10
71.1061
 20
-6.96552
 11
70.5361
 21
-6.08789
  0
LINE
  8
0
 10
70.5361
 20
-6.08789
 11
70.4315
 21
-5.9066
  0
LINE
  8
0
 10
70.4315
 20
-5.9066
 11
69.9564
 21
-4.97423
  0
LINE
  8
0
 10
69.9564
 20
-4.97423
 11
69.8713
 21
-4.78299
  0
LINE
  8
0
 10
69.8713
 20
-4.78299
 11
69.4963
 21
-3.80615
  0
LINE
  8
0
 10
69.4963
 20
-3.80615
 11
69.4316
 21
-3.60707
  0
LINE
  8
0
 10
69.4316
 20
-3.60707
 11
69.1607
 21
-2.59608
  0
LINE
  8
0
 10
69.1607
 20
-2.59608
 11
69.1172
 21
-2.3913
  0
LINE
  8
0
 10
69.1172
 20
-2.3913
 11
68.9403
 21
-1.2747
  0
LINE
  8
0
 10
68.9403
 20
-1.2747
 11
68.9296
 21
-1.19695
  0
LINE
  8
0
 10
68.9296
 20
-1.19695
 11
68.9294
 21
-1.19516
  0
LINE
  8
0
 10
68.9294
 20
-1.19516
 11
68.8872
 21
-0.929169
  0
LINE
  8
0
 10
68.8872
 20
-0.929169
 11
68.8736
 21
-0.825333
  0
LINE
  8
0
 10
68.8736
 20
-0.825333
 11
68.7587
 21
0.2677
  0
LINE
  8
0
 10
68.7587
 20
0.2677
 11
68.7477
 21
0.476761
  0
LINE
  8
0
 10
68.7477
 20
0.476761
 11
68.7477
 21
1.52316
  0
LINE
  8
0
 10
68.7477
 20
1.52316
 11
68.7587
 21
1.73221
  0
LINE
  8
0
 10
68.7587
 20
1.73221
 11
68.8736
 21
2.82527
  0
LINE
  8
0
 10
68.8736
 20
2.82527
 11
68.8872
 21
2.92911
  0
LINE
  8
0
 10
68.8872
 20
2.92911
 11
68.9035
 21
3.03186
  0
LINE
  8
0
 10
68.9035
 20
3.03186
 11
68.9144
 21
3.136
  0
LINE
  8
0
 10
68.9144
 20
3.136
 11
68.9486
 21
3.78777
  0
LINE
  8
0
 10
68.9486
 20
3.78777
 11
68.95
 21
3.84042
  0
LINE
  8
0
 10
68.95
 20
3.84042
 11
68.95
 21
6.65958
  0
LINE
  8
0
 10
68.95
 20
6.65958
 11
68.9486
 21
6.71223
  0
LINE
  8
0
 10
68.9486
 20
6.71223
 11
68.9144
 21
7.36409
  0
LINE
  8
0
 10
68.9144
 20
7.36409
 11
68.9035
 21
7.46808
  0
LINE
  8
0
 10
68.9035
 20
7.46808
 11
68.8547
 21
7.77647
  0
LINE
  8
0
 10
68.8547
 20
7.77647
 11
68.8329
 21
7.8788
  0
LINE
  8
0
 10
68.8329
 20
7.8788
 11
68.7521
 21
8.18025
  0
LINE
  8
0
 10
68.7521
 20
8.18025
 11
68.7198
 21
8.27983
  0
LINE
  8
0
 10
68.7198
 20
8.27983
 11
68.6079
 21
8.57137
  0
LINE
  8
0
 10
68.6079
 20
8.57137
 11
68.5654
 21
8.66689
  0
LINE
  8
0
 10
68.5654
 20
8.66689
 11
68.4235
 21
8.94522
  0
LINE
  8
0
 10
68.4235
 20
8.94522
 11
68.3714
 21
9.03549
  0
LINE
  8
0
 10
68.3714
 20
9.03549
 11
68.2011
 21
9.29771
  0
LINE
  8
0
 10
68.2011
 20
9.29771
 11
68.1398
 21
9.38213
  0
LINE
  8
0
 10
68.1398
 20
9.38213
 11
67.8413
 21
9.7507
  0
LINE
  8
0
 10
67.8413
 20
9.7507
 11
67.7774
 21
9.834
  0
LINE
  8
0
 10
67.7774
 20
9.834
 11
67.7383
 21
9.8878
  0
LINE
  8
0
 10
67.7383
 20
9.8878
 11
67.7063
 21
9.9295
  0
LINE
  8
0
 10
67.7063
 20
9.9295
 11
67.1433
 21
10.6247
  0
LINE
  8
0
 10
67.1433
 20
10.6247
 11
67.0732
 21
10.7027
  0
LINE
  8
0
 10
67.0732
 20
10.7027
 11
66.8525
 21
10.9233
  0
LINE
  8
0
 10
66.8525
 20
10.9233
 11
66.7749
 21
10.9932
  0
LINE
  8
0
 10
66.7749
 20
10.9932
 11
66.5321
 21
11.1898
  0
LINE
  8
0
 10
66.5321
 20
11.1898
 11
66.4475
 21
11.2513
  0
LINE
  8
0
 10
66.4475
 20
11.2513
 11
66.1858
 21
11.4212
  0
LINE
  8
0
 10
66.1858
 20
11.4212
 11
66.095
 21
11.4736
  0
LINE
  8
0
 10
66.095
 20
11.4736
 11
65.8169
 21
11.6154
  0
LINE
  8
0
 10
65.8169
 20
11.6154
 11
65.7213
 21
11.6579
  0
LINE
  8
0
 10
65.7213
 20
11.6579
 11
65.4298
 21
11.7698
  0
LINE
  8
0
 10
65.4298
 20
11.7698
 11
65.3302
 21
11.8022
  0
LINE
  8
0
 10
65.3302
 20
11.8022
 11
65.0288
 21
11.8829
  0
LINE
  8
0
 10
65.0288
 20
11.8829
 11
64.9265
 21
11.9047
  0
LINE
  8
0
 10
64.9265
 20
11.9047
 11
64.6181
 21
11.9535
  0
LINE
  8
0
 10
64.6181
 20
11.9535
 11
64.5141
 21
11.9645
  0
LINE
  8
0
 10
64.5141
 20
11.9645
 11
63.8622
 21
11.9986
  0
LINE
  8
0
 10
63.8622
 20
11.9986
 11
63.8096
 21
12
  0
LINE
  8
0
 10
63.8096
 20
12
 11
59.8086
 21
12
  0
LINE
  8
0
 10
59.8086
 20
12
 11
59.704
 21
12.0027
  0
LINE
  8
0
 10
59.704
 20
12.0027
 11
58.6067
 21
12.0602
  0
LINE
  8
0
 10
58.6067
 20
12.0602
 11
58.3985
 21
12.0821
  0
LINE
  8
0
 10
58.3985
 20
12.0821
 11
57.3651
 21
12.2458
  0
LINE
  8
0
 10
57.3651
 20
12.2458
 11
57.1603
 21
12.2893
  0
LINE
  8
0
 10
57.1603
 20
12.2893
 11
56.1493
 21
12.5602
  0
LINE
  8
0
 10
56.1493
 20
12.5602
 11
55.9502
 21
12.6249
  0
LINE
  8
0
 10
55.9502
 20
12.6249
 11
54.9734
 21
12.9999
  0
LINE
  8
0
 10
54.9734
 20
12.9999
 11
54.7822
 21
13.085
  0
LINE
  8
0
 10
54.7822
 20
13.085
 11
53.8498
 21
13.5601
  0
LINE
  8
0
 10
53.8498
 20
13.5601
 11
53.6685
 21
13.6648
  0
LINE
  8
0
 10
53.6685
 20
13.6648
 11
52.7909
 21
14.2347
  0
LINE
  8
0
 10
52.7909
 20
14.2347
 11
52.6215
 21
14.3578
  0
LINE
  8
0
 10
52.6215
 20
14.3578
 11
51.8083
 21
15.0163
  0
LINE
  8
0
 10
51.8083
 20
15.0163
 11
51.6527
 21
15.1563
  0
LINE
  8
0
 10
51.6527
 20
15.1563
 11
50.9127
 21
15.8963
  0
LINE
  8
0
 10
50.9127
 20
15.8963
 11
50.7726
 21
16.0519
  0
LINE
  8
0
 10
50.7726
 20
16.0519
 11
50.0976
 21
16.8855
  0
LINE
  8
0
 10
50.0976
 20
16.8855
 11
50.0036
 21
17.0113
  0
LINE
  8
0
 10
50.0036
 20
17.0113
 11
49.7072
 21
17.4427
  0
LINE
  8
0
 10
49.7072
 20
17.4427
 11
49.6781
 21
17.4862
  0
LINE
  8
0
 10
49.6781
 20
17.4862
 11
49.1513
 21
18.2975
  0
LINE
  8
0
 10
49.1513
 20
18.2975
 11
49.0897
 21
18.3822
  0
LINE
  8
0
 10
49.0897
 20
18.3822
 11
48.7913
 21
18.7507
  0
LINE
  8
0
 10
48.7913
 20
18.7507
 11
48.7274
 21
18.834
  0
LINE
  8
0
 10
48.7274
 20
18.834
 11
48.6883
 21
18.8878
  0
LINE
  8
0
 10
48.6883
 20
18.8878
 11
48.6563
 21
18.9295
  0
LINE
  8
0
 10
48.6563
 20
18.9295
 11
48.0933
 21
19.6247
  0
LINE
  8
0
 10
48.0933
 20
19.6247
 11
48.0232
 21
19.7027
  0
LINE
  8
0
 10
48.0232
 20
19.7027
 11
47.8025
 21
19.9233
  0
LINE
  8
0
 10
47.8025
 20
19.9233
 11
47.7249
 21
19.9932
  0
LINE
  8
0
 10
47.7249
 20
19.9932
 11
47.4821
 21
20.1898
  0
LINE
  8
0
 10
47.4821
 20
20.1898
 11
47.3975
 21
20.2513
  0
LINE
  8
0
 10
47.3975
 20
20.2513
 11
47.1358
 21
20.4212
  0
LINE
  8
0
 10
47.1358
 20
20.4212
 11
47.045
 21
20.4736
  0
LINE
  8
0
 10
47.045
 20
20.4736
 11
46.7669
 21
20.6154
  0
LINE
  8
0
 10
46.7669
 20
20.6154
 11
46.6713
 21
20.6579
  0
LINE
  8
0
 10
46.6713
 20
20.6579
 11
46.3798
 21
20.7698
  0
LINE
  8
0
 10
46.3798
 20
20.7698
 11
46.2802
 21
20.8022
  0
LINE
  8
0
 10
46.2802
 20
20.8022
 11
45.9788
 21
20.8829
  0
LINE
  8
0
 10
45.9788
 20
20.8829
 11
45.8764
 21
20.9047
  0
LINE
  8
0
 10
45.8764
 20
20.9047
 11
45.5681
 21
20.9535
  0
LINE
  8
0
 10
45.5681
 20
20.9535
 11
45.4641
 21
20.9645
  0
LINE
  8
0
 10
45.4641
 20
20.9645
 11
44.8122
 21
20.9986
  0
LINE
  8
0
 10
44.8122
 20
20.9986
 11
44.7596
 21
21
  0
LINE
  8
0
 10
44.7596
 20
21
 11
31.4404
 21
21
  0
LINE
  8
0
 10
31.4404
 20
21
 11
31.3877
 21
20.9986
  0
LINE
  8
0
 10
31.3877
 20
20.9986
 11
30.7359
 21
20.9645
  0
LINE
  8
0
 10
30.7359
 20
20.9645
 11
30.6319
 21
20.9535
  0
LINE
  8
0
 10
30.6319
 20
20.9535
 11
30.3235
 21
20.9047
  0
LINE
  8
0
 10
30.3235
 20
20.9047
 11
30.2212
 21
20.8829
  0
LINE
  8
0
 10
30.2212
 20
20.8829
 11
29.9197
 21
20.8022
  0
LINE
  8
0
 10
29.9197
 20
20.8022
 11
29.8201
 21
20.7698
  0
LINE
  8
0
 10
29.8201
 20
20.7698
 11
29.5286
 21
20.6579
  0
LINE
  8
0
 10
29.5286
 20
20.6579
 11
29.4331
 21
20.6154
  0
LINE
  8
0
 10
29.4331
 20
20.6154
 11
29.155
 21
20.4736
  0
LINE
  8
0
 10
29.155
 20
20.4736
 11
29.0642
 21
20.4212
  0
LINE
  8
0
 10
29.0642
 20
20.4212
 11
28.8024
 21
20.2513
  0
LINE
  8
0
 10
28.8024
 20
20.2513
 11
28.7178
 21
20.1898
  0
LINE
  8
0
 10
28.7178
 20
20.1898
 11
28.4751
 21
19.9932
  0
LINE
  8
0
 10
28.4751
 20
19.9932
 11
28.3974
 21
19.9233
  0
LINE
  8
0
 10
28.3974
 20
19.9233
 11
28.1768
 21
19.7027
  0
LINE
  8
0
 10
28.1768
 20
19.7027
 11
28.1066
 21
19.6247
  0
LINE
  8
0
 10
28.1066
 20
19.6247
 11
27.5437
 21
18.9296
  0
LINE
  8
0
 10
27.5437
 20
18.9296
 11
27.5121
 21
18.8883
  0
LINE
  8
0
 10
27.5121
 20
18.8883
 11
27.4726
 21
18.834
  0
LINE
  8
0
 10
27.4726
 20
18.834
 11
27.4088
 21
18.7508
  0
LINE
  8
0
 10
27.4088
 20
18.7508
 11
27.1101
 21
18.3821
  0
LINE
  8
0
 10
27.1101
 20
18.3821
 11
27.0488
 21
18.2977
  0
LINE
  8
0
 10
27.0488
 20
18.2977
 11
26.8786
 21
18.0356
  0
LINE
  8
0
 10
26.8786
 20
18.0356
 11
26.8264
 21
17.9452
  0
LINE
  8
0
 10
26.8264
 20
17.9452
 11
26.6499
 21
17.5987
  0
LINE
  8
0
 10
26.6499
 20
17.5987
 11
26.5999
 21
17.5067
  0
LINE
  8
0
 10
26.5999
 20
17.5067
 11
26.0945
 21
16.6312
  0
LINE
  8
0
 10
26.0945
 20
16.6312
 11
25.9804
 21
16.4556
  0
LINE
  8
0
 10
25.9804
 20
16.4556
 11
25.8487
 21
16.2929
  0
LINE
  8
0
 10
25.8487
 20
16.2929
 11
25.7007
 21
16.1449
  0
LINE
  8
0
 10
25.7007
 20
16.1449
 11
25.538
 21
16.0132
  0
LINE
  8
0
 10
25.538
 20
16.0132
 11
25.3624
 21
15.8991
  0
LINE
  8
0
 10
25.3624
 20
15.8991
 11
25.1759
 21
15.8041
  0
LINE
  8
0
 10
25.1759
 20
15.8041
 11
24.9804
 21
15.7291
  0
LINE
  8
0
 10
24.9804
 20
15.7291
 11
24.829
 21
15.6864
  0
LINE
  8
0
 10
24.829
 20
15.6864
 11
24.7722
 21
15.6728
  0
LINE
  8
0
 10
24.7722
 20
15.6728
 11
24.6961
 21
15.6524
  0
LINE
  8
0
 10
24.6961
 20
15.6524
 11
24.6461
 21
15.6375
  0
LINE
  8
0
 10
24.6461
 20
15.6375
 11
24.4971
 21
15.5891
  0
LINE
  8
0
 10
24.4971
 20
15.5891
 11
24.4478
 21
15.5717
  0
LINE
  8
0
 10
24.4478
 20
15.5717
 11
24.3745
 21
15.5436
  0
LINE
  8
0
 10
24.3745
 20
15.5436
 11
24.3259
 21
15.5234
  0
LINE
  8
0
 10
24.3259
 20
15.5234
 11
24.1824
 21
15.4596
  0
LINE
  8
0
 10
24.1824
 20
15.4596
 11
24.1353
 21
15.4371
  0
LINE
  8
0
 10
24.1353
 20
15.4371
 11
24.0652
 21
15.4014
  0
LINE
  8
0
 10
24.0652
 20
15.4014
 11
24.0193
 21
15.3764
  0
LINE
  8
0
 10
24.0193
 20
15.3764
 11
23.8835
 21
15.298
  0
LINE
  8
0
 10
23.8835
 20
15.298
 11
23.8389
 21
15.2707
  0
LINE
  8
0
 10
23.8389
 20
15.2707
 11
23.7733
 21
15.2281
  0
LINE
  8
0
 10
23.7733
 20
15.2281
 11
23.7296
 21
15.1981
  0
LINE
  8
0
 10
23.7296
 20
15.1981
 11
23.6025
 21
15.1057
  0
LINE
  8
0
 10
23.6025
 20
15.1057
 11
23.5613
 21
15.0741
  0
LINE
  8
0
 10
23.5613
 20
15.0741
 11
23.4998
 21
15.0243
  0
LINE
  8
0
 10
23.4998
 20
15.0243
 11
23.4606
 21
14.9908
  0
LINE
  8
0
 10
23.4606
 20
14.9908
 11
23.3439
 21
14.8857
  0
LINE
  8
0
 10
23.3439
 20
14.8857
 11
23.3061
 21
14.8498
  0
LINE
  8
0
 10
23.3061
 20
14.8498
 11
23.2503
 21
14.7941
  0
LINE
  8
0
 10
23.2503
 20
14.7941
 11
23.2146
 21
14.7564
  0
LINE
  8
0
 10
23.2146
 20
14.7564
 11
23.1093
 21
14.6395
  0
LINE
  8
0
 10
23.1093
 20
14.6395
 11
23.0753
 21
14.5997
  0
LINE
  8
0
 10
23.0753
 20
14.5997
 11
23.0257
 21
14.5385
  0
LINE
  8
0
 10
23.0257
 20
14.5385
 11
22.9941
 21
14.4972
  0
LINE
  8
0
 10
22.9941
 20
14.4972
 11
22.9019
 21
14.3703
  0
LINE
  8
0
 10
22.9019
 20
14.3703
 11
22.872
 21
14.3268
  0
LINE
  8
0
 10
22.872
 20
14.3268
 11
22.8296
 21
14.2616
  0
LINE
  8
0
 10
22.8296
 20
14.2616
 11
22.8019
 21
14.2163
  0
LINE
  8
0
 10
22.8019
 20
14.2163
 11
22.7237
 21
14.0809
  0
LINE
  8
0
 10
22.7237
 20
14.0809
 11
22.6985
 21
14.0345
  0
LINE
  8
0
 10
22.6985
 20
14.0345
 11
22.6628
 21
13.9644
  0
LINE
  8
0
 10
22.6628
 20
13.9644
 11
22.6405
 21
13.9178
  0
LINE
  8
0
 10
22.6405
 20
13.9178
 11
22.5766
 21
13.7742
  0
LINE
  8
0
 10
22.5766
 20
13.7742
 11
22.5565
 21
13.7255
  0
LINE
  8
0
 10
22.5565
 20
13.7255
 11
22.5285
 21
13.6527
  0
LINE
  8
0
 10
22.5285
 20
13.6527
 11
22.5109
 21
13.603
  0
LINE
  8
0
 10
22.5109
 20
13.603
 11
22.4909
 21
13.5414
  0
LINE
  8
0
 10
22.4909
 20
13.5414
 11
22.4159
 21
13.346
  0
LINE
  8
0
 10
22.4159
 20
13.346
 11
22.3208
 21
13.1595
  0
LINE
  8
0
 10
22.3208
 20
13.1595
 11
22.2068
 21
12.9839
  0
LINE
  8
0
 10
22.2068
 20
12.9839
 11
22.0751
 21
12.8212
  0
LINE
  8
0
 10
22.0751
 20
12.8212
 11
21.9271
 21
12.6732
  0
LINE
  8
0
 10
21.9271
 20
12.6732
 11
21.7644
 21
12.5414
  0
LINE
  8
0
 10
21.7644
 20
12.5414
 11
21.5887
 21
12.4273
  0
LINE
  8
0
 10
21.5887
 20
12.4273
 11
21.4726
 21
12.3603
  0
LINE
  8
0
 10
21.4726
 20
12.3603
 11
21.2861
 21
12.2653
  0
LINE
  8
0
 10
21.2861
 20
12.2653
 11
20.33
 21
11.8396
  0
LINE
  8
0
 10
20.33
 20
11.8396
 11
20.1346
 21
11.7646
  0
LINE
  8
0
 10
20.1346
 20
11.7646
 11
19.1395
 21
11.4413
  0
LINE
  8
0
 10
19.1395
 20
11.4413
 11
18.9373
 21
11.3871
  0
LINE
  8
0
 10
18.9373
 20
11.3871
 11
17.9394
 21
11.175
  0
LINE
  8
0
 10
17.9394
 20
11.175
 11
17.6805
 21
11.1374
  0
LINE
  8
0
 10
17.6805
 20
11.1374
 11
16.0124
 21
11.0062
  0
LINE
  8
0
 10
16.0124
 20
11.0062
 11
15.8555
 21
11
  0
LINE
  8
0
 10
15.8555
 20
11
 11
12.3904
 21
11
  0
LINE
  8
0
 10
12.3904
 20
11
 11
12.3378
 21
10.9986
  0
LINE
  8
0
 10
12.3378
 20
10.9986
 11
11.6859
 21
10.9645
  0
LINE
  8
0
 10
11.6859
 20
10.9645
 11
11.5819
 21
10.9535
  0
LINE
  8
0
 10
11.5819
 20
10.9535
 11
11.2735
 21
10.9047
  0
LINE
  8
0
 10
11.2735
 20
10.9047
 11
11.1712
 21
10.8829
  0
LINE
  8
0
 10
11.1712
 20
10.8829
 11
10.8697
 21
10.8022
  0
LINE
  8
0
 10
10.8697
 20
10.8022
 11
10.7702
 21
10.7698
  0
LINE
  8
0
 10
10.7702
 20
10.7698
 11
10.4786
 21
10.6579
  0
LINE
  8
0
 10
10.4786
 20
10.6579
 11
10.3831
 21
10.6154
  0
LINE
  8
0
 10
10.3831
 20
10.6154
 11
10.105
 21
10.4736
  0
LINE
  8
0
 10
10.105
 20
10.4736
 11
10.0142
 21
10.4212
  0
LINE
  8
0
 10
10.0142
 20
10.4212
 11
9.75243
 21
10.2513
  0
LINE
  8
0
 10
9.75243
 20
10.2513
 11
9.66783
 21
10.1898
  0
LINE
  8
0
 10
9.66783
 20
10.1898
 11
9.42508
 21
9.99323
  0
LINE
  8
0
 10
9.42508
 20
9.99323
 11
9.34743
 21
9.92329
  0
LINE
  8
0
 10
9.34743
 20
9.92329
 11
8.97588
 21
9.55174
  0
LINE
  8
0
 10
8.97588
 20
9.55174
 11
8.89993
 21
9.47968
  0
LINE
  8
0
 10
8.89993
 20
9.47968
 11
8.08327
 21
8.74434
  0
LINE
  8
0
 10
8.08327
 20
8.74434
 11
7.92056
 21
8.61258
  0
LINE
  8
0
 10
7.92056
 20
8.61258
 11
7.07404
 21
7.99754
  0
LINE
  8
0
 10
7.07404
 20
7.99754
 11
6.89848
 21
7.88354
  0
LINE
  8
0
 10
6.89848
 20
7.88354
 11
5.99232
 21
7.36037
  0
LINE
  8
0
 10
5.99232
 20
7.36037
 11
5.8058
 21
7.26532
  0
LINE
  8
0
 10
5.8058
 20
7.26532
 11
4.84978
 21
6.83966
  0
LINE
  8
0
 10
4.84978
 20
6.83966
 11
4.6543
 21
6.76463
  0
LINE
  8
0
 10
4.6543
 20
6.76463
 11
3.65913
 21
6.4413
  0
LINE
  8
0
 10
3.65913
 20
6.4413
 11
3.45695
 21
6.38712
  0
LINE
  8
0
 10
3.45695
 20
6.38712
 11
2.45898
 21
6.17499
  0
LINE
  8
0
 10
2.45898
 20
6.17499
 11
2.20007
 21
6.13745
  0
LINE
  8
0
 10
2.20007
 20
6.13745
 11
0.531921
 21
6.00616
  0
LINE
  8
0
 10
0.531921
 20
6.00616
 11
0.375
 21
6
  0
LINE
  8
0
 10
0.375
 20
6
 11
-6.65958
 21
6
  0
LINE
  8
0
 10
-6.65958
 20
6
 11
-6.71223
 21
5.99861
  0
LINE
  8
0
 10
-6.71223
 20
5.99861
 11
-7.36409
 21
5.96446
  0
LINE
  8
0
 10
-7.36409
 20
5.96446
 11
-7.46808
 21
5.95352
  0
LINE
  8
0
 10
-7.46808
 20
5.95352
 11
-7.77647
 21
5.90468
  0
LINE
  8
0
 10
-7.77647
 20
5.90468
 11
-7.8788
 21
5.88293
  0
LINE
  8
0
 10
-7.8788
 20
5.88293
 11
-8.18025
 21
5.80215
  0
LINE
  8
0
 10
-8.18025
 20
5.80215
 11
-8.27983
 21
5.76981
  0
LINE
  8
0
 10
-8.27983
 20
5.76981
 11
-8.57137
 21
5.6579
  0
LINE
  8
0
 10
-8.57137
 20
5.6579
 11
-8.66689
 21
5.61537
  0
LINE
  8
0
 10
-8.66689
 20
5.61537
 11
-8.94502
 21
5.47365
  0
LINE
  8
0
 10
-8.94502
 20
5.47365
 11
-9.03581
 21
5.42122
  0
LINE
  8
0
 10
-9.03581
 20
5.42122
 11
-9.29756
 21
5.25125
  0
LINE
  8
0
 10
-9.29756
 20
5.25125
 11
-9.38216
 21
5.18979
  0
LINE
  8
0
 10
-9.38216
 20
5.18979
 11
-9.62491
 21
4.99323
  0
LINE
  8
0
 10
-9.62491
 20
4.99323
 11
-9.70256
 21
4.92329
  0
LINE
  8
0
 10
-9.70256
 20
4.92329
 11
-9.92322
 21
4.70264
  0
LINE
  8
0
 10
-9.92322
 20
4.70264
 11
-9.99344
 21
4.62465
  0
LINE
  8
0
 10
-9.99344
 20
4.62465
 11
-10.1033
 21
4.48892
  0
LINE
  8
0
 10
-10.1033
 20
4.48892
 11
-10.1713
 21
4.40935
  0
LINE
  8
0
 10
-10.1713
 20
4.40935
 11
-10.9067
 21
3.59262
  0
LINE
  8
0
 10
-10.9067
 20
3.59262
 11
-11.0547
 21
3.44456
  0
LINE
  8
0
 10
-11.0547
 20
3.44456
 11
-11.8324
 21
2.74431
  0
LINE
  8
0
 10
-11.8324
 20
2.74431
 11
-11.9951
 21
2.61258
  0
LINE
  8
0
 10
-11.9951
 20
2.61258
 11
-12.8416
 21
1.99757
  0
LINE
  8
0
 10
-12.8416
 20
1.99757
 11
-13.0172
 21
1.88354
  0
LINE
  8
0
 10
-13.0172
 20
1.88354
 11
-13.9234
 21
1.36035
  0
LINE
  8
0
 10
-13.9234
 20
1.36035
 11
-14.1099
 21
1.26532
  0
LINE
  8
0
 10
-14.1099
 20
1.26532
 11
-15.0659
 21
0.839645
  0
LINE
  8
0
 10
-15.0659
 20
0.839645
 11
-15.2614
 21
0.764603
  0
LINE
  8
0
 10
-15.2614
 20
0.764603
 11
-16.2566
 21
0.441284
  0
LINE
  8
0
 10
-16.2566
 20
0.441284
 11
-16.4587
 21
0.387115
  0
LINE
  8
0
 10
-16.4587
 20
0.387115
 11
-17.4567
 21
0.174988
  0
LINE
  8
0
 10
-17.4567
 20
0.174988
 11
-17.7156
 21
0.137451
  0
LINE
  8
0
 10
-17.7156
 20
0.137451
 11
-19.3838
 21
0.00616455
  0
LINE
  8
0
 10
-19.3838
 20
0.00616455
 11
-19.5407
 21
0
  0
LINE
  8
0
 10
-19.5407
 20
0
 11
-32.4677
 21
0
  0
LINE
  8
0
 10
-32.4677
 20
0
 11
-32.4947
 21
-0.000350952
  0
LINE
  8
0
 10
-32.4947
 20
-0.000350952
 11
-32.9909
 21
-0.0133362
  0
LINE
  8
0
 10
-32.9909
 20
-0.0133362
 11
-33.0176
 21
-0.014389
  0
LINE
  8
0
 10
-33.0176
 20
-0.014389
 11
-33.1416
 21
-0.0208893
  0
LINE
  8
0
 10
-33.1416
 20
-0.0208893
 11
-33.1941
 21
-0.0229492
  0
LINE
  8
0
 10
-33.1941
 20
-0.0229492
 11
-33.7696
 21
-0.0380096
  0
LINE
  8
0
 10
-33.7696
 20
-0.0380096
 11
-33.8219
 21
-0.0386963
  0
LINE
  8
0
 10
-33.8219
 20
-0.0386963
 11
-33.9784
 21
-0.0386963
  0
LINE
  8
0
 10
-33.9784
 20
-0.0386963
 11
-34.0308
 21
-0.0380096
  0
LINE
  8
0
 10
-34.0308
 20
-0.0380096
 11
-34.606
 21
-0.0229492
  0
LINE
  8
0
 10
-34.606
 20
-0.0229492
 11
-34.6581
 21
-0.0209045
  0
LINE
  8
0
 10
-34.6581
 20
-0.0209045
 11
-34.7827
 21
-0.014389
  0
LINE
  8
0
 10
-34.7827
 20
-0.014389
 11
-34.8095
 21
-0.0133362
  0
LINE
  8
0
 10
-34.8095
 20
-0.0133362
 11
-35.3052
 21
-0.000350952
  0
LINE
  8
0
 10
-35.3052
 20
-0.000350952
 11
-35.332
 21
0
  0
LINE
  8
0
 10
-35.332
 20
0
 11
-44.6678
 21
0
  0
LINE
  8
0
 10
-44.6678
 20
0
 11
-44.6947
 21
-0.000350952
  0
LINE
  8
0
 10
-44.6947
 20
-0.000350952
 11
-45.0169
 21
-0.00878906
  0
LINE
  8
0
 10
-45.0169
 20
-0.00878906
 11
-45.0955
 21
-0.0139465
  0
LINE
  8
0
 10
-45.0955
 20
-0.0139465
 11
-45.6582
 21
-0.0731049
  0
LINE
  8
0
 10
-45.6582
 20
-0.0731049
 11
-45.7611
 21
-0.0894012
  0
LINE
  8
0
 10
-45.7611
 20
-0.0894012
 11
-46.0669
 21
-0.154404
  0
LINE
  8
0
 10
-46.0669
 20
-0.154404
 11
-46.1679
 21
-0.181473
  0
LINE
  8
0
 10
-46.1679
 20
-0.181473
 11
-46.4649
 21
-0.278
  0
LINE
  8
0
 10
-46.4649
 20
-0.278
 11
-46.5625
 21
-0.315475
  0
LINE
  8
0
 10
-46.5625
 20
-0.315475
 11
-46.8475
 21
-0.442352
  0
LINE
  8
0
 10
-46.8475
 20
-0.442352
 11
-46.9409
 21
-0.489929
  0
LINE
  8
0
 10
-46.9409
 20
-0.489929
 11
-47.2113
 21
-0.646072
  0
LINE
  8
0
 10
-47.2113
 20
-0.646072
 11
-47.299
 21
-0.703018
  0
LINE
  8
0
 10
-47.299
 20
-0.703018
 11
-47.5516
 21
-0.886536
  0
LINE
  8
0
 10
-47.5516
 20
-0.886536
 11
-47.6329
 21
-0.952362
  0
LINE
  8
0
 10
-47.6329
 20
-0.952362
 11
-47.8649
 21
-1.16125
  0
LINE
  8
0
 10
-47.8649
 20
-1.16125
 11
-47.9388
 21
-1.2352
  0
LINE
  8
0
 10
-47.9388
 20
-1.2352
 11
-48.1478
 21
-1.46738
  0
LINE
  8
0
 10
-48.1478
 20
-1.46738
 11
-48.2135
 21
-1.54851
  0
LINE
  8
0
 10
-48.2135
 20
-1.54851
 11
-48.3971
 21
-1.80116
  0
LINE
  8
0
 10
-48.3971
 20
-1.80116
 11
-48.454
 21
-1.88885
  0
LINE
  8
0
 10
-48.454
 20
-1.88885
 11
-48.6101
 21
-2.15923
  0
LINE
  8
0
 10
-48.6101
 20
-2.15923
 11
-48.6577
 21
-2.25262
  0
LINE
  8
0
 10
-48.6577
 20
-2.25262
 11
-48.7846
 21
-2.53766
  0
LINE
  8
0
 10
-48.7846
 20
-2.53766
 11
-48.8222
 21
-2.6355
  0
LINE
  8
0
 10
-48.8222
 20
-2.6355
 11
-48.9186
 21
-2.93228
  0
LINE
  8
0
 10
-48.9186
 20
-2.93228
 11
-48.9456
 21
-3.03317
  0
LINE
  8
0
 10
-48.9456
 20
-3.03317
 11
-49.0106
 21
-3.33905
  0
LINE
  8
0
 10
-49.0106
 20
-3.33905
 11
-49.0269
 21
-3.44203
  0
LINE
  8
0
 10
-49.0269
 20
-3.44203
 11
-49.0656
 21
-3.80952
  0
LINE
  8
0
 10
-49.0656
 20
-3.80952
 11
-49.0792
 21
-3.9133
  0
LINE
  8
0
 10
-49.0792
 20
-3.9133
 11
-49.0908
 21
-3.98642
  0
LINE
  8
0
 10
-49.0908
 20
-3.98642
 11
-49.0976
 21
-4.03854
  0
LINE
  8
0
 10
-49.0976
 20
-4.03854
 11
-49.114
 21
-4.19377
  0
LINE
  8
0
 10
-49.114
 20
-4.19377
 11
-49.1237
 21
-4.27162
  0
LINE
  8
0
 10
-49.1237
 20
-4.27162
 11
-49.2285
 21
-4.99472
  0
LINE
  8
0
 10
-49.2285
 20
-4.99472
 11
-49.2318
 21
-5.02417
  0
LINE
  8
0
 10
-49.2318
 20
-5.02417
 11
-49.2407
 21
-5.0916
  0
LINE
  8
0
 10
-49.2407
 20
-5.0916
 11
-49.3359
 21
-5.99693
  0
LINE
  8
0
 10
-49.3359
 20
-5.99693
 11
-49.341
 21
-6.07507
  0
LINE
  8
0
 10
-49.341
 20
-6.07507
 11
-49.3496
 21
-6.40552
  0
LINE
  8
0
 10
-49.3496
 20
-6.40552
 11
-49.35
 21
-6.43227
  0
LINE
  8
0
 10
-49.35
 20
-6.43227
 11
-49.35
 21
-13.6674
  0
ENDSEC
  0
SECTION
  2
OBJECTS
  0
DICTIONARY
  0
ENDSEC
  0
EOF
