  0
SECTION
  2
BLOCKS
  0
ENDSEC
  0
SECTION
  2
ENTITIES
  0
LINE
  8
0
 10
-44.2227
 20
-88.9642
 11
-44.1957
 21
-89.2728
  0
LINE
  8
0
 10
-44.1957
 20
-89.2728
 11
-44.1367
 21
-89.5766
  0
LINE
  8
0
 10
-44.1367
 20
-89.5766
 11
-44.0461
 21
-89.8728
  0
LINE
  8
0
 10
-44.0461
 20
-89.8728
 11
-43.925
 21
-90.1581
  0
LINE
  8
0
 10
-43.925
 20
-90.1581
 11
-43.6179
 21
-90.7121
  0
LINE
  8
0
 10
-43.6179
 20
-90.7121
 11
-43.3776
 21
-91.0751
  0
LINE
  8
0
 10
-43.3776
 20
-91.0751
 11
-33.1422
 21
-105.693
  0
LINE
  8
0
 10
-33.1422
 20
-105.693
 11
-32.8831
 21
-106.043
  0
LINE
  8
0
 10
-32.8831
 20
-106.043
 11
-32.4675
 21
-106.521
  0
LINE
  8
0
 10
-32.4675
 20
-106.521
 11
-32.2412
 21
-106.732
  0
LINE
  8
0
 10
-32.2412
 20
-106.732
 11
-31.9933
 21
-106.919
  0
LINE
  8
0
 10
-31.9933
 20
-106.919
 11
-31.7285
 21
-107.078
  0
LINE
  8
0
 10
-31.7285
 20
-107.078
 11
-31.4473
 21
-107.209
  0
LINE
  8
0
 10
-31.4473
 20
-107.209
 11
-31.1547
 21
-107.31
  0
LINE
  8
0
 10
-31.1547
 20
-107.31
 11
-30.8533
 21
-107.38
  0
LINE
  8
0
 10
-30.8533
 20
-107.38
 11
-30.5452
 21
-107.417
  0
LINE
  8
0
 10
-30.5452
 20
-107.417
 11
-30.2358
 21
-107.423
  0
LINE
  8
0
 10
-30.2358
 20
-107.423
 11
-29.9272
 21
-107.396
  0
LINE
  8
0
 10
-29.9272
 20
-107.396
 11
-29.6234
 21
-107.337
  0
LINE
  8
0
 10
-29.6234
 20
-107.337
 11
-29.3272
 21
-107.246
  0
LINE
  8
0
 10
-29.3272
 20
-107.246
 11
-29.0419
 21
-107.125
  0
LINE
  8
0
 10
-29.0419
 20
-107.125
 11
-28.4879
 21
-106.818
  0
LINE
  8
0
 10
-28.4879
 20
-106.818
 11
-28.1249
 21
-106.578
  0
LINE
  8
0
 10
-28.1249
 20
-106.578
 11
-21.4347
 21
-101.893
  0
LINE
  8
0
 10
-21.4347
 20
-101.893
 11
-19.6593
 21
-100.784
  0
LINE
  8
0
 10
-19.6593
 20
-100.784
 11
-17.7778
 21
-99.8661
  0
LINE
  8
0
 10
-17.7778
 20
-99.8661
 11
-15.8106
 21
-99.1501
  0
LINE
  8
0
 10
-15.8106
 20
-99.1501
 11
-13.7793
 21
-98.6436
  0
LINE
  8
0
 10
-13.7793
 20
-98.6436
 11
-11.7063
 21
-98.3523
  0
LINE
  8
0
 10
-11.7063
 20
-98.3523
 11
-9.61412
 21
-98.2792
  0
LINE
  8
0
 10
-9.61412
 20
-98.2792
 11
-7.52577
 21
-98.4252
  0
LINE
  8
0
 10
-7.52577
 20
-98.4252
 11
-5.46414
 21
-98.7888
  0
LINE
  8
0
 10
-5.46414
 20
-98.7888
 11
-3.4518
 21
-99.3658
  0
LINE
  8
0
 10
-3.4518
 20
-99.3658
 11
-2.30986
 21
-99.7984
  0
LINE
  8
0
 10
-2.30986
 20
-99.7984
 11
-2.23749
 21
-99.8284
  0
LINE
  8
0
 10
-2.23749
 20
-99.8284
 11
-1.92917
 21
-99.9376
  0
LINE
  8
0
 10
-1.92917
 20
-99.9376
 11
-1.61584
 21
-100.03
  0
LINE
  8
0
 10
-1.61584
 20
-100.03
 11
-1.29808
 21
-100.107
  0
LINE
  8
0
 10
-1.29808
 20
-100.107
 11
-0.976929
 21
-100.166
  0
LINE
  8
0
 10
-0.976929
 20
-100.166
 11
-0.652634
 21
-100.209
  0
LINE
  8
0
 10
-0.652634
 20
-100.209
 11
-0.326843
 21
-100.235
  0
LINE
  8
0
 10
-0.326843
 20
-100.235
 11
0
 21
-100.243
  0
LINE
  8
0
 10
0
 20
-100.243
 11
0.326843
 21
-100.235
  0
LINE
  8
0
 10
0.326843
 20
-100.235
 11
0.652634
 21
-100.209
  0
LINE
  8
0
 10
0.652634
 20
-100.209
 11
0.976929
 21
-100.166
  0
LINE
  8
0
 10
0.976929
 20
-100.166
 11
1.29808
 21
-100.107
  0
LINE
  8
0
 10
1.29808
 20
-100.107
 11
1.61584
 21
-100.03
  0
LINE
  8
0
 10
1.61584
 20
-100.03
 11
1.92917
 21
-99.9376
  0
LINE
  8
0
 10
1.92917
 20
-99.9376
 11
2.2374
 21
-99.8284
  0
LINE
  8
0
 10
2.2374
 20
-99.8284
 11
2.53929
 21
-99.7034
  0
LINE
  8
0
 10
2.53929
 20
-99.7034
 11
2.83405
 21
-99.5628
  0
LINE
  8
0
 10
2.83405
 20
-99.5628
 11
3.12144
 21
-99.4068
  0
LINE
  8
0
 10
3.12144
 20
-99.4068
 11
3.40042
 21
-99.2358
  0
LINE
  8
0
 10
3.40042
 20
-99.2358
 11
3.66956
 21
-99.0508
  0
LINE
  8
0
 10
3.66956
 20
-99.0508
 11
3.92889
 21
-98.8519
  0
LINE
  8
0
 10
3.92889
 20
-98.8519
 11
4.17737
 21
-98.6396
  0
LINE
  8
0
 10
4.17737
 20
-98.6396
 11
4.41466
 21
-98.4145
  0
LINE
  8
0
 10
4.41466
 20
-98.4145
 11
4.68071
 21
-98.1341
  0
LINE
  8
0
 10
4.68071
 20
-98.1341
 11
6.19922
 21
-96.6931
  0
LINE
  8
0
 10
6.19922
 20
-96.6931
 11
7.86005
 21
-95.4186
  0
LINE
  8
0
 10
7.86005
 20
-95.4186
 11
9.64499
 21
-94.3248
  0
LINE
  8
0
 10
9.64499
 20
-94.3248
 11
11.5345
 21
-93.4235
  0
LINE
  8
0
 10
11.5345
 20
-93.4235
 11
13.5078
 21
-92.7247
  0
LINE
  8
0
 10
13.5078
 20
-92.7247
 11
15.5434
 21
-92.236
  0
LINE
  8
0
 10
15.5434
 20
-92.236
 11
17.619
 21
-91.9627
  0
LINE
  8
0
 10
17.619
 20
-91.9627
 11
19.7117
 21
-91.9079
  0
LINE
  8
0
 10
19.7117
 20
-91.9079
 11
20.9658
 21
-91.9802
  0
LINE
  8
0
 10
20.9658
 20
-91.9802
 11
21.2574
 21
-92.0062
  0
LINE
  8
0
 10
21.2574
 20
-92.0062
 11
21.8907
 21
-92.0129
  0
LINE
  8
0
 10
21.8907
 20
-92.0129
 11
22.1995
 21
-91.9837
  0
LINE
  8
0
 10
22.1995
 20
-91.9837
 11
22.503
 21
-91.9225
  0
LINE
  8
0
 10
22.503
 20
-91.9225
 11
22.7982
 21
-91.83
  0
LINE
  8
0
 10
22.7982
 20
-91.83
 11
23.0826
 21
-91.7069
  0
LINE
  8
0
 10
23.0826
 20
-91.7069
 11
23.3528
 21
-91.5547
  0
LINE
  8
0
 10
23.3528
 20
-91.5547
 11
23.6047
 21
-91.3757
  0
LINE
  8
0
 10
23.6047
 20
-91.3757
 11
23.8376
 21
-91.1703
  0
LINE
  8
0
 10
23.8376
 20
-91.1703
 11
24.0466
 21
-90.943
  0
LINE
  8
0
 10
24.0466
 20
-90.943
 11
24.2316
 21
-90.694
  0
LINE
  8
0
 10
24.2316
 20
-90.694
 11
24.3893
 21
-90.4273
  0
LINE
  8
0
 10
24.3893
 20
-90.4273
 11
24.5181
 21
-90.146
  0
LINE
  8
0
 10
24.5181
 20
-90.146
 11
24.6169
 21
-89.8523
  0
LINE
  8
0
 10
24.6169
 20
-89.8523
 11
24.7551
 21
-89.2339
  0
LINE
  8
0
 10
24.7551
 20
-89.2339
 11
24.8164
 21
-88.8032
  0
LINE
  8
0
 10
24.8164
 20
-88.8032
 11
25.1199
 21
-86.1802
  0
LINE
  8
0
 10
25.1199
 20
-86.1802
 11
25.469
 21
-84.1161
  0
LINE
  8
0
 10
25.469
 20
-84.1161
 11
26.032
 21
-82.0997
  0
LINE
  8
0
 10
26.032
 20
-82.0997
 11
26.8027
 21
-80.1533
  0
LINE
  8
0
 10
26.8027
 20
-80.1533
 11
27.7725
 21
-78.2981
  0
LINE
  8
0
 10
27.7725
 20
-78.2981
 11
28.931
 21
-76.5544
  0
LINE
  8
0
 10
28.931
 20
-76.5544
 11
30.2654
 21
-74.9414
  0
LINE
  8
0
 10
30.2654
 20
-74.9414
 11
31.7611
 21
-73.4767
  0
LINE
  8
0
 10
31.7611
 20
-73.4767
 11
33.4018
 21
-72.1764
  0
LINE
  8
0
 10
33.4018
 20
-72.1764
 11
35.1693
 21
-71.0547
  0
LINE
  8
0
 10
35.1693
 20
-71.0547
 11
37.0444
 21
-70.1239
  0
LINE
  8
0
 10
37.0444
 20
-70.1239
 11
39.0066
 21
-69.3941
  0
LINE
  8
0
 10
39.0066
 20
-69.3941
 11
41.0342
 21
-68.8735
  0
LINE
  8
0
 10
41.0342
 20
-68.8735
 11
43.1052
 21
-68.5677
  0
LINE
  8
0
 10
43.1052
 20
-68.5677
 11
45.1968
 21
-68.4801
  0
LINE
  8
0
 10
45.1968
 20
-68.4801
 11
47.0779
 21
-68.5885
  0
LINE
  8
0
 10
47.0779
 20
-68.5885
 11
47.7923
 21
-68.6636
  0
LINE
  8
0
 10
47.7923
 20
-68.6636
 11
48.2271
 21
-68.675
  0
LINE
  8
0
 10
48.2271
 20
-68.675
 11
52.3969
 21
-68.675
  0
LINE
  8
0
 10
52.3969
 20
-68.675
 11
54.4875
 21
-68.7845
  0
LINE
  8
0
 10
54.4875
 20
-68.7845
 11
56.5551
 21
-69.112
  0
LINE
  8
0
 10
56.5551
 20
-69.112
 11
58.5773
 21
-69.6539
  0
LINE
  8
0
 10
58.5773
 20
-69.6539
 11
60.5316
 21
-70.4041
  0
LINE
  8
0
 10
60.5316
 20
-70.4041
 11
62.3969
 21
-71.3545
  0
LINE
  8
0
 10
62.3969
 20
-71.3545
 11
64.1526
 21
-72.4947
  0
LINE
  8
0
 10
64.1526
 20
-72.4947
 11
65.0633
 21
-73.1563
  0
LINE
  8
0
 10
65.0633
 20
-73.1563
 11
65.6747
 21
-73.5093
  0
LINE
  8
0
 10
65.6747
 20
-73.5093
 11
67.4304
 21
-74.6494
  0
LINE
  8
0
 10
67.4304
 20
-74.6494
 11
69.0573
 21
-75.9668
  0
LINE
  8
0
 10
69.0573
 20
-75.9668
 11
70.5376
 21
-77.4471
  0
LINE
  8
0
 10
70.5376
 20
-77.4471
 11
71.8551
 21
-79.074
  0
LINE
  8
0
 10
71.8551
 20
-79.074
 11
72.9953
 21
-80.8297
  0
LINE
  8
0
 10
72.9953
 20
-80.8297
 11
73.9457
 21
-82.6949
  0
LINE
  8
0
 10
73.9457
 20
-82.6949
 11
74.6959
 21
-84.6493
  0
LINE
  8
0
 10
74.6959
 20
-84.6493
 11
75.2378
 21
-86.6714
  0
LINE
  8
0
 10
75.2378
 20
-86.6714
 11
75.5653
 21
-88.7391
  0
LINE
  8
0
 10
75.5653
 20
-88.7391
 11
75.6749
 21
-90.8296
  0
LINE
  8
0
 10
75.6749
 20
-90.8296
 11
75.5305
 21
-93.0336
  0
LINE
  8
0
 10
75.5305
 20
-93.0336
 11
75.5407
 21
-93.0344
  0
LINE
  8
0
 10
75.5407
 20
-93.0344
 11
75.5325
 21
-93.1387
  0
LINE
  8
0
 10
75.5325
 20
-93.1387
 11
75.5365
 21
-93.1392
  0
LINE
  8
0
 10
75.5365
 20
-93.1392
 11
75.5202
 21
-93.2951
  0
LINE
  8
0
 10
75.5202
 20
-93.2951
 11
75.4904
 21
-93.673
  0
LINE
  8
0
 10
75.4904
 20
-93.673
 11
75.4818
 21
-94
  0
LINE
  8
0
 10
75.4818
 20
-94
 11
75.4904
 21
-94.3271
  0
LINE
  8
0
 10
75.4904
 20
-94.3271
 11
75.516
 21
-94.6525
  0
LINE
  8
0
 10
75.516
 20
-94.6525
 11
75.5586
 21
-94.9762
  0
LINE
  8
0
 10
75.5586
 20
-94.9762
 11
75.6183
 21
-95.2982
  0
LINE
  8
0
 10
75.6183
 20
-95.2982
 11
75.6945
 21
-95.6158
  0
LINE
  8
0
 10
75.6945
 20
-95.6158
 11
75.7874
 21
-95.9292
  0
LINE
  8
0
 10
75.7874
 20
-95.9292
 11
75.8965
 21
-96.2374
  0
LINE
  8
0
 10
75.8965
 20
-96.2374
 11
76.0216
 21
-96.5393
  0
LINE
  8
0
 10
76.0216
 20
-96.5393
 11
76.1622
 21
-96.8341
  0
LINE
  8
0
 10
76.1622
 20
-96.8341
 11
76.3182
 21
-97.1214
  0
LINE
  8
0
 10
76.3182
 20
-97.1214
 11
76.4895
 21
-97.4009
  0
LINE
  8
0
 10
76.4895
 20
-97.4009
 11
76.6741
 21
-97.6696
  0
LINE
  8
0
 10
76.6741
 20
-97.6696
 11
76.8731
 21
-97.9288
  0
LINE
  8
0
 10
76.8731
 20
-97.9288
 11
77.0853
 21
-98.1774
  0
LINE
  8
0
 10
77.0853
 20
-98.1774
 11
77.3104
 21
-98.4146
  0
LINE
  8
0
 10
77.3104
 20
-98.4146
 11
77.5476
 21
-98.6396
  0
LINE
  8
0
 10
77.5476
 20
-98.6396
 11
77.7961
 21
-98.8519
  0
LINE
  8
0
 10
77.7961
 20
-98.8519
 11
78.0554
 21
-99.0508
  0
LINE
  8
0
 10
78.0554
 20
-99.0508
 11
78.3248
 21
-99.236
  0
LINE
  8
0
 10
78.3248
 20
-99.236
 11
78.6034
 21
-99.4067
  0
LINE
  8
0
 10
78.6034
 20
-99.4067
 11
78.8906
 21
-99.5626
  0
LINE
  8
0
 10
78.8906
 20
-99.5626
 11
79.1856
 21
-99.7034
  0
LINE
  8
0
 10
79.1856
 20
-99.7034
 11
79.4879
 21
-99.8286
  0
LINE
  8
0
 10
79.4879
 20
-99.8286
 11
79.7957
 21
-99.9376
  0
LINE
  8
0
 10
79.7957
 20
-99.9376
 11
80.1091
 21
-100.03
  0
LINE
  8
0
 10
80.1091
 20
-100.03
 11
80.4267
 21
-100.107
  0
LINE
  8
0
 10
80.4267
 20
-100.107
 11
80.7484
 21
-100.166
  0
LINE
  8
0
 10
80.7484
 20
-100.166
 11
81.0723
 21
-100.209
  0
LINE
  8
0
 10
81.0723
 20
-100.209
 11
81.3981
 21
-100.235
  0
LINE
  8
0
 10
81.3981
 20
-100.235
 11
81.725
 21
-100.243
  0
LINE
  8
0
 10
81.725
 20
-100.243
 11
82.0519
 21
-100.235
  0
LINE
  8
0
 10
82.0519
 20
-100.235
 11
82.3777
 21
-100.209
  0
LINE
  8
0
 10
82.3777
 20
-100.209
 11
82.7016
 21
-100.166
  0
LINE
  8
0
 10
82.7016
 20
-100.166
 11
83.0231
 21
-100.107
  0
LINE
  8
0
 10
83.0231
 20
-100.107
 11
83.3409
 21
-100.03
  0
LINE
  8
0
 10
83.3409
 20
-100.03
 11
83.6542
 21
-99.9376
  0
LINE
  8
0
 10
83.6542
 20
-99.9376
 11
83.9623
 21
-99.8285
  0
LINE
  8
0
 10
83.9623
 20
-99.8285
 11
84.2643
 21
-99.7034
  0
LINE
  8
0
 10
84.2643
 20
-99.7034
 11
84.5596
 21
-99.5625
  0
LINE
  8
0
 10
84.5596
 20
-99.5625
 11
84.8465
 21
-99.4068
  0
LINE
  8
0
 10
84.8465
 20
-99.4068
 11
85.1249
 21
-99.2362
  0
LINE
  8
0
 10
85.1249
 20
-99.2362
 11
85.3947
 21
-99.0507
  0
LINE
  8
0
 10
85.3947
 20
-99.0507
 11
85.6542
 21
-98.8516
  0
LINE
  8
0
 10
85.6542
 20
-98.8516
 11
85.9023
 21
-98.6397
  0
LINE
  8
0
 10
85.9023
 20
-98.6397
 11
86.1397
 21
-98.4144
  0
LINE
  8
0
 10
86.1397
 20
-98.4144
 11
86.3645
 21
-98.1775
  0
LINE
  8
0
 10
86.3645
 20
-98.1775
 11
86.5765
 21
-97.9293
  0
LINE
  8
0
 10
86.5765
 20
-97.9293
 11
86.7758
 21
-97.6696
  0
LINE
  8
0
 10
86.7758
 20
-97.6696
 11
86.9609
 21
-97.4003
  0
LINE
  8
0
 10
86.9609
 20
-97.4003
 11
87.1318
 21
-97.1214
  0
LINE
  8
0
 10
87.1318
 20
-97.1214
 11
87.2878
 21
-96.834
  0
LINE
  8
0
 10
87.2878
 20
-96.834
 11
87.4284
 21
-96.5393
  0
LINE
  8
0
 10
87.4284
 20
-96.5393
 11
87.5534
 21
-96.2374
  0
LINE
  8
0
 10
87.5534
 20
-96.2374
 11
87.6626
 21
-95.9292
  0
LINE
  8
0
 10
87.6626
 20
-95.9292
 11
87.7554
 21
-95.6158
  0
LINE
  8
0
 10
87.7554
 20
-95.6158
 11
87.8317
 21
-95.2982
  0
LINE
  8
0
 10
87.8317
 20
-95.2982
 11
87.8913
 21
-94.9762
  0
LINE
  8
0
 10
87.8913
 20
-94.9762
 11
87.934
 21
-94.6525
  0
LINE
  8
0
 10
87.934
 20
-94.6525
 11
87.9596
 21
-94.3271
  0
LINE
  8
0
 10
87.9596
 20
-94.3271
 11
87.9708
 21
-93.8974
  0
LINE
  8
0
 10
87.9708
 20
-93.8974
 11
88.1351
 21
-91.8104
  0
LINE
  8
0
 10
88.1351
 20
-91.8104
 11
88.5166
 21
-89.752
  0
LINE
  8
0
 10
88.5166
 20
-89.752
 11
89.1112
 21
-87.7448
  0
LINE
  8
0
 10
89.1112
 20
-87.7448
 11
89.9123
 21
-85.8107
  0
LINE
  8
0
 10
89.9123
 20
-85.8107
 11
90.9112
 21
-83.9709
  0
LINE
  8
0
 10
90.9112
 20
-83.9709
 11
92.097
 21
-82.2457
  0
LINE
  8
0
 10
92.097
 20
-82.2457
 11
93.4566
 21
-80.6538
  0
LINE
  8
0
 10
93.4566
 20
-80.6538
 11
94.9751
 21
-79.2128
  0
LINE
  8
0
 10
94.9751
 20
-79.2128
 11
96.6359
 21
-77.9384
  0
LINE
  8
0
 10
96.6359
 20
-77.9384
 11
98.4209
 21
-76.8446
  0
LINE
  8
0
 10
98.4209
 20
-76.8446
 11
100.31
 21
-75.9434
  0
LINE
  8
0
 10
100.31
 20
-75.9434
 11
102.284
 21
-75.2446
  0
LINE
  8
0
 10
102.284
 20
-75.2446
 11
104.319
 21
-74.7559
  0
LINE
  8
0
 10
104.319
 20
-74.7559
 11
104.863
 21
-74.6772
  0
LINE
  8
0
 10
104.863
 20
-74.6772
 11
105.541
 21
-74.533
  0
LINE
  8
0
 10
105.541
 20
-74.533
 11
105.835
 21
-74.4372
  0
LINE
  8
0
 10
105.835
 20
-74.4372
 11
106.118
 21
-74.3114
  0
LINE
  8
0
 10
106.118
 20
-74.3114
 11
106.387
 21
-74.1564
  0
LINE
  8
0
 10
106.387
 20
-74.1564
 11
106.637
 21
-73.9744
  0
LINE
  8
0
 10
106.637
 20
-73.9744
 11
106.867
 21
-73.7672
  0
LINE
  8
0
 10
106.867
 20
-73.7672
 11
107.074
 21
-73.537
  0
LINE
  8
0
 10
107.074
 20
-73.537
 11
107.256
 21
-73.2866
  0
LINE
  8
0
 10
107.256
 20
-73.2866
 11
107.411
 21
-73.0181
  0
LINE
  8
0
 10
107.411
 20
-73.0181
 11
107.537
 21
-72.7354
  0
LINE
  8
0
 10
107.537
 20
-72.7354
 11
107.633
 21
-72.4407
  0
LINE
  8
0
 10
107.633
 20
-72.4407
 11
107.697
 21
-72.1378
  0
LINE
  8
0
 10
107.697
 20
-72.1378
 11
107.764
 21
-71.5078
  0
LINE
  8
0
 10
107.764
 20
-71.5078
 11
107.775
 21
-71.0729
  0
LINE
  8
0
 10
107.775
 20
-71.0729
 11
107.775
 21
3.9229
  0
LINE
  8
0
 10
107.775
 20
3.9229
 11
107.764
 21
4.35777
  0
LINE
  8
0
 10
107.764
 20
4.35777
 11
107.697
 21
4.98776
  0
LINE
  8
0
 10
107.697
 20
4.98776
 11
107.633
 21
5.29071
  0
LINE
  8
0
 10
107.633
 20
5.29071
 11
107.537
 21
5.58543
  0
LINE
  8
0
 10
107.537
 20
5.58543
 11
107.411
 21
5.86807
  0
LINE
  8
0
 10
107.411
 20
5.86807
 11
107.256
 21
6.13661
  0
LINE
  8
0
 10
107.256
 20
6.13661
 11
107.074
 21
6.38702
  0
LINE
  8
0
 10
107.074
 20
6.38702
 11
106.867
 21
6.61719
  0
LINE
  8
0
 10
106.867
 20
6.61719
 11
106.637
 21
6.82442
  0
LINE
  8
0
 10
106.637
 20
6.82442
 11
106.387
 21
7.00636
  0
LINE
  8
0
 10
106.387
 20
7.00636
 11
106.118
 21
7.16139
  0
LINE
  8
0
 10
106.118
 20
7.16139
 11
105.835
 21
7.28723
  0
LINE
  8
0
 10
105.835
 20
7.28723
 11
105.541
 21
7.383
  0
LINE
  8
0
 10
105.541
 20
7.383
 11
105.238
 21
7.4474
  0
LINE
  8
0
 10
105.238
 20
7.4474
 11
104.608
 21
7.51361
  0
LINE
  8
0
 10
104.608
 20
7.51361
 11
104.173
 21
7.52499
  0
LINE
  8
0
 10
104.173
 20
7.52499
 11
102.885
 21
7.52499
  0
LINE
  8
0
 10
102.885
 20
7.52499
 11
100.795
 21
7.63455
  0
LINE
  8
0
 10
100.795
 20
7.63455
 11
98.7272
 21
7.96204
  0
LINE
  8
0
 10
98.7272
 20
7.96204
 11
96.7051
 21
8.50386
  0
LINE
  8
0
 10
96.7051
 20
8.50386
 11
94.7507
 21
9.25409
  0
LINE
  8
0
 10
94.7507
 20
9.25409
 11
92.8854
 21
10.2045
  0
LINE
  8
0
 10
92.8854
 20
10.2045
 11
91.1297
 21
11.3447
  0
LINE
  8
0
 10
91.1297
 20
11.3447
 11
89.5028
 21
12.6621
  0
LINE
  8
0
 10
89.5028
 20
12.6621
 11
88.0225
 21
14.1424
  0
LINE
  8
0
 10
88.0225
 20
14.1424
 11
86.9796
 21
15.4302
  0
LINE
  8
0
 10
86.9796
 20
15.4302
 11
86.967
 21
15.4205
  0
LINE
  8
0
 10
86.967
 20
15.4205
 11
86.5765
 21
15.9293
  0
LINE
  8
0
 10
86.5765
 20
15.9293
 11
86.3645
 21
16.1775
  0
LINE
  8
0
 10
86.3645
 20
16.1775
 11
86.1397
 21
16.4144
  0
LINE
  8
0
 10
86.1397
 20
16.4144
 11
85.9023
 21
16.6397
  0
LINE
  8
0
 10
85.9023
 20
16.6397
 11
85.6542
 21
16.8516
  0
LINE
  8
0
 10
85.6542
 20
16.8516
 11
85.3947
 21
17.0507
  0
LINE
  8
0
 10
85.3947
 20
17.0507
 11
85.1249
 21
17.2362
  0
LINE
  8
0
 10
85.1249
 20
17.2362
 11
84.8465
 21
17.4068
  0
LINE
  8
0
 10
84.8465
 20
17.4068
 11
84.5596
 21
17.5625
  0
LINE
  8
0
 10
84.5596
 20
17.5625
 11
84.2643
 21
17.7034
  0
LINE
  8
0
 10
84.2643
 20
17.7034
 11
83.9623
 21
17.8285
  0
LINE
  8
0
 10
83.9623
 20
17.8285
 11
83.6542
 21
17.9376
  0
LINE
  8
0
 10
83.6542
 20
17.9376
 11
83.3409
 21
18.0304
  0
LINE
  8
0
 10
83.3409
 20
18.0304
 11
83.0231
 21
18.1067
  0
LINE
  8
0
 10
83.0231
 20
18.1067
 11
82.7016
 21
18.1663
  0
LINE
  8
0
 10
82.7016
 20
18.1663
 11
82.3777
 21
18.2089
  0
LINE
  8
0
 10
82.3777
 20
18.2089
 11
82.0519
 21
18.2346
  0
LINE
  8
0
 10
82.0519
 20
18.2346
 11
81.725
 21
18.2431
  0
LINE
  8
0
 10
81.725
 20
18.2431
 11
81.3981
 21
18.2346
  0
LINE
  8
0
 10
81.3981
 20
18.2346
 11
81.0723
 21
18.2089
  0
LINE
  8
0
 10
81.0723
 20
18.2089
 11
80.7484
 21
18.1663
  0
LINE
  8
0
 10
80.7484
 20
18.1663
 11
80.4267
 21
18.1067
  0
LINE
  8
0
 10
80.4267
 20
18.1067
 11
80.1091
 21
18.0304
  0
LINE
  8
0
 10
80.1091
 20
18.0304
 11
79.7957
 21
17.9376
  0
LINE
  8
0
 10
79.7957
 20
17.9376
 11
79.4879
 21
17.8286
  0
LINE
  8
0
 10
79.4879
 20
17.8286
 11
79.1856
 21
17.7034
  0
LINE
  8
0
 10
79.1856
 20
17.7034
 11
78.8906
 21
17.5626
  0
LINE
  8
0
 10
78.8906
 20
17.5626
 11
78.6034
 21
17.4067
  0
LINE
  8
0
 10
78.6034
 20
17.4067
 11
78.325
 21
17.2361
  0
LINE
  8
0
 10
78.325
 20
17.2361
 11
78.0295
 21
17.033
  0
LINE
  8
0
 10
78.0295
 20
17.033
 11
76.2445
 21
15.9392
  0
LINE
  8
0
 10
76.2445
 20
15.9392
 11
74.355
 21
15.0379
  0
LINE
  8
0
 10
74.355
 20
15.0379
 11
72.3817
 21
14.3391
  0
LINE
  8
0
 10
72.3817
 20
14.3391
 11
70.3461
 21
13.8503
  0
LINE
  8
0
 10
70.3461
 20
13.8503
 11
68.2706
 21
13.5771
  0
LINE
  8
0
 10
68.2706
 20
13.5771
 11
66.3347
 21
13.5264
  0
LINE
  8
0
 10
66.3347
 20
13.5264
 11
66.3347
 21
13.525
  0
LINE
  8
0
 10
66.3347
 20
13.525
 11
66.2823
 21
13.525
  0
LINE
  8
0
 10
66.2823
 20
13.525
 11
66.1775
 21
13.5222
  0
LINE
  8
0
 10
66.1775
 20
13.5222
 11
66.0726
 21
13.525
  0
LINE
  8
0
 10
66.0726
 20
13.525
 11
60.5267
 21
13.525
  0
LINE
  8
0
 10
60.5267
 20
13.525
 11
58.4361
 21
13.6346
  0
LINE
  8
0
 10
58.4361
 20
13.6346
 11
56.3685
 21
13.962
  0
LINE
  8
0
 10
56.3685
 20
13.962
 11
54.3464
 21
14.5039
  0
LINE
  8
0
 10
54.3464
 20
14.5039
 11
52.392
 21
15.2541
  0
LINE
  8
0
 10
52.392
 20
15.2541
 11
50.5267
 21
16.2045
  0
LINE
  8
0
 10
50.5267
 20
16.2045
 11
49.7347
 21
16.7188
  0
LINE
  8
0
 10
49.7347
 20
16.7188
 11
48.9681
 21
17.1614
  0
LINE
  8
0
 10
48.9681
 20
17.1614
 11
48.6854
 21
17.2872
  0
LINE
  8
0
 10
48.6854
 20
17.2872
 11
48.3907
 21
17.383
  0
LINE
  8
0
 10
48.3907
 20
17.383
 11
48.0878
 21
17.4474
  0
LINE
  8
0
 10
48.0878
 20
17.4474
 11
47.4578
 21
17.5136
  0
LINE
  8
0
 10
47.4578
 20
17.5136
 11
47.0229
 21
17.525
  0
LINE
  8
0
 10
47.0229
 20
17.525
 11
29.1771
 21
17.525
  0
LINE
  8
0
 10
29.1771
 20
17.525
 11
28.7422
 21
17.5136
  0
LINE
  8
0
 10
28.7422
 20
17.5136
 11
28.1122
 21
17.4474
  0
LINE
  8
0
 10
28.1122
 20
17.4474
 11
27.8093
 21
17.383
  0
LINE
  8
0
 10
27.8093
 20
17.383
 11
27.5146
 21
17.2872
  0
LINE
  8
0
 10
27.5146
 20
17.2872
 11
27.2319
 21
17.1614
  0
LINE
  8
0
 10
27.2319
 20
17.1614
 11
26.813
 21
16.9196
  0
LINE
  8
0
 10
26.813
 20
16.9196
 11
25.3483
 21
15.9684
  0
LINE
  8
0
 10
25.3483
 20
15.9684
 11
23.483
 21
15.0179
  0
LINE
  8
0
 10
23.483
 20
15.0179
 11
21.5286
 21
14.2677
  0
LINE
  8
0
 10
21.5286
 20
14.2677
 11
19.5065
 21
13.7259
  0
LINE
  8
0
 10
19.5065
 20
13.7259
 11
17.4389
 21
13.3984
  0
LINE
  8
0
 10
17.4389
 20
13.3984
 11
15.3483
 21
13.2888
  0
LINE
  8
0
 10
15.3483
 20
13.2888
 11
13.2577
 21
13.3984
  0
LINE
  8
0
 10
13.2577
 20
13.3984
 11
11.1901
 21
13.7259
  0
LINE
  8
0
 10
11.1901
 20
13.7259
 11
9.16797
 21
14.2677
  0
LINE
  8
0
 10
9.16797
 20
14.2677
 11
7.21358
 21
15.0179
  0
LINE
  8
0
 10
7.21358
 20
15.0179
 11
5.3483
 21
15.9683
  0
LINE
  8
0
 10
5.3483
 20
15.9683
 11
3.93684
 21
16.8849
  0
LINE
  8
0
 10
3.93684
 20
16.8849
 11
3.92854
 21
16.8728
  0
LINE
  8
0
 10
3.92854
 20
16.8728
 11
3.40042
 21
17.2358
  0
LINE
  8
0
 10
3.40042
 20
17.2358
 11
3.12144
 21
17.4068
  0
LINE
  8
0
 10
3.12144
 20
17.4068
 11
2.83405
 21
17.5628
  0
LINE
  8
0
 10
2.83405
 20
17.5628
 11
2.53929
 21
17.7034
  0
LINE
  8
0
 10
2.53929
 20
17.7034
 11
2.2374
 21
17.8284
  0
LINE
  8
0
 10
2.2374
 20
17.8284
 11
1.92917
 21
17.9376
  0
LINE
  8
0
 10
1.92917
 20
17.9376
 11
1.61584
 21
18.0304
  0
LINE
  8
0
 10
1.61584
 20
18.0304
 11
1.29808
 21
18.1067
  0
LINE
  8
0
 10
1.29808
 20
18.1067
 11
0.976929
 21
18.1662
  0
LINE
  8
0
 10
0.976929
 20
18.1662
 11
0.652634
 21
18.2089
  0
LINE
  8
0
 10
0.652634
 20
18.2089
 11
0.326843
 21
18.2346
  0
LINE
  8
0
 10
0.326843
 20
18.2346
 11
0
 21
18.2431
  0
LINE
  8
0
 10
0
 20
18.2431
 11
-0.326843
 21
18.2346
  0
LINE
  8
0
 10
-0.326843
 20
18.2346
 11
-0.652634
 21
18.2089
  0
LINE
  8
0
 10
-0.652634
 20
18.2089
 11
-0.976929
 21
18.1662
  0
LINE
  8
0
 10
-0.976929
 20
18.1662
 11
-1.29808
 21
18.1067
  0
LINE
  8
0
 10
-1.29808
 20
18.1067
 11
-1.61584
 21
18.0304
  0
LINE
  8
0
 10
-1.61584
 20
18.0304
 11
-1.92917
 21
17.9376
  0
LINE
  8
0
 10
-1.92917
 20
17.9376
 11
-2.2374
 21
17.8284
  0
LINE
  8
0
 10
-2.2374
 20
17.8284
 11
-2.53929
 21
17.7034
  0
LINE
  8
0
 10
-2.53929
 20
17.7034
 11
-2.83405
 21
17.5628
  0
LINE
  8
0
 10
-2.83405
 20
17.5628
 11
-3.12144
 21
17.4068
  0
LINE
  8
0
 10
-3.12144
 20
17.4068
 11
-3.40042
 21
17.2358
  0
LINE
  8
0
 10
-3.40042
 20
17.2358
 11
-3.66956
 21
17.0508
  0
LINE
  8
0
 10
-3.66956
 20
17.0508
 11
-3.92889
 21
16.8519
  0
LINE
  8
0
 10
-3.92889
 20
16.8519
 11
-4.17737
 21
16.6396
  0
LINE
  8
0
 10
-4.17737
 20
16.6396
 11
-4.41457
 21
16.4146
  0
LINE
  8
0
 10
-4.41457
 20
16.4146
 11
-4.63968
 21
16.1773
  0
LINE
  8
0
 10
-4.63968
 20
16.1773
 11
-4.80927
 21
15.9788
  0
LINE
  8
0
 10
-4.80927
 20
15.9788
 11
-6.25029
 21
14.4603
  0
LINE
  8
0
 10
-6.25029
 20
14.4603
 11
-7.84215
 21
13.1007
  0
LINE
  8
0
 10
-7.84215
 20
13.1007
 11
-9.56741
 21
11.9149
  0
LINE
  8
0
 10
-9.56741
 20
11.9149
 11
-10.1007
 21
11.6163
  0
LINE
  8
0
 10
-10.1007
 20
11.6163
 11
-10.0956
 21
11.6074
  0
LINE
  8
0
 10
-10.0956
 20
11.6074
 11
-11.1366
 21
11.0064
  0
LINE
  8
0
 10
-11.1366
 20
11.0064
 11
-11.387
 21
10.8244
  0
LINE
  8
0
 10
-11.387
 20
10.8244
 11
-11.6172
 21
10.6172
  0
LINE
  8
0
 10
-11.6172
 20
10.6172
 11
-11.8244
 21
10.387
  0
LINE
  8
0
 10
-11.8244
 20
10.387
 11
-12.0064
 21
10.1366
  0
LINE
  8
0
 10
-12.0064
 20
10.1366
 11
-12.1614
 21
9.86807
  0
LINE
  8
0
 10
-12.1614
 20
9.86807
 11
-12.2872
 21
9.58543
  0
LINE
  8
0
 10
-12.2872
 20
9.58543
 11
-12.383
 21
9.29071
  0
LINE
  8
0
 10
-12.383
 20
9.29071
 11
-12.4474
 21
8.98776
  0
LINE
  8
0
 10
-12.4474
 20
8.98776
 11
-12.5136
 21
8.35777
  0
LINE
  8
0
 10
-12.5136
 20
8.35777
 11
-12.525
 21
7.9229
  0
LINE
  8
0
 10
-12.525
 20
7.9229
 11
-12.525
 21
-53.7582
  0
LINE
  8
0
 10
-12.525
 20
-53.7582
 11
-12.6346
 21
-55.8488
  0
LINE
  8
0
 10
-12.6346
 20
-55.8488
 11
-12.962
 21
-57.9164
  0
LINE
  8
0
 10
-12.962
 20
-57.9164
 11
-13.5039
 21
-59.9386
  0
LINE
  8
0
 10
-13.5039
 20
-59.9386
 11
-14.2541
 21
-61.8929
  0
LINE
  8
0
 10
-14.2541
 20
-61.8929
 11
-15.2045
 21
-63.7582
  0
LINE
  8
0
 10
-15.2045
 20
-63.7582
 11
-16.3447
 21
-65.5139
  0
LINE
  8
0
 10
-16.3447
 20
-65.5139
 11
-17.6621
 21
-67.1408
  0
LINE
  8
0
 10
-17.6621
 20
-67.1408
 11
-19.1424
 21
-68.6211
  0
LINE
  8
0
 10
-19.1424
 20
-68.6211
 11
-20.7693
 21
-69.9386
  0
LINE
  8
0
 10
-20.7693
 20
-69.9386
 11
-22.5254
 21
-71.0789
  0
LINE
  8
0
 10
-22.5254
 20
-71.0789
 11
-22.9136
 21
-71.303
  0
LINE
  8
0
 10
-22.9136
 20
-71.303
 11
-23.1646
 21
-71.4855
  0
LINE
  8
0
 10
-23.1646
 20
-71.4855
 11
-23.3941
 21
-71.692
  0
LINE
  8
0
 10
-23.3941
 20
-71.692
 11
-24.1987
 21
-72.5856
  0
LINE
  8
0
 10
-24.1987
 20
-72.5856
 11
-24.2148
 21
-72.5711
  0
LINE
  8
0
 10
-24.2148
 20
-72.5711
 11
-24.9876
 21
-73.4294
  0
LINE
  8
0
 10
-24.9876
 20
-73.4294
 11
-26.5432
 21
-74.8303
  0
LINE
  8
0
 10
-26.5432
 20
-74.8303
 11
-27.6712
 21
-75.6567
  0
LINE
  8
0
 10
-27.6712
 20
-75.6567
 11
-27.6605
 21
-75.672
  0
LINE
  8
0
 10
-27.6605
 20
-75.672
 11
-42.4929
 21
-86.0578
  0
LINE
  8
0
 10
-42.4929
 20
-86.0578
 11
-42.843
 21
-86.3169
  0
LINE
  8
0
 10
-42.843
 20
-86.3169
 11
-43.3211
 21
-86.7325
  0
LINE
  8
0
 10
-43.3211
 20
-86.7325
 11
-43.5321
 21
-86.9588
  0
LINE
  8
0
 10
-43.5321
 20
-86.9588
 11
-43.7189
 21
-87.2067
  0
LINE
  8
0
 10
-43.7189
 20
-87.2067
 11
-43.878
 21
-87.4715
  0
LINE
  8
0
 10
-43.878
 20
-87.4715
 11
-44.0092
 21
-87.7527
  0
LINE
  8
0
 10
-44.0092
 20
-87.7527
 11
-44.1099
 21
-88.0453
  0
LINE
  8
0
 10
-44.1099
 20
-88.0453
 11
-44.1795
 21
-88.3467
  0
LINE
  8
0
 10
-44.1795
 20
-88.3467
 11
-44.2173
 21
-88.6548
  0
LINE
  8
0
 10
-44.2173
 20
-88.6548
 11
-44.2227
 21
-88.9642
  0
LINE
  8
0
 10
-37.8308
 20
-90.759
 11
-37.1755
 21
-90.3001
  0
LINE
  8
0
 10
-37.1755
 20
-90.3001
 11
-37.7491
 21
-89.481
  0
LINE
  8
0
 10
-37.7491
 20
-89.481
 11
-26.281
 21
-81.4509
  0
LINE
  8
0
 10
-26.281
 20
-81.4509
 11
-25.7074
 21
-82.2701
  0
LINE
  8
0
 10
-25.7074
 20
-82.2701
 11
-25.0521
 21
-81.8112
  0
LINE
  8
0
 10
-25.0521
 20
-81.8112
 11
-23.0446
 21
-84.6782
  0
LINE
  8
0
 10
-23.0446
 20
-84.6782
 11
-23.6999
 21
-85.1371
  0
LINE
  8
0
 10
-23.6999
 20
-85.1371
 11
-20.832
 21
-89.2328
  0
LINE
  8
0
 10
-20.832
 20
-89.2328
 11
-20.1767
 21
-88.774
  0
LINE
  8
0
 10
-20.1767
 20
-88.774
 11
-18.1692
 21
-91.641
  0
LINE
  8
0
 10
-18.1692
 20
-91.641
 11
-18.8245
 21
-92.0999
  0
LINE
  8
0
 10
-18.8245
 20
-92.0999
 11
-18.2509
 21
-92.919
  0
LINE
  8
0
 10
-18.2509
 20
-92.919
 11
-29.719
 21
-100.949
  0
LINE
  8
0
 10
-29.719
 20
-100.949
 11
-30.2926
 21
-100.13
  0
LINE
  8
0
 10
-30.2926
 20
-100.13
 11
-30.9479
 21
-100.589
  0
LINE
  8
0
 10
-30.9479
 20
-100.589
 11
-32.9554
 21
-97.7218
  0
LINE
  8
0
 10
-32.9554
 20
-97.7218
 11
-32.3001
 21
-97.2629
  0
LINE
  8
0
 10
-32.3001
 20
-97.2629
 11
-35.168
 21
-93.1672
  0
LINE
  8
0
 10
-35.168
 20
-93.1672
 11
-35.8233
 21
-93.626
  0
LINE
  8
0
 10
-35.8233
 20
-93.626
 11
-37.8308
 21
-90.759
  0
LINE
  8
0
 10
-18.5723
 20
-76.604
 11
-17.8115
 21
-76.3568
  0
LINE
  8
0
 10
-17.8115
 20
-76.3568
 11
-18.1205
 21
-75.4057
  0
LINE
  8
0
 10
-18.1205
 20
-75.4057
 11
-4.80573
 21
-71.0795
  0
LINE
  8
0
 10
-4.80573
 20
-71.0795
 11
-4.4967
 21
-72.0305
  0
LINE
  8
0
 10
-4.4967
 20
-72.0305
 11
-3.73586
 21
-71.7833
  0
LINE
  8
0
 10
-3.73586
 20
-71.7833
 11
-2.6543
 21
-75.112
  0
LINE
  8
0
 10
-2.6543
 20
-75.112
 11
-3.41515
 21
-75.3592
  0
LINE
  8
0
 10
-3.41515
 20
-75.3592
 11
-1.87007
 21
-80.1145
  0
LINE
  8
0
 10
-1.87007
 20
-80.1145
 11
-1.10922
 21
-79.8673
  0
LINE
  8
0
 10
-1.10922
 20
-79.8673
 11
-0.0276642
 21
-83.196
  0
LINE
  8
0
 10
-0.0276642
 20
-83.196
 11
-0.788513
 21
-83.4432
  0
LINE
  8
0
 10
-0.788513
 20
-83.4432
 11
-0.479492
 21
-84.3943
  0
LINE
  8
0
 10
-0.479492
 20
-84.3943
 11
-13.7943
 21
-88.7205
  0
LINE
  8
0
 10
-13.7943
 20
-88.7205
 11
-14.1033
 21
-87.7695
  0
LINE
  8
0
 10
-14.1033
 20
-87.7695
 11
-14.8641
 21
-88.0167
  0
LINE
  8
0
 10
-14.8641
 20
-88.0167
 11
-15.9457
 21
-84.688
  0
LINE
  8
0
 10
-15.9457
 20
-84.688
 11
-15.1849
 21
-84.4408
  0
LINE
  8
0
 10
-15.1849
 20
-84.4408
 11
-16.7299
 21
-79.6855
  0
LINE
  8
0
 10
-16.7299
 20
-79.6855
 11
-17.4908
 21
-79.9327
  0
LINE
  8
0
 10
-17.4908
 20
-79.9327
 11
-18.5723
 21
-76.604
  0
LINE
  8
0
 10
-7.79999
 20
-64.15
 11
-7.79999
 21
-60.65
  0
LINE
  8
0
 10
-7.79999
 20
-60.65
 11
-7
 21
-60.65
  0
LINE
  8
0
 10
-7
 20
-60.65
 11
-7
 21
-55.65
  0
LINE
  8
0
 10
-7
 20
-55.65
 11
-7.79999
 21
-55.65
  0
LINE
  8
0
 10
-7.79999
 20
-55.65
 11
-7.79999
 21
-52.15
  0
LINE
  8
0
 10
-7.79999
 20
-52.15
 11
-7
 21
-52.15
  0
LINE
  8
0
 10
-7
 20
-52.15
 11
-7
 21
-51.15
  0
LINE
  8
0
 10
-7
 20
-51.15
 11
6.99998
 21
-51.15
  0
LINE
  8
0
 10
6.99998
 20
-51.15
 11
6.99998
 21
-52.15
  0
LINE
  8
0
 10
6.99998
 20
-52.15
 11
7.79999
 21
-52.15
  0
LINE
  8
0
 10
7.79999
 20
-52.15
 11
7.79999
 21
-55.65
  0
LINE
  8
0
 10
7.79999
 20
-55.65
 11
6.99998
 21
-55.65
  0
LINE
  8
0
 10
6.99998
 20
-55.65
 11
6.99998
 21
-60.65
  0
LINE
  8
0
 10
6.99998
 20
-60.65
 11
7.79999
 21
-60.65
  0
LINE
  8
0
 10
7.79999
 20
-60.65
 11
7.79999
 21
-64.15
  0
LINE
  8
0
 10
7.79999
 20
-64.15
 11
6.99998
 21
-64.15
  0
LINE
  8
0
 10
6.99998
 20
-64.15
 11
6.99998
 21
-65.15
  0
LINE
  8
0
 10
6.99998
 20
-65.15
 11
-7
 21
-65.15
  0
LINE
  8
0
 10
-7
 20
-65.15
 11
-7
 21
-64.15
  0
LINE
  8
0
 10
-7
 20
-64.15
 11
-7.79999
 21
-64.15
  0
LINE
  8
0
 10
-7.79999
 20
-45.1
 11
-7.79999
 21
-41.6
  0
LINE
  8
0
 10
-7.79999
 20
-41.6
 11
-7
 21
-41.6
  0
LINE
  8
0
 10
-7
 20
-41.6
 11
-7
 21
-36.6
  0
LINE
  8
0
 10
-7
 20
-36.6
 11
-7.79999
 21
-36.6
  0
LINE
  8
0
 10
-7.79999
 20
-36.6
 11
-7.79999
 21
-33.1
  0
LINE
  8
0
 10
-7.79999
 20
-33.1
 11
-7
 21
-33.1
  0
LINE
  8
0
 10
-7
 20
-33.1
 11
-7
 21
-32.1
  0
LINE
  8
0
 10
-7
 20
-32.1
 11
6.99998
 21
-32.1
  0
LINE
  8
0
 10
6.99998
 20
-32.1
 11
6.99998
 21
-33.1
  0
LINE
  8
0
 10
6.99998
 20
-33.1
 11
7.79999
 21
-33.1
  0
LINE
  8
0
 10
7.79999
 20
-33.1
 11
7.79999
 21
-36.6
  0
LINE
  8
0
 10
7.79999
 20
-36.6
 11
6.99998
 21
-36.6
  0
LINE
  8
0
 10
6.99998
 20
-36.6
 11
6.99998
 21
-41.6
  0
LINE
  8
0
 10
6.99998
 20
-41.6
 11
7.79999
 21
-41.6
  0
LINE
  8
0
 10
7.79999
 20
-41.6
 11
7.79999
 21
-45.1
  0
LINE
  8
0
 10
7.79999
 20
-45.1
 11
6.99998
 21
-45.1
  0
LINE
  8
0
 10
6.99998
 20
-45.1
 11
6.99998
 21
-46.1
  0
LINE
  8
0
 10
6.99998
 20
-46.1
 11
-7
 21
-46.1
  0
LINE
  8
0
 10
-7
 20
-46.1
 11
-7
 21
-45.1
  0
LINE
  8
0
 10
-7
 20
-45.1
 11
-7.79999
 21
-45.1
  0
LINE
  8
0
 10
-7.79999
 20
-26.05
 11
-7.79999
 21
-22.55
  0
LINE
  8
0
 10
-7.79999
 20
-22.55
 11
-7
 21
-22.55
  0
LINE
  8
0
 10
-7
 20
-22.55
 11
-7
 21
-17.55
  0
LINE
  8
0
 10
-7
 20
-17.55
 11
-7.79999
 21
-17.55
  0
LINE
  8
0
 10
-7.79999
 20
-17.55
 11
-7.79999
 21
-14.05
  0
LINE
  8
0
 10
-7.79999
 20
-14.05
 11
-7
 21
-14.05
  0
LINE
  8
0
 10
-7
 20
-14.05
 11
-7
 21
-13.05
  0
LINE
  8
0
 10
-7
 20
-13.05
 11
6.99998
 21
-13.05
  0
LINE
  8
0
 10
6.99998
 20
-13.05
 11
6.99998
 21
-14.05
  0
LINE
  8
0
 10
6.99998
 20
-14.05
 11
7.79999
 21
-14.05
  0
LINE
  8
0
 10
7.79999
 20
-14.05
 11
7.79999
 21
-17.55
  0
LINE
  8
0
 10
7.79999
 20
-17.55
 11
6.99998
 21
-17.55
  0
LINE
  8
0
 10
6.99998
 20
-17.55
 11
6.99998
 21
-22.55
  0
LINE
  8
0
 10
6.99998
 20
-22.55
 11
7.79999
 21
-22.55
  0
LINE
  8
0
 10
7.79999
 20
-22.55
 11
7.79999
 21
-26.05
  0
LINE
  8
0
 10
7.79999
 20
-26.05
 11
6.99998
 21
-26.05
  0
LINE
  8
0
 10
6.99998
 20
-26.05
 11
6.99998
 21
-27.05
  0
LINE
  8
0
 10
6.99998
 20
-27.05
 11
-7
 21
-27.05
  0
LINE
  8
0
 10
-7
 20
-27.05
 11
-7
 21
-26.05
  0
LINE
  8
0
 10
-7
 20
-26.05
 11
-7.79999
 21
-26.05
  0
LINE
  8
0
 10
-7.79999
 20
-7
 11
-7.79999
 21
-3.5
  0
LINE
  8
0
 10
-7.79999
 20
-3.5
 11
-7
 21
-3.5
  0
LINE
  8
0
 10
-7
 20
-3.5
 11
-7
 21
1.5
  0
LINE
  8
0
 10
-7
 20
1.5
 11
-7.79999
 21
1.5
  0
LINE
  8
0
 10
-7.79999
 20
1.5
 11
-7.79999
 21
5
  0
LINE
  8
0
 10
-7.79999
 20
5
 11
-7
 21
5
  0
LINE
  8
0
 10
-7
 20
5
 11
-7
 21
6
  0
LINE
  8
0
 10
-7
 20
6
 11
6.99998
 21
6
  0
LINE
  8
0
 10
6.99998
 20
6
 11
6.99998
 21
5
  0
LINE
  8
0
 10
6.99998
 20
5
 11
7.79999
 21
5
  0
LINE
  8
0
 10
7.79999
 20
5
 11
7.79999
 21
1.5
  0
LINE
  8
0
 10
7.79999
 20
1.5
 11
6.99998
 21
1.5
  0
LINE
  8
0
 10
6.99998
 20
1.5
 11
6.99998
 21
-3.5
  0
LINE
  8
0
 10
6.99998
 20
-3.5
 11
7.79999
 21
-3.5
  0
LINE
  8
0
 10
7.79999
 20
-3.5
 11
7.79999
 21
-7
  0
LINE
  8
0
 10
7.79999
 20
-7
 11
6.99998
 21
-7
  0
LINE
  8
0
 10
6.99998
 20
-7
 11
6.99998
 21
-8
  0
LINE
  8
0
 10
6.99998
 20
-8
 11
-7
 21
-8
  0
LINE
  8
0
 10
-7
 20
-8
 11
-7
 21
-7
  0
LINE
  8
0
 10
-7
 20
-7
 11
-7.79999
 21
-7
  0
LINE
  8
0
 10
4.96207
 20
-83.5637
 11
5.36435
 21
-80.0869
  0
LINE
  8
0
 10
5.36435
 20
-80.0869
 11
6.15903
 21
-80.1789
  0
LINE
  8
0
 10
6.15903
 20
-80.1789
 11
6.73372
 21
-75.212
  0
LINE
  8
0
 10
6.73372
 20
-75.212
 11
5.93903
 21
-75.1201
  0
LINE
  8
0
 10
5.93903
 20
-75.1201
 11
6.34131
 21
-71.6432
  0
LINE
  8
0
 10
6.34131
 20
-71.6432
 11
7.13599
 21
-71.7352
  0
LINE
  8
0
 10
7.13599
 20
-71.7352
 11
7.25093
 21
-70.7418
  0
LINE
  8
0
 10
7.25093
 20
-70.7418
 11
21.1581
 21
-72.3509
  0
LINE
  8
0
 10
21.1581
 20
-72.3509
 11
21.0432
 21
-73.3443
  0
LINE
  8
0
 10
21.0432
 20
-73.3443
 11
21.8379
 21
-73.4363
  0
LINE
  8
0
 10
21.8379
 20
-73.4363
 11
21.4356
 21
-76.9131
  0
LINE
  8
0
 10
21.4356
 20
-76.9131
 11
20.6409
 21
-76.8211
  0
LINE
  8
0
 10
20.6409
 20
-76.8211
 11
20.0663
 21
-81.788
  0
LINE
  8
0
 10
20.0663
 20
-81.788
 11
20.8609
 21
-81.8799
  0
LINE
  8
0
 10
20.8609
 20
-81.8799
 11
20.4587
 21
-85.3567
  0
LINE
  8
0
 10
20.4587
 20
-85.3567
 11
19.664
 21
-85.2648
  0
LINE
  8
0
 10
19.664
 20
-85.2648
 11
19.549
 21
-86.2582
  0
LINE
  8
0
 10
19.549
 20
-86.2582
 11
5.64182
 21
-84.649
  0
LINE
  8
0
 10
5.64182
 20
-84.649
 11
5.75674
 21
-83.6557
  0
LINE
  8
0
 10
5.75674
 20
-83.6557
 11
4.96207
 21
-83.5637
  0
LINE
  8
0
 10
11.25
 20
-63.15
 11
11.25
 21
-59.65
  0
LINE
  8
0
 10
11.25
 20
-59.65
 11
12.05
 21
-59.65
  0
LINE
  8
0
 10
12.05
 20
-59.65
 11
12.05
 21
-54.65
  0
LINE
  8
0
 10
12.05
 20
-54.65
 11
11.25
 21
-54.65
  0
LINE
  8
0
 10
11.25
 20
-54.65
 11
11.25
 21
-51.15
  0
LINE
  8
0
 10
11.25
 20
-51.15
 11
12.05
 21
-51.15
  0
LINE
  8
0
 10
12.05
 20
-51.15
 11
12.05
 21
-50.15
  0
LINE
  8
0
 10
12.05
 20
-50.15
 11
26.05
 21
-50.15
  0
LINE
  8
0
 10
26.05
 20
-50.15
 11
26.05
 21
-51.15
  0
LINE
  8
0
 10
26.05
 20
-51.15
 11
26.85
 21
-51.15
  0
LINE
  8
0
 10
26.85
 20
-51.15
 11
26.85
 21
-54.65
  0
LINE
  8
0
 10
26.85
 20
-54.65
 11
26.05
 21
-54.65
  0
LINE
  8
0
 10
26.05
 20
-54.65
 11
26.05
 21
-59.65
  0
LINE
  8
0
 10
26.05
 20
-59.65
 11
26.85
 21
-59.65
  0
LINE
  8
0
 10
26.85
 20
-59.65
 11
26.85
 21
-63.15
  0
LINE
  8
0
 10
26.85
 20
-63.15
 11
26.05
 21
-63.15
  0
LINE
  8
0
 10
26.05
 20
-63.15
 11
26.05
 21
-64.15
  0
LINE
  8
0
 10
26.05
 20
-64.15
 11
12.05
 21
-64.15
  0
LINE
  8
0
 10
12.05
 20
-64.15
 11
12.05
 21
-63.15
  0
LINE
  8
0
 10
12.05
 20
-63.15
 11
11.25
 21
-63.15
  0
LINE
  8
0
 10
11.25
 20
-44.1
 11
11.25
 21
-40.6
  0
LINE
  8
0
 10
11.25
 20
-40.6
 11
12.05
 21
-40.6
  0
LINE
  8
0
 10
12.05
 20
-40.6
 11
12.05
 21
-35.6
  0
LINE
  8
0
 10
12.05
 20
-35.6
 11
11.25
 21
-35.6
  0
LINE
  8
0
 10
11.25
 20
-35.6
 11
11.25
 21
-32.1
  0
LINE
  8
0
 10
11.25
 20
-32.1
 11
12.05
 21
-32.1
  0
LINE
  8
0
 10
12.05
 20
-32.1
 11
12.05
 21
-31.1
  0
LINE
  8
0
 10
12.05
 20
-31.1
 11
26.05
 21
-31.1
  0
LINE
  8
0
 10
26.05
 20
-31.1
 11
26.05
 21
-32.1
  0
LINE
  8
0
 10
26.05
 20
-32.1
 11
26.85
 21
-32.1
  0
LINE
  8
0
 10
26.85
 20
-32.1
 11
26.85
 21
-35.6
  0
LINE
  8
0
 10
26.85
 20
-35.6
 11
26.05
 21
-35.6
  0
LINE
  8
0
 10
26.05
 20
-35.6
 11
26.05
 21
-40.6
  0
LINE
  8
0
 10
26.05
 20
-40.6
 11
26.85
 21
-40.6
  0
LINE
  8
0
 10
26.85
 20
-40.6
 11
26.85
 21
-44.1
  0
LINE
  8
0
 10
26.85
 20
-44.1
 11
26.05
 21
-44.1
  0
LINE
  8
0
 10
26.05
 20
-44.1
 11
26.05
 21
-45.1
  0
LINE
  8
0
 10
26.05
 20
-45.1
 11
12.05
 21
-45.1
  0
LINE
  8
0
 10
12.05
 20
-45.1
 11
12.05
 21
-44.1
  0
LINE
  8
0
 10
12.05
 20
-44.1
 11
11.25
 21
-44.1
  0
LINE
  8
0
 10
11.25
 20
-25.05
 11
11.25
 21
-21.55
  0
LINE
  8
0
 10
11.25
 20
-21.55
 11
12.05
 21
-21.55
  0
LINE
  8
0
 10
12.05
 20
-21.55
 11
12.05
 21
-16.55
  0
LINE
  8
0
 10
12.05
 20
-16.55
 11
11.25
 21
-16.55
  0
LINE
  8
0
 10
11.25
 20
-16.55
 11
11.25
 21
-13.05
  0
LINE
  8
0
 10
11.25
 20
-13.05
 11
12.05
 21
-13.05
  0
LINE
  8
0
 10
12.05
 20
-13.05
 11
12.05
 21
-12.05
  0
LINE
  8
0
 10
12.05
 20
-12.05
 11
26.05
 21
-12.05
  0
LINE
  8
0
 10
26.05
 20
-12.05
 11
26.05
 21
-13.05
  0
LINE
  8
0
 10
26.05
 20
-13.05
 11
26.85
 21
-13.05
  0
LINE
  8
0
 10
26.85
 20
-13.05
 11
26.85
 21
-16.55
  0
LINE
  8
0
 10
26.85
 20
-16.55
 11
26.05
 21
-16.55
  0
LINE
  8
0
 10
26.05
 20
-16.55
 11
26.05
 21
-21.55
  0
LINE
  8
0
 10
26.05
 20
-21.55
 11
26.85
 21
-21.55
  0
LINE
  8
0
 10
26.85
 20
-21.55
 11
26.85
 21
-25.05
  0
LINE
  8
0
 10
26.85
 20
-25.05
 11
26.05
 21
-25.05
  0
LINE
  8
0
 10
26.05
 20
-25.05
 11
26.05
 21
-26.05
  0
LINE
  8
0
 10
26.05
 20
-26.05
 11
12.05
 21
-26.05
  0
LINE
  8
0
 10
12.05
 20
-26.05
 11
12.05
 21
-25.05
  0
LINE
  8
0
 10
12.05
 20
-25.05
 11
11.25
 21
-25.05
  0
LINE
  8
0
 10
11.25
 20
-6
 11
11.25
 21
-2.5
  0
LINE
  8
0
 10
11.25
 20
-2.5
 11
12.05
 21
-2.5
  0
LINE
  8
0
 10
12.05
 20
-2.5
 11
12.05
 21
2.5
  0
LINE
  8
0
 10
12.05
 20
2.5
 11
11.25
 21
2.5
  0
LINE
  8
0
 10
11.25
 20
2.5
 11
11.25
 21
6
  0
LINE
  8
0
 10
11.25
 20
6
 11
12.05
 21
6
  0
LINE
  8
0
 10
12.05
 20
6
 11
12.05
 21
7
  0
LINE
  8
0
 10
12.05
 20
7
 11
26.05
 21
7
  0
LINE
  8
0
 10
26.05
 20
7
 11
26.05
 21
6
  0
LINE
  8
0
 10
26.05
 20
6
 11
26.85
 21
6
  0
LINE
  8
0
 10
26.85
 20
6
 11
26.85
 21
2.5
  0
LINE
  8
0
 10
26.85
 20
2.5
 11
26.05
 21
2.5
  0
LINE
  8
0
 10
26.05
 20
2.5
 11
26.05
 21
-2.5
  0
LINE
  8
0
 10
26.05
 20
-2.5
 11
26.85
 21
-2.5
  0
LINE
  8
0
 10
26.85
 20
-2.5
 11
26.85
 21
-6
  0
LINE
  8
0
 10
26.85
 20
-6
 11
26.05
 21
-6
  0
LINE
  8
0
 10
26.05
 20
-6
 11
26.05
 21
-7
  0
LINE
  8
0
 10
26.05
 20
-7
 11
12.05
 21
-7
  0
LINE
  8
0
 10
12.05
 20
-7
 11
12.05
 21
-6
  0
LINE
  8
0
 10
12.05
 20
-6
 11
11.25
 21
-6
  0
LINE
  8
0
 10
30.3
 20
-58.15
 11
30.3
 21
-54.65
  0
LINE
  8
0
 10
30.3
 20
-54.65
 11
31.1
 21
-54.65
  0
LINE
  8
0
 10
31.1
 20
-54.65
 11
31.1
 21
-49.65
  0
LINE
  8
0
 10
31.1
 20
-49.65
 11
30.3
 21
-49.65
  0
LINE
  8
0
 10
30.3
 20
-49.65
 11
30.3
 21
-46.15
  0
LINE
  8
0
 10
30.3
 20
-46.15
 11
31.1
 21
-46.15
  0
LINE
  8
0
 10
31.1
 20
-46.15
 11
31.1
 21
-45.15
  0
LINE
  8
0
 10
31.1
 20
-45.15
 11
45.1
 21
-45.15
  0
LINE
  8
0
 10
45.1
 20
-45.15
 11
45.1
 21
-46.15
  0
LINE
  8
0
 10
45.1
 20
-46.15
 11
45.9
 21
-46.15
  0
LINE
  8
0
 10
45.9
 20
-46.15
 11
45.9
 21
-49.65
  0
LINE
  8
0
 10
45.9
 20
-49.65
 11
45.1
 21
-49.65
  0
LINE
  8
0
 10
45.1
 20
-49.65
 11
45.1
 21
-54.65
  0
LINE
  8
0
 10
45.1
 20
-54.65
 11
45.9
 21
-54.65
  0
LINE
  8
0
 10
45.9
 20
-54.65
 11
45.9
 21
-58.15
  0
LINE
  8
0
 10
45.9
 20
-58.15
 11
45.1
 21
-58.15
  0
LINE
  8
0
 10
45.1
 20
-58.15
 11
45.1
 21
-59.15
  0
LINE
  8
0
 10
45.1
 20
-59.15
 11
31.1
 21
-59.15
  0
LINE
  8
0
 10
31.1
 20
-59.15
 11
31.1
 21
-58.15
  0
LINE
  8
0
 10
31.1
 20
-58.15
 11
30.3
 21
-58.15
  0
LINE
  8
0
 10
30.3
 20
-39.1
 11
30.3
 21
-35.6
  0
LINE
  8
0
 10
30.3
 20
-35.6
 11
31.1
 21
-35.6
  0
LINE
  8
0
 10
31.1
 20
-35.6
 11
31.1
 21
-30.6
  0
LINE
  8
0
 10
31.1
 20
-30.6
 11
30.3
 21
-30.6
  0
LINE
  8
0
 10
30.3
 20
-30.6
 11
30.3
 21
-27.1
  0
LINE
  8
0
 10
30.3
 20
-27.1
 11
31.1
 21
-27.1
  0
LINE
  8
0
 10
31.1
 20
-27.1
 11
31.1
 21
-26.1
  0
LINE
  8
0
 10
31.1
 20
-26.1
 11
45.1
 21
-26.1
  0
LINE
  8
0
 10
45.1
 20
-26.1
 11
45.1
 21
-27.1
  0
LINE
  8
0
 10
45.1
 20
-27.1
 11
45.9
 21
-27.1
  0
LINE
  8
0
 10
45.9
 20
-27.1
 11
45.9
 21
-30.6
  0
LINE
  8
0
 10
45.9
 20
-30.6
 11
45.1
 21
-30.6
  0
LINE
  8
0
 10
45.1
 20
-30.6
 11
45.1
 21
-35.6
  0
LINE
  8
0
 10
45.1
 20
-35.6
 11
45.9
 21
-35.6
  0
LINE
  8
0
 10
45.9
 20
-35.6
 11
45.9
 21
-39.1
  0
LINE
  8
0
 10
45.9
 20
-39.1
 11
45.1
 21
-39.1
  0
LINE
  8
0
 10
45.1
 20
-39.1
 11
45.1
 21
-40.1
  0
LINE
  8
0
 10
45.1
 20
-40.1
 11
31.1
 21
-40.1
  0
LINE
  8
0
 10
31.1
 20
-40.1
 11
31.1
 21
-39.1
  0
LINE
  8
0
 10
31.1
 20
-39.1
 11
30.3
 21
-39.1
  0
LINE
  8
0
 10
30.3
 20
-20.05
 11
30.3
 21
-16.55
  0
LINE
  8
0
 10
30.3
 20
-16.55
 11
31.1
 21
-16.55
  0
LINE
  8
0
 10
31.1
 20
-16.55
 11
31.1
 21
-11.55
  0
LINE
  8
0
 10
31.1
 20
-11.55
 11
30.3
 21
-11.55
  0
LINE
  8
0
 10
30.3
 20
-11.55
 11
30.3
 21
-8.04999
  0
LINE
  8
0
 10
30.3
 20
-8.04999
 11
31.1
 21
-8.04999
  0
LINE
  8
0
 10
31.1
 20
-8.04999
 11
31.1
 21
-7.04999
  0
LINE
  8
0
 10
31.1
 20
-7.04999
 11
45.1
 21
-7.04999
  0
LINE
  8
0
 10
45.1
 20
-7.04999
 11
45.1
 21
-8.04999
  0
LINE
  8
0
 10
45.1
 20
-8.04999
 11
45.9
 21
-8.04999
  0
LINE
  8
0
 10
45.9
 20
-8.04999
 11
45.9
 21
-11.55
  0
LINE
  8
0
 10
45.9
 20
-11.55
 11
45.1
 21
-11.55
  0
LINE
  8
0
 10
45.1
 20
-11.55
 11
45.1
 21
-16.55
  0
LINE
  8
0
 10
45.1
 20
-16.55
 11
45.9
 21
-16.55
  0
LINE
  8
0
 10
45.9
 20
-16.55
 11
45.9
 21
-20.05
  0
LINE
  8
0
 10
45.9
 20
-20.05
 11
45.1
 21
-20.05
  0
LINE
  8
0
 10
45.1
 20
-20.05
 11
45.1
 21
-21.05
  0
LINE
  8
0
 10
45.1
 20
-21.05
 11
31.1
 21
-21.05
  0
LINE
  8
0
 10
31.1
 20
-21.05
 11
31.1
 21
-20.05
  0
LINE
  8
0
 10
31.1
 20
-20.05
 11
30.3
 21
-20.05
  0
LINE
  8
0
 10
30.3
 20
-1
 11
30.3
 21
2.5
  0
LINE
  8
0
 10
30.3
 20
2.5
 11
31.1
 21
2.5
  0
LINE
  8
0
 10
31.1
 20
2.5
 11
31.1
 21
7.5
  0
LINE
  8
0
 10
31.1
 20
7.5
 11
30.3
 21
7.5
  0
LINE
  8
0
 10
30.3
 20
7.5
 11
30.3
 21
11
  0
LINE
  8
0
 10
30.3
 20
11
 11
31.1
 21
11
  0
LINE
  8
0
 10
31.1
 20
11
 11
31.1
 21
12
  0
LINE
  8
0
 10
31.1
 20
12
 11
45.1
 21
12
  0
LINE
  8
0
 10
45.1
 20
12
 11
45.1
 21
11
  0
LINE
  8
0
 10
45.1
 20
11
 11
45.9
 21
11
  0
LINE
  8
0
 10
45.9
 20
11
 11
45.9
 21
7.5
  0
LINE
  8
0
 10
45.9
 20
7.5
 11
45.1
 21
7.5
  0
LINE
  8
0
 10
45.1
 20
7.5
 11
45.1
 21
2.5
  0
LINE
  8
0
 10
45.1
 20
2.5
 11
45.9
 21
2.5
  0
LINE
  8
0
 10
45.9
 20
2.5
 11
45.9
 21
-1
  0
LINE
  8
0
 10
45.9
 20
-1
 11
45.1
 21
-1
  0
LINE
  8
0
 10
45.1
 20
-1
 11
45.1
 21
-2
  0
LINE
  8
0
 10
45.1
 20
-2
 11
31.1
 21
-2
  0
LINE
  8
0
 10
31.1
 20
-2
 11
31.1
 21
-1
  0
LINE
  8
0
 10
31.1
 20
-1
 11
30.3
 21
-1
  0
LINE
  8
0
 10
49.35
 20
-62.15
 11
49.35
 21
-58.65
  0
LINE
  8
0
 10
49.35
 20
-58.65
 11
50.15
 21
-58.65
  0
LINE
  8
0
 10
50.15
 20
-58.65
 11
50.15
 21
-53.65
  0
LINE
  8
0
 10
50.15
 20
-53.65
 11
49.35
 21
-53.65
  0
LINE
  8
0
 10
49.35
 20
-53.65
 11
49.35
 21
-50.15
  0
LINE
  8
0
 10
49.35
 20
-50.15
 11
50.15
 21
-50.15
  0
LINE
  8
0
 10
50.15
 20
-50.15
 11
50.15
 21
-49.15
  0
LINE
  8
0
 10
50.15
 20
-49.15
 11
64.15
 21
-49.15
  0
LINE
  8
0
 10
64.15
 20
-49.15
 11
64.15
 21
-50.15
  0
LINE
  8
0
 10
64.15
 20
-50.15
 11
64.95
 21
-50.15
  0
LINE
  8
0
 10
64.95
 20
-50.15
 11
64.95
 21
-53.65
  0
LINE
  8
0
 10
64.95
 20
-53.65
 11
64.15
 21
-53.65
  0
LINE
  8
0
 10
64.15
 20
-53.65
 11
64.15
 21
-58.65
  0
LINE
  8
0
 10
64.15
 20
-58.65
 11
64.95
 21
-58.65
  0
LINE
  8
0
 10
64.95
 20
-58.65
 11
64.95
 21
-62.15
  0
LINE
  8
0
 10
64.95
 20
-62.15
 11
64.15
 21
-62.15
  0
LINE
  8
0
 10
64.15
 20
-62.15
 11
64.15
 21
-63.15
  0
LINE
  8
0
 10
64.15
 20
-63.15
 11
50.15
 21
-63.15
  0
LINE
  8
0
 10
50.15
 20
-63.15
 11
50.15
 21
-62.15
  0
LINE
  8
0
 10
50.15
 20
-62.15
 11
49.35
 21
-62.15
  0
LINE
  8
0
 10
49.35
 20
-43.1
 11
49.35
 21
-39.6
  0
LINE
  8
0
 10
49.35
 20
-39.6
 11
50.15
 21
-39.6
  0
LINE
  8
0
 10
50.15
 20
-39.6
 11
50.15
 21
-34.6
  0
LINE
  8
0
 10
50.15
 20
-34.6
 11
49.35
 21
-34.6
  0
LINE
  8
0
 10
49.35
 20
-34.6
 11
49.35
 21
-31.1
  0
LINE
  8
0
 10
49.35
 20
-31.1
 11
50.15
 21
-31.1
  0
LINE
  8
0
 10
50.15
 20
-31.1
 11
50.15
 21
-30.1
  0
LINE
  8
0
 10
50.15
 20
-30.1
 11
64.15
 21
-30.1
  0
LINE
  8
0
 10
64.15
 20
-30.1
 11
64.15
 21
-31.1
  0
LINE
  8
0
 10
64.15
 20
-31.1
 11
64.95
 21
-31.1
  0
LINE
  8
0
 10
64.95
 20
-31.1
 11
64.95
 21
-34.6
  0
LINE
  8
0
 10
64.95
 20
-34.6
 11
64.15
 21
-34.6
  0
LINE
  8
0
 10
64.15
 20
-34.6
 11
64.15
 21
-39.6
  0
LINE
  8
0
 10
64.15
 20
-39.6
 11
64.95
 21
-39.6
  0
LINE
  8
0
 10
64.95
 20
-39.6
 11
64.95
 21
-43.1
  0
LINE
  8
0
 10
64.95
 20
-43.1
 11
64.15
 21
-43.1
  0
LINE
  8
0
 10
64.15
 20
-43.1
 11
64.15
 21
-44.1
  0
LINE
  8
0
 10
64.15
 20
-44.1
 11
50.15
 21
-44.1
  0
LINE
  8
0
 10
50.15
 20
-44.1
 11
50.15
 21
-43.1
  0
LINE
  8
0
 10
50.15
 20
-43.1
 11
49.35
 21
-43.1
  0
LINE
  8
0
 10
49.35
 20
-24.05
 11
49.35
 21
-20.55
  0
LINE
  8
0
 10
49.35
 20
-20.55
 11
50.15
 21
-20.55
  0
LINE
  8
0
 10
50.15
 20
-20.55
 11
50.15
 21
-15.55
  0
LINE
  8
0
 10
50.15
 20
-15.55
 11
49.35
 21
-15.55
  0
LINE
  8
0
 10
49.35
 20
-15.55
 11
49.35
 21
-12.05
  0
LINE
  8
0
 10
49.35
 20
-12.05
 11
50.15
 21
-12.05
  0
LINE
  8
0
 10
50.15
 20
-12.05
 11
50.15
 21
-11.05
  0
LINE
  8
0
 10
50.15
 20
-11.05
 11
64.15
 21
-11.05
  0
LINE
  8
0
 10
64.15
 20
-11.05
 11
64.15
 21
-12.05
  0
LINE
  8
0
 10
64.15
 20
-12.05
 11
64.95
 21
-12.05
  0
LINE
  8
0
 10
64.95
 20
-12.05
 11
64.95
 21
-15.55
  0
LINE
  8
0
 10
64.95
 20
-15.55
 11
64.15
 21
-15.55
  0
LINE
  8
0
 10
64.15
 20
-15.55
 11
64.15
 21
-20.55
  0
LINE
  8
0
 10
64.15
 20
-20.55
 11
64.95
 21
-20.55
  0
LINE
  8
0
 10
64.95
 20
-20.55
 11
64.95
 21
-24.05
  0
LINE
  8
0
 10
64.95
 20
-24.05
 11
64.15
 21
-24.05
  0
LINE
  8
0
 10
64.15
 20
-24.05
 11
64.15
 21
-25.05
  0
LINE
  8
0
 10
64.15
 20
-25.05
 11
50.15
 21
-25.05
  0
LINE
  8
0
 10
50.15
 20
-25.05
 11
50.15
 21
-24.05
  0
LINE
  8
0
 10
50.15
 20
-24.05
 11
49.35
 21
-24.05
  0
LINE
  8
0
 10
49.35
 20
-5
 11
49.35
 21
-1.5
  0
LINE
  8
0
 10
49.35
 20
-1.5
 11
50.15
 21
-1.5
  0
LINE
  8
0
 10
50.15
 20
-1.5
 11
50.15
 21
3.5
  0
LINE
  8
0
 10
50.15
 20
3.5
 11
49.35
 21
3.5
  0
LINE
  8
0
 10
49.35
 20
3.5
 11
49.35
 21
7
  0
LINE
  8
0
 10
49.35
 20
7
 11
50.15
 21
7
  0
LINE
  8
0
 10
50.15
 20
7
 11
50.15
 21
8
  0
LINE
  8
0
 10
50.15
 20
8
 11
64.15
 21
8
  0
LINE
  8
0
 10
64.15
 20
8
 11
64.15
 21
7
  0
LINE
  8
0
 10
64.15
 20
7
 11
64.95
 21
7
  0
LINE
  8
0
 10
64.95
 20
7
 11
64.95
 21
3.5
  0
LINE
  8
0
 10
64.95
 20
3.5
 11
64.15
 21
3.5
  0
LINE
  8
0
 10
64.15
 20
3.5
 11
64.15
 21
-1.5
  0
LINE
  8
0
 10
64.15
 20
-1.5
 11
64.95
 21
-1.5
  0
LINE
  8
0
 10
64.95
 20
-1.5
 11
64.95
 21
-5
  0
LINE
  8
0
 10
64.95
 20
-5
 11
64.15
 21
-5
  0
LINE
  8
0
 10
64.15
 20
-5
 11
64.15
 21
-6
  0
LINE
  8
0
 10
64.15
 20
-6
 11
50.15
 21
-6
  0
LINE
  8
0
 10
50.15
 20
-6
 11
50.15
 21
-5
  0
LINE
  8
0
 10
50.15
 20
-5
 11
49.35
 21
-5
  0
LINE
  8
0
 10
68.4
 20
-67.15
 11
68.4
 21
-63.65
  0
LINE
  8
0
 10
68.4
 20
-63.65
 11
69.2
 21
-63.65
  0
LINE
  8
0
 10
69.2
 20
-63.65
 11
69.2
 21
-58.65
  0
LINE
  8
0
 10
69.2
 20
-58.65
 11
68.4
 21
-58.65
  0
LINE
  8
0
 10
68.4
 20
-58.65
 11
68.4
 21
-55.15
  0
LINE
  8
0
 10
68.4
 20
-55.15
 11
69.2
 21
-55.15
  0
LINE
  8
0
 10
69.2
 20
-55.15
 11
69.2
 21
-54.15
  0
LINE
  8
0
 10
69.2
 20
-54.15
 11
83.2
 21
-54.15
  0
LINE
  8
0
 10
83.2
 20
-54.15
 11
83.2
 21
-55.15
  0
LINE
  8
0
 10
83.2
 20
-55.15
 11
84
 21
-55.15
  0
LINE
  8
0
 10
84
 20
-55.15
 11
84
 21
-58.65
  0
LINE
  8
0
 10
84
 20
-58.65
 11
83.2
 21
-58.65
  0
LINE
  8
0
 10
83.2
 20
-58.65
 11
83.2
 21
-63.65
  0
LINE
  8
0
 10
83.2
 20
-63.65
 11
84
 21
-63.65
  0
LINE
  8
0
 10
84
 20
-63.65
 11
84
 21
-67.15
  0
LINE
  8
0
 10
84
 20
-67.15
 11
83.2
 21
-67.15
  0
LINE
  8
0
 10
83.2
 20
-67.15
 11
83.2
 21
-68.15
  0
LINE
  8
0
 10
83.2
 20
-68.15
 11
69.2
 21
-68.15
  0
LINE
  8
0
 10
69.2
 20
-68.15
 11
69.2
 21
-67.15
  0
LINE
  8
0
 10
69.2
 20
-67.15
 11
68.4
 21
-67.15
  0
LINE
  8
0
 10
68.4
 20
-48.1
 11
68.4
 21
-44.6
  0
LINE
  8
0
 10
68.4
 20
-44.6
 11
69.2
 21
-44.6
  0
LINE
  8
0
 10
69.2
 20
-44.6
 11
69.2
 21
-39.6
  0
LINE
  8
0
 10
69.2
 20
-39.6
 11
68.4
 21
-39.6
  0
LINE
  8
0
 10
68.4
 20
-39.6
 11
68.4
 21
-36.1
  0
LINE
  8
0
 10
68.4
 20
-36.1
 11
69.2
 21
-36.1
  0
LINE
  8
0
 10
69.2
 20
-36.1
 11
69.2
 21
-35.1
  0
LINE
  8
0
 10
69.2
 20
-35.1
 11
83.2
 21
-35.1
  0
LINE
  8
0
 10
83.2
 20
-35.1
 11
83.2
 21
-36.1
  0
LINE
  8
0
 10
83.2
 20
-36.1
 11
84
 21
-36.1
  0
LINE
  8
0
 10
84
 20
-36.1
 11
84
 21
-39.6
  0
LINE
  8
0
 10
84
 20
-39.6
 11
83.2
 21
-39.6
  0
LINE
  8
0
 10
83.2
 20
-39.6
 11
83.2
 21
-44.6
  0
LINE
  8
0
 10
83.2
 20
-44.6
 11
84
 21
-44.6
  0
LINE
  8
0
 10
84
 20
-44.6
 11
84
 21
-48.1
  0
LINE
  8
0
 10
84
 20
-48.1
 11
83.2
 21
-48.1
  0
LINE
  8
0
 10
83.2
 20
-48.1
 11
83.2
 21
-49.1
  0
LINE
  8
0
 10
83.2
 20
-49.1
 11
69.2
 21
-49.1
  0
LINE
  8
0
 10
69.2
 20
-49.1
 11
69.2
 21
-48.1
  0
LINE
  8
0
 10
69.2
 20
-48.1
 11
68.4
 21
-48.1
  0
LINE
  8
0
 10
68.4
 20
-29.05
 11
68.4
 21
-25.55
  0
LINE
  8
0
 10
68.4
 20
-25.55
 11
69.2
 21
-25.55
  0
LINE
  8
0
 10
69.2
 20
-25.55
 11
69.2
 21
-20.55
  0
LINE
  8
0
 10
69.2
 20
-20.55
 11
68.4
 21
-20.55
  0
LINE
  8
0
 10
68.4
 20
-20.55
 11
68.4
 21
-17.05
  0
LINE
  8
0
 10
68.4
 20
-17.05
 11
69.2
 21
-17.05
  0
LINE
  8
0
 10
69.2
 20
-17.05
 11
69.2
 21
-16.05
  0
LINE
  8
0
 10
69.2
 20
-16.05
 11
83.2
 21
-16.05
  0
LINE
  8
0
 10
83.2
 20
-16.05
 11
83.2
 21
-17.05
  0
LINE
  8
0
 10
83.2
 20
-17.05
 11
84
 21
-17.05
  0
LINE
  8
0
 10
84
 20
-17.05
 11
84
 21
-20.55
  0
LINE
  8
0
 10
84
 20
-20.55
 11
83.2
 21
-20.55
  0
LINE
  8
0
 10
83.2
 20
-20.55
 11
83.2
 21
-25.55
  0
LINE
  8
0
 10
83.2
 20
-25.55
 11
84
 21
-25.55
  0
LINE
  8
0
 10
84
 20
-25.55
 11
84
 21
-29.05
  0
LINE
  8
0
 10
84
 20
-29.05
 11
83.2
 21
-29.05
  0
LINE
  8
0
 10
83.2
 20
-29.05
 11
83.2
 21
-30.05
  0
LINE
  8
0
 10
83.2
 20
-30.05
 11
69.2
 21
-30.05
  0
LINE
  8
0
 10
69.2
 20
-30.05
 11
69.2
 21
-29.05
  0
LINE
  8
0
 10
69.2
 20
-29.05
 11
68.4
 21
-29.05
  0
LINE
  8
0
 10
68.4
 20
-10
 11
68.4
 21
-6.5
  0
LINE
  8
0
 10
68.4
 20
-6.5
 11
69.2
 21
-6.5
  0
LINE
  8
0
 10
69.2
 20
-6.5
 11
69.2
 21
-1.5
  0
LINE
  8
0
 10
69.2
 20
-1.5
 11
68.4
 21
-1.5
  0
LINE
  8
0
 10
68.4
 20
-1.5
 11
68.4
 21
2
  0
LINE
  8
0
 10
68.4
 20
2
 11
69.2
 21
2
  0
LINE
  8
0
 10
69.2
 20
2
 11
69.2
 21
3
  0
LINE
  8
0
 10
69.2
 20
3
 11
83.2
 21
3
  0
LINE
  8
0
 10
83.2
 20
3
 11
83.2
 21
2
  0
LINE
  8
0
 10
83.2
 20
2
 11
84
 21
2
  0
LINE
  8
0
 10
84
 20
2
 11
84
 21
-1.5
  0
LINE
  8
0
 10
84
 20
-1.5
 11
83.2
 21
-1.5
  0
LINE
  8
0
 10
83.2
 20
-1.5
 11
83.2
 21
-6.5
  0
LINE
  8
0
 10
83.2
 20
-6.5
 11
84
 21
-6.5
  0
LINE
  8
0
 10
84
 20
-6.5
 11
84
 21
-10
  0
LINE
  8
0
 10
84
 20
-10
 11
83.2
 21
-10
  0
LINE
  8
0
 10
83.2
 20
-10
 11
83.2
 21
-11
  0
LINE
  8
0
 10
83.2
 20
-11
 11
69.2
 21
-11
  0
LINE
  8
0
 10
69.2
 20
-11
 11
69.2
 21
-10
  0
LINE
  8
0
 10
69.2
 20
-10
 11
68.4
 21
-10
  0
LINE
  8
0
 10
87.45
 20
-68.15
 11
87.45
 21
-64.65
  0
LINE
  8
0
 10
87.45
 20
-64.65
 11
88.25
 21
-64.65
  0
LINE
  8
0
 10
88.25
 20
-64.65
 11
88.25
 21
-59.65
  0
LINE
  8
0
 10
88.25
 20
-59.65
 11
87.45
 21
-59.65
  0
LINE
  8
0
 10
87.45
 20
-59.65
 11
87.45
 21
-56.15
  0
LINE
  8
0
 10
87.45
 20
-56.15
 11
88.25
 21
-56.15
  0
LINE
  8
0
 10
88.25
 20
-56.15
 11
88.25
 21
-55.15
  0
LINE
  8
0
 10
88.25
 20
-55.15
 11
102.25
 21
-55.15
  0
LINE
  8
0
 10
102.25
 20
-55.15
 11
102.25
 21
-56.15
  0
LINE
  8
0
 10
102.25
 20
-56.15
 11
103.05
 21
-56.15
  0
LINE
  8
0
 10
103.05
 20
-56.15
 11
103.05
 21
-59.65
  0
LINE
  8
0
 10
103.05
 20
-59.65
 11
102.25
 21
-59.65
  0
LINE
  8
0
 10
102.25
 20
-59.65
 11
102.25
 21
-64.65
  0
LINE
  8
0
 10
102.25
 20
-64.65
 11
103.05
 21
-64.65
  0
LINE
  8
0
 10
103.05
 20
-64.65
 11
103.05
 21
-68.15
  0
LINE
  8
0
 10
103.05
 20
-68.15
 11
102.25
 21
-68.15
  0
LINE
  8
0
 10
102.25
 20
-68.15
 11
102.25
 21
-69.15
  0
LINE
  8
0
 10
102.25
 20
-69.15
 11
88.25
 21
-69.15
  0
LINE
  8
0
 10
88.25
 20
-69.15
 11
88.25
 21
-68.15
  0
LINE
  8
0
 10
88.25
 20
-68.15
 11
87.45
 21
-68.15
  0
LINE
  8
0
 10
87.45
 20
-49.1
 11
87.45
 21
-45.6
  0
LINE
  8
0
 10
87.45
 20
-45.6
 11
88.25
 21
-45.6
  0
LINE
  8
0
 10
88.25
 20
-45.6
 11
88.25
 21
-40.6
  0
LINE
  8
0
 10
88.25
 20
-40.6
 11
87.45
 21
-40.6
  0
LINE
  8
0
 10
87.45
 20
-40.6
 11
87.45
 21
-37.1
  0
LINE
  8
0
 10
87.45
 20
-37.1
 11
88.25
 21
-37.1
  0
LINE
  8
0
 10
88.25
 20
-37.1
 11
88.25
 21
-36.1
  0
LINE
  8
0
 10
88.25
 20
-36.1
 11
102.25
 21
-36.1
  0
LINE
  8
0
 10
102.25
 20
-36.1
 11
102.25
 21
-37.1
  0
LINE
  8
0
 10
102.25
 20
-37.1
 11
103.05
 21
-37.1
  0
LINE
  8
0
 10
103.05
 20
-37.1
 11
103.05
 21
-40.6
  0
LINE
  8
0
 10
103.05
 20
-40.6
 11
102.25
 21
-40.6
  0
LINE
  8
0
 10
102.25
 20
-40.6
 11
102.25
 21
-45.6
  0
LINE
  8
0
 10
102.25
 20
-45.6
 11
103.05
 21
-45.6
  0
LINE
  8
0
 10
103.05
 20
-45.6
 11
103.05
 21
-49.1
  0
LINE
  8
0
 10
103.05
 20
-49.1
 11
102.25
 21
-49.1
  0
LINE
  8
0
 10
102.25
 20
-49.1
 11
102.25
 21
-50.1
  0
LINE
  8
0
 10
102.25
 20
-50.1
 11
88.25
 21
-50.1
  0
LINE
  8
0
 10
88.25
 20
-50.1
 11
88.25
 21
-49.1
  0
LINE
  8
0
 10
88.25
 20
-49.1
 11
87.45
 21
-49.1
  0
LINE
  8
0
 10
87.45
 20
-30.05
 11
87.45
 21
-26.55
  0
LINE
  8
0
 10
87.45
 20
-26.55
 11
88.25
 21
-26.55
  0
LINE
  8
0
 10
88.25
 20
-26.55
 11
88.25
 21
-21.55
  0
LINE
  8
0
 10
88.25
 20
-21.55
 11
87.45
 21
-21.55
  0
LINE
  8
0
 10
87.45
 20
-21.55
 11
87.45
 21
-18.05
  0
LINE
  8
0
 10
87.45
 20
-18.05
 11
88.25
 21
-18.05
  0
LINE
  8
0
 10
88.25
 20
-18.05
 11
88.25
 21
-17.05
  0
LINE
  8
0
 10
88.25
 20
-17.05
 11
102.25
 21
-17.05
  0
LINE
  8
0
 10
102.25
 20
-17.05
 11
102.25
 21
-18.05
  0
LINE
  8
0
 10
102.25
 20
-18.05
 11
103.05
 21
-18.05
  0
LINE
  8
0
 10
103.05
 20
-18.05
 11
103.05
 21
-21.55
  0
LINE
  8
0
 10
103.05
 20
-21.55
 11
102.25
 21
-21.55
  0
LINE
  8
0
 10
102.25
 20
-21.55
 11
102.25
 21
-26.55
  0
LINE
  8
0
 10
102.25
 20
-26.55
 11
103.05
 21
-26.55
  0
LINE
  8
0
 10
103.05
 20
-26.55
 11
103.05
 21
-30.05
  0
LINE
  8
0
 10
103.05
 20
-30.05
 11
102.25
 21
-30.05
  0
LINE
  8
0
 10
102.25
 20
-30.05
 11
102.25
 21
-31.05
  0
LINE
  8
0
 10
102.25
 20
-31.05
 11
88.25
 21
-31.05
  0
LINE
  8
0
 10
88.25
 20
-31.05
 11
88.25
 21
-30.05
  0
LINE
  8
0
 10
88.25
 20
-30.05
 11
87.45
 21
-30.05
  0
LINE
  8
0
 10
87.45
 20
-11
 11
87.45
 21
-7.5
  0
LINE
  8
0
 10
87.45
 20
-7.5
 11
88.25
 21
-7.5
  0
LINE
  8
0
 10
88.25
 20
-7.5
 11
88.25
 21
-2.5
  0
LINE
  8
0
 10
88.25
 20
-2.5
 11
87.45
 21
-2.5
  0
LINE
  8
0
 10
87.45
 20
-2.5
 11
87.45
 21
1
  0
LINE
  8
0
 10
87.45
 20
1
 11
88.25
 21
1
  0
LINE
  8
0
 10
88.25
 20
1
 11
88.25
 21
2
  0
LINE
  8
0
 10
88.25
 20
2
 11
102.25
 21
2
  0
LINE
  8
0
 10
102.25
 20
2
 11
102.25
 21
1
  0
LINE
  8
0
 10
102.25
 20
1
 11
103.05
 21
1
  0
LINE
  8
0
 10
103.05
 20
1
 11
103.05
 21
-2.5
  0
LINE
  8
0
 10
103.05
 20
-2.5
 11
102.25
 21
-2.5
  0
LINE
  8
0
 10
102.25
 20
-2.5
 11
102.25
 21
-7.5
  0
LINE
  8
0
 10
102.25
 20
-7.5
 11
103.05
 21
-7.5
  0
LINE
  8
0
 10
103.05
 20
-7.5
 11
103.05
 21
-11
  0
LINE
  8
0
 10
103.05
 20
-11
 11
102.25
 21
-11
  0
LINE
  8
0
 10
102.25
 20
-11
 11
102.25
 21
-12
  0
LINE
  8
0
 10
102.25
 20
-12
 11
88.25
 21
-12
  0
LINE
  8
0
 10
88.25
 20
-12
 11
88.25
 21
-11
  0
LINE
  8
0
 10
88.25
 20
-11
 11
87.45
 21
-11
  0
ENDSEC
  0
SECTION
  2
OBJECTS
  0
DICTIONARY
  0
ENDSEC
  0
EOF
