  0
SECTION
  2
BLOCKS
  0
ENDSEC
  0
SECTION
  2
ENTITIES
  0
LINE
  8
0
 10
-43.0401
 20
-87.1133
 11
-43.0186
 21
-87.422
  0
LINE
  8
0
 10
-43.0186
 20
-87.422
 11
-42.9647
 21
-87.7276
  0
LINE
  8
0
 10
-42.9647
 20
-87.7276
 11
-42.8795
 21
-88.0247
  0
LINE
  8
0
 10
-42.8795
 20
-88.0247
 11
-42.642
 21
-88.6125
  0
LINE
  8
0
 10
-42.642
 20
-88.6125
 11
-42.448
 21
-89.0016
  0
LINE
  8
0
 10
-42.448
 20
-89.0016
 11
-34.07
 21
-104.758
  0
LINE
  8
0
 10
-34.07
 20
-104.758
 11
-33.8557
 21
-105.137
  0
LINE
  8
0
 10
-33.8557
 20
-105.137
 11
-33.5014
 21
-105.662
  0
LINE
  8
0
 10
-33.5014
 20
-105.662
 11
-33.3023
 21
-105.9
  0
LINE
  8
0
 10
-33.3023
 20
-105.9
 11
-33.0797
 21
-106.115
  0
LINE
  8
0
 10
-33.0797
 20
-106.115
 11
-32.8353
 21
-106.306
  0
LINE
  8
0
 10
-32.8353
 20
-106.306
 11
-32.5728
 21
-106.47
  0
LINE
  8
0
 10
-32.5728
 20
-106.47
 11
-32.2945
 21
-106.605
  0
LINE
  8
0
 10
-32.2945
 20
-106.605
 11
-32.0034
 21
-106.711
  0
LINE
  8
0
 10
-32.0034
 20
-106.711
 11
-31.7032
 21
-106.786
  0
LINE
  8
0
 10
-31.7032
 20
-106.786
 11
-31.396
 21
-106.829
  0
LINE
  8
0
 10
-31.396
 20
-106.829
 11
-31.0867
 21
-106.84
  0
LINE
  8
0
 10
-31.0867
 20
-106.84
 11
-30.778
 21
-106.819
  0
LINE
  8
0
 10
-30.778
 20
-106.819
 11
-30.4724
 21
-106.765
  0
LINE
  8
0
 10
-30.4724
 20
-106.765
 11
-30.1753
 21
-106.679
  0
LINE
  8
0
 10
-30.1753
 20
-106.679
 11
-29.5874
 21
-106.442
  0
LINE
  8
0
 10
-29.5874
 20
-106.442
 11
-29.1985
 21
-106.248
  0
LINE
  8
0
 10
-29.1985
 20
-106.248
 11
-22.8466
 21
-102.871
  0
LINE
  8
0
 10
-22.8466
 20
-102.871
 11
-20.9493
 21
-101.986
  0
LINE
  8
0
 10
-20.9493
 20
-101.986
 11
-18.9699
 21
-101.304
  0
LINE
  8
0
 10
-18.9699
 20
-101.304
 11
-16.9301
 21
-100.833
  0
LINE
  8
0
 10
-16.9301
 20
-100.833
 11
-14.8523
 21
-100.578
  0
LINE
  8
0
 10
-14.8523
 20
-100.578
 11
-12.7591
 21
-100.542
  0
LINE
  8
0
 10
-12.7591
 20
-100.542
 11
-10.6737
 21
-100.724
  0
LINE
  8
0
 10
-10.6737
 20
-100.724
 11
-8.6187
 21
-101.124
  0
LINE
  8
0
 10
-8.6187
 20
-101.124
 11
-6.61673
 21
-101.736
  0
LINE
  8
0
 10
-6.61673
 20
-101.736
 11
-4.68971
 21
-102.554
  0
LINE
  8
0
 10
-4.68971
 20
-102.554
 11
-3.40001
 21
-103.261
  0
LINE
  8
0
 10
-3.40001
 20
-103.261
 11
-3.39761
 21
-103.257
  0
LINE
  8
0
 10
-3.39761
 20
-103.257
 11
-3.30562
 21
-103.307
  0
LINE
  8
0
 10
-3.30562
 20
-103.307
 11
-3.30357
 21
-103.303
  0
LINE
  8
0
 10
-3.30357
 20
-103.303
 11
-3.1678
 21
-103.382
  0
LINE
  8
0
 10
-3.1678
 20
-103.382
 11
-2.83405
 21
-103.563
  0
LINE
  8
0
 10
-2.83405
 20
-103.563
 11
-2.53929
 21
-103.703
  0
LINE
  8
0
 10
-2.53929
 20
-103.703
 11
-2.2374
 21
-103.828
  0
LINE
  8
0
 10
-2.2374
 20
-103.828
 11
-1.92917
 21
-103.938
  0
LINE
  8
0
 10
-1.92917
 20
-103.938
 11
-1.61584
 21
-104.03
  0
LINE
  8
0
 10
-1.61584
 20
-104.03
 11
-1.29808
 21
-104.107
  0
LINE
  8
0
 10
-1.29808
 20
-104.107
 11
-0.976929
 21
-104.166
  0
LINE
  8
0
 10
-0.976929
 20
-104.166
 11
-0.652634
 21
-104.209
  0
LINE
  8
0
 10
-0.652634
 20
-104.209
 11
-0.326843
 21
-104.235
  0
LINE
  8
0
 10
-0.326843
 20
-104.235
 11
0
 21
-104.243
  0
LINE
  8
0
 10
0
 20
-104.243
 11
0.326843
 21
-104.235
  0
LINE
  8
0
 10
0.326843
 20
-104.235
 11
0.652634
 21
-104.209
  0
LINE
  8
0
 10
0.652634
 20
-104.209
 11
0.976929
 21
-104.166
  0
LINE
  8
0
 10
0.976929
 20
-104.166
 11
1.29808
 21
-104.107
  0
LINE
  8
0
 10
1.29808
 20
-104.107
 11
1.61584
 21
-104.03
  0
LINE
  8
0
 10
1.61584
 20
-104.03
 11
1.92917
 21
-103.938
  0
LINE
  8
0
 10
1.92917
 20
-103.938
 11
2.2374
 21
-103.828
  0
LINE
  8
0
 10
2.2374
 20
-103.828
 11
2.53929
 21
-103.703
  0
LINE
  8
0
 10
2.53929
 20
-103.703
 11
2.83405
 21
-103.563
  0
LINE
  8
0
 10
2.83405
 20
-103.563
 11
3.12144
 21
-103.407
  0
LINE
  8
0
 10
3.12144
 20
-103.407
 11
3.40042
 21
-103.236
  0
LINE
  8
0
 10
3.40042
 20
-103.236
 11
3.66956
 21
-103.051
  0
LINE
  8
0
 10
3.66956
 20
-103.051
 11
3.92889
 21
-102.852
  0
LINE
  8
0
 10
3.92889
 20
-102.852
 11
4.17737
 21
-102.64
  0
LINE
  8
0
 10
4.17737
 20
-102.64
 11
4.41457
 21
-102.415
  0
LINE
  8
0
 10
4.41457
 20
-102.415
 11
4.63965
 21
-102.177
  0
LINE
  8
0
 10
4.63965
 20
-102.177
 11
5.11559
 21
-101.62
  0
LINE
  8
0
 10
5.11559
 20
-101.62
 11
5.12897
 21
-101.632
  0
LINE
  8
0
 10
5.12897
 20
-101.632
 11
6.00693
 21
-100.604
  0
LINE
  8
0
 10
6.00693
 20
-100.604
 11
7.52545
 21
-99.1625
  0
LINE
  8
0
 10
7.52545
 20
-99.1625
 11
9.18628
 21
-97.8881
  0
LINE
  8
0
 10
9.18628
 20
-97.8881
 11
10.9712
 21
-96.7943
  0
LINE
  8
0
 10
10.9712
 20
-96.7943
 11
12.8607
 21
-95.893
  0
LINE
  8
0
 10
12.8607
 20
-95.893
 11
14.8341
 21
-95.1942
  0
LINE
  8
0
 10
14.8341
 20
-95.1942
 11
16.8697
 21
-94.7055
  0
LINE
  8
0
 10
16.8697
 20
-94.7055
 11
18.9452
 21
-94.4322
  0
LINE
  8
0
 10
18.9452
 20
-94.4322
 11
21.2125
 21
-94.3828
  0
LINE
  8
0
 10
21.2125
 20
-94.3828
 11
22.5301
 21
-94.4288
  0
LINE
  8
0
 10
22.5301
 20
-94.4288
 11
22.9652
 21
-94.4326
  0
LINE
  8
0
 10
22.9652
 20
-94.4326
 11
23.5977
 21
-94.3883
  0
LINE
  8
0
 10
23.5977
 20
-94.3883
 11
23.9018
 21
-94.3347
  0
LINE
  8
0
 10
23.9018
 20
-94.3347
 11
24.2004
 21
-94.2491
  0
LINE
  8
0
 10
24.2004
 20
-94.2491
 11
24.4871
 21
-94.1333
  0
LINE
  8
0
 10
24.4871
 20
-94.1333
 11
24.7606
 21
-93.9878
  0
LINE
  8
0
 10
24.7606
 20
-93.9878
 11
25.0175
 21
-93.8146
  0
LINE
  8
0
 10
25.0175
 20
-93.8146
 11
25.2545
 21
-93.6157
  0
LINE
  8
0
 10
25.2545
 20
-93.6157
 11
25.4698
 21
-93.3927
  0
LINE
  8
0
 10
25.4698
 20
-93.3927
 11
25.6606
 21
-93.1486
  0
LINE
  8
0
 10
25.6606
 20
-93.1486
 11
25.8246
 21
-92.886
  0
LINE
  8
0
 10
25.8246
 20
-92.886
 11
25.9603
 21
-92.6078
  0
LINE
  8
0
 10
25.9603
 20
-92.6078
 11
26.0663
 21
-92.3167
  0
LINE
  8
0
 10
26.0663
 20
-92.3167
 11
26.1412
 21
-92.0163
  0
LINE
  8
0
 10
26.1412
 20
-92.0163
 11
26.1674
 21
-91.8297
  0
LINE
  8
0
 10
26.1674
 20
-91.8297
 11
26.5669
 21
-89.7747
  0
LINE
  8
0
 10
26.5669
 20
-89.7747
 11
27.179
 21
-87.7728
  0
LINE
  8
0
 10
27.179
 20
-87.7728
 11
27.997
 21
-85.8458
  0
LINE
  8
0
 10
27.997
 20
-85.8458
 11
29.0119
 21
-84.0148
  0
LINE
  8
0
 10
29.0119
 20
-84.0148
 11
30.2127
 21
-82.3
  0
LINE
  8
0
 10
30.2127
 20
-82.3
 11
31.5861
 21
-80.7201
  0
LINE
  8
0
 10
31.5861
 20
-80.7201
 11
33.1172
 21
-79.2924
  0
LINE
  8
0
 10
33.1172
 20
-79.2924
 11
34.7891
 21
-78.0325
  0
LINE
  8
0
 10
34.7891
 20
-78.0325
 11
36.5836
 21
-76.9543
  0
LINE
  8
0
 10
36.5836
 20
-76.9543
 11
38.4809
 21
-76.0696
  0
LINE
  8
0
 10
38.4809
 20
-76.0696
 11
40.4603
 21
-75.3881
  0
LINE
  8
0
 10
40.4603
 20
-75.3881
 11
42.5
 21
-74.9172
  0
LINE
  8
0
 10
42.5
 20
-74.9172
 11
44.5779
 21
-74.6621
  0
LINE
  8
0
 10
44.5779
 20
-74.6621
 11
46.671
 21
-74.6256
  0
LINE
  8
0
 10
46.671
 20
-74.6256
 11
48.7565
 21
-74.8081
  0
LINE
  8
0
 10
48.7565
 20
-74.8081
 11
50.8114
 21
-75.2076
  0
LINE
  8
0
 10
50.8114
 20
-75.2076
 11
52.8134
 21
-75.8197
  0
LINE
  8
0
 10
52.8134
 20
-75.8197
 11
54.7404
 21
-76.6376
  0
LINE
  8
0
 10
54.7404
 20
-76.6376
 11
56.5714
 21
-77.6526
  0
LINE
  8
0
 10
56.5714
 20
-77.6526
 11
58.2862
 21
-78.8534
  0
LINE
  8
0
 10
58.2862
 20
-78.8534
 11
59.8661
 21
-80.2268
  0
LINE
  8
0
 10
59.8661
 20
-80.2268
 11
61.2938
 21
-81.7579
  0
LINE
  8
0
 10
61.2938
 20
-81.7579
 11
62.5536
 21
-83.4298
  0
LINE
  8
0
 10
62.5536
 20
-83.4298
 11
63.6318
 21
-85.2242
  0
LINE
  8
0
 10
63.6318
 20
-85.2242
 11
63.9124
 21
-85.7994
  0
LINE
  8
0
 10
63.9124
 20
-85.7994
 11
64.1936
 21
-86.2866
  0
LINE
  8
0
 10
64.1936
 20
-86.2866
 11
64.3756
 21
-86.537
  0
LINE
  8
0
 10
64.3756
 20
-86.537
 11
64.5828
 21
-86.7672
  0
LINE
  8
0
 10
64.5828
 20
-86.7672
 11
64.813
 21
-86.9744
  0
LINE
  8
0
 10
64.813
 20
-86.9744
 11
65.0634
 21
-87.1564
  0
LINE
  8
0
 10
65.0634
 20
-87.1564
 11
65.3319
 21
-87.3114
  0
LINE
  8
0
 10
65.3319
 20
-87.3114
 11
65.6145
 21
-87.4372
  0
LINE
  8
0
 10
65.6145
 20
-87.4372
 11
66.5844
 21
-87.7524
  0
LINE
  8
0
 10
66.5844
 20
-87.7524
 11
67.2356
 21
-87.9268
  0
LINE
  8
0
 10
67.2356
 20
-87.9268
 11
69.19
 21
-88.677
  0
LINE
  8
0
 10
69.19
 20
-88.677
 11
71.0553
 21
-89.6273
  0
LINE
  8
0
 10
71.0553
 20
-89.6273
 11
72.8111
 21
-90.7674
  0
LINE
  8
0
 10
72.8111
 20
-90.7674
 11
74.438
 21
-92.0848
  0
LINE
  8
0
 10
74.438
 20
-92.0848
 11
75.9184
 21
-93.565
  0
LINE
  8
0
 10
75.9184
 20
-93.565
 11
77.2359
 21
-95.1919
  0
LINE
  8
0
 10
77.2359
 20
-95.1919
 11
78.3761
 21
-96.9475
  0
LINE
  8
0
 10
78.3761
 20
-96.9475
 11
79.3266
 21
-98.8128
  0
LINE
  8
0
 10
79.3266
 20
-98.8128
 11
79.8539
 21
-100.134
  0
LINE
  8
0
 10
79.8539
 20
-100.134
 11
80.0216
 21
-100.539
  0
LINE
  8
0
 10
80.0216
 20
-100.539
 11
80.1622
 21
-100.834
  0
LINE
  8
0
 10
80.1622
 20
-100.834
 11
80.3182
 21
-101.121
  0
LINE
  8
0
 10
80.3182
 20
-101.121
 11
80.4895
 21
-101.401
  0
LINE
  8
0
 10
80.4895
 20
-101.401
 11
80.6741
 21
-101.67
  0
LINE
  8
0
 10
80.6741
 20
-101.67
 11
80.8731
 21
-101.929
  0
LINE
  8
0
 10
80.8731
 20
-101.929
 11
81.0853
 21
-102.177
  0
LINE
  8
0
 10
81.0853
 20
-102.177
 11
81.3104
 21
-102.415
  0
LINE
  8
0
 10
81.3104
 20
-102.415
 11
81.5476
 21
-102.64
  0
LINE
  8
0
 10
81.5476
 20
-102.64
 11
81.7961
 21
-102.852
  0
LINE
  8
0
 10
81.7961
 20
-102.852
 11
82.0554
 21
-103.051
  0
LINE
  8
0
 10
82.0554
 20
-103.051
 11
82.3248
 21
-103.236
  0
LINE
  8
0
 10
82.3248
 20
-103.236
 11
82.6034
 21
-103.407
  0
LINE
  8
0
 10
82.6034
 20
-103.407
 11
82.8906
 21
-103.563
  0
LINE
  8
0
 10
82.8906
 20
-103.563
 11
83.1856
 21
-103.703
  0
LINE
  8
0
 10
83.1856
 20
-103.703
 11
83.4879
 21
-103.829
  0
LINE
  8
0
 10
83.4879
 20
-103.829
 11
83.7957
 21
-103.938
  0
LINE
  8
0
 10
83.7957
 20
-103.938
 11
84.1091
 21
-104.03
  0
LINE
  8
0
 10
84.1091
 20
-104.03
 11
84.4267
 21
-104.107
  0
LINE
  8
0
 10
84.4267
 20
-104.107
 11
84.7484
 21
-104.166
  0
LINE
  8
0
 10
84.7484
 20
-104.166
 11
85.0723
 21
-104.209
  0
LINE
  8
0
 10
85.0723
 20
-104.209
 11
85.3981
 21
-104.235
  0
LINE
  8
0
 10
85.3981
 20
-104.235
 11
85.725
 21
-104.243
  0
LINE
  8
0
 10
85.725
 20
-104.243
 11
86.0519
 21
-104.235
  0
LINE
  8
0
 10
86.0519
 20
-104.235
 11
86.3777
 21
-104.209
  0
LINE
  8
0
 10
86.3777
 20
-104.209
 11
86.7016
 21
-104.166
  0
LINE
  8
0
 10
86.7016
 20
-104.166
 11
87.0231
 21
-104.107
  0
LINE
  8
0
 10
87.0231
 20
-104.107
 11
87.3409
 21
-104.03
  0
LINE
  8
0
 10
87.3409
 20
-104.03
 11
87.6542
 21
-103.938
  0
LINE
  8
0
 10
87.6542
 20
-103.938
 11
87.9623
 21
-103.828
  0
LINE
  8
0
 10
87.9623
 20
-103.828
 11
88.2643
 21
-103.703
  0
LINE
  8
0
 10
88.2643
 20
-103.703
 11
88.5596
 21
-103.563
  0
LINE
  8
0
 10
88.5596
 20
-103.563
 11
88.8465
 21
-103.407
  0
LINE
  8
0
 10
88.8465
 20
-103.407
 11
89.1249
 21
-103.236
  0
LINE
  8
0
 10
89.1249
 20
-103.236
 11
89.3947
 21
-103.051
  0
LINE
  8
0
 10
89.3947
 20
-103.051
 11
89.6542
 21
-102.852
  0
LINE
  8
0
 10
89.6542
 20
-102.852
 11
89.9023
 21
-102.64
  0
LINE
  8
0
 10
89.9023
 20
-102.64
 11
90.1397
 21
-102.414
  0
LINE
  8
0
 10
90.1397
 20
-102.414
 11
90.3645
 21
-102.178
  0
LINE
  8
0
 10
90.3645
 20
-102.178
 11
90.5765
 21
-101.929
  0
LINE
  8
0
 10
90.5765
 20
-101.929
 11
90.7758
 21
-101.67
  0
LINE
  8
0
 10
90.7758
 20
-101.67
 11
91.1484
 21
-101.128
  0
LINE
  8
0
 10
91.1484
 20
-101.128
 11
92.4228
 21
-99.4668
  0
LINE
  8
0
 10
92.4228
 20
-99.4668
 11
93.8639
 21
-97.9483
  0
LINE
  8
0
 10
93.8639
 20
-97.9483
 11
95.4557
 21
-96.5887
  0
LINE
  8
0
 10
95.4557
 20
-96.5887
 11
97.181
 21
-95.403
  0
LINE
  8
0
 10
97.181
 20
-95.403
 11
99.0208
 21
-94.4042
  0
LINE
  8
0
 10
99.0208
 20
-94.4042
 11
100.955
 21
-93.6031
  0
LINE
  8
0
 10
100.955
 20
-93.6031
 11
102.962
 21
-93.0086
  0
LINE
  8
0
 10
102.962
 20
-93.0086
 11
104.743
 21
-92.7026
  0
LINE
  8
0
 10
104.743
 20
-92.7026
 11
105.541
 21
-92.533
  0
LINE
  8
0
 10
105.541
 20
-92.533
 11
105.835
 21
-92.4372
  0
LINE
  8
0
 10
105.835
 20
-92.4372
 11
106.118
 21
-92.3114
  0
LINE
  8
0
 10
106.118
 20
-92.3114
 11
106.387
 21
-92.1564
  0
LINE
  8
0
 10
106.387
 20
-92.1564
 11
106.637
 21
-91.9744
  0
LINE
  8
0
 10
106.637
 20
-91.9744
 11
106.867
 21
-91.7672
  0
LINE
  8
0
 10
106.867
 20
-91.7672
 11
107.074
 21
-91.537
  0
LINE
  8
0
 10
107.074
 20
-91.537
 11
107.256
 21
-91.2866
  0
LINE
  8
0
 10
107.256
 20
-91.2866
 11
107.411
 21
-91.0181
  0
LINE
  8
0
 10
107.411
 20
-91.0181
 11
107.537
 21
-90.7354
  0
LINE
  8
0
 10
107.537
 20
-90.7354
 11
107.633
 21
-90.4407
  0
LINE
  8
0
 10
107.633
 20
-90.4407
 11
107.697
 21
-90.1378
  0
LINE
  8
0
 10
107.697
 20
-90.1378
 11
107.764
 21
-89.5078
  0
LINE
  8
0
 10
107.764
 20
-89.5078
 11
107.775
 21
-89.0729
  0
LINE
  8
0
 10
107.775
 20
-89.0729
 11
107.775
 21
-14.0771
  0
LINE
  8
0
 10
107.775
 20
-14.0771
 11
107.764
 21
-13.6422
  0
LINE
  8
0
 10
107.764
 20
-13.6422
 11
107.697
 21
-13.0122
  0
LINE
  8
0
 10
107.697
 20
-13.0122
 11
107.633
 21
-12.7093
  0
LINE
  8
0
 10
107.633
 20
-12.7093
 11
107.537
 21
-12.4146
  0
LINE
  8
0
 10
107.537
 20
-12.4146
 11
107.411
 21
-12.1319
  0
LINE
  8
0
 10
107.411
 20
-12.1319
 11
107.256
 21
-11.8634
  0
LINE
  8
0
 10
107.256
 20
-11.8634
 11
107.074
 21
-11.613
  0
LINE
  8
0
 10
107.074
 20
-11.613
 11
106.867
 21
-11.3828
  0
LINE
  8
0
 10
106.867
 20
-11.3828
 11
106.637
 21
-11.1756
  0
LINE
  8
0
 10
106.637
 20
-11.1756
 11
106.387
 21
-10.9936
  0
LINE
  8
0
 10
106.387
 20
-10.9936
 11
106.118
 21
-10.8386
  0
LINE
  8
0
 10
106.118
 20
-10.8386
 11
105.836
 21
-10.7128
  0
LINE
  8
0
 10
105.836
 20
-10.7128
 11
105.539
 21
-10.6163
  0
LINE
  8
0
 10
105.539
 20
-10.6163
 11
103.584
 21
-9.86604
  0
LINE
  8
0
 10
103.584
 20
-9.86604
 11
101.719
 21
-8.91562
  0
LINE
  8
0
 10
101.719
 20
-8.91562
 11
99.9632
 21
-7.77542
  0
LINE
  8
0
 10
99.9632
 20
-7.77542
 11
98.3363
 21
-6.45796
  0
LINE
  8
0
 10
98.3363
 20
-6.45796
 11
96.856
 21
-4.97766
  0
LINE
  8
0
 10
96.856
 20
-4.97766
 11
95.5386
 21
-3.35072
  0
LINE
  8
0
 10
95.5386
 20
-3.35072
 11
94.3985
 21
-1.59502
  0
LINE
  8
0
 10
94.3985
 20
-1.59502
 11
93.4481
 21
0.270264
  0
LINE
  8
0
 10
93.4481
 20
0.270264
 11
92.6979
 21
2.22467
  0
LINE
  8
0
 10
92.6979
 20
2.22467
 11
92.1561
 21
4.24678
  0
LINE
  8
0
 10
92.1561
 20
4.24678
 11
91.8287
 21
6.31445
  0
LINE
  8
0
 10
91.8287
 20
6.31445
 11
91.7191
 21
8.40503
  0
LINE
  8
0
 10
91.7191
 20
8.40503
 11
91.8902
 21
11.015
  0
LINE
  8
0
 10
91.8902
 20
11.015
 11
91.934
 21
11.3477
  0
LINE
  8
0
 10
91.934
 20
11.3477
 11
91.9596
 21
11.673
  0
LINE
  8
0
 10
91.9596
 20
11.673
 11
91.9681
 21
12
  0
LINE
  8
0
 10
91.9681
 20
12
 11
91.9596
 21
12.3271
  0
LINE
  8
0
 10
91.9596
 20
12.3271
 11
91.934
 21
12.6525
  0
LINE
  8
0
 10
91.934
 20
12.6525
 11
91.8913
 21
12.9762
  0
LINE
  8
0
 10
91.8913
 20
12.9762
 11
91.8317
 21
13.2982
  0
LINE
  8
0
 10
91.8317
 20
13.2982
 11
91.7554
 21
13.6158
  0
LINE
  8
0
 10
91.7554
 20
13.6158
 11
91.6626
 21
13.9292
  0
LINE
  8
0
 10
91.6626
 20
13.9292
 11
91.5534
 21
14.2374
  0
LINE
  8
0
 10
91.5534
 20
14.2374
 11
91.4284
 21
14.5393
  0
LINE
  8
0
 10
91.4284
 20
14.5393
 11
91.2878
 21
14.834
  0
LINE
  8
0
 10
91.2878
 20
14.834
 11
91.1318
 21
15.1214
  0
LINE
  8
0
 10
91.1318
 20
15.1214
 11
90.9609
 21
15.4003
  0
LINE
  8
0
 10
90.9609
 20
15.4003
 11
90.7758
 21
15.6696
  0
LINE
  8
0
 10
90.7758
 20
15.6696
 11
90.5765
 21
15.9293
  0
LINE
  8
0
 10
90.5765
 20
15.9293
 11
90.3645
 21
16.1775
  0
LINE
  8
0
 10
90.3645
 20
16.1775
 11
90.1397
 21
16.4144
  0
LINE
  8
0
 10
90.1397
 20
16.4144
 11
89.9023
 21
16.6397
  0
LINE
  8
0
 10
89.9023
 20
16.6397
 11
89.6542
 21
16.8516
  0
LINE
  8
0
 10
89.6542
 20
16.8516
 11
89.3947
 21
17.0507
  0
LINE
  8
0
 10
89.3947
 20
17.0507
 11
89.1249
 21
17.2362
  0
LINE
  8
0
 10
89.1249
 20
17.2362
 11
88.8465
 21
17.4068
  0
LINE
  8
0
 10
88.8465
 20
17.4068
 11
88.5596
 21
17.5625
  0
LINE
  8
0
 10
88.5596
 20
17.5625
 11
88.2643
 21
17.7034
  0
LINE
  8
0
 10
88.2643
 20
17.7034
 11
87.9623
 21
17.8285
  0
LINE
  8
0
 10
87.9623
 20
17.8285
 11
87.6542
 21
17.9376
  0
LINE
  8
0
 10
87.6542
 20
17.9376
 11
87.3409
 21
18.0304
  0
LINE
  8
0
 10
87.3409
 20
18.0304
 11
87.0231
 21
18.1067
  0
LINE
  8
0
 10
87.0231
 20
18.1067
 11
86.7016
 21
18.1663
  0
LINE
  8
0
 10
86.7016
 20
18.1663
 11
86.3777
 21
18.2089
  0
LINE
  8
0
 10
86.3777
 20
18.2089
 11
86.0519
 21
18.2346
  0
LINE
  8
0
 10
86.0519
 20
18.2346
 11
85.725
 21
18.2431
  0
LINE
  8
0
 10
85.725
 20
18.2431
 11
85.3981
 21
18.2346
  0
LINE
  8
0
 10
85.3981
 20
18.2346
 11
85.0723
 21
18.2089
  0
LINE
  8
0
 10
85.0723
 20
18.2089
 11
84.7484
 21
18.1663
  0
LINE
  8
0
 10
84.7484
 20
18.1663
 11
84.4267
 21
18.1067
  0
LINE
  8
0
 10
84.4267
 20
18.1067
 11
84.1091
 21
18.0304
  0
LINE
  8
0
 10
84.1091
 20
18.0304
 11
83.7957
 21
17.9376
  0
LINE
  8
0
 10
83.7957
 20
17.9376
 11
83.4879
 21
17.8286
  0
LINE
  8
0
 10
83.4879
 20
17.8286
 11
83.1369
 21
17.6832
  0
LINE
  8
0
 10
83.1369
 20
17.6832
 11
83.1207
 21
17.676
  0
LINE
  8
0
 10
83.1207
 20
17.676
 11
83.1042
 21
17.6696
  0
LINE
  8
0
 10
83.1042
 20
17.6696
 11
82.8953
 21
17.5831
  0
LINE
  8
0
 10
82.8953
 20
17.5831
 11
82.893
 21
17.5886
  0
LINE
  8
0
 10
82.893
 20
17.5886
 11
81.1663
 21
16.9258
  0
LINE
  8
0
 10
81.1663
 20
16.9258
 11
79.1441
 21
16.3841
  0
LINE
  8
0
 10
79.1441
 20
16.3841
 11
77.0765
 21
16.0567
  0
LINE
  8
0
 10
77.0765
 20
16.0567
 11
74.9859
 21
15.9472
  0
LINE
  8
0
 10
74.9859
 20
15.9472
 11
72.8953
 21
16.0569
  0
LINE
  8
0
 10
72.8953
 20
16.0569
 11
70.8277
 21
16.3845
  0
LINE
  8
0
 10
70.8277
 20
16.3845
 11
68.5947
 21
17.0459
  0
LINE
  8
0
 10
68.5947
 20
17.0459
 11
68.5836
 21
17.0116
  0
LINE
  8
0
 10
68.5836
 20
17.0116
 11
67.4407
 21
17.383
  0
LINE
  8
0
 10
67.4407
 20
17.383
 11
67.1378
 21
17.4474
  0
LINE
  8
0
 10
67.1378
 20
17.4474
 11
66.5078
 21
17.5136
  0
LINE
  8
0
 10
66.5078
 20
17.5136
 11
66.0729
 21
17.525
  0
LINE
  8
0
 10
66.0729
 20
17.525
 11
64.1072
 21
17.525
  0
LINE
  8
0
 10
64.1072
 20
17.525
 11
62.0166
 21
17.6346
  0
LINE
  8
0
 10
62.0166
 20
17.6346
 11
59.949
 21
17.962
  0
LINE
  8
0
 10
59.949
 20
17.962
 11
57.9269
 21
18.5039
  0
LINE
  8
0
 10
57.9269
 20
18.5039
 11
55.9725
 21
19.2541
  0
LINE
  8
0
 10
55.9725
 20
19.2541
 11
54.1072
 21
20.2045
  0
LINE
  8
0
 10
54.1072
 20
20.2045
 11
52.3515
 21
21.3447
  0
LINE
  8
0
 10
52.3515
 20
21.3447
 11
50.7246
 21
22.6621
  0
LINE
  8
0
 10
50.7246
 20
22.6621
 11
50.2424
 21
23.1443
  0
LINE
  8
0
 10
50.2424
 20
23.1443
 11
49.487
 21
23.8244
  0
LINE
  8
0
 10
49.487
 20
23.8244
 11
49.2366
 21
24.0064
  0
LINE
  8
0
 10
49.2366
 20
24.0064
 11
48.9681
 21
24.1614
  0
LINE
  8
0
 10
48.9681
 20
24.1614
 11
48.6854
 21
24.2872
  0
LINE
  8
0
 10
48.6854
 20
24.2872
 11
48.3907
 21
24.383
  0
LINE
  8
0
 10
48.3907
 20
24.383
 11
48.0878
 21
24.4474
  0
LINE
  8
0
 10
48.0878
 20
24.4474
 11
47.4578
 21
24.5136
  0
LINE
  8
0
 10
47.4578
 20
24.5136
 11
47.0229
 21
24.525
  0
LINE
  8
0
 10
47.0229
 20
24.525
 11
29.1771
 21
24.525
  0
LINE
  8
0
 10
29.1771
 20
24.525
 11
28.7422
 21
24.5136
  0
LINE
  8
0
 10
28.7422
 20
24.5136
 11
28.1122
 21
24.4474
  0
LINE
  8
0
 10
28.1122
 20
24.4474
 11
27.8093
 21
24.383
  0
LINE
  8
0
 10
27.8093
 20
24.383
 11
27.5146
 21
24.2872
  0
LINE
  8
0
 10
27.5146
 20
24.2872
 11
27.2319
 21
24.1614
  0
LINE
  8
0
 10
27.2319
 20
24.1614
 11
26.9634
 21
24.0064
  0
LINE
  8
0
 10
26.9634
 20
24.0064
 11
26.713
 21
23.8244
  0
LINE
  8
0
 10
26.713
 20
23.8244
 11
26.4828
 21
23.6172
  0
LINE
  8
0
 10
26.4828
 20
23.6172
 11
25.6788
 21
22.7243
  0
LINE
  8
0
 10
25.6788
 20
22.7243
 11
25.6656
 21
22.7362
  0
LINE
  8
0
 10
25.6656
 20
22.7362
 11
24.8422
 21
21.8218
  0
LINE
  8
0
 10
24.8422
 20
21.8218
 11
23.2865
 21
20.421
  0
LINE
  8
0
 10
23.2865
 20
20.421
 11
21.5928
 21
19.1905
  0
LINE
  8
0
 10
21.5928
 20
19.1905
 11
19.7798
 21
18.1438
  0
LINE
  8
0
 10
19.7798
 20
18.1438
 11
17.8674
 21
17.2924
  0
LINE
  8
0
 10
17.8674
 20
17.2924
 11
15.8764
 21
16.6455
  0
LINE
  8
0
 10
15.8764
 20
16.6455
 11
13.8287
 21
16.2103
  0
LINE
  8
0
 10
13.8287
 20
16.2103
 11
11.7467
 21
15.9915
  0
LINE
  8
0
 10
11.7467
 20
15.9915
 11
9.65329
 21
15.9915
  0
LINE
  8
0
 10
9.65329
 20
15.9915
 11
7.57132
 21
16.2104
  0
LINE
  8
0
 10
7.57132
 20
16.2104
 11
5.52364
 21
16.6457
  0
LINE
  8
0
 10
5.52364
 20
16.6457
 11
2.83578
 21
17.5975
  0
LINE
  8
0
 10
2.83578
 20
17.5975
 11
2.82982
 21
17.5831
  0
LINE
  8
0
 10
2.82982
 20
17.5831
 11
2.2374
 21
17.8284
  0
LINE
  8
0
 10
2.2374
 20
17.8284
 11
1.92917
 21
17.9376
  0
LINE
  8
0
 10
1.92917
 20
17.9376
 11
1.61584
 21
18.0304
  0
LINE
  8
0
 10
1.61584
 20
18.0304
 11
1.29808
 21
18.1067
  0
LINE
  8
0
 10
1.29808
 20
18.1067
 11
0.976929
 21
18.1662
  0
LINE
  8
0
 10
0.976929
 20
18.1662
 11
0.652634
 21
18.2089
  0
LINE
  8
0
 10
0.652634
 20
18.2089
 11
0.326843
 21
18.2346
  0
LINE
  8
0
 10
0.326843
 20
18.2346
 11
0
 21
18.2431
  0
LINE
  8
0
 10
0
 20
18.2431
 11
-0.326843
 21
18.2346
  0
LINE
  8
0
 10
-0.326843
 20
18.2346
 11
-0.652634
 21
18.2089
  0
LINE
  8
0
 10
-0.652634
 20
18.2089
 11
-0.976929
 21
18.1662
  0
LINE
  8
0
 10
-0.976929
 20
18.1662
 11
-1.29808
 21
18.1067
  0
LINE
  8
0
 10
-1.29808
 20
18.1067
 11
-1.61584
 21
18.0304
  0
LINE
  8
0
 10
-1.61584
 20
18.0304
 11
-1.92917
 21
17.9376
  0
LINE
  8
0
 10
-1.92917
 20
17.9376
 11
-2.2374
 21
17.8284
  0
LINE
  8
0
 10
-2.2374
 20
17.8284
 11
-2.53929
 21
17.7034
  0
LINE
  8
0
 10
-2.53929
 20
17.7034
 11
-2.83405
 21
17.5628
  0
LINE
  8
0
 10
-2.83405
 20
17.5628
 11
-3.12144
 21
17.4068
  0
LINE
  8
0
 10
-3.12144
 20
17.4068
 11
-3.40042
 21
17.2358
  0
LINE
  8
0
 10
-3.40042
 20
17.2358
 11
-3.66956
 21
17.0508
  0
LINE
  8
0
 10
-3.66956
 20
17.0508
 11
-3.92889
 21
16.8519
  0
LINE
  8
0
 10
-3.92889
 20
16.8519
 11
-4.17737
 21
16.6396
  0
LINE
  8
0
 10
-4.17737
 20
16.6396
 11
-4.41457
 21
16.4146
  0
LINE
  8
0
 10
-4.41457
 20
16.4146
 11
-4.63965
 21
16.1774
  0
LINE
  8
0
 10
-4.63965
 20
16.1774
 11
-4.85185
 21
15.9289
  0
LINE
  8
0
 10
-4.85185
 20
15.9289
 11
-5.05084
 21
15.6696
  0
LINE
  8
0
 10
-5.05084
 20
15.6696
 11
-5.23582
 21
15.4004
  0
LINE
  8
0
 10
-5.23582
 20
15.4004
 11
-5.40677
 21
15.1214
  0
LINE
  8
0
 10
-5.40677
 20
15.1214
 11
-5.56281
 21
14.834
  0
LINE
  8
0
 10
-5.56281
 20
14.834
 11
-5.72595
 21
14.492
  0
LINE
  8
0
 10
-5.72595
 20
14.492
 11
-5.78979
 21
14.3486
  0
LINE
  8
0
 10
-5.78979
 20
14.3486
 11
-5.79355
 21
14.3503
  0
LINE
  8
0
 10
-5.79355
 20
14.3503
 11
-5.83867
 21
14.2557
  0
LINE
  8
0
 10
-5.83867
 20
14.2557
 11
-5.84067
 21
14.2566
  0
LINE
  8
0
 10
-5.84067
 20
14.2566
 11
-6.58836
 21
12.689
  0
LINE
  8
0
 10
-6.58836
 20
12.689
 11
-7.68214
 21
10.904
  0
LINE
  8
0
 10
-7.68214
 20
10.904
 11
-8.95653
 21
9.24315
  0
LINE
  8
0
 10
-8.95653
 20
9.24315
 11
-10.7822
 21
7.36897
  0
LINE
  8
0
 10
-10.7822
 20
7.36897
 11
-11.6172
 21
6.61717
  0
LINE
  8
0
 10
-11.6172
 20
6.61717
 11
-11.8244
 21
6.38702
  0
LINE
  8
0
 10
-11.8244
 20
6.38702
 11
-12.0064
 21
6.13661
  0
LINE
  8
0
 10
-12.0064
 20
6.13661
 11
-12.1614
 21
5.86807
  0
LINE
  8
0
 10
-12.1614
 20
5.86807
 11
-12.2872
 21
5.58543
  0
LINE
  8
0
 10
-12.2872
 20
5.58543
 11
-12.383
 21
5.29071
  0
LINE
  8
0
 10
-12.383
 20
5.29071
 11
-12.4474
 21
4.98776
  0
LINE
  8
0
 10
-12.4474
 20
4.98776
 11
-12.5136
 21
4.35777
  0
LINE
  8
0
 10
-12.5136
 20
4.35777
 11
-12.525
 21
3.9229
  0
LINE
  8
0
 10
-12.525
 20
3.9229
 11
-12.525
 21
-57.1033
  0
LINE
  8
0
 10
-12.525
 20
-57.1033
 11
-12.6346
 21
-59.1939
  0
LINE
  8
0
 10
-12.6346
 20
-59.1939
 11
-12.962
 21
-61.2616
  0
LINE
  8
0
 10
-12.962
 20
-61.2616
 11
-13.5039
 21
-63.2837
  0
LINE
  8
0
 10
-13.5039
 20
-63.2837
 11
-14.2541
 21
-65.2381
  0
LINE
  8
0
 10
-14.2541
 20
-65.2381
 11
-15.2045
 21
-67.1033
  0
LINE
  8
0
 10
-15.2045
 20
-67.1033
 11
-16.3447
 21
-68.859
  0
LINE
  8
0
 10
-16.3447
 20
-68.859
 11
-17.6621
 21
-70.4859
  0
LINE
  8
0
 10
-17.6621
 20
-70.4859
 11
-19.1424
 21
-71.9662
  0
LINE
  8
0
 10
-19.1424
 20
-71.9662
 11
-20.7693
 21
-73.2837
  0
LINE
  8
0
 10
-20.7693
 20
-73.2837
 11
-22.525
 21
-74.4238
  0
LINE
  8
0
 10
-22.525
 20
-74.4238
 11
-24.3884
 21
-75.3327
  0
LINE
  8
0
 10
-24.3884
 20
-75.3327
 11
-24.3789
 21
-75.3532
  0
LINE
  8
0
 10
-24.3789
 20
-75.3532
 11
-24.7333
 21
-75.5185
  0
LINE
  8
0
 10
-24.7333
 20
-75.5185
 11
-25.2019
 21
-75.7521
  0
LINE
  8
0
 10
-25.2019
 20
-75.7521
 11
-40.9584
 21
-84.13
  0
LINE
  8
0
 10
-40.9584
 20
-84.13
 11
-41.3372
 21
-84.3443
  0
LINE
  8
0
 10
-41.3372
 20
-84.3443
 11
-41.8624
 21
-84.6986
  0
LINE
  8
0
 10
-41.8624
 20
-84.6986
 11
-42.0997
 21
-84.8977
  0
LINE
  8
0
 10
-42.0997
 20
-84.8977
 11
-42.3147
 21
-85.1203
  0
LINE
  8
0
 10
-42.3147
 20
-85.1203
 11
-42.5056
 21
-85.3647
  0
LINE
  8
0
 10
-42.5056
 20
-85.3647
 11
-42.6696
 21
-85.6272
  0
LINE
  8
0
 10
-42.6696
 20
-85.6272
 11
-42.8054
 21
-85.9055
  0
LINE
  8
0
 10
-42.8054
 20
-85.9055
 11
-42.9113
 21
-86.1966
  0
LINE
  8
0
 10
-42.9113
 20
-86.1966
 11
-42.9862
 21
-86.4968
  0
LINE
  8
0
 10
-42.9862
 20
-86.4968
 11
-43.0293
 21
-86.804
  0
LINE
  8
0
 10
-43.0293
 20
-86.804
 11
-43.0401
 21
-87.1133
  0
LINE
  8
0
 10
-36.9038
 20
-89.3642
 11
-36.1975
 21
-88.9886
  0
LINE
  8
0
 10
-36.1975
 20
-88.9886
 11
-36.6669
 21
-88.1057
  0
LINE
  8
0
 10
-36.6669
 20
-88.1057
 11
-24.3057
 21
-81.5331
  0
LINE
  8
0
 10
-24.3057
 20
-81.5331
 11
-23.8362
 21
-82.416
  0
LINE
  8
0
 10
-23.8362
 20
-82.416
 11
-23.1298
 21
-82.0404
  0
LINE
  8
0
 10
-23.1298
 20
-82.0404
 11
-21.4867
 21
-85.1308
  0
LINE
  8
0
 10
-21.4867
 20
-85.1308
 11
-22.1931
 21
-85.5063
  0
LINE
  8
0
 10
-22.1931
 20
-85.5063
 11
-19.8457
 21
-89.9211
  0
LINE
  8
0
 10
-19.8457
 20
-89.9211
 11
-19.1393
 21
-89.5455
  0
LINE
  8
0
 10
-19.1393
 20
-89.5455
 11
-17.4962
 21
-92.6358
  0
LINE
  8
0
 10
-17.4962
 20
-92.6358
 11
-18.2025
 21
-93.0114
  0
LINE
  8
0
 10
-18.2025
 20
-93.0114
 11
-17.7331
 21
-93.8943
  0
LINE
  8
0
 10
-17.7331
 20
-93.8943
 11
-30.0943
 21
-100.467
  0
LINE
  8
0
 10
-30.0943
 20
-100.467
 11
-30.5638
 21
-99.584
  0
LINE
  8
0
 10
-30.5638
 20
-99.584
 11
-31.2702
 21
-99.9595
  0
LINE
  8
0
 10
-31.2702
 20
-99.9595
 11
-32.9133
 21
-96.8692
  0
LINE
  8
0
 10
-32.9133
 20
-96.8692
 11
-32.207
 21
-96.4937
  0
LINE
  8
0
 10
-32.207
 20
-96.4937
 11
-34.5543
 21
-92.0789
  0
LINE
  8
0
 10
-34.5543
 20
-92.0789
 11
-35.2607
 21
-92.4545
  0
LINE
  8
0
 10
-35.2607
 20
-92.4545
 11
-36.9038
 21
-89.3642
  0
LINE
  8
0
 10
-15.7234
 20
-78.3456
 11
-14.9355
 21
-78.2067
  0
LINE
  8
0
 10
-14.9355
 20
-78.2067
 11
-15.1092
 21
-77.2219
  0
LINE
  8
0
 10
-15.1092
 20
-77.2219
 11
-1.32188
 21
-74.7908
  0
LINE
  8
0
 10
-1.32188
 20
-74.7908
 11
-1.14824
 21
-75.7756
  0
LINE
  8
0
 10
-1.14824
 20
-75.7756
 11
-0.360397
 21
-75.6367
  0
LINE
  8
0
 10
-0.360397
 20
-75.6367
 11
0.24736
 21
-79.0835
  0
LINE
  8
0
 10
0.24736
 20
-79.0835
 11
-0.540466
 21
-79.2224
  0
LINE
  8
0
 10
-0.540466
 20
-79.2224
 11
0.327759
 21
-84.1465
  0
LINE
  8
0
 10
0.327759
 20
-84.1465
 11
1.1156
 21
-84.0076
  0
LINE
  8
0
 10
1.1156
 20
-84.0076
 11
1.72337
 21
-87.4544
  0
LINE
  8
0
 10
1.72337
 20
-87.4544
 11
0.935516
 21
-87.5933
  0
LINE
  8
0
 10
0.935516
 20
-87.5933
 11
1.10918
 21
-88.5781
  0
LINE
  8
0
 10
1.10918
 20
-88.5781
 11
-12.6781
 21
-91.0092
  0
LINE
  8
0
 10
-12.6781
 20
-91.0092
 11
-12.8518
 21
-90.0244
  0
LINE
  8
0
 10
-12.8518
 20
-90.0244
 11
-13.6396
 21
-90.1633
  0
LINE
  8
0
 10
-13.6396
 20
-90.1633
 11
-14.2474
 21
-86.7165
  0
LINE
  8
0
 10
-14.2474
 20
-86.7165
 11
-13.4595
 21
-86.5775
  0
LINE
  8
0
 10
-13.4595
 20
-86.5775
 11
-14.3278
 21
-81.6535
  0
LINE
  8
0
 10
-14.3278
 20
-81.6535
 11
-15.1156
 21
-81.7924
  0
LINE
  8
0
 10
-15.1156
 20
-81.7924
 11
-15.7234
 21
-78.3456
  0
LINE
  8
0
 10
-7.79999
 20
-68.15
 11
-7.79999
 21
-64.65
  0
LINE
  8
0
 10
-7.79999
 20
-64.65
 11
-7
 21
-64.65
  0
LINE
  8
0
 10
-7
 20
-64.65
 11
-7
 21
-59.65
  0
LINE
  8
0
 10
-7
 20
-59.65
 11
-7.79999
 21
-59.65
  0
LINE
  8
0
 10
-7.79999
 20
-59.65
 11
-7.79999
 21
-56.15
  0
LINE
  8
0
 10
-7.79999
 20
-56.15
 11
-7
 21
-56.15
  0
LINE
  8
0
 10
-7
 20
-56.15
 11
-7
 21
-55.15
  0
LINE
  8
0
 10
-7
 20
-55.15
 11
6.99998
 21
-55.15
  0
LINE
  8
0
 10
6.99998
 20
-55.15
 11
6.99998
 21
-56.15
  0
LINE
  8
0
 10
6.99998
 20
-56.15
 11
7.79999
 21
-56.15
  0
LINE
  8
0
 10
7.79999
 20
-56.15
 11
7.79999
 21
-59.65
  0
LINE
  8
0
 10
7.79999
 20
-59.65
 11
6.99998
 21
-59.65
  0
LINE
  8
0
 10
6.99998
 20
-59.65
 11
6.99998
 21
-64.65
  0
LINE
  8
0
 10
6.99998
 20
-64.65
 11
7.79999
 21
-64.65
  0
LINE
  8
0
 10
7.79999
 20
-64.65
 11
7.79999
 21
-68.15
  0
LINE
  8
0
 10
7.79999
 20
-68.15
 11
6.99998
 21
-68.15
  0
LINE
  8
0
 10
6.99998
 20
-68.15
 11
6.99998
 21
-69.15
  0
LINE
  8
0
 10
6.99998
 20
-69.15
 11
-7
 21
-69.15
  0
LINE
  8
0
 10
-7
 20
-69.15
 11
-7
 21
-68.15
  0
LINE
  8
0
 10
-7
 20
-68.15
 11
-7.79999
 21
-68.15
  0
LINE
  8
0
 10
-7.79999
 20
-49.1
 11
-7.79999
 21
-45.6
  0
LINE
  8
0
 10
-7.79999
 20
-45.6
 11
-7
 21
-45.6
  0
LINE
  8
0
 10
-7
 20
-45.6
 11
-7
 21
-40.6
  0
LINE
  8
0
 10
-7
 20
-40.6
 11
-7.79999
 21
-40.6
  0
LINE
  8
0
 10
-7.79999
 20
-40.6
 11
-7.79999
 21
-37.1
  0
LINE
  8
0
 10
-7.79999
 20
-37.1
 11
-7
 21
-37.1
  0
LINE
  8
0
 10
-7
 20
-37.1
 11
-7
 21
-36.1
  0
LINE
  8
0
 10
-7
 20
-36.1
 11
6.99998
 21
-36.1
  0
LINE
  8
0
 10
6.99998
 20
-36.1
 11
6.99998
 21
-37.1
  0
LINE
  8
0
 10
6.99998
 20
-37.1
 11
7.79999
 21
-37.1
  0
LINE
  8
0
 10
7.79999
 20
-37.1
 11
7.79999
 21
-40.6
  0
LINE
  8
0
 10
7.79999
 20
-40.6
 11
6.99998
 21
-40.6
  0
LINE
  8
0
 10
6.99998
 20
-40.6
 11
6.99998
 21
-45.6
  0
LINE
  8
0
 10
6.99998
 20
-45.6
 11
7.79999
 21
-45.6
  0
LINE
  8
0
 10
7.79999
 20
-45.6
 11
7.79999
 21
-49.1
  0
LINE
  8
0
 10
7.79999
 20
-49.1
 11
6.99998
 21
-49.1
  0
LINE
  8
0
 10
6.99998
 20
-49.1
 11
6.99998
 21
-50.1
  0
LINE
  8
0
 10
6.99998
 20
-50.1
 11
-7
 21
-50.1
  0
LINE
  8
0
 10
-7
 20
-50.1
 11
-7
 21
-49.1
  0
LINE
  8
0
 10
-7
 20
-49.1
 11
-7.79999
 21
-49.1
  0
LINE
  8
0
 10
-7.79999
 20
-30.05
 11
-7.79999
 21
-26.55
  0
LINE
  8
0
 10
-7.79999
 20
-26.55
 11
-7
 21
-26.55
  0
LINE
  8
0
 10
-7
 20
-26.55
 11
-7
 21
-21.55
  0
LINE
  8
0
 10
-7
 20
-21.55
 11
-7.79999
 21
-21.55
  0
LINE
  8
0
 10
-7.79999
 20
-21.55
 11
-7.79999
 21
-18.05
  0
LINE
  8
0
 10
-7.79999
 20
-18.05
 11
-7
 21
-18.05
  0
LINE
  8
0
 10
-7
 20
-18.05
 11
-7
 21
-17.05
  0
LINE
  8
0
 10
-7
 20
-17.05
 11
6.99998
 21
-17.05
  0
LINE
  8
0
 10
6.99998
 20
-17.05
 11
6.99998
 21
-18.05
  0
LINE
  8
0
 10
6.99998
 20
-18.05
 11
7.79999
 21
-18.05
  0
LINE
  8
0
 10
7.79999
 20
-18.05
 11
7.79999
 21
-21.55
  0
LINE
  8
0
 10
7.79999
 20
-21.55
 11
6.99998
 21
-21.55
  0
LINE
  8
0
 10
6.99998
 20
-21.55
 11
6.99998
 21
-26.55
  0
LINE
  8
0
 10
6.99998
 20
-26.55
 11
7.79999
 21
-26.55
  0
LINE
  8
0
 10
7.79999
 20
-26.55
 11
7.79999
 21
-30.05
  0
LINE
  8
0
 10
7.79999
 20
-30.05
 11
6.99998
 21
-30.05
  0
LINE
  8
0
 10
6.99998
 20
-30.05
 11
6.99998
 21
-31.05
  0
LINE
  8
0
 10
6.99998
 20
-31.05
 11
-7
 21
-31.05
  0
LINE
  8
0
 10
-7
 20
-31.05
 11
-7
 21
-30.05
  0
LINE
  8
0
 10
-7
 20
-30.05
 11
-7.79999
 21
-30.05
  0
LINE
  8
0
 10
-7.79999
 20
-11
 11
-7.79999
 21
-7.5
  0
LINE
  8
0
 10
-7.79999
 20
-7.5
 11
-7
 21
-7.5
  0
LINE
  8
0
 10
-7
 20
-7.5
 11
-7
 21
-2.5
  0
LINE
  8
0
 10
-7
 20
-2.5
 11
-7.79999
 21
-2.5
  0
LINE
  8
0
 10
-7.79999
 20
-2.5
 11
-7.79999
 21
1
  0
LINE
  8
0
 10
-7.79999
 20
1
 11
-7
 21
1
  0
LINE
  8
0
 10
-7
 20
1
 11
-7
 21
2
  0
LINE
  8
0
 10
-7
 20
2
 11
6.99998
 21
2
  0
LINE
  8
0
 10
6.99998
 20
2
 11
6.99998
 21
1
  0
LINE
  8
0
 10
6.99998
 20
1
 11
7.79999
 21
1
  0
LINE
  8
0
 10
7.79999
 20
1
 11
7.79999
 21
-2.5
  0
LINE
  8
0
 10
7.79999
 20
-2.5
 11
6.99998
 21
-2.5
  0
LINE
  8
0
 10
6.99998
 20
-2.5
 11
6.99998
 21
-7.5
  0
LINE
  8
0
 10
6.99998
 20
-7.5
 11
7.79999
 21
-7.5
  0
LINE
  8
0
 10
7.79999
 20
-7.5
 11
7.79999
 21
-11
  0
LINE
  8
0
 10
7.79999
 20
-11
 11
6.99998
 21
-11
  0
LINE
  8
0
 10
6.99998
 20
-11
 11
6.99998
 21
-12
  0
LINE
  8
0
 10
6.99998
 20
-12
 11
-7
 21
-12
  0
LINE
  8
0
 10
-7
 20
-12
 11
-7
 21
-11
  0
LINE
  8
0
 10
-7
 20
-11
 11
-7.79999
 21
-11
  0
LINE
  8
0
 10
6.04535
 20
-87.3241
 11
6.1675
 21
-83.8262
  0
LINE
  8
0
 10
6.1675
 20
-83.8262
 11
6.967
 21
-83.8542
  0
LINE
  8
0
 10
6.967
 20
-83.8542
 11
7.14149
 21
-78.8572
  0
LINE
  8
0
 10
7.14149
 20
-78.8572
 11
6.342
 21
-78.8293
  0
LINE
  8
0
 10
6.342
 20
-78.8293
 11
6.46414
 21
-75.3314
  0
LINE
  8
0
 10
6.46414
 20
-75.3314
 11
7.26364
 21
-75.3593
  0
LINE
  8
0
 10
7.26364
 20
-75.3593
 11
7.29854
 21
-74.36
  0
LINE
  8
0
 10
7.29854
 20
-74.36
 11
21.29
 21
-74.8486
  0
LINE
  8
0
 10
21.29
 20
-74.8486
 11
21.2551
 21
-75.8479
  0
LINE
  8
0
 10
21.2551
 20
-75.8479
 11
22.0546
 21
-75.8759
  0
LINE
  8
0
 10
22.0546
 20
-75.8759
 11
21.9325
 21
-79.3737
  0
LINE
  8
0
 10
21.9325
 20
-79.3737
 11
21.133
 21
-79.3458
  0
LINE
  8
0
 10
21.133
 20
-79.3458
 11
20.9585
 21
-84.3428
  0
LINE
  8
0
 10
20.9585
 20
-84.3428
 11
21.758
 21
-84.3707
  0
LINE
  8
0
 10
21.758
 20
-84.3707
 11
21.6358
 21
-87.8685
  0
LINE
  8
0
 10
21.6358
 20
-87.8685
 11
20.8363
 21
-87.8406
  0
LINE
  8
0
 10
20.8363
 20
-87.8406
 11
20.8014
 21
-88.84
  0
LINE
  8
0
 10
20.8014
 20
-88.84
 11
6.80995
 21
-88.3514
  0
LINE
  8
0
 10
6.80995
 20
-88.3514
 11
6.84485
 21
-87.352
  0
LINE
  8
0
 10
6.84485
 20
-87.352
 11
6.04535
 21
-87.3241
  0
LINE
  8
0
 10
11.25
 20
-63.15
 11
11.25
 21
-59.65
  0
LINE
  8
0
 10
11.25
 20
-59.65
 11
12.05
 21
-59.65
  0
LINE
  8
0
 10
12.05
 20
-59.65
 11
12.05
 21
-54.65
  0
LINE
  8
0
 10
12.05
 20
-54.65
 11
11.25
 21
-54.65
  0
LINE
  8
0
 10
11.25
 20
-54.65
 11
11.25
 21
-51.15
  0
LINE
  8
0
 10
11.25
 20
-51.15
 11
12.05
 21
-51.15
  0
LINE
  8
0
 10
12.05
 20
-51.15
 11
12.05
 21
-50.15
  0
LINE
  8
0
 10
12.05
 20
-50.15
 11
26.05
 21
-50.15
  0
LINE
  8
0
 10
26.05
 20
-50.15
 11
26.05
 21
-51.15
  0
LINE
  8
0
 10
26.05
 20
-51.15
 11
26.85
 21
-51.15
  0
LINE
  8
0
 10
26.85
 20
-51.15
 11
26.85
 21
-54.65
  0
LINE
  8
0
 10
26.85
 20
-54.65
 11
26.05
 21
-54.65
  0
LINE
  8
0
 10
26.05
 20
-54.65
 11
26.05
 21
-59.65
  0
LINE
  8
0
 10
26.05
 20
-59.65
 11
26.85
 21
-59.65
  0
LINE
  8
0
 10
26.85
 20
-59.65
 11
26.85
 21
-63.15
  0
LINE
  8
0
 10
26.85
 20
-63.15
 11
26.05
 21
-63.15
  0
LINE
  8
0
 10
26.05
 20
-63.15
 11
26.05
 21
-64.15
  0
LINE
  8
0
 10
26.05
 20
-64.15
 11
12.05
 21
-64.15
  0
LINE
  8
0
 10
12.05
 20
-64.15
 11
12.05
 21
-63.15
  0
LINE
  8
0
 10
12.05
 20
-63.15
 11
11.25
 21
-63.15
  0
LINE
  8
0
 10
11.25
 20
-44.1
 11
11.25
 21
-40.6
  0
LINE
  8
0
 10
11.25
 20
-40.6
 11
12.05
 21
-40.6
  0
LINE
  8
0
 10
12.05
 20
-40.6
 11
12.05
 21
-35.6
  0
LINE
  8
0
 10
12.05
 20
-35.6
 11
11.25
 21
-35.6
  0
LINE
  8
0
 10
11.25
 20
-35.6
 11
11.25
 21
-32.1
  0
LINE
  8
0
 10
11.25
 20
-32.1
 11
12.05
 21
-32.1
  0
LINE
  8
0
 10
12.05
 20
-32.1
 11
12.05
 21
-31.1
  0
LINE
  8
0
 10
12.05
 20
-31.1
 11
26.05
 21
-31.1
  0
LINE
  8
0
 10
26.05
 20
-31.1
 11
26.05
 21
-32.1
  0
LINE
  8
0
 10
26.05
 20
-32.1
 11
26.85
 21
-32.1
  0
LINE
  8
0
 10
26.85
 20
-32.1
 11
26.85
 21
-35.6
  0
LINE
  8
0
 10
26.85
 20
-35.6
 11
26.05
 21
-35.6
  0
LINE
  8
0
 10
26.05
 20
-35.6
 11
26.05
 21
-40.6
  0
LINE
  8
0
 10
26.05
 20
-40.6
 11
26.85
 21
-40.6
  0
LINE
  8
0
 10
26.85
 20
-40.6
 11
26.85
 21
-44.1
  0
LINE
  8
0
 10
26.85
 20
-44.1
 11
26.05
 21
-44.1
  0
LINE
  8
0
 10
26.05
 20
-44.1
 11
26.05
 21
-45.1
  0
LINE
  8
0
 10
26.05
 20
-45.1
 11
12.05
 21
-45.1
  0
LINE
  8
0
 10
12.05
 20
-45.1
 11
12.05
 21
-44.1
  0
LINE
  8
0
 10
12.05
 20
-44.1
 11
11.25
 21
-44.1
  0
LINE
  8
0
 10
11.25
 20
-25.05
 11
11.25
 21
-21.55
  0
LINE
  8
0
 10
11.25
 20
-21.55
 11
12.05
 21
-21.55
  0
LINE
  8
0
 10
12.05
 20
-21.55
 11
12.05
 21
-16.55
  0
LINE
  8
0
 10
12.05
 20
-16.55
 11
11.25
 21
-16.55
  0
LINE
  8
0
 10
11.25
 20
-16.55
 11
11.25
 21
-13.05
  0
LINE
  8
0
 10
11.25
 20
-13.05
 11
12.05
 21
-13.05
  0
LINE
  8
0
 10
12.05
 20
-13.05
 11
12.05
 21
-12.05
  0
LINE
  8
0
 10
12.05
 20
-12.05
 11
26.05
 21
-12.05
  0
LINE
  8
0
 10
26.05
 20
-12.05
 11
26.05
 21
-13.05
  0
LINE
  8
0
 10
26.05
 20
-13.05
 11
26.85
 21
-13.05
  0
LINE
  8
0
 10
26.85
 20
-13.05
 11
26.85
 21
-16.55
  0
LINE
  8
0
 10
26.85
 20
-16.55
 11
26.05
 21
-16.55
  0
LINE
  8
0
 10
26.05
 20
-16.55
 11
26.05
 21
-21.55
  0
LINE
  8
0
 10
26.05
 20
-21.55
 11
26.85
 21
-21.55
  0
LINE
  8
0
 10
26.85
 20
-21.55
 11
26.85
 21
-25.05
  0
LINE
  8
0
 10
26.85
 20
-25.05
 11
26.05
 21
-25.05
  0
LINE
  8
0
 10
26.05
 20
-25.05
 11
26.05
 21
-26.05
  0
LINE
  8
0
 10
26.05
 20
-26.05
 11
12.05
 21
-26.05
  0
LINE
  8
0
 10
12.05
 20
-26.05
 11
12.05
 21
-25.05
  0
LINE
  8
0
 10
12.05
 20
-25.05
 11
11.25
 21
-25.05
  0
LINE
  8
0
 10
11.25
 20
-6
 11
11.25
 21
-2.5
  0
LINE
  8
0
 10
11.25
 20
-2.5
 11
12.05
 21
-2.5
  0
LINE
  8
0
 10
12.05
 20
-2.5
 11
12.05
 21
2.5
  0
LINE
  8
0
 10
12.05
 20
2.5
 11
11.25
 21
2.5
  0
LINE
  8
0
 10
11.25
 20
2.5
 11
11.25
 21
6
  0
LINE
  8
0
 10
11.25
 20
6
 11
12.05
 21
6
  0
LINE
  8
0
 10
12.05
 20
6
 11
12.05
 21
7
  0
LINE
  8
0
 10
12.05
 20
7
 11
26.05
 21
7
  0
LINE
  8
0
 10
26.05
 20
7
 11
26.05
 21
6
  0
LINE
  8
0
 10
26.05
 20
6
 11
26.85
 21
6
  0
LINE
  8
0
 10
26.85
 20
6
 11
26.85
 21
2.5
  0
LINE
  8
0
 10
26.85
 20
2.5
 11
26.05
 21
2.5
  0
LINE
  8
0
 10
26.05
 20
2.5
 11
26.05
 21
-2.5
  0
LINE
  8
0
 10
26.05
 20
-2.5
 11
26.85
 21
-2.5
  0
LINE
  8
0
 10
26.85
 20
-2.5
 11
26.85
 21
-6
  0
LINE
  8
0
 10
26.85
 20
-6
 11
26.05
 21
-6
  0
LINE
  8
0
 10
26.05
 20
-6
 11
26.05
 21
-7
  0
LINE
  8
0
 10
26.05
 20
-7
 11
12.05
 21
-7
  0
LINE
  8
0
 10
12.05
 20
-7
 11
12.05
 21
-6
  0
LINE
  8
0
 10
12.05
 20
-6
 11
11.25
 21
-6
  0
LINE
  8
0
 10
30.3
 20
-51.15
 11
30.3
 21
-47.65
  0
LINE
  8
0
 10
30.3
 20
-47.65
 11
31.1
 21
-47.65
  0
LINE
  8
0
 10
31.1
 20
-47.65
 11
31.1
 21
-42.65
  0
LINE
  8
0
 10
31.1
 20
-42.65
 11
30.3
 21
-42.65
  0
LINE
  8
0
 10
30.3
 20
-42.65
 11
30.3
 21
-39.15
  0
LINE
  8
0
 10
30.3
 20
-39.15
 11
31.1
 21
-39.15
  0
LINE
  8
0
 10
31.1
 20
-39.15
 11
31.1
 21
-38.15
  0
LINE
  8
0
 10
31.1
 20
-38.15
 11
45.1
 21
-38.15
  0
LINE
  8
0
 10
45.1
 20
-38.15
 11
45.1
 21
-39.15
  0
LINE
  8
0
 10
45.1
 20
-39.15
 11
45.9
 21
-39.15
  0
LINE
  8
0
 10
45.9
 20
-39.15
 11
45.9
 21
-42.65
  0
LINE
  8
0
 10
45.9
 20
-42.65
 11
45.1
 21
-42.65
  0
LINE
  8
0
 10
45.1
 20
-42.65
 11
45.1
 21
-47.65
  0
LINE
  8
0
 10
45.1
 20
-47.65
 11
45.9
 21
-47.65
  0
LINE
  8
0
 10
45.9
 20
-47.65
 11
45.9
 21
-51.15
  0
LINE
  8
0
 10
45.9
 20
-51.15
 11
45.1
 21
-51.15
  0
LINE
  8
0
 10
45.1
 20
-51.15
 11
45.1
 21
-52.15
  0
LINE
  8
0
 10
45.1
 20
-52.15
 11
31.1
 21
-52.15
  0
LINE
  8
0
 10
31.1
 20
-52.15
 11
31.1
 21
-51.15
  0
LINE
  8
0
 10
31.1
 20
-51.15
 11
30.3
 21
-51.15
  0
LINE
  8
0
 10
30.3
 20
-32.1
 11
30.3
 21
-28.6
  0
LINE
  8
0
 10
30.3
 20
-28.6
 11
31.1
 21
-28.6
  0
LINE
  8
0
 10
31.1
 20
-28.6
 11
31.1
 21
-23.6
  0
LINE
  8
0
 10
31.1
 20
-23.6
 11
30.3
 21
-23.6
  0
LINE
  8
0
 10
30.3
 20
-23.6
 11
30.3
 21
-20.1
  0
LINE
  8
0
 10
30.3
 20
-20.1
 11
31.1
 21
-20.1
  0
LINE
  8
0
 10
31.1
 20
-20.1
 11
31.1
 21
-19.1
  0
LINE
  8
0
 10
31.1
 20
-19.1
 11
45.1
 21
-19.1
  0
LINE
  8
0
 10
45.1
 20
-19.1
 11
45.1
 21
-20.1
  0
LINE
  8
0
 10
45.1
 20
-20.1
 11
45.9
 21
-20.1
  0
LINE
  8
0
 10
45.9
 20
-20.1
 11
45.9
 21
-23.6
  0
LINE
  8
0
 10
45.9
 20
-23.6
 11
45.1
 21
-23.6
  0
LINE
  8
0
 10
45.1
 20
-23.6
 11
45.1
 21
-28.6
  0
LINE
  8
0
 10
45.1
 20
-28.6
 11
45.9
 21
-28.6
  0
LINE
  8
0
 10
45.9
 20
-28.6
 11
45.9
 21
-32.1
  0
LINE
  8
0
 10
45.9
 20
-32.1
 11
45.1
 21
-32.1
  0
LINE
  8
0
 10
45.1
 20
-32.1
 11
45.1
 21
-33.1
  0
LINE
  8
0
 10
45.1
 20
-33.1
 11
31.1
 21
-33.1
  0
LINE
  8
0
 10
31.1
 20
-33.1
 11
31.1
 21
-32.1
  0
LINE
  8
0
 10
31.1
 20
-32.1
 11
30.3
 21
-32.1
  0
LINE
  8
0
 10
30.3
 20
-13.05
 11
30.3
 21
-9.54999
  0
LINE
  8
0
 10
30.3
 20
-9.54999
 11
31.1
 21
-9.54999
  0
LINE
  8
0
 10
31.1
 20
-9.54999
 11
31.1
 21
-4.54999
  0
LINE
  8
0
 10
31.1
 20
-4.54999
 11
30.3
 21
-4.54999
  0
LINE
  8
0
 10
30.3
 20
-4.54999
 11
30.3
 21
-1.04999
  0
LINE
  8
0
 10
30.3
 20
-1.04999
 11
31.1
 21
-1.04999
  0
LINE
  8
0
 10
31.1
 20
-1.04999
 11
31.1
 21
-0.0499878
  0
LINE
  8
0
 10
31.1
 20
-0.0499878
 11
45.1
 21
-0.0499878
  0
LINE
  8
0
 10
45.1
 20
-0.0499878
 11
45.1
 21
-1.04999
  0
LINE
  8
0
 10
45.1
 20
-1.04999
 11
45.9
 21
-1.04999
  0
LINE
  8
0
 10
45.9
 20
-1.04999
 11
45.9
 21
-4.54999
  0
LINE
  8
0
 10
45.9
 20
-4.54999
 11
45.1
 21
-4.54999
  0
LINE
  8
0
 10
45.1
 20
-4.54999
 11
45.1
 21
-9.54999
  0
LINE
  8
0
 10
45.1
 20
-9.54999
 11
45.9
 21
-9.54999
  0
LINE
  8
0
 10
45.9
 20
-9.54999
 11
45.9
 21
-13.05
  0
LINE
  8
0
 10
45.9
 20
-13.05
 11
45.1
 21
-13.05
  0
LINE
  8
0
 10
45.1
 20
-13.05
 11
45.1
 21
-14.05
  0
LINE
  8
0
 10
45.1
 20
-14.05
 11
31.1
 21
-14.05
  0
LINE
  8
0
 10
31.1
 20
-14.05
 11
31.1
 21
-13.05
  0
LINE
  8
0
 10
31.1
 20
-13.05
 11
30.3
 21
-13.05
  0
LINE
  8
0
 10
30.3
 20
6
 11
30.3
 21
9.5
  0
LINE
  8
0
 10
30.3
 20
9.5
 11
31.1
 21
9.5
  0
LINE
  8
0
 10
31.1
 20
9.5
 11
31.1
 21
14.5
  0
LINE
  8
0
 10
31.1
 20
14.5
 11
30.3
 21
14.5
  0
LINE
  8
0
 10
30.3
 20
14.5
 11
30.3
 21
18
  0
LINE
  8
0
 10
30.3
 20
18
 11
31.1
 21
18
  0
LINE
  8
0
 10
31.1
 20
18
 11
31.1
 21
19
  0
LINE
  8
0
 10
31.1
 20
19
 11
45.1
 21
19
  0
LINE
  8
0
 10
45.1
 20
19
 11
45.1
 21
18
  0
LINE
  8
0
 10
45.1
 20
18
 11
45.9
 21
18
  0
LINE
  8
0
 10
45.9
 20
18
 11
45.9
 21
14.5
  0
LINE
  8
0
 10
45.9
 20
14.5
 11
45.1
 21
14.5
  0
LINE
  8
0
 10
45.1
 20
14.5
 11
45.1
 21
9.5
  0
LINE
  8
0
 10
45.1
 20
9.5
 11
45.9
 21
9.5
  0
LINE
  8
0
 10
45.9
 20
9.5
 11
45.9
 21
6
  0
LINE
  8
0
 10
45.9
 20
6
 11
45.1
 21
6
  0
LINE
  8
0
 10
45.1
 20
6
 11
45.1
 21
5
  0
LINE
  8
0
 10
45.1
 20
5
 11
31.1
 21
5
  0
LINE
  8
0
 10
31.1
 20
5
 11
31.1
 21
6
  0
LINE
  8
0
 10
31.1
 20
6
 11
30.3
 21
6
  0
LINE
  8
0
 10
49.35
 20
-58.15
 11
49.35
 21
-54.65
  0
LINE
  8
0
 10
49.35
 20
-54.65
 11
50.15
 21
-54.65
  0
LINE
  8
0
 10
50.15
 20
-54.65
 11
50.15
 21
-49.65
  0
LINE
  8
0
 10
50.15
 20
-49.65
 11
49.35
 21
-49.65
  0
LINE
  8
0
 10
49.35
 20
-49.65
 11
49.35
 21
-46.15
  0
LINE
  8
0
 10
49.35
 20
-46.15
 11
50.15
 21
-46.15
  0
LINE
  8
0
 10
50.15
 20
-46.15
 11
50.15
 21
-45.15
  0
LINE
  8
0
 10
50.15
 20
-45.15
 11
64.15
 21
-45.15
  0
LINE
  8
0
 10
64.15
 20
-45.15
 11
64.15
 21
-46.15
  0
LINE
  8
0
 10
64.15
 20
-46.15
 11
64.95
 21
-46.15
  0
LINE
  8
0
 10
64.95
 20
-46.15
 11
64.95
 21
-49.65
  0
LINE
  8
0
 10
64.95
 20
-49.65
 11
64.15
 21
-49.65
  0
LINE
  8
0
 10
64.15
 20
-49.65
 11
64.15
 21
-54.65
  0
LINE
  8
0
 10
64.15
 20
-54.65
 11
64.95
 21
-54.65
  0
LINE
  8
0
 10
64.95
 20
-54.65
 11
64.95
 21
-58.15
  0
LINE
  8
0
 10
64.95
 20
-58.15
 11
64.15
 21
-58.15
  0
LINE
  8
0
 10
64.15
 20
-58.15
 11
64.15
 21
-59.15
  0
LINE
  8
0
 10
64.15
 20
-59.15
 11
50.15
 21
-59.15
  0
LINE
  8
0
 10
50.15
 20
-59.15
 11
50.15
 21
-58.15
  0
LINE
  8
0
 10
50.15
 20
-58.15
 11
49.35
 21
-58.15
  0
LINE
  8
0
 10
49.35
 20
-39.1
 11
49.35
 21
-35.6
  0
LINE
  8
0
 10
49.35
 20
-35.6
 11
50.15
 21
-35.6
  0
LINE
  8
0
 10
50.15
 20
-35.6
 11
50.15
 21
-30.6
  0
LINE
  8
0
 10
50.15
 20
-30.6
 11
49.35
 21
-30.6
  0
LINE
  8
0
 10
49.35
 20
-30.6
 11
49.35
 21
-27.1
  0
LINE
  8
0
 10
49.35
 20
-27.1
 11
50.15
 21
-27.1
  0
LINE
  8
0
 10
50.15
 20
-27.1
 11
50.15
 21
-26.1
  0
LINE
  8
0
 10
50.15
 20
-26.1
 11
64.15
 21
-26.1
  0
LINE
  8
0
 10
64.15
 20
-26.1
 11
64.15
 21
-27.1
  0
LINE
  8
0
 10
64.15
 20
-27.1
 11
64.95
 21
-27.1
  0
LINE
  8
0
 10
64.95
 20
-27.1
 11
64.95
 21
-30.6
  0
LINE
  8
0
 10
64.95
 20
-30.6
 11
64.15
 21
-30.6
  0
LINE
  8
0
 10
64.15
 20
-30.6
 11
64.15
 21
-35.6
  0
LINE
  8
0
 10
64.15
 20
-35.6
 11
64.95
 21
-35.6
  0
LINE
  8
0
 10
64.95
 20
-35.6
 11
64.95
 21
-39.1
  0
LINE
  8
0
 10
64.95
 20
-39.1
 11
64.15
 21
-39.1
  0
LINE
  8
0
 10
64.15
 20
-39.1
 11
64.15
 21
-40.1
  0
LINE
  8
0
 10
64.15
 20
-40.1
 11
50.15
 21
-40.1
  0
LINE
  8
0
 10
50.15
 20
-40.1
 11
50.15
 21
-39.1
  0
LINE
  8
0
 10
50.15
 20
-39.1
 11
49.35
 21
-39.1
  0
LINE
  8
0
 10
49.35
 20
-20.05
 11
49.35
 21
-16.55
  0
LINE
  8
0
 10
49.35
 20
-16.55
 11
50.15
 21
-16.55
  0
LINE
  8
0
 10
50.15
 20
-16.55
 11
50.15
 21
-11.55
  0
LINE
  8
0
 10
50.15
 20
-11.55
 11
49.35
 21
-11.55
  0
LINE
  8
0
 10
49.35
 20
-11.55
 11
49.35
 21
-8.04999
  0
LINE
  8
0
 10
49.35
 20
-8.04999
 11
50.15
 21
-8.04999
  0
LINE
  8
0
 10
50.15
 20
-8.04999
 11
50.15
 21
-7.04999
  0
LINE
  8
0
 10
50.15
 20
-7.04999
 11
64.15
 21
-7.04999
  0
LINE
  8
0
 10
64.15
 20
-7.04999
 11
64.15
 21
-8.04999
  0
LINE
  8
0
 10
64.15
 20
-8.04999
 11
64.95
 21
-8.04999
  0
LINE
  8
0
 10
64.95
 20
-8.04999
 11
64.95
 21
-11.55
  0
LINE
  8
0
 10
64.95
 20
-11.55
 11
64.15
 21
-11.55
  0
LINE
  8
0
 10
64.15
 20
-11.55
 11
64.15
 21
-16.55
  0
LINE
  8
0
 10
64.15
 20
-16.55
 11
64.95
 21
-16.55
  0
LINE
  8
0
 10
64.95
 20
-16.55
 11
64.95
 21
-20.05
  0
LINE
  8
0
 10
64.95
 20
-20.05
 11
64.15
 21
-20.05
  0
LINE
  8
0
 10
64.15
 20
-20.05
 11
64.15
 21
-21.05
  0
LINE
  8
0
 10
64.15
 20
-21.05
 11
50.15
 21
-21.05
  0
LINE
  8
0
 10
50.15
 20
-21.05
 11
50.15
 21
-20.05
  0
LINE
  8
0
 10
50.15
 20
-20.05
 11
49.35
 21
-20.05
  0
LINE
  8
0
 10
49.35
 20
-1
 11
49.35
 21
2.5
  0
LINE
  8
0
 10
49.35
 20
2.5
 11
50.15
 21
2.5
  0
LINE
  8
0
 10
50.15
 20
2.5
 11
50.15
 21
7.5
  0
LINE
  8
0
 10
50.15
 20
7.5
 11
49.35
 21
7.5
  0
LINE
  8
0
 10
49.35
 20
7.5
 11
49.35
 21
11
  0
LINE
  8
0
 10
49.35
 20
11
 11
50.15
 21
11
  0
LINE
  8
0
 10
50.15
 20
11
 11
50.15
 21
12
  0
LINE
  8
0
 10
50.15
 20
12
 11
64.15
 21
12
  0
LINE
  8
0
 10
64.15
 20
12
 11
64.15
 21
11
  0
LINE
  8
0
 10
64.15
 20
11
 11
64.95
 21
11
  0
LINE
  8
0
 10
64.95
 20
11
 11
64.95
 21
7.5
  0
LINE
  8
0
 10
64.95
 20
7.5
 11
64.15
 21
7.5
  0
LINE
  8
0
 10
64.15
 20
7.5
 11
64.15
 21
2.5
  0
LINE
  8
0
 10
64.15
 20
2.5
 11
64.95
 21
2.5
  0
LINE
  8
0
 10
64.95
 20
2.5
 11
64.95
 21
-1
  0
LINE
  8
0
 10
64.95
 20
-1
 11
64.15
 21
-1
  0
LINE
  8
0
 10
64.15
 20
-1
 11
64.15
 21
-2
  0
LINE
  8
0
 10
64.15
 20
-2
 11
50.15
 21
-2
  0
LINE
  8
0
 10
50.15
 20
-2
 11
50.15
 21
-1
  0
LINE
  8
0
 10
50.15
 20
-1
 11
49.35
 21
-1
  0
LINE
  8
0
 10
68.4
 20
-81.15
 11
68.4
 21
-77.65
  0
LINE
  8
0
 10
68.4
 20
-77.65
 11
69.2
 21
-77.65
  0
LINE
  8
0
 10
69.2
 20
-77.65
 11
69.2
 21
-72.65
  0
LINE
  8
0
 10
69.2
 20
-72.65
 11
68.4
 21
-72.65
  0
LINE
  8
0
 10
68.4
 20
-72.65
 11
68.4
 21
-69.15
  0
LINE
  8
0
 10
68.4
 20
-69.15
 11
69.2
 21
-69.15
  0
LINE
  8
0
 10
69.2
 20
-69.15
 11
69.2
 21
-68.15
  0
LINE
  8
0
 10
69.2
 20
-68.15
 11
83.2
 21
-68.15
  0
LINE
  8
0
 10
83.2
 20
-68.15
 11
83.2
 21
-69.15
  0
LINE
  8
0
 10
83.2
 20
-69.15
 11
84
 21
-69.15
  0
LINE
  8
0
 10
84
 20
-69.15
 11
84
 21
-72.65
  0
LINE
  8
0
 10
84
 20
-72.65
 11
83.2
 21
-72.65
  0
LINE
  8
0
 10
83.2
 20
-72.65
 11
83.2
 21
-77.65
  0
LINE
  8
0
 10
83.2
 20
-77.65
 11
84
 21
-77.65
  0
LINE
  8
0
 10
84
 20
-77.65
 11
84
 21
-81.15
  0
LINE
  8
0
 10
84
 20
-81.15
 11
83.2
 21
-81.15
  0
LINE
  8
0
 10
83.2
 20
-81.15
 11
83.2
 21
-82.15
  0
LINE
  8
0
 10
83.2
 20
-82.15
 11
69.2
 21
-82.15
  0
LINE
  8
0
 10
69.2
 20
-82.15
 11
69.2
 21
-81.15
  0
LINE
  8
0
 10
69.2
 20
-81.15
 11
68.4
 21
-81.15
  0
LINE
  8
0
 10
68.4
 20
-62.1
 11
68.4
 21
-58.6
  0
LINE
  8
0
 10
68.4
 20
-58.6
 11
69.2
 21
-58.6
  0
LINE
  8
0
 10
69.2
 20
-58.6
 11
69.2
 21
-53.6
  0
LINE
  8
0
 10
69.2
 20
-53.6
 11
68.4
 21
-53.6
  0
LINE
  8
0
 10
68.4
 20
-53.6
 11
68.4
 21
-50.1
  0
LINE
  8
0
 10
68.4
 20
-50.1
 11
69.2
 21
-50.1
  0
LINE
  8
0
 10
69.2
 20
-50.1
 11
69.2
 21
-49.1
  0
LINE
  8
0
 10
69.2
 20
-49.1
 11
83.2
 21
-49.1
  0
LINE
  8
0
 10
83.2
 20
-49.1
 11
83.2
 21
-50.1
  0
LINE
  8
0
 10
83.2
 20
-50.1
 11
84
 21
-50.1
  0
LINE
  8
0
 10
84
 20
-50.1
 11
84
 21
-53.6
  0
LINE
  8
0
 10
84
 20
-53.6
 11
83.2
 21
-53.6
  0
LINE
  8
0
 10
83.2
 20
-53.6
 11
83.2
 21
-58.6
  0
LINE
  8
0
 10
83.2
 20
-58.6
 11
84
 21
-58.6
  0
LINE
  8
0
 10
84
 20
-58.6
 11
84
 21
-62.1
  0
LINE
  8
0
 10
84
 20
-62.1
 11
83.2
 21
-62.1
  0
LINE
  8
0
 10
83.2
 20
-62.1
 11
83.2
 21
-63.1
  0
LINE
  8
0
 10
83.2
 20
-63.1
 11
69.2
 21
-63.1
  0
LINE
  8
0
 10
69.2
 20
-63.1
 11
69.2
 21
-62.1
  0
LINE
  8
0
 10
69.2
 20
-62.1
 11
68.4
 21
-62.1
  0
LINE
  8
0
 10
68.4
 20
-43.05
 11
68.4
 21
-39.55
  0
LINE
  8
0
 10
68.4
 20
-39.55
 11
69.2
 21
-39.55
  0
LINE
  8
0
 10
69.2
 20
-39.55
 11
69.2
 21
-34.55
  0
LINE
  8
0
 10
69.2
 20
-34.55
 11
68.4
 21
-34.55
  0
LINE
  8
0
 10
68.4
 20
-34.55
 11
68.4
 21
-31.05
  0
LINE
  8
0
 10
68.4
 20
-31.05
 11
69.2
 21
-31.05
  0
LINE
  8
0
 10
69.2
 20
-31.05
 11
69.2
 21
-30.05
  0
LINE
  8
0
 10
69.2
 20
-30.05
 11
83.2
 21
-30.05
  0
LINE
  8
0
 10
83.2
 20
-30.05
 11
83.2
 21
-31.05
  0
LINE
  8
0
 10
83.2
 20
-31.05
 11
84
 21
-31.05
  0
LINE
  8
0
 10
84
 20
-31.05
 11
84
 21
-34.55
  0
LINE
  8
0
 10
84
 20
-34.55
 11
83.2
 21
-34.55
  0
LINE
  8
0
 10
83.2
 20
-34.55
 11
83.2
 21
-39.55
  0
LINE
  8
0
 10
83.2
 20
-39.55
 11
84
 21
-39.55
  0
LINE
  8
0
 10
84
 20
-39.55
 11
84
 21
-43.05
  0
LINE
  8
0
 10
84
 20
-43.05
 11
83.2
 21
-43.05
  0
LINE
  8
0
 10
83.2
 20
-43.05
 11
83.2
 21
-44.05
  0
LINE
  8
0
 10
83.2
 20
-44.05
 11
69.2
 21
-44.05
  0
LINE
  8
0
 10
69.2
 20
-44.05
 11
69.2
 21
-43.05
  0
LINE
  8
0
 10
69.2
 20
-43.05
 11
68.4
 21
-43.05
  0
LINE
  8
0
 10
68.4
 20
-24
 11
68.4
 21
-20.5
  0
LINE
  8
0
 10
68.4
 20
-20.5
 11
69.2
 21
-20.5
  0
LINE
  8
0
 10
69.2
 20
-20.5
 11
69.2
 21
-15.5
  0
LINE
  8
0
 10
69.2
 20
-15.5
 11
68.4
 21
-15.5
  0
LINE
  8
0
 10
68.4
 20
-15.5
 11
68.4
 21
-12
  0
LINE
  8
0
 10
68.4
 20
-12
 11
69.2
 21
-12
  0
LINE
  8
0
 10
69.2
 20
-12
 11
69.2
 21
-11
  0
LINE
  8
0
 10
69.2
 20
-11
 11
83.2
 21
-11
  0
LINE
  8
0
 10
83.2
 20
-11
 11
83.2
 21
-12
  0
LINE
  8
0
 10
83.2
 20
-12
 11
84
 21
-12
  0
LINE
  8
0
 10
84
 20
-12
 11
84
 21
-15.5
  0
LINE
  8
0
 10
84
 20
-15.5
 11
83.2
 21
-15.5
  0
LINE
  8
0
 10
83.2
 20
-15.5
 11
83.2
 21
-20.5
  0
LINE
  8
0
 10
83.2
 20
-20.5
 11
84
 21
-20.5
  0
LINE
  8
0
 10
84
 20
-20.5
 11
84
 21
-24
  0
LINE
  8
0
 10
84
 20
-24
 11
83.2
 21
-24
  0
LINE
  8
0
 10
83.2
 20
-24
 11
83.2
 21
-25
  0
LINE
  8
0
 10
83.2
 20
-25
 11
69.2
 21
-25
  0
LINE
  8
0
 10
69.2
 20
-25
 11
69.2
 21
-24
  0
LINE
  8
0
 10
69.2
 20
-24
 11
68.4
 21
-24
  0
LINE
  8
0
 10
87.45
 20
-86.15
 11
87.45
 21
-82.65
  0
LINE
  8
0
 10
87.45
 20
-82.65
 11
88.25
 21
-82.65
  0
LINE
  8
0
 10
88.25
 20
-82.65
 11
88.25
 21
-77.65
  0
LINE
  8
0
 10
88.25
 20
-77.65
 11
87.45
 21
-77.65
  0
LINE
  8
0
 10
87.45
 20
-77.65
 11
87.45
 21
-74.15
  0
LINE
  8
0
 10
87.45
 20
-74.15
 11
88.25
 21
-74.15
  0
LINE
  8
0
 10
88.25
 20
-74.15
 11
88.25
 21
-73.15
  0
LINE
  8
0
 10
88.25
 20
-73.15
 11
102.25
 21
-73.15
  0
LINE
  8
0
 10
102.25
 20
-73.15
 11
102.25
 21
-74.15
  0
LINE
  8
0
 10
102.25
 20
-74.15
 11
103.05
 21
-74.15
  0
LINE
  8
0
 10
103.05
 20
-74.15
 11
103.05
 21
-77.65
  0
LINE
  8
0
 10
103.05
 20
-77.65
 11
102.25
 21
-77.65
  0
LINE
  8
0
 10
102.25
 20
-77.65
 11
102.25
 21
-82.65
  0
LINE
  8
0
 10
102.25
 20
-82.65
 11
103.05
 21
-82.65
  0
LINE
  8
0
 10
103.05
 20
-82.65
 11
103.05
 21
-86.15
  0
LINE
  8
0
 10
103.05
 20
-86.15
 11
102.25
 21
-86.15
  0
LINE
  8
0
 10
102.25
 20
-86.15
 11
102.25
 21
-87.15
  0
LINE
  8
0
 10
102.25
 20
-87.15
 11
88.25
 21
-87.15
  0
LINE
  8
0
 10
88.25
 20
-87.15
 11
88.25
 21
-86.15
  0
LINE
  8
0
 10
88.25
 20
-86.15
 11
87.45
 21
-86.15
  0
LINE
  8
0
 10
87.45
 20
-67.1
 11
87.45
 21
-63.6
  0
LINE
  8
0
 10
87.45
 20
-63.6
 11
88.25
 21
-63.6
  0
LINE
  8
0
 10
88.25
 20
-63.6
 11
88.25
 21
-58.6
  0
LINE
  8
0
 10
88.25
 20
-58.6
 11
87.45
 21
-58.6
  0
LINE
  8
0
 10
87.45
 20
-58.6
 11
87.45
 21
-55.1
  0
LINE
  8
0
 10
87.45
 20
-55.1
 11
88.25
 21
-55.1
  0
LINE
  8
0
 10
88.25
 20
-55.1
 11
88.25
 21
-54.1
  0
LINE
  8
0
 10
88.25
 20
-54.1
 11
102.25
 21
-54.1
  0
LINE
  8
0
 10
102.25
 20
-54.1
 11
102.25
 21
-55.1
  0
LINE
  8
0
 10
102.25
 20
-55.1
 11
103.05
 21
-55.1
  0
LINE
  8
0
 10
103.05
 20
-55.1
 11
103.05
 21
-58.6
  0
LINE
  8
0
 10
103.05
 20
-58.6
 11
102.25
 21
-58.6
  0
LINE
  8
0
 10
102.25
 20
-58.6
 11
102.25
 21
-63.6
  0
LINE
  8
0
 10
102.25
 20
-63.6
 11
103.05
 21
-63.6
  0
LINE
  8
0
 10
103.05
 20
-63.6
 11
103.05
 21
-67.1
  0
LINE
  8
0
 10
103.05
 20
-67.1
 11
102.25
 21
-67.1
  0
LINE
  8
0
 10
102.25
 20
-67.1
 11
102.25
 21
-68.1
  0
LINE
  8
0
 10
102.25
 20
-68.1
 11
88.25
 21
-68.1
  0
LINE
  8
0
 10
88.25
 20
-68.1
 11
88.25
 21
-67.1
  0
LINE
  8
0
 10
88.25
 20
-67.1
 11
87.45
 21
-67.1
  0
LINE
  8
0
 10
87.45
 20
-48.05
 11
87.45
 21
-44.55
  0
LINE
  8
0
 10
87.45
 20
-44.55
 11
88.25
 21
-44.55
  0
LINE
  8
0
 10
88.25
 20
-44.55
 11
88.25
 21
-39.55
  0
LINE
  8
0
 10
88.25
 20
-39.55
 11
87.45
 21
-39.55
  0
LINE
  8
0
 10
87.45
 20
-39.55
 11
87.45
 21
-36.05
  0
LINE
  8
0
 10
87.45
 20
-36.05
 11
88.25
 21
-36.05
  0
LINE
  8
0
 10
88.25
 20
-36.05
 11
88.25
 21
-35.05
  0
LINE
  8
0
 10
88.25
 20
-35.05
 11
102.25
 21
-35.05
  0
LINE
  8
0
 10
102.25
 20
-35.05
 11
102.25
 21
-36.05
  0
LINE
  8
0
 10
102.25
 20
-36.05
 11
103.05
 21
-36.05
  0
LINE
  8
0
 10
103.05
 20
-36.05
 11
103.05
 21
-39.55
  0
LINE
  8
0
 10
103.05
 20
-39.55
 11
102.25
 21
-39.55
  0
LINE
  8
0
 10
102.25
 20
-39.55
 11
102.25
 21
-44.55
  0
LINE
  8
0
 10
102.25
 20
-44.55
 11
103.05
 21
-44.55
  0
LINE
  8
0
 10
103.05
 20
-44.55
 11
103.05
 21
-48.05
  0
LINE
  8
0
 10
103.05
 20
-48.05
 11
102.25
 21
-48.05
  0
LINE
  8
0
 10
102.25
 20
-48.05
 11
102.25
 21
-49.05
  0
LINE
  8
0
 10
102.25
 20
-49.05
 11
88.25
 21
-49.05
  0
LINE
  8
0
 10
88.25
 20
-49.05
 11
88.25
 21
-48.05
  0
LINE
  8
0
 10
88.25
 20
-48.05
 11
87.45
 21
-48.05
  0
LINE
  8
0
 10
87.45
 20
-29
 11
87.45
 21
-25.5
  0
LINE
  8
0
 10
87.45
 20
-25.5
 11
88.25
 21
-25.5
  0
LINE
  8
0
 10
88.25
 20
-25.5
 11
88.25
 21
-20.5
  0
LINE
  8
0
 10
88.25
 20
-20.5
 11
87.45
 21
-20.5
  0
LINE
  8
0
 10
87.45
 20
-20.5
 11
87.45
 21
-17
  0
LINE
  8
0
 10
87.45
 20
-17
 11
88.25
 21
-17
  0
LINE
  8
0
 10
88.25
 20
-17
 11
88.25
 21
-16
  0
LINE
  8
0
 10
88.25
 20
-16
 11
102.25
 21
-16
  0
LINE
  8
0
 10
102.25
 20
-16
 11
102.25
 21
-17
  0
LINE
  8
0
 10
102.25
 20
-17
 11
103.05
 21
-17
  0
LINE
  8
0
 10
103.05
 20
-17
 11
103.05
 21
-20.5
  0
LINE
  8
0
 10
103.05
 20
-20.5
 11
102.25
 21
-20.5
  0
LINE
  8
0
 10
102.25
 20
-20.5
 11
102.25
 21
-25.5
  0
LINE
  8
0
 10
102.25
 20
-25.5
 11
103.05
 21
-25.5
  0
LINE
  8
0
 10
103.05
 20
-25.5
 11
103.05
 21
-29
  0
LINE
  8
0
 10
103.05
 20
-29
 11
102.25
 21
-29
  0
LINE
  8
0
 10
102.25
 20
-29
 11
102.25
 21
-30
  0
LINE
  8
0
 10
102.25
 20
-30
 11
88.25
 21
-30
  0
LINE
  8
0
 10
88.25
 20
-30
 11
88.25
 21
-29
  0
LINE
  8
0
 10
88.25
 20
-29
 11
87.45
 21
-29
  0
ENDSEC
  0
SECTION
  2
OBJECTS
  0
DICTIONARY
  0
ENDSEC
  0
EOF
