  0
SECTION
  2
BLOCKS
  0
ENDSEC
  0
SECTION
  2
ENTITIES
  0
LINE
  8
0
 10
-43.8126
 20
-88.8035
 11
-43.7933
 21
-89.1112
  0
LINE
  8
0
 10
-43.7933
 20
-89.1112
 11
-43.7415
 21
-89.4175
  0
LINE
  8
0
 10
-43.7415
 20
-89.4175
 11
-43.6582
 21
-89.7155
  0
LINE
  8
0
 10
-43.6582
 20
-89.7155
 11
-43.425
 21
-90.3047
  0
LINE
  8
0
 10
-43.425
 20
-90.3047
 11
-43.2335
 21
-90.6955
  0
LINE
  8
0
 10
-43.2335
 20
-90.6955
 11
-34.966
 21
-106.51
  0
LINE
  8
0
 10
-34.966
 20
-106.51
 11
-34.754
 21
-106.891
  0
LINE
  8
0
 10
-34.754
 20
-106.891
 11
-34.4037
 21
-107.418
  0
LINE
  8
0
 10
-34.4037
 20
-107.418
 11
-34.2062
 21
-107.657
  0
LINE
  8
0
 10
-34.2062
 20
-107.657
 11
-33.9848
 21
-107.873
  0
LINE
  8
0
 10
-33.9848
 20
-107.873
 11
-33.7422
 21
-108.066
  0
LINE
  8
0
 10
-33.7422
 20
-108.066
 11
-33.4805
 21
-108.232
  0
LINE
  8
0
 10
-33.4805
 20
-108.232
 11
-33.2035
 21
-108.369
  0
LINE
  8
0
 10
-33.2035
 20
-108.369
 11
-32.9131
 21
-108.477
  0
LINE
  8
0
 10
-32.9131
 20
-108.477
 11
-32.6128
 21
-108.554
  0
LINE
  8
0
 10
-32.6128
 20
-108.554
 11
-32.3069
 21
-108.6
  0
LINE
  8
0
 10
-32.3069
 20
-108.6
 11
-31.9965
 21
-108.613
  0
LINE
  8
0
 10
-31.9965
 20
-108.613
 11
-31.6888
 21
-108.593
  0
LINE
  8
0
 10
-31.6888
 20
-108.593
 11
-31.3824
 21
-108.541
  0
LINE
  8
0
 10
-31.3824
 20
-108.541
 11
-31.0845
 21
-108.458
  0
LINE
  8
0
 10
-31.0845
 20
-108.458
 11
-30.4953
 21
-108.225
  0
LINE
  8
0
 10
-30.4953
 20
-108.225
 11
-30.1045
 21
-108.034
  0
LINE
  8
0
 10
-30.1045
 20
-108.034
 11
-21.4602
 21
-103.514
  0
LINE
  8
0
 10
-21.4602
 20
-103.514
 11
-19.5568
 21
-102.643
  0
LINE
  8
0
 10
-19.5568
 20
-102.643
 11
-17.5727
 21
-101.975
  0
LINE
  8
0
 10
-17.5727
 20
-101.975
 11
-15.5297
 21
-101.519
  0
LINE
  8
0
 10
-15.5297
 20
-101.519
 11
-13.4501
 21
-101.278
  0
LINE
  8
0
 10
-13.4501
 20
-101.278
 11
-11.3568
 21
-101.256
  0
LINE
  8
0
 10
-11.3568
 20
-101.256
 11
-9.27264
 21
-101.453
  0
LINE
  8
0
 10
-9.27264
 20
-101.453
 11
-7.2205
 21
-101.867
  0
LINE
  8
0
 10
-7.2205
 20
-101.867
 11
-5.22287
 21
-102.493
  0
LINE
  8
0
 10
-5.22287
 20
-102.493
 11
-3.20966
 21
-103.408
  0
LINE
  8
0
 10
-3.20966
 20
-103.408
 11
-3.20015
 21
-103.388
  0
LINE
  8
0
 10
-3.20015
 20
-103.388
 11
-2.53929
 21
-103.703
  0
LINE
  8
0
 10
-2.53929
 20
-103.703
 11
-2.2374
 21
-103.828
  0
LINE
  8
0
 10
-2.2374
 20
-103.828
 11
-1.92917
 21
-103.938
  0
LINE
  8
0
 10
-1.92917
 20
-103.938
 11
-1.61584
 21
-104.03
  0
LINE
  8
0
 10
-1.61584
 20
-104.03
 11
-1.29808
 21
-104.107
  0
LINE
  8
0
 10
-1.29808
 20
-104.107
 11
-0.976929
 21
-104.166
  0
LINE
  8
0
 10
-0.976929
 20
-104.166
 11
-0.652634
 21
-104.209
  0
LINE
  8
0
 10
-0.652634
 20
-104.209
 11
-0.326843
 21
-104.235
  0
LINE
  8
0
 10
-0.326843
 20
-104.235
 11
0
 21
-104.243
  0
LINE
  8
0
 10
0
 20
-104.243
 11
0.326843
 21
-104.235
  0
LINE
  8
0
 10
0.326843
 20
-104.235
 11
0.652634
 21
-104.209
  0
LINE
  8
0
 10
0.652634
 20
-104.209
 11
0.976929
 21
-104.166
  0
LINE
  8
0
 10
0.976929
 20
-104.166
 11
1.29808
 21
-104.107
  0
LINE
  8
0
 10
1.29808
 20
-104.107
 11
1.61584
 21
-104.03
  0
LINE
  8
0
 10
1.61584
 20
-104.03
 11
1.92917
 21
-103.938
  0
LINE
  8
0
 10
1.92917
 20
-103.938
 11
2.2374
 21
-103.828
  0
LINE
  8
0
 10
2.2374
 20
-103.828
 11
2.53929
 21
-103.703
  0
LINE
  8
0
 10
2.53929
 20
-103.703
 11
2.83405
 21
-103.563
  0
LINE
  8
0
 10
2.83405
 20
-103.563
 11
3.12144
 21
-103.407
  0
LINE
  8
0
 10
3.12144
 20
-103.407
 11
3.40042
 21
-103.236
  0
LINE
  8
0
 10
3.40042
 20
-103.236
 11
3.66956
 21
-103.051
  0
LINE
  8
0
 10
3.66956
 20
-103.051
 11
3.92889
 21
-102.852
  0
LINE
  8
0
 10
3.92889
 20
-102.852
 11
4.17737
 21
-102.64
  0
LINE
  8
0
 10
4.17737
 20
-102.64
 11
4.41466
 21
-102.414
  0
LINE
  8
0
 10
4.41466
 20
-102.414
 11
4.68071
 21
-102.134
  0
LINE
  8
0
 10
4.68071
 20
-102.134
 11
6.19922
 21
-100.693
  0
LINE
  8
0
 10
6.19922
 20
-100.693
 11
7.86005
 21
-99.4186
  0
LINE
  8
0
 10
7.86005
 20
-99.4186
 11
9.64499
 21
-98.3248
  0
LINE
  8
0
 10
9.64499
 20
-98.3248
 11
11.5345
 21
-97.4235
  0
LINE
  8
0
 10
11.5345
 20
-97.4235
 11
13.5078
 21
-96.7247
  0
LINE
  8
0
 10
13.5078
 20
-96.7247
 11
15.5434
 21
-96.236
  0
LINE
  8
0
 10
15.5434
 20
-96.236
 11
17.619
 21
-95.9627
  0
LINE
  8
0
 10
17.619
 20
-95.9627
 11
19.7117
 21
-95.9079
  0
LINE
  8
0
 10
19.7117
 20
-95.9079
 11
20.9658
 21
-95.9802
  0
LINE
  8
0
 10
20.9658
 20
-95.9802
 11
21.2574
 21
-96.0062
  0
LINE
  8
0
 10
21.2574
 20
-96.0062
 11
21.8907
 21
-96.0129
  0
LINE
  8
0
 10
21.8907
 20
-96.0129
 11
22.1995
 21
-95.9837
  0
LINE
  8
0
 10
22.1995
 20
-95.9837
 11
22.503
 21
-95.9225
  0
LINE
  8
0
 10
22.503
 20
-95.9225
 11
22.7982
 21
-95.83
  0
LINE
  8
0
 10
22.7982
 20
-95.83
 11
23.0826
 21
-95.7069
  0
LINE
  8
0
 10
23.0826
 20
-95.7069
 11
23.3528
 21
-95.5547
  0
LINE
  8
0
 10
23.3528
 20
-95.5547
 11
23.6047
 21
-95.3757
  0
LINE
  8
0
 10
23.6047
 20
-95.3757
 11
23.8376
 21
-95.1703
  0
LINE
  8
0
 10
23.8376
 20
-95.1703
 11
24.0466
 21
-94.943
  0
LINE
  8
0
 10
24.0466
 20
-94.943
 11
24.2316
 21
-94.694
  0
LINE
  8
0
 10
24.2316
 20
-94.694
 11
24.3893
 21
-94.4273
  0
LINE
  8
0
 10
24.3893
 20
-94.4273
 11
24.5181
 21
-94.146
  0
LINE
  8
0
 10
24.5181
 20
-94.146
 11
24.6169
 21
-93.8522
  0
LINE
  8
0
 10
24.6169
 20
-93.8522
 11
24.7551
 21
-93.234
  0
LINE
  8
0
 10
24.7551
 20
-93.234
 11
24.772
 21
-93.1151
  0
LINE
  8
0
 10
24.772
 20
-93.1151
 11
25.1751
 21
-91.0608
  0
LINE
  8
0
 10
25.1751
 20
-91.0608
 11
25.7907
 21
-89.06
  0
LINE
  8
0
 10
25.7907
 20
-89.06
 11
26.6121
 21
-87.1344
  0
LINE
  8
0
 10
26.6121
 20
-87.1344
 11
27.6302
 21
-85.3052
  0
LINE
  8
0
 10
27.6302
 20
-85.3052
 11
28.834
 21
-83.5925
  0
LINE
  8
0
 10
28.834
 20
-83.5925
 11
30.2102
 21
-82.015
  0
LINE
  8
0
 10
30.2102
 20
-82.015
 11
31.7438
 21
-80.59
  0
LINE
  8
0
 10
31.7438
 20
-80.59
 11
33.4179
 21
-79.3331
  0
LINE
  8
0
 10
33.4179
 20
-79.3331
 11
35.2142
 21
-78.258
  0
LINE
  8
0
 10
35.2142
 20
-78.258
 11
37.1131
 21
-77.3767
  0
LINE
  8
0
 10
37.1131
 20
-77.3767
 11
39.0937
 21
-76.6986
  0
LINE
  8
0
 10
39.0937
 20
-76.6986
 11
41.1343
 21
-76.2313
  0
LINE
  8
0
 10
41.1343
 20
-76.2313
 11
43.2126
 21
-75.9798
  0
LINE
  8
0
 10
43.2126
 20
-75.9798
 11
45.3057
 21
-75.947
  0
LINE
  8
0
 10
45.3057
 20
-75.947
 11
47.3909
 21
-76.1331
  0
LINE
  8
0
 10
47.3909
 20
-76.1331
 11
49.4452
 21
-76.5362
  0
LINE
  8
0
 10
49.4452
 20
-76.5362
 11
51.446
 21
-77.1518
  0
LINE
  8
0
 10
51.446
 20
-77.1518
 11
53.3716
 21
-77.9732
  0
LINE
  8
0
 10
53.3716
 20
-77.9732
 11
55.2008
 21
-78.9913
  0
LINE
  8
0
 10
55.2008
 20
-78.9913
 11
56.9135
 21
-80.1951
  0
LINE
  8
0
 10
56.9135
 20
-80.1951
 11
58.491
 21
-81.5713
  0
LINE
  8
0
 10
58.491
 20
-81.5713
 11
59.916
 21
-83.1049
  0
LINE
  8
0
 10
59.916
 20
-83.1049
 11
61.1729
 21
-84.779
  0
LINE
  8
0
 10
61.1729
 20
-84.779
 11
62.248
 21
-86.5753
  0
LINE
  8
0
 10
62.248
 20
-86.5753
 11
63.1293
 21
-88.4742
  0
LINE
  8
0
 10
63.1293
 20
-88.4742
 11
63.5935
 21
-89.753
  0
LINE
  8
0
 10
63.5935
 20
-89.753
 11
63.9127
 21
-90.7354
  0
LINE
  8
0
 10
63.9127
 20
-90.7354
 11
64.0386
 21
-91.0181
  0
LINE
  8
0
 10
64.0386
 20
-91.0181
 11
64.1936
 21
-91.2866
  0
LINE
  8
0
 10
64.1936
 20
-91.2866
 11
64.3756
 21
-91.537
  0
LINE
  8
0
 10
64.3756
 20
-91.537
 11
64.5828
 21
-91.7672
  0
LINE
  8
0
 10
64.5828
 20
-91.7672
 11
64.813
 21
-91.9744
  0
LINE
  8
0
 10
64.813
 20
-91.9744
 11
65.0634
 21
-92.1564
  0
LINE
  8
0
 10
65.0634
 20
-92.1564
 11
65.3319
 21
-92.3114
  0
LINE
  8
0
 10
65.3319
 20
-92.3114
 11
65.9
 21
-92.5643
  0
LINE
  8
0
 10
65.9
 20
-92.5643
 11
67.2719
 21
-93.091
  0
LINE
  8
0
 10
67.2719
 20
-93.091
 11
69.1372
 21
-94.0414
  0
LINE
  8
0
 10
69.1372
 20
-94.0414
 11
70.8929
 21
-95.1816
  0
LINE
  8
0
 10
70.8929
 20
-95.1816
 11
72.5197
 21
-96.499
  0
LINE
  8
0
 10
72.5197
 20
-96.499
 11
74
 21
-97.9794
  0
LINE
  8
0
 10
74
 20
-97.9794
 11
75.3174
 21
-99.6063
  0
LINE
  8
0
 10
75.3174
 20
-99.6063
 11
76.1895
 21
-100.911
  0
LINE
  8
0
 10
76.1895
 20
-100.911
 11
76.4894
 21
-101.401
  0
LINE
  8
0
 10
76.4894
 20
-101.401
 11
76.6741
 21
-101.67
  0
LINE
  8
0
 10
76.6741
 20
-101.67
 11
76.8731
 21
-101.929
  0
LINE
  8
0
 10
76.8731
 20
-101.929
 11
77.0853
 21
-102.177
  0
LINE
  8
0
 10
77.0853
 20
-102.177
 11
77.3104
 21
-102.415
  0
LINE
  8
0
 10
77.3104
 20
-102.415
 11
77.5476
 21
-102.64
  0
LINE
  8
0
 10
77.5476
 20
-102.64
 11
77.7961
 21
-102.852
  0
LINE
  8
0
 10
77.7961
 20
-102.852
 11
78.0554
 21
-103.051
  0
LINE
  8
0
 10
78.0554
 20
-103.051
 11
78.3248
 21
-103.236
  0
LINE
  8
0
 10
78.3248
 20
-103.236
 11
78.6034
 21
-103.407
  0
LINE
  8
0
 10
78.6034
 20
-103.407
 11
78.8906
 21
-103.563
  0
LINE
  8
0
 10
78.8906
 20
-103.563
 11
79.1856
 21
-103.703
  0
LINE
  8
0
 10
79.1856
 20
-103.703
 11
79.4879
 21
-103.829
  0
LINE
  8
0
 10
79.4879
 20
-103.829
 11
79.7957
 21
-103.938
  0
LINE
  8
0
 10
79.7957
 20
-103.938
 11
80.1091
 21
-104.03
  0
LINE
  8
0
 10
80.1091
 20
-104.03
 11
80.4267
 21
-104.107
  0
LINE
  8
0
 10
80.4267
 20
-104.107
 11
80.7484
 21
-104.166
  0
LINE
  8
0
 10
80.7484
 20
-104.166
 11
81.0723
 21
-104.209
  0
LINE
  8
0
 10
81.0723
 20
-104.209
 11
81.3981
 21
-104.235
  0
LINE
  8
0
 10
81.3981
 20
-104.235
 11
81.725
 21
-104.243
  0
LINE
  8
0
 10
81.725
 20
-104.243
 11
82.0519
 21
-104.235
  0
LINE
  8
0
 10
82.0519
 20
-104.235
 11
82.3777
 21
-104.209
  0
LINE
  8
0
 10
82.3777
 20
-104.209
 11
82.7016
 21
-104.166
  0
LINE
  8
0
 10
82.7016
 20
-104.166
 11
83.0231
 21
-104.107
  0
LINE
  8
0
 10
83.0231
 20
-104.107
 11
83.3409
 21
-104.03
  0
LINE
  8
0
 10
83.3409
 20
-104.03
 11
83.6542
 21
-103.938
  0
LINE
  8
0
 10
83.6542
 20
-103.938
 11
83.9623
 21
-103.828
  0
LINE
  8
0
 10
83.9623
 20
-103.828
 11
84.2643
 21
-103.703
  0
LINE
  8
0
 10
84.2643
 20
-103.703
 11
84.5596
 21
-103.563
  0
LINE
  8
0
 10
84.5596
 20
-103.563
 11
84.8465
 21
-103.407
  0
LINE
  8
0
 10
84.8465
 20
-103.407
 11
85.1249
 21
-103.236
  0
LINE
  8
0
 10
85.1249
 20
-103.236
 11
85.3947
 21
-103.051
  0
LINE
  8
0
 10
85.3947
 20
-103.051
 11
85.6541
 21
-102.852
  0
LINE
  8
0
 10
85.6541
 20
-102.852
 11
86.1048
 21
-102.467
  0
LINE
  8
0
 10
86.1048
 20
-102.467
 11
87.7657
 21
-101.192
  0
LINE
  8
0
 10
87.7657
 20
-101.192
 11
89.5506
 21
-100.099
  0
LINE
  8
0
 10
89.5506
 20
-100.099
 11
91.4401
 21
-99.1973
  0
LINE
  8
0
 10
91.4401
 20
-99.1973
 11
93.4135
 21
-98.4986
  0
LINE
  8
0
 10
93.4135
 20
-98.4986
 11
95.4491
 21
-98.0099
  0
LINE
  8
0
 10
95.4491
 20
-98.0099
 11
97.5246
 21
-97.7366
  0
LINE
  8
0
 10
97.5246
 20
-97.7366
 11
99.0936
 21
-97.675
  0
LINE
  8
0
 10
99.0936
 20
-97.675
 11
104.173
 21
-97.675
  0
LINE
  8
0
 10
104.173
 20
-97.675
 11
104.608
 21
-97.6636
  0
LINE
  8
0
 10
104.608
 20
-97.6636
 11
105.238
 21
-97.5974
  0
LINE
  8
0
 10
105.238
 20
-97.5974
 11
105.541
 21
-97.533
  0
LINE
  8
0
 10
105.541
 20
-97.533
 11
105.835
 21
-97.4372
  0
LINE
  8
0
 10
105.835
 20
-97.4372
 11
106.118
 21
-97.3114
  0
LINE
  8
0
 10
106.118
 20
-97.3114
 11
106.387
 21
-97.1564
  0
LINE
  8
0
 10
106.387
 20
-97.1564
 11
106.637
 21
-96.9744
  0
LINE
  8
0
 10
106.637
 20
-96.9744
 11
106.867
 21
-96.7672
  0
LINE
  8
0
 10
106.867
 20
-96.7672
 11
107.074
 21
-96.537
  0
LINE
  8
0
 10
107.074
 20
-96.537
 11
107.256
 21
-96.2866
  0
LINE
  8
0
 10
107.256
 20
-96.2866
 11
107.411
 21
-96.0181
  0
LINE
  8
0
 10
107.411
 20
-96.0181
 11
107.537
 21
-95.7354
  0
LINE
  8
0
 10
107.537
 20
-95.7354
 11
107.633
 21
-95.4407
  0
LINE
  8
0
 10
107.633
 20
-95.4407
 11
107.697
 21
-95.1378
  0
LINE
  8
0
 10
107.697
 20
-95.1378
 11
107.764
 21
-94.5078
  0
LINE
  8
0
 10
107.764
 20
-94.5078
 11
107.775
 21
-94.0729
  0
LINE
  8
0
 10
107.775
 20
-94.0729
 11
107.775
 21
-19.0771
  0
LINE
  8
0
 10
107.775
 20
-19.0771
 11
107.764
 21
-18.6422
  0
LINE
  8
0
 10
107.764
 20
-18.6422
 11
107.697
 21
-18.0122
  0
LINE
  8
0
 10
107.697
 20
-18.0122
 11
107.633
 21
-17.7093
  0
LINE
  8
0
 10
107.633
 20
-17.7093
 11
107.537
 21
-17.4146
  0
LINE
  8
0
 10
107.537
 20
-17.4146
 11
107.411
 21
-17.1319
  0
LINE
  8
0
 10
107.411
 20
-17.1319
 11
107.256
 21
-16.8634
  0
LINE
  8
0
 10
107.256
 20
-16.8634
 11
107.074
 21
-16.613
  0
LINE
  8
0
 10
107.074
 20
-16.613
 11
106.867
 21
-16.3828
  0
LINE
  8
0
 10
106.867
 20
-16.3828
 11
106.637
 21
-16.1756
  0
LINE
  8
0
 10
106.637
 20
-16.1756
 11
106.387
 21
-15.9936
  0
LINE
  8
0
 10
106.387
 20
-15.9936
 11
106.118
 21
-15.8386
  0
LINE
  8
0
 10
106.118
 20
-15.8386
 11
105.835
 21
-15.7128
  0
LINE
  8
0
 10
105.835
 20
-15.7128
 11
105.541
 21
-15.617
  0
LINE
  8
0
 10
105.541
 20
-15.617
 11
105.238
 21
-15.5526
  0
LINE
  8
0
 10
105.238
 20
-15.5526
 11
104.748
 21
-15.5011
  0
LINE
  8
0
 10
104.748
 20
-15.5011
 11
102.68
 21
-15.1736
  0
LINE
  8
0
 10
102.68
 20
-15.1736
 11
100.658
 21
-14.6318
  0
LINE
  8
0
 10
100.658
 20
-14.6318
 11
98.7039
 21
-13.8816
  0
LINE
  8
0
 10
98.7039
 20
-13.8816
 11
96.8387
 21
-12.9312
  0
LINE
  8
0
 10
96.8387
 20
-12.9312
 11
95.083
 21
-11.7911
  0
LINE
  8
0
 10
95.083
 20
-11.7911
 11
93.4561
 21
-10.4736
  0
LINE
  8
0
 10
93.4561
 20
-10.4736
 11
91.9758
 21
-8.99333
  0
LINE
  8
0
 10
91.9758
 20
-8.99333
 11
90.6583
 21
-7.36644
  0
LINE
  8
0
 10
90.6583
 20
-7.36644
 11
89.5182
 21
-5.61073
  0
LINE
  8
0
 10
89.5182
 20
-5.61073
 11
88.5677
 21
-3.74547
  0
LINE
  8
0
 10
88.5677
 20
-3.74547
 11
87.8175
 21
-1.79108
  0
LINE
  8
0
 10
87.8175
 20
-1.79108
 11
87.2757
 21
0.231033
  0
LINE
  8
0
 10
87.2757
 20
0.231033
 11
86.9482
 21
2.29869
  0
LINE
  8
0
 10
86.9482
 20
2.29869
 11
86.8386
 21
4.38927
  0
LINE
  8
0
 10
86.8386
 20
4.38927
 11
86.9482
 21
6.47983
  0
LINE
  8
0
 10
86.9482
 20
6.47983
 11
87.2757
 21
8.5475
  0
LINE
  8
0
 10
87.2757
 20
8.5475
 11
87.6622
 21
10.0695
  0
LINE
  8
0
 10
87.6622
 20
10.0695
 11
87.7554
 21
10.3842
  0
LINE
  8
0
 10
87.7554
 20
10.3842
 11
87.8317
 21
10.7018
  0
LINE
  8
0
 10
87.8317
 20
10.7018
 11
87.8913
 21
11.0236
  0
LINE
  8
0
 10
87.8913
 20
11.0236
 11
87.934
 21
11.3476
  0
LINE
  8
0
 10
87.934
 20
11.3476
 11
87.9596
 21
11.673
  0
LINE
  8
0
 10
87.9596
 20
11.673
 11
87.9681
 21
12
  0
LINE
  8
0
 10
87.9681
 20
12
 11
87.9596
 21
12.3271
  0
LINE
  8
0
 10
87.9596
 20
12.3271
 11
87.934
 21
12.6525
  0
LINE
  8
0
 10
87.934
 20
12.6525
 11
87.8913
 21
12.9762
  0
LINE
  8
0
 10
87.8913
 20
12.9762
 11
87.8317
 21
13.2982
  0
LINE
  8
0
 10
87.8317
 20
13.2982
 11
87.7554
 21
13.6158
  0
LINE
  8
0
 10
87.7554
 20
13.6158
 11
87.6626
 21
13.9292
  0
LINE
  8
0
 10
87.6626
 20
13.9292
 11
87.5534
 21
14.2374
  0
LINE
  8
0
 10
87.5534
 20
14.2374
 11
87.4284
 21
14.5393
  0
LINE
  8
0
 10
87.4284
 20
14.5393
 11
87.2878
 21
14.834
  0
LINE
  8
0
 10
87.2878
 20
14.834
 11
87.1318
 21
15.1214
  0
LINE
  8
0
 10
87.1318
 20
15.1214
 11
86.9609
 21
15.4003
  0
LINE
  8
0
 10
86.9609
 20
15.4003
 11
86.7758
 21
15.6696
  0
LINE
  8
0
 10
86.7758
 20
15.6696
 11
86.5765
 21
15.9293
  0
LINE
  8
0
 10
86.5765
 20
15.9293
 11
86.3645
 21
16.1775
  0
LINE
  8
0
 10
86.3645
 20
16.1775
 11
86.1397
 21
16.4144
  0
LINE
  8
0
 10
86.1397
 20
16.4144
 11
85.9023
 21
16.6397
  0
LINE
  8
0
 10
85.9023
 20
16.6397
 11
85.6542
 21
16.8516
  0
LINE
  8
0
 10
85.6542
 20
16.8516
 11
85.3947
 21
17.0507
  0
LINE
  8
0
 10
85.3947
 20
17.0507
 11
85.1249
 21
17.2362
  0
LINE
  8
0
 10
85.1249
 20
17.2362
 11
84.8465
 21
17.4068
  0
LINE
  8
0
 10
84.8465
 20
17.4068
 11
84.5596
 21
17.5625
  0
LINE
  8
0
 10
84.5596
 20
17.5625
 11
84.2643
 21
17.7034
  0
LINE
  8
0
 10
84.2643
 20
17.7034
 11
83.9623
 21
17.8285
  0
LINE
  8
0
 10
83.9623
 20
17.8285
 11
83.6542
 21
17.9376
  0
LINE
  8
0
 10
83.6542
 20
17.9376
 11
83.3409
 21
18.0304
  0
LINE
  8
0
 10
83.3409
 20
18.0304
 11
83.0231
 21
18.1067
  0
LINE
  8
0
 10
83.0231
 20
18.1067
 11
82.7016
 21
18.1663
  0
LINE
  8
0
 10
82.7016
 20
18.1663
 11
82.3777
 21
18.2089
  0
LINE
  8
0
 10
82.3777
 20
18.2089
 11
82.0519
 21
18.2346
  0
LINE
  8
0
 10
82.0519
 20
18.2346
 11
81.725
 21
18.2431
  0
LINE
  8
0
 10
81.725
 20
18.2431
 11
81.3981
 21
18.2346
  0
LINE
  8
0
 10
81.3981
 20
18.2346
 11
81.0723
 21
18.2089
  0
LINE
  8
0
 10
81.0723
 20
18.2089
 11
80.7484
 21
18.1663
  0
LINE
  8
0
 10
80.7484
 20
18.1663
 11
80.4267
 21
18.1067
  0
LINE
  8
0
 10
80.4267
 20
18.1067
 11
80.1091
 21
18.0304
  0
LINE
  8
0
 10
80.1091
 20
18.0304
 11
79.7957
 21
17.9376
  0
LINE
  8
0
 10
79.7957
 20
17.9376
 11
79.4879
 21
17.8286
  0
LINE
  8
0
 10
79.4879
 20
17.8286
 11
79.1856
 21
17.7034
  0
LINE
  8
0
 10
79.1856
 20
17.7034
 11
78.8906
 21
17.5626
  0
LINE
  8
0
 10
78.8906
 20
17.5626
 11
78.6034
 21
17.4067
  0
LINE
  8
0
 10
78.6034
 20
17.4067
 11
78.325
 21
17.2361
  0
LINE
  8
0
 10
78.325
 20
17.2361
 11
78.0295
 21
17.033
  0
LINE
  8
0
 10
78.0295
 20
17.033
 11
76.2445
 21
15.9392
  0
LINE
  8
0
 10
76.2445
 20
15.9392
 11
74.355
 21
15.0379
  0
LINE
  8
0
 10
74.355
 20
15.0379
 11
72.3817
 21
14.3391
  0
LINE
  8
0
 10
72.3817
 20
14.3391
 11
70.3461
 21
13.8503
  0
LINE
  8
0
 10
70.3461
 20
13.8503
 11
68.2706
 21
13.5771
  0
LINE
  8
0
 10
68.2706
 20
13.5771
 11
66.3347
 21
13.5264
  0
LINE
  8
0
 10
66.3347
 20
13.5264
 11
66.3347
 21
13.525
  0
LINE
  8
0
 10
66.3347
 20
13.525
 11
66.2823
 21
13.525
  0
LINE
  8
0
 10
66.2823
 20
13.525
 11
66.1775
 21
13.5222
  0
LINE
  8
0
 10
66.1775
 20
13.5222
 11
66.0726
 21
13.525
  0
LINE
  8
0
 10
66.0726
 20
13.525
 11
65.827
 21
13.525
  0
LINE
  8
0
 10
65.827
 20
13.525
 11
63.7365
 21
13.6346
  0
LINE
  8
0
 10
63.7365
 20
13.6346
 11
61.6688
 21
13.962
  0
LINE
  8
0
 10
61.6688
 20
13.962
 11
59.6467
 21
14.5039
  0
LINE
  8
0
 10
59.6467
 20
14.5039
 11
57.6923
 21
15.2541
  0
LINE
  8
0
 10
57.6923
 20
15.2541
 11
55.827
 21
16.2045
  0
LINE
  8
0
 10
55.827
 20
16.2045
 11
54.0713
 21
17.3447
  0
LINE
  8
0
 10
54.0713
 20
17.3447
 11
52.4444
 21
18.6621
  0
LINE
  8
0
 10
52.4444
 20
18.6621
 11
50.9641
 21
20.1424
  0
LINE
  8
0
 10
50.9641
 20
20.1424
 11
50.2405
 21
21.036
  0
LINE
  8
0
 10
50.2405
 20
21.036
 11
49.7172
 21
21.6172
  0
LINE
  8
0
 10
49.7172
 20
21.6172
 11
49.487
 21
21.8244
  0
LINE
  8
0
 10
49.487
 20
21.8244
 11
49.2366
 21
22.0064
  0
LINE
  8
0
 10
49.2366
 20
22.0064
 11
48.9681
 21
22.1614
  0
LINE
  8
0
 10
48.9681
 20
22.1614
 11
48.6854
 21
22.2872
  0
LINE
  8
0
 10
48.6854
 20
22.2872
 11
48.3907
 21
22.383
  0
LINE
  8
0
 10
48.3907
 20
22.383
 11
48.0878
 21
22.4474
  0
LINE
  8
0
 10
48.0878
 20
22.4474
 11
47.4578
 21
22.5136
  0
LINE
  8
0
 10
47.4578
 20
22.5136
 11
47.0229
 21
22.525
  0
LINE
  8
0
 10
47.0229
 20
22.525
 11
29.1771
 21
22.525
  0
LINE
  8
0
 10
29.1771
 20
22.525
 11
28.7422
 21
22.5136
  0
LINE
  8
0
 10
28.7422
 20
22.5136
 11
28.1122
 21
22.4474
  0
LINE
  8
0
 10
28.1122
 20
22.4474
 11
27.8093
 21
22.383
  0
LINE
  8
0
 10
27.8093
 20
22.383
 11
27.5146
 21
22.2872
  0
LINE
  8
0
 10
27.5146
 20
22.2872
 11
27.2319
 21
22.1614
  0
LINE
  8
0
 10
27.2319
 20
22.1614
 11
26.9634
 21
22.0064
  0
LINE
  8
0
 10
26.9634
 20
22.0064
 11
26.713
 21
21.8244
  0
LINE
  8
0
 10
26.713
 20
21.8244
 11
26.1145
 21
21.2856
  0
LINE
  8
0
 10
26.1145
 20
21.2856
 11
25.3341
 21
20.5052
  0
LINE
  8
0
 10
25.3341
 20
20.5052
 11
23.7072
 21
19.1877
  0
LINE
  8
0
 10
23.7072
 20
19.1877
 11
21.9515
 21
18.0475
  0
LINE
  8
0
 10
21.9515
 20
18.0475
 11
20.0862
 21
17.0971
  0
LINE
  8
0
 10
20.0862
 20
17.0971
 11
18.1318
 21
16.3469
  0
LINE
  8
0
 10
18.1318
 20
16.3469
 11
16.1097
 21
15.8051
  0
LINE
  8
0
 10
16.1097
 20
15.8051
 11
14.0421
 21
15.4776
  0
LINE
  8
0
 10
14.0421
 20
15.4776
 11
11.9515
 21
15.368
  0
LINE
  8
0
 10
11.9515
 20
15.368
 11
9.86093
 21
15.4776
  0
LINE
  8
0
 10
9.86093
 20
15.4776
 11
7.79327
 21
15.8051
  0
LINE
  8
0
 10
7.79327
 20
15.8051
 11
5.77116
 21
16.3469
  0
LINE
  8
0
 10
5.77116
 20
16.3469
 11
3.20952
 21
17.4078
  0
LINE
  8
0
 10
3.20952
 20
17.4078
 11
3.20015
 21
17.3882
  0
LINE
  8
0
 10
3.20015
 20
17.3882
 11
2.53929
 21
17.7034
  0
LINE
  8
0
 10
2.53929
 20
17.7034
 11
2.2374
 21
17.8284
  0
LINE
  8
0
 10
2.2374
 20
17.8284
 11
1.92917
 21
17.9376
  0
LINE
  8
0
 10
1.92917
 20
17.9376
 11
1.61584
 21
18.0304
  0
LINE
  8
0
 10
1.61584
 20
18.0304
 11
1.29808
 21
18.1067
  0
LINE
  8
0
 10
1.29808
 20
18.1067
 11
0.976929
 21
18.1662
  0
LINE
  8
0
 10
0.976929
 20
18.1662
 11
0.652634
 21
18.2089
  0
LINE
  8
0
 10
0.652634
 20
18.2089
 11
0.326843
 21
18.2346
  0
LINE
  8
0
 10
0.326843
 20
18.2346
 11
0
 21
18.2431
  0
LINE
  8
0
 10
0
 20
18.2431
 11
-0.326843
 21
18.2346
  0
LINE
  8
0
 10
-0.326843
 20
18.2346
 11
-0.652634
 21
18.2089
  0
LINE
  8
0
 10
-0.652634
 20
18.2089
 11
-0.976929
 21
18.1662
  0
LINE
  8
0
 10
-0.976929
 20
18.1662
 11
-1.29808
 21
18.1067
  0
LINE
  8
0
 10
-1.29808
 20
18.1067
 11
-1.61584
 21
18.0304
  0
LINE
  8
0
 10
-1.61584
 20
18.0304
 11
-1.92917
 21
17.9376
  0
LINE
  8
0
 10
-1.92917
 20
17.9376
 11
-2.2374
 21
17.8284
  0
LINE
  8
0
 10
-2.2374
 20
17.8284
 11
-2.53929
 21
17.7034
  0
LINE
  8
0
 10
-2.53929
 20
17.7034
 11
-2.83405
 21
17.5628
  0
LINE
  8
0
 10
-2.83405
 20
17.5628
 11
-3.12144
 21
17.4068
  0
LINE
  8
0
 10
-3.12144
 20
17.4068
 11
-3.40042
 21
17.2358
  0
LINE
  8
0
 10
-3.40042
 20
17.2358
 11
-3.66956
 21
17.0508
  0
LINE
  8
0
 10
-3.66956
 20
17.0508
 11
-3.92889
 21
16.8519
  0
LINE
  8
0
 10
-3.92889
 20
16.8519
 11
-4.17737
 21
16.6396
  0
LINE
  8
0
 10
-4.17737
 20
16.6396
 11
-4.41457
 21
16.4146
  0
LINE
  8
0
 10
-4.41457
 20
16.4146
 11
-4.63965
 21
16.1774
  0
LINE
  8
0
 10
-4.63965
 20
16.1774
 11
-4.85185
 21
15.9289
  0
LINE
  8
0
 10
-4.85185
 20
15.9289
 11
-5.05084
 21
15.6696
  0
LINE
  8
0
 10
-5.05084
 20
15.6696
 11
-5.23582
 21
15.4004
  0
LINE
  8
0
 10
-5.23582
 20
15.4004
 11
-5.40677
 21
15.1214
  0
LINE
  8
0
 10
-5.40677
 20
15.1214
 11
-5.56281
 21
14.834
  0
LINE
  8
0
 10
-5.56281
 20
14.834
 11
-5.72595
 21
14.492
  0
LINE
  8
0
 10
-5.72595
 20
14.492
 11
-5.78979
 21
14.3486
  0
LINE
  8
0
 10
-5.78979
 20
14.3486
 11
-5.79355
 21
14.3503
  0
LINE
  8
0
 10
-5.79355
 20
14.3503
 11
-5.83867
 21
14.2557
  0
LINE
  8
0
 10
-5.83867
 20
14.2557
 11
-5.84067
 21
14.2566
  0
LINE
  8
0
 10
-5.84067
 20
14.2566
 11
-6.58836
 21
12.689
  0
LINE
  8
0
 10
-6.58836
 20
12.689
 11
-7.68214
 21
10.904
  0
LINE
  8
0
 10
-7.68214
 20
10.904
 11
-8.95653
 21
9.24315
  0
LINE
  8
0
 10
-8.95653
 20
9.24315
 11
-10.7822
 21
7.36897
  0
LINE
  8
0
 10
-10.7822
 20
7.36897
 11
-11.6172
 21
6.61717
  0
LINE
  8
0
 10
-11.6172
 20
6.61717
 11
-11.8244
 21
6.38702
  0
LINE
  8
0
 10
-11.8244
 20
6.38702
 11
-12.0064
 21
6.13661
  0
LINE
  8
0
 10
-12.0064
 20
6.13661
 11
-12.1614
 21
5.86807
  0
LINE
  8
0
 10
-12.1614
 20
5.86807
 11
-12.2872
 21
5.58543
  0
LINE
  8
0
 10
-12.2872
 20
5.58543
 11
-12.383
 21
5.29071
  0
LINE
  8
0
 10
-12.383
 20
5.29071
 11
-12.4474
 21
4.98776
  0
LINE
  8
0
 10
-12.4474
 20
4.98776
 11
-12.5136
 21
4.35777
  0
LINE
  8
0
 10
-12.5136
 20
4.35777
 11
-12.525
 21
3.9229
  0
LINE
  8
0
 10
-12.525
 20
3.9229
 11
-12.525
 21
-57.7582
  0
LINE
  8
0
 10
-12.525
 20
-57.7582
 11
-12.6346
 21
-59.8488
  0
LINE
  8
0
 10
-12.6346
 20
-59.8488
 11
-12.962
 21
-61.9164
  0
LINE
  8
0
 10
-12.962
 20
-61.9164
 11
-13.5039
 21
-63.9386
  0
LINE
  8
0
 10
-13.5039
 20
-63.9386
 11
-14.2541
 21
-65.8929
  0
LINE
  8
0
 10
-14.2541
 20
-65.8929
 11
-15.2045
 21
-67.7582
  0
LINE
  8
0
 10
-15.2045
 20
-67.7582
 11
-16.3447
 21
-69.5139
  0
LINE
  8
0
 10
-16.3447
 20
-69.5139
 11
-17.6621
 21
-71.1408
  0
LINE
  8
0
 10
-17.6621
 20
-71.1408
 11
-19.1424
 21
-72.6211
  0
LINE
  8
0
 10
-19.1424
 20
-72.6211
 11
-20.7693
 21
-73.9386
  0
LINE
  8
0
 10
-20.7693
 20
-73.9386
 11
-22.5254
 21
-75.0789
  0
LINE
  8
0
 10
-22.5254
 20
-75.0789
 11
-22.9135
 21
-75.303
  0
LINE
  8
0
 10
-22.9135
 20
-75.303
 11
-23.3597
 21
-75.6272
  0
LINE
  8
0
 10
-23.3597
 20
-75.6272
 11
-23.4926
 21
-75.7407
  0
LINE
  8
0
 10
-23.4926
 20
-75.7407
 11
-25.1535
 21
-77.0151
  0
LINE
  8
0
 10
-25.1535
 20
-77.0151
 11
-27.2155
 21
-78.2566
  0
LINE
  8
0
 10
-27.2155
 20
-78.2566
 11
-41.7099
 21
-85.834
  0
LINE
  8
0
 10
-41.7099
 20
-85.834
 11
-42.0906
 21
-86.0459
  0
LINE
  8
0
 10
-42.0906
 20
-86.0459
 11
-42.6179
 21
-86.3963
  0
LINE
  8
0
 10
-42.6179
 20
-86.3963
 11
-42.8567
 21
-86.5938
  0
LINE
  8
0
 10
-42.8567
 20
-86.5938
 11
-43.0734
 21
-86.8152
  0
LINE
  8
0
 10
-43.0734
 20
-86.8152
 11
-43.2657
 21
-87.0578
  0
LINE
  8
0
 10
-43.2657
 20
-87.0578
 11
-43.4319
 21
-87.3195
  0
LINE
  8
0
 10
-43.4319
 20
-87.3195
 11
-43.5694
 21
-87.5965
  0
LINE
  8
0
 10
-43.5694
 20
-87.5965
 11
-43.6773
 21
-87.8869
  0
LINE
  8
0
 10
-43.6773
 20
-87.8869
 11
-43.7545
 21
-88.1872
  0
LINE
  8
0
 10
-43.7545
 20
-88.1872
 11
-43.7996
 21
-88.4931
  0
LINE
  8
0
 10
-43.7996
 20
-88.4931
 11
-43.8126
 21
-88.8035
  0
LINE
  8
0
 10
-37.6922
 20
-91.0965
 11
-36.9832
 21
-90.7258
  0
LINE
  8
0
 10
-36.9832
 20
-90.7258
 11
-37.4465
 21
-89.8396
  0
LINE
  8
0
 10
-37.4465
 20
-89.8396
 11
-25.0397
 21
-83.3535
  0
LINE
  8
0
 10
-25.0397
 20
-83.3535
 11
-24.5764
 21
-84.2397
  0
LINE
  8
0
 10
-24.5764
 20
-84.2397
 11
-23.8674
 21
-83.8691
  0
LINE
  8
0
 10
-23.8674
 20
-83.8691
 11
-22.2458
 21
-86.9708
  0
LINE
  8
0
 10
-22.2458
 20
-86.9708
 11
-22.9548
 21
-87.3414
  0
LINE
  8
0
 10
-22.9548
 20
-87.3414
 11
-20.6383
 21
-91.7724
  0
LINE
  8
0
 10
-20.6383
 20
-91.7724
 11
-19.9294
 21
-91.4018
  0
LINE
  8
0
 10
-19.9294
 20
-91.4018
 11
-18.3078
 21
-94.5035
  0
LINE
  8
0
 10
-18.3078
 20
-94.5035
 11
-19.0168
 21
-94.8741
  0
LINE
  8
0
 10
-19.0168
 20
-94.8741
 11
-18.5535
 21
-95.7603
  0
LINE
  8
0
 10
-18.5535
 20
-95.7603
 11
-30.9604
 21
-102.246
  0
LINE
  8
0
 10
-30.9604
 20
-102.246
 11
-31.4236
 21
-101.36
  0
LINE
  8
0
 10
-31.4236
 20
-101.36
 11
-32.1326
 21
-101.731
  0
LINE
  8
0
 10
-32.1326
 20
-101.731
 11
-33.7541
 21
-98.6292
  0
LINE
  8
0
 10
-33.7541
 20
-98.6292
 11
-33.0452
 21
-98.2586
  0
LINE
  8
0
 10
-33.0452
 20
-98.2586
 11
-35.3617
 21
-93.8276
  0
LINE
  8
0
 10
-35.3617
 20
-93.8276
 11
-36.0706
 21
-94.1982
  0
LINE
  8
0
 10
-36.0706
 20
-94.1982
 11
-37.6922
 21
-91.0965
  0
LINE
  8
0
 10
-18.5723
 20
-80.604
 11
-17.8115
 21
-80.3568
  0
LINE
  8
0
 10
-17.8115
 20
-80.3568
 11
-18.1205
 21
-79.4057
  0
LINE
  8
0
 10
-18.1205
 20
-79.4057
 11
-4.80573
 21
-75.0795
  0
LINE
  8
0
 10
-4.80573
 20
-75.0795
 11
-4.4967
 21
-76.0305
  0
LINE
  8
0
 10
-4.4967
 20
-76.0305
 11
-3.73586
 21
-75.7833
  0
LINE
  8
0
 10
-3.73586
 20
-75.7833
 11
-2.6543
 21
-79.112
  0
LINE
  8
0
 10
-2.6543
 20
-79.112
 11
-3.41515
 21
-79.3592
  0
LINE
  8
0
 10
-3.41515
 20
-79.3592
 11
-1.87007
 21
-84.1145
  0
LINE
  8
0
 10
-1.87007
 20
-84.1145
 11
-1.10922
 21
-83.8673
  0
LINE
  8
0
 10
-1.10922
 20
-83.8673
 11
-0.0276642
 21
-87.196
  0
LINE
  8
0
 10
-0.0276642
 20
-87.196
 11
-0.788513
 21
-87.4432
  0
LINE
  8
0
 10
-0.788513
 20
-87.4432
 11
-0.479492
 21
-88.3943
  0
LINE
  8
0
 10
-0.479492
 20
-88.3943
 11
-13.7943
 21
-92.7205
  0
LINE
  8
0
 10
-13.7943
 20
-92.7205
 11
-14.1033
 21
-91.7695
  0
LINE
  8
0
 10
-14.1033
 20
-91.7695
 11
-14.8641
 21
-92.0167
  0
LINE
  8
0
 10
-14.8641
 20
-92.0167
 11
-15.9457
 21
-88.688
  0
LINE
  8
0
 10
-15.9457
 20
-88.688
 11
-15.1849
 21
-88.4408
  0
LINE
  8
0
 10
-15.1849
 20
-88.4408
 11
-16.7299
 21
-83.6855
  0
LINE
  8
0
 10
-16.7299
 20
-83.6855
 11
-17.4908
 21
-83.9327
  0
LINE
  8
0
 10
-17.4908
 20
-83.9327
 11
-18.5723
 21
-80.604
  0
LINE
  8
0
 10
-7.79999
 20
-68.15
 11
-7.79999
 21
-64.65
  0
LINE
  8
0
 10
-7.79999
 20
-64.65
 11
-7
 21
-64.65
  0
LINE
  8
0
 10
-7
 20
-64.65
 11
-7
 21
-59.65
  0
LINE
  8
0
 10
-7
 20
-59.65
 11
-7.79999
 21
-59.65
  0
LINE
  8
0
 10
-7.79999
 20
-59.65
 11
-7.79999
 21
-56.15
  0
LINE
  8
0
 10
-7.79999
 20
-56.15
 11
-7
 21
-56.15
  0
LINE
  8
0
 10
-7
 20
-56.15
 11
-7
 21
-55.15
  0
LINE
  8
0
 10
-7
 20
-55.15
 11
6.99998
 21
-55.15
  0
LINE
  8
0
 10
6.99998
 20
-55.15
 11
6.99998
 21
-56.15
  0
LINE
  8
0
 10
6.99998
 20
-56.15
 11
7.79999
 21
-56.15
  0
LINE
  8
0
 10
7.79999
 20
-56.15
 11
7.79999
 21
-59.65
  0
LINE
  8
0
 10
7.79999
 20
-59.65
 11
6.99998
 21
-59.65
  0
LINE
  8
0
 10
6.99998
 20
-59.65
 11
6.99998
 21
-64.65
  0
LINE
  8
0
 10
6.99998
 20
-64.65
 11
7.79999
 21
-64.65
  0
LINE
  8
0
 10
7.79999
 20
-64.65
 11
7.79999
 21
-68.15
  0
LINE
  8
0
 10
7.79999
 20
-68.15
 11
6.99998
 21
-68.15
  0
LINE
  8
0
 10
6.99998
 20
-68.15
 11
6.99998
 21
-69.15
  0
LINE
  8
0
 10
6.99998
 20
-69.15
 11
-7
 21
-69.15
  0
LINE
  8
0
 10
-7
 20
-69.15
 11
-7
 21
-68.15
  0
LINE
  8
0
 10
-7
 20
-68.15
 11
-7.79999
 21
-68.15
  0
LINE
  8
0
 10
-7.79999
 20
-49.1
 11
-7.79999
 21
-45.6
  0
LINE
  8
0
 10
-7.79999
 20
-45.6
 11
-7
 21
-45.6
  0
LINE
  8
0
 10
-7
 20
-45.6
 11
-7
 21
-40.6
  0
LINE
  8
0
 10
-7
 20
-40.6
 11
-7.79999
 21
-40.6
  0
LINE
  8
0
 10
-7.79999
 20
-40.6
 11
-7.79999
 21
-37.1
  0
LINE
  8
0
 10
-7.79999
 20
-37.1
 11
-7
 21
-37.1
  0
LINE
  8
0
 10
-7
 20
-37.1
 11
-7
 21
-36.1
  0
LINE
  8
0
 10
-7
 20
-36.1
 11
6.99998
 21
-36.1
  0
LINE
  8
0
 10
6.99998
 20
-36.1
 11
6.99998
 21
-37.1
  0
LINE
  8
0
 10
6.99998
 20
-37.1
 11
7.79999
 21
-37.1
  0
LINE
  8
0
 10
7.79999
 20
-37.1
 11
7.79999
 21
-40.6
  0
LINE
  8
0
 10
7.79999
 20
-40.6
 11
6.99998
 21
-40.6
  0
LINE
  8
0
 10
6.99998
 20
-40.6
 11
6.99998
 21
-45.6
  0
LINE
  8
0
 10
6.99998
 20
-45.6
 11
7.79999
 21
-45.6
  0
LINE
  8
0
 10
7.79999
 20
-45.6
 11
7.79999
 21
-49.1
  0
LINE
  8
0
 10
7.79999
 20
-49.1
 11
6.99998
 21
-49.1
  0
LINE
  8
0
 10
6.99998
 20
-49.1
 11
6.99998
 21
-50.1
  0
LINE
  8
0
 10
6.99998
 20
-50.1
 11
-7
 21
-50.1
  0
LINE
  8
0
 10
-7
 20
-50.1
 11
-7
 21
-49.1
  0
LINE
  8
0
 10
-7
 20
-49.1
 11
-7.79999
 21
-49.1
  0
LINE
  8
0
 10
-7.79999
 20
-30.05
 11
-7.79999
 21
-26.55
  0
LINE
  8
0
 10
-7.79999
 20
-26.55
 11
-7
 21
-26.55
  0
LINE
  8
0
 10
-7
 20
-26.55
 11
-7
 21
-21.55
  0
LINE
  8
0
 10
-7
 20
-21.55
 11
-7.79999
 21
-21.55
  0
LINE
  8
0
 10
-7.79999
 20
-21.55
 11
-7.79999
 21
-18.05
  0
LINE
  8
0
 10
-7.79999
 20
-18.05
 11
-7
 21
-18.05
  0
LINE
  8
0
 10
-7
 20
-18.05
 11
-7
 21
-17.05
  0
LINE
  8
0
 10
-7
 20
-17.05
 11
6.99998
 21
-17.05
  0
LINE
  8
0
 10
6.99998
 20
-17.05
 11
6.99998
 21
-18.05
  0
LINE
  8
0
 10
6.99998
 20
-18.05
 11
7.79999
 21
-18.05
  0
LINE
  8
0
 10
7.79999
 20
-18.05
 11
7.79999
 21
-21.55
  0
LINE
  8
0
 10
7.79999
 20
-21.55
 11
6.99998
 21
-21.55
  0
LINE
  8
0
 10
6.99998
 20
-21.55
 11
6.99998
 21
-26.55
  0
LINE
  8
0
 10
6.99998
 20
-26.55
 11
7.79999
 21
-26.55
  0
LINE
  8
0
 10
7.79999
 20
-26.55
 11
7.79999
 21
-30.05
  0
LINE
  8
0
 10
7.79999
 20
-30.05
 11
6.99998
 21
-30.05
  0
LINE
  8
0
 10
6.99998
 20
-30.05
 11
6.99998
 21
-31.05
  0
LINE
  8
0
 10
6.99998
 20
-31.05
 11
-7
 21
-31.05
  0
LINE
  8
0
 10
-7
 20
-31.05
 11
-7
 21
-30.05
  0
LINE
  8
0
 10
-7
 20
-30.05
 11
-7.79999
 21
-30.05
  0
LINE
  8
0
 10
-7.79999
 20
-11
 11
-7.79999
 21
-7.5
  0
LINE
  8
0
 10
-7.79999
 20
-7.5
 11
-7
 21
-7.5
  0
LINE
  8
0
 10
-7
 20
-7.5
 11
-7
 21
-2.5
  0
LINE
  8
0
 10
-7
 20
-2.5
 11
-7.79999
 21
-2.5
  0
LINE
  8
0
 10
-7.79999
 20
-2.5
 11
-7.79999
 21
1
  0
LINE
  8
0
 10
-7.79999
 20
1
 11
-7
 21
1
  0
LINE
  8
0
 10
-7
 20
1
 11
-7
 21
2
  0
LINE
  8
0
 10
-7
 20
2
 11
6.99998
 21
2
  0
LINE
  8
0
 10
6.99998
 20
2
 11
6.99998
 21
1
  0
LINE
  8
0
 10
6.99998
 20
1
 11
7.79999
 21
1
  0
LINE
  8
0
 10
7.79999
 20
1
 11
7.79999
 21
-2.5
  0
LINE
  8
0
 10
7.79999
 20
-2.5
 11
6.99998
 21
-2.5
  0
LINE
  8
0
 10
6.99998
 20
-2.5
 11
6.99998
 21
-7.5
  0
LINE
  8
0
 10
6.99998
 20
-7.5
 11
7.79999
 21
-7.5
  0
LINE
  8
0
 10
7.79999
 20
-7.5
 11
7.79999
 21
-11
  0
LINE
  8
0
 10
7.79999
 20
-11
 11
6.99998
 21
-11
  0
LINE
  8
0
 10
6.99998
 20
-11
 11
6.99998
 21
-12
  0
LINE
  8
0
 10
6.99998
 20
-12
 11
-7
 21
-12
  0
LINE
  8
0
 10
-7
 20
-12
 11
-7
 21
-11
  0
LINE
  8
0
 10
-7
 20
-11
 11
-7.79999
 21
-11
  0
LINE
  8
0
 10
4.96207
 20
-87.5637
 11
5.36435
 21
-84.0869
  0
LINE
  8
0
 10
5.36435
 20
-84.0869
 11
6.15903
 21
-84.1789
  0
LINE
  8
0
 10
6.15903
 20
-84.1789
 11
6.73372
 21
-79.212
  0
LINE
  8
0
 10
6.73372
 20
-79.212
 11
5.93903
 21
-79.1201
  0
LINE
  8
0
 10
5.93903
 20
-79.1201
 11
6.34131
 21
-75.6432
  0
LINE
  8
0
 10
6.34131
 20
-75.6432
 11
7.13599
 21
-75.7352
  0
LINE
  8
0
 10
7.13599
 20
-75.7352
 11
7.25093
 21
-74.7418
  0
LINE
  8
0
 10
7.25093
 20
-74.7418
 11
21.1581
 21
-76.3509
  0
LINE
  8
0
 10
21.1581
 20
-76.3509
 11
21.0432
 21
-77.3443
  0
LINE
  8
0
 10
21.0432
 20
-77.3443
 11
21.8379
 21
-77.4363
  0
LINE
  8
0
 10
21.8379
 20
-77.4363
 11
21.4356
 21
-80.9131
  0
LINE
  8
0
 10
21.4356
 20
-80.9131
 11
20.6409
 21
-80.8211
  0
LINE
  8
0
 10
20.6409
 20
-80.8211
 11
20.0663
 21
-85.788
  0
LINE
  8
0
 10
20.0663
 20
-85.788
 11
20.8609
 21
-85.8799
  0
LINE
  8
0
 10
20.8609
 20
-85.8799
 11
20.4587
 21
-89.3567
  0
LINE
  8
0
 10
20.4587
 20
-89.3567
 11
19.664
 21
-89.2648
  0
LINE
  8
0
 10
19.664
 20
-89.2648
 11
19.549
 21
-90.2582
  0
LINE
  8
0
 10
19.549
 20
-90.2582
 11
5.64182
 21
-88.649
  0
LINE
  8
0
 10
5.64182
 20
-88.649
 11
5.75674
 21
-87.6557
  0
LINE
  8
0
 10
5.75674
 20
-87.6557
 11
4.96207
 21
-87.5637
  0
LINE
  8
0
 10
11.25
 20
-63.15
 11
11.25
 21
-59.65
  0
LINE
  8
0
 10
11.25
 20
-59.65
 11
12.05
 21
-59.65
  0
LINE
  8
0
 10
12.05
 20
-59.65
 11
12.05
 21
-54.65
  0
LINE
  8
0
 10
12.05
 20
-54.65
 11
11.25
 21
-54.65
  0
LINE
  8
0
 10
11.25
 20
-54.65
 11
11.25
 21
-51.15
  0
LINE
  8
0
 10
11.25
 20
-51.15
 11
12.05
 21
-51.15
  0
LINE
  8
0
 10
12.05
 20
-51.15
 11
12.05
 21
-50.15
  0
LINE
  8
0
 10
12.05
 20
-50.15
 11
26.05
 21
-50.15
  0
LINE
  8
0
 10
26.05
 20
-50.15
 11
26.05
 21
-51.15
  0
LINE
  8
0
 10
26.05
 20
-51.15
 11
26.85
 21
-51.15
  0
LINE
  8
0
 10
26.85
 20
-51.15
 11
26.85
 21
-54.65
  0
LINE
  8
0
 10
26.85
 20
-54.65
 11
26.05
 21
-54.65
  0
LINE
  8
0
 10
26.05
 20
-54.65
 11
26.05
 21
-59.65
  0
LINE
  8
0
 10
26.05
 20
-59.65
 11
26.85
 21
-59.65
  0
LINE
  8
0
 10
26.85
 20
-59.65
 11
26.85
 21
-63.15
  0
LINE
  8
0
 10
26.85
 20
-63.15
 11
26.05
 21
-63.15
  0
LINE
  8
0
 10
26.05
 20
-63.15
 11
26.05
 21
-64.15
  0
LINE
  8
0
 10
26.05
 20
-64.15
 11
12.05
 21
-64.15
  0
LINE
  8
0
 10
12.05
 20
-64.15
 11
12.05
 21
-63.15
  0
LINE
  8
0
 10
12.05
 20
-63.15
 11
11.25
 21
-63.15
  0
LINE
  8
0
 10
11.25
 20
-44.1
 11
11.25
 21
-40.6
  0
LINE
  8
0
 10
11.25
 20
-40.6
 11
12.05
 21
-40.6
  0
LINE
  8
0
 10
12.05
 20
-40.6
 11
12.05
 21
-35.6
  0
LINE
  8
0
 10
12.05
 20
-35.6
 11
11.25
 21
-35.6
  0
LINE
  8
0
 10
11.25
 20
-35.6
 11
11.25
 21
-32.1
  0
LINE
  8
0
 10
11.25
 20
-32.1
 11
12.05
 21
-32.1
  0
LINE
  8
0
 10
12.05
 20
-32.1
 11
12.05
 21
-31.1
  0
LINE
  8
0
 10
12.05
 20
-31.1
 11
26.05
 21
-31.1
  0
LINE
  8
0
 10
26.05
 20
-31.1
 11
26.05
 21
-32.1
  0
LINE
  8
0
 10
26.05
 20
-32.1
 11
26.85
 21
-32.1
  0
LINE
  8
0
 10
26.85
 20
-32.1
 11
26.85
 21
-35.6
  0
LINE
  8
0
 10
26.85
 20
-35.6
 11
26.05
 21
-35.6
  0
LINE
  8
0
 10
26.05
 20
-35.6
 11
26.05
 21
-40.6
  0
LINE
  8
0
 10
26.05
 20
-40.6
 11
26.85
 21
-40.6
  0
LINE
  8
0
 10
26.85
 20
-40.6
 11
26.85
 21
-44.1
  0
LINE
  8
0
 10
26.85
 20
-44.1
 11
26.05
 21
-44.1
  0
LINE
  8
0
 10
26.05
 20
-44.1
 11
26.05
 21
-45.1
  0
LINE
  8
0
 10
26.05
 20
-45.1
 11
12.05
 21
-45.1
  0
LINE
  8
0
 10
12.05
 20
-45.1
 11
12.05
 21
-44.1
  0
LINE
  8
0
 10
12.05
 20
-44.1
 11
11.25
 21
-44.1
  0
LINE
  8
0
 10
11.25
 20
-25.05
 11
11.25
 21
-21.55
  0
LINE
  8
0
 10
11.25
 20
-21.55
 11
12.05
 21
-21.55
  0
LINE
  8
0
 10
12.05
 20
-21.55
 11
12.05
 21
-16.55
  0
LINE
  8
0
 10
12.05
 20
-16.55
 11
11.25
 21
-16.55
  0
LINE
  8
0
 10
11.25
 20
-16.55
 11
11.25
 21
-13.05
  0
LINE
  8
0
 10
11.25
 20
-13.05
 11
12.05
 21
-13.05
  0
LINE
  8
0
 10
12.05
 20
-13.05
 11
12.05
 21
-12.05
  0
LINE
  8
0
 10
12.05
 20
-12.05
 11
26.05
 21
-12.05
  0
LINE
  8
0
 10
26.05
 20
-12.05
 11
26.05
 21
-13.05
  0
LINE
  8
0
 10
26.05
 20
-13.05
 11
26.85
 21
-13.05
  0
LINE
  8
0
 10
26.85
 20
-13.05
 11
26.85
 21
-16.55
  0
LINE
  8
0
 10
26.85
 20
-16.55
 11
26.05
 21
-16.55
  0
LINE
  8
0
 10
26.05
 20
-16.55
 11
26.05
 21
-21.55
  0
LINE
  8
0
 10
26.05
 20
-21.55
 11
26.85
 21
-21.55
  0
LINE
  8
0
 10
26.85
 20
-21.55
 11
26.85
 21
-25.05
  0
LINE
  8
0
 10
26.85
 20
-25.05
 11
26.05
 21
-25.05
  0
LINE
  8
0
 10
26.05
 20
-25.05
 11
26.05
 21
-26.05
  0
LINE
  8
0
 10
26.05
 20
-26.05
 11
12.05
 21
-26.05
  0
LINE
  8
0
 10
12.05
 20
-26.05
 11
12.05
 21
-25.05
  0
LINE
  8
0
 10
12.05
 20
-25.05
 11
11.25
 21
-25.05
  0
LINE
  8
0
 10
11.25
 20
-6
 11
11.25
 21
-2.5
  0
LINE
  8
0
 10
11.25
 20
-2.5
 11
12.05
 21
-2.5
  0
LINE
  8
0
 10
12.05
 20
-2.5
 11
12.05
 21
2.5
  0
LINE
  8
0
 10
12.05
 20
2.5
 11
11.25
 21
2.5
  0
LINE
  8
0
 10
11.25
 20
2.5
 11
11.25
 21
6
  0
LINE
  8
0
 10
11.25
 20
6
 11
12.05
 21
6
  0
LINE
  8
0
 10
12.05
 20
6
 11
12.05
 21
7
  0
LINE
  8
0
 10
12.05
 20
7
 11
26.05
 21
7
  0
LINE
  8
0
 10
26.05
 20
7
 11
26.05
 21
6
  0
LINE
  8
0
 10
26.05
 20
6
 11
26.85
 21
6
  0
LINE
  8
0
 10
26.85
 20
6
 11
26.85
 21
2.5
  0
LINE
  8
0
 10
26.85
 20
2.5
 11
26.05
 21
2.5
  0
LINE
  8
0
 10
26.05
 20
2.5
 11
26.05
 21
-2.5
  0
LINE
  8
0
 10
26.05
 20
-2.5
 11
26.85
 21
-2.5
  0
LINE
  8
0
 10
26.85
 20
-2.5
 11
26.85
 21
-6
  0
LINE
  8
0
 10
26.85
 20
-6
 11
26.05
 21
-6
  0
LINE
  8
0
 10
26.05
 20
-6
 11
26.05
 21
-7
  0
LINE
  8
0
 10
26.05
 20
-7
 11
12.05
 21
-7
  0
LINE
  8
0
 10
12.05
 20
-7
 11
12.05
 21
-6
  0
LINE
  8
0
 10
12.05
 20
-6
 11
11.25
 21
-6
  0
LINE
  8
0
 10
30.3
 20
-53.15
 11
30.3
 21
-49.65
  0
LINE
  8
0
 10
30.3
 20
-49.65
 11
31.1
 21
-49.65
  0
LINE
  8
0
 10
31.1
 20
-49.65
 11
31.1
 21
-44.65
  0
LINE
  8
0
 10
31.1
 20
-44.65
 11
30.3
 21
-44.65
  0
LINE
  8
0
 10
30.3
 20
-44.65
 11
30.3
 21
-41.15
  0
LINE
  8
0
 10
30.3
 20
-41.15
 11
31.1
 21
-41.15
  0
LINE
  8
0
 10
31.1
 20
-41.15
 11
31.1
 21
-40.15
  0
LINE
  8
0
 10
31.1
 20
-40.15
 11
45.1
 21
-40.15
  0
LINE
  8
0
 10
45.1
 20
-40.15
 11
45.1
 21
-41.15
  0
LINE
  8
0
 10
45.1
 20
-41.15
 11
45.9
 21
-41.15
  0
LINE
  8
0
 10
45.9
 20
-41.15
 11
45.9
 21
-44.65
  0
LINE
  8
0
 10
45.9
 20
-44.65
 11
45.1
 21
-44.65
  0
LINE
  8
0
 10
45.1
 20
-44.65
 11
45.1
 21
-49.65
  0
LINE
  8
0
 10
45.1
 20
-49.65
 11
45.9
 21
-49.65
  0
LINE
  8
0
 10
45.9
 20
-49.65
 11
45.9
 21
-53.15
  0
LINE
  8
0
 10
45.9
 20
-53.15
 11
45.1
 21
-53.15
  0
LINE
  8
0
 10
45.1
 20
-53.15
 11
45.1
 21
-54.15
  0
LINE
  8
0
 10
45.1
 20
-54.15
 11
31.1
 21
-54.15
  0
LINE
  8
0
 10
31.1
 20
-54.15
 11
31.1
 21
-53.15
  0
LINE
  8
0
 10
31.1
 20
-53.15
 11
30.3
 21
-53.15
  0
LINE
  8
0
 10
30.3
 20
-34.1
 11
30.3
 21
-30.6
  0
LINE
  8
0
 10
30.3
 20
-30.6
 11
31.1
 21
-30.6
  0
LINE
  8
0
 10
31.1
 20
-30.6
 11
31.1
 21
-25.6
  0
LINE
  8
0
 10
31.1
 20
-25.6
 11
30.3
 21
-25.6
  0
LINE
  8
0
 10
30.3
 20
-25.6
 11
30.3
 21
-22.1
  0
LINE
  8
0
 10
30.3
 20
-22.1
 11
31.1
 21
-22.1
  0
LINE
  8
0
 10
31.1
 20
-22.1
 11
31.1
 21
-21.1
  0
LINE
  8
0
 10
31.1
 20
-21.1
 11
45.1
 21
-21.1
  0
LINE
  8
0
 10
45.1
 20
-21.1
 11
45.1
 21
-22.1
  0
LINE
  8
0
 10
45.1
 20
-22.1
 11
45.9
 21
-22.1
  0
LINE
  8
0
 10
45.9
 20
-22.1
 11
45.9
 21
-25.6
  0
LINE
  8
0
 10
45.9
 20
-25.6
 11
45.1
 21
-25.6
  0
LINE
  8
0
 10
45.1
 20
-25.6
 11
45.1
 21
-30.6
  0
LINE
  8
0
 10
45.1
 20
-30.6
 11
45.9
 21
-30.6
  0
LINE
  8
0
 10
45.9
 20
-30.6
 11
45.9
 21
-34.1
  0
LINE
  8
0
 10
45.9
 20
-34.1
 11
45.1
 21
-34.1
  0
LINE
  8
0
 10
45.1
 20
-34.1
 11
45.1
 21
-35.1
  0
LINE
  8
0
 10
45.1
 20
-35.1
 11
31.1
 21
-35.1
  0
LINE
  8
0
 10
31.1
 20
-35.1
 11
31.1
 21
-34.1
  0
LINE
  8
0
 10
31.1
 20
-34.1
 11
30.3
 21
-34.1
  0
LINE
  8
0
 10
30.3
 20
-15.05
 11
30.3
 21
-11.55
  0
LINE
  8
0
 10
30.3
 20
-11.55
 11
31.1
 21
-11.55
  0
LINE
  8
0
 10
31.1
 20
-11.55
 11
31.1
 21
-6.54999
  0
LINE
  8
0
 10
31.1
 20
-6.54999
 11
30.3
 21
-6.54999
  0
LINE
  8
0
 10
30.3
 20
-6.54999
 11
30.3
 21
-3.04999
  0
LINE
  8
0
 10
30.3
 20
-3.04999
 11
31.1
 21
-3.04999
  0
LINE
  8
0
 10
31.1
 20
-3.04999
 11
31.1
 21
-2.04999
  0
LINE
  8
0
 10
31.1
 20
-2.04999
 11
45.1
 21
-2.04999
  0
LINE
  8
0
 10
45.1
 20
-2.04999
 11
45.1
 21
-3.04999
  0
LINE
  8
0
 10
45.1
 20
-3.04999
 11
45.9
 21
-3.04999
  0
LINE
  8
0
 10
45.9
 20
-3.04999
 11
45.9
 21
-6.54999
  0
LINE
  8
0
 10
45.9
 20
-6.54999
 11
45.1
 21
-6.54999
  0
LINE
  8
0
 10
45.1
 20
-6.54999
 11
45.1
 21
-11.55
  0
LINE
  8
0
 10
45.1
 20
-11.55
 11
45.9
 21
-11.55
  0
LINE
  8
0
 10
45.9
 20
-11.55
 11
45.9
 21
-15.05
  0
LINE
  8
0
 10
45.9
 20
-15.05
 11
45.1
 21
-15.05
  0
LINE
  8
0
 10
45.1
 20
-15.05
 11
45.1
 21
-16.05
  0
LINE
  8
0
 10
45.1
 20
-16.05
 11
31.1
 21
-16.05
  0
LINE
  8
0
 10
31.1
 20
-16.05
 11
31.1
 21
-15.05
  0
LINE
  8
0
 10
31.1
 20
-15.05
 11
30.3
 21
-15.05
  0
LINE
  8
0
 10
30.3
 20
4
 11
30.3
 21
7.5
  0
LINE
  8
0
 10
30.3
 20
7.5
 11
31.1
 21
7.5
  0
LINE
  8
0
 10
31.1
 20
7.5
 11
31.1
 21
12.5
  0
LINE
  8
0
 10
31.1
 20
12.5
 11
30.3
 21
12.5
  0
LINE
  8
0
 10
30.3
 20
12.5
 11
30.3
 21
16
  0
LINE
  8
0
 10
30.3
 20
16
 11
31.1
 21
16
  0
LINE
  8
0
 10
31.1
 20
16
 11
31.1
 21
17
  0
LINE
  8
0
 10
31.1
 20
17
 11
45.1
 21
17
  0
LINE
  8
0
 10
45.1
 20
17
 11
45.1
 21
16
  0
LINE
  8
0
 10
45.1
 20
16
 11
45.9
 21
16
  0
LINE
  8
0
 10
45.9
 20
16
 11
45.9
 21
12.5
  0
LINE
  8
0
 10
45.9
 20
12.5
 11
45.1
 21
12.5
  0
LINE
  8
0
 10
45.1
 20
12.5
 11
45.1
 21
7.5
  0
LINE
  8
0
 10
45.1
 20
7.5
 11
45.9
 21
7.5
  0
LINE
  8
0
 10
45.9
 20
7.5
 11
45.9
 21
4
  0
LINE
  8
0
 10
45.9
 20
4
 11
45.1
 21
4
  0
LINE
  8
0
 10
45.1
 20
4
 11
45.1
 21
3
  0
LINE
  8
0
 10
45.1
 20
3
 11
31.1
 21
3
  0
LINE
  8
0
 10
31.1
 20
3
 11
31.1
 21
4
  0
LINE
  8
0
 10
31.1
 20
4
 11
30.3
 21
4
  0
LINE
  8
0
 10
49.35
 20
-62.15
 11
49.35
 21
-58.65
  0
LINE
  8
0
 10
49.35
 20
-58.65
 11
50.15
 21
-58.65
  0
LINE
  8
0
 10
50.15
 20
-58.65
 11
50.15
 21
-53.65
  0
LINE
  8
0
 10
50.15
 20
-53.65
 11
49.35
 21
-53.65
  0
LINE
  8
0
 10
49.35
 20
-53.65
 11
49.35
 21
-50.15
  0
LINE
  8
0
 10
49.35
 20
-50.15
 11
50.15
 21
-50.15
  0
LINE
  8
0
 10
50.15
 20
-50.15
 11
50.15
 21
-49.15
  0
LINE
  8
0
 10
50.15
 20
-49.15
 11
64.15
 21
-49.15
  0
LINE
  8
0
 10
64.15
 20
-49.15
 11
64.15
 21
-50.15
  0
LINE
  8
0
 10
64.15
 20
-50.15
 11
64.95
 21
-50.15
  0
LINE
  8
0
 10
64.95
 20
-50.15
 11
64.95
 21
-53.65
  0
LINE
  8
0
 10
64.95
 20
-53.65
 11
64.15
 21
-53.65
  0
LINE
  8
0
 10
64.15
 20
-53.65
 11
64.15
 21
-58.65
  0
LINE
  8
0
 10
64.15
 20
-58.65
 11
64.95
 21
-58.65
  0
LINE
  8
0
 10
64.95
 20
-58.65
 11
64.95
 21
-62.15
  0
LINE
  8
0
 10
64.95
 20
-62.15
 11
64.15
 21
-62.15
  0
LINE
  8
0
 10
64.15
 20
-62.15
 11
64.15
 21
-63.15
  0
LINE
  8
0
 10
64.15
 20
-63.15
 11
50.15
 21
-63.15
  0
LINE
  8
0
 10
50.15
 20
-63.15
 11
50.15
 21
-62.15
  0
LINE
  8
0
 10
50.15
 20
-62.15
 11
49.35
 21
-62.15
  0
LINE
  8
0
 10
49.35
 20
-43.1
 11
49.35
 21
-39.6
  0
LINE
  8
0
 10
49.35
 20
-39.6
 11
50.15
 21
-39.6
  0
LINE
  8
0
 10
50.15
 20
-39.6
 11
50.15
 21
-34.6
  0
LINE
  8
0
 10
50.15
 20
-34.6
 11
49.35
 21
-34.6
  0
LINE
  8
0
 10
49.35
 20
-34.6
 11
49.35
 21
-31.1
  0
LINE
  8
0
 10
49.35
 20
-31.1
 11
50.15
 21
-31.1
  0
LINE
  8
0
 10
50.15
 20
-31.1
 11
50.15
 21
-30.1
  0
LINE
  8
0
 10
50.15
 20
-30.1
 11
64.15
 21
-30.1
  0
LINE
  8
0
 10
64.15
 20
-30.1
 11
64.15
 21
-31.1
  0
LINE
  8
0
 10
64.15
 20
-31.1
 11
64.95
 21
-31.1
  0
LINE
  8
0
 10
64.95
 20
-31.1
 11
64.95
 21
-34.6
  0
LINE
  8
0
 10
64.95
 20
-34.6
 11
64.15
 21
-34.6
  0
LINE
  8
0
 10
64.15
 20
-34.6
 11
64.15
 21
-39.6
  0
LINE
  8
0
 10
64.15
 20
-39.6
 11
64.95
 21
-39.6
  0
LINE
  8
0
 10
64.95
 20
-39.6
 11
64.95
 21
-43.1
  0
LINE
  8
0
 10
64.95
 20
-43.1
 11
64.15
 21
-43.1
  0
LINE
  8
0
 10
64.15
 20
-43.1
 11
64.15
 21
-44.1
  0
LINE
  8
0
 10
64.15
 20
-44.1
 11
50.15
 21
-44.1
  0
LINE
  8
0
 10
50.15
 20
-44.1
 11
50.15
 21
-43.1
  0
LINE
  8
0
 10
50.15
 20
-43.1
 11
49.35
 21
-43.1
  0
LINE
  8
0
 10
49.35
 20
-24.05
 11
49.35
 21
-20.55
  0
LINE
  8
0
 10
49.35
 20
-20.55
 11
50.15
 21
-20.55
  0
LINE
  8
0
 10
50.15
 20
-20.55
 11
50.15
 21
-15.55
  0
LINE
  8
0
 10
50.15
 20
-15.55
 11
49.35
 21
-15.55
  0
LINE
  8
0
 10
49.35
 20
-15.55
 11
49.35
 21
-12.05
  0
LINE
  8
0
 10
49.35
 20
-12.05
 11
50.15
 21
-12.05
  0
LINE
  8
0
 10
50.15
 20
-12.05
 11
50.15
 21
-11.05
  0
LINE
  8
0
 10
50.15
 20
-11.05
 11
64.15
 21
-11.05
  0
LINE
  8
0
 10
64.15
 20
-11.05
 11
64.15
 21
-12.05
  0
LINE
  8
0
 10
64.15
 20
-12.05
 11
64.95
 21
-12.05
  0
LINE
  8
0
 10
64.95
 20
-12.05
 11
64.95
 21
-15.55
  0
LINE
  8
0
 10
64.95
 20
-15.55
 11
64.15
 21
-15.55
  0
LINE
  8
0
 10
64.15
 20
-15.55
 11
64.15
 21
-20.55
  0
LINE
  8
0
 10
64.15
 20
-20.55
 11
64.95
 21
-20.55
  0
LINE
  8
0
 10
64.95
 20
-20.55
 11
64.95
 21
-24.05
  0
LINE
  8
0
 10
64.95
 20
-24.05
 11
64.15
 21
-24.05
  0
LINE
  8
0
 10
64.15
 20
-24.05
 11
64.15
 21
-25.05
  0
LINE
  8
0
 10
64.15
 20
-25.05
 11
50.15
 21
-25.05
  0
LINE
  8
0
 10
50.15
 20
-25.05
 11
50.15
 21
-24.05
  0
LINE
  8
0
 10
50.15
 20
-24.05
 11
49.35
 21
-24.05
  0
LINE
  8
0
 10
49.35
 20
-5
 11
49.35
 21
-1.5
  0
LINE
  8
0
 10
49.35
 20
-1.5
 11
50.15
 21
-1.5
  0
LINE
  8
0
 10
50.15
 20
-1.5
 11
50.15
 21
3.5
  0
LINE
  8
0
 10
50.15
 20
3.5
 11
49.35
 21
3.5
  0
LINE
  8
0
 10
49.35
 20
3.5
 11
49.35
 21
7
  0
LINE
  8
0
 10
49.35
 20
7
 11
50.15
 21
7
  0
LINE
  8
0
 10
50.15
 20
7
 11
50.15
 21
8
  0
LINE
  8
0
 10
50.15
 20
8
 11
64.15
 21
8
  0
LINE
  8
0
 10
64.15
 20
8
 11
64.15
 21
7
  0
LINE
  8
0
 10
64.15
 20
7
 11
64.95
 21
7
  0
LINE
  8
0
 10
64.95
 20
7
 11
64.95
 21
3.5
  0
LINE
  8
0
 10
64.95
 20
3.5
 11
64.15
 21
3.5
  0
LINE
  8
0
 10
64.15
 20
3.5
 11
64.15
 21
-1.5
  0
LINE
  8
0
 10
64.15
 20
-1.5
 11
64.95
 21
-1.5
  0
LINE
  8
0
 10
64.95
 20
-1.5
 11
64.95
 21
-5
  0
LINE
  8
0
 10
64.95
 20
-5
 11
64.15
 21
-5
  0
LINE
  8
0
 10
64.15
 20
-5
 11
64.15
 21
-6
  0
LINE
  8
0
 10
64.15
 20
-6
 11
50.15
 21
-6
  0
LINE
  8
0
 10
50.15
 20
-6
 11
50.15
 21
-5
  0
LINE
  8
0
 10
50.15
 20
-5
 11
49.35
 21
-5
  0
LINE
  8
0
 10
68.4
 20
-86.15
 11
68.4
 21
-82.65
  0
LINE
  8
0
 10
68.4
 20
-82.65
 11
69.2
 21
-82.65
  0
LINE
  8
0
 10
69.2
 20
-82.65
 11
69.2
 21
-77.65
  0
LINE
  8
0
 10
69.2
 20
-77.65
 11
68.4
 21
-77.65
  0
LINE
  8
0
 10
68.4
 20
-77.65
 11
68.4
 21
-74.15
  0
LINE
  8
0
 10
68.4
 20
-74.15
 11
69.2
 21
-74.15
  0
LINE
  8
0
 10
69.2
 20
-74.15
 11
69.2
 21
-73.15
  0
LINE
  8
0
 10
69.2
 20
-73.15
 11
83.2
 21
-73.15
  0
LINE
  8
0
 10
83.2
 20
-73.15
 11
83.2
 21
-74.15
  0
LINE
  8
0
 10
83.2
 20
-74.15
 11
84
 21
-74.15
  0
LINE
  8
0
 10
84
 20
-74.15
 11
84
 21
-77.65
  0
LINE
  8
0
 10
84
 20
-77.65
 11
83.2
 21
-77.65
  0
LINE
  8
0
 10
83.2
 20
-77.65
 11
83.2
 21
-82.65
  0
LINE
  8
0
 10
83.2
 20
-82.65
 11
84
 21
-82.65
  0
LINE
  8
0
 10
84
 20
-82.65
 11
84
 21
-86.15
  0
LINE
  8
0
 10
84
 20
-86.15
 11
83.2
 21
-86.15
  0
LINE
  8
0
 10
83.2
 20
-86.15
 11
83.2
 21
-87.15
  0
LINE
  8
0
 10
83.2
 20
-87.15
 11
69.2
 21
-87.15
  0
LINE
  8
0
 10
69.2
 20
-87.15
 11
69.2
 21
-86.15
  0
LINE
  8
0
 10
69.2
 20
-86.15
 11
68.4
 21
-86.15
  0
LINE
  8
0
 10
68.4
 20
-67.1
 11
68.4
 21
-63.6
  0
LINE
  8
0
 10
68.4
 20
-63.6
 11
69.2
 21
-63.6
  0
LINE
  8
0
 10
69.2
 20
-63.6
 11
69.2
 21
-58.6
  0
LINE
  8
0
 10
69.2
 20
-58.6
 11
68.4
 21
-58.6
  0
LINE
  8
0
 10
68.4
 20
-58.6
 11
68.4
 21
-55.1
  0
LINE
  8
0
 10
68.4
 20
-55.1
 11
69.2
 21
-55.1
  0
LINE
  8
0
 10
69.2
 20
-55.1
 11
69.2
 21
-54.1
  0
LINE
  8
0
 10
69.2
 20
-54.1
 11
83.2
 21
-54.1
  0
LINE
  8
0
 10
83.2
 20
-54.1
 11
83.2
 21
-55.1
  0
LINE
  8
0
 10
83.2
 20
-55.1
 11
84
 21
-55.1
  0
LINE
  8
0
 10
84
 20
-55.1
 11
84
 21
-58.6
  0
LINE
  8
0
 10
84
 20
-58.6
 11
83.2
 21
-58.6
  0
LINE
  8
0
 10
83.2
 20
-58.6
 11
83.2
 21
-63.6
  0
LINE
  8
0
 10
83.2
 20
-63.6
 11
84
 21
-63.6
  0
LINE
  8
0
 10
84
 20
-63.6
 11
84
 21
-67.1
  0
LINE
  8
0
 10
84
 20
-67.1
 11
83.2
 21
-67.1
  0
LINE
  8
0
 10
83.2
 20
-67.1
 11
83.2
 21
-68.1
  0
LINE
  8
0
 10
83.2
 20
-68.1
 11
69.2
 21
-68.1
  0
LINE
  8
0
 10
69.2
 20
-68.1
 11
69.2
 21
-67.1
  0
LINE
  8
0
 10
69.2
 20
-67.1
 11
68.4
 21
-67.1
  0
LINE
  8
0
 10
68.4
 20
-48.05
 11
68.4
 21
-44.55
  0
LINE
  8
0
 10
68.4
 20
-44.55
 11
69.2
 21
-44.55
  0
LINE
  8
0
 10
69.2
 20
-44.55
 11
69.2
 21
-39.55
  0
LINE
  8
0
 10
69.2
 20
-39.55
 11
68.4
 21
-39.55
  0
LINE
  8
0
 10
68.4
 20
-39.55
 11
68.4
 21
-36.05
  0
LINE
  8
0
 10
68.4
 20
-36.05
 11
69.2
 21
-36.05
  0
LINE
  8
0
 10
69.2
 20
-36.05
 11
69.2
 21
-35.05
  0
LINE
  8
0
 10
69.2
 20
-35.05
 11
83.2
 21
-35.05
  0
LINE
  8
0
 10
83.2
 20
-35.05
 11
83.2
 21
-36.05
  0
LINE
  8
0
 10
83.2
 20
-36.05
 11
84
 21
-36.05
  0
LINE
  8
0
 10
84
 20
-36.05
 11
84
 21
-39.55
  0
LINE
  8
0
 10
84
 20
-39.55
 11
83.2
 21
-39.55
  0
LINE
  8
0
 10
83.2
 20
-39.55
 11
83.2
 21
-44.55
  0
LINE
  8
0
 10
83.2
 20
-44.55
 11
84
 21
-44.55
  0
LINE
  8
0
 10
84
 20
-44.55
 11
84
 21
-48.05
  0
LINE
  8
0
 10
84
 20
-48.05
 11
83.2
 21
-48.05
  0
LINE
  8
0
 10
83.2
 20
-48.05
 11
83.2
 21
-49.05
  0
LINE
  8
0
 10
83.2
 20
-49.05
 11
69.2
 21
-49.05
  0
LINE
  8
0
 10
69.2
 20
-49.05
 11
69.2
 21
-48.05
  0
LINE
  8
0
 10
69.2
 20
-48.05
 11
68.4
 21
-48.05
  0
LINE
  8
0
 10
68.4
 20
-29
 11
68.4
 21
-25.5
  0
LINE
  8
0
 10
68.4
 20
-25.5
 11
69.2
 21
-25.5
  0
LINE
  8
0
 10
69.2
 20
-25.5
 11
69.2
 21
-20.5
  0
LINE
  8
0
 10
69.2
 20
-20.5
 11
68.4
 21
-20.5
  0
LINE
  8
0
 10
68.4
 20
-20.5
 11
68.4
 21
-17
  0
LINE
  8
0
 10
68.4
 20
-17
 11
69.2
 21
-17
  0
LINE
  8
0
 10
69.2
 20
-17
 11
69.2
 21
-16
  0
LINE
  8
0
 10
69.2
 20
-16
 11
83.2
 21
-16
  0
LINE
  8
0
 10
83.2
 20
-16
 11
83.2
 21
-17
  0
LINE
  8
0
 10
83.2
 20
-17
 11
84
 21
-17
  0
LINE
  8
0
 10
84
 20
-17
 11
84
 21
-20.5
  0
LINE
  8
0
 10
84
 20
-20.5
 11
83.2
 21
-20.5
  0
LINE
  8
0
 10
83.2
 20
-20.5
 11
83.2
 21
-25.5
  0
LINE
  8
0
 10
83.2
 20
-25.5
 11
84
 21
-25.5
  0
LINE
  8
0
 10
84
 20
-25.5
 11
84
 21
-29
  0
LINE
  8
0
 10
84
 20
-29
 11
83.2
 21
-29
  0
LINE
  8
0
 10
83.2
 20
-29
 11
83.2
 21
-30
  0
LINE
  8
0
 10
83.2
 20
-30
 11
69.2
 21
-30
  0
LINE
  8
0
 10
69.2
 20
-30
 11
69.2
 21
-29
  0
LINE
  8
0
 10
69.2
 20
-29
 11
68.4
 21
-29
  0
LINE
  8
0
 10
87.45
 20
-91.15
 11
87.45
 21
-87.65
  0
LINE
  8
0
 10
87.45
 20
-87.65
 11
88.25
 21
-87.65
  0
LINE
  8
0
 10
88.25
 20
-87.65
 11
88.25
 21
-82.65
  0
LINE
  8
0
 10
88.25
 20
-82.65
 11
87.45
 21
-82.65
  0
LINE
  8
0
 10
87.45
 20
-82.65
 11
87.45
 21
-79.15
  0
LINE
  8
0
 10
87.45
 20
-79.15
 11
88.25
 21
-79.15
  0
LINE
  8
0
 10
88.25
 20
-79.15
 11
88.25
 21
-78.15
  0
LINE
  8
0
 10
88.25
 20
-78.15
 11
102.25
 21
-78.15
  0
LINE
  8
0
 10
102.25
 20
-78.15
 11
102.25
 21
-79.15
  0
LINE
  8
0
 10
102.25
 20
-79.15
 11
103.05
 21
-79.15
  0
LINE
  8
0
 10
103.05
 20
-79.15
 11
103.05
 21
-82.65
  0
LINE
  8
0
 10
103.05
 20
-82.65
 11
102.25
 21
-82.65
  0
LINE
  8
0
 10
102.25
 20
-82.65
 11
102.25
 21
-87.65
  0
LINE
  8
0
 10
102.25
 20
-87.65
 11
103.05
 21
-87.65
  0
LINE
  8
0
 10
103.05
 20
-87.65
 11
103.05
 21
-91.15
  0
LINE
  8
0
 10
103.05
 20
-91.15
 11
102.25
 21
-91.15
  0
LINE
  8
0
 10
102.25
 20
-91.15
 11
102.25
 21
-92.15
  0
LINE
  8
0
 10
102.25
 20
-92.15
 11
88.25
 21
-92.15
  0
LINE
  8
0
 10
88.25
 20
-92.15
 11
88.25
 21
-91.15
  0
LINE
  8
0
 10
88.25
 20
-91.15
 11
87.45
 21
-91.15
  0
LINE
  8
0
 10
87.45
 20
-72.1
 11
87.45
 21
-68.6
  0
LINE
  8
0
 10
87.45
 20
-68.6
 11
88.25
 21
-68.6
  0
LINE
  8
0
 10
88.25
 20
-68.6
 11
88.25
 21
-63.6
  0
LINE
  8
0
 10
88.25
 20
-63.6
 11
87.45
 21
-63.6
  0
LINE
  8
0
 10
87.45
 20
-63.6
 11
87.45
 21
-60.1
  0
LINE
  8
0
 10
87.45
 20
-60.1
 11
88.25
 21
-60.1
  0
LINE
  8
0
 10
88.25
 20
-60.1
 11
88.25
 21
-59.1
  0
LINE
  8
0
 10
88.25
 20
-59.1
 11
102.25
 21
-59.1
  0
LINE
  8
0
 10
102.25
 20
-59.1
 11
102.25
 21
-60.1
  0
LINE
  8
0
 10
102.25
 20
-60.1
 11
103.05
 21
-60.1
  0
LINE
  8
0
 10
103.05
 20
-60.1
 11
103.05
 21
-63.6
  0
LINE
  8
0
 10
103.05
 20
-63.6
 11
102.25
 21
-63.6
  0
LINE
  8
0
 10
102.25
 20
-63.6
 11
102.25
 21
-68.6
  0
LINE
  8
0
 10
102.25
 20
-68.6
 11
103.05
 21
-68.6
  0
LINE
  8
0
 10
103.05
 20
-68.6
 11
103.05
 21
-72.1
  0
LINE
  8
0
 10
103.05
 20
-72.1
 11
102.25
 21
-72.1
  0
LINE
  8
0
 10
102.25
 20
-72.1
 11
102.25
 21
-73.1
  0
LINE
  8
0
 10
102.25
 20
-73.1
 11
88.25
 21
-73.1
  0
LINE
  8
0
 10
88.25
 20
-73.1
 11
88.25
 21
-72.1
  0
LINE
  8
0
 10
88.25
 20
-72.1
 11
87.45
 21
-72.1
  0
LINE
  8
0
 10
87.45
 20
-53.05
 11
87.45
 21
-49.55
  0
LINE
  8
0
 10
87.45
 20
-49.55
 11
88.25
 21
-49.55
  0
LINE
  8
0
 10
88.25
 20
-49.55
 11
88.25
 21
-44.55
  0
LINE
  8
0
 10
88.25
 20
-44.55
 11
87.45
 21
-44.55
  0
LINE
  8
0
 10
87.45
 20
-44.55
 11
87.45
 21
-41.05
  0
LINE
  8
0
 10
87.45
 20
-41.05
 11
88.25
 21
-41.05
  0
LINE
  8
0
 10
88.25
 20
-41.05
 11
88.25
 21
-40.05
  0
LINE
  8
0
 10
88.25
 20
-40.05
 11
102.25
 21
-40.05
  0
LINE
  8
0
 10
102.25
 20
-40.05
 11
102.25
 21
-41.05
  0
LINE
  8
0
 10
102.25
 20
-41.05
 11
103.05
 21
-41.05
  0
LINE
  8
0
 10
103.05
 20
-41.05
 11
103.05
 21
-44.55
  0
LINE
  8
0
 10
103.05
 20
-44.55
 11
102.25
 21
-44.55
  0
LINE
  8
0
 10
102.25
 20
-44.55
 11
102.25
 21
-49.55
  0
LINE
  8
0
 10
102.25
 20
-49.55
 11
103.05
 21
-49.55
  0
LINE
  8
0
 10
103.05
 20
-49.55
 11
103.05
 21
-53.05
  0
LINE
  8
0
 10
103.05
 20
-53.05
 11
102.25
 21
-53.05
  0
LINE
  8
0
 10
102.25
 20
-53.05
 11
102.25
 21
-54.05
  0
LINE
  8
0
 10
102.25
 20
-54.05
 11
88.25
 21
-54.05
  0
LINE
  8
0
 10
88.25
 20
-54.05
 11
88.25
 21
-53.05
  0
LINE
  8
0
 10
88.25
 20
-53.05
 11
87.45
 21
-53.05
  0
LINE
  8
0
 10
87.45
 20
-34
 11
87.45
 21
-30.5
  0
LINE
  8
0
 10
87.45
 20
-30.5
 11
88.25
 21
-30.5
  0
LINE
  8
0
 10
88.25
 20
-30.5
 11
88.25
 21
-25.5
  0
LINE
  8
0
 10
88.25
 20
-25.5
 11
87.45
 21
-25.5
  0
LINE
  8
0
 10
87.45
 20
-25.5
 11
87.45
 21
-22
  0
LINE
  8
0
 10
87.45
 20
-22
 11
88.25
 21
-22
  0
LINE
  8
0
 10
88.25
 20
-22
 11
88.25
 21
-21
  0
LINE
  8
0
 10
88.25
 20
-21
 11
102.25
 21
-21
  0
LINE
  8
0
 10
102.25
 20
-21
 11
102.25
 21
-22
  0
LINE
  8
0
 10
102.25
 20
-22
 11
103.05
 21
-22
  0
LINE
  8
0
 10
103.05
 20
-22
 11
103.05
 21
-25.5
  0
LINE
  8
0
 10
103.05
 20
-25.5
 11
102.25
 21
-25.5
  0
LINE
  8
0
 10
102.25
 20
-25.5
 11
102.25
 21
-30.5
  0
LINE
  8
0
 10
102.25
 20
-30.5
 11
103.05
 21
-30.5
  0
LINE
  8
0
 10
103.05
 20
-30.5
 11
103.05
 21
-34
  0
LINE
  8
0
 10
103.05
 20
-34
 11
102.25
 21
-34
  0
LINE
  8
0
 10
102.25
 20
-34
 11
102.25
 21
-35
  0
LINE
  8
0
 10
102.25
 20
-35
 11
88.25
 21
-35
  0
LINE
  8
0
 10
88.25
 20
-35
 11
88.25
 21
-34
  0
LINE
  8
0
 10
88.25
 20
-34
 11
87.45
 21
-34
  0
ENDSEC
  0
SECTION
  2
OBJECTS
  0
DICTIONARY
  0
ENDSEC
  0
EOF
