  0
SECTION
  2
BLOCKS
  0
ENDSEC
  0
SECTION
  2
ENTITIES
  0
LINE
  8
0
 10
-26.3495
 20
-76.6648
 11
-26.3333
 21
-76.974
  0
LINE
  8
0
 10
-26.3333
 20
-76.974
 11
-26.2341
 21
-77.6001
  0
LINE
  8
0
 10
-26.2341
 20
-77.6001
 11
-26.1326
 21
-78.0228
  0
LINE
  8
0
 10
-26.1326
 20
-78.0228
 11
-21.5138
 21
-95.2605
  0
LINE
  8
0
 10
-21.5138
 20
-95.2605
 11
-21.3903
 21
-95.6774
  0
LINE
  8
0
 10
-21.3903
 20
-95.6774
 11
-21.1631
 21
-96.2693
  0
LINE
  8
0
 10
-21.1631
 20
-96.2693
 11
-21.0226
 21
-96.545
  0
LINE
  8
0
 10
-21.0226
 20
-96.545
 11
-20.8539
 21
-96.8049
  0
LINE
  8
0
 10
-20.8539
 20
-96.8049
 11
-20.6591
 21
-97.0454
  0
LINE
  8
0
 10
-20.6591
 20
-97.0454
 11
-20.4397
 21
-97.2648
  0
LINE
  8
0
 10
-20.4397
 20
-97.2648
 11
-20.1997
 21
-97.4591
  0
LINE
  8
0
 10
-20.1997
 20
-97.4591
 11
-19.9394
 21
-97.6282
  0
LINE
  8
0
 10
-19.9394
 20
-97.6282
 11
-19.6637
 21
-97.7687
  0
LINE
  8
0
 10
-19.6637
 20
-97.7687
 11
-19.3743
 21
-97.8797
  0
LINE
  8
0
 10
-19.3743
 20
-97.8797
 11
-19.0756
 21
-97.9598
  0
LINE
  8
0
 10
-19.0756
 20
-97.9598
 11
-18.7694
 21
-98.0083
  0
LINE
  8
0
 10
-18.7694
 20
-98.0083
 11
-18.4601
 21
-98.0245
  0
LINE
  8
0
 10
-18.4601
 20
-98.0245
 11
-18.0624
 21
-98.0037
  0
LINE
  8
0
 10
-18.0624
 20
-98.0037
 11
-15.9689
 21
-98.0037
  0
LINE
  8
0
 10
-15.9689
 20
-98.0037
 11
-13.887
 21
-98.2225
  0
LINE
  8
0
 10
-13.887
 20
-98.2225
 11
-11.8393
 21
-98.6578
  0
LINE
  8
0
 10
-11.8393
 20
-98.6578
 11
-9.84833
 21
-99.3047
  0
LINE
  8
0
 10
-9.84833
 20
-99.3047
 11
-7.93588
 21
-100.156
  0
LINE
  8
0
 10
-7.93588
 20
-100.156
 11
-6.12292
 21
-101.203
  0
LINE
  8
0
 10
-6.12292
 20
-101.203
 11
-4.02722
 21
-102.768
  0
LINE
  8
0
 10
-4.02722
 20
-102.768
 11
-3.92891
 21
-102.852
  0
LINE
  8
0
 10
-3.92891
 20
-102.852
 11
-3.66956
 21
-103.051
  0
LINE
  8
0
 10
-3.66956
 20
-103.051
 11
-3.40042
 21
-103.236
  0
LINE
  8
0
 10
-3.40042
 20
-103.236
 11
-3.12144
 21
-103.407
  0
LINE
  8
0
 10
-3.12144
 20
-103.407
 11
-2.83405
 21
-103.563
  0
LINE
  8
0
 10
-2.83405
 20
-103.563
 11
-2.53929
 21
-103.703
  0
LINE
  8
0
 10
-2.53929
 20
-103.703
 11
-2.2374
 21
-103.828
  0
LINE
  8
0
 10
-2.2374
 20
-103.828
 11
-1.92917
 21
-103.938
  0
LINE
  8
0
 10
-1.92917
 20
-103.938
 11
-1.61584
 21
-104.03
  0
LINE
  8
0
 10
-1.61584
 20
-104.03
 11
-1.29808
 21
-104.107
  0
LINE
  8
0
 10
-1.29808
 20
-104.107
 11
-0.976929
 21
-104.166
  0
LINE
  8
0
 10
-0.976929
 20
-104.166
 11
-0.652634
 21
-104.209
  0
LINE
  8
0
 10
-0.652634
 20
-104.209
 11
-0.326843
 21
-104.235
  0
LINE
  8
0
 10
-0.326843
 20
-104.235
 11
0
 21
-104.243
  0
LINE
  8
0
 10
0
 20
-104.243
 11
0.326843
 21
-104.235
  0
LINE
  8
0
 10
0.326843
 20
-104.235
 11
0.652634
 21
-104.209
  0
LINE
  8
0
 10
0.652634
 20
-104.209
 11
0.976929
 21
-104.166
  0
LINE
  8
0
 10
0.976929
 20
-104.166
 11
1.29808
 21
-104.107
  0
LINE
  8
0
 10
1.29808
 20
-104.107
 11
1.61584
 21
-104.03
  0
LINE
  8
0
 10
1.61584
 20
-104.03
 11
1.92917
 21
-103.938
  0
LINE
  8
0
 10
1.92917
 20
-103.938
 11
2.2374
 21
-103.828
  0
LINE
  8
0
 10
2.2374
 20
-103.828
 11
2.53929
 21
-103.703
  0
LINE
  8
0
 10
2.53929
 20
-103.703
 11
2.83405
 21
-103.563
  0
LINE
  8
0
 10
2.83405
 20
-103.563
 11
3.12144
 21
-103.407
  0
LINE
  8
0
 10
3.12144
 20
-103.407
 11
3.40042
 21
-103.236
  0
LINE
  8
0
 10
3.40042
 20
-103.236
 11
3.66956
 21
-103.051
  0
LINE
  8
0
 10
3.66956
 20
-103.051
 11
3.92889
 21
-102.852
  0
LINE
  8
0
 10
3.92889
 20
-102.852
 11
4.17737
 21
-102.64
  0
LINE
  8
0
 10
4.17737
 20
-102.64
 11
4.41466
 21
-102.414
  0
LINE
  8
0
 10
4.41466
 20
-102.414
 11
4.42599
 21
-102.403
  0
LINE
  8
0
 10
4.42599
 20
-102.403
 11
5.9445
 21
-100.961
  0
LINE
  8
0
 10
5.9445
 20
-100.961
 11
7.60533
 21
-99.6871
  0
LINE
  8
0
 10
7.60533
 20
-99.6871
 11
9.39027
 21
-98.5932
  0
LINE
  8
0
 10
9.39027
 20
-98.5932
 11
11.2798
 21
-97.692
  0
LINE
  8
0
 10
11.2798
 20
-97.692
 11
13.2531
 21
-96.9931
  0
LINE
  8
0
 10
13.2531
 20
-96.9931
 11
15.2887
 21
-96.5044
  0
LINE
  8
0
 10
15.2887
 20
-96.5044
 11
17.3642
 21
-96.2311
  0
LINE
  8
0
 10
17.3642
 20
-96.2311
 11
19.457
 21
-96.1763
  0
LINE
  8
0
 10
19.457
 20
-96.1763
 11
21.5439
 21
-96.3405
  0
LINE
  8
0
 10
21.5439
 20
-96.3405
 11
23.6023
 21
-96.722
  0
LINE
  8
0
 10
23.6023
 20
-96.722
 11
25.6096
 21
-97.3166
  0
LINE
  8
0
 10
25.6096
 20
-97.3166
 11
27.5437
 21
-98.1177
  0
LINE
  8
0
 10
27.5437
 20
-98.1177
 11
28.9336
 21
-98.849
  0
LINE
  8
0
 10
28.9336
 20
-98.849
 11
33.5396
 21
-101.508
  0
LINE
  8
0
 10
33.5396
 20
-101.508
 11
33.9222
 21
-101.716
  0
LINE
  8
0
 10
33.9222
 20
-101.716
 11
34.501
 21
-101.974
  0
LINE
  8
0
 10
34.501
 20
-101.974
 11
34.7955
 21
-102.069
  0
LINE
  8
0
 10
34.7955
 20
-102.069
 11
35.0987
 21
-102.134
  0
LINE
  8
0
 10
35.0987
 20
-102.134
 11
35.4068
 21
-102.166
  0
LINE
  8
0
 10
35.4068
 20
-102.166
 11
35.7159
 21
-102.166
  0
LINE
  8
0
 10
35.7159
 20
-102.166
 11
36.0242
 21
-102.134
  0
LINE
  8
0
 10
36.0242
 20
-102.134
 11
36.3273
 21
-102.069
  0
LINE
  8
0
 10
36.3273
 20
-102.069
 11
36.6216
 21
-101.974
  0
LINE
  8
0
 10
36.6216
 20
-101.974
 11
36.9047
 21
-101.848
  0
LINE
  8
0
 10
36.9047
 20
-101.848
 11
37.173
 21
-101.693
  0
LINE
  8
0
 10
37.173
 20
-101.693
 11
37.4232
 21
-101.511
  0
LINE
  8
0
 10
37.4232
 20
-101.511
 11
37.6539
 21
-101.303
  0
LINE
  8
0
 10
37.6539
 20
-101.303
 11
37.8605
 21
-101.074
  0
LINE
  8
0
 10
37.8605
 20
-101.074
 11
38.2333
 21
-100.561
  0
LINE
  8
0
 10
38.2333
 20
-100.561
 11
38.4606
 21
-100.19
  0
LINE
  8
0
 10
38.4606
 20
-100.19
 11
40.8663
 21
-96.0229
  0
LINE
  8
0
 10
40.8663
 20
-96.0229
 11
42.0065
 21
-94.2672
  0
LINE
  8
0
 10
42.0065
 20
-94.2672
 11
43.324
 21
-92.6403
  0
LINE
  8
0
 10
43.324
 20
-92.6403
 11
44.8042
 21
-91.16
  0
LINE
  8
0
 10
44.8042
 20
-91.16
 11
46.4312
 21
-89.8426
  0
LINE
  8
0
 10
46.4312
 20
-89.8426
 11
48.1869
 21
-88.7024
  0
LINE
  8
0
 10
48.1869
 20
-88.7024
 11
50.0521
 21
-87.752
  0
LINE
  8
0
 10
50.0521
 20
-87.752
 11
52.0065
 21
-87.0018
  0
LINE
  8
0
 10
52.0065
 20
-87.0018
 11
54.0286
 21
-86.46
  0
LINE
  8
0
 10
54.0286
 20
-86.46
 11
56.0963
 21
-86.1325
  0
LINE
  8
0
 10
56.0963
 20
-86.1325
 11
58.1869
 21
-86.0229
  0
LINE
  8
0
 10
58.1869
 20
-86.0229
 11
60.2774
 21
-86.1325
  0
LINE
  8
0
 10
60.2774
 20
-86.1325
 11
62.3451
 21
-86.46
  0
LINE
  8
0
 10
62.3451
 20
-86.46
 11
64.3672
 21
-87.0018
  0
LINE
  8
0
 10
64.3672
 20
-87.0018
 11
64.8782
 21
-87.198
  0
LINE
  8
0
 10
64.8782
 20
-87.198
 11
66.5844
 21
-87.7524
  0
LINE
  8
0
 10
66.5844
 20
-87.7524
 11
67.2356
 21
-87.9268
  0
LINE
  8
0
 10
67.2356
 20
-87.9268
 11
69.19
 21
-88.677
  0
LINE
  8
0
 10
69.19
 20
-88.677
 11
71.0553
 21
-89.6273
  0
LINE
  8
0
 10
71.0553
 20
-89.6273
 11
72.8111
 21
-90.7674
  0
LINE
  8
0
 10
72.8111
 20
-90.7674
 11
74.438
 21
-92.0848
  0
LINE
  8
0
 10
74.438
 20
-92.0848
 11
75.9184
 21
-93.565
  0
LINE
  8
0
 10
75.9184
 20
-93.565
 11
77.2359
 21
-95.1919
  0
LINE
  8
0
 10
77.2359
 20
-95.1919
 11
78.3761
 21
-96.9475
  0
LINE
  8
0
 10
78.3761
 20
-96.9475
 11
79.3266
 21
-98.8128
  0
LINE
  8
0
 10
79.3266
 20
-98.8128
 11
79.8539
 21
-100.134
  0
LINE
  8
0
 10
79.8539
 20
-100.134
 11
80.0216
 21
-100.539
  0
LINE
  8
0
 10
80.0216
 20
-100.539
 11
80.1622
 21
-100.834
  0
LINE
  8
0
 10
80.1622
 20
-100.834
 11
80.3182
 21
-101.121
  0
LINE
  8
0
 10
80.3182
 20
-101.121
 11
80.4895
 21
-101.401
  0
LINE
  8
0
 10
80.4895
 20
-101.401
 11
80.6741
 21
-101.67
  0
LINE
  8
0
 10
80.6741
 20
-101.67
 11
80.8731
 21
-101.929
  0
LINE
  8
0
 10
80.8731
 20
-101.929
 11
81.0853
 21
-102.177
  0
LINE
  8
0
 10
81.0853
 20
-102.177
 11
81.3104
 21
-102.415
  0
LINE
  8
0
 10
81.3104
 20
-102.415
 11
81.5476
 21
-102.64
  0
LINE
  8
0
 10
81.5476
 20
-102.64
 11
81.7961
 21
-102.852
  0
LINE
  8
0
 10
81.7961
 20
-102.852
 11
82.0554
 21
-103.051
  0
LINE
  8
0
 10
82.0554
 20
-103.051
 11
82.3248
 21
-103.236
  0
LINE
  8
0
 10
82.3248
 20
-103.236
 11
82.6034
 21
-103.407
  0
LINE
  8
0
 10
82.6034
 20
-103.407
 11
82.8906
 21
-103.563
  0
LINE
  8
0
 10
82.8906
 20
-103.563
 11
83.1856
 21
-103.703
  0
LINE
  8
0
 10
83.1856
 20
-103.703
 11
83.4879
 21
-103.829
  0
LINE
  8
0
 10
83.4879
 20
-103.829
 11
83.7957
 21
-103.938
  0
LINE
  8
0
 10
83.7957
 20
-103.938
 11
84.1091
 21
-104.03
  0
LINE
  8
0
 10
84.1091
 20
-104.03
 11
84.4267
 21
-104.107
  0
LINE
  8
0
 10
84.4267
 20
-104.107
 11
84.7484
 21
-104.166
  0
LINE
  8
0
 10
84.7484
 20
-104.166
 11
85.0723
 21
-104.209
  0
LINE
  8
0
 10
85.0723
 20
-104.209
 11
85.3981
 21
-104.235
  0
LINE
  8
0
 10
85.3981
 20
-104.235
 11
85.725
 21
-104.243
  0
LINE
  8
0
 10
85.725
 20
-104.243
 11
86.0519
 21
-104.235
  0
LINE
  8
0
 10
86.0519
 20
-104.235
 11
86.3777
 21
-104.209
  0
LINE
  8
0
 10
86.3777
 20
-104.209
 11
86.7016
 21
-104.166
  0
LINE
  8
0
 10
86.7016
 20
-104.166
 11
87.0231
 21
-104.107
  0
LINE
  8
0
 10
87.0231
 20
-104.107
 11
87.3409
 21
-104.03
  0
LINE
  8
0
 10
87.3409
 20
-104.03
 11
87.6542
 21
-103.938
  0
LINE
  8
0
 10
87.6542
 20
-103.938
 11
87.9623
 21
-103.828
  0
LINE
  8
0
 10
87.9623
 20
-103.828
 11
88.2643
 21
-103.703
  0
LINE
  8
0
 10
88.2643
 20
-103.703
 11
88.5596
 21
-103.563
  0
LINE
  8
0
 10
88.5596
 20
-103.563
 11
88.8465
 21
-103.407
  0
LINE
  8
0
 10
88.8465
 20
-103.407
 11
89.1249
 21
-103.236
  0
LINE
  8
0
 10
89.1249
 20
-103.236
 11
89.3947
 21
-103.051
  0
LINE
  8
0
 10
89.3947
 20
-103.051
 11
89.6542
 21
-102.852
  0
LINE
  8
0
 10
89.6542
 20
-102.852
 11
89.9023
 21
-102.64
  0
LINE
  8
0
 10
89.9023
 20
-102.64
 11
90.1397
 21
-102.414
  0
LINE
  8
0
 10
90.1397
 20
-102.414
 11
90.3645
 21
-102.178
  0
LINE
  8
0
 10
90.3645
 20
-102.178
 11
90.5765
 21
-101.929
  0
LINE
  8
0
 10
90.5765
 20
-101.929
 11
90.7758
 21
-101.67
  0
LINE
  8
0
 10
90.7758
 20
-101.67
 11
91.1484
 21
-101.128
  0
LINE
  8
0
 10
91.1484
 20
-101.128
 11
92.4228
 21
-99.4668
  0
LINE
  8
0
 10
92.4228
 20
-99.4668
 11
93.8639
 21
-97.9483
  0
LINE
  8
0
 10
93.8639
 20
-97.9483
 11
95.4557
 21
-96.5887
  0
LINE
  8
0
 10
95.4557
 20
-96.5887
 11
97.181
 21
-95.403
  0
LINE
  8
0
 10
97.181
 20
-95.403
 11
99.0208
 21
-94.4042
  0
LINE
  8
0
 10
99.0208
 20
-94.4042
 11
100.955
 21
-93.6031
  0
LINE
  8
0
 10
100.955
 20
-93.6031
 11
102.962
 21
-93.0086
  0
LINE
  8
0
 10
102.962
 20
-93.0086
 11
104.743
 21
-92.7026
  0
LINE
  8
0
 10
104.743
 20
-92.7026
 11
105.541
 21
-92.533
  0
LINE
  8
0
 10
105.541
 20
-92.533
 11
105.835
 21
-92.4372
  0
LINE
  8
0
 10
105.835
 20
-92.4372
 11
106.118
 21
-92.3114
  0
LINE
  8
0
 10
106.118
 20
-92.3114
 11
106.387
 21
-92.1564
  0
LINE
  8
0
 10
106.387
 20
-92.1564
 11
106.637
 21
-91.9744
  0
LINE
  8
0
 10
106.637
 20
-91.9744
 11
106.867
 21
-91.7672
  0
LINE
  8
0
 10
106.867
 20
-91.7672
 11
107.074
 21
-91.537
  0
LINE
  8
0
 10
107.074
 20
-91.537
 11
107.256
 21
-91.2866
  0
LINE
  8
0
 10
107.256
 20
-91.2866
 11
107.411
 21
-91.0181
  0
LINE
  8
0
 10
107.411
 20
-91.0181
 11
107.537
 21
-90.7354
  0
LINE
  8
0
 10
107.537
 20
-90.7354
 11
107.633
 21
-90.4407
  0
LINE
  8
0
 10
107.633
 20
-90.4407
 11
107.697
 21
-90.1378
  0
LINE
  8
0
 10
107.697
 20
-90.1378
 11
107.764
 21
-89.5078
  0
LINE
  8
0
 10
107.764
 20
-89.5078
 11
107.775
 21
-89.0729
  0
LINE
  8
0
 10
107.775
 20
-89.0729
 11
107.775
 21
-14.0771
  0
LINE
  8
0
 10
107.775
 20
-14.0771
 11
107.764
 21
-13.6422
  0
LINE
  8
0
 10
107.764
 20
-13.6422
 11
107.697
 21
-13.0122
  0
LINE
  8
0
 10
107.697
 20
-13.0122
 11
107.633
 21
-12.7093
  0
LINE
  8
0
 10
107.633
 20
-12.7093
 11
107.537
 21
-12.4146
  0
LINE
  8
0
 10
107.537
 20
-12.4146
 11
107.411
 21
-12.1319
  0
LINE
  8
0
 10
107.411
 20
-12.1319
 11
107.256
 21
-11.8634
  0
LINE
  8
0
 10
107.256
 20
-11.8634
 11
107.074
 21
-11.613
  0
LINE
  8
0
 10
107.074
 20
-11.613
 11
106.867
 21
-11.3828
  0
LINE
  8
0
 10
106.867
 20
-11.3828
 11
106.637
 21
-11.1756
  0
LINE
  8
0
 10
106.637
 20
-11.1756
 11
106.387
 21
-10.9936
  0
LINE
  8
0
 10
106.387
 20
-10.9936
 11
106.118
 21
-10.8386
  0
LINE
  8
0
 10
106.118
 20
-10.8386
 11
105.836
 21
-10.7128
  0
LINE
  8
0
 10
105.836
 20
-10.7128
 11
105.539
 21
-10.6163
  0
LINE
  8
0
 10
105.539
 20
-10.6163
 11
103.584
 21
-9.86604
  0
LINE
  8
0
 10
103.584
 20
-9.86604
 11
101.719
 21
-8.91562
  0
LINE
  8
0
 10
101.719
 20
-8.91562
 11
99.9632
 21
-7.77542
  0
LINE
  8
0
 10
99.9632
 20
-7.77542
 11
98.3363
 21
-6.45796
  0
LINE
  8
0
 10
98.3363
 20
-6.45796
 11
96.856
 21
-4.97766
  0
LINE
  8
0
 10
96.856
 20
-4.97766
 11
95.5386
 21
-3.35072
  0
LINE
  8
0
 10
95.5386
 20
-3.35072
 11
94.3985
 21
-1.59502
  0
LINE
  8
0
 10
94.3985
 20
-1.59502
 11
93.4481
 21
0.270264
  0
LINE
  8
0
 10
93.4481
 20
0.270264
 11
92.6979
 21
2.22467
  0
LINE
  8
0
 10
92.6979
 20
2.22467
 11
92.1561
 21
4.24678
  0
LINE
  8
0
 10
92.1561
 20
4.24678
 11
91.8287
 21
6.31445
  0
LINE
  8
0
 10
91.8287
 20
6.31445
 11
91.7191
 21
8.40503
  0
LINE
  8
0
 10
91.7191
 20
8.40503
 11
91.8902
 21
11.015
  0
LINE
  8
0
 10
91.8902
 20
11.015
 11
91.934
 21
11.3477
  0
LINE
  8
0
 10
91.934
 20
11.3477
 11
91.9596
 21
11.673
  0
LINE
  8
0
 10
91.9596
 20
11.673
 11
91.9681
 21
12
  0
LINE
  8
0
 10
91.9681
 20
12
 11
91.9596
 21
12.3271
  0
LINE
  8
0
 10
91.9596
 20
12.3271
 11
91.934
 21
12.6525
  0
LINE
  8
0
 10
91.934
 20
12.6525
 11
91.8913
 21
12.9762
  0
LINE
  8
0
 10
91.8913
 20
12.9762
 11
91.8317
 21
13.2982
  0
LINE
  8
0
 10
91.8317
 20
13.2982
 11
91.7554
 21
13.6158
  0
LINE
  8
0
 10
91.7554
 20
13.6158
 11
91.6626
 21
13.9292
  0
LINE
  8
0
 10
91.6626
 20
13.9292
 11
91.5534
 21
14.2374
  0
LINE
  8
0
 10
91.5534
 20
14.2374
 11
91.4284
 21
14.5393
  0
LINE
  8
0
 10
91.4284
 20
14.5393
 11
91.2878
 21
14.834
  0
LINE
  8
0
 10
91.2878
 20
14.834
 11
91.1318
 21
15.1214
  0
LINE
  8
0
 10
91.1318
 20
15.1214
 11
90.9609
 21
15.4003
  0
LINE
  8
0
 10
90.9609
 20
15.4003
 11
90.7758
 21
15.6696
  0
LINE
  8
0
 10
90.7758
 20
15.6696
 11
90.5765
 21
15.9293
  0
LINE
  8
0
 10
90.5765
 20
15.9293
 11
90.3645
 21
16.1775
  0
LINE
  8
0
 10
90.3645
 20
16.1775
 11
90.1397
 21
16.4144
  0
LINE
  8
0
 10
90.1397
 20
16.4144
 11
89.9023
 21
16.6397
  0
LINE
  8
0
 10
89.9023
 20
16.6397
 11
89.6542
 21
16.8516
  0
LINE
  8
0
 10
89.6542
 20
16.8516
 11
89.3947
 21
17.0507
  0
LINE
  8
0
 10
89.3947
 20
17.0507
 11
89.1249
 21
17.2362
  0
LINE
  8
0
 10
89.1249
 20
17.2362
 11
88.8465
 21
17.4068
  0
LINE
  8
0
 10
88.8465
 20
17.4068
 11
88.5596
 21
17.5625
  0
LINE
  8
0
 10
88.5596
 20
17.5625
 11
88.2643
 21
17.7034
  0
LINE
  8
0
 10
88.2643
 20
17.7034
 11
87.9623
 21
17.8285
  0
LINE
  8
0
 10
87.9623
 20
17.8285
 11
87.6542
 21
17.9376
  0
LINE
  8
0
 10
87.6542
 20
17.9376
 11
87.3409
 21
18.0304
  0
LINE
  8
0
 10
87.3409
 20
18.0304
 11
87.0231
 21
18.1067
  0
LINE
  8
0
 10
87.0231
 20
18.1067
 11
86.7016
 21
18.1663
  0
LINE
  8
0
 10
86.7016
 20
18.1663
 11
86.3777
 21
18.2089
  0
LINE
  8
0
 10
86.3777
 20
18.2089
 11
86.0519
 21
18.2346
  0
LINE
  8
0
 10
86.0519
 20
18.2346
 11
85.725
 21
18.2431
  0
LINE
  8
0
 10
85.725
 20
18.2431
 11
85.3981
 21
18.2346
  0
LINE
  8
0
 10
85.3981
 20
18.2346
 11
85.0723
 21
18.2089
  0
LINE
  8
0
 10
85.0723
 20
18.2089
 11
84.7484
 21
18.1663
  0
LINE
  8
0
 10
84.7484
 20
18.1663
 11
84.4267
 21
18.1067
  0
LINE
  8
0
 10
84.4267
 20
18.1067
 11
83.7141
 21
17.9356
  0
LINE
  8
0
 10
83.7141
 20
17.9356
 11
83.7135
 21
17.9379
  0
LINE
  8
0
 10
83.7135
 20
17.9379
 11
82.1178
 21
17.5547
  0
LINE
  8
0
 10
82.1178
 20
17.5547
 11
80.0423
 21
17.2814
  0
LINE
  8
0
 10
80.0423
 20
17.2814
 11
77.9496
 21
17.2265
  0
LINE
  8
0
 10
77.9496
 20
17.2265
 11
75.8626
 21
17.3907
  0
LINE
  8
0
 10
75.8626
 20
17.3907
 11
73.8042
 21
17.7721
  0
LINE
  8
0
 10
73.8042
 20
17.7721
 11
71.797
 21
18.3665
  0
LINE
  8
0
 10
71.797
 20
18.3665
 11
69.8628
 21
19.1676
  0
LINE
  8
0
 10
69.8628
 20
19.1676
 11
68.4724
 21
19.8991
  0
LINE
  8
0
 10
68.4724
 20
19.8991
 11
68.018
 21
20.1614
  0
LINE
  8
0
 10
68.018
 20
20.1614
 11
67.7354
 21
20.2872
  0
LINE
  8
0
 10
67.7354
 20
20.2872
 11
67.4407
 21
20.383
  0
LINE
  8
0
 10
67.4407
 20
20.383
 11
67.1378
 21
20.4474
  0
LINE
  8
0
 10
67.1378
 20
20.4474
 11
66.5078
 21
20.5136
  0
LINE
  8
0
 10
66.5078
 20
20.5136
 11
66.0729
 21
20.525
  0
LINE
  8
0
 10
66.0729
 20
20.525
 11
60.5267
 21
20.525
  0
LINE
  8
0
 10
60.5267
 20
20.525
 11
58.4361
 21
20.6346
  0
LINE
  8
0
 10
58.4361
 20
20.6346
 11
56.3685
 21
20.962
  0
LINE
  8
0
 10
56.3685
 20
20.962
 11
54.3464
 21
21.5039
  0
LINE
  8
0
 10
54.3464
 20
21.5039
 11
52.392
 21
22.2541
  0
LINE
  8
0
 10
52.392
 20
22.2541
 11
50.5267
 21
23.2045
  0
LINE
  8
0
 10
50.5267
 20
23.2045
 11
49.7347
 21
23.7188
  0
LINE
  8
0
 10
49.7347
 20
23.7188
 11
48.9681
 21
24.1614
  0
LINE
  8
0
 10
48.9681
 20
24.1614
 11
48.6854
 21
24.2872
  0
LINE
  8
0
 10
48.6854
 20
24.2872
 11
48.3907
 21
24.383
  0
LINE
  8
0
 10
48.3907
 20
24.383
 11
48.0878
 21
24.4474
  0
LINE
  8
0
 10
48.0878
 20
24.4474
 11
47.4578
 21
24.5136
  0
LINE
  8
0
 10
47.4578
 20
24.5136
 11
47.0229
 21
24.525
  0
LINE
  8
0
 10
47.0229
 20
24.525
 11
29.1771
 21
24.525
  0
LINE
  8
0
 10
29.1771
 20
24.525
 11
28.7422
 21
24.5136
  0
LINE
  8
0
 10
28.7422
 20
24.5136
 11
28.1122
 21
24.4474
  0
LINE
  8
0
 10
28.1122
 20
24.4474
 11
27.8093
 21
24.383
  0
LINE
  8
0
 10
27.8093
 20
24.383
 11
27.5146
 21
24.2872
  0
LINE
  8
0
 10
27.5146
 20
24.2872
 11
27.2319
 21
24.1614
  0
LINE
  8
0
 10
27.2319
 20
24.1614
 11
26.9634
 21
24.0064
  0
LINE
  8
0
 10
26.9634
 20
24.0064
 11
26.713
 21
23.8244
  0
LINE
  8
0
 10
26.713
 20
23.8244
 11
26.4828
 21
23.6172
  0
LINE
  8
0
 10
26.4828
 20
23.6172
 11
25.6788
 21
22.7243
  0
LINE
  8
0
 10
25.6788
 20
22.7243
 11
25.6656
 21
22.7362
  0
LINE
  8
0
 10
25.6656
 20
22.7362
 11
24.8422
 21
21.8218
  0
LINE
  8
0
 10
24.8422
 20
21.8218
 11
23.2865
 21
20.421
  0
LINE
  8
0
 10
23.2865
 20
20.421
 11
21.5928
 21
19.1905
  0
LINE
  8
0
 10
21.5928
 20
19.1905
 11
19.7798
 21
18.1438
  0
LINE
  8
0
 10
19.7798
 20
18.1438
 11
17.8674
 21
17.2924
  0
LINE
  8
0
 10
17.8674
 20
17.2924
 11
15.8764
 21
16.6455
  0
LINE
  8
0
 10
15.8764
 20
16.6455
 11
13.8287
 21
16.2103
  0
LINE
  8
0
 10
13.8287
 20
16.2103
 11
11.7467
 21
15.9915
  0
LINE
  8
0
 10
11.7467
 20
15.9915
 11
9.65329
 21
15.9915
  0
LINE
  8
0
 10
9.65329
 20
15.9915
 11
7.57132
 21
16.2104
  0
LINE
  8
0
 10
7.57132
 20
16.2104
 11
5.52364
 21
16.6457
  0
LINE
  8
0
 10
5.52364
 20
16.6457
 11
2.83578
 21
17.5975
  0
LINE
  8
0
 10
2.83578
 20
17.5975
 11
2.82982
 21
17.5831
  0
LINE
  8
0
 10
2.82982
 20
17.5831
 11
2.2374
 21
17.8284
  0
LINE
  8
0
 10
2.2374
 20
17.8284
 11
1.92917
 21
17.9376
  0
LINE
  8
0
 10
1.92917
 20
17.9376
 11
1.61584
 21
18.0304
  0
LINE
  8
0
 10
1.61584
 20
18.0304
 11
1.29808
 21
18.1067
  0
LINE
  8
0
 10
1.29808
 20
18.1067
 11
0.976929
 21
18.1662
  0
LINE
  8
0
 10
0.976929
 20
18.1662
 11
0.652634
 21
18.2089
  0
LINE
  8
0
 10
0.652634
 20
18.2089
 11
0.326843
 21
18.2346
  0
LINE
  8
0
 10
0.326843
 20
18.2346
 11
0
 21
18.2431
  0
LINE
  8
0
 10
0
 20
18.2431
 11
-0.326843
 21
18.2346
  0
LINE
  8
0
 10
-0.326843
 20
18.2346
 11
-0.652634
 21
18.2089
  0
LINE
  8
0
 10
-0.652634
 20
18.2089
 11
-0.976929
 21
18.1662
  0
LINE
  8
0
 10
-0.976929
 20
18.1662
 11
-1.29808
 21
18.1067
  0
LINE
  8
0
 10
-1.29808
 20
18.1067
 11
-1.61584
 21
18.0304
  0
LINE
  8
0
 10
-1.61584
 20
18.0304
 11
-1.92917
 21
17.9376
  0
LINE
  8
0
 10
-1.92917
 20
17.9376
 11
-2.2374
 21
17.8284
  0
LINE
  8
0
 10
-2.2374
 20
17.8284
 11
-2.53929
 21
17.7034
  0
LINE
  8
0
 10
-2.53929
 20
17.7034
 11
-2.83405
 21
17.5628
  0
LINE
  8
0
 10
-2.83405
 20
17.5628
 11
-3.12144
 21
17.4068
  0
LINE
  8
0
 10
-3.12144
 20
17.4068
 11
-3.40042
 21
17.2358
  0
LINE
  8
0
 10
-3.40042
 20
17.2358
 11
-3.66956
 21
17.0508
  0
LINE
  8
0
 10
-3.66956
 20
17.0508
 11
-3.92889
 21
16.8519
  0
LINE
  8
0
 10
-3.92889
 20
16.8519
 11
-4.17737
 21
16.6396
  0
LINE
  8
0
 10
-4.17737
 20
16.6396
 11
-4.41457
 21
16.4146
  0
LINE
  8
0
 10
-4.41457
 20
16.4146
 11
-4.63965
 21
16.1774
  0
LINE
  8
0
 10
-4.63965
 20
16.1774
 11
-4.85185
 21
15.9289
  0
LINE
  8
0
 10
-4.85185
 20
15.9289
 11
-5.05084
 21
15.6696
  0
LINE
  8
0
 10
-5.05084
 20
15.6696
 11
-5.23582
 21
15.4004
  0
LINE
  8
0
 10
-5.23582
 20
15.4004
 11
-5.40677
 21
15.1214
  0
LINE
  8
0
 10
-5.40677
 20
15.1214
 11
-5.56281
 21
14.834
  0
LINE
  8
0
 10
-5.56281
 20
14.834
 11
-5.72595
 21
14.492
  0
LINE
  8
0
 10
-5.72595
 20
14.492
 11
-5.78979
 21
14.3486
  0
LINE
  8
0
 10
-5.78979
 20
14.3486
 11
-5.79355
 21
14.3503
  0
LINE
  8
0
 10
-5.79355
 20
14.3503
 11
-5.83867
 21
14.2557
  0
LINE
  8
0
 10
-5.83867
 20
14.2557
 11
-5.84067
 21
14.2566
  0
LINE
  8
0
 10
-5.84067
 20
14.2566
 11
-6.58836
 21
12.689
  0
LINE
  8
0
 10
-6.58836
 20
12.689
 11
-7.68214
 21
10.904
  0
LINE
  8
0
 10
-7.68214
 20
10.904
 11
-8.95653
 21
9.24315
  0
LINE
  8
0
 10
-8.95653
 20
9.24315
 11
-10.7822
 21
7.36897
  0
LINE
  8
0
 10
-10.7822
 20
7.36897
 11
-11.6172
 21
6.61717
  0
LINE
  8
0
 10
-11.6172
 20
6.61717
 11
-11.8244
 21
6.38702
  0
LINE
  8
0
 10
-11.8244
 20
6.38702
 11
-12.0064
 21
6.13661
  0
LINE
  8
0
 10
-12.0064
 20
6.13661
 11
-12.1614
 21
5.86807
  0
LINE
  8
0
 10
-12.1614
 20
5.86807
 11
-12.2872
 21
5.58543
  0
LINE
  8
0
 10
-12.2872
 20
5.58543
 11
-12.383
 21
5.29071
  0
LINE
  8
0
 10
-12.383
 20
5.29071
 11
-12.4474
 21
4.98776
  0
LINE
  8
0
 10
-12.4474
 20
4.98776
 11
-12.5136
 21
4.35777
  0
LINE
  8
0
 10
-12.5136
 20
4.35777
 11
-12.525
 21
3.9229
  0
LINE
  8
0
 10
-12.525
 20
3.9229
 11
-12.525
 21
-55.5833
  0
LINE
  8
0
 10
-12.525
 20
-55.5833
 11
-12.6346
 21
-57.6738
  0
LINE
  8
0
 10
-12.6346
 20
-57.6738
 11
-12.962
 21
-59.7415
  0
LINE
  8
0
 10
-12.962
 20
-59.7415
 11
-13.5039
 21
-61.7636
  0
LINE
  8
0
 10
-13.5039
 20
-61.7636
 11
-14.2541
 21
-63.718
  0
LINE
  8
0
 10
-14.2541
 20
-63.718
 11
-15.2045
 21
-65.5833
  0
LINE
  8
0
 10
-15.2045
 20
-65.5833
 11
-16.3447
 21
-67.339
  0
LINE
  8
0
 10
-16.3447
 20
-67.339
 11
-17.6621
 21
-68.9659
  0
LINE
  8
0
 10
-17.6621
 20
-68.9659
 11
-19.1424
 21
-70.4462
  0
LINE
  8
0
 10
-19.1424
 20
-70.4462
 11
-20.7693
 21
-71.7636
  0
LINE
  8
0
 10
-20.7693
 20
-71.7636
 11
-22.525
 21
-72.9038
  0
LINE
  8
0
 10
-22.525
 20
-72.9038
 11
-23.818
 21
-73.5206
  0
LINE
  8
0
 10
-23.818
 20
-73.5206
 11
-23.7995
 21
-73.5569
  0
LINE
  8
0
 10
-23.7995
 20
-73.5569
 11
-24.87
 21
-74.1023
  0
LINE
  8
0
 10
-24.87
 20
-74.1023
 11
-25.1299
 21
-74.2711
  0
LINE
  8
0
 10
-25.1299
 20
-74.2711
 11
-25.3703
 21
-74.4658
  0
LINE
  8
0
 10
-25.3703
 20
-74.4658
 11
-25.5897
 21
-74.6852
  0
LINE
  8
0
 10
-25.5897
 20
-74.6852
 11
-25.7843
 21
-74.9256
  0
LINE
  8
0
 10
-25.7843
 20
-74.9256
 11
-25.9531
 21
-75.1854
  0
LINE
  8
0
 10
-25.9531
 20
-75.1854
 11
-26.0937
 21
-75.4614
  0
LINE
  8
0
 10
-26.0937
 20
-75.4614
 11
-26.2047
 21
-75.7506
  0
LINE
  8
0
 10
-26.2047
 20
-75.7506
 11
-26.2848
 21
-76.0493
  0
LINE
  8
0
 10
-26.2848
 20
-76.0493
 11
-26.3333
 21
-76.3556
  0
LINE
  8
0
 10
-26.3333
 20
-76.3556
 11
-26.3495
 21
-76.6648
  0
LINE
  8
0
 10
-20.8121
 20
-79.6232
 11
-20.0394
 21
-79.4162
  0
LINE
  8
0
 10
-20.0394
 20
-79.4162
 11
-20.2982
 21
-78.4502
  0
LINE
  8
0
 10
-20.2982
 20
-78.4502
 11
-6.77525
 21
-74.8268
  0
LINE
  8
0
 10
-6.77525
 20
-74.8268
 11
-6.51643
 21
-75.7927
  0
LINE
  8
0
 10
-6.51643
 20
-75.7927
 11
-5.7437
 21
-75.5856
  0
LINE
  8
0
 10
-5.7437
 20
-75.5856
 11
-4.83783
 21
-78.9664
  0
LINE
  8
0
 10
-4.83783
 20
-78.9664
 11
-5.61057
 21
-79.1734
  0
LINE
  8
0
 10
-5.61057
 20
-79.1734
 11
-4.31648
 21
-84.0031
  0
LINE
  8
0
 10
-4.31648
 20
-84.0031
 11
-3.54373
 21
-83.796
  0
LINE
  8
0
 10
-3.54373
 20
-83.796
 11
-2.63786
 21
-87.1768
  0
LINE
  8
0
 10
-2.63786
 20
-87.1768
 11
-3.41061
 21
-87.3838
  0
LINE
  8
0
 10
-3.41061
 20
-87.3838
 11
-3.15179
 21
-88.3497
  0
LINE
  8
0
 10
-3.15179
 20
-88.3497
 11
-16.6748
 21
-91.9732
  0
LINE
  8
0
 10
-16.6748
 20
-91.9732
 11
-16.9336
 21
-91.0073
  0
LINE
  8
0
 10
-16.9336
 20
-91.0073
 11
-17.7063
 21
-91.2143
  0
LINE
  8
0
 10
-17.7063
 20
-91.2143
 11
-18.6122
 21
-87.8336
  0
LINE
  8
0
 10
-18.6122
 20
-87.8336
 11
-17.8394
 21
-87.6265
  0
LINE
  8
0
 10
-17.8394
 20
-87.6265
 11
-19.1335
 21
-82.7969
  0
LINE
  8
0
 10
-19.1335
 20
-82.7969
 11
-19.9063
 21
-83.004
  0
LINE
  8
0
 10
-19.9063
 20
-83.004
 11
-20.8121
 21
-79.6232
  0
LINE
  8
0
 10
-7.79999
 20
-68.15
 11
-7.79999
 21
-64.65
  0
LINE
  8
0
 10
-7.79999
 20
-64.65
 11
-7
 21
-64.65
  0
LINE
  8
0
 10
-7
 20
-64.65
 11
-7
 21
-59.65
  0
LINE
  8
0
 10
-7
 20
-59.65
 11
-7.79999
 21
-59.65
  0
LINE
  8
0
 10
-7.79999
 20
-59.65
 11
-7.79999
 21
-56.15
  0
LINE
  8
0
 10
-7.79999
 20
-56.15
 11
-7
 21
-56.15
  0
LINE
  8
0
 10
-7
 20
-56.15
 11
-7
 21
-55.15
  0
LINE
  8
0
 10
-7
 20
-55.15
 11
6.99998
 21
-55.15
  0
LINE
  8
0
 10
6.99998
 20
-55.15
 11
6.99998
 21
-56.15
  0
LINE
  8
0
 10
6.99998
 20
-56.15
 11
7.79999
 21
-56.15
  0
LINE
  8
0
 10
7.79999
 20
-56.15
 11
7.79999
 21
-59.65
  0
LINE
  8
0
 10
7.79999
 20
-59.65
 11
6.99998
 21
-59.65
  0
LINE
  8
0
 10
6.99998
 20
-59.65
 11
6.99998
 21
-64.65
  0
LINE
  8
0
 10
6.99998
 20
-64.65
 11
7.79999
 21
-64.65
  0
LINE
  8
0
 10
7.79999
 20
-64.65
 11
7.79999
 21
-68.15
  0
LINE
  8
0
 10
7.79999
 20
-68.15
 11
6.99998
 21
-68.15
  0
LINE
  8
0
 10
6.99998
 20
-68.15
 11
6.99998
 21
-69.15
  0
LINE
  8
0
 10
6.99998
 20
-69.15
 11
-7
 21
-69.15
  0
LINE
  8
0
 10
-7
 20
-69.15
 11
-7
 21
-68.15
  0
LINE
  8
0
 10
-7
 20
-68.15
 11
-7.79999
 21
-68.15
  0
LINE
  8
0
 10
-7.79999
 20
-49.1
 11
-7.79999
 21
-45.6
  0
LINE
  8
0
 10
-7.79999
 20
-45.6
 11
-7
 21
-45.6
  0
LINE
  8
0
 10
-7
 20
-45.6
 11
-7
 21
-40.6
  0
LINE
  8
0
 10
-7
 20
-40.6
 11
-7.79999
 21
-40.6
  0
LINE
  8
0
 10
-7.79999
 20
-40.6
 11
-7.79999
 21
-37.1
  0
LINE
  8
0
 10
-7.79999
 20
-37.1
 11
-7
 21
-37.1
  0
LINE
  8
0
 10
-7
 20
-37.1
 11
-7
 21
-36.1
  0
LINE
  8
0
 10
-7
 20
-36.1
 11
6.99998
 21
-36.1
  0
LINE
  8
0
 10
6.99998
 20
-36.1
 11
6.99998
 21
-37.1
  0
LINE
  8
0
 10
6.99998
 20
-37.1
 11
7.79999
 21
-37.1
  0
LINE
  8
0
 10
7.79999
 20
-37.1
 11
7.79999
 21
-40.6
  0
LINE
  8
0
 10
7.79999
 20
-40.6
 11
6.99998
 21
-40.6
  0
LINE
  8
0
 10
6.99998
 20
-40.6
 11
6.99998
 21
-45.6
  0
LINE
  8
0
 10
6.99998
 20
-45.6
 11
7.79999
 21
-45.6
  0
LINE
  8
0
 10
7.79999
 20
-45.6
 11
7.79999
 21
-49.1
  0
LINE
  8
0
 10
7.79999
 20
-49.1
 11
6.99998
 21
-49.1
  0
LINE
  8
0
 10
6.99998
 20
-49.1
 11
6.99998
 21
-50.1
  0
LINE
  8
0
 10
6.99998
 20
-50.1
 11
-7
 21
-50.1
  0
LINE
  8
0
 10
-7
 20
-50.1
 11
-7
 21
-49.1
  0
LINE
  8
0
 10
-7
 20
-49.1
 11
-7.79999
 21
-49.1
  0
LINE
  8
0
 10
-7.79999
 20
-30.05
 11
-7.79999
 21
-26.55
  0
LINE
  8
0
 10
-7.79999
 20
-26.55
 11
-7
 21
-26.55
  0
LINE
  8
0
 10
-7
 20
-26.55
 11
-7
 21
-21.55
  0
LINE
  8
0
 10
-7
 20
-21.55
 11
-7.79999
 21
-21.55
  0
LINE
  8
0
 10
-7.79999
 20
-21.55
 11
-7.79999
 21
-18.05
  0
LINE
  8
0
 10
-7.79999
 20
-18.05
 11
-7
 21
-18.05
  0
LINE
  8
0
 10
-7
 20
-18.05
 11
-7
 21
-17.05
  0
LINE
  8
0
 10
-7
 20
-17.05
 11
6.99998
 21
-17.05
  0
LINE
  8
0
 10
6.99998
 20
-17.05
 11
6.99998
 21
-18.05
  0
LINE
  8
0
 10
6.99998
 20
-18.05
 11
7.79999
 21
-18.05
  0
LINE
  8
0
 10
7.79999
 20
-18.05
 11
7.79999
 21
-21.55
  0
LINE
  8
0
 10
7.79999
 20
-21.55
 11
6.99998
 21
-21.55
  0
LINE
  8
0
 10
6.99998
 20
-21.55
 11
6.99998
 21
-26.55
  0
LINE
  8
0
 10
6.99998
 20
-26.55
 11
7.79999
 21
-26.55
  0
LINE
  8
0
 10
7.79999
 20
-26.55
 11
7.79999
 21
-30.05
  0
LINE
  8
0
 10
7.79999
 20
-30.05
 11
6.99998
 21
-30.05
  0
LINE
  8
0
 10
6.99998
 20
-30.05
 11
6.99998
 21
-31.05
  0
LINE
  8
0
 10
6.99998
 20
-31.05
 11
-7
 21
-31.05
  0
LINE
  8
0
 10
-7
 20
-31.05
 11
-7
 21
-30.05
  0
LINE
  8
0
 10
-7
 20
-30.05
 11
-7.79999
 21
-30.05
  0
LINE
  8
0
 10
-7.79999
 20
-11
 11
-7.79999
 21
-7.5
  0
LINE
  8
0
 10
-7.79999
 20
-7.5
 11
-7
 21
-7.5
  0
LINE
  8
0
 10
-7
 20
-7.5
 11
-7
 21
-2.5
  0
LINE
  8
0
 10
-7
 20
-2.5
 11
-7.79999
 21
-2.5
  0
LINE
  8
0
 10
-7.79999
 20
-2.5
 11
-7.79999
 21
1
  0
LINE
  8
0
 10
-7.79999
 20
1
 11
-7
 21
1
  0
LINE
  8
0
 10
-7
 20
1
 11
-7
 21
2
  0
LINE
  8
0
 10
-7
 20
2
 11
6.99998
 21
2
  0
LINE
  8
0
 10
6.99998
 20
2
 11
6.99998
 21
1
  0
LINE
  8
0
 10
6.99998
 20
1
 11
7.79999
 21
1
  0
LINE
  8
0
 10
7.79999
 20
1
 11
7.79999
 21
-2.5
  0
LINE
  8
0
 10
7.79999
 20
-2.5
 11
6.99998
 21
-2.5
  0
LINE
  8
0
 10
6.99998
 20
-2.5
 11
6.99998
 21
-7.5
  0
LINE
  8
0
 10
6.99998
 20
-7.5
 11
7.79999
 21
-7.5
  0
LINE
  8
0
 10
7.79999
 20
-7.5
 11
7.79999
 21
-11
  0
LINE
  8
0
 10
7.79999
 20
-11
 11
6.99998
 21
-11
  0
LINE
  8
0
 10
6.99998
 20
-11
 11
6.99998
 21
-12
  0
LINE
  8
0
 10
6.99998
 20
-12
 11
-7
 21
-12
  0
LINE
  8
0
 10
-7
 20
-12
 11
-7
 21
-11
  0
LINE
  8
0
 10
-7
 20
-11
 11
-7.79999
 21
-11
  0
LINE
  8
0
 10
0.143265
 20
-78.2296
 11
0.895004
 21
-77.956
  0
LINE
  8
0
 10
0.895004
 20
-77.956
 11
0.552994
 21
-77.0163
  0
LINE
  8
0
 10
0.552994
 20
-77.0163
 11
13.7087
 21
-72.228
  0
LINE
  8
0
 10
13.7087
 20
-72.228
 11
14.0507
 21
-73.1677
  0
LINE
  8
0
 10
14.0507
 20
-73.1677
 11
14.8025
 21
-72.8941
  0
LINE
  8
0
 10
14.8025
 20
-72.8941
 11
15.9995
 21
-76.183
  0
LINE
  8
0
 10
15.9995
 20
-76.183
 11
15.2478
 21
-76.4566
  0
LINE
  8
0
 10
15.2478
 20
-76.4566
 11
16.9579
 21
-81.1551
  0
LINE
  8
0
 10
16.9579
 20
-81.1551
 11
17.7096
 21
-80.8815
  0
LINE
  8
0
 10
17.7096
 20
-80.8815
 11
18.9067
 21
-84.1704
  0
LINE
  8
0
 10
18.9067
 20
-84.1704
 11
18.155
 21
-84.444
  0
LINE
  8
0
 10
18.155
 20
-84.444
 11
18.497
 21
-85.3837
  0
LINE
  8
0
 10
18.497
 20
-85.3837
 11
5.34128
 21
-90.172
  0
LINE
  8
0
 10
5.34128
 20
-90.172
 11
4.99925
 21
-89.2323
  0
LINE
  8
0
 10
4.99925
 20
-89.2323
 11
4.24751
 21
-89.5059
  0
LINE
  8
0
 10
4.24751
 20
-89.5059
 11
3.05045
 21
-86.217
  0
LINE
  8
0
 10
3.05045
 20
-86.217
 11
3.80219
 21
-85.9434
  0
LINE
  8
0
 10
3.80219
 20
-85.9434
 11
2.09209
 21
-81.2449
  0
LINE
  8
0
 10
2.09209
 20
-81.2449
 11
1.34033
 21
-81.5185
  0
LINE
  8
0
 10
1.34033
 20
-81.5185
 11
0.143265
 21
-78.2296
  0
LINE
  8
0
 10
11.25
 20
-63.15
 11
11.25
 21
-59.65
  0
LINE
  8
0
 10
11.25
 20
-59.65
 11
12.05
 21
-59.65
  0
LINE
  8
0
 10
12.05
 20
-59.65
 11
12.05
 21
-54.65
  0
LINE
  8
0
 10
12.05
 20
-54.65
 11
11.25
 21
-54.65
  0
LINE
  8
0
 10
11.25
 20
-54.65
 11
11.25
 21
-51.15
  0
LINE
  8
0
 10
11.25
 20
-51.15
 11
12.05
 21
-51.15
  0
LINE
  8
0
 10
12.05
 20
-51.15
 11
12.05
 21
-50.15
  0
LINE
  8
0
 10
12.05
 20
-50.15
 11
26.05
 21
-50.15
  0
LINE
  8
0
 10
26.05
 20
-50.15
 11
26.05
 21
-51.15
  0
LINE
  8
0
 10
26.05
 20
-51.15
 11
26.85
 21
-51.15
  0
LINE
  8
0
 10
26.85
 20
-51.15
 11
26.85
 21
-54.65
  0
LINE
  8
0
 10
26.85
 20
-54.65
 11
26.05
 21
-54.65
  0
LINE
  8
0
 10
26.05
 20
-54.65
 11
26.05
 21
-59.65
  0
LINE
  8
0
 10
26.05
 20
-59.65
 11
26.85
 21
-59.65
  0
LINE
  8
0
 10
26.85
 20
-59.65
 11
26.85
 21
-63.15
  0
LINE
  8
0
 10
26.85
 20
-63.15
 11
26.05
 21
-63.15
  0
LINE
  8
0
 10
26.05
 20
-63.15
 11
26.05
 21
-64.15
  0
LINE
  8
0
 10
26.05
 20
-64.15
 11
12.05
 21
-64.15
  0
LINE
  8
0
 10
12.05
 20
-64.15
 11
12.05
 21
-63.15
  0
LINE
  8
0
 10
12.05
 20
-63.15
 11
11.25
 21
-63.15
  0
LINE
  8
0
 10
11.25
 20
-44.1
 11
11.25
 21
-40.6
  0
LINE
  8
0
 10
11.25
 20
-40.6
 11
12.05
 21
-40.6
  0
LINE
  8
0
 10
12.05
 20
-40.6
 11
12.05
 21
-35.6
  0
LINE
  8
0
 10
12.05
 20
-35.6
 11
11.25
 21
-35.6
  0
LINE
  8
0
 10
11.25
 20
-35.6
 11
11.25
 21
-32.1
  0
LINE
  8
0
 10
11.25
 20
-32.1
 11
12.05
 21
-32.1
  0
LINE
  8
0
 10
12.05
 20
-32.1
 11
12.05
 21
-31.1
  0
LINE
  8
0
 10
12.05
 20
-31.1
 11
26.05
 21
-31.1
  0
LINE
  8
0
 10
26.05
 20
-31.1
 11
26.05
 21
-32.1
  0
LINE
  8
0
 10
26.05
 20
-32.1
 11
26.85
 21
-32.1
  0
LINE
  8
0
 10
26.85
 20
-32.1
 11
26.85
 21
-35.6
  0
LINE
  8
0
 10
26.85
 20
-35.6
 11
26.05
 21
-35.6
  0
LINE
  8
0
 10
26.05
 20
-35.6
 11
26.05
 21
-40.6
  0
LINE
  8
0
 10
26.05
 20
-40.6
 11
26.85
 21
-40.6
  0
LINE
  8
0
 10
26.85
 20
-40.6
 11
26.85
 21
-44.1
  0
LINE
  8
0
 10
26.85
 20
-44.1
 11
26.05
 21
-44.1
  0
LINE
  8
0
 10
26.05
 20
-44.1
 11
26.05
 21
-45.1
  0
LINE
  8
0
 10
26.05
 20
-45.1
 11
12.05
 21
-45.1
  0
LINE
  8
0
 10
12.05
 20
-45.1
 11
12.05
 21
-44.1
  0
LINE
  8
0
 10
12.05
 20
-44.1
 11
11.25
 21
-44.1
  0
LINE
  8
0
 10
11.25
 20
-25.05
 11
11.25
 21
-21.55
  0
LINE
  8
0
 10
11.25
 20
-21.55
 11
12.05
 21
-21.55
  0
LINE
  8
0
 10
12.05
 20
-21.55
 11
12.05
 21
-16.55
  0
LINE
  8
0
 10
12.05
 20
-16.55
 11
11.25
 21
-16.55
  0
LINE
  8
0
 10
11.25
 20
-16.55
 11
11.25
 21
-13.05
  0
LINE
  8
0
 10
11.25
 20
-13.05
 11
12.05
 21
-13.05
  0
LINE
  8
0
 10
12.05
 20
-13.05
 11
12.05
 21
-12.05
  0
LINE
  8
0
 10
12.05
 20
-12.05
 11
26.05
 21
-12.05
  0
LINE
  8
0
 10
26.05
 20
-12.05
 11
26.05
 21
-13.05
  0
LINE
  8
0
 10
26.05
 20
-13.05
 11
26.85
 21
-13.05
  0
LINE
  8
0
 10
26.85
 20
-13.05
 11
26.85
 21
-16.55
  0
LINE
  8
0
 10
26.85
 20
-16.55
 11
26.05
 21
-16.55
  0
LINE
  8
0
 10
26.05
 20
-16.55
 11
26.05
 21
-21.55
  0
LINE
  8
0
 10
26.05
 20
-21.55
 11
26.85
 21
-21.55
  0
LINE
  8
0
 10
26.85
 20
-21.55
 11
26.85
 21
-25.05
  0
LINE
  8
0
 10
26.85
 20
-25.05
 11
26.05
 21
-25.05
  0
LINE
  8
0
 10
26.05
 20
-25.05
 11
26.05
 21
-26.05
  0
LINE
  8
0
 10
26.05
 20
-26.05
 11
12.05
 21
-26.05
  0
LINE
  8
0
 10
12.05
 20
-26.05
 11
12.05
 21
-25.05
  0
LINE
  8
0
 10
12.05
 20
-25.05
 11
11.25
 21
-25.05
  0
LINE
  8
0
 10
11.25
 20
-6
 11
11.25
 21
-2.5
  0
LINE
  8
0
 10
11.25
 20
-2.5
 11
12.05
 21
-2.5
  0
LINE
  8
0
 10
12.05
 20
-2.5
 11
12.05
 21
2.5
  0
LINE
  8
0
 10
12.05
 20
2.5
 11
11.25
 21
2.5
  0
LINE
  8
0
 10
11.25
 20
2.5
 11
11.25
 21
6
  0
LINE
  8
0
 10
11.25
 20
6
 11
12.05
 21
6
  0
LINE
  8
0
 10
12.05
 20
6
 11
12.05
 21
7
  0
LINE
  8
0
 10
12.05
 20
7
 11
26.05
 21
7
  0
LINE
  8
0
 10
26.05
 20
7
 11
26.05
 21
6
  0
LINE
  8
0
 10
26.05
 20
6
 11
26.85
 21
6
  0
LINE
  8
0
 10
26.85
 20
6
 11
26.85
 21
2.5
  0
LINE
  8
0
 10
26.85
 20
2.5
 11
26.05
 21
2.5
  0
LINE
  8
0
 10
26.05
 20
2.5
 11
26.05
 21
-2.5
  0
LINE
  8
0
 10
26.05
 20
-2.5
 11
26.85
 21
-2.5
  0
LINE
  8
0
 10
26.85
 20
-2.5
 11
26.85
 21
-6
  0
LINE
  8
0
 10
26.85
 20
-6
 11
26.05
 21
-6
  0
LINE
  8
0
 10
26.05
 20
-6
 11
26.05
 21
-7
  0
LINE
  8
0
 10
26.05
 20
-7
 11
12.05
 21
-7
  0
LINE
  8
0
 10
12.05
 20
-7
 11
12.05
 21
-6
  0
LINE
  8
0
 10
12.05
 20
-6
 11
11.25
 21
-6
  0
LINE
  8
0
 10
22.32
 20
-87.4961
 11
24.07
 21
-84.4651
  0
LINE
  8
0
 10
24.07
 20
-84.4651
 11
24.7628
 21
-84.8651
  0
LINE
  8
0
 10
24.7628
 20
-84.8651
 11
27.2628
 21
-80.5349
  0
LINE
  8
0
 10
27.2628
 20
-80.5349
 11
26.57
 21
-80.1349
  0
LINE
  8
0
 10
26.57
 20
-80.1349
 11
28.32
 21
-77.1038
  0
LINE
  8
0
 10
28.32
 20
-77.1038
 11
29.0128
 21
-77.5038
  0
LINE
  8
0
 10
29.0128
 20
-77.5038
 11
29.5128
 21
-76.6378
  0
LINE
  8
0
 10
29.5128
 20
-76.6378
 11
41.6372
 21
-83.6378
  0
LINE
  8
0
 10
41.6372
 20
-83.6378
 11
41.1372
 21
-84.5038
  0
LINE
  8
0
 10
41.1372
 20
-84.5038
 11
41.83
 21
-84.9038
  0
LINE
  8
0
 10
41.83
 20
-84.9038
 11
40.08
 21
-87.9349
  0
LINE
  8
0
 10
40.08
 20
-87.9349
 11
39.3872
 21
-87.5349
  0
LINE
  8
0
 10
39.3872
 20
-87.5349
 11
36.8872
 21
-91.8651
  0
LINE
  8
0
 10
36.8872
 20
-91.8651
 11
37.58
 21
-92.265
  0
LINE
  8
0
 10
37.58
 20
-92.265
 11
35.83
 21
-95.2961
  0
LINE
  8
0
 10
35.83
 20
-95.2961
 11
35.1372
 21
-94.8961
  0
LINE
  8
0
 10
35.1372
 20
-94.8961
 11
34.6372
 21
-95.7622
  0
LINE
  8
0
 10
34.6372
 20
-95.7622
 11
22.5128
 21
-88.7622
  0
LINE
  8
0
 10
22.5128
 20
-88.7622
 11
23.0128
 21
-87.8961
  0
LINE
  8
0
 10
23.0128
 20
-87.8961
 11
22.32
 21
-87.4961
  0
LINE
  8
0
 10
30.3
 20
-51.15
 11
30.3
 21
-47.65
  0
LINE
  8
0
 10
30.3
 20
-47.65
 11
31.1
 21
-47.65
  0
LINE
  8
0
 10
31.1
 20
-47.65
 11
31.1
 21
-42.65
  0
LINE
  8
0
 10
31.1
 20
-42.65
 11
30.3
 21
-42.65
  0
LINE
  8
0
 10
30.3
 20
-42.65
 11
30.3
 21
-39.15
  0
LINE
  8
0
 10
30.3
 20
-39.15
 11
31.1
 21
-39.15
  0
LINE
  8
0
 10
31.1
 20
-39.15
 11
31.1
 21
-38.15
  0
LINE
  8
0
 10
31.1
 20
-38.15
 11
45.1
 21
-38.15
  0
LINE
  8
0
 10
45.1
 20
-38.15
 11
45.1
 21
-39.15
  0
LINE
  8
0
 10
45.1
 20
-39.15
 11
45.9
 21
-39.15
  0
LINE
  8
0
 10
45.9
 20
-39.15
 11
45.9
 21
-42.65
  0
LINE
  8
0
 10
45.9
 20
-42.65
 11
45.1
 21
-42.65
  0
LINE
  8
0
 10
45.1
 20
-42.65
 11
45.1
 21
-47.65
  0
LINE
  8
0
 10
45.1
 20
-47.65
 11
45.9
 21
-47.65
  0
LINE
  8
0
 10
45.9
 20
-47.65
 11
45.9
 21
-51.15
  0
LINE
  8
0
 10
45.9
 20
-51.15
 11
45.1
 21
-51.15
  0
LINE
  8
0
 10
45.1
 20
-51.15
 11
45.1
 21
-52.15
  0
LINE
  8
0
 10
45.1
 20
-52.15
 11
31.1
 21
-52.15
  0
LINE
  8
0
 10
31.1
 20
-52.15
 11
31.1
 21
-51.15
  0
LINE
  8
0
 10
31.1
 20
-51.15
 11
30.3
 21
-51.15
  0
LINE
  8
0
 10
30.3
 20
-32.1
 11
30.3
 21
-28.6
  0
LINE
  8
0
 10
30.3
 20
-28.6
 11
31.1
 21
-28.6
  0
LINE
  8
0
 10
31.1
 20
-28.6
 11
31.1
 21
-23.6
  0
LINE
  8
0
 10
31.1
 20
-23.6
 11
30.3
 21
-23.6
  0
LINE
  8
0
 10
30.3
 20
-23.6
 11
30.3
 21
-20.1
  0
LINE
  8
0
 10
30.3
 20
-20.1
 11
31.1
 21
-20.1
  0
LINE
  8
0
 10
31.1
 20
-20.1
 11
31.1
 21
-19.1
  0
LINE
  8
0
 10
31.1
 20
-19.1
 11
45.1
 21
-19.1
  0
LINE
  8
0
 10
45.1
 20
-19.1
 11
45.1
 21
-20.1
  0
LINE
  8
0
 10
45.1
 20
-20.1
 11
45.9
 21
-20.1
  0
LINE
  8
0
 10
45.9
 20
-20.1
 11
45.9
 21
-23.6
  0
LINE
  8
0
 10
45.9
 20
-23.6
 11
45.1
 21
-23.6
  0
LINE
  8
0
 10
45.1
 20
-23.6
 11
45.1
 21
-28.6
  0
LINE
  8
0
 10
45.1
 20
-28.6
 11
45.9
 21
-28.6
  0
LINE
  8
0
 10
45.9
 20
-28.6
 11
45.9
 21
-32.1
  0
LINE
  8
0
 10
45.9
 20
-32.1
 11
45.1
 21
-32.1
  0
LINE
  8
0
 10
45.1
 20
-32.1
 11
45.1
 21
-33.1
  0
LINE
  8
0
 10
45.1
 20
-33.1
 11
31.1
 21
-33.1
  0
LINE
  8
0
 10
31.1
 20
-33.1
 11
31.1
 21
-32.1
  0
LINE
  8
0
 10
31.1
 20
-32.1
 11
30.3
 21
-32.1
  0
LINE
  8
0
 10
30.3
 20
-13.05
 11
30.3
 21
-9.54999
  0
LINE
  8
0
 10
30.3
 20
-9.54999
 11
31.1
 21
-9.54999
  0
LINE
  8
0
 10
31.1
 20
-9.54999
 11
31.1
 21
-4.54999
  0
LINE
  8
0
 10
31.1
 20
-4.54999
 11
30.3
 21
-4.54999
  0
LINE
  8
0
 10
30.3
 20
-4.54999
 11
30.3
 21
-1.04999
  0
LINE
  8
0
 10
30.3
 20
-1.04999
 11
31.1
 21
-1.04999
  0
LINE
  8
0
 10
31.1
 20
-1.04999
 11
31.1
 21
-0.0499878
  0
LINE
  8
0
 10
31.1
 20
-0.0499878
 11
45.1
 21
-0.0499878
  0
LINE
  8
0
 10
45.1
 20
-0.0499878
 11
45.1
 21
-1.04999
  0
LINE
  8
0
 10
45.1
 20
-1.04999
 11
45.9
 21
-1.04999
  0
LINE
  8
0
 10
45.9
 20
-1.04999
 11
45.9
 21
-4.54999
  0
LINE
  8
0
 10
45.9
 20
-4.54999
 11
45.1
 21
-4.54999
  0
LINE
  8
0
 10
45.1
 20
-4.54999
 11
45.1
 21
-9.54999
  0
LINE
  8
0
 10
45.1
 20
-9.54999
 11
45.9
 21
-9.54999
  0
LINE
  8
0
 10
45.9
 20
-9.54999
 11
45.9
 21
-13.05
  0
LINE
  8
0
 10
45.9
 20
-13.05
 11
45.1
 21
-13.05
  0
LINE
  8
0
 10
45.1
 20
-13.05
 11
45.1
 21
-14.05
  0
LINE
  8
0
 10
45.1
 20
-14.05
 11
31.1
 21
-14.05
  0
LINE
  8
0
 10
31.1
 20
-14.05
 11
31.1
 21
-13.05
  0
LINE
  8
0
 10
31.1
 20
-13.05
 11
30.3
 21
-13.05
  0
LINE
  8
0
 10
30.3
 20
6
 11
30.3
 21
9.5
  0
LINE
  8
0
 10
30.3
 20
9.5
 11
31.1
 21
9.5
  0
LINE
  8
0
 10
31.1
 20
9.5
 11
31.1
 21
14.5
  0
LINE
  8
0
 10
31.1
 20
14.5
 11
30.3
 21
14.5
  0
LINE
  8
0
 10
30.3
 20
14.5
 11
30.3
 21
18
  0
LINE
  8
0
 10
30.3
 20
18
 11
31.1
 21
18
  0
LINE
  8
0
 10
31.1
 20
18
 11
31.1
 21
19
  0
LINE
  8
0
 10
31.1
 20
19
 11
45.1
 21
19
  0
LINE
  8
0
 10
45.1
 20
19
 11
45.1
 21
18
  0
LINE
  8
0
 10
45.1
 20
18
 11
45.9
 21
18
  0
LINE
  8
0
 10
45.9
 20
18
 11
45.9
 21
14.5
  0
LINE
  8
0
 10
45.9
 20
14.5
 11
45.1
 21
14.5
  0
LINE
  8
0
 10
45.1
 20
14.5
 11
45.1
 21
9.5
  0
LINE
  8
0
 10
45.1
 20
9.5
 11
45.9
 21
9.5
  0
LINE
  8
0
 10
45.9
 20
9.5
 11
45.9
 21
6
  0
LINE
  8
0
 10
45.9
 20
6
 11
45.1
 21
6
  0
LINE
  8
0
 10
45.1
 20
6
 11
45.1
 21
5
  0
LINE
  8
0
 10
45.1
 20
5
 11
31.1
 21
5
  0
LINE
  8
0
 10
31.1
 20
5
 11
31.1
 21
6
  0
LINE
  8
0
 10
31.1
 20
6
 11
30.3
 21
6
  0
LINE
  8
0
 10
49.35
 20
-55.15
 11
49.35
 21
-51.65
  0
LINE
  8
0
 10
49.35
 20
-51.65
 11
50.15
 21
-51.65
  0
LINE
  8
0
 10
50.15
 20
-51.65
 11
50.15
 21
-46.65
  0
LINE
  8
0
 10
50.15
 20
-46.65
 11
49.35
 21
-46.65
  0
LINE
  8
0
 10
49.35
 20
-46.65
 11
49.35
 21
-43.15
  0
LINE
  8
0
 10
49.35
 20
-43.15
 11
50.15
 21
-43.15
  0
LINE
  8
0
 10
50.15
 20
-43.15
 11
50.15
 21
-42.15
  0
LINE
  8
0
 10
50.15
 20
-42.15
 11
64.15
 21
-42.15
  0
LINE
  8
0
 10
64.15
 20
-42.15
 11
64.15
 21
-43.15
  0
LINE
  8
0
 10
64.15
 20
-43.15
 11
64.95
 21
-43.15
  0
LINE
  8
0
 10
64.95
 20
-43.15
 11
64.95
 21
-46.65
  0
LINE
  8
0
 10
64.95
 20
-46.65
 11
64.15
 21
-46.65
  0
LINE
  8
0
 10
64.15
 20
-46.65
 11
64.15
 21
-51.65
  0
LINE
  8
0
 10
64.15
 20
-51.65
 11
64.95
 21
-51.65
  0
LINE
  8
0
 10
64.95
 20
-51.65
 11
64.95
 21
-55.15
  0
LINE
  8
0
 10
64.95
 20
-55.15
 11
64.15
 21
-55.15
  0
LINE
  8
0
 10
64.15
 20
-55.15
 11
64.15
 21
-56.15
  0
LINE
  8
0
 10
64.15
 20
-56.15
 11
50.15
 21
-56.15
  0
LINE
  8
0
 10
50.15
 20
-56.15
 11
50.15
 21
-55.15
  0
LINE
  8
0
 10
50.15
 20
-55.15
 11
49.35
 21
-55.15
  0
LINE
  8
0
 10
49.35
 20
-36.1
 11
49.35
 21
-32.6
  0
LINE
  8
0
 10
49.35
 20
-32.6
 11
50.15
 21
-32.6
  0
LINE
  8
0
 10
50.15
 20
-32.6
 11
50.15
 21
-27.6
  0
LINE
  8
0
 10
50.15
 20
-27.6
 11
49.35
 21
-27.6
  0
LINE
  8
0
 10
49.35
 20
-27.6
 11
49.35
 21
-24.1
  0
LINE
  8
0
 10
49.35
 20
-24.1
 11
50.15
 21
-24.1
  0
LINE
  8
0
 10
50.15
 20
-24.1
 11
50.15
 21
-23.1
  0
LINE
  8
0
 10
50.15
 20
-23.1
 11
64.15
 21
-23.1
  0
LINE
  8
0
 10
64.15
 20
-23.1
 11
64.15
 21
-24.1
  0
LINE
  8
0
 10
64.15
 20
-24.1
 11
64.95
 21
-24.1
  0
LINE
  8
0
 10
64.95
 20
-24.1
 11
64.95
 21
-27.6
  0
LINE
  8
0
 10
64.95
 20
-27.6
 11
64.15
 21
-27.6
  0
LINE
  8
0
 10
64.15
 20
-27.6
 11
64.15
 21
-32.6
  0
LINE
  8
0
 10
64.15
 20
-32.6
 11
64.95
 21
-32.6
  0
LINE
  8
0
 10
64.95
 20
-32.6
 11
64.95
 21
-36.1
  0
LINE
  8
0
 10
64.95
 20
-36.1
 11
64.15
 21
-36.1
  0
LINE
  8
0
 10
64.15
 20
-36.1
 11
64.15
 21
-37.1
  0
LINE
  8
0
 10
64.15
 20
-37.1
 11
50.15
 21
-37.1
  0
LINE
  8
0
 10
50.15
 20
-37.1
 11
50.15
 21
-36.1
  0
LINE
  8
0
 10
50.15
 20
-36.1
 11
49.35
 21
-36.1
  0
LINE
  8
0
 10
49.35
 20
-17.05
 11
49.35
 21
-13.55
  0
LINE
  8
0
 10
49.35
 20
-13.55
 11
50.15
 21
-13.55
  0
LINE
  8
0
 10
50.15
 20
-13.55
 11
50.15
 21
-8.54999
  0
LINE
  8
0
 10
50.15
 20
-8.54999
 11
49.35
 21
-8.54999
  0
LINE
  8
0
 10
49.35
 20
-8.54999
 11
49.35
 21
-5.04999
  0
LINE
  8
0
 10
49.35
 20
-5.04999
 11
50.15
 21
-5.04999
  0
LINE
  8
0
 10
50.15
 20
-5.04999
 11
50.15
 21
-4.04999
  0
LINE
  8
0
 10
50.15
 20
-4.04999
 11
64.15
 21
-4.04999
  0
LINE
  8
0
 10
64.15
 20
-4.04999
 11
64.15
 21
-5.04999
  0
LINE
  8
0
 10
64.15
 20
-5.04999
 11
64.95
 21
-5.04999
  0
LINE
  8
0
 10
64.95
 20
-5.04999
 11
64.95
 21
-8.54999
  0
LINE
  8
0
 10
64.95
 20
-8.54999
 11
64.15
 21
-8.54999
  0
LINE
  8
0
 10
64.15
 20
-8.54999
 11
64.15
 21
-13.55
  0
LINE
  8
0
 10
64.15
 20
-13.55
 11
64.95
 21
-13.55
  0
LINE
  8
0
 10
64.95
 20
-13.55
 11
64.95
 21
-17.05
  0
LINE
  8
0
 10
64.95
 20
-17.05
 11
64.15
 21
-17.05
  0
LINE
  8
0
 10
64.15
 20
-17.05
 11
64.15
 21
-18.05
  0
LINE
  8
0
 10
64.15
 20
-18.05
 11
50.15
 21
-18.05
  0
LINE
  8
0
 10
50.15
 20
-18.05
 11
50.15
 21
-17.05
  0
LINE
  8
0
 10
50.15
 20
-17.05
 11
49.35
 21
-17.05
  0
LINE
  8
0
 10
49.35
 20
2
 11
49.35
 21
5.5
  0
LINE
  8
0
 10
49.35
 20
5.5
 11
50.15
 21
5.5
  0
LINE
  8
0
 10
50.15
 20
5.5
 11
50.15
 21
10.5
  0
LINE
  8
0
 10
50.15
 20
10.5
 11
49.35
 21
10.5
  0
LINE
  8
0
 10
49.35
 20
10.5
 11
49.35
 21
14
  0
LINE
  8
0
 10
49.35
 20
14
 11
50.15
 21
14
  0
LINE
  8
0
 10
50.15
 20
14
 11
50.15
 21
15
  0
LINE
  8
0
 10
50.15
 20
15
 11
64.15
 21
15
  0
LINE
  8
0
 10
64.15
 20
15
 11
64.15
 21
14
  0
LINE
  8
0
 10
64.15
 20
14
 11
64.95
 21
14
  0
LINE
  8
0
 10
64.95
 20
14
 11
64.95
 21
10.5
  0
LINE
  8
0
 10
64.95
 20
10.5
 11
64.15
 21
10.5
  0
LINE
  8
0
 10
64.15
 20
10.5
 11
64.15
 21
5.5
  0
LINE
  8
0
 10
64.15
 20
5.5
 11
64.95
 21
5.5
  0
LINE
  8
0
 10
64.95
 20
5.5
 11
64.95
 21
2
  0
LINE
  8
0
 10
64.95
 20
2
 11
64.15
 21
2
  0
LINE
  8
0
 10
64.15
 20
2
 11
64.15
 21
1
  0
LINE
  8
0
 10
64.15
 20
1
 11
50.15
 21
1
  0
LINE
  8
0
 10
50.15
 20
1
 11
50.15
 21
2
  0
LINE
  8
0
 10
50.15
 20
2
 11
49.35
 21
2
  0
LINE
  8
0
 10
68.4
 20
-81.15
 11
68.4
 21
-77.65
  0
LINE
  8
0
 10
68.4
 20
-77.65
 11
69.2
 21
-77.65
  0
LINE
  8
0
 10
69.2
 20
-77.65
 11
69.2
 21
-72.65
  0
LINE
  8
0
 10
69.2
 20
-72.65
 11
68.4
 21
-72.65
  0
LINE
  8
0
 10
68.4
 20
-72.65
 11
68.4
 21
-69.15
  0
LINE
  8
0
 10
68.4
 20
-69.15
 11
69.2
 21
-69.15
  0
LINE
  8
0
 10
69.2
 20
-69.15
 11
69.2
 21
-68.15
  0
LINE
  8
0
 10
69.2
 20
-68.15
 11
83.2
 21
-68.15
  0
LINE
  8
0
 10
83.2
 20
-68.15
 11
83.2
 21
-69.15
  0
LINE
  8
0
 10
83.2
 20
-69.15
 11
84
 21
-69.15
  0
LINE
  8
0
 10
84
 20
-69.15
 11
84
 21
-72.65
  0
LINE
  8
0
 10
84
 20
-72.65
 11
83.2
 21
-72.65
  0
LINE
  8
0
 10
83.2
 20
-72.65
 11
83.2
 21
-77.65
  0
LINE
  8
0
 10
83.2
 20
-77.65
 11
84
 21
-77.65
  0
LINE
  8
0
 10
84
 20
-77.65
 11
84
 21
-81.15
  0
LINE
  8
0
 10
84
 20
-81.15
 11
83.2
 21
-81.15
  0
LINE
  8
0
 10
83.2
 20
-81.15
 11
83.2
 21
-82.15
  0
LINE
  8
0
 10
83.2
 20
-82.15
 11
69.2
 21
-82.15
  0
LINE
  8
0
 10
69.2
 20
-82.15
 11
69.2
 21
-81.15
  0
LINE
  8
0
 10
69.2
 20
-81.15
 11
68.4
 21
-81.15
  0
LINE
  8
0
 10
68.4
 20
-62.1
 11
68.4
 21
-58.6
  0
LINE
  8
0
 10
68.4
 20
-58.6
 11
69.2
 21
-58.6
  0
LINE
  8
0
 10
69.2
 20
-58.6
 11
69.2
 21
-53.6
  0
LINE
  8
0
 10
69.2
 20
-53.6
 11
68.4
 21
-53.6
  0
LINE
  8
0
 10
68.4
 20
-53.6
 11
68.4
 21
-50.1
  0
LINE
  8
0
 10
68.4
 20
-50.1
 11
69.2
 21
-50.1
  0
LINE
  8
0
 10
69.2
 20
-50.1
 11
69.2
 21
-49.1
  0
LINE
  8
0
 10
69.2
 20
-49.1
 11
83.2
 21
-49.1
  0
LINE
  8
0
 10
83.2
 20
-49.1
 11
83.2
 21
-50.1
  0
LINE
  8
0
 10
83.2
 20
-50.1
 11
84
 21
-50.1
  0
LINE
  8
0
 10
84
 20
-50.1
 11
84
 21
-53.6
  0
LINE
  8
0
 10
84
 20
-53.6
 11
83.2
 21
-53.6
  0
LINE
  8
0
 10
83.2
 20
-53.6
 11
83.2
 21
-58.6
  0
LINE
  8
0
 10
83.2
 20
-58.6
 11
84
 21
-58.6
  0
LINE
  8
0
 10
84
 20
-58.6
 11
84
 21
-62.1
  0
LINE
  8
0
 10
84
 20
-62.1
 11
83.2
 21
-62.1
  0
LINE
  8
0
 10
83.2
 20
-62.1
 11
83.2
 21
-63.1
  0
LINE
  8
0
 10
83.2
 20
-63.1
 11
69.2
 21
-63.1
  0
LINE
  8
0
 10
69.2
 20
-63.1
 11
69.2
 21
-62.1
  0
LINE
  8
0
 10
69.2
 20
-62.1
 11
68.4
 21
-62.1
  0
LINE
  8
0
 10
68.4
 20
-43.05
 11
68.4
 21
-39.55
  0
LINE
  8
0
 10
68.4
 20
-39.55
 11
69.2
 21
-39.55
  0
LINE
  8
0
 10
69.2
 20
-39.55
 11
69.2
 21
-34.55
  0
LINE
  8
0
 10
69.2
 20
-34.55
 11
68.4
 21
-34.55
  0
LINE
  8
0
 10
68.4
 20
-34.55
 11
68.4
 21
-31.05
  0
LINE
  8
0
 10
68.4
 20
-31.05
 11
69.2
 21
-31.05
  0
LINE
  8
0
 10
69.2
 20
-31.05
 11
69.2
 21
-30.05
  0
LINE
  8
0
 10
69.2
 20
-30.05
 11
83.2
 21
-30.05
  0
LINE
  8
0
 10
83.2
 20
-30.05
 11
83.2
 21
-31.05
  0
LINE
  8
0
 10
83.2
 20
-31.05
 11
84
 21
-31.05
  0
LINE
  8
0
 10
84
 20
-31.05
 11
84
 21
-34.55
  0
LINE
  8
0
 10
84
 20
-34.55
 11
83.2
 21
-34.55
  0
LINE
  8
0
 10
83.2
 20
-34.55
 11
83.2
 21
-39.55
  0
LINE
  8
0
 10
83.2
 20
-39.55
 11
84
 21
-39.55
  0
LINE
  8
0
 10
84
 20
-39.55
 11
84
 21
-43.05
  0
LINE
  8
0
 10
84
 20
-43.05
 11
83.2
 21
-43.05
  0
LINE
  8
0
 10
83.2
 20
-43.05
 11
83.2
 21
-44.05
  0
LINE
  8
0
 10
83.2
 20
-44.05
 11
69.2
 21
-44.05
  0
LINE
  8
0
 10
69.2
 20
-44.05
 11
69.2
 21
-43.05
  0
LINE
  8
0
 10
69.2
 20
-43.05
 11
68.4
 21
-43.05
  0
LINE
  8
0
 10
68.4
 20
-24
 11
68.4
 21
-20.5
  0
LINE
  8
0
 10
68.4
 20
-20.5
 11
69.2
 21
-20.5
  0
LINE
  8
0
 10
69.2
 20
-20.5
 11
69.2
 21
-15.5
  0
LINE
  8
0
 10
69.2
 20
-15.5
 11
68.4
 21
-15.5
  0
LINE
  8
0
 10
68.4
 20
-15.5
 11
68.4
 21
-12
  0
LINE
  8
0
 10
68.4
 20
-12
 11
69.2
 21
-12
  0
LINE
  8
0
 10
69.2
 20
-12
 11
69.2
 21
-11
  0
LINE
  8
0
 10
69.2
 20
-11
 11
83.2
 21
-11
  0
LINE
  8
0
 10
83.2
 20
-11
 11
83.2
 21
-12
  0
LINE
  8
0
 10
83.2
 20
-12
 11
84
 21
-12
  0
LINE
  8
0
 10
84
 20
-12
 11
84
 21
-15.5
  0
LINE
  8
0
 10
84
 20
-15.5
 11
83.2
 21
-15.5
  0
LINE
  8
0
 10
83.2
 20
-15.5
 11
83.2
 21
-20.5
  0
LINE
  8
0
 10
83.2
 20
-20.5
 11
84
 21
-20.5
  0
LINE
  8
0
 10
84
 20
-20.5
 11
84
 21
-24
  0
LINE
  8
0
 10
84
 20
-24
 11
83.2
 21
-24
  0
LINE
  8
0
 10
83.2
 20
-24
 11
83.2
 21
-25
  0
LINE
  8
0
 10
83.2
 20
-25
 11
69.2
 21
-25
  0
LINE
  8
0
 10
69.2
 20
-25
 11
69.2
 21
-24
  0
LINE
  8
0
 10
69.2
 20
-24
 11
68.4
 21
-24
  0
LINE
  8
0
 10
87.45
 20
-86.15
 11
87.45
 21
-82.65
  0
LINE
  8
0
 10
87.45
 20
-82.65
 11
88.25
 21
-82.65
  0
LINE
  8
0
 10
88.25
 20
-82.65
 11
88.25
 21
-77.65
  0
LINE
  8
0
 10
88.25
 20
-77.65
 11
87.45
 21
-77.65
  0
LINE
  8
0
 10
87.45
 20
-77.65
 11
87.45
 21
-74.15
  0
LINE
  8
0
 10
87.45
 20
-74.15
 11
88.25
 21
-74.15
  0
LINE
  8
0
 10
88.25
 20
-74.15
 11
88.25
 21
-73.15
  0
LINE
  8
0
 10
88.25
 20
-73.15
 11
102.25
 21
-73.15
  0
LINE
  8
0
 10
102.25
 20
-73.15
 11
102.25
 21
-74.15
  0
LINE
  8
0
 10
102.25
 20
-74.15
 11
103.05
 21
-74.15
  0
LINE
  8
0
 10
103.05
 20
-74.15
 11
103.05
 21
-77.65
  0
LINE
  8
0
 10
103.05
 20
-77.65
 11
102.25
 21
-77.65
  0
LINE
  8
0
 10
102.25
 20
-77.65
 11
102.25
 21
-82.65
  0
LINE
  8
0
 10
102.25
 20
-82.65
 11
103.05
 21
-82.65
  0
LINE
  8
0
 10
103.05
 20
-82.65
 11
103.05
 21
-86.15
  0
LINE
  8
0
 10
103.05
 20
-86.15
 11
102.25
 21
-86.15
  0
LINE
  8
0
 10
102.25
 20
-86.15
 11
102.25
 21
-87.15
  0
LINE
  8
0
 10
102.25
 20
-87.15
 11
88.25
 21
-87.15
  0
LINE
  8
0
 10
88.25
 20
-87.15
 11
88.25
 21
-86.15
  0
LINE
  8
0
 10
88.25
 20
-86.15
 11
87.45
 21
-86.15
  0
LINE
  8
0
 10
87.45
 20
-67.1
 11
87.45
 21
-63.6
  0
LINE
  8
0
 10
87.45
 20
-63.6
 11
88.25
 21
-63.6
  0
LINE
  8
0
 10
88.25
 20
-63.6
 11
88.25
 21
-58.6
  0
LINE
  8
0
 10
88.25
 20
-58.6
 11
87.45
 21
-58.6
  0
LINE
  8
0
 10
87.45
 20
-58.6
 11
87.45
 21
-55.1
  0
LINE
  8
0
 10
87.45
 20
-55.1
 11
88.25
 21
-55.1
  0
LINE
  8
0
 10
88.25
 20
-55.1
 11
88.25
 21
-54.1
  0
LINE
  8
0
 10
88.25
 20
-54.1
 11
102.25
 21
-54.1
  0
LINE
  8
0
 10
102.25
 20
-54.1
 11
102.25
 21
-55.1
  0
LINE
  8
0
 10
102.25
 20
-55.1
 11
103.05
 21
-55.1
  0
LINE
  8
0
 10
103.05
 20
-55.1
 11
103.05
 21
-58.6
  0
LINE
  8
0
 10
103.05
 20
-58.6
 11
102.25
 21
-58.6
  0
LINE
  8
0
 10
102.25
 20
-58.6
 11
102.25
 21
-63.6
  0
LINE
  8
0
 10
102.25
 20
-63.6
 11
103.05
 21
-63.6
  0
LINE
  8
0
 10
103.05
 20
-63.6
 11
103.05
 21
-67.1
  0
LINE
  8
0
 10
103.05
 20
-67.1
 11
102.25
 21
-67.1
  0
LINE
  8
0
 10
102.25
 20
-67.1
 11
102.25
 21
-68.1
  0
LINE
  8
0
 10
102.25
 20
-68.1
 11
88.25
 21
-68.1
  0
LINE
  8
0
 10
88.25
 20
-68.1
 11
88.25
 21
-67.1
  0
LINE
  8
0
 10
88.25
 20
-67.1
 11
87.45
 21
-67.1
  0
LINE
  8
0
 10
87.45
 20
-48.05
 11
87.45
 21
-44.55
  0
LINE
  8
0
 10
87.45
 20
-44.55
 11
88.25
 21
-44.55
  0
LINE
  8
0
 10
88.25
 20
-44.55
 11
88.25
 21
-39.55
  0
LINE
  8
0
 10
88.25
 20
-39.55
 11
87.45
 21
-39.55
  0
LINE
  8
0
 10
87.45
 20
-39.55
 11
87.45
 21
-36.05
  0
LINE
  8
0
 10
87.45
 20
-36.05
 11
88.25
 21
-36.05
  0
LINE
  8
0
 10
88.25
 20
-36.05
 11
88.25
 21
-35.05
  0
LINE
  8
0
 10
88.25
 20
-35.05
 11
102.25
 21
-35.05
  0
LINE
  8
0
 10
102.25
 20
-35.05
 11
102.25
 21
-36.05
  0
LINE
  8
0
 10
102.25
 20
-36.05
 11
103.05
 21
-36.05
  0
LINE
  8
0
 10
103.05
 20
-36.05
 11
103.05
 21
-39.55
  0
LINE
  8
0
 10
103.05
 20
-39.55
 11
102.25
 21
-39.55
  0
LINE
  8
0
 10
102.25
 20
-39.55
 11
102.25
 21
-44.55
  0
LINE
  8
0
 10
102.25
 20
-44.55
 11
103.05
 21
-44.55
  0
LINE
  8
0
 10
103.05
 20
-44.55
 11
103.05
 21
-48.05
  0
LINE
  8
0
 10
103.05
 20
-48.05
 11
102.25
 21
-48.05
  0
LINE
  8
0
 10
102.25
 20
-48.05
 11
102.25
 21
-49.05
  0
LINE
  8
0
 10
102.25
 20
-49.05
 11
88.25
 21
-49.05
  0
LINE
  8
0
 10
88.25
 20
-49.05
 11
88.25
 21
-48.05
  0
LINE
  8
0
 10
88.25
 20
-48.05
 11
87.45
 21
-48.05
  0
LINE
  8
0
 10
87.45
 20
-29
 11
87.45
 21
-25.5
  0
LINE
  8
0
 10
87.45
 20
-25.5
 11
88.25
 21
-25.5
  0
LINE
  8
0
 10
88.25
 20
-25.5
 11
88.25
 21
-20.5
  0
LINE
  8
0
 10
88.25
 20
-20.5
 11
87.45
 21
-20.5
  0
LINE
  8
0
 10
87.45
 20
-20.5
 11
87.45
 21
-17
  0
LINE
  8
0
 10
87.45
 20
-17
 11
88.25
 21
-17
  0
LINE
  8
0
 10
88.25
 20
-17
 11
88.25
 21
-16
  0
LINE
  8
0
 10
88.25
 20
-16
 11
102.25
 21
-16
  0
LINE
  8
0
 10
102.25
 20
-16
 11
102.25
 21
-17
  0
LINE
  8
0
 10
102.25
 20
-17
 11
103.05
 21
-17
  0
LINE
  8
0
 10
103.05
 20
-17
 11
103.05
 21
-20.5
  0
LINE
  8
0
 10
103.05
 20
-20.5
 11
102.25
 21
-20.5
  0
LINE
  8
0
 10
102.25
 20
-20.5
 11
102.25
 21
-25.5
  0
LINE
  8
0
 10
102.25
 20
-25.5
 11
103.05
 21
-25.5
  0
LINE
  8
0
 10
103.05
 20
-25.5
 11
103.05
 21
-29
  0
LINE
  8
0
 10
103.05
 20
-29
 11
102.25
 21
-29
  0
LINE
  8
0
 10
102.25
 20
-29
 11
102.25
 21
-30
  0
LINE
  8
0
 10
102.25
 20
-30
 11
88.25
 21
-30
  0
LINE
  8
0
 10
88.25
 20
-30
 11
88.25
 21
-29
  0
LINE
  8
0
 10
88.25
 20
-29
 11
87.45
 21
-29
  0
ENDSEC
  0
SECTION
  2
OBJECTS
  0
DICTIONARY
  0
ENDSEC
  0
EOF
